<svg width="65" height="65" viewBox="0 0 65 65" fill="none" xmlns="http://www.w3.org/2000/svg">
<circle cx="32.5" cy="32.5" r="32.5" fill="#186660"/>
<path d="M28.7946 15.1905L27.7207 15.3197C27.7207 15.3197 22.9027 15.8464 19.3841 18.672H19.3428L19.2988 18.7132C18.5096 19.4392 18.1658 20.3316 17.6227 21.6365C16.9825 23.2064 16.4374 24.8135 15.9906 26.449C14.9703 30.1381 14.1426 34.6069 14.1426 38.6947V39.0385L14.3145 39.3822C15.5877 41.6166 17.8482 43.0397 19.9437 44.0229C22.0378 45.006 23.8487 45.5271 25.1 45.5697L25.9167 45.6124L26.3457 44.8822L27.85 42.2175C29.445 42.5777 31.282 42.8197 33.3926 42.8197C35.5032 42.8197 37.3402 42.5777 38.9352 42.2175L40.4395 44.8822L40.8698 45.6124L41.6852 45.5697C42.9365 45.5271 44.7473 45.006 46.8415 44.0229C48.937 43.0397 51.1975 41.6166 52.4707 39.3822L52.6426 39.0385V38.6947C52.6426 34.6069 51.8148 30.1381 50.7946 26.449C50.3477 24.8135 49.8027 23.2064 49.1625 21.6365C48.6193 20.3302 48.2756 19.4392 47.4863 18.7146L47.4437 18.6706H47.3997C43.8838 15.8464 39.0645 15.3197 39.0645 15.3197L37.9906 15.1905L37.6028 16.1791C37.6028 16.1791 37.2055 17.1829 36.9593 18.3282C35.7772 18.1651 34.5858 18.0788 33.3926 18.0697C32.657 18.0697 31.3851 18.1179 29.8258 18.3282C29.6632 17.5972 29.4477 16.8789 29.181 16.1791L28.7946 15.1905ZM26.904 18.3282C26.9631 18.5207 27.0222 18.6871 27.0758 18.8439C25.298 19.2839 23.4018 19.9549 21.6625 21.0342L23.1227 23.3552C26.6895 21.1415 31.8127 20.8197 33.3926 20.8197C34.9711 20.8197 40.0957 21.1415 43.6625 23.3552L45.1227 21.0342C43.3833 19.9549 41.4872 19.2839 39.7093 18.8425C39.763 18.6871 39.8221 18.5207 39.8812 18.3269C41.1641 18.5854 43.6143 19.1766 45.6383 20.7771C45.6273 20.7826 46.154 21.5774 46.627 22.7104C47.111 23.8764 47.6472 25.4287 48.1312 27.1791C49.0607 30.5355 49.7908 34.6234 49.85 38.2217C48.9837 39.5431 47.3791 40.7352 45.681 41.5314C44.616 42.0346 43.4893 42.3952 42.3301 42.6039L41.6426 41.4447C42.051 41.2935 42.4538 41.1285 42.8031 40.9717C44.9192 40.0422 46.0687 39.0385 46.0687 39.0385L44.2633 36.976C44.2633 36.976 43.4906 37.6855 41.6852 38.4802C39.8826 39.275 37.1257 40.0697 33.3926 40.0697C29.6595 40.0697 26.904 39.275 25.1 38.4802C23.2946 37.6855 22.5218 36.976 22.5218 36.976L20.7165 39.0385C20.7165 39.0385 21.866 40.0422 23.9821 40.9717C24.3313 41.1285 24.7342 41.2949 25.1426 41.4447L24.4551 42.6052C23.2952 42.3958 22.1681 42.0343 21.1028 41.53C19.4061 40.7352 17.8001 39.5431 16.9366 38.2217C16.9943 34.6234 17.7245 30.5355 18.6553 27.1791C19.0667 25.6609 19.5685 24.1686 20.1582 22.7104C20.6312 21.5774 21.1578 20.7826 21.1468 20.7771C23.1708 19.1766 25.6211 18.5854 26.904 18.3282ZM28.5801 27.6947C27.5172 27.6947 26.5767 28.3011 26.002 29.0697C25.4272 29.8384 25.1426 30.783 25.1426 31.8197C25.1426 32.8565 25.4272 33.8011 26.002 34.5697C26.5767 35.3384 27.5172 35.9447 28.5801 35.9447C29.643 35.9447 30.5835 35.3384 31.1582 34.5697C31.733 33.8011 32.0176 32.8565 32.0176 31.8197C32.0176 30.783 31.733 29.8384 31.1582 29.0697C30.5835 28.3011 29.643 27.6947 28.5801 27.6947ZM38.2051 27.6947C37.1422 27.6947 36.2017 28.3011 35.627 29.0697C35.0522 29.8384 34.7676 30.783 34.7676 31.8197C34.7676 32.8565 35.0522 33.8011 35.627 34.5697C36.2017 35.3384 37.1422 35.9447 38.2051 35.9447C39.268 35.9447 40.2085 35.3384 40.7832 34.5697C41.358 33.8011 41.6426 32.8565 41.6426 31.8197C41.6426 30.783 41.358 29.8384 40.7832 29.0697C40.2085 28.3011 39.268 27.6947 38.2051 27.6947Z" fill="#D2EEDC"/>
</svg>
