<svg width="75" height="75" viewBox="0 0 75 75" fill="none" xmlns="http://www.w3.org/2000/svg">
<g filter="url(#filter0_d_455_2888)">
<circle cx="37.5" cy="37.5" r="32" stroke="#474747" shape-rendering="crispEdges"/>
</g>
<path d="M33.7949 20.1904L32.721 20.3197C32.721 20.3197 27.903 20.8463 24.3844 23.6719H24.3431L24.2991 23.7132C23.5099 24.4392 23.1661 25.3316 22.623 26.6364C21.9828 28.2064 21.4377 29.8134 20.9909 31.4489C19.9706 35.1381 19.1429 39.6068 19.1429 43.6947V44.0384L19.3147 44.3822C20.588 46.6166 22.8485 48.0397 24.944 49.0228C27.0381 50.0059 28.849 50.5271 30.1002 50.5697L30.917 50.6123L31.346 49.8822L32.8502 47.2174C34.4452 47.5777 36.2822 47.8197 38.3929 47.8197C40.5035 47.8197 42.3405 47.5777 43.9355 47.2174L45.4397 49.8822L45.8701 50.6123L46.6855 50.5697C47.9367 50.5271 49.7476 50.0059 51.8417 49.0228C53.9372 48.0397 56.1977 46.6166 57.471 44.3822L57.6429 44.0384V43.6947C57.6429 39.6068 56.8151 35.1381 55.7949 31.4489C55.348 29.8134 54.803 28.2064 54.1627 26.6364C53.6196 25.3302 53.2759 24.4392 52.4866 23.7146L52.444 23.6706H52.4C48.8841 20.8463 44.0647 20.3197 44.0647 20.3197L42.9909 20.1904L42.6031 21.1791C42.6031 21.1791 42.2057 22.1828 41.9596 23.3282C40.7775 23.1651 39.5861 23.0787 38.3929 23.0697C37.6572 23.0697 36.3854 23.1178 34.8261 23.3282C34.6635 22.5971 34.448 21.8789 34.1812 21.1791L33.7949 20.1904ZM31.9042 23.3282C31.9634 23.5207 32.0225 23.6871 32.0761 23.8438C30.2982 24.2838 28.4021 24.9548 26.6627 26.0342L28.123 28.3552C31.6897 26.1414 36.813 25.8197 38.3929 25.8197C39.9714 25.8197 45.096 26.1414 48.6627 28.3552L50.123 26.0342C48.3836 24.9548 46.4875 24.2838 44.7096 23.8424C44.7632 23.6871 44.8224 23.5207 44.8815 23.3268C46.1644 23.5853 48.6146 24.1766 50.6386 25.7771C50.6276 25.7826 51.1542 26.5773 51.6272 27.7103C52.1112 28.8763 52.6475 30.4287 53.1315 32.1791C54.061 35.5354 54.7911 39.6233 54.8502 43.2217C53.984 44.5431 52.3794 45.7352 50.6812 46.5313C49.6163 47.0345 48.4896 47.3952 47.3304 47.6038L46.6429 46.4447C47.0512 46.2934 47.4541 46.1284 47.8034 45.9717C49.9195 45.0422 51.069 44.0384 51.069 44.0384L49.2636 41.9759C49.2636 41.9759 48.4909 42.6854 46.6855 43.4802C44.8829 44.2749 42.126 45.0697 38.3929 45.0697C34.6597 45.0697 31.9042 44.2749 30.1002 43.4802C28.2949 42.6854 27.5221 41.9759 27.5221 41.9759L25.7167 44.0384C25.7167 44.0384 26.8662 45.0422 28.9824 45.9717C29.3316 46.1284 29.7345 46.2948 30.1429 46.4447L29.4554 47.6052C28.2955 47.3958 27.1684 47.0342 26.1031 46.5299C24.4064 45.7352 22.8004 44.5431 21.9369 43.2217C21.9946 39.6233 22.7247 35.5354 23.6556 32.1791C24.0669 30.6608 24.5688 29.1686 25.1585 27.7103C25.6315 26.5773 26.1581 25.7826 26.1471 25.7771C28.1711 24.1766 30.6214 23.5853 31.9042 23.3282ZM33.5804 32.6947C32.5175 32.6947 31.577 33.3011 31.0022 34.0697C30.4275 34.8383 30.1429 35.7829 30.1429 36.8197C30.1429 37.8564 30.4275 38.8011 31.0022 39.5697C31.577 40.3383 32.5175 40.9447 33.5804 40.9447C34.6432 40.9447 35.5837 40.3383 36.1585 39.5697C36.7332 38.8011 37.0179 37.8564 37.0179 36.8197C37.0179 35.7829 36.7332 34.8383 36.1585 34.0697C35.5837 33.3011 34.6432 32.6947 33.5804 32.6947ZM43.2054 32.6947C42.1425 32.6947 41.202 33.3011 40.6272 34.0697C40.0525 34.8383 39.7679 35.7829 39.7679 36.8197C39.7679 37.8564 40.0525 38.8011 40.6272 39.5697C41.202 40.3383 42.1425 40.9447 43.2054 40.9447C44.2682 40.9447 45.2087 40.3383 45.7835 39.5697C46.3582 38.8011 46.6429 37.8564 46.6429 36.8197C46.6429 35.7829 46.3582 34.8383 45.7835 34.0697C45.2087 33.3011 44.2682 32.6947 43.2054 32.6947Z" fill="#474747"/>
<defs>
<filter id="filter0_d_455_2888" x="0" y="0" width="75" height="75" filterUnits="userSpaceOnUse" color-interpolation-filters="sRGB">
<feFlood flood-opacity="0" result="BackgroundImageFix"/>
<feColorMatrix in="SourceAlpha" type="matrix" values="0 0 0 0 0 0 0 0 0 0 0 0 0 0 0 0 0 0 127 0" result="hardAlpha"/>
<feMorphology radius="1" operator="erode" in="SourceAlpha" result="effect1_dropShadow_455_2888"/>
<feOffset/>
<feGaussianBlur stdDeviation="3"/>
<feComposite in2="hardAlpha" operator="out"/>
<feColorMatrix type="matrix" values="0 0 0 0 0 0 0 0 0 0 0 0 0 0 0 0 0 0 0.25 0"/>
<feBlend mode="normal" in2="BackgroundImageFix" result="effect1_dropShadow_455_2888"/>
<feBlend mode="normal" in="SourceGraphic" in2="effect1_dropShadow_455_2888" result="shape"/>
</filter>
</defs>
</svg>
