<svg width="65" height="65" viewBox="0 0 65 65" fill="none" xmlns="http://www.w3.org/2000/svg">
<circle cx="32.5" cy="32.5" r="32.5" fill="#186660"/>
<path d="M32.492 47.0419C28.5308 47.0419 28.0639 47.0209 26.518 46.9533C25.3126 46.9137 24.1227 46.6686 22.9997 46.2287C22.0387 45.8547 21.166 45.285 20.4369 44.5557C19.7079 43.8263 19.1385 42.9534 18.7649 41.9922C18.3419 40.8651 18.1137 39.6743 18.0902 38.4707C18 36.9281 18 36.4225 18 32.492C18 28.5195 18.0209 28.0558 18.0902 26.518C18.1142 25.3161 18.3424 24.1269 18.7649 23.0013C19.138 22.039 19.7078 21.165 20.4379 20.4353C21.1679 19.7055 22.042 19.1361 23.0046 18.7632C24.1295 18.3385 25.319 18.1097 26.5213 18.087C28.059 18 28.5646 18 32.492 18C36.4853 18 36.9442 18.0209 38.4659 18.087C39.6703 18.1095 40.8651 18.3381 41.9922 18.7632C42.9545 19.1365 43.8284 19.7061 44.5584 20.4358C45.2884 21.1655 45.8583 22.0392 46.2319 23.0013C46.6619 24.1446 46.8921 25.3522 46.9098 26.5712C47 28.1138 47 28.6178 47 32.5467C47 36.4756 46.9775 36.9909 46.9098 38.5158C46.8858 39.7205 46.6571 40.9124 46.2335 42.0405C45.859 43.0024 45.2885 43.8758 44.5583 44.6054C43.8282 45.335 42.9543 45.9048 41.9922 46.2786C40.8651 46.7005 39.6751 46.9292 38.4723 46.9533C36.9345 47.0419 36.4305 47.0419 32.492 47.0419ZM32.4372 20.549C28.4986 20.549 28.0896 20.5683 26.5519 20.6375C25.6335 20.6495 24.7239 20.8189 23.8628 21.1383C23.2347 21.3791 22.664 21.7488 22.1876 22.2236C21.7111 22.6984 21.3394 23.2678 21.0964 23.895C20.7744 24.7645 20.6053 25.684 20.5957 26.6114C20.5103 28.1717 20.5103 28.5807 20.5103 32.492C20.5103 36.3565 20.5248 36.825 20.5957 38.3757C20.6102 39.2935 20.7792 40.2033 21.0964 41.0647C21.5892 42.332 22.5939 43.3335 23.8644 43.8198C24.7244 44.1412 25.6338 44.3107 26.5519 44.3206C28.1106 44.4108 28.5212 44.4108 32.4372 44.4108C36.3871 44.4108 36.7961 44.3915 38.3209 44.3206C39.2394 44.3095 40.1491 44.1401 41.01 43.8198C41.6347 43.5772 42.2022 43.2073 42.6762 42.7335C43.1502 42.2598 43.5205 41.6926 43.7635 41.068C44.0855 40.1984 44.2546 39.2774 44.2642 38.3499H44.282C44.3512 36.8106 44.3512 36.3999 44.3512 32.4662C44.3512 28.5324 44.3335 28.1186 44.2642 26.5808C44.2497 25.6638 44.0804 24.7557 43.7635 23.895C43.5211 23.2695 43.1511 22.7014 42.677 22.2267C42.2029 21.7521 41.6352 21.3814 41.01 21.1383C40.1493 20.8174 39.2395 20.6479 38.3209 20.6375C36.7639 20.549 36.3565 20.549 32.4372 20.549ZM32.492 39.9295C31.0195 39.9305 29.5799 39.4948 28.3551 38.6775C27.1304 37.8601 26.1755 36.698 25.6113 35.3379C25.0471 33.9779 24.8989 32.4811 25.1854 31.0368C25.472 29.5925 26.1804 28.2657 27.2211 27.2241C28.2618 26.1825 29.5881 25.4729 31.0321 25.1851C32.4761 24.8973 33.9731 25.0442 35.3336 25.6072C36.6941 26.1702 37.8571 27.1241 38.6755 28.3482C39.4939 29.5722 39.9308 31.0115 39.9312 32.4839C39.9286 34.4567 39.1442 36.3481 37.7498 37.7437C36.3554 39.1393 34.4648 39.9253 32.492 39.9295ZM32.492 27.65C31.5365 27.65 30.6026 27.9333 29.8082 28.4641C29.0138 28.9949 28.3946 29.7494 28.029 30.6321C27.6634 31.5148 27.5677 32.486 27.7541 33.4231C27.9405 34.3601 28.4006 35.2209 29.0762 35.8965C29.7517 36.572 30.6125 37.0321 31.5495 37.2185C32.4866 37.4049 33.4579 37.3092 34.3406 36.9436C35.2232 36.578 35.9777 35.9588 36.5085 35.1644C37.0393 34.37 37.3226 33.4361 37.3226 32.4807C37.3196 31.2004 36.8097 29.9735 35.9044 29.0682C34.9992 28.1629 33.7722 27.653 32.492 27.65ZM40.221 26.5019C39.993 26.5011 39.7675 26.4554 39.5572 26.3673C39.3469 26.2793 39.1561 26.1508 38.9955 25.989C38.6712 25.6622 38.4899 25.2201 38.4916 24.7597C38.4933 24.2993 38.6778 23.8585 39.0046 23.5342C39.3313 23.2098 39.7735 23.0286 40.2339 23.0303C40.6942 23.032 41.1351 23.2165 41.4594 23.5433C41.7837 23.87 41.965 24.3122 41.9632 24.7726C41.9615 25.2329 41.777 25.6738 41.4503 25.9981C41.1235 26.3224 40.6814 26.5037 40.221 26.5019Z" fill="#D2EEDC"/>
</svg>
