<svg width="65" height="65" viewBox="0 0 65 65" fill="none" xmlns="http://www.w3.org/2000/svg">
<circle cx="32.5" cy="32.5" r="32" stroke="#474747"/>
<path d="M26.5399 46.4538L26.5399 46.4538L26.5345 46.4536C25.3859 46.4158 24.2521 46.1823 23.1821 45.7632L23.1811 45.7627C22.2847 45.4139 21.4706 44.8825 20.7906 44.2022C20.1112 43.5226 19.5805 42.7093 19.2319 41.8138C18.8295 40.7406 18.6125 39.6068 18.5901 38.4609L18.5899 38.4512L18.5893 38.4415C18.5002 36.9162 18.5 36.4256 18.5 32.492C18.5 28.5319 18.5208 28.0697 18.5892 26.5507L18.5897 26.5405L18.5898 26.5405L18.5901 26.528C18.613 25.3836 18.83 24.2514 19.232 23.1796C19.5801 22.283 20.1111 21.4688 20.7913 20.7889C21.4717 20.1088 22.2863 19.578 23.1832 19.2303C24.2541 18.8262 25.3863 18.6085 26.5307 18.5869L26.5401 18.5867L26.5495 18.5862C28.0706 18.5001 28.5616 18.5 32.492 18.5C36.4512 18.5 36.9255 18.5206 38.4097 18.585L38.4442 18.5865L38.4442 18.5866L38.4565 18.5869C39.6033 18.6083 40.7408 18.8259 41.8136 19.2303C42.7103 19.5784 43.5246 20.1094 44.2049 20.7894C44.8851 21.4694 45.4164 22.2834 45.7649 23.1798C46.1741 24.2688 46.393 25.4186 46.4099 26.5784L46.41 26.5894L46.4107 26.6004C46.4998 28.1257 46.5 28.6146 46.5 32.5467C46.5 36.4716 46.4775 36.9789 46.4103 38.4934L46.4103 38.4936L46.4102 38.4936L46.4099 38.5058C46.387 39.6529 46.1695 40.7877 45.7665 41.8619C45.4171 42.758 44.8853 43.5718 44.2049 44.2517C43.5246 44.9315 42.7104 45.4627 41.8141 45.8114C40.7405 46.2129 39.6074 46.4304 38.4623 46.4534L38.4529 46.4536L38.4435 46.4541C36.9228 46.5417 36.4337 46.5419 32.492 46.5419C28.5532 46.5419 28.08 46.5212 26.5616 46.4547L26.5399 46.4538ZM23.6889 20.6695L23.6889 20.6695L23.6838 20.6714C22.9905 20.9372 22.3606 21.3453 21.8346 21.8694C21.3087 22.3935 20.8984 23.022 20.6302 23.7144L20.6301 23.7144L20.6276 23.7213C20.2868 24.6415 20.1073 25.6141 20.0958 26.595C20.0103 28.1601 20.0103 28.5909 20.0103 32.4748V32.492C20.0103 36.3525 20.0248 36.8348 20.0959 38.3911C20.112 39.3625 20.2914 40.3254 20.6272 41.2375L20.6272 41.2375L20.6304 41.2459C21.1742 42.6444 22.2831 43.7499 23.6857 44.2868L23.6894 44.2882C24.6 44.6285 25.5626 44.8085 26.5346 44.8204C28.0982 44.9108 28.532 44.9108 32.4191 44.9108H32.4372C36.3832 44.9108 36.8066 44.8915 38.3357 44.8205C39.3087 44.8077 40.2723 44.6277 41.1843 44.2884L41.1843 44.2885L41.191 44.2859C41.8804 44.0182 42.5066 43.61 43.0297 43.0872C43.5528 42.5644 43.9613 41.9385 44.2295 41.2492L44.2295 41.2492L44.2323 41.2416C44.5171 40.4728 44.6892 39.6664 44.7448 38.8499H44.76L44.7815 38.3724C44.8512 36.8217 44.8512 36.3989 44.8512 32.4806V32.4662C44.8512 28.5354 44.8335 28.1083 44.7641 26.5655C44.7478 25.5947 44.5682 24.6335 44.2327 23.7222L44.2327 23.7222L44.2297 23.7143C43.9622 23.0241 43.5539 22.3971 43.0308 21.8734C42.5076 21.3496 41.8811 20.9406 41.1912 20.6723L41.1912 20.6723L41.1847 20.6698C40.2735 20.33 39.3105 20.15 38.3381 20.1377C36.776 20.049 36.346 20.049 32.4551 20.049H32.4372C28.5075 20.049 28.0804 20.0682 26.5439 20.1374L26.5372 20.1377C25.5644 20.1513 24.6011 20.3312 23.6889 20.6695ZM32.4931 27.15H32.492C31.4376 27.15 30.407 27.4627 29.5304 28.0484C28.6538 28.6341 27.9705 29.4667 27.5671 30.4407C27.1636 31.4148 27.058 32.4866 27.2637 33.5206C27.4694 34.5547 27.9771 35.5045 28.7226 36.25C29.4681 36.9955 30.4179 37.5032 31.452 37.7089C32.486 37.9146 33.5579 37.809 34.5319 37.4056C35.506 37.0021 36.3385 36.3189 36.9242 35.4422C37.51 34.5656 37.8226 33.535 37.8226 32.4807L37.8226 32.4795C37.8193 31.0671 37.2568 29.7134 36.258 28.7146C35.2592 27.7159 33.9056 27.1533 32.4931 27.15ZM32.4916 39.4295C31.1181 39.4304 29.7752 39.024 28.6327 38.2616C27.4902 37.4991 26.5994 36.415 26.0731 35.1463C25.5468 33.8777 25.4086 32.4814 25.6759 31.1341C25.9432 29.7868 26.604 28.5491 27.5748 27.5775C28.5456 26.6058 29.7828 25.9439 31.1298 25.6754C32.4769 25.4069 33.8733 25.544 35.1424 26.0692C36.4115 26.5944 37.4964 27.4842 38.2598 28.6261C39.0231 29.7677 39.4307 31.1101 39.4312 32.4834C39.4287 34.3238 38.697 36.0883 37.3961 37.3903C36.0954 38.6921 34.3319 39.4254 32.4916 39.4295ZM40.2228 26.0019C40.0606 26.0013 39.9 25.9688 39.7503 25.9061C39.6006 25.8435 39.4647 25.7519 39.3503 25.6367C39.1194 25.4041 38.9904 25.0893 38.9916 24.7615C38.9928 24.4338 39.1242 24.1199 39.3568 23.889C39.5894 23.6581 39.9043 23.5291 40.232 23.5303C40.5598 23.5315 40.8736 23.6629 41.1045 23.8955C41.3354 24.1281 41.4645 24.443 41.4633 24.7707C41.462 25.0985 41.3307 25.4123 41.098 25.6432C40.8654 25.8741 40.5506 26.0032 40.2228 26.0019Z" fill="#474747" stroke="#474747"/>
</svg>
