<svg width="65" height="65" viewBox="0 0 65 65" fill="none" xmlns="http://www.w3.org/2000/svg">
<circle cx="32.5" cy="32.5" r="32.5" fill="#186660"/>
<path d="M44.167 46.0833H41.7316C40.958 46.0833 40.2162 45.776 39.6692 45.2291C39.1222 44.6821 38.8149 43.9402 38.8149 43.1667V35.3354C38.8279 35.0283 38.7351 34.726 38.5519 34.4791C38.3688 34.2322 38.1064 34.0557 37.8087 33.9792C37.6355 33.9528 37.4586 33.9639 37.2901 34.0117C37.1215 34.0595 36.9652 34.1429 36.8316 34.2562C36.6941 34.3729 36.5837 34.5182 36.5082 34.6819C36.4326 34.8456 36.3937 35.0238 36.3941 35.2042V43.1667C36.3941 43.9402 36.0868 44.6821 35.5398 45.2291C34.9928 45.776 34.251 46.0833 33.4774 46.0833H31.042C30.2684 46.0833 29.5266 45.776 28.9796 45.2291C28.4326 44.6821 28.1253 43.9402 28.1253 43.1667V35.2042C28.1253 32.6901 29.124 30.2791 30.9017 28.5014C32.6794 26.7237 35.0905 25.725 37.6045 25.725C40.1185 25.725 42.5296 26.7237 44.3073 28.5014C46.085 30.2791 47.0837 32.6901 47.0837 35.2042V43.1667C47.0837 43.9402 46.7764 44.6821 46.2294 45.2291C45.6824 45.776 44.9405 46.0833 44.167 46.0833ZM37.6045 31.0479C37.8327 31.0335 38.0617 31.0335 38.2899 31.0479C39.269 31.2362 40.1505 31.7633 40.7798 32.5366C41.4092 33.3099 41.7461 34.2802 41.7316 35.2771V43.1667H44.167V35.2042C44.167 33.4637 43.4756 31.7945 42.2449 30.5638C41.0142 29.3331 39.345 28.6417 37.6045 28.6417C35.864 28.6417 34.1948 29.3331 32.9641 30.5638C31.7334 31.7945 31.042 33.4637 31.042 35.2042V43.1667H33.4774V35.2042C33.4774 34.1069 33.9113 33.0541 34.6844 32.2755C35.4576 31.4969 36.5073 31.0556 37.6045 31.0479ZM23.7503 46.0833H20.8337C20.0601 46.0833 19.3182 45.776 18.7713 45.2291C18.2243 44.6821 17.917 43.9402 17.917 43.1667V28.5833C17.917 27.8098 18.2243 27.0679 18.7713 26.5209C19.3182 25.974 20.0601 25.6667 20.8337 25.6667H23.7503C24.5239 25.6667 25.2657 25.974 25.8127 26.5209C26.3597 27.0679 26.667 27.8098 26.667 28.5833V43.1667C26.667 43.9402 26.3597 44.6821 25.8127 45.2291C25.2657 45.776 24.5239 46.0833 23.7503 46.0833ZM20.8337 28.5833V43.1667H23.7503V28.5833H20.8337ZM22.292 24.2083C21.4267 24.2083 20.5808 23.9517 19.8614 23.471C19.1419 22.9903 18.5812 22.307 18.25 21.5076C17.9189 20.7081 17.8322 19.8285 18.0011 18.9798C18.1699 18.1311 18.5865 17.3516 19.1984 16.7397C19.8103 16.1279 20.5898 15.7112 21.4385 15.5424C22.2871 15.3736 23.1668 15.4602 23.9662 15.7914C24.7657 16.1225 25.4489 16.6832 25.9297 17.4027C26.4104 18.1222 26.667 18.968 26.667 19.8333C26.667 20.9937 26.2061 22.1065 25.3856 22.9269C24.5651 23.7474 23.4523 24.2083 22.292 24.2083ZM22.292 18.375C22.0036 18.375 21.7216 18.4605 21.4818 18.6208C21.242 18.781 21.055 19.0088 20.9447 19.2753C20.8343 19.5417 20.8054 19.8349 20.8617 20.1178C20.918 20.4007 21.0568 20.6606 21.2608 20.8645C21.4647 21.0685 21.7246 21.2074 22.0075 21.2636C22.2904 21.3199 22.5836 21.291 22.8501 21.1807C23.1165 21.0703 23.3443 20.8834 23.5046 20.6435C23.6648 20.4037 23.7503 20.1218 23.7503 19.8333C23.7503 19.4466 23.5967 19.0756 23.3232 18.8021C23.0497 18.5286 22.6788 18.375 22.292 18.375Z" fill="#D2EEDC"/>
</svg>
