<svg width="65" height="65" viewBox="0 0 65 65" fill="none" xmlns="http://www.w3.org/2000/svg">
<circle cx="32.5" cy="32.5" r="32" stroke="#474747"/>
<path d="M44.1667 46.083H41.7313C40.9577 46.083 40.2159 45.7757 39.6689 45.2287C39.1219 44.6818 38.8146 43.9399 38.8146 43.1663V35.3351C38.8276 35.028 38.7348 34.7257 38.5516 34.4788C38.3685 34.2319 38.1061 34.0554 37.8084 33.9788C37.6352 33.9525 37.4583 33.9636 37.2897 34.0114C37.1212 34.0592 36.9649 34.1426 36.8313 34.2559C36.6938 34.3726 36.5834 34.5179 36.5079 34.6816C36.4323 34.8453 36.3934 35.0235 36.3938 35.2038V43.1663C36.3938 43.9399 36.0865 44.6818 35.5395 45.2287C34.9925 45.7757 34.2507 46.083 33.4771 46.083H31.0417C30.2681 46.083 29.5263 45.7757 28.9793 45.2287C28.4323 44.6818 28.125 43.9399 28.125 43.1663V35.2038C28.125 32.6898 29.1237 30.2787 30.9014 28.5011C32.6791 26.7234 35.0902 25.7247 37.6042 25.7247C40.1182 25.7247 42.5293 26.7234 44.307 28.5011C46.0847 30.2787 47.0834 32.6898 47.0834 35.2038V43.1663C47.0834 43.9399 46.7761 44.6818 46.2291 45.2287C45.6821 45.7757 44.9402 46.083 44.1667 46.083ZM37.6042 31.0476C37.8324 31.0332 38.0614 31.0332 38.2896 31.0476C39.2687 31.2359 40.1502 31.763 40.7795 32.5363C41.4088 33.3096 41.7458 34.2798 41.7313 35.2768V43.1663H44.1667V35.2038C44.1667 33.4634 43.4753 31.7942 42.2446 30.5635C41.0139 29.3327 39.3447 28.6413 37.6042 28.6413C35.8637 28.6413 34.1945 29.3327 32.9638 30.5635C31.7331 31.7942 31.0417 33.4634 31.0417 35.2038V43.1663H33.4771V35.2038C33.4771 34.1066 33.911 33.0538 34.6841 32.2752C35.4573 31.4966 36.5069 31.0553 37.6042 31.0476ZM23.75 46.083H20.8334C20.0598 46.083 19.3179 45.7757 18.771 45.2287C18.224 44.6818 17.9167 43.9399 17.9167 43.1663V28.583C17.9167 27.8095 18.224 27.0676 18.771 26.5206C19.3179 25.9736 20.0598 25.6663 20.8334 25.6663H23.75C24.5236 25.6663 25.2654 25.9736 25.8124 26.5206C26.3594 27.0676 26.6667 27.8095 26.6667 28.583V43.1663C26.6667 43.9399 26.3594 44.6818 25.8124 45.2287C25.2654 45.7757 24.5236 46.083 23.75 46.083ZM20.8334 28.583V43.1663H23.75V28.583H20.8334ZM22.2917 24.208C21.4264 24.208 20.5805 23.9514 19.8611 23.4707C19.1416 22.99 18.5808 22.3067 18.2497 21.5073C17.9186 20.7078 17.8319 19.8282 18.0008 18.9795C18.1696 18.1308 18.5862 17.3513 19.1981 16.7394C19.81 16.1276 20.5895 15.7109 21.4382 15.5421C22.2868 15.3733 23.1665 15.4599 23.9659 15.791C24.7654 16.1222 25.4486 16.6829 25.9294 17.4024C26.4101 18.1219 26.6667 18.9677 26.6667 19.833C26.6667 20.9933 26.2058 22.1061 25.3853 22.9266C24.5648 23.7471 23.452 24.208 22.2917 24.208ZM22.2917 18.3747C22.0033 18.3747 21.7213 18.4602 21.4815 18.6205C21.2417 18.7807 21.0547 19.0085 20.9444 19.2749C20.834 19.5414 20.8051 19.8346 20.8614 20.1175C20.9176 20.4004 21.0565 20.6603 21.2605 20.8642C21.4644 21.0682 21.7243 21.2071 22.0072 21.2633C22.2901 21.3196 22.5833 21.2907 22.8498 21.1803C23.1162 21.07 23.344 20.883 23.5042 20.6432C23.6645 20.4034 23.75 20.1214 23.75 19.833C23.75 19.4462 23.5964 19.0753 23.3229 18.8018C23.0494 18.5283 22.6785 18.3747 22.2917 18.3747Z" fill="#474747"/>
</svg>
