<svg width="65" height="65" viewBox="0 0 65 65" fill="none" xmlns="http://www.w3.org/2000/svg">
<circle cx="32.5" cy="32.5" r="32" stroke="#474747"/>
<path d="M45 45H21C20.2044 45 19.4413 44.6839 18.8787 44.1213C18.3161 43.5587 18 42.7956 18 42V23.8695C18.0336 23.0967 18.3645 22.3667 18.9235 21.8321C19.4825 21.2974 20.2265 20.9993 21 21H45C45.7957 21 46.5587 21.3161 47.1213 21.8787C47.6839 22.4413 48 23.2044 48 24V42C48 42.7956 47.6839 43.5587 47.1213 44.1213C46.5587 44.6839 45.7957 45 45 45ZM21 26.802V42H45V26.802L33 34.8L21 26.802ZM22.2 24L33 31.2L43.8 24H22.2Z" fill="#474747"/>
</svg>
