<svg width="65" height="65" viewBox="0 0 65 65" fill="none" xmlns="http://www.w3.org/2000/svg">
<circle cx="32.5" cy="32.5" r="32.5" fill="#186660"/>
<path d="M26.7728 39.6266C26.3693 39.9434 25.9489 40.2344 25.5141 40.4988C25.9213 40.5758 26.3362 40.6188 26.7545 40.6265L26.7728 39.6266ZM26.7728 39.6266L26.1554 38.84C25.8872 39.0506 25.611 39.2487 25.3275 39.4342C25.7978 39.5525 26.2825 39.6176 26.7728 39.6266ZM44.3173 22.9381L44.9497 24.7891C45.1217 24.7685 45.2928 24.7448 45.4628 24.7181C45.2251 24.9199 44.9793 25.1127 44.726 25.2959L44.2887 25.6121L44.313 26.1512C44.3247 26.4128 44.3312 26.6755 44.3312 26.934C44.3312 34.9685 38.2222 44.1582 27.1056 44.1582H27.1045C25.1149 44.1605 23.1505 43.8159 21.2964 43.1495C23.5083 42.7504 25.6028 41.8164 27.3903 40.4132L29.6004 38.6783L26.7912 38.6268C25.6631 38.6061 24.5698 38.2332 23.6642 37.5602C23.1828 37.2026 22.7673 36.7696 22.4318 36.2812C22.9411 36.2514 23.4475 36.1693 23.9431 36.0352L23.8799 34.0897C22.6563 33.8424 21.556 33.1795 20.7656 32.2133C20.293 31.6356 19.9486 30.9709 19.7481 30.2628C20.29 30.407 20.8485 30.4895 21.4129 30.5075L24.9085 30.6187L22.0001 28.6764C21.2599 28.1821 20.6532 27.5128 20.2338 26.7278C19.8144 25.9428 19.5952 25.0664 19.5957 24.1763V24.1757C19.5957 23.7041 19.6563 23.2464 19.7701 22.8096C21.254 24.3469 22.987 25.6283 24.8995 26.5979C27.2991 27.8144 29.9276 28.5128 32.6146 28.6477L33.9419 28.7144L33.6383 27.4206C33.3662 26.261 33.4846 25.0441 33.975 23.9587C34.4654 22.8733 35.3004 21.9802 36.3504 21.4181C37.4004 20.8559 38.6067 20.6561 39.7818 20.8497C40.957 21.0433 42.0354 21.6195 42.8496 22.4888L43.2284 22.8933L43.7721 22.7865C44.1656 22.7093 44.555 22.615 44.9393 22.5041C44.7433 22.6623 44.5356 22.8075 44.3173 22.9381ZM20.7888 35.1799C20.909 35.5537 21.0626 35.9138 21.2468 36.2561L21.895 35.2931C21.9378 35.3962 21.9837 35.4978 22.0327 35.5978C21.7983 35.4973 21.5696 35.3849 21.3473 35.2612C21.1604 35.2423 20.9741 35.2152 20.7888 35.1799Z" stroke="#D2EEDC" stroke-width="2"/>
</svg>
