<svg width="65" height="65" viewBox="0 0 65 65" fill="none" xmlns="http://www.w3.org/2000/svg">
<circle cx="32.5" cy="32.5" r="32" stroke="#474747"/>
<path d="M26.7731 39.6262C26.3696 39.943 25.9492 40.234 25.5144 40.4983C25.9216 40.5753 26.3365 40.6183 26.7548 40.626L26.7731 39.6262ZM26.7731 39.6262L26.1557 38.8396C25.8875 39.0501 25.6113 39.2483 25.3278 39.4338C25.7981 39.552 26.2829 39.6172 26.7731 39.6262ZM44.3176 22.9377L44.95 24.7887C45.122 24.7681 45.2931 24.7444 45.4631 24.7176C45.2254 24.9195 44.9796 25.1123 44.7263 25.2955L44.289 25.6117L44.3133 26.1508C44.3251 26.4123 44.3315 26.675 44.3315 26.9336C44.3315 34.968 38.2225 44.1578 27.1059 44.1578H27.1048C25.1152 44.16 23.1508 43.8155 21.2967 43.1491C23.5086 42.7499 25.6031 41.816 27.3906 40.4128L29.6007 38.6779L26.7915 38.6264C25.6634 38.6057 24.5701 38.2328 23.6645 37.5598C23.1831 37.2021 22.7676 36.7692 22.4321 36.2807C22.9414 36.2509 23.4478 36.1688 23.9434 36.0347L23.8802 34.0892C22.6566 33.842 21.5563 33.179 20.7659 32.2129C20.2933 31.6352 19.9489 30.9704 19.7484 30.2624C20.2903 30.4066 20.8488 30.4891 21.4132 30.5071L24.9088 30.6183L22.0004 28.676C21.2602 28.1817 20.6535 27.5123 20.2341 26.7273C19.8147 25.9423 19.5955 25.0659 19.596 24.1759V24.1753C19.596 23.7036 19.6566 23.2459 19.7704 22.8092C21.2543 24.3464 22.9873 25.6279 24.8998 26.5975C27.2994 27.814 29.9279 28.5124 32.6149 28.6473L33.9422 28.7139L33.6386 27.4201C33.3665 26.2606 33.4849 25.0437 33.9753 23.9583C34.4657 22.8729 35.3007 21.9798 36.3507 21.4176C37.4007 20.8555 38.607 20.6557 39.7822 20.8493C40.9573 21.0429 42.0357 21.6191 42.8499 22.4884L43.2287 22.8928L43.7724 22.7861C44.1659 22.7088 44.5554 22.6146 44.9396 22.5037C44.7436 22.6619 44.5359 22.807 44.3176 22.9377ZM20.7891 35.1794C20.9093 35.5533 21.0629 35.9133 21.2472 36.2557L21.8953 35.2927C21.9381 35.3958 21.984 35.4974 22.033 35.5973C21.7986 35.4969 21.5699 35.3845 21.3476 35.2607C21.1607 35.2418 20.9744 35.2147 20.7891 35.1794Z" stroke="#474747" stroke-width="2"/>
</svg>
