<svg width="65" height="65" viewBox="0 0 65 65" fill="none" xmlns="http://www.w3.org/2000/svg">
<circle cx="32.5" cy="32.5" r="32" stroke="#474747"/>
<path d="M48.75 32.9019C48.75 32.8246 48.75 32.7367 48.7465 32.6348C48.743 32.35 48.7359 32.0301 48.7289 31.6891C48.7008 30.7082 48.6516 29.7309 48.5742 28.8098C48.4688 27.5406 48.3141 26.4824 48.1031 25.6879C47.8805 24.8587 47.4442 24.1025 46.8377 23.4948C46.2313 22.8871 45.476 22.4493 44.6473 22.225C43.6523 21.9578 41.7047 21.7926 38.9625 21.6906C37.6582 21.6414 36.2625 21.6098 34.8668 21.5922C34.3781 21.5852 33.9246 21.5816 33.5168 21.5781H32.4832C32.0754 21.5816 31.6219 21.5852 31.1332 21.5922C29.7375 21.6098 28.3418 21.6414 27.0375 21.6906C24.2953 21.7961 22.3441 21.9613 21.3527 22.225C20.5238 22.4487 19.7681 22.8864 19.1616 23.4942C18.5551 24.1019 18.1189 24.8585 17.8969 25.6879C17.6824 26.4824 17.5312 27.5406 17.4258 28.8098C17.3484 29.7309 17.2992 30.7082 17.2711 31.6891C17.2605 32.0301 17.257 32.35 17.2535 32.6348C17.2535 32.7367 17.25 32.8246 17.25 32.9019V33.0988C17.25 33.1762 17.25 33.2641 17.2535 33.366C17.257 33.6508 17.2641 33.9707 17.2711 34.3117C17.2992 35.2926 17.3484 36.2699 17.4258 37.191C17.5312 38.4601 17.6859 39.5183 17.8969 40.3129C18.3469 41.9969 19.6687 43.3258 21.3527 43.7758C22.3441 44.043 24.2953 44.2082 27.0375 44.3101C28.3418 44.3594 29.7375 44.391 31.1332 44.4086C31.6219 44.4156 32.0754 44.4191 32.4832 44.4226H33.5168C33.9246 44.4191 34.3781 44.4156 34.8668 44.4086C36.2625 44.391 37.6582 44.3594 38.9625 44.3101C41.7047 44.2047 43.6559 44.0394 44.6473 43.7758C46.3312 43.3258 47.6531 42.0004 48.1031 40.3129C48.3176 39.5183 48.4688 38.4601 48.5742 37.191C48.6516 36.2699 48.7008 35.2926 48.7289 34.3117C48.7395 33.9707 48.743 33.6508 48.7465 33.366C48.7465 33.2641 48.75 33.1762 48.75 33.0988V32.9019ZM46.2188 33.0848C46.2188 33.1586 46.2188 33.2394 46.2152 33.3344C46.2117 33.6086 46.2047 33.9109 46.1977 34.2379C46.173 35.173 46.1238 36.1082 46.05 36.9766C45.9551 38.1086 45.8215 39.0367 45.6562 39.659C45.4383 40.4711 44.7984 41.1144 43.9898 41.3289C43.2516 41.5258 41.3918 41.684 38.8641 41.7789C37.5844 41.8281 36.2062 41.8598 34.8316 41.8773C34.35 41.8844 33.9035 41.8879 33.5027 41.8879H32.4973L31.1684 41.8773C29.7937 41.8598 28.4191 41.8281 27.1359 41.7789C24.6082 41.6805 22.7449 41.5258 22.0102 41.3289C21.2016 41.1109 20.5617 40.4711 20.3438 39.659C20.1785 39.0367 20.0449 38.1086 19.95 36.9766C19.8762 36.1082 19.8305 35.173 19.8023 34.2379C19.7918 33.9109 19.7883 33.6051 19.7848 33.3344C19.7848 33.2394 19.7812 33.1551 19.7812 33.0848V32.916C19.7812 32.8422 19.7813 32.7613 19.7848 32.6664C19.7883 32.3922 19.7953 32.0898 19.8023 31.7629C19.827 30.8277 19.8762 29.8926 19.95 29.0242C20.0449 27.8922 20.1785 26.9641 20.3438 26.3418C20.5617 25.5297 21.2016 24.8863 22.0102 24.6719C22.7484 24.475 24.6082 24.3168 27.1359 24.2219C28.4156 24.1727 29.7937 24.141 31.1684 24.1234C31.65 24.1164 32.0965 24.1129 32.4973 24.1129H33.5027L34.8316 24.1234C36.2062 24.141 37.5809 24.1727 38.8641 24.2219C41.3918 24.3203 43.2551 24.475 43.9898 24.6719C44.7984 24.8898 45.4383 25.5297 45.6562 26.3418C45.8215 26.9641 45.9551 27.8922 46.05 29.0242C46.1238 29.8926 46.1695 30.8277 46.1977 31.7629C46.2082 32.0898 46.2117 32.3957 46.2152 32.6664C46.2152 32.7613 46.2188 32.8457 46.2188 32.916V33.0848ZM29.8711 37.7113L38.0273 32.9652L29.8711 28.2894V37.7113Z" fill="#474747"/>
</svg>
