<svg width="65" height="65" viewBox="0 0 65 65" fill="none" xmlns="http://www.w3.org/2000/svg">
<circle cx="32.5" cy="32.5" r="32.5" fill="#186660"/>
<path d="M48.75 32.9016C48.75 32.8242 48.75 32.7363 48.7465 32.6344C48.743 32.3496 48.7359 32.0297 48.7289 31.6887C48.7008 30.7078 48.6516 29.7305 48.5742 28.8094C48.4688 27.5402 48.3141 26.482 48.1031 25.6875C47.8805 24.8583 47.4442 24.1021 46.8377 23.4944C46.2313 22.8868 45.476 22.4489 44.6473 22.2246C43.6523 21.9574 41.7047 21.7922 38.9625 21.6902C37.6582 21.641 36.2625 21.6094 34.8668 21.5918C34.3781 21.5848 33.9246 21.5813 33.5168 21.5777H32.4832C32.0754 21.5813 31.6219 21.5848 31.1332 21.5918C29.7375 21.6094 28.3418 21.641 27.0375 21.6902C24.2953 21.7957 22.3441 21.9609 21.3527 22.2246C20.5238 22.4483 19.7681 22.886 19.1616 23.4938C18.5551 24.1016 18.1189 24.8581 17.8969 25.6875C17.6824 26.482 17.5312 27.5402 17.4258 28.8094C17.3484 29.7305 17.2992 30.7078 17.2711 31.6887C17.2605 32.0297 17.257 32.3496 17.2535 32.6344C17.2535 32.7363 17.25 32.8242 17.25 32.9016V33.0984C17.25 33.1758 17.25 33.2637 17.2535 33.3656C17.257 33.6504 17.2641 33.9703 17.2711 34.3113C17.2992 35.2922 17.3484 36.2695 17.4258 37.1906C17.5312 38.4598 17.6859 39.518 17.8969 40.3125C18.3469 41.9965 19.6687 43.3254 21.3527 43.7754C22.3441 44.0426 24.2953 44.2078 27.0375 44.3097C28.3418 44.359 29.7375 44.3906 31.1332 44.4082C31.6219 44.4152 32.0754 44.4187 32.4832 44.4223H33.5168C33.9246 44.4187 34.3781 44.4152 34.8668 44.4082C36.2625 44.3906 37.6582 44.359 38.9625 44.3097C41.7047 44.2043 43.6559 44.039 44.6473 43.7754C46.3312 43.3254 47.6531 42 48.1031 40.3125C48.3176 39.518 48.4688 38.4598 48.5742 37.1906C48.6516 36.2695 48.7008 35.2922 48.7289 34.3113C48.7395 33.9703 48.743 33.6504 48.7465 33.3656C48.7465 33.2637 48.75 33.1758 48.75 33.0984V32.9016ZM46.2188 33.0844C46.2188 33.1582 46.2188 33.2391 46.2152 33.334C46.2117 33.6082 46.2047 33.9105 46.1977 34.2375C46.173 35.1726 46.1238 36.1078 46.05 36.9762C45.9551 38.1082 45.8215 39.0363 45.6562 39.6586C45.4383 40.4707 44.7984 41.1141 43.9898 41.3285C43.2516 41.5254 41.3918 41.6836 38.8641 41.7785C37.5844 41.8277 36.2062 41.8594 34.8316 41.8769C34.35 41.884 33.9035 41.8875 33.5027 41.8875H32.4973L31.1684 41.8769C29.7937 41.8594 28.4191 41.8277 27.1359 41.7785C24.6082 41.6801 22.7449 41.5254 22.0102 41.3285C21.2016 41.1105 20.5617 40.4707 20.3438 39.6586C20.1785 39.0363 20.0449 38.1082 19.95 36.9762C19.8762 36.1078 19.8305 35.1726 19.8023 34.2375C19.7918 33.9105 19.7883 33.6047 19.7848 33.334C19.7848 33.2391 19.7812 33.1547 19.7812 33.0844V32.9156C19.7812 32.8418 19.7813 32.7609 19.7848 32.666C19.7883 32.3918 19.7953 32.0894 19.8023 31.7625C19.827 30.8273 19.8762 29.8922 19.95 29.0238C20.0449 27.8918 20.1785 26.9637 20.3438 26.3414C20.5617 25.5293 21.2016 24.8859 22.0102 24.6715C22.7484 24.4746 24.6082 24.3164 27.1359 24.2215C28.4156 24.1723 29.7937 24.1406 31.1684 24.123C31.65 24.116 32.0965 24.1125 32.4973 24.1125H33.5027L34.8316 24.123C36.2062 24.1406 37.5809 24.1723 38.8641 24.2215C41.3918 24.3199 43.2551 24.4746 43.9898 24.6715C44.7984 24.8895 45.4383 25.5293 45.6562 26.3414C45.8215 26.9637 45.9551 27.8918 46.05 29.0238C46.1238 29.8922 46.1695 30.8273 46.1977 31.7625C46.2082 32.0894 46.2117 32.3953 46.2152 32.666C46.2152 32.7609 46.2188 32.8453 46.2188 32.9156V33.0844ZM29.8711 37.7109L38.0273 32.9648L29.8711 28.2891V37.7109Z" fill="#D2EEDC"/>
</svg>
