<svg width="392" height="92" viewBox="0 0 392 92" fill="none" xmlns="http://www.w3.org/2000/svg">
<path d="M8.43876 26.8571V26.2154H7.79703V26.8571H8.43876ZM8.43876 39.5931H7.79703V40.2348H8.43876V39.5931ZM8.43876 46.1211V45.4794H7.79703V46.1211H8.43876ZM4.47076 65.3194C3.16662 65.3194 2.30524 64.9846 1.76325 64.4261C1.21781 63.8642 0.888488 62.9656 0.888488 61.6091H-0.394975C-0.394975 63.154 -0.0202955 64.4314 0.842262 65.32C1.70827 66.2123 2.95889 66.6028 4.47076 66.6028V65.3194ZM0.888488 61.6091V24.6811H-0.394975V61.6091H0.888488ZM0.888488 24.6811C0.888488 23.3293 1.22599 22.4334 1.78853 21.8709C2.35107 21.3083 3.24701 20.9708 4.59876 20.9708V19.6874C3.04917 19.6874 1.76911 20.0752 0.880984 20.9633C-0.00714411 21.8514 -0.394975 23.1315 -0.394975 24.6811H0.888488ZM4.59876 20.9708H26.9348V19.6874H4.59876V20.9708ZM26.9348 20.9708C27.9513 20.9708 28.5948 21.2156 28.986 21.5917C29.3724 21.9633 29.621 22.5679 29.621 23.5291H30.9045C30.9045 22.357 30.5984 21.3616 29.8755 20.6665C29.1574 19.976 28.1369 19.6874 26.9348 19.6874V20.9708ZM29.621 23.5291C29.621 24.5395 29.3689 25.1794 28.977 25.5713C28.5851 25.9632 27.9452 26.2154 26.9348 26.2154V27.4988C28.143 27.4988 29.1671 27.1963 29.8845 26.4789C30.602 25.7614 30.9045 24.7373 30.9045 23.5291H29.621ZM26.9348 26.2154H8.43876V27.4988H26.9348V26.2154ZM7.79703 26.8571V39.5931H9.08049V26.8571H7.79703ZM8.43876 40.2348H25.5908V38.9514H8.43876V40.2348ZM25.5908 40.2348C26.6073 40.2348 27.2508 40.4796 27.642 40.8557C28.0284 41.2273 28.277 41.8319 28.277 42.7931H29.5605C29.5605 41.621 29.2544 40.6256 28.5315 39.9305C27.8134 39.24 26.7929 38.9514 25.5908 38.9514V40.2348ZM28.277 42.7931C28.277 43.8035 28.0249 44.4435 27.633 44.8353C27.2411 45.2272 26.6012 45.4794 25.5908 45.4794V46.7628C26.799 46.7628 27.8231 46.4603 28.5405 45.7429C29.258 45.0254 29.5605 44.0013 29.5605 42.7931H28.277ZM25.5908 45.4794H8.43876V46.7628H25.5908V45.4794ZM7.79703 46.1211V61.6091H9.08049V46.1211H7.79703ZM7.79703 61.6091C7.79703 62.9748 7.48447 63.8793 6.97255 64.4407C6.47087 64.991 5.67845 65.3194 4.47076 65.3194V66.6028C5.90839 66.6028 7.09998 66.2059 7.92097 65.3055C8.73171 64.4163 9.08049 63.1448 9.08049 61.6091H7.79703ZM50.5398 63.2091L50.2128 63.7613L50.216 63.7631L50.5398 63.2091ZM42.9878 55.1451L42.4166 55.4376L42.4181 55.4405L42.9878 55.1451ZM42.9878 30.5691L43.5575 30.8645L43.5575 30.8645L42.9878 30.5691ZM50.5398 22.5691L50.8613 23.1245L50.8667 23.1213L50.5398 22.5691ZM73.4518 22.5691L73.1248 23.1213L73.1302 23.1245L73.4518 22.5691ZM81.0038 30.5691L81.5735 30.2737L81.5735 30.2737L81.0038 30.5691ZM81.0038 55.1451L81.5735 55.4405L81.5749 55.4376L81.0038 55.1451ZM73.4518 63.2091L73.7787 63.7613L73.7787 63.7613L73.4518 63.2091ZM71.6598 54.7611L71.1601 54.3584L71.1601 54.3584L71.6598 54.7611ZM71.6598 30.9531L71.1594 31.3549L71.1631 31.3595L71.6598 30.9531ZM52.3318 30.9531L51.8351 30.5467L51.8351 30.5467L52.3318 30.9531ZM52.3318 54.7611L52.8314 54.3584L52.8314 54.3584L52.3318 54.7611ZM61.9958 65.4474C57.7409 65.4474 54.0372 64.5098 50.8636 62.655L50.216 63.7631C53.613 65.7484 57.5466 66.7308 61.9958 66.7308V65.4474ZM50.8667 62.6569C47.7309 60.8002 45.2961 58.2028 43.5575 54.8497L42.4181 55.4405C44.2634 58.9994 46.8632 61.778 50.2128 63.7613L50.8667 62.6569ZM43.5589 54.8525C41.8215 51.4604 40.9415 47.4683 40.9415 42.8571H39.658C39.658 47.6326 40.57 51.8325 42.4166 55.4376L43.5589 54.8525ZM40.9415 42.8571C40.9415 38.2019 41.822 34.2115 43.5575 30.8645L42.4181 30.2737C40.5695 33.8387 39.658 38.0403 39.658 42.8571H40.9415ZM43.5575 30.8645C45.2955 27.5126 47.7287 24.9381 50.8613 23.1245L50.2182 22.0137C46.8655 23.9548 44.264 26.7136 42.4181 30.2737L43.5575 30.8645ZM50.8667 23.1213C53.995 21.269 57.6968 20.3308 61.9958 20.3308V19.0474C57.5054 19.0474 53.5699 20.0292 50.2128 22.0169L50.8667 23.1213ZM61.9958 20.3308C66.2947 20.3308 69.9965 21.269 73.1248 23.1213L73.7787 22.0169C70.4216 20.0292 66.4861 19.0474 61.9958 19.0474V20.3308ZM73.1302 23.1245C76.2628 24.9381 78.696 27.5126 80.4341 30.8645L81.5735 30.2737C79.7275 26.7136 77.126 23.9548 73.7733 22.0137L73.1302 23.1245ZM80.4341 30.8645C82.1699 34.2123 83.05 38.1816 83.05 42.7931H84.3335C84.3335 38.0179 83.4216 33.8379 81.5735 30.2737L80.4341 30.8645ZM83.05 42.7931C83.05 47.448 82.1696 51.4612 80.4326 54.8525L81.5749 55.4376C83.4219 51.8317 84.3335 47.6102 84.3335 42.7931H83.05ZM80.4341 54.8497C78.6954 58.2028 76.2606 60.8002 73.1248 62.6569L73.7787 63.7613C77.1283 61.778 79.7281 58.9994 81.5735 55.4405L80.4341 54.8497ZM73.1248 62.6569C69.9965 64.5092 66.2947 65.4474 61.9958 65.4474V66.7308C66.4861 66.7308 70.4216 65.749 73.7787 63.7613L73.1248 62.6569ZM61.9958 59.6908C66.3006 59.6908 69.7171 58.1941 72.1594 55.1638L71.1601 54.3584C68.9944 57.0454 65.9682 58.4074 61.9958 58.4074V59.6908ZM72.1594 55.1638C74.585 52.1543 75.7575 48.0255 75.7575 42.8571H74.474C74.474 47.8434 73.3425 51.6506 71.1601 54.3584L72.1594 55.1638ZM75.7575 42.8571C75.7575 37.6483 74.586 33.5162 72.1564 30.5467L71.1631 31.3595C73.3415 34.022 74.474 37.8258 74.474 42.8571H75.7575ZM72.1601 30.5513C69.7569 27.5586 66.3372 26.0874 61.9958 26.0874V27.3708C66.017 27.3708 69.0399 28.7156 71.1594 31.3549L72.1601 30.5513ZM61.9958 26.0874C57.6944 26.0874 54.2786 27.5601 51.8351 30.5467L52.8284 31.3595C54.9929 28.714 58.0198 27.3708 61.9958 27.3708V26.0874ZM51.8351 30.5467C49.4055 33.5162 48.234 37.6483 48.234 42.8571H49.5175C49.5175 37.8258 50.65 34.022 52.8284 31.3595L51.8351 30.5467ZM48.234 42.8571C48.234 48.0255 49.4065 52.1543 51.8321 55.1638L52.8314 54.3584C50.649 51.6506 49.5175 47.8434 49.5175 42.8571H48.234ZM51.8321 55.1638C54.2744 58.1941 57.6909 59.6908 61.9958 59.6908V58.4074C58.0233 58.4074 54.9971 57.0454 52.8314 54.3584L51.8321 55.1638ZM102.966 61.2891L102.512 61.7429L102.518 61.7488L102.966 61.2891ZM109.046 56.0411L108.568 56.4694L108.577 56.4797L109.046 56.0411ZM131.318 61.2891L131.772 61.7429L131.775 61.7399L131.318 61.2891ZM117.174 65.4474C111.095 65.4474 106.542 63.8767 103.414 60.8294L102.518 61.7488C105.96 65.1015 110.88 66.7308 117.174 66.7308V65.4474ZM103.42 60.8353C100.337 57.7525 98.7435 53.1631 98.7435 46.9531H97.46C97.46 53.3724 99.1094 58.3403 102.512 61.7429L103.42 60.8353ZM98.7435 46.9531V23.9771H97.46V46.9531H98.7435ZM98.7435 23.9771C98.7435 22.6869 99.061 21.8376 99.583 21.3073C100.103 20.779 100.934 20.4588 102.198 20.4588V19.1754C100.731 19.1754 99.5136 19.5486 98.6685 20.4069C97.8252 21.2633 97.46 22.494 97.46 23.9771H98.7435ZM102.198 20.4588C103.462 20.4588 104.292 20.779 104.812 21.3073C105.335 21.8376 105.652 22.6869 105.652 23.9771H106.935C106.935 22.494 106.57 21.2633 105.727 20.4069C104.882 19.5486 103.665 19.1754 102.198 19.1754V20.4588ZM105.652 23.9771V46.8891H106.935V23.9771H105.652ZM105.652 46.8891C105.652 51.0271 106.587 54.2585 108.568 56.4693L109.524 55.6129C107.835 53.7277 106.935 50.8578 106.935 46.8891H105.652ZM108.577 56.4797C110.609 58.6495 113.509 59.6908 117.174 59.6908V58.4074C113.756 58.4074 111.238 57.4434 109.514 55.6025L108.577 56.4797ZM117.174 59.6908C120.899 59.6908 123.804 58.6404 125.765 56.4356C127.714 54.2451 128.631 51.024 128.631 46.8891H127.348C127.348 50.8608 126.463 53.7198 124.806 55.5826C123.162 57.4311 120.659 58.4074 117.174 58.4074V59.6908ZM128.631 46.8891V23.9771H127.348V46.8891H128.631ZM128.631 23.9771C128.631 22.6869 128.949 21.8376 129.471 21.3073C129.991 20.779 130.822 20.4588 132.086 20.4588V19.1754C130.619 19.1754 129.402 19.5486 128.556 20.4069C127.713 21.2633 127.348 22.494 127.348 23.9771H128.631ZM132.086 20.4588C133.326 20.4588 134.139 20.7775 134.649 21.3037C135.163 21.8337 135.476 22.6844 135.476 23.9771H136.759C136.759 22.4964 136.401 21.2672 135.571 20.4105C134.737 19.55 133.534 19.1754 132.086 19.1754V20.4588ZM135.476 23.9771V46.9531H136.759V23.9771H135.476ZM135.476 46.9531C135.476 53.1653 133.903 57.7559 130.861 60.8383L131.775 61.7399C135.133 58.337 136.759 53.3703 136.759 46.9531H135.476ZM130.864 60.8353C127.824 63.8755 123.298 65.4474 117.174 65.4474V66.7308C123.508 66.7308 128.412 65.1027 131.772 61.7429L130.864 60.8353ZM153.032 20.9051L152.564 20.4653L152.564 20.4662L153.032 20.9051ZM157.832 20.3931L157.425 20.8898L157.45 20.9096L157.476 20.927L157.832 20.3931ZM159.624 22.1851L160.132 21.7932L160.125 21.7842L159.624 22.1851ZM182.472 51.8171L181.964 52.2089L183.113 53.7003V51.8171H182.472ZM189.192 64.9371L188.709 64.5145L188.709 64.5145L189.192 64.9371ZM184.392 65.3851L184.026 65.9127L184.035 65.919L184.045 65.9249L184.392 65.3851ZM182.536 63.5291L182.027 63.9205L182.035 63.93L182.536 63.5291ZM159.688 33.8331L160.196 33.4418L159.046 31.9466V33.8331H159.688ZM155.912 65.3194C154.736 65.3194 153.971 65.0168 153.493 64.5228C153.011 64.0249 152.713 63.222 152.713 61.9931H151.43C151.43 63.4095 151.772 64.5906 152.571 65.4154C153.373 66.244 154.527 66.6028 155.912 66.6028V65.3194ZM152.713 61.9931V23.9131H151.43V61.9931H152.713ZM152.713 23.9131C152.713 22.686 153.01 21.8662 153.5 21.344L152.564 20.4662C151.773 21.3093 151.43 22.4949 151.43 23.9131H152.713ZM153.499 21.3449C154.051 20.7583 154.752 20.4588 155.656 20.4588V19.1754C154.426 19.1754 153.378 19.6012 152.564 20.4653L153.499 21.3449ZM155.656 20.4588C156.574 20.4588 157.123 20.6422 157.425 20.8898L158.238 19.8964C157.602 19.376 156.7 19.1754 155.656 19.1754V20.4588ZM157.476 20.927C157.906 21.2138 158.454 21.7508 159.123 22.586L160.125 21.7842C159.428 20.9127 158.782 20.255 158.188 19.8591L157.476 20.927ZM159.116 22.5769L181.964 52.2089L182.98 51.4252L160.132 21.7932L159.116 22.5769ZM183.113 51.8171V23.7211H181.83V51.8171H183.113ZM183.113 23.7211C183.113 22.516 183.41 21.7306 183.889 21.2431C184.367 20.7575 185.133 20.4588 186.312 20.4588V19.1754C184.93 19.1754 183.777 19.5273 182.974 20.3431C182.174 21.1569 181.83 22.3235 181.83 23.7211H183.113ZM186.312 20.4588C187.466 20.4588 188.215 20.756 188.682 21.2392C189.154 21.7265 189.446 22.5134 189.446 23.7211H190.729C190.729 22.3261 190.392 21.161 189.605 20.3469C188.814 19.5289 187.675 19.1754 186.312 19.1754V20.4588ZM189.446 23.7211V62.1211H190.729V23.7211H189.446ZM189.446 62.1211C189.446 63.2105 189.175 63.9817 188.709 64.5145L189.675 65.3597C190.403 64.5271 190.729 63.4211 190.729 62.1211H189.446ZM188.709 64.5145C188.25 65.0391 187.625 65.3194 186.76 65.3194V66.6028C187.942 66.6028 188.939 66.2004 189.675 65.3597L188.709 64.5145ZM186.76 65.3194C185.856 65.3194 185.2 65.1419 184.739 64.8453L184.045 65.9249C184.778 66.3963 185.701 66.6028 186.76 66.6028V65.3194ZM184.757 64.8575C184.275 64.5239 183.702 63.9591 183.037 63.1282L182.035 63.93C182.735 64.8058 183.399 65.4783 184.026 65.9127L184.757 64.8575ZM183.044 63.1378L160.196 33.4418L159.179 34.2244L182.027 63.9204L183.044 63.1378ZM159.046 33.8331V61.9931H160.329V33.8331H159.046ZM159.046 61.9931C159.046 63.2246 158.753 64.029 158.279 64.5267C157.811 65.0185 157.063 65.3194 155.912 65.3194V66.6028C157.278 66.6028 158.418 66.2424 159.209 65.4115C159.994 64.5865 160.329 63.407 160.329 61.9931H159.046ZM240.587 26.1531L240.145 26.6188L240.148 26.6211L240.587 26.1531ZM240.587 59.5611L240.145 59.0955L240.143 59.0978L240.587 59.5611ZM214.539 58.6651H213.897V59.3068H214.539V58.6651ZM214.539 27.1131V26.4714H213.897V27.1131H214.539ZM210.699 64.8074C209.347 64.8074 208.451 64.4699 207.889 63.9073C207.326 63.3448 206.988 62.4488 206.988 61.0971H205.705C205.705 62.6467 206.093 63.9267 206.981 64.8149C207.869 65.703 209.149 66.0908 210.699 66.0908V64.8074ZM206.988 61.0971V24.6811H205.705V61.0971H206.988ZM206.988 24.6811C206.988 23.3293 207.326 22.4334 207.889 21.8709C208.451 21.3083 209.347 20.9708 210.699 20.9708V19.6874C209.149 19.6874 207.869 20.0752 206.981 20.9633C206.093 21.8514 205.705 23.1315 205.705 24.6811H206.988ZM210.699 20.9708H223.115V19.6874H210.699V20.9708ZM223.115 20.9708C230.559 20.9708 236.204 22.883 240.145 26.6188L241.028 25.6874C236.777 21.6578 230.774 19.6874 223.115 19.6874V20.9708ZM240.148 26.6211C244.123 30.3508 246.153 35.7288 246.153 42.8571H247.436C247.436 35.4787 245.328 29.7207 241.026 25.6851L240.148 26.6211ZM246.153 42.8571C246.153 49.941 244.124 55.3215 240.145 59.0955L241.028 60.0267C245.327 55.95 247.436 50.1945 247.436 42.8571H246.153ZM240.143 59.0978C236.201 62.8748 230.558 64.8074 223.115 64.8074V66.0908C230.776 66.0908 236.78 64.098 241.031 60.0244L240.143 59.0978ZM223.115 64.8074H210.699V66.0908H223.115V64.8074ZM214.539 59.3068H222.603V58.0234H214.539V59.3068ZM222.603 59.3068C227.909 59.3068 232.006 57.9633 234.771 55.1641C237.535 52.3664 238.86 48.2234 238.86 42.8571H237.577C237.577 48.0295 236.3 51.7905 233.858 54.2621C231.418 56.7323 227.707 58.0234 222.603 58.0234V59.3068ZM238.86 42.8571C238.86 37.5115 237.535 33.3841 234.77 30.5972C232.005 27.8092 227.908 26.4714 222.603 26.4714V27.7548C227.708 27.7548 231.419 29.0409 233.859 31.501C236.3 33.962 237.577 37.7067 237.577 42.8571H238.86ZM222.603 26.4714H214.539V27.7548H222.603V26.4714ZM213.897 27.1131V58.6651H215.18V27.1131H213.897ZM269.369 26.8571V26.2154H268.727V26.8571H269.369ZM269.369 39.2731H268.727V39.9148H269.369V39.2731ZM269.369 45.8011V45.1594H268.727V45.8011H269.369ZM269.369 58.9211H268.727V59.5628H269.369V58.9211ZM265.849 64.8074C264.497 64.8074 263.601 64.4699 263.039 63.9073C262.476 63.3448 262.138 62.4488 262.138 61.0971H260.855C260.855 62.6467 261.243 63.9267 262.131 64.8149C263.019 65.703 264.299 66.0908 265.849 66.0908V64.8074ZM262.138 61.0971V24.6811H260.855V61.0971H262.138ZM262.138 24.6811C262.138 23.3293 262.476 22.4334 263.039 21.8709C263.601 21.3083 264.497 20.9708 265.849 20.9708V19.6874C264.299 19.6874 263.019 20.0752 262.131 20.9633C261.243 21.8514 260.855 23.1315 260.855 24.6811H262.138ZM265.849 20.9708H288.697V19.6874H265.849V20.9708ZM288.697 20.9708C289.713 20.9708 290.357 21.2156 290.748 21.5917C291.134 21.9633 291.383 22.5679 291.383 23.5291H292.666C292.666 22.357 292.36 21.3616 291.638 20.6665C290.919 19.976 289.899 19.6874 288.697 19.6874V20.9708ZM291.383 23.5291C291.383 24.5395 291.131 25.1794 290.739 25.5713C290.347 25.9632 289.707 26.2154 288.697 26.2154V27.4988C289.905 27.4988 290.929 27.1963 291.647 26.4789C292.364 25.7614 292.666 24.7373 292.666 23.5291H291.383ZM288.697 26.2154H269.369V27.4988H288.697V26.2154ZM268.727 26.8571V39.2731H270.01V26.8571H268.727ZM269.369 39.9148H287.289V38.6314H269.369V39.9148ZM287.289 39.9148C288.302 39.9148 288.944 40.1633 289.335 40.5473C289.725 40.9289 289.975 41.5512 289.975 42.5371H291.258C291.258 41.347 290.954 40.3372 290.234 39.6309C289.516 38.9269 288.494 38.6314 287.289 38.6314V39.9148ZM289.975 42.5371C289.975 43.523 289.725 44.1452 289.335 44.5269C288.944 44.9109 288.302 45.1594 287.289 45.1594V46.4428C288.494 46.4428 289.516 46.1473 290.234 45.4433C290.954 44.7369 291.258 43.7272 291.258 42.5371H289.975ZM287.289 45.1594H269.369V46.4428H287.289V45.1594ZM268.727 45.8011V58.9211H270.01V45.8011H268.727ZM269.369 59.5628H288.697V58.2794H269.369V59.5628ZM288.697 59.5628C289.71 59.5628 290.352 59.8113 290.743 60.1953C291.133 60.5769 291.383 61.1992 291.383 62.1851H292.666C292.666 60.995 292.362 59.9852 291.642 59.2789C290.924 58.5749 289.902 58.2794 288.697 58.2794V59.5628ZM291.383 62.1851C291.383 63.171 291.133 63.7932 290.743 64.1749C290.352 64.5589 289.71 64.8074 288.697 64.8074V66.0908C289.902 66.0908 290.924 65.7953 291.642 65.0913C292.362 64.3849 292.666 63.3752 292.666 62.1851H291.383ZM288.697 64.8074H265.849V66.0908H288.697V64.8074ZM337.124 23.9131L336.698 24.3927L336.702 24.3965L337.124 23.9131ZM338.532 42.2171L339.032 42.6192L339.036 42.6144L338.532 42.2171ZM330.98 46.6331L330.834 46.0082L328.548 46.5426L330.788 47.2454L330.98 46.6331ZM336.356 51.5611L336.921 51.2564L336.921 51.2557L336.356 51.5611ZM341.156 60.4571L341.723 60.156L341.721 60.1524L341.156 60.4571ZM341.54 64.2331L340.946 63.991L340.942 64.0005L340.938 64.0102L341.54 64.2331ZM335.46 65.2571L335.09 65.7814L335.101 65.7888L335.112 65.7959L335.46 65.2571ZM333.54 62.9531L334.105 62.6475L334.104 62.6469L333.54 62.9531ZM327.076 51.0491L326.509 51.3494L326.512 51.3553L327.076 51.0491ZM324.324 48.1691L324.037 48.7431L324.051 48.7501L324.066 48.7565L324.324 48.1691ZM314.276 47.4011V46.7594H313.635V47.4011H314.276ZM314.276 41.3211H313.635V41.9628H314.276V41.3211ZM314.276 26.7931V26.1514H313.635V26.7931H314.276ZM310.18 65.3194C308.919 65.3194 308.09 64.9953 307.569 64.4584C307.045 63.9177 306.726 63.051 306.726 61.7371H305.443C305.443 63.2392 305.806 64.4845 306.648 65.3518C307.492 66.2229 308.711 66.6028 310.18 66.6028V65.3194ZM306.726 61.7371V24.4891H305.443V61.7371H306.726ZM306.726 24.4891C306.726 23.2013 307.047 22.3534 307.578 21.8229C308.109 21.2923 308.957 20.9708 310.244 20.9708V19.6874C308.759 19.6874 307.527 20.0592 306.67 20.9153C305.814 21.7714 305.443 23.0035 305.443 24.4891H306.726ZM310.244 20.9708H325.668V19.6874H310.244V20.9708ZM325.668 20.9708C330.52 20.9708 334.165 22.1415 336.698 24.3927L337.551 23.4335C334.707 20.9061 330.715 19.6874 325.668 19.6874V20.9708ZM336.702 24.3965C339.223 26.5974 340.515 29.712 340.515 33.8331H341.798C341.798 29.4209 340.401 25.9221 337.546 23.4297L336.702 24.3965ZM340.515 33.8331C340.515 37.0884 339.672 39.735 338.028 41.8198L339.036 42.6144C340.891 40.2618 341.798 37.3191 341.798 33.8331H340.515ZM338.032 41.815C336.39 43.8574 334.01 45.2658 330.834 46.0082L331.126 47.258C334.521 46.4644 337.176 44.9288 339.032 42.6192L338.032 41.815ZM330.788 47.2454C332.762 47.8645 334.439 49.3653 335.792 51.8664L336.921 51.2557C335.458 48.5516 333.551 46.767 331.172 46.0208L330.788 47.2454ZM335.791 51.8658L340.591 60.7618L341.721 60.1524L336.921 51.2564L335.791 51.8658ZM340.59 60.7582C341.249 62 341.326 63.057 340.946 63.991L342.135 64.4752C342.693 63.1052 342.514 61.6449 341.723 60.156L340.59 60.7582ZM340.938 64.0102C340.78 64.438 340.509 64.7476 340.104 64.9619C339.683 65.1847 339.088 65.3194 338.276 65.3194V66.6028C339.214 66.6028 340.037 66.4495 340.705 66.0963C341.388 65.7346 341.874 65.1802 342.142 64.456L340.938 64.0102ZM338.276 65.3194C337.208 65.3194 336.401 65.1015 335.809 64.7183L335.112 65.7959C335.97 66.3514 337.041 66.6028 338.276 66.6028V65.3194ZM335.83 64.7328C335.207 64.2927 334.626 63.6106 334.105 62.6475L332.976 63.2587C333.564 64.3436 334.263 65.1975 335.09 65.7814L335.83 64.7328ZM334.104 62.6469L327.64 50.7429L326.512 51.3553L332.976 63.2593L334.104 62.6469ZM327.643 50.7488C326.835 49.2216 325.826 48.1289 324.583 47.5817L324.066 48.7565C324.955 49.1479 325.782 49.9753 326.509 51.3494L327.643 50.7488ZM324.611 47.5951C323.469 47.024 322.038 46.7594 320.356 46.7594V48.0428C321.917 48.0428 323.132 48.2902 324.037 48.7431L324.611 47.5951ZM320.356 46.7594H314.276V48.0428H320.356V46.7594ZM313.635 47.4011V61.7371H314.918V47.4011H313.635ZM313.635 61.7371C313.635 63.051 313.316 63.9177 312.792 64.4584C312.271 64.9953 311.442 65.3194 310.18 65.3194V66.6028C311.65 66.6028 312.868 66.2229 313.713 65.3518C314.554 64.4845 314.918 63.2392 314.918 61.7371H313.635ZM314.276 41.9628H324.26V40.6794H314.276V41.9628ZM324.26 41.9628C327.318 41.9628 329.73 41.3431 331.385 39.9947C333.067 38.6258 333.862 36.5948 333.862 34.0251H332.579C332.579 36.3194 331.881 37.9364 330.575 38.9995C329.244 40.0831 327.176 40.6794 324.26 40.6794V41.9628ZM333.862 34.0251C333.862 31.4748 333.065 29.4593 331.383 28.1017C329.728 26.7653 327.316 26.1514 324.26 26.1514V27.4348C327.177 27.4348 329.246 28.0262 330.577 29.1005C331.882 30.1535 332.579 31.7541 332.579 34.0251H333.862ZM324.26 26.1514H314.276V27.4348H324.26V26.1514ZM313.635 26.7931V41.3211H314.918V26.7931H313.635ZM363.402 65.1291L363.254 65.7534L363.256 65.7539L363.402 65.1291ZM356.362 62.2491L356.012 62.7866L356.017 62.79L356.362 62.2491ZM354.762 57.2571L354.177 56.9938L354.174 57.0009L354.171 57.0081L354.762 57.2571ZM356.49 55.5291L356.723 56.1272L356.731 56.124L356.739 56.1205L356.49 55.5291ZM359.242 55.9771L358.902 56.5213L358.909 56.5255L358.916 56.5296L359.242 55.9771ZM379.146 57.5131L379.522 58.0334L379.531 58.0265L379.146 57.5131ZM379.786 49.5771L379.385 50.0783L379.395 50.0857L379.786 49.5771ZM374.218 47.4651L374.35 46.837L374.35 46.8369L374.218 47.4651ZM367.178 45.9931L367.045 46.6208L367.047 46.6212L367.178 45.9931ZM357.386 26.2811L356.864 25.9081L356.864 25.9081L357.386 26.2811ZM363.594 21.4171L363.338 20.8287L363.338 20.8287L363.594 21.4171ZM380.042 20.6491L380.214 20.0308L380.214 20.0308L380.042 20.6491ZM386.25 23.4651L386.618 22.9393L386.609 22.9331L386.25 23.4651ZM387.786 25.7051L387.156 25.8252L387.157 25.8309L387.786 25.7051ZM387.466 28.1371L388.033 28.4374L388.037 28.4308L388.04 28.4241L387.466 28.1371ZM385.61 29.6731L385.803 30.285L385.813 30.2821L385.822 30.2788L385.61 29.6731ZM382.73 29.0971L383.051 28.5412L383.047 28.539L382.73 29.0971ZM377.93 27.1771L377.782 27.8016L377.782 27.8016L377.93 27.1771ZM365.77 28.4571L366.153 28.9721L366.153 28.9721L365.77 28.4571ZM364.81 37.0331L364.377 37.5061L364.382 37.5112L364.388 37.516L364.81 37.0331ZM370.058 39.1451L370.191 38.5172L370.188 38.5167L370.058 39.1451ZM377.034 40.6171L377.167 39.9893L377.167 39.9892L377.034 40.6171ZM386.442 44.8411L386.003 45.3093L386.008 45.3137L386.442 44.8411ZM387.402 59.6251L386.879 59.2542L386.879 59.2542L387.402 59.6251ZM381.194 64.4251L381.442 65.0169L381.447 65.0149L381.194 64.4251ZM371.786 65.4474C368.976 65.4474 366.23 65.1328 363.549 64.5043L363.256 65.7539C366.035 66.4054 368.879 66.7308 371.786 66.7308V65.4474ZM363.551 64.5048C360.922 63.8788 358.644 62.9439 356.708 61.7082L356.017 62.79C358.092 64.1143 360.507 65.0994 363.254 65.7534L363.551 64.5048ZM356.713 61.7116C355.839 61.1417 355.365 60.4811 355.196 59.7389L353.944 60.0233C354.202 61.1584 354.923 62.0765 356.012 62.7866L356.713 61.7116ZM355.196 59.7389C355.009 58.918 355.069 58.1814 355.354 57.5061L354.171 57.0081C353.772 57.9541 353.704 58.9668 353.944 60.0233L355.196 59.7389ZM355.347 57.5204C355.673 56.798 356.133 56.3564 356.723 56.1272L356.258 54.931C355.311 55.2991 354.62 56.0095 354.177 56.9938L355.347 57.5204ZM356.739 56.1205C357.291 55.8882 357.984 55.9472 358.902 56.5213L359.582 55.4329C358.453 54.727 357.311 54.4873 356.241 54.9377L356.739 56.1205ZM358.916 56.5296C360.847 57.6705 362.889 58.5052 365.042 59.0324L365.347 57.7858C363.318 57.2889 361.393 56.5024 359.569 55.4246L358.916 56.5296ZM365.042 59.0324C367.186 59.5575 369.434 59.8188 371.786 59.8188V58.5354C369.53 58.5354 367.384 58.2847 365.347 57.7858L365.042 59.0324ZM371.786 59.8188C375.199 59.8188 377.82 59.2625 379.522 58.0333L378.771 56.9929C377.4 57.9823 375.115 58.5354 371.786 58.5354V59.8188ZM379.531 58.0265C381.215 56.7634 382.092 55.1073 382.092 53.0971H380.809C380.809 54.6709 380.149 55.9588 378.761 56.9997L379.531 58.0265ZM382.092 53.0971C382.092 51.42 381.457 50.0524 380.178 49.0684L379.395 50.0857C380.335 50.8085 380.809 51.7875 380.809 53.0971H382.092ZM380.187 49.076C378.997 48.124 377.015 47.3959 374.35 46.837L374.087 48.0932C376.712 48.6436 378.442 49.3236 379.385 50.0782L380.187 49.076ZM374.35 46.8369L367.31 45.3649L367.047 46.6212L374.087 48.0932L374.35 46.8369ZM367.312 45.3654C363.375 44.5277 360.5 43.114 358.614 41.1773C356.741 39.255 355.788 36.7624 355.788 33.6411H354.505C354.505 37.0478 355.556 39.8778 357.695 42.0729C359.819 44.2535 362.961 45.7518 367.045 46.6208L367.312 45.3654ZM355.788 33.6411C355.788 30.9454 356.5 28.6254 357.908 26.6541L356.864 25.9081C355.285 28.1181 354.505 30.7048 354.505 33.6411H355.788ZM357.908 26.6541C359.326 24.6692 361.298 23.1169 363.85 22.0055L363.338 20.8287C360.6 22.0213 358.433 23.7116 356.864 25.9081L357.908 26.6541ZM363.85 22.0055C366.401 20.8949 369.361 20.3308 372.746 20.3308V19.0474C369.219 19.0474 366.079 19.6353 363.338 20.8287L363.85 22.0055ZM372.746 20.3308C375.252 20.3308 377.626 20.644 379.87 21.2674L380.214 20.0308C377.85 19.3742 375.36 19.0474 372.746 19.0474V20.3308ZM379.87 21.2674C382.113 21.8904 384.118 22.8014 385.891 23.9971L386.609 22.9331C384.713 21.6541 382.579 20.6878 380.214 20.0308L379.87 21.2674ZM385.882 23.9908C386.62 24.507 387.021 25.117 387.156 25.8252L388.417 25.585C388.21 24.5012 387.588 23.6178 386.618 22.9394L385.882 23.9908ZM387.157 25.8309C387.3 26.5464 387.212 27.2116 386.892 27.8501L388.04 28.4241C388.489 27.5266 388.614 26.5705 388.416 25.5792L387.157 25.8309ZM386.899 27.8368C386.599 28.4042 386.116 28.8163 385.398 29.0674L385.822 30.2788C386.811 29.9326 387.566 29.3206 388.033 28.4374L386.899 27.8368ZM385.417 29.0612C384.849 29.2405 384.083 29.1369 383.051 28.5412L382.41 29.653C383.596 30.3373 384.75 30.6176 385.803 30.285L385.417 29.0612ZM383.047 28.539C381.42 27.6157 379.764 26.9518 378.078 26.5526L377.782 27.8016C379.34 28.1704 380.883 28.7865 382.413 29.6552L383.047 28.539ZM378.078 26.5526C376.403 26.1558 374.603 25.9594 372.682 25.9594V27.2428C374.516 27.2428 376.215 27.4304 377.782 27.8016L378.078 26.5526ZM372.682 25.9594C369.656 25.9594 367.2 26.5943 365.387 27.9421L366.153 28.9721C367.669 27.8452 369.82 27.2428 372.682 27.2428V25.9594ZM365.387 27.9421C363.567 29.2957 362.633 31.1049 362.633 33.3211H363.916C363.916 31.5267 364.645 30.0932 366.153 28.9721L365.387 27.9421ZM362.633 33.3211C362.633 35.0158 363.205 36.4323 364.377 37.5061L365.244 36.56C364.367 35.7565 363.916 34.6984 363.916 33.3211H362.633ZM364.388 37.516C365.54 38.524 367.424 39.2553 369.928 39.7735L370.188 38.5167C367.744 38.0109 366.129 37.3342 365.233 36.5501L364.388 37.516ZM369.926 39.773L376.902 41.245L377.167 39.9892L370.191 38.5172L369.926 39.773ZM376.901 41.2449C381.067 42.1286 384.075 43.5014 386.003 45.3093L386.881 44.3729C384.713 42.3408 381.449 40.8976 377.167 39.9893L376.901 41.2449ZM386.008 45.3137C387.949 47.0961 388.937 49.4755 388.937 52.5211H390.22C390.22 49.1667 389.117 46.4261 386.876 44.3684L386.008 45.3137ZM388.937 52.5211C388.937 55.0862 388.247 57.3225 386.879 59.2542L387.926 59.996C389.459 57.8317 390.22 55.332 390.22 52.5211H388.937ZM386.879 59.2542C385.507 61.1906 383.539 62.722 380.941 63.8353L381.447 65.0149C384.226 63.8242 386.396 62.1556 387.926 59.996L386.879 59.2542ZM380.946 63.8333C378.397 64.9022 375.349 65.4474 371.786 65.4474V66.7308C375.476 66.7308 378.701 66.1667 381.442 65.0169L380.946 63.8333Z" fill="#248A82"/>
<path d="M6.27074 69.9611C3.45474 69.9611 2.04674 68.5104 2.04674 65.6091V28.6811C2.04674 25.7798 3.49741 24.3291 6.39874 24.3291H28.7347C30.9534 24.3291 32.0627 25.3958 32.0627 27.5291C32.0627 29.7478 30.9534 30.8571 28.7347 30.8571H10.2387V43.5931H27.3907C29.6094 43.5931 30.7187 44.6598 30.7187 46.7931C30.7187 49.0118 29.6094 50.1211 27.3907 50.1211H10.2387V65.6091C10.2387 68.5104 8.91608 69.9611 6.27074 69.9611ZM63.7957 70.0891C59.4437 70.0891 55.6251 69.1291 52.3397 67.2091C49.0971 65.2891 46.5797 62.6011 44.7877 59.1451C42.9957 55.6464 42.0997 51.5504 42.0997 46.8571C42.0997 42.1211 42.9957 38.0251 44.7877 34.5691C46.5797 31.1131 49.0971 28.4464 52.3397 26.5691C55.5824 24.6491 59.4011 23.6891 63.7957 23.6891C68.1904 23.6891 72.0091 24.6491 75.2517 26.5691C78.4944 28.4464 81.0117 31.1131 82.8037 34.5691C84.5957 38.0251 85.4917 42.0998 85.4917 46.7931C85.4917 51.5291 84.5957 55.6464 82.8037 59.1451C81.0117 62.6011 78.4944 65.2891 75.2517 67.2091C72.0091 69.1291 68.1904 70.0891 63.7957 70.0891ZM63.7957 63.0491C67.9344 63.0491 71.1557 61.6198 73.4597 58.7611C75.7637 55.9024 76.9157 51.9344 76.9157 46.8571C76.9157 41.7371 75.7637 37.7691 73.4597 34.9531C71.1984 32.1371 67.9771 30.7291 63.7957 30.7291C59.6571 30.7291 56.4357 32.1371 54.1317 34.9531C51.8277 37.7691 50.6757 41.7371 50.6757 46.8571C50.6757 51.9344 51.8277 55.9024 54.1317 58.7611C56.4357 61.6198 59.6571 63.0491 63.7957 63.0491ZM118.974 70.0891C112.787 70.0891 108.051 68.4891 104.766 65.2891C101.523 62.0464 99.9017 57.2678 99.9017 50.9531V27.9771C99.9017 25.2038 101.267 23.8171 103.998 23.8171C106.728 23.8171 108.094 25.2038 108.094 27.9771V50.8891C108.094 54.9424 109.011 57.9931 110.846 60.0411C112.723 62.0464 115.432 63.0491 118.974 63.0491C126.184 63.0491 129.79 58.9958 129.79 50.8891V27.9771C129.79 25.2038 131.155 23.8171 133.886 23.8171C136.574 23.8171 137.918 25.2038 137.918 27.9771V50.9531C137.918 57.2678 136.318 62.0464 133.118 65.2891C129.918 68.4891 125.203 70.0891 118.974 70.0891ZM157.712 69.9611C155.152 69.9611 153.872 68.6384 153.872 65.9931V27.9131C153.872 26.5904 154.192 25.5878 154.832 24.9051C155.514 24.1798 156.389 23.8171 157.456 23.8171C158.437 23.8171 159.162 24.0091 159.632 24.3931C160.144 24.7344 160.741 25.3318 161.424 26.1851L184.272 55.8171V27.7211C184.272 25.1184 185.552 23.8171 188.112 23.8171C190.629 23.8171 191.888 25.1184 191.888 27.7211V66.1211C191.888 67.3158 191.589 68.2544 190.992 68.9371C190.394 69.6198 189.584 69.9611 188.56 69.9611C187.578 69.9611 186.789 69.7691 186.192 69.3851C185.637 69.0011 185.018 68.3824 184.336 67.5291L161.488 37.8331V65.9931C161.488 68.6384 160.229 69.9611 157.712 69.9611ZM212.499 69.4491C209.597 69.4491 208.147 67.9984 208.147 65.0971V28.6811C208.147 25.7798 209.597 24.3291 212.499 24.3291H224.915C232.467 24.3291 238.291 26.2704 242.387 30.1531C246.525 34.0358 248.595 39.6038 248.595 46.8571C248.595 54.0678 246.525 59.6358 242.387 63.5611C238.291 67.4864 232.467 69.4491 224.915 69.4491H212.499ZM216.339 62.6651H224.403C234.813 62.6651 240.019 57.3958 240.019 46.8571C240.019 36.3611 234.813 31.1131 224.403 31.1131H216.339V62.6651ZM267.649 69.4491C264.747 69.4491 263.297 67.9984 263.297 65.0971V28.6811C263.297 25.7798 264.747 24.3291 267.649 24.3291H290.497C292.715 24.3291 293.825 25.3958 293.825 27.5291C293.825 29.7478 292.715 30.8571 290.497 30.8571H271.169V43.2731H289.089C291.307 43.2731 292.417 44.3611 292.417 46.5371C292.417 48.7131 291.307 49.8011 289.089 49.8011H271.169V62.9211H290.497C292.715 62.9211 293.825 64.0091 293.825 66.1851C293.825 68.3611 292.715 69.4491 290.497 69.4491H267.649ZM311.98 69.9611C309.25 69.9611 307.884 68.5531 307.884 65.7371V28.4891C307.884 25.7158 309.271 24.3291 312.044 24.3291H327.468C332.418 24.3291 336.236 25.5238 338.924 27.9131C341.612 30.2598 342.956 33.5664 342.956 37.8331C342.956 41.2038 342.082 43.9984 340.332 46.2171C338.583 48.3931 336.066 49.8651 332.78 50.6331C334.956 51.3158 336.748 52.9584 338.156 55.5611L342.956 64.4571C343.682 65.8224 343.81 67.0811 343.34 68.2331C342.914 69.3851 341.826 69.9611 340.076 69.9611C338.924 69.9611 337.986 69.7264 337.26 69.2571C336.535 68.7451 335.895 67.9771 335.34 66.9531L328.876 55.0491C328.108 53.5984 327.191 52.6384 326.124 52.1691C325.1 51.6571 323.778 51.4011 322.156 51.4011H316.076V65.7371C316.076 68.5531 314.711 69.9611 311.98 69.9611ZM316.076 45.3211H326.06C332.034 45.3211 335.02 42.8891 335.02 38.0251C335.02 33.2038 332.034 30.7931 326.06 30.7931H316.076V45.3211ZM373.586 70.0891C370.728 70.0891 367.933 69.7691 365.202 69.1291C362.514 68.4891 360.168 67.5291 358.162 66.2491C357.181 65.6091 356.584 64.8198 356.37 63.8811C356.157 62.9424 356.221 62.0678 356.562 61.2571C356.946 60.4038 357.522 59.8278 358.29 59.5291C359.101 59.1878 360.018 59.3371 361.042 59.9771C362.92 61.0864 364.904 61.8971 366.994 62.4091C369.085 62.9211 371.282 63.1771 373.586 63.1771C376.957 63.1771 379.41 62.6224 380.946 61.5131C382.482 60.3611 383.25 58.8891 383.25 57.0971C383.25 55.6038 382.696 54.4304 381.586 53.5771C380.52 52.7238 378.664 52.0198 376.018 51.4651L368.978 49.9931C360.957 48.2864 356.946 44.1691 356.946 37.6411C356.946 34.8251 357.693 32.3718 359.186 30.2811C360.68 28.1904 362.749 26.5691 365.394 25.4171C368.04 24.2651 371.09 23.6891 374.546 23.6891C377.106 23.6891 379.538 24.0091 381.842 24.6491C384.146 25.2891 386.216 26.2278 388.05 27.4651C388.904 28.0624 389.416 28.8091 389.586 29.7051C389.757 30.5584 389.65 31.3691 389.266 32.1371C388.882 32.8624 388.264 33.3744 387.41 33.6731C386.6 33.9291 385.64 33.7371 384.53 33.0971C382.952 32.2011 381.352 31.5611 379.73 31.1771C378.109 30.7931 376.36 30.6011 374.482 30.6011C371.538 30.6011 369.234 31.2198 367.57 32.4571C365.906 33.6944 365.074 35.3158 365.074 37.3211C365.074 38.8571 365.586 40.0944 366.61 41.0331C367.634 41.9291 369.384 42.6331 371.858 43.1451L378.834 44.6171C383.058 45.5131 386.194 46.9211 388.242 48.8411C390.333 50.7611 391.378 53.3211 391.378 56.5211C391.378 59.2091 390.653 61.5771 389.202 63.6251C387.752 65.6731 385.682 67.2731 382.994 68.4251C380.349 69.5344 377.213 70.0891 373.586 70.0891Z" fill="#0EB29F"/>
<path d="M10.2387 30.8571V30.4293H9.81092V30.8571H10.2387ZM10.2387 43.5931H9.81092V44.0209H10.2387V43.5931ZM10.2387 50.1211V49.6933H9.81092V50.1211H10.2387ZM6.27074 69.5333C4.93199 69.5333 4.00573 69.1892 3.40974 68.5751C2.81145 67.9587 2.47457 66.997 2.47457 65.6091H1.61892C1.61892 67.1226 1.98604 68.3368 2.79575 69.1711C3.60776 70.0077 4.7935 70.3889 6.27074 70.3889V69.5333ZM2.47457 65.6091V28.6811H1.61892V65.6091H2.47457ZM2.47457 28.6811C2.47457 27.2964 2.82046 26.3364 3.43726 25.7196C4.05406 25.1028 5.01402 24.7569 6.39874 24.7569V23.9013C4.88213 23.9013 3.66609 24.2807 2.83223 25.1146C1.99837 25.9484 1.61892 27.1645 1.61892 28.6811H2.47457ZM6.39874 24.7569H28.7347V23.9013H6.39874V24.7569ZM28.7347 24.7569C29.7822 24.7569 30.4885 25.009 30.9342 25.4375C31.3768 25.863 31.6349 26.5327 31.6349 27.5291H32.4906C32.4906 26.3921 32.1941 25.4619 31.5273 24.8207C30.8636 24.1826 29.9059 23.9013 28.7347 23.9013V24.7569ZM31.6349 27.5291C31.6349 28.5725 31.3744 29.2764 30.9282 29.7226C30.4821 30.1687 29.7781 30.4293 28.7347 30.4293V31.2849C29.91 31.2849 30.8701 30.9908 31.5333 30.3276C32.1965 29.6644 32.4906 28.7044 32.4906 27.5291H31.6349ZM28.7347 30.4293H10.2387V31.2849H28.7347V30.4293ZM9.81092 30.8571V43.5931H10.6666V30.8571H9.81092ZM10.2387 44.0209H27.3907V43.1653H10.2387V44.0209ZM27.3907 44.0209C28.4382 44.0209 29.1446 44.273 29.5902 44.7015C30.0328 45.127 30.2909 45.7967 30.2909 46.7931H31.1466C31.1466 45.6561 30.8501 44.7259 30.1833 44.0847C29.5196 43.4466 28.5619 43.1653 27.3907 43.1653V44.0209ZM30.2909 46.7931C30.2909 47.8365 30.0304 48.5404 29.5842 48.9866C29.1381 49.4327 28.4341 49.6933 27.3907 49.6933V50.5489C28.566 50.5489 29.5261 50.2548 30.1893 49.5916C30.8525 48.9284 31.1466 47.9684 31.1466 46.7931H30.2909ZM27.3907 49.6933H10.2387V50.5489H27.3907V49.6933ZM9.81092 50.1211V65.6091H10.6666V50.1211H9.81092ZM9.81092 65.6091C9.81092 67.0031 9.49233 67.9688 8.9306 68.5849C8.37571 69.1934 7.51676 69.5333 6.27074 69.5333V70.3889C7.67006 70.3889 8.79511 70.0034 9.56289 69.1613C10.3238 68.3268 10.6666 67.1164 10.6666 65.6091H9.81092ZM52.3397 67.2091L52.1218 67.5772L52.1239 67.5785L52.3397 67.2091ZM44.7877 59.1451L44.407 59.3401L44.4079 59.342L44.7877 59.1451ZM44.7877 34.5691L45.1675 34.766L45.1675 34.766L44.7877 34.5691ZM52.3397 26.5691L52.5541 26.9394L52.5577 26.9372L52.3397 26.5691ZM75.2517 26.5691L75.0338 26.9372L75.0374 26.9393L75.2517 26.5691ZM82.8037 34.5691L83.1835 34.3722L83.1835 34.3722L82.8037 34.5691ZM82.8037 59.1451L83.1836 59.342L83.1845 59.3401L82.8037 59.1451ZM75.2517 67.2091L75.4697 67.5772L75.4697 67.5772L75.2517 67.2091ZM73.4597 58.7611L73.1266 58.4926L73.1266 58.4926L73.4597 58.7611ZM73.4597 34.9531L73.1262 35.221L73.1286 35.224L73.4597 34.9531ZM54.1317 34.9531L53.8006 34.6822L53.8006 34.6822L54.1317 34.9531ZM54.1317 58.7611L54.4648 58.4926L54.4648 58.4926L54.1317 58.7611ZM63.7957 69.6613C59.5085 69.6613 55.7665 68.7162 52.5556 66.8397L52.1239 67.5785C55.4837 69.542 59.379 70.5169 63.7957 70.5169V69.6613ZM52.5577 66.841C49.3863 64.9632 46.924 62.3355 45.1675 58.9482L44.4079 59.342C46.2355 62.8666 48.8079 65.615 52.1218 67.5772L52.5577 66.841ZM45.1685 58.9501C43.4129 55.5224 42.5276 51.4957 42.5276 46.8571H41.6719C41.6719 51.6052 42.5786 55.7705 44.407 59.3401L45.1685 58.9501ZM42.5276 46.8571C42.5276 42.175 43.4132 38.1494 45.1675 34.766L44.4079 34.3722C42.5783 37.9008 41.6719 42.0672 41.6719 46.8571H42.5276ZM45.1675 34.766C46.9236 31.3794 49.3848 28.7742 52.5541 26.9393L52.1254 26.1988C48.8094 28.1187 46.2359 30.8468 44.4079 34.3722L45.1675 34.766ZM52.5577 26.9372C55.7241 25.0624 59.4649 24.1169 63.7957 24.1169V23.2613C59.3373 23.2613 55.4407 24.2358 52.1218 26.201L52.5577 26.9372ZM63.7957 24.1169C68.1266 24.1169 71.8674 25.0624 75.0338 26.9372L75.4697 26.201C72.1508 24.2358 68.2542 23.2613 63.7957 23.2613V24.1169ZM75.0374 26.9393C78.2067 28.7742 80.6679 31.3794 82.4239 34.766L83.1835 34.3722C81.3556 30.8468 78.7821 28.1187 75.4661 26.1988L75.0374 26.9393ZM82.4239 34.766C84.1785 38.1499 85.0639 42.1543 85.0639 46.7931H85.9196C85.9196 42.0452 85.013 37.9003 83.1835 34.3722L82.4239 34.766ZM85.0639 46.7931C85.0639 51.475 84.1783 55.5229 82.423 58.9501L83.1845 59.3401C85.0132 55.7699 85.9196 51.5832 85.9196 46.7931H85.0639ZM82.4239 58.9482C80.6675 62.3355 78.2052 64.9632 75.0338 66.841L75.4697 67.5772C78.7836 65.615 81.356 62.8666 83.1835 59.342L82.4239 58.9482ZM75.0338 66.841C71.8674 68.7158 68.1266 69.6613 63.7957 69.6613V70.5169C68.2542 70.5169 72.1508 69.5424 75.4697 67.5772L75.0338 66.841ZM63.7957 63.4769C68.0452 63.4769 71.3966 62.0027 73.7928 59.0296L73.1266 58.4926C70.9149 61.2369 67.8236 62.6213 63.7957 62.6213V63.4769ZM73.7928 59.0296C76.1779 56.0703 77.3436 51.9951 77.3436 46.8571H76.4879C76.4879 51.8737 75.3496 55.7345 73.1266 58.4926L73.7928 59.0296ZM77.3436 46.8571C77.3436 41.6779 76.1786 37.6005 73.7909 34.6822L73.1286 35.224C75.3489 37.9377 76.4879 41.7963 76.4879 46.8571H77.3436ZM73.7933 34.6852C71.4374 31.7515 68.0838 30.3013 63.7957 30.3013V31.1569C67.8704 31.1569 70.9594 32.5227 73.1262 35.221L73.7933 34.6852ZM63.7957 30.3013C59.5486 30.3013 56.1977 31.7525 53.8006 34.6822L54.4629 35.224C56.6738 32.5217 59.7655 31.1569 63.7957 31.1569V30.3013ZM53.8006 34.6822C51.4129 37.6005 50.2479 41.6779 50.2479 46.8571H51.1036C51.1036 41.7963 52.2426 37.9377 54.4629 35.224L53.8006 34.6822ZM50.2479 46.8571C50.2479 51.9951 51.4136 56.0703 53.7986 59.0296L54.4648 58.4926C52.2419 55.7345 51.1036 51.8737 51.1036 46.8571H50.2479ZM53.7986 59.0296C56.1949 62.0027 59.5463 63.4769 63.7957 63.4769V62.6213C59.7679 62.6213 56.6766 61.2369 54.4648 58.4926L53.7986 59.0296ZM104.766 65.2891L104.463 65.5916L104.467 65.5956L104.766 65.2891ZM110.846 60.0411L110.527 60.3266L110.533 60.3335L110.846 60.0411ZM133.118 65.2891L133.42 65.5916L133.422 65.5896L133.118 65.2891ZM118.974 69.6613C112.859 69.6613 108.245 68.0808 105.064 64.9826L104.467 65.5956C107.857 68.8974 112.715 70.5169 118.974 70.5169V69.6613ZM105.068 64.9866C101.932 61.8505 100.33 57.198 100.33 50.9531H99.4739C99.4739 57.3375 101.114 62.2424 104.463 65.5916L105.068 64.9866ZM100.33 50.9531V27.9771H99.4739V50.9531H100.33ZM100.33 27.9771C100.33 26.6547 100.655 25.7418 101.231 25.1573C101.805 24.5739 102.7 24.2449 103.998 24.2449V23.3893C102.565 23.3893 101.412 23.7536 100.621 24.5569C99.8312 25.359 99.4739 26.5261 99.4739 27.9771H100.33ZM103.998 24.2449C105.295 24.2449 106.191 24.5739 106.765 25.1573C107.34 25.7418 107.666 26.6547 107.666 27.9771H108.522C108.522 26.5261 108.164 25.359 107.375 24.5569C106.584 23.7536 105.431 23.3893 103.998 23.3893V24.2449ZM107.666 27.9771V50.8891H108.522V27.9771H107.666ZM107.666 50.8891C107.666 54.9989 108.595 58.17 110.527 60.3266L111.164 59.7556C109.427 57.8162 108.522 54.886 108.522 50.8891H107.666ZM110.533 60.3335C112.513 62.4485 115.35 63.4769 118.974 63.4769V62.6213C115.515 62.6213 112.933 61.6444 111.158 59.7487L110.533 60.3335ZM118.974 63.4769C122.659 63.4769 125.497 62.4389 127.405 60.2934C129.305 58.1575 130.218 54.9968 130.218 50.8891H129.362C129.362 54.888 128.472 57.8073 126.766 59.7248C125.069 61.6327 122.499 62.6213 118.974 62.6213V63.4769ZM130.218 50.8891V27.9771H129.362V50.8891H130.218ZM130.218 27.9771C130.218 26.6547 130.543 25.7418 131.119 25.1573C131.693 24.5739 132.588 24.2449 133.886 24.2449V23.3893C132.453 23.3893 131.3 23.7536 130.509 24.5569C129.719 25.359 129.362 26.5261 129.362 27.9771H130.218ZM133.886 24.2449C135.16 24.2449 136.039 24.5729 136.603 25.1548C137.169 25.7393 137.49 26.6531 137.49 27.9771H138.346C138.346 26.5278 137.995 25.3616 137.217 24.5593C136.437 23.7546 135.299 23.3893 133.886 23.3893V24.2449ZM137.49 27.9771V50.9531H138.346V27.9771H137.49ZM137.49 50.9531C137.49 57.1994 135.908 61.8527 132.813 64.9886L133.422 65.5896C136.728 62.2401 138.346 57.3361 138.346 50.9531H137.49ZM132.815 64.9866C129.722 68.08 125.133 69.6613 118.974 69.6613V70.5169C125.273 70.5169 130.114 68.8982 133.42 65.5916L132.815 64.9866ZM154.832 24.9051L154.52 24.6119L154.52 24.6125L154.832 24.9051ZM159.632 24.3931L159.361 24.7242L159.377 24.7375L159.394 24.7491L159.632 24.3931ZM161.424 26.1851L161.763 25.9238L161.758 25.9178L161.424 26.1851ZM184.272 55.8171L183.933 56.0783L184.7 57.0726V55.8171H184.272ZM190.992 68.9371L190.67 68.6554L190.67 68.6554L190.992 68.9371ZM186.192 69.3851L185.948 69.7368L185.954 69.741L185.96 69.745L186.192 69.3851ZM184.336 67.5291L183.997 67.79L184.002 67.7964L184.336 67.5291ZM161.488 37.8331L161.827 37.5722L161.06 36.5755V37.8331H161.488ZM157.712 69.5333C156.501 69.5333 155.671 69.2214 155.139 68.6716C154.605 68.1192 154.3 67.2533 154.3 65.9931H153.444C153.444 67.3783 153.779 68.4963 154.524 69.2666C155.272 70.0395 156.362 70.3889 157.712 70.3889V69.5333ZM154.3 65.9931V27.9131H153.444V65.9931H154.3ZM154.3 27.9131C154.3 26.6541 154.604 25.7734 155.144 25.1977L154.52 24.6125C153.779 25.4021 153.444 26.5267 153.444 27.9131H154.3ZM155.143 25.1983C155.739 24.5655 156.498 24.2449 157.456 24.2449V23.3893C156.28 23.3893 155.29 23.7941 154.52 24.6119L155.143 25.1983ZM157.456 24.2449C158.395 24.2449 159.003 24.4312 159.361 24.7242L159.903 24.062C159.322 23.587 158.479 23.3893 157.456 23.3893V24.2449ZM159.394 24.7491C159.852 25.054 160.417 25.6111 161.09 26.4524L161.758 25.9178C161.065 25.0524 160.436 24.4148 159.869 24.0371L159.394 24.7491ZM161.085 26.4463L183.933 56.0783L184.611 55.5559L161.763 25.9239L161.085 26.4463ZM184.7 55.8171V27.7211H183.844V55.8171H184.7ZM184.7 27.7211C184.7 26.4839 185.004 25.635 185.537 25.0931C186.068 24.5525 186.899 24.2449 188.112 24.2449V23.3893C186.764 23.3893 185.675 23.7324 184.927 24.4931C184.18 25.2525 183.844 26.3556 183.844 27.7211H184.7ZM188.112 24.2449C189.301 24.2449 190.115 24.5515 190.636 25.0905C191.16 25.6322 191.46 26.4822 191.46 27.7211H192.316C192.316 26.3573 191.986 25.2553 191.251 24.4957C190.514 23.7334 189.44 23.3893 188.112 23.3893V24.2449ZM191.46 27.7211V66.1211H192.316V27.7211H191.46ZM191.46 66.1211C191.46 67.2456 191.18 68.0726 190.67 68.6554L191.314 69.2188C191.998 68.4362 192.316 67.386 192.316 66.1211H191.46ZM190.67 68.6554C190.165 69.2326 189.478 69.5333 188.56 69.5333V70.3889C189.689 70.3889 190.624 70.0069 191.314 69.2188L190.67 68.6554ZM188.56 69.5333C187.63 69.5333 186.93 69.3509 186.423 69.0252L185.96 69.745C186.648 70.1872 187.527 70.3889 188.56 70.3889V69.5333ZM186.435 69.0333C185.929 68.683 185.34 68.1002 184.67 67.2618L184.002 67.7964C184.696 68.6647 185.345 69.3192 185.948 69.7368L186.435 69.0333ZM184.675 67.2682L161.827 37.5722L161.149 38.094L183.997 67.79L184.675 67.2682ZM161.06 37.8331V65.9931H161.916V37.8331H161.06ZM161.06 65.9931C161.06 67.255 160.759 68.1219 160.234 68.6742C159.712 69.2225 158.899 69.5333 157.712 69.5333V70.3889C159.042 70.3889 160.117 70.0384 160.854 69.264C161.587 68.4936 161.916 67.3766 161.916 65.9931H161.06ZM242.387 30.1531L242.092 30.4636L242.094 30.4651L242.387 30.1531ZM242.387 63.5611L242.092 63.2507L242.091 63.2522L242.387 63.5611ZM216.339 62.6651H215.911V63.0929H216.339V62.6651ZM216.339 31.1131V30.6853H215.911V31.1131H216.339ZM212.499 69.0213C211.114 69.0213 210.154 68.6754 209.537 68.0586C208.92 67.4418 208.575 66.4818 208.575 65.0971H207.719C207.719 66.6137 208.098 67.8297 208.932 68.6636C209.766 69.4975 210.982 69.8769 212.499 69.8769V69.0213ZM208.575 65.0971V28.6811H207.719V65.0971H208.575ZM208.575 28.6811C208.575 27.2964 208.92 26.3364 209.537 25.7196C210.154 25.1028 211.114 24.7569 212.499 24.7569V23.9013C210.982 23.9013 209.766 24.2807 208.932 25.1146C208.098 25.9484 207.719 27.1645 207.719 28.6811H208.575ZM212.499 24.7569H224.915V23.9013H212.499V24.7569ZM224.915 24.7569C232.395 24.7569 238.1 26.6788 242.092 30.4636L242.681 29.8426C238.482 25.862 232.538 23.9013 224.915 23.9013V24.7569ZM242.094 30.4651C246.124 34.2458 248.167 39.6871 248.167 46.8571H249.023C249.023 39.5204 246.927 33.8257 242.679 29.8411L242.094 30.4651ZM248.167 46.8571C248.167 53.9833 246.125 59.4263 242.092 63.2507L242.681 63.8715C246.926 59.8452 249.023 54.1523 249.023 46.8571H248.167ZM242.091 63.2522C238.098 67.0787 232.394 69.0213 224.915 69.0213V69.8769C232.54 69.8769 238.484 67.8942 242.683 63.87L242.091 63.2522ZM224.915 69.0213H212.499V69.8769H224.915V69.0213ZM216.339 63.0929H224.403V62.2373H216.339V63.0929ZM224.403 63.0929C229.675 63.0929 233.708 61.7581 236.419 59.0138C239.129 56.2704 240.447 52.1911 240.447 46.8571H239.591C239.591 52.0618 238.306 55.8865 235.81 58.4124C233.316 60.9374 229.541 62.2373 224.403 62.2373V63.0929ZM240.447 46.8571C240.447 41.544 239.129 37.4805 236.419 34.7478C233.707 32.0145 229.675 30.6853 224.403 30.6853V31.5409C229.541 31.5409 233.317 32.8357 235.811 35.3504C238.306 37.8657 239.591 41.6742 239.591 46.8571H240.447ZM224.403 30.6853H216.339V31.5409H224.403V30.6853ZM215.911 31.1131V62.6651H216.767V31.1131H215.911ZM271.169 30.8571V30.4293H270.741V30.8571H271.169ZM271.169 43.2731H270.741V43.7009H271.169V43.2731ZM271.169 49.8011V49.3733H270.741V49.8011H271.169ZM271.169 62.9211H270.741V63.3489H271.169V62.9211ZM267.649 69.0213C266.264 69.0213 265.304 68.6754 264.687 68.0586C264.07 67.4418 263.725 66.4818 263.725 65.0971H262.869C262.869 66.6137 263.248 67.8297 264.082 68.6636C264.916 69.4975 266.132 69.8769 267.649 69.8769V69.0213ZM263.725 65.0971V28.6811H262.869V65.0971H263.725ZM263.725 28.6811C263.725 27.2964 264.07 26.3364 264.687 25.7196C265.304 25.1028 266.264 24.7569 267.649 24.7569V23.9013C266.132 23.9013 264.916 24.2807 264.082 25.1146C263.248 25.9484 262.869 27.1645 262.869 28.6811H263.725ZM267.649 24.7569H290.497V23.9013H267.649V24.7569ZM290.497 24.7569C291.544 24.7569 292.251 25.009 292.696 25.4375C293.139 25.863 293.397 26.5327 293.397 27.5291H294.253C294.253 26.3921 293.956 25.4619 293.289 24.8207C292.626 24.1826 291.668 23.9013 290.497 23.9013V24.7569ZM293.397 27.5291C293.397 28.5725 293.136 29.2764 292.69 29.7226C292.244 30.1687 291.54 30.4293 290.497 30.4293V31.2849C291.672 31.2849 292.632 30.9908 293.295 30.3276C293.958 29.6644 294.253 28.7044 294.253 27.5291H293.397ZM290.497 30.4293H271.169V31.2849H290.497V30.4293ZM270.741 30.8571V43.2731H271.597V30.8571H270.741ZM271.169 43.7009H289.089V42.8453H271.169V43.7009ZM289.089 43.7009C290.134 43.7009 290.839 43.9572 291.285 44.3945C291.73 44.8303 291.989 45.5172 291.989 46.5371H292.845C292.845 45.381 292.549 44.4359 291.884 43.7837C291.221 43.133 290.262 42.8453 289.089 42.8453V43.7009ZM291.989 46.5371C291.989 47.557 291.73 48.2439 291.285 48.6797C290.839 49.117 290.134 49.3733 289.089 49.3733V50.2289C290.262 50.2289 291.221 49.9412 291.884 49.2905C292.549 48.6383 292.845 47.6932 292.845 46.5371H291.989ZM289.089 49.3733H271.169V50.2289H289.089V49.3733ZM270.741 49.8011V62.9211H271.597V49.8011H270.741ZM271.169 63.3489H290.497V62.4933H271.169V63.3489ZM290.497 63.3489C291.542 63.3489 292.247 63.6052 292.693 64.0425C293.138 64.4783 293.397 65.1652 293.397 66.1851H294.253C294.253 65.029 293.957 64.0839 293.292 63.4317C292.629 62.781 291.67 62.4933 290.497 62.4933V63.3489ZM293.397 66.1851C293.397 67.205 293.138 67.8919 292.693 68.3277C292.247 68.765 291.542 69.0213 290.497 69.0213V69.8769C291.67 69.8769 292.629 69.5892 293.292 68.9385C293.957 68.2863 294.253 67.3412 294.253 66.1851H293.397ZM290.497 69.0213H267.649V69.8769H290.497V69.0213ZM338.924 27.9131L338.64 28.2329L338.643 28.2354L338.924 27.9131ZM340.332 46.2171L340.666 46.4852L340.668 46.482L340.332 46.2171ZM332.78 50.6331L332.683 50.2165L331.159 50.5728L332.652 51.0413L332.78 50.6331ZM338.156 55.5611L338.533 55.3579L338.533 55.3575L338.156 55.5611ZM342.956 64.4571L343.334 64.2564L343.333 64.2539L342.956 64.4571ZM343.34 68.2331L342.944 68.0716L342.939 68.0845L343.34 68.2331ZM337.26 69.2571L337.014 69.6066L337.021 69.6116L337.028 69.6163L337.26 69.2571ZM335.34 66.9531L335.716 66.7493L335.716 66.7489L335.34 66.9531ZM328.876 55.0491L328.498 55.2493L328.5 55.2533L328.876 55.0491ZM326.124 52.1691L325.933 52.5518L325.942 52.5565L325.952 52.5607L326.124 52.1691ZM316.076 51.4011V50.9733H315.648V51.4011H316.076ZM316.076 45.3211H315.648V45.7489H316.076V45.3211ZM316.076 30.7931V30.3653H315.648V30.7931H316.076ZM311.98 69.5333C310.684 69.5333 309.79 69.1999 309.215 68.6073C308.638 68.0122 308.312 67.0824 308.312 65.7371H307.456C307.456 67.2078 307.813 68.39 308.601 69.2029C309.392 70.0183 310.546 70.3889 311.98 70.3889V69.5333ZM308.312 65.7371V28.4891H307.456V65.7371H308.312ZM308.312 28.4891C308.312 27.1684 308.642 26.2564 309.227 25.6716C309.812 25.0868 310.724 24.7569 312.044 24.7569V23.9013C310.592 23.9013 309.424 24.2647 308.622 25.0666C307.82 25.8684 307.456 27.0365 307.456 28.4891H308.312ZM312.044 24.7569H327.468V23.9013H312.044V24.7569ZM327.468 24.7569C332.352 24.7569 336.056 25.9356 338.64 28.2329L339.208 27.5933C336.417 25.112 332.483 23.9013 327.468 23.9013V24.7569ZM338.643 28.2354C341.22 30.4849 342.528 33.6635 342.528 37.8331H343.384C343.384 33.4694 342.005 30.0347 339.206 27.5908L338.643 28.2354ZM342.528 37.8331C342.528 41.1269 341.675 43.8228 339.996 45.9522L340.668 46.482C342.488 44.174 343.384 41.2806 343.384 37.8331H342.528ZM339.999 45.949C338.321 48.036 335.895 49.4656 332.683 50.2165L332.878 51.0497C336.236 50.2646 338.845 48.7502 340.666 46.4852L339.999 45.949ZM332.652 51.0413C334.693 51.6816 336.409 53.2297 337.78 55.7647L338.533 55.3575C337.088 52.6872 335.219 50.9499 332.908 50.2249L332.652 51.0413ZM337.78 55.7642L342.58 64.6602L343.333 64.2539L338.533 55.3579L337.78 55.7642ZM342.578 64.6578C343.26 65.9408 343.354 67.0651 342.944 68.0717L343.736 68.3945C344.265 67.0971 344.103 65.7041 343.334 64.2564L342.578 64.6578ZM342.939 68.0845C342.762 68.5617 342.455 68.9121 342.004 69.151C341.542 69.3955 340.909 69.5333 340.076 69.5333V70.3889C340.993 70.3889 341.778 70.2387 342.404 69.9072C343.041 69.5701 343.491 69.0565 343.741 68.3817L342.939 68.0845ZM340.076 69.5333C338.98 69.5333 338.129 69.3098 337.493 68.8979L337.028 69.6163C337.842 70.1431 338.869 70.3889 340.076 70.3889V69.5333ZM337.507 68.9076C336.849 68.4435 336.249 67.7328 335.716 66.7493L334.964 67.1569C335.541 68.2214 336.22 69.0467 337.014 69.6066L337.507 68.9076ZM335.716 66.7489L329.252 54.8449L328.5 55.2533L334.964 67.1573L335.716 66.7489ZM329.254 54.8489C328.459 53.3472 327.481 52.2988 326.297 51.7775L325.952 52.5607C326.901 52.9781 327.757 53.8497 328.498 55.2493L329.254 54.8489ZM326.316 51.7864C325.213 51.235 323.818 50.9733 322.156 50.9733V51.8289C323.737 51.8289 324.988 52.0792 325.933 52.5518L326.316 51.7864ZM322.156 50.9733H316.076V51.8289H322.156V50.9733ZM315.648 51.4011V65.7371H316.504V51.4011H315.648ZM315.648 65.7371C315.648 67.0824 315.322 68.0122 314.745 68.6073C314.17 69.1999 313.276 69.5333 311.98 69.5333V70.3889C313.415 70.3889 314.569 70.0183 315.359 69.2029C316.148 68.39 316.504 67.2078 316.504 65.7371H315.648ZM316.076 45.7489H326.06V44.8933H316.076V45.7489ZM326.06 45.7489C329.094 45.7489 331.449 45.1331 333.05 43.8288C334.669 42.5109 335.448 40.5489 335.448 38.0251H334.592C334.592 40.3653 333.878 42.0513 332.51 43.1653C331.125 44.2931 329 44.8933 326.06 44.8933V45.7489ZM335.448 38.0251C335.448 35.5213 334.668 33.575 333.049 32.2682C331.447 30.9755 329.093 30.3653 326.06 30.3653V31.2209C329.001 31.2209 331.126 31.816 332.512 32.934C333.879 34.0378 334.592 35.7075 334.592 38.0251H335.448ZM326.06 30.3653H316.076V31.2209H326.06V30.3653ZM315.648 30.7931V45.3211H316.504V30.7931H315.648ZM365.202 69.1291L365.103 69.5453L365.105 69.5456L365.202 69.1291ZM358.162 66.2491L357.929 66.6075L357.932 66.6097L358.162 66.2491ZM356.562 61.2571L356.172 61.0815L356.168 61.0911L356.562 61.2571ZM358.29 59.5291L358.445 59.928L358.456 59.9234L358.29 59.5291ZM361.042 59.9771L360.815 60.34L360.825 60.3454L361.042 59.9771ZM380.946 61.5131L381.197 61.86L381.203 61.8554L380.946 61.5131ZM381.586 53.5771L381.319 53.9112L381.325 53.9162L381.586 53.5771ZM376.018 51.4651L376.106 51.0464L376.106 51.0463L376.018 51.4651ZM368.978 49.9931L368.889 50.4116L368.891 50.4119L368.978 49.9931ZM359.186 30.2811L358.838 30.0324L358.838 30.0324L359.186 30.2811ZM365.394 25.4171L365.223 25.0249L365.223 25.0249L365.394 25.4171ZM381.842 24.6491L381.957 24.2369L381.957 24.2369L381.842 24.6491ZM388.05 27.4651L388.296 27.1146L388.289 27.1104L388.05 27.4651ZM389.586 29.7051L389.166 29.7851L389.167 29.789L389.586 29.7051ZM389.266 32.1371L389.644 32.3373L389.649 32.3284L389.266 32.1371ZM387.41 33.6731L387.539 34.0813L387.552 34.0769L387.41 33.6731ZM384.53 33.0971L384.744 32.7265L384.741 32.725L384.53 33.0971ZM379.73 31.1771L379.632 31.5934L379.632 31.5934L379.73 31.1771ZM367.57 32.4571L367.826 32.8004L367.826 32.8004L367.57 32.4571ZM366.61 41.0331L366.321 41.3485L366.329 41.3551L366.61 41.0331ZM371.858 43.1451L371.947 42.7265L371.945 42.7261L371.858 43.1451ZM378.834 44.6171L378.923 44.1986L378.923 44.1985L378.834 44.6171ZM388.242 48.8411L387.95 49.1532L387.953 49.1562L388.242 48.8411ZM389.202 63.6251L388.853 63.3778L388.853 63.3778L389.202 63.6251ZM382.994 68.4251L383.16 68.8196L383.163 68.8183L382.994 68.4251ZM373.586 69.6613C370.76 69.6613 367.998 69.3449 365.3 68.7126L365.105 69.5456C367.868 70.1933 370.695 70.5169 373.586 70.5169V69.6613ZM365.301 68.7129C362.652 68.0822 360.352 67.139 358.392 65.8885L357.932 66.6097C359.984 67.9192 362.376 68.896 365.103 69.5453L365.301 68.7129ZM358.396 65.8907C357.486 65.2975 356.971 64.594 356.787 63.7863L355.953 63.9759C356.196 65.0455 356.876 65.9207 357.929 66.6074L358.396 65.8907ZM356.787 63.7863C356.592 62.9262 356.653 62.1435 356.957 61.4231L356.168 61.0911C355.789 61.992 355.722 62.9587 355.953 63.9759L356.787 63.7863ZM356.952 61.4327C357.297 60.6666 357.796 60.1802 358.445 59.9278L358.135 59.1304C357.248 59.4753 356.595 60.1409 356.172 61.0815L356.952 61.4327ZM358.456 59.9234C359.094 59.6547 359.862 59.7438 360.815 60.3399L361.269 59.6143C360.175 58.9304 359.107 58.7208 358.124 59.1348L358.456 59.9234ZM360.825 60.3454C362.738 61.4758 364.761 62.3025 366.892 62.8246L367.096 61.9936C365.047 61.4917 363.102 60.6971 361.26 59.6088L360.825 60.3454ZM366.892 62.8246C369.019 63.3453 371.25 63.6049 373.586 63.6049V62.7493C371.314 62.7493 369.151 62.4968 367.096 61.9936L366.892 62.8246ZM373.586 63.6049C376.985 63.6049 379.55 63.0492 381.197 61.8599L380.696 61.1663C379.27 62.1957 376.929 62.7493 373.586 62.7493V63.6049ZM381.203 61.8554C382.838 60.6293 383.678 59.0346 383.678 57.0971H382.822C382.822 58.7436 382.127 60.0929 380.69 61.1708L381.203 61.8554ZM383.678 57.0971C383.678 55.4812 383.07 54.1784 381.847 53.238L381.325 53.9162C382.322 54.6825 382.822 55.7263 382.822 57.0971H383.678ZM381.853 53.243C380.705 52.3239 378.765 51.6039 376.106 51.0464L375.93 51.8838C378.562 52.4357 380.335 53.1236 381.319 53.9112L381.853 53.243ZM376.106 51.0463L369.066 49.5743L368.891 50.4119L375.931 51.8839L376.106 51.0463ZM369.067 49.5746C365.106 48.7317 362.187 47.3039 360.261 45.3266C358.344 43.3588 357.374 40.81 357.374 37.6411H356.518C356.518 41.0002 357.554 43.774 359.648 45.9236C361.732 48.0636 364.83 49.5478 368.889 50.4115L369.067 49.5746ZM357.374 37.6411C357.374 34.9053 358.098 32.5409 359.534 30.5298L358.838 30.0324C357.288 32.2026 356.518 34.7449 356.518 37.6411H357.374ZM359.534 30.5298C360.977 28.5096 362.982 26.9343 365.565 25.8093L365.223 25.0249C362.516 26.2039 360.382 27.8712 358.838 30.0324L359.534 30.5298ZM365.565 25.8093C368.147 24.685 371.138 24.1169 374.546 24.1169V23.2613C371.043 23.2613 367.932 23.8452 365.223 25.0249L365.565 25.8093ZM374.546 24.1169C377.07 24.1169 379.464 24.4324 381.728 25.0613L381.957 24.2369C379.613 23.5858 377.142 23.2613 374.546 23.2613V24.1169ZM381.728 25.0613C383.991 25.69 386.018 26.6102 387.811 27.8198L388.289 27.1104C386.414 25.8453 384.302 24.8882 381.957 24.2369L381.728 25.0613ZM387.805 27.8156C388.581 28.3588 389.019 29.0144 389.166 29.7851L390.007 29.625C389.812 28.6038 389.226 27.766 388.296 27.1146L387.805 27.8156ZM389.167 29.789C389.319 30.5504 389.224 31.2641 388.884 31.9458L389.649 32.3284C390.076 31.4741 390.195 30.5665 390.006 29.6212L389.167 29.789ZM388.888 31.9369C388.56 32.557 388.032 33.0023 387.269 33.2693L387.552 34.0769C388.495 33.7465 389.205 33.1679 389.644 32.3373L388.888 31.9369ZM387.281 33.2651C386.632 33.4701 385.802 33.3369 384.744 32.7265L384.316 33.4677C385.477 34.1372 386.567 34.3881 387.539 34.0811L387.281 33.2651ZM384.741 32.725C383.131 31.8108 381.493 31.1549 379.829 30.7608L379.632 31.5934C381.21 31.9673 382.773 32.5914 384.319 33.4692L384.741 32.725ZM379.829 30.7608C378.171 30.3682 376.389 30.1733 374.482 30.1733V31.0289C376.33 31.0289 378.046 31.2179 379.632 31.5934L379.829 30.7608ZM374.482 30.1733C371.484 30.1733 369.078 30.8028 367.315 32.1138L367.826 32.8004C369.39 31.6367 371.593 31.0289 374.482 31.0289V30.1733ZM367.315 32.1138C365.547 33.4286 364.646 35.1752 364.646 37.3211H365.502C365.502 35.4564 366.266 33.9602 367.826 32.8004L367.315 32.1138ZM364.646 37.3211C364.646 38.9629 365.199 40.3197 366.321 41.3485L366.899 40.7177C365.974 39.8692 365.502 38.7513 365.502 37.3211H364.646ZM366.329 41.3551C367.438 42.3257 369.277 43.0479 371.772 43.564L371.945 42.7261C369.49 42.2183 367.831 41.5325 366.892 40.7111L366.329 41.3551ZM371.77 43.5637L378.746 45.0357L378.923 44.1985L371.947 42.7265L371.77 43.5637ZM378.745 45.0356C382.931 45.9234 385.981 47.308 387.95 49.1532L388.535 48.529C386.407 46.5342 383.186 45.1028 378.923 44.1986L378.745 45.0356ZM387.953 49.1562C389.944 50.9844 390.95 53.424 390.95 56.5211H391.806C391.806 53.2182 390.722 50.5378 388.532 48.526L387.953 49.1562ZM390.95 56.5211C390.95 59.1272 390.249 61.4073 388.853 63.3778L389.551 63.8724C391.057 61.7469 391.806 59.291 391.806 56.5211H390.95ZM388.853 63.3778C387.455 65.3514 385.453 66.9057 382.826 68.0319L383.163 68.8183C385.911 67.6405 388.048 65.9948 389.551 63.8724L388.853 63.3778ZM382.829 68.0306C380.248 69.1129 377.171 69.6613 373.586 69.6613V70.5169C377.255 70.5169 380.45 69.9559 383.16 68.8196L382.829 68.0306Z" fill="#0EB29F"/>
<path d="M164 88.4491H227.03" stroke="#248A82" stroke-width="4" stroke-linecap="round"/>
</svg>
