<svg width="382" height="91" viewBox="0 0 382 91" fill="none" xmlns="http://www.w3.org/2000/svg">
<path d="M53.1003 65.448L53.1232 66.0893L53.1305 66.0891L53.1379 66.0886L53.1003 65.448ZM50.2843 64.488L50.738 64.0342L50.2843 64.488ZM50.0282 59.752L50.5155 60.1696L50.5313 60.1511L50.5457 60.1315L50.0282 59.752ZM52.1403 58.728L52.1694 59.3692L52.1829 59.3683L52.1403 58.728ZM54.0603 58.6L54.1029 59.2403L54.1034 59.2403L54.0603 58.6ZM64.7483 61.608L64.2857 61.1632L64.7483 61.608ZM55.2763 65.32L55.3139 65.9606L55.3155 65.9605L55.2763 65.32ZM53.0773 64.8067C52.0153 64.8446 51.2658 64.562 50.738 64.0342L49.8305 64.9418C50.668 65.7793 51.7959 66.1367 53.1232 66.0893L53.0773 64.8067ZM50.738 64.0342C50.1889 63.4851 49.902 62.7801 49.902 61.864H48.6185C48.6185 63.0813 49.0143 64.1256 49.8305 64.9418L50.738 64.0342ZM49.902 61.864C49.902 61.2014 50.1064 60.6468 50.5155 60.1696L49.541 59.3344C48.9261 60.0518 48.6185 60.9052 48.6185 61.864H49.902ZM50.5457 60.1315C50.8786 59.6776 51.3849 59.4047 52.1694 59.3691L52.1111 58.0869C51.0182 58.1366 50.1166 58.5464 49.5108 59.3725L50.5457 60.1315ZM52.1829 59.3683L54.1029 59.2403L54.0176 57.9597L52.0976 58.0877L52.1829 59.3683ZM54.1034 59.2403C56.1087 59.1051 57.7122 58.4773 58.8073 57.2714C59.8995 56.0688 60.398 54.3878 60.398 52.328H59.1145C59.1145 54.1935 58.6636 55.5206 57.8572 56.4086C57.0536 57.2934 55.8091 57.8389 54.0171 57.9597L54.1034 59.2403ZM60.398 52.328V23.528H59.1145V52.328H60.398ZM60.398 23.528C60.398 22.2378 60.7155 21.3885 61.2375 20.8582C61.7578 20.3299 62.5884 20.0097 63.8523 20.0097V18.7263C62.3855 18.7263 61.1681 19.0995 60.323 19.9578C59.4797 20.8142 59.1145 22.0449 59.1145 23.528H60.398ZM63.8523 20.0097C65.1161 20.0097 65.9467 20.3299 66.467 20.8582C66.989 21.3885 67.3065 22.2378 67.3065 23.528H68.59C68.59 22.0449 68.2248 20.8142 67.3815 19.9578C66.5364 19.0995 65.319 18.7263 63.8523 18.7263V20.0097ZM67.3065 23.528V52.264H68.59V23.528H67.3065ZM67.3065 52.264C67.3065 56.1609 66.2724 59.097 64.2857 61.1632L65.2108 62.0528C67.4907 59.6817 68.59 56.3885 68.59 52.264H67.3065ZM64.2857 61.1632C62.2989 63.2294 59.3164 64.4297 55.237 64.6795L55.3155 65.9605C59.5987 65.6983 62.9309 64.4239 65.2108 62.0528L64.2857 61.1632ZM55.2386 64.6794L53.0626 64.8074L53.1379 66.0886L55.3139 65.9606L55.2386 64.6794ZM88.6533 60.84L88.1994 61.2938L88.2055 61.2997L88.6533 60.84ZM94.7332 55.592L94.2551 56.0203L94.2648 56.0306L94.7332 55.592ZM117.005 60.84L117.459 61.2938L117.462 61.2908L117.005 60.84ZM102.861 64.9983C96.782 64.9983 92.2296 63.4276 89.101 60.3803L88.2055 61.2997C91.6476 64.6524 96.5671 66.2817 102.861 66.2817V64.9983ZM89.107 60.3862C86.0242 57.3034 84.431 52.714 84.431 46.504H83.1475C83.1475 52.9233 84.7969 57.8912 88.1995 61.2938L89.107 60.3862ZM84.431 46.504V23.528H83.1475V46.504H84.431ZM84.431 23.528C84.431 22.2378 84.7485 21.3885 85.2705 20.8582C85.7908 20.3299 86.6214 20.0097 87.8853 20.0097V18.7263C86.4185 18.7263 85.2011 19.0995 84.356 19.9578C83.5127 20.8142 83.1475 22.0449 83.1475 23.528H84.431ZM87.8853 20.0097C89.1491 20.0097 89.9797 20.3299 90.5 20.8582C91.022 21.3885 91.3395 22.2378 91.3395 23.528H92.623C92.623 22.0449 92.2578 20.8142 91.4145 19.9578C90.5694 19.0995 89.352 18.7263 87.8853 18.7263V20.0097ZM91.3395 23.528V46.44H92.623V23.528H91.3395ZM91.3395 46.44C91.3395 50.578 92.2748 53.8094 94.2553 56.0202L95.2112 55.1638C93.5224 53.2786 92.623 50.4087 92.623 46.44H91.3395ZM94.2648 56.0306C96.2961 58.2004 99.1966 59.2417 102.861 59.2417V57.9583C99.4432 57.9583 96.9251 56.9943 95.2017 55.1534L94.2648 56.0306ZM102.861 59.2417C106.586 59.2417 109.492 58.1913 111.453 55.9865C113.401 53.796 114.319 50.5749 114.319 46.44H113.036C113.036 50.4117 112.151 53.2707 110.494 55.1335C108.85 56.982 106.347 57.9583 102.861 57.9583V59.2417ZM114.319 46.44V23.528H113.036V46.44H114.319ZM114.319 23.528C114.319 22.2378 114.636 21.3885 115.159 20.8582C115.679 20.3299 116.509 20.0097 117.773 20.0097V18.7263C116.306 18.7263 115.089 19.0995 114.244 19.9578C113.401 20.8142 113.036 22.0449 113.036 23.528H114.319ZM117.773 20.0097C119.013 20.0097 119.826 20.3284 120.336 20.8546C120.85 21.3846 121.164 22.2353 121.164 23.528H122.447C122.447 22.0474 122.088 20.8181 121.258 19.9614C120.424 19.1009 119.221 18.7263 117.773 18.7263V20.0097ZM121.164 23.528V46.504H122.447V23.528H121.164ZM121.164 46.504C121.164 52.7162 119.59 57.3068 116.548 60.3892L117.462 61.2908C120.82 57.8879 122.447 52.9212 122.447 46.504H121.164ZM116.551 60.3862C113.511 63.4264 108.986 64.9983 102.861 64.9983V66.2817C109.195 66.2817 114.099 64.6536 117.459 61.2938L116.551 60.3862ZM171.999 25.704L171.558 26.1697L171.56 26.172L171.999 25.704ZM171.999 59.112L171.558 58.6464L171.555 58.6487L171.999 59.112ZM145.951 58.216H145.31V58.8577H145.951V58.216ZM145.951 26.664V26.0223H145.31V26.664H145.951ZM142.111 64.3583C140.76 64.3583 139.864 64.0208 139.301 63.4582C138.738 62.8957 138.401 61.9997 138.401 60.648H137.118C137.118 62.1976 137.505 63.4776 138.393 64.3658C139.282 65.2539 140.562 65.6417 142.111 65.6417V64.3583ZM138.401 60.648V24.232H137.118V60.648H138.401ZM138.401 24.232C138.401 22.8803 138.738 21.9843 139.301 21.4218C139.864 20.8592 140.76 20.5217 142.111 20.5217V19.2383C140.562 19.2383 139.282 19.6261 138.393 20.5142C137.505 21.4024 137.118 22.6824 137.118 24.232H138.401ZM142.111 20.5217H154.527V19.2383H142.111V20.5217ZM154.527 20.5217C161.972 20.5217 167.617 22.4339 171.558 26.1697L172.441 25.2383C168.19 21.2088 162.187 19.2383 154.527 19.2383V20.5217ZM171.56 26.172C175.536 29.9017 177.566 35.2797 177.566 42.408H178.849C178.849 35.0296 176.74 29.2716 172.438 25.236L171.56 26.172ZM177.566 42.408C177.566 49.4919 175.537 54.8724 171.558 58.6464L172.441 59.5776C176.739 55.5009 178.849 49.7454 178.849 42.408H177.566ZM171.555 58.6487C167.614 62.4257 161.97 64.3583 154.527 64.3583V65.6417C162.188 65.6417 168.193 63.6489 172.443 59.5753L171.555 58.6487ZM154.527 64.3583H142.111V65.6417H154.527V64.3583ZM145.951 58.8577H154.015V57.5743H145.951V58.8577ZM154.015 58.8577C159.322 58.8577 163.419 57.5142 166.184 54.715C168.948 51.9173 170.273 47.7743 170.273 42.408H168.99C168.99 47.5804 167.712 51.3414 165.271 53.813C162.831 56.2832 159.12 57.5743 154.015 57.5743V58.8577ZM170.273 42.408C170.273 37.0624 168.947 32.9351 166.183 30.1481C163.418 27.3601 159.321 26.0223 154.015 26.0223V27.3057C159.12 27.3057 162.832 28.5918 165.272 31.0519C167.713 33.5129 168.99 37.2576 168.99 42.408H170.273ZM154.015 26.0223H145.951V27.3057H154.015V26.0223ZM145.31 26.664V58.216H146.593V26.664H145.31ZM201.933 62.824L201.624 63.3863L201.627 63.3879L201.933 62.824ZM194.125 54.824L193.556 55.1194L194.125 54.824ZM194.189 30.184L194.756 30.4849L194.758 30.482L194.189 30.184ZM202.125 22.12L202.432 22.6839L202.437 22.681L202.125 22.12ZM221.709 20.136L221.554 20.7587L221.567 20.7617L221.709 20.136ZM228.557 23.016L228.211 23.5565L228.221 23.5627L228.231 23.5685L228.557 23.016ZM230.157 25.256L229.521 25.3427L229.524 25.3595L229.527 25.3761L230.157 25.256ZM229.773 27.816L230.341 28.1149V28.1149L229.773 27.816ZM227.853 29.544L228.065 30.1497L228.079 30.1451L228.092 30.1398L227.853 29.544ZM225.037 29.096L225.361 28.5417L225.359 28.5406L225.037 29.096ZM220.109 27.048L220.269 26.4264L220.109 27.048ZM203.661 30.568L203.182 30.1407L203.179 30.1449L203.661 30.568ZM203.789 54.504L203.317 54.939L203.789 54.504ZM219.277 58.28L219.371 58.9149L219.378 58.9138L219.386 58.9125L219.277 58.28ZM223.693 57.192L223.891 57.8026L224.335 57.6589V57.192H223.693ZM223.693 46.696H224.335V46.0543H223.693V46.696ZM228.237 63.272L228.019 62.6684L228.018 62.6689L228.237 63.272ZM221.773 65L221.884 65.6322L221.895 65.6301L221.773 65ZM214.605 64.9983C209.692 64.9983 205.58 64.0744 202.24 62.2601L201.627 63.3879C205.199 65.3283 209.534 66.2817 214.605 66.2817V64.9983ZM202.243 62.2617C198.94 60.4456 196.428 57.8717 194.695 54.5286L193.556 55.1194C195.406 58.6883 198.099 61.4478 201.624 63.3863L202.243 62.2617ZM194.695 54.5286C192.959 51.1816 192.079 47.1912 192.079 42.536H190.796C190.796 47.3528 191.707 51.5544 193.556 55.1194L194.695 54.5286ZM192.079 42.536C192.079 37.8393 192.98 33.8299 194.756 30.4849L193.622 29.8831C191.729 33.4501 190.796 37.6754 190.796 42.536H192.079ZM194.758 30.482C196.533 27.0955 199.088 24.5002 202.432 22.6839L201.819 21.5561C198.251 23.4944 195.514 26.2752 193.621 29.886L194.758 30.482ZM202.437 22.681C205.779 20.8244 209.805 19.8817 214.541 19.8817V18.5983C209.635 18.5983 205.384 19.5756 201.814 21.559L202.437 22.681ZM214.541 19.8817C216.877 19.8817 219.214 20.1736 221.554 20.7586L221.865 19.5134C219.426 18.9038 216.985 18.5983 214.541 18.5983V19.8817ZM221.567 20.7617C223.925 21.2996 226.139 22.2304 228.211 23.5565L228.903 22.4755C226.708 21.0709 224.357 20.0817 221.852 19.5103L221.567 20.7617ZM228.231 23.5685C229.029 24.0403 229.424 24.6293 229.521 25.3427L230.793 25.1693C230.634 24.0054 229.963 23.101 228.884 22.4635L228.231 23.5685ZM229.527 25.3761C229.67 26.1287 229.565 26.8344 229.205 27.5171L230.341 28.1149C230.835 27.1763 230.986 26.1753 230.788 25.1359L229.527 25.3761ZM229.205 27.5171C228.85 28.1923 228.327 28.6633 227.615 28.9482L228.092 30.1398C229.086 29.742 229.843 29.061 230.341 28.1149L229.205 27.5171ZM227.641 28.9383C227.017 29.1569 226.276 29.0758 225.361 28.5417L224.714 29.6503C225.846 30.3109 226.983 30.5285 228.065 30.1497L227.641 28.9383ZM225.359 28.5406C223.691 27.5752 221.994 26.8689 220.269 26.4264L219.95 27.6696C221.552 28.0805 223.141 28.7395 224.716 29.6514L225.359 28.5406ZM220.269 26.4264C218.544 25.9841 216.633 25.7663 214.541 25.7663V27.0497C216.545 27.0497 218.347 27.2586 219.95 27.6696L220.269 26.4264ZM214.541 25.7663C209.635 25.7663 205.812 27.1943 203.182 30.1407L204.14 30.9953C206.46 28.395 209.89 27.0497 214.541 27.0497V25.7663ZM203.179 30.1449C200.609 33.0756 199.372 37.2385 199.372 42.536H200.655C200.655 37.4228 201.85 33.6071 204.144 30.9911L203.179 30.1449ZM199.372 42.536C199.372 47.8787 200.653 52.0486 203.317 54.939L204.261 54.069C201.891 51.4981 200.655 47.6893 200.655 42.536H199.372ZM203.317 54.939C205.993 57.8412 209.923 59.2417 214.989 59.2417V57.9583C210.157 57.9583 206.62 56.6281 204.261 54.069L203.317 54.939ZM214.989 59.2417C216.43 59.2417 217.89 59.1326 219.371 58.9149L219.184 57.6451C217.763 57.8541 216.365 57.9583 214.989 57.9583V59.2417ZM219.386 58.9125C220.909 58.6513 222.411 58.2813 223.891 57.8026L223.496 56.5814C222.074 57.0414 220.632 57.3967 219.169 57.6475L219.386 58.9125ZM224.335 57.192V46.696H223.052V57.192H224.335ZM223.693 46.0543H216.653V47.3377H223.693V46.0543ZM216.653 46.0543C215.631 46.0543 214.983 45.8172 214.593 45.4565C214.211 45.1046 213.967 44.5353 213.967 43.624H212.684C212.684 44.7607 212.994 45.7273 213.722 46.3995C214.44 47.0628 215.457 47.3377 216.653 47.3377V46.0543ZM213.967 43.624C213.967 42.7379 214.209 42.1862 214.588 41.8441C214.978 41.4909 215.628 41.2577 216.653 41.2577V39.9743C215.46 39.9743 214.445 40.2425 213.727 40.8919C212.996 41.5525 212.684 42.5047 212.684 43.624H213.967ZM216.653 41.2577H227.213V39.9743H216.653V41.2577ZM227.213 41.2577C228.224 41.2577 228.864 41.5099 229.255 41.9018C229.647 42.2936 229.9 42.9336 229.9 43.944H231.183C231.183 42.7357 230.88 41.7117 230.163 40.9942C229.446 40.2768 228.422 39.9743 227.213 39.9743V41.2577ZM229.9 43.944V59.496H231.183V43.944H229.9ZM229.9 59.496C229.9 60.3974 229.723 61.0772 229.417 61.5777C229.118 62.0688 228.666 62.435 228.019 62.6684L228.455 63.8756C229.345 63.5543 230.045 63.0138 230.513 62.2463C230.976 61.4881 231.183 60.5573 231.183 59.496H229.9ZM228.018 62.6689C226.179 63.3377 224.058 63.9055 221.652 64.3699L221.895 65.6301C224.353 65.1558 226.541 64.5717 228.457 63.8751L228.018 62.6689ZM221.662 64.3679C219.265 64.7885 216.913 64.9983 214.605 64.9983V66.2817C216.991 66.2817 219.417 66.0648 221.884 65.6321L221.662 64.3679ZM254.306 26.408V25.7663H253.665V26.408H254.306ZM254.306 38.824H253.665V39.4657H254.306V38.824ZM254.306 45.352V44.7103H253.665V45.352H254.306ZM254.306 58.472H253.665V59.1137H254.306V58.472ZM250.786 64.3583C249.435 64.3583 248.539 64.0208 247.976 63.4582C247.413 62.8957 247.076 61.9997 247.076 60.648H245.793C245.793 62.1976 246.18 63.4776 247.068 64.3658C247.957 65.2539 249.237 65.6417 250.786 65.6417V64.3583ZM247.076 60.648V24.232H245.793V60.648H247.076ZM247.076 24.232C247.076 22.8803 247.413 21.9843 247.976 21.4218C248.539 20.8592 249.435 20.5217 250.786 20.5217V19.2383C249.237 19.2383 247.957 19.6261 247.068 20.5142C246.18 21.4024 245.793 22.6824 245.793 24.232H247.076ZM250.786 20.5217H273.634V19.2383H250.786V20.5217ZM273.634 20.5217C274.651 20.5217 275.294 20.7665 275.685 21.1426C276.072 21.5142 276.321 22.1188 276.321 23.08H277.604C277.604 21.9079 277.298 20.9125 276.575 20.2174C275.857 19.5269 274.836 19.2383 273.634 19.2383V20.5217ZM276.321 23.08C276.321 24.0904 276.068 24.7304 275.676 25.1222C275.285 25.5141 274.645 25.7663 273.634 25.7663V27.0497C274.843 27.0497 275.867 26.7472 276.584 26.0298C277.301 25.3123 277.604 24.2882 277.604 23.08H276.321ZM273.634 25.7663H254.306V27.0497H273.634V25.7663ZM253.665 26.408V38.824H254.948V26.408H253.665ZM254.306 39.4657H272.226V38.1823H254.306V39.4657ZM272.226 39.4657C273.24 39.4657 273.881 39.7142 274.273 40.0982C274.662 40.4798 274.913 41.1021 274.913 42.088H276.196C276.196 40.8979 275.892 39.8882 275.172 39.1818C274.454 38.4778 273.431 38.1823 272.226 38.1823V39.4657ZM274.913 42.088C274.913 43.0739 274.662 43.6962 274.273 44.0778C273.881 44.4618 273.24 44.7103 272.226 44.7103V45.9937C273.431 45.9937 274.454 45.6982 275.172 44.9942C275.892 44.2878 276.196 43.2781 276.196 42.088H274.913ZM272.226 44.7103H254.306V45.9937H272.226V44.7103ZM253.665 45.352V58.472H254.948V45.352H253.665ZM254.306 59.1137H273.634V57.8303H254.306V59.1137ZM273.634 59.1137C274.648 59.1137 275.289 59.3622 275.681 59.7462C276.07 60.1278 276.321 60.7501 276.321 61.736H277.604C277.604 60.5459 277.3 59.5362 276.58 58.8298C275.862 58.1258 274.839 57.8303 273.634 57.8303V59.1137ZM276.321 61.736C276.321 62.7219 276.07 63.3442 275.681 63.7258C275.289 64.1098 274.648 64.3583 273.634 64.3583V65.6417C274.839 65.6417 275.862 65.3462 276.58 64.6422C277.3 63.9358 277.604 62.9261 277.604 61.736H276.321ZM273.634 64.3583H250.786V65.6417H273.634V64.3583ZM297.565 64.68L297.416 65.3043L297.418 65.3048L297.565 64.68ZM290.525 61.8L290.174 62.3375L290.179 62.3409L290.525 61.8ZM288.925 56.808L288.34 56.5447L288.336 56.5518L288.333 56.559L288.925 56.808ZM290.653 55.08L290.885 55.6781L290.894 55.6749L290.902 55.6714L290.653 55.08ZM293.405 55.528L293.065 56.0722L293.071 56.0764L293.078 56.0805L293.405 55.528ZM313.309 57.064L313.685 57.5843L313.694 57.5774L313.309 57.064ZM313.949 49.128L313.548 49.6292L313.557 49.6367L313.949 49.128ZM308.381 47.016L308.512 46.3879L308.512 46.3879L308.381 47.016ZM301.341 45.544L301.207 46.1717L301.209 46.1721L301.341 45.544ZM291.549 25.832L291.027 25.459L291.549 25.832ZM297.757 20.968L297.501 20.3796L297.757 20.968ZM314.205 20.2L314.376 19.5817L314.205 20.2ZM320.413 23.016L320.781 22.4902L320.772 22.484L320.413 23.016ZM321.949 25.256L321.318 25.3761L321.319 25.3818L321.949 25.256ZM321.629 27.688L322.196 27.9883L322.199 27.9817L322.203 27.975L321.629 27.688ZM319.773 29.224L319.966 29.8359L319.975 29.833L319.985 29.8297L319.773 29.224ZM316.893 28.648L317.213 28.0921L317.21 28.0899L316.893 28.648ZM312.093 26.728L311.945 27.3525L312.093 26.728ZM299.933 28.008L300.316 28.523L299.933 28.008ZM298.973 36.584L298.539 37.0571L298.545 37.0621L298.55 37.067L298.973 36.584ZM304.221 38.696L304.353 38.0681L304.351 38.0676L304.221 38.696ZM311.197 40.168L311.33 39.5402L311.329 39.5401L311.197 40.168ZM320.605 44.392L320.166 44.8602L320.171 44.8647L320.605 44.392ZM321.565 59.176L321.041 58.8051L321.565 59.176ZM315.357 63.976L315.605 64.5678L315.61 64.5658L315.357 63.976ZM305.949 64.9983C303.138 64.9983 300.393 64.6837 297.711 64.0552L297.418 65.3048C300.198 65.9563 303.042 66.2817 305.949 66.2817V64.9983ZM297.713 64.0557C295.084 63.4297 292.806 62.4948 290.87 61.2591L290.179 62.3409C292.254 63.6652 294.669 64.6503 297.416 65.3043L297.713 64.0557ZM290.875 61.2625C290.001 60.6926 289.527 60.032 289.359 59.2898L288.107 59.5742C288.365 60.7093 289.085 61.6274 290.174 62.3375L290.875 61.2625ZM289.359 59.2898C289.172 58.4689 289.232 57.7323 289.516 57.057L288.333 56.559C287.935 57.505 287.867 58.5177 288.107 59.5742L289.359 59.2898ZM289.51 57.0713C289.835 56.3489 290.296 55.9073 290.885 55.6781L290.42 54.4819C289.474 54.85 288.782 55.5604 288.34 56.5447L289.51 57.0713ZM290.902 55.6714C291.454 55.4391 292.146 55.4981 293.065 56.0722L293.745 54.9838C292.615 54.2779 291.473 54.0382 290.404 54.4886L290.902 55.6714ZM293.078 56.0805C295.009 57.2214 297.052 58.0562 299.204 58.5833L299.509 57.3367C297.481 56.8398 295.555 56.0533 293.731 54.9755L293.078 56.0805ZM299.204 58.5833C301.348 59.1084 303.597 59.3697 305.949 59.3697V58.0863C303.693 58.0863 301.547 57.8356 299.509 57.3367L299.204 58.5833ZM305.949 59.3697C309.362 59.3697 311.983 58.8134 313.684 57.5842L312.933 56.5438C311.563 57.5332 309.277 58.0863 305.949 58.0863V59.3697ZM313.694 57.5774C315.378 56.3143 316.254 54.6582 316.254 52.648H314.971C314.971 54.2218 314.312 55.5097 312.924 56.5506L313.694 57.5774ZM316.254 52.648C316.254 50.9709 315.619 49.6033 314.34 48.6193L313.557 49.6367C314.497 50.3594 314.971 51.3384 314.971 52.648H316.254ZM314.35 48.6269C313.16 47.6749 311.178 46.9468 308.512 46.3879L308.249 47.6441C310.874 48.1945 312.605 48.8745 313.548 49.6291L314.35 48.6269ZM308.512 46.3879L301.472 44.9159L301.209 46.1721L308.249 47.6441L308.512 46.3879ZM301.474 44.9163C297.537 44.0786 294.663 42.6649 292.776 40.7282C290.904 38.8059 289.95 36.3133 289.95 33.192H288.667C288.667 36.5987 289.719 39.4287 291.857 41.6238C293.981 43.8044 297.123 45.3027 301.207 46.1717L301.474 44.9163ZM289.95 33.192C289.95 30.4963 290.663 28.1763 292.071 26.205L291.027 25.459C289.448 27.669 288.667 30.2557 288.667 33.192H289.95ZM292.071 26.205C293.489 24.2201 295.461 22.6678 298.013 21.5564L297.501 20.3796C294.762 21.5722 292.595 23.2625 291.027 25.459L292.071 26.205ZM298.013 21.5564C300.563 20.4458 303.524 19.8817 306.909 19.8817V18.5983C303.382 18.5983 300.241 19.1862 297.501 20.3796L298.013 21.5564ZM306.909 19.8817C309.415 19.8817 311.789 20.1949 314.033 20.8183L314.376 19.5817C312.013 18.9251 309.523 18.5983 306.909 18.5983V19.8817ZM314.033 20.8183C316.276 21.4413 318.281 22.3523 320.054 23.548L320.772 22.484C318.875 21.205 316.742 20.2387 314.376 19.5817L314.033 20.8183ZM320.045 23.5417C320.782 24.0579 321.183 24.6679 321.318 25.3761L322.579 25.1359C322.373 24.0521 321.75 23.1687 320.781 22.4903L320.045 23.5417ZM321.319 25.3818C321.463 26.0973 321.374 26.7625 321.055 27.401L322.203 27.975C322.651 27.0775 322.776 26.1214 322.578 25.1301L321.319 25.3818ZM321.062 27.3877C320.761 27.9551 320.278 28.3672 319.561 28.6183L319.985 29.8297C320.974 29.4835 321.728 28.8715 322.196 27.9883L321.062 27.3877ZM319.579 28.6121C319.011 28.7914 318.246 28.6878 317.213 28.0921L316.572 29.2039C317.758 29.8882 318.913 30.1686 319.966 29.8359L319.579 28.6121ZM317.21 28.0899C315.583 27.1666 313.926 26.5027 312.241 26.1035L311.945 27.3525C313.502 27.7213 315.046 28.3374 316.576 29.2061L317.21 28.0899ZM312.241 26.1035C310.565 25.7067 308.766 25.5103 306.845 25.5103V26.7937C308.678 26.7937 310.378 26.9813 311.945 27.3525L312.241 26.1035ZM306.845 25.5103C303.819 25.5103 301.362 26.1452 299.55 27.493L300.316 28.523C301.831 27.3961 303.983 26.7937 306.845 26.7937V25.5103ZM299.55 27.493C297.73 28.8466 296.795 30.6558 296.795 32.872H298.078C298.078 31.0776 298.808 29.6441 300.316 28.523L299.55 27.493ZM296.795 32.872C296.795 34.5667 297.368 35.9832 298.539 37.0571L299.406 36.1109C298.53 35.3074 298.078 34.2493 298.078 32.872H296.795ZM298.55 37.067C299.702 38.0749 301.586 38.8062 304.091 39.3244L304.351 38.0676C301.906 37.5618 300.291 36.8851 299.395 36.101L298.55 37.067ZM304.088 39.3239L311.064 40.7959L311.329 39.5401L304.353 38.0681L304.088 39.3239ZM311.064 40.7958C315.23 41.6795 318.237 43.0523 320.166 44.8602L321.044 43.9238C318.876 41.8917 315.612 40.4485 311.33 39.5402L311.064 40.7958ZM320.171 44.8647C322.111 46.647 323.099 49.0264 323.099 52.072H324.382C324.382 48.7176 323.279 45.977 321.039 43.9193L320.171 44.8647ZM323.099 52.072C323.099 54.6371 322.409 56.8734 321.041 58.8051L322.088 59.5469C323.621 57.3826 324.382 54.8829 324.382 52.072H323.099ZM321.041 58.8051C319.669 60.7415 317.701 62.2729 315.104 63.3862L315.61 64.5658C318.388 63.3751 320.559 61.7065 322.088 59.5469L321.041 58.8051ZM315.109 63.3842C312.56 64.4531 309.512 64.9983 305.949 64.9983V66.2817C309.639 66.2817 312.863 65.7176 315.605 64.5678L315.109 63.3842Z" fill="#248A82"/>
<path d="M58.1003 69.448C56.9056 69.4907 55.9669 69.1707 55.2843 68.488C54.6016 67.8053 54.2602 66.9307 54.2602 65.864C54.2602 65.0533 54.5162 64.3493 55.0282 63.752C55.4976 63.112 56.2016 62.7707 57.1403 62.728L59.0603 62.6C62.8576 62.344 64.7563 60.2533 64.7563 56.328V27.528C64.7563 24.7547 66.1216 23.368 68.8523 23.368C71.5829 23.368 72.9483 24.7547 72.9483 27.528V56.264C72.9483 60.2747 71.8816 63.3893 69.7483 65.608C67.6149 67.8267 64.4576 69.064 60.2763 69.32L58.1003 69.448ZM107.861 69.64C101.675 69.64 96.9386 68.04 93.6532 64.84C90.4106 61.5973 88.7892 56.8187 88.7892 50.504V27.528C88.7892 24.7547 90.1546 23.368 92.8853 23.368C95.6159 23.368 96.9812 24.7547 96.9812 27.528V50.44C96.9812 54.4933 97.8986 57.544 99.7333 59.592C101.611 61.5973 104.32 62.6 107.861 62.6C115.072 62.6 118.677 58.5467 118.677 50.44V27.528C118.677 24.7547 120.043 23.368 122.773 23.368C125.461 23.368 126.805 24.7547 126.805 27.528V50.504C126.805 56.8187 125.205 61.5973 122.005 64.84C118.805 68.04 114.091 69.64 107.861 69.64ZM147.111 69C144.21 69 142.759 67.5493 142.759 64.648V28.232C142.759 25.3307 144.21 23.88 147.111 23.88H159.527C167.079 23.88 172.903 25.8213 176.999 29.704C181.138 33.5867 183.207 39.1547 183.207 46.408C183.207 53.6187 181.138 59.1867 176.999 63.112C172.903 67.0373 167.079 69 159.527 69H147.111ZM150.951 62.216H159.015C169.426 62.216 174.631 56.9467 174.631 46.408C174.631 35.912 169.426 30.664 159.015 30.664H150.951V62.216ZM219.605 69.64C214.613 69.64 210.389 68.7013 206.933 66.824C203.52 64.9467 200.917 62.28 199.125 58.824C197.333 55.368 196.437 51.272 196.437 46.536C196.437 41.7573 197.355 37.64 199.189 34.184C201.024 30.6853 203.669 27.9973 207.125 26.12C210.581 24.2 214.72 23.24 219.541 23.24C221.931 23.24 224.32 23.5387 226.709 24.136C229.141 24.6907 231.424 25.6507 233.557 27.016C234.496 27.5707 235.029 28.3173 235.157 29.256C235.328 30.152 235.2 31.0053 234.773 31.816C234.347 32.6267 233.707 33.2027 232.853 33.544C232 33.8427 231.061 33.6933 230.037 33.096C228.416 32.1573 226.773 31.4747 225.109 31.048C223.445 30.6213 221.589 30.408 219.541 30.408C214.763 30.408 211.136 31.7947 208.661 34.568C206.229 37.3413 205.013 41.3307 205.013 46.536C205.013 51.784 206.272 55.7733 208.789 58.504C211.307 61.2347 215.04 62.6 219.989 62.6C221.397 62.6 222.827 62.4933 224.277 62.28C225.771 62.024 227.243 61.6613 228.693 61.192V50.696H221.653C219.435 50.696 218.325 49.672 218.325 47.624C218.325 45.6187 219.435 44.616 221.653 44.616H232.213C234.432 44.616 235.541 45.7253 235.541 47.944V63.496C235.541 65.4587 234.773 66.7173 233.237 67.272C231.36 67.9547 229.205 68.5307 226.773 69C224.341 69.4267 221.952 69.64 219.605 69.64ZM255.786 69C252.885 69 251.434 67.5493 251.434 64.648V28.232C251.434 25.3307 252.885 23.88 255.786 23.88H278.634C280.853 23.88 281.962 24.9467 281.962 27.08C281.962 29.2987 280.853 30.408 278.634 30.408H259.306V42.824H277.226C279.445 42.824 280.554 43.912 280.554 46.088C280.554 48.264 279.445 49.352 277.226 49.352H259.306V62.472H278.634C280.853 62.472 281.962 63.56 281.962 65.736C281.962 67.912 280.853 69 278.634 69H255.786ZM310.949 69.64C308.09 69.64 305.295 69.32 302.565 68.68C299.877 68.04 297.53 67.08 295.525 65.8C294.543 65.16 293.946 64.3707 293.733 63.432C293.519 62.4933 293.583 61.6187 293.925 60.808C294.309 59.9547 294.885 59.3787 295.653 59.08C296.463 58.7387 297.381 58.888 298.405 59.528C300.282 60.6373 302.266 61.448 304.357 61.96C306.447 62.472 308.645 62.728 310.949 62.728C314.319 62.728 316.773 62.1733 318.309 61.064C319.845 59.912 320.613 58.44 320.613 56.648C320.613 55.1547 320.058 53.9813 318.949 53.128C317.882 52.2747 316.026 51.5707 313.381 51.016L306.341 49.544C298.319 47.8373 294.309 43.72 294.309 37.192C294.309 34.376 295.055 31.9227 296.549 29.832C298.042 27.7413 300.111 26.12 302.757 24.968C305.402 23.816 308.453 23.24 311.909 23.24C314.469 23.24 316.901 23.56 319.205 24.2C321.509 24.84 323.578 25.7787 325.413 27.016C326.266 27.6133 326.778 28.36 326.949 29.256C327.119 30.1093 327.013 30.92 326.629 31.688C326.245 32.4133 325.626 32.9253 324.773 33.224C323.962 33.48 323.002 33.288 321.893 32.648C320.314 31.752 318.714 31.112 317.093 30.728C315.471 30.344 313.722 30.152 311.845 30.152C308.901 30.152 306.597 30.7707 304.933 32.008C303.269 33.2453 302.437 34.8667 302.437 36.872C302.437 38.408 302.949 39.6453 303.973 40.584C304.997 41.48 306.746 42.184 309.221 42.696L316.197 44.168C320.421 45.064 323.557 46.472 325.605 48.392C327.695 50.312 328.741 52.872 328.741 56.072C328.741 58.76 328.015 61.128 326.565 63.176C325.114 65.224 323.045 66.824 320.357 67.976C317.711 69.0853 314.575 69.64 310.949 69.64Z" fill="#0EB29F"/>
<path d="M58.1003 69.448L58.1155 69.8757L58.1254 69.8751L58.1003 69.448ZM55.2843 68.488L55.5868 68.1855L55.2843 68.488ZM55.0282 63.752L55.3531 64.0304L55.3636 64.0181L55.3732 64.005L55.0282 63.752ZM57.1403 62.728L57.1597 63.1555L57.1687 63.1549L57.1403 62.728ZM59.0603 62.6L59.0887 63.0269L59.089 63.0269L59.0603 62.6ZM69.7483 65.608L69.4399 65.3115L69.7483 65.608ZM60.2763 69.32L60.3014 69.7471L60.3024 69.747L60.2763 69.32ZM58.085 69.0205C56.9787 69.06 56.1662 68.7649 55.5868 68.1855L54.9817 68.7905C55.7677 69.5764 56.8325 69.9214 58.1155 69.8755L58.085 69.0205ZM55.5868 68.1855C54.9931 67.5918 54.6881 66.8303 54.6881 65.864H53.8324C53.8324 67.0311 54.2101 68.0188 54.9817 68.7905L55.5868 68.1855ZM54.6881 65.864C54.6881 65.1521 54.9097 64.5477 55.3531 64.0304L54.7034 63.4736C54.1228 64.151 53.8324 64.9546 53.8324 65.864H54.6881ZM55.3732 64.005C55.7516 63.4891 56.3238 63.1934 57.1597 63.1554L57.1208 62.3006C56.0794 62.348 55.2436 62.7349 54.6833 63.499L55.3732 64.005ZM57.1687 63.1549L59.0887 63.0269L59.0318 62.1731L57.1118 62.3011L57.1687 63.1549ZM59.089 63.0269C61.0588 62.8941 62.6024 62.28 63.649 61.1276C64.6935 59.9774 65.1841 58.3554 65.1841 56.328H64.3284C64.3284 58.2259 63.8696 59.6119 63.0155 60.5524C62.1634 61.4907 60.859 62.0499 59.0315 62.1731L59.089 63.0269ZM65.1841 56.328V27.528H64.3284V56.328H65.1841ZM65.1841 27.528C65.1841 26.2056 65.5095 25.2927 66.0851 24.7082C66.6595 24.1248 67.5546 23.7958 68.8523 23.7958V22.9402C67.4193 22.9402 66.2663 23.3045 65.4754 24.1078C64.6857 24.9099 64.3284 26.077 64.3284 27.528H65.1841ZM68.8523 23.7958C70.1499 23.7958 71.045 24.1248 71.6194 24.7082C72.195 25.2927 72.5204 26.2056 72.5204 27.528H73.3761C73.3761 26.077 73.0188 24.9099 72.2291 24.1078C71.4382 23.3045 70.2852 22.9402 68.8523 22.9402V23.7958ZM72.5204 27.528V56.264H73.3761V27.528H72.5204ZM72.5204 56.264C72.5204 60.1988 71.4755 63.1944 69.4399 65.3115L70.0566 65.9045C72.2877 63.5842 73.3761 60.3505 73.3761 56.264H72.5204ZM69.4399 65.3115C67.4043 67.4285 64.3635 68.6411 60.2501 68.893L60.3024 69.747C64.5517 69.4869 67.8256 68.2248 70.0566 65.9045L69.4399 65.3115ZM60.2511 68.8929L58.0751 69.0209L58.1254 69.8751L60.3014 69.7471L60.2511 68.8929ZM93.6533 64.84L93.3507 65.1425L93.3547 65.1465L93.6533 64.84ZM99.7332 59.592L99.4145 59.8775L99.4209 59.8844L99.7332 59.592ZM122.005 64.84L122.308 65.1425L122.31 65.1405L122.005 64.84ZM107.861 69.2122C101.746 69.2122 97.1326 67.6317 93.9518 64.5335L93.3547 65.1465C96.7446 68.4483 101.603 70.0678 107.861 70.0678V69.2122ZM93.9558 64.5375C90.8197 61.4014 89.2171 56.7489 89.2171 50.504H88.3614C88.3614 56.8885 90.0015 61.7933 93.3507 65.1425L93.9558 64.5375ZM89.2171 50.504V27.528H88.3614V50.504H89.2171ZM89.2171 27.528C89.2171 26.2056 89.5425 25.2927 90.1181 24.7082C90.6925 24.1248 91.5876 23.7958 92.8853 23.7958V22.9402C91.4523 22.9402 90.2993 23.3045 89.5084 24.1078C88.7187 24.9099 88.3614 26.077 88.3614 27.528H89.2171ZM92.8853 23.7958C94.1829 23.7958 95.078 24.1248 95.6524 24.7082C96.228 25.2927 96.5534 26.2056 96.5534 27.528H97.4091C97.4091 26.077 97.0518 24.9099 96.2621 24.1078C95.4712 23.3045 94.3182 22.9402 92.8853 22.9402V23.7958ZM96.5534 27.528V50.44H97.4091V27.528H96.5534ZM96.5534 50.44C96.5534 54.5498 97.4827 57.7209 99.4146 59.8775L100.052 59.3065C98.3145 57.3671 97.4091 54.4369 97.4091 50.44H96.5534ZM99.4209 59.8844C101.401 61.9994 104.238 63.0278 107.861 63.0278V62.1722C104.402 62.1722 101.82 61.1953 100.046 59.2996L99.4209 59.8844ZM107.861 63.0278C111.546 63.0278 114.385 61.9898 116.293 59.8443C118.193 57.7085 119.105 54.5477 119.105 50.44H118.249C118.249 54.4389 117.359 57.3582 115.654 59.2757C113.957 61.1836 111.387 62.1722 107.861 62.1722V63.0278ZM119.105 50.44V27.528H118.249V50.44H119.105ZM119.105 27.528C119.105 26.2056 119.431 25.2927 120.006 24.7082C120.58 24.1248 121.476 23.7958 122.773 23.7958V22.9402C121.34 22.9402 120.187 23.3045 119.396 24.1078C118.607 24.9099 118.249 26.077 118.249 27.528H119.105ZM122.773 23.7958C124.048 23.7958 124.926 24.1238 125.49 24.7057C126.056 25.2902 126.377 26.204 126.377 27.528H127.233C127.233 26.0787 126.882 24.9125 126.104 24.1102C125.324 23.3055 124.187 22.9402 122.773 22.9402V23.7958ZM126.377 27.528V50.504H127.233V27.528H126.377ZM126.377 50.504C126.377 56.7503 124.795 61.4036 121.701 64.5395L122.31 65.1405C125.615 61.791 127.233 56.887 127.233 50.504H126.377ZM121.703 64.5375C118.609 67.6309 114.021 69.2122 107.861 69.2122V70.0678C114.16 70.0678 119.001 68.4491 122.308 65.1425L121.703 64.5375ZM176.999 29.704L176.705 30.0145L176.707 30.016L176.999 29.704ZM176.999 63.112L176.705 62.8016L176.703 62.8031L176.999 63.112ZM150.951 62.216H150.523V62.6438H150.951V62.216ZM150.951 30.664V30.2362H150.523V30.664H150.951ZM147.111 68.5722C145.727 68.5722 144.767 68.2263 144.15 67.6095C143.533 66.9927 143.187 66.0327 143.187 64.648H142.331C142.331 66.1646 142.711 67.3807 143.545 68.2145C144.379 69.0484 145.595 69.4278 147.111 69.4278V68.5722ZM143.187 64.648V28.232H142.331V64.648H143.187ZM143.187 28.232C143.187 26.8473 143.533 25.8873 144.15 25.2705C144.767 24.6537 145.727 24.3078 147.111 24.3078V23.4522C145.595 23.4522 144.379 23.8316 143.545 24.6655C142.711 25.4993 142.331 26.7154 142.331 28.232H143.187ZM147.111 24.3078H159.527V23.4522H147.111V24.3078ZM159.527 24.3078C167.008 24.3078 172.712 26.2297 176.705 30.0145L177.294 29.3935C173.094 25.4129 167.151 23.4522 159.527 23.4522V24.3078ZM176.707 30.016C180.737 33.7967 182.779 39.238 182.779 46.408H183.635C183.635 39.0713 181.539 33.3766 177.292 29.392L176.707 30.016ZM182.779 46.408C182.779 53.5342 180.737 58.9772 176.705 62.8016L177.294 63.4224C181.539 59.3961 183.635 53.7032 183.635 46.408H182.779ZM176.703 62.8031C172.71 66.6296 167.006 68.5722 159.527 68.5722V69.4278C167.152 69.4278 173.096 67.4451 177.295 63.4209L176.703 62.8031ZM159.527 68.5722H147.111V69.4278H159.527V68.5722ZM150.951 62.6438H159.015V61.7882H150.951V62.6438ZM159.015 62.6438C164.288 62.6438 168.321 61.309 171.032 58.5647C173.742 55.8213 175.059 51.742 175.059 46.408H174.203C174.203 51.6127 172.918 55.4374 170.423 57.9633C167.929 60.4883 164.153 61.7882 159.015 61.7882V62.6438ZM175.059 46.408C175.059 41.0949 173.741 37.0314 171.031 34.2987C168.32 31.5654 164.287 30.2362 159.015 30.2362V31.0918C164.154 31.0918 167.929 32.3866 170.424 34.9013C172.918 37.4166 174.203 41.2251 174.203 46.408H175.059ZM159.015 30.2362H150.951V31.0918H159.015V30.2362ZM150.523 30.664V62.216H151.379V30.664H150.523ZM206.933 66.824L206.727 67.1989L206.729 67.1999L206.933 66.824ZM199.125 58.824L198.745 59.0209L199.125 58.824ZM199.189 34.184L199.567 34.3846L199.568 34.3827L199.189 34.184ZM207.125 26.12L207.329 26.496L207.333 26.494L207.125 26.12ZM226.709 24.136L226.605 24.5511L226.614 24.5531L226.709 24.136ZM233.557 27.016L233.327 27.3763L233.333 27.3804L233.34 27.3843L233.557 27.016ZM235.157 29.256L234.733 29.3138L234.735 29.325L234.737 29.336L235.157 29.256ZM234.773 31.816L235.152 32.0153L234.773 31.816ZM232.853 33.544L232.995 33.9478L233.003 33.9447L233.012 33.9412L232.853 33.544ZM230.037 33.096L230.253 32.7265L230.252 32.7257L230.037 33.096ZM225.109 31.048L225.216 30.6336L225.109 31.048ZM208.661 34.568L208.342 34.2831L208.34 34.2859L208.661 34.568ZM208.789 58.504L208.475 58.794L208.789 58.504ZM224.277 62.28L224.34 62.7034L224.35 62.7017L224.277 62.28ZM228.693 61.192L228.825 61.599L229.121 61.5032V61.192H228.693ZM228.693 50.696H229.121V50.2682H228.693V50.696ZM233.237 67.272L233.092 66.8696L233.091 66.8699L233.237 67.272ZM226.773 69L226.847 69.4214L226.854 69.4201L226.773 69ZM219.605 69.2122C214.666 69.2122 210.516 68.2834 207.137 66.4481L206.729 67.1999C210.262 69.1193 214.561 70.0678 219.605 70.0678V69.2122ZM207.139 66.4491C203.8 64.6126 201.258 62.0078 199.505 58.6271L198.745 59.0209C200.576 62.5522 203.24 65.2807 206.727 67.1989L207.139 66.4491ZM199.505 58.6271C197.751 55.2437 196.865 51.2181 196.865 46.536H196.009C196.009 51.3259 196.916 55.4923 198.745 59.0209L199.505 58.6271ZM196.865 46.536C196.865 41.812 197.772 37.7666 199.567 34.3846L198.811 33.9834C196.937 37.5134 196.009 41.7027 196.009 46.536H196.865ZM199.568 34.3827C201.364 30.9587 203.948 28.3326 207.329 26.4959L206.921 25.7441C203.39 27.6621 200.684 30.4119 198.81 33.9853L199.568 34.3827ZM207.333 26.494C210.713 24.6163 214.777 23.6678 219.541 23.6678V22.8122C214.663 22.8122 210.45 23.7837 206.917 25.746L207.333 26.494ZM219.541 23.6678C221.895 23.6678 224.249 23.9619 226.605 24.551L226.813 23.721C224.391 23.1154 221.967 22.8122 219.541 22.8122V23.6678ZM226.614 24.5531C228.997 25.0966 231.234 26.0372 233.327 27.3763L233.788 26.6557C231.614 25.2641 229.285 24.2847 226.804 23.7189L226.614 24.5531ZM233.34 27.3843C234.185 27.8838 234.626 28.5253 234.733 29.3138L235.581 29.1982C235.433 28.1094 234.807 27.2576 233.775 26.6477L233.34 27.3843ZM234.737 29.336C234.889 30.1365 234.776 30.8914 234.395 31.6167L235.152 32.0153C235.623 31.1193 235.766 30.1675 235.578 29.1759L234.737 29.336ZM234.395 31.6167C234.016 32.3371 233.454 32.8431 232.694 33.1468L233.012 33.9412C233.96 33.5622 234.678 32.9162 235.152 32.0153L234.395 31.6167ZM232.712 33.1402C232.011 33.3855 231.205 33.2816 230.253 32.7265L229.822 33.4655C230.918 34.105 231.989 34.2999 232.995 33.9478L232.712 33.1402ZM230.252 32.7257C228.599 31.7693 226.921 31.0708 225.216 30.6336L225.003 31.4624C226.626 31.8785 228.232 32.5454 229.823 33.4662L230.252 32.7257ZM225.216 30.6336C223.511 30.1965 221.618 29.9802 219.541 29.9802V30.8358C221.56 30.8358 223.38 31.0462 225.003 31.4624L225.216 30.6336ZM219.541 29.9802C214.678 29.9802 210.92 31.3944 208.342 34.2832L208.98 34.8528C211.352 32.1949 214.847 30.8358 219.541 30.8358V29.9802ZM208.34 34.2859C205.816 37.1641 204.585 41.2692 204.585 46.536H205.441C205.441 41.3921 206.643 37.5185 208.983 34.8501L208.34 34.2859ZM204.585 46.536C204.585 51.8471 205.859 55.9568 208.475 58.794L209.104 58.214C206.685 55.5898 205.441 51.7209 205.441 46.536H204.585ZM208.475 58.794C211.097 61.639 214.962 63.0278 219.989 63.0278V62.1722C215.118 62.1722 211.516 60.8303 209.104 58.214L208.475 58.794ZM219.989 63.0278C221.419 63.0278 222.869 62.9195 224.339 62.7033L224.215 61.8567C222.784 62.0672 221.376 62.1722 219.989 62.1722V63.0278ZM224.35 62.7017C225.863 62.4422 227.355 62.0746 228.825 61.599L228.562 60.785C227.13 61.248 225.678 61.6058 224.205 61.8583L224.35 62.7017ZM229.121 61.192V50.696H228.265V61.192H229.121ZM228.693 50.2682H221.653V51.1238H228.693V50.2682ZM221.653 50.2682C220.602 50.2682 219.893 50.0248 219.447 49.6136C219.008 49.2084 218.753 48.5729 218.753 47.624H217.897C217.897 48.7231 218.197 49.6236 218.867 50.2424C219.531 50.8552 220.486 51.1238 221.653 51.1238V50.2682ZM218.753 47.624C218.753 46.6991 219.007 46.0806 219.444 45.6854C219.89 45.2828 220.6 45.0438 221.653 45.0438V44.1882C220.488 44.1882 219.534 44.4505 218.87 45.0506C218.198 45.6581 217.897 46.5436 217.897 47.624H218.753ZM221.653 45.0438H232.213V44.1882H221.653V45.0438ZM232.213 45.0438C233.257 45.0438 233.961 45.3044 234.407 45.7505C234.853 46.1967 235.113 46.9006 235.113 47.944H235.969C235.969 46.7687 235.675 45.8087 235.012 45.1455C234.349 44.4823 233.389 44.1882 232.213 44.1882V45.0438ZM235.113 47.944V63.496H235.969V47.944H235.113ZM235.113 63.496C235.113 64.424 234.932 65.1457 234.6 65.6892C234.272 66.2263 233.779 66.6216 233.092 66.8696L233.383 67.6744C234.232 67.3678 234.89 66.8563 235.33 66.1348C235.767 65.4197 235.969 64.5306 235.969 63.496H235.113ZM233.091 66.8699C231.239 67.5433 229.107 68.1139 226.692 68.5799L226.854 69.4201C229.303 68.9474 231.481 68.366 233.383 67.6741L233.091 66.8699ZM226.699 68.5786C224.29 69.0012 221.926 69.2122 219.605 69.2122V70.0678C221.978 70.0678 224.392 69.8521 226.847 69.4214L226.699 68.5786ZM259.306 30.408V29.9802H258.878V30.408H259.306ZM259.306 42.824H258.878V43.2518H259.306V42.824ZM259.306 49.352V48.9242H258.878V49.352H259.306ZM259.306 62.472H258.878V62.8998H259.306V62.472ZM255.786 68.5722C254.402 68.5722 253.442 68.2263 252.825 67.6095C252.208 66.9927 251.862 66.0327 251.862 64.648H251.006C251.006 66.1646 251.386 67.3807 252.22 68.2145C253.054 69.0484 254.27 69.4278 255.786 69.4278V68.5722ZM251.862 64.648V28.232H251.006V64.648H251.862ZM251.862 28.232C251.862 26.8473 252.208 25.8873 252.825 25.2705C253.442 24.6537 254.402 24.3078 255.786 24.3078V23.4522C254.27 23.4522 253.054 23.8316 252.22 24.6655C251.386 25.4993 251.006 26.7154 251.006 28.232H251.862ZM255.786 24.3078H278.634V23.4522H255.786V24.3078ZM278.634 24.3078C279.682 24.3078 280.388 24.5599 280.834 24.9884C281.276 25.4139 281.534 26.0836 281.534 27.08H282.39C282.39 25.943 282.094 25.0128 281.427 24.3716C280.763 23.7335 279.805 23.4522 278.634 23.4522V24.3078ZM281.534 27.08C281.534 28.1234 281.274 28.8273 280.828 29.2735C280.382 29.7196 279.678 29.9802 278.634 29.9802V30.8358C279.81 30.8358 280.77 30.5417 281.433 29.8785C282.096 29.2153 282.39 28.2553 282.39 27.08H281.534ZM278.634 29.9802H259.306V30.8358H278.634V29.9802ZM258.878 30.408V42.824H259.734V30.408H258.878ZM259.306 43.2518H277.226V42.3962H259.306V43.2518ZM277.226 43.2518C278.272 43.2518 278.977 43.5081 279.423 43.9454C279.867 44.3812 280.126 45.0681 280.126 46.088H280.982C280.982 44.9319 280.687 43.9868 280.022 43.3346C279.358 42.6839 278.399 42.3962 277.226 42.3962V43.2518ZM280.126 46.088C280.126 47.1079 279.867 47.7948 279.423 48.2306C278.977 48.6679 278.272 48.9242 277.226 48.9242V49.7798C278.399 49.7798 279.358 49.4921 280.022 48.8414C280.687 48.1892 280.982 47.2441 280.982 46.088H280.126ZM277.226 48.9242H259.306V49.7798H277.226V48.9242ZM258.878 49.352V62.472H259.734V49.352H258.878ZM259.306 62.8998H278.634V62.0442H259.306V62.8998ZM278.634 62.8998C279.68 62.8998 280.385 63.1561 280.831 63.5934C281.275 64.0292 281.534 64.7161 281.534 65.736H282.39C282.39 64.5799 282.095 63.6348 281.43 62.9826C280.766 62.3319 279.807 62.0442 278.634 62.0442V62.8998ZM281.534 65.736C281.534 66.7559 281.275 67.4428 280.831 67.8786C280.385 68.3159 279.68 68.5722 278.634 68.5722V69.4278C279.807 69.4278 280.766 69.1401 281.43 68.4894C282.095 67.8372 282.39 66.8921 282.39 65.736H281.534ZM278.634 68.5722H255.786V69.4278H278.634V68.5722ZM302.565 68.68L302.466 69.0962L302.467 69.0965L302.565 68.68ZM295.525 65.8L295.291 66.1584L295.295 66.1606L295.525 65.8ZM293.925 60.808L293.535 60.6324L293.53 60.642L293.925 60.808ZM295.653 59.08L295.808 59.4789L295.819 59.4743L295.653 59.08ZM298.405 59.528L298.178 59.8909L298.187 59.8963L298.405 59.528ZM318.309 61.064L318.559 61.4109L318.565 61.4063L318.309 61.064ZM318.949 53.128L318.681 53.4621L318.688 53.4671L318.949 53.128ZM313.381 51.016L313.469 50.5973L313.468 50.5972L313.381 51.016ZM306.341 49.544L306.252 49.9625L306.253 49.9628L306.341 49.544ZM296.549 29.832L296.201 29.5833L296.549 29.832ZM302.757 24.968L302.586 24.5758L302.757 24.968ZM319.205 24.2L319.319 23.7878L319.205 24.2ZM325.413 27.016L325.658 26.6655L325.652 26.6613L325.413 27.016ZM326.949 29.256L326.528 29.3361L326.529 29.3399L326.949 29.256ZM326.629 31.688L327.007 31.8882L327.011 31.8793L326.629 31.688ZM324.773 33.224L324.902 33.6322L324.914 33.6278L324.773 33.224ZM321.893 32.648L322.107 32.2774L322.104 32.2759L321.893 32.648ZM317.093 30.728L316.994 31.1443L317.093 30.728ZM304.933 32.008L305.188 32.3513V32.3513L304.933 32.008ZM303.973 40.584L303.684 40.8995L303.691 40.906L303.973 40.584ZM309.221 42.696L309.309 42.2774L309.307 42.2771L309.221 42.696ZM316.197 44.168L316.286 43.7495L316.285 43.7494L316.197 44.168ZM325.605 48.392L325.312 48.7041L325.315 48.7071L325.605 48.392ZM326.565 63.176L326.216 62.9287L326.565 63.176ZM320.357 67.976L320.522 68.3705L320.525 68.3692L320.357 67.976ZM310.949 69.2122C308.122 69.2122 305.36 68.8958 302.662 68.2635L302.467 69.0965C305.23 69.7442 308.058 70.0678 310.949 70.0678V69.2122ZM302.664 68.2638C300.015 67.6331 297.714 66.6899 295.755 65.4394L295.295 66.1606C297.346 67.4701 299.739 68.4469 302.466 69.0962L302.664 68.2638ZM295.758 65.4417C294.849 64.8484 294.334 64.1449 294.15 63.3372L293.316 63.5268C293.559 64.5964 294.238 65.4716 295.291 66.1583L295.758 65.4417ZM294.15 63.3372C293.954 62.4771 294.016 61.6945 294.319 60.974L293.53 60.642C293.151 61.5429 293.084 62.5096 293.316 63.5268L294.15 63.3372ZM294.315 60.9836C294.66 60.2175 295.159 59.7311 295.808 59.4787L295.498 58.6813C294.611 59.0262 293.958 59.6918 293.535 60.6324L294.315 60.9836ZM295.819 59.4743C296.457 59.2056 297.224 59.2947 298.178 59.8908L298.632 59.1652C297.537 58.4813 296.47 58.2717 295.487 58.6857L295.819 59.4743ZM298.187 59.8963C300.1 61.0267 302.123 61.8534 304.255 62.3755L304.459 61.5445C302.409 61.0426 300.464 60.248 298.622 59.1597L298.187 59.8963ZM304.255 62.3755C306.381 62.8962 308.613 63.1558 310.949 63.1558V62.3002C308.677 62.3002 306.514 62.0477 304.459 61.5445L304.255 62.3755ZM310.949 63.1558C314.348 63.1558 316.913 62.6001 318.559 61.4108L318.058 60.7172C316.633 61.7466 314.291 62.3002 310.949 62.3002V63.1558ZM318.565 61.4063C320.2 60.1802 321.041 58.5855 321.041 56.648H320.185C320.185 58.2945 319.489 59.6438 318.052 60.7217L318.565 61.4063ZM321.041 56.648C321.041 55.0322 320.432 53.7293 319.21 52.7889L318.688 53.4671C319.684 54.2334 320.185 55.2772 320.185 56.648H321.041ZM319.216 52.7939C318.067 51.8748 316.127 51.1548 313.469 50.5973L313.293 51.4347C315.925 51.9866 317.697 52.6745 318.681 53.4621L319.216 52.7939ZM313.468 50.5972L306.428 49.1252L306.253 49.9628L313.293 51.4348L313.468 50.5972ZM306.43 49.1255C302.468 48.2826 299.549 46.8548 297.623 44.8775C295.706 42.9097 294.737 40.3609 294.737 37.192H293.881C293.881 40.5511 294.916 43.3249 297.01 45.4745C299.095 47.6145 302.192 49.0987 306.252 49.9625L306.43 49.1255ZM294.737 37.192C294.737 34.4562 295.46 32.0918 296.897 30.0807L296.201 29.5833C294.65 31.7536 293.881 34.2958 293.881 37.192H294.737ZM296.897 30.0807C298.34 28.0605 300.344 26.4852 302.928 25.3602L302.586 24.5758C299.879 25.7548 297.744 27.4221 296.201 29.5833L296.897 30.0807ZM302.928 25.3602C305.509 24.2359 308.5 23.6678 311.909 23.6678V22.8122C308.405 22.8122 305.295 23.3961 302.586 24.5758L302.928 25.3602ZM311.909 23.6678C314.433 23.6678 316.826 23.9833 319.09 24.6122L319.319 23.7878C316.975 23.1367 314.505 22.8122 311.909 22.8122V23.6678ZM319.09 24.6122C321.353 25.2409 323.38 26.1611 325.174 27.3707L325.652 26.6613C323.776 25.3962 321.664 24.4391 319.319 23.7878L319.09 24.6122ZM325.167 27.3665C325.943 27.9097 326.382 28.5653 326.528 29.336L327.369 29.1759C327.174 28.1547 326.589 27.3169 325.658 26.6655L325.167 27.3665ZM326.529 29.3399C326.682 30.1013 326.587 30.815 326.246 31.4967L327.011 31.8793C327.439 31.025 327.557 30.1174 327.368 29.1721L326.529 29.3399ZM326.251 31.4878C325.922 32.1079 325.394 32.5532 324.631 32.8202L324.914 33.6278C325.858 33.2974 326.567 32.7188 327.007 31.8882L326.251 31.4878ZM324.644 32.816C323.995 33.021 323.165 32.8878 322.107 32.2774L321.679 33.0186C322.84 33.6882 323.929 33.939 324.902 33.632L324.644 32.816ZM322.104 32.2759C320.493 31.3617 318.855 30.7058 317.191 30.3117L316.994 31.1443C318.573 31.5182 320.135 32.1423 321.682 33.0201L322.104 32.2759ZM317.191 30.3117C315.534 29.9191 313.751 29.7242 311.845 29.7242V30.5798C313.693 30.5798 315.409 30.7688 316.994 31.1443L317.191 30.3117ZM311.845 29.7242C308.846 29.7242 306.441 30.3537 304.677 31.6647L305.188 32.3513C306.753 31.1876 308.955 30.5798 311.845 30.5798V29.7242ZM304.677 31.6647C302.909 32.9795 302.009 34.7261 302.009 36.872H302.865C302.865 35.0073 303.628 33.5112 305.188 32.3513L304.677 31.6647ZM302.009 36.872C302.009 38.5138 302.561 39.8706 303.684 40.8994L304.262 40.2686C303.336 39.4201 302.865 38.3022 302.865 36.872H302.009ZM303.691 40.906C304.8 41.8766 306.639 42.5988 309.134 43.1149L309.307 42.2771C306.853 41.7692 305.193 41.0834 304.254 40.262L303.691 40.906ZM309.132 43.1146L316.108 44.5866L316.285 43.7494L309.309 42.2774L309.132 43.1146ZM316.108 44.5865C320.293 45.4743 323.344 46.8589 325.312 48.7041L325.897 48.0799C323.77 46.0851 320.548 44.6537 316.286 43.7495L316.108 44.5865ZM325.315 48.7071C327.306 50.5353 328.313 52.9749 328.313 56.072H329.169C329.169 52.7691 328.085 50.0887 325.894 48.0769L325.315 48.7071ZM328.313 56.072C328.313 58.6781 327.611 60.9582 326.216 62.9287L326.914 63.4233C328.419 61.2978 329.169 58.8419 329.169 56.072H328.313ZM326.216 62.9287C324.818 64.9023 322.816 66.4566 320.188 67.5828L320.525 68.3692C323.274 67.1914 325.411 65.5457 326.914 63.4233L326.216 62.9287ZM320.191 67.5815C317.61 68.6639 314.533 69.2122 310.949 69.2122V70.0678C314.618 70.0678 317.813 69.5068 320.522 68.3705L320.191 67.5815Z" fill="#0EB29F"/>
<path d="M159 88H222.03" stroke="#248A82" stroke-width="4" stroke-linecap="round"/>
</svg>
