<svg width="442" height="91" viewBox="0 0 442 91" fill="none" xmlns="http://www.w3.org/2000/svg">
<path d="M26.5432 10.098L26.1702 10.6202L26.1911 10.6351L26.213 10.6483L26.5432 10.098ZM27.4612 11.186L26.8922 11.4829L26.8968 11.4913L27.4612 11.186ZM35.3152 25.704L34.7508 26.0093L35.3152 27.0527L35.8796 26.0093L35.3152 25.704ZM43.1692 11.186L43.7337 11.4914L43.7382 11.4828L43.1692 11.186ZM44.0532 10.098L44.4002 10.6378L44.4134 10.6293L44.4262 10.6202L44.0532 10.098ZM43.4072 17.85H44.0489L42.8445 17.5416L43.4072 17.85ZM37.0152 29.512L37.5683 29.8374L37.5733 29.829L37.578 29.8204L37.0152 29.512ZM36.3012 30.362L36.6787 30.881L36.6787 30.881L36.3012 30.362ZM34.2272 30.362L33.8422 30.8754L33.8564 30.8861L33.8712 30.896L34.2272 30.362ZM33.5132 29.512L32.9512 29.8218L32.9539 29.8266L33.5132 29.512ZM27.1212 17.918L27.6832 17.6082L26.4795 17.918H27.1212ZM25.1492 33.6303C24.5964 33.6303 24.2984 33.4885 24.1316 33.316C23.9609 33.1394 23.8189 32.8184 23.8189 32.232H22.5355C22.5355 33.0056 22.7222 33.7046 23.2088 34.208C23.6994 34.7155 24.3873 34.9137 25.1492 34.9137V33.6303ZM23.8189 32.232V11.798H22.5355V32.232H23.8189ZM23.8189 11.798C23.8189 11.2169 23.9638 10.899 24.141 10.7218C24.3182 10.5446 24.6361 10.3997 25.2172 10.3997V9.11627C24.4383 9.11627 23.7362 9.31143 23.2334 9.81423C22.7306 10.317 22.5355 11.0191 22.5355 11.798H23.8189ZM25.2172 10.3997C25.7081 10.3997 26.0009 10.4993 26.1702 10.6202L26.9162 9.5758C26.4508 9.24338 25.8596 9.11627 25.2172 9.11627V10.3997ZM26.213 10.6483C26.4139 10.7688 26.6503 11.019 26.8923 11.4828L28.0302 10.8892C27.7281 10.3103 27.3525 9.83518 26.8734 9.54772L26.213 10.6483ZM26.8968 11.4913L34.7508 26.0093L35.8796 25.3987L28.0256 10.8807L26.8968 11.4913ZM35.8796 26.0093L43.7336 11.4913L42.6048 10.8807L34.7508 25.3987L35.8796 26.0093ZM43.7382 11.4828C43.9848 11.0101 44.2151 10.7568 44.4002 10.6378L43.7062 9.55819C43.2567 9.84717 42.8976 10.3193 42.6003 10.8892L43.7382 11.4828ZM44.4262 10.6202C44.5955 10.4993 44.8883 10.3997 45.3792 10.3997V9.11627C44.7368 9.11627 44.1456 9.24338 43.6802 9.5758L44.4262 10.6202ZM45.3792 10.3997C45.932 10.3997 46.23 10.5415 46.3968 10.714C46.5675 10.8906 46.7095 11.2116 46.7095 11.798H47.9929C47.9929 11.0244 47.8063 10.3254 47.3196 9.82198C46.8291 9.31451 46.1411 9.11627 45.3792 9.11627V10.3997ZM46.7095 11.798V32.232H47.9929V11.798H46.7095ZM46.7095 32.232C46.7095 32.8184 46.5675 33.1394 46.3968 33.316C46.23 33.4885 45.932 33.6303 45.3792 33.6303V34.9137C46.1411 34.9137 46.8291 34.7155 47.3196 34.208C47.8063 33.7046 47.9929 33.0056 47.9929 32.232H46.7095ZM45.3792 33.6303C44.8264 33.6303 44.5284 33.4885 44.3616 33.316C44.1909 33.1394 44.0489 32.8184 44.0489 32.232H42.7655C42.7655 33.0056 42.9522 33.7046 43.4388 34.208C43.9294 34.7155 44.6173 34.9137 45.3792 34.9137V33.6303ZM44.0489 32.232V17.85H42.7655V32.232H44.0489ZM42.8445 17.5416L36.4525 29.2036L37.578 29.8204L43.97 18.1584L42.8445 17.5416ZM36.4621 29.1866C36.2616 29.5275 36.0774 29.7313 35.9238 29.843L36.6787 30.881C37.0237 30.63 37.3155 30.2672 37.5683 29.8374L36.4621 29.1866ZM35.9238 29.843C35.82 29.9185 35.6286 29.9923 35.2812 29.9923V31.2757C35.7951 31.2757 36.2838 31.1682 36.6787 30.881L35.9238 29.843ZM35.2812 29.9923C34.9377 29.9923 34.7211 29.92 34.5832 29.828L33.8712 30.896C34.2774 31.1667 34.7634 31.2757 35.2812 31.2757V29.9923ZM34.6123 29.8486C34.4256 29.7086 34.2424 29.4994 34.0725 29.1974L32.9539 29.8266C33.192 30.25 33.4848 30.6074 33.8422 30.8754L34.6123 29.8486ZM34.0752 29.2022L27.6832 17.6082L26.5592 18.2278L32.9512 29.8218L34.0752 29.2022ZM26.4795 17.918V32.232H27.7629V17.918H26.4795ZM26.4795 32.232C26.4795 32.8184 26.3375 33.1394 26.1668 33.316C26 33.4885 25.702 33.6303 25.1492 33.6303V34.9137C25.9111 34.9137 26.5991 34.7155 27.0896 34.208C27.5763 33.7046 27.7629 33.0056 27.7629 32.232H26.4795ZM60.2088 13.498V12.8563H59.5671V13.498H60.2088ZM60.2088 20.094H59.5671V20.7357H60.2088V20.094ZM60.2088 23.562V22.9203H59.5671V23.562H60.2088ZM60.2088 30.532H59.5671V31.1737H60.2088V30.532ZM58.3388 33.3583C57.667 33.3583 57.2811 33.1908 57.0586 32.9682C56.836 32.7457 56.6685 32.3597 56.6685 31.688H55.3851C55.3851 32.5576 55.6029 33.3276 56.151 33.8758C56.6991 34.4239 57.4692 34.6417 58.3388 34.6417V33.3583ZM56.6685 31.688V12.342H55.3851V31.688H56.6685ZM56.6685 12.342C56.6685 11.6703 56.836 11.2843 57.0586 11.0618C57.2811 10.8392 57.667 10.6717 58.3388 10.6717V9.38827C57.4692 9.38827 56.6991 9.6061 56.151 10.1542C55.6029 10.7024 55.3851 11.4724 55.3851 12.342H56.6685ZM58.3388 10.6717H70.4768V9.38827H58.3388V10.6717ZM70.4768 10.6717C70.9734 10.6717 71.2268 10.7915 71.358 10.9176C71.4845 11.0392 71.6031 11.2688 71.6031 11.73H72.8865C72.8865 11.0579 72.7104 10.4375 72.2476 9.99242C71.7894 9.55188 71.1589 9.38827 70.4768 9.38827V10.6717ZM71.6031 11.73C71.6031 12.2204 71.4809 12.4704 71.349 12.6022C71.2171 12.7341 70.9672 12.8563 70.4768 12.8563V14.1397C71.165 14.1397 71.7991 13.9672 72.2566 13.5098C72.714 13.0523 72.8865 12.4183 72.8865 11.73H71.6031ZM70.4768 12.8563H60.2088V14.1397H70.4768V12.8563ZM59.5671 13.498V20.094H60.8505V13.498H59.5671ZM60.2088 20.7357H69.7288V19.4523H60.2088V20.7357ZM69.7288 20.7357C70.2223 20.7357 70.474 20.8567 70.6054 20.9857C70.7346 21.1123 70.8551 21.3521 70.8551 21.828H72.1385C72.1385 21.1479 71.9643 20.5207 71.5041 20.0693C71.0463 19.6203 70.4139 19.4523 69.7288 19.4523V20.7357ZM70.8551 21.828C70.8551 22.3039 70.7346 22.5437 70.6054 22.6703C70.474 22.7993 70.2223 22.9203 69.7288 22.9203V24.2037C70.4139 24.2037 71.0463 24.0357 71.5041 23.5867C71.9643 23.1353 72.1385 22.5081 72.1385 21.828H70.8551ZM69.7288 22.9203H60.2088V24.2037H69.7288V22.9203ZM59.5671 23.562V30.532H60.8505V23.562H59.5671ZM60.2088 31.1737H70.4768V29.8903H60.2088V31.1737ZM70.4768 31.1737C70.9703 31.1737 71.222 31.2947 71.3534 31.4237C71.4826 31.5503 71.6031 31.7901 71.6031 32.266H72.8865C72.8865 31.5859 72.7123 30.9587 72.2521 30.5073C71.7943 30.0583 71.1619 29.8903 70.4768 29.8903V31.1737ZM71.6031 32.266C71.6031 32.7419 71.4826 32.9817 71.3534 33.1083C71.222 33.2373 70.9703 33.3583 70.4768 33.3583V34.6417C71.1619 34.6417 71.7943 34.4737 72.2521 34.0247C72.7123 33.5733 72.8865 32.9461 72.8865 32.266H71.6031ZM70.4768 33.3583H58.3388V34.6417H70.4768V33.3583ZM97.9039 13.124L97.4624 13.5897L97.4648 13.592L97.9039 13.124ZM97.9039 30.872L97.4623 30.4064L97.4599 30.4087L97.9039 30.872ZM84.0659 30.396H83.4242V31.0377H84.0659V30.396ZM84.0659 13.634V12.9923H83.4242V13.634H84.0659ZM82.0259 33.3583C81.3542 33.3583 80.9682 33.1908 80.7457 32.9682C80.5231 32.7457 80.3556 32.3597 80.3556 31.688H79.0722C79.0722 32.5576 79.29 33.3276 79.8381 33.8758C80.3863 34.4239 81.1563 34.6417 82.0259 34.6417V33.3583ZM80.3556 31.688V12.342H79.0722V31.688H80.3556ZM80.3556 12.342C80.3556 11.6703 80.5231 11.2843 80.7457 11.0618C80.9682 10.8392 81.3542 10.6717 82.0259 10.6717V9.38827C81.1563 9.38827 80.3863 9.6061 79.8381 10.1542C79.29 10.7024 79.0722 11.4724 79.0722 12.342H80.3556ZM82.0259 10.6717H88.6219V9.38827H82.0259V10.6717ZM88.6219 10.6717C92.5265 10.6717 95.4413 11.6739 97.4624 13.5897L98.3454 12.6583C96.0145 10.4488 92.7413 9.38827 88.6219 9.38827V10.6717ZM97.4648 13.592C99.5005 15.5017 100.56 18.2697 100.56 21.998H101.844C101.844 18.0196 100.705 14.8716 98.343 12.656L97.4648 13.592ZM100.56 21.998C100.56 25.7019 99.5013 28.4724 97.4623 30.4064L98.3455 31.3376C100.704 29.1009 101.844 25.9554 101.844 21.998H100.56ZM97.4599 30.4087C95.4386 32.3457 92.5247 33.3583 88.6219 33.3583V34.6417C92.7431 34.6417 96.0172 33.5689 98.3479 31.3353L97.4599 30.4087ZM88.6219 33.3583H82.0259V34.6417H88.6219V33.3583ZM84.0659 31.0377H88.3499V29.7543H84.0659V31.0377ZM88.3499 31.0377C91.2161 31.0377 93.4833 30.3117 95.0284 28.7475C96.5722 27.1848 97.2876 24.8943 97.2876 21.998H96.0042C96.0042 24.7004 95.337 26.6089 94.1154 27.8455C92.8952 29.0807 91.0143 29.7543 88.3499 29.7543V31.0377ZM97.2876 21.998C97.2876 19.1124 96.5718 16.8301 95.0275 15.2731C93.4823 13.7151 91.2155 12.9923 88.3499 12.9923V14.2757C91.015 14.2757 92.8962 14.9469 94.1163 16.1769C95.3373 17.4079 96.0042 19.3076 96.0042 21.998H97.2876ZM88.3499 12.9923H84.0659V14.2757H88.3499V12.9923ZM83.4242 13.634V30.396H84.7076V13.634H83.4242ZM111.188 33.6303C110.567 33.6303 110.218 33.4712 110.017 33.2643C109.813 33.0536 109.654 32.6819 109.654 32.028H108.371C108.371 32.8701 108.575 33.6204 109.096 34.1577C109.62 34.6988 110.359 34.9137 111.188 34.9137V33.6303ZM109.654 32.028V12.002H108.371V32.028H109.654ZM109.654 12.002C109.654 11.3481 109.813 10.9764 110.017 10.7657C110.218 10.5588 110.567 10.3997 111.188 10.3997V9.11627C110.359 9.11627 109.62 9.33121 109.096 9.87226C108.575 10.4096 108.371 11.1599 108.371 12.002H109.654ZM111.188 10.3997C111.81 10.3997 112.159 10.5588 112.36 10.7657C112.564 10.9764 112.723 11.3481 112.723 12.002H114.006C114.006 11.1599 113.802 10.4096 113.281 9.87226C112.756 9.33121 112.018 9.11627 111.188 9.11627V10.3997ZM112.723 12.002V32.028H114.006V12.002H112.723ZM112.723 32.028C112.723 32.6819 112.564 33.0536 112.36 33.2643C112.159 33.4712 111.81 33.6303 111.188 33.6303V34.9137C112.018 34.9137 112.756 34.6988 113.281 34.1577C113.802 33.6204 114.006 32.8701 114.006 32.028H112.723ZM120.546 33.456L120.002 33.7961L120.546 33.456ZM120.58 31.484L121.161 31.7573L121.165 31.748L120.58 31.484ZM129.556 11.594L130.141 11.858L130.142 11.8565L129.556 11.594ZM130.61 10.2L130.966 10.734L130.972 10.7296L130.61 10.2ZM133.466 10.2L133.09 10.7202L133.106 10.7319L133.123 10.7426L133.466 10.2ZM134.554 11.594L133.968 11.8565L133.969 11.8588L134.554 11.594ZM143.564 31.484L142.979 31.7488L142.98 31.7508L143.564 31.484ZM143.632 33.49L144.18 33.8237L144.186 33.8134L143.632 33.49ZM140.504 33.83L140.066 34.2991L140.082 34.3142L140.099 34.3281L140.504 33.83ZM139.586 32.402L140.176 32.1492L140.175 32.148L139.586 32.402ZM137.886 28.458L138.475 28.204L138.308 27.8163H137.886V28.458ZM126.19 28.458V27.8163H125.764L125.599 28.2083L126.19 28.458ZM124.524 32.402L125.11 32.6646L125.115 32.6517L124.524 32.402ZM123.606 33.83L123.169 33.3597L123.169 33.3597L123.606 33.83ZM132.004 14.756V14.1143H131.578L131.413 14.5065L132.004 14.756ZM127.686 24.99L127.095 24.7405L126.719 25.6317H127.686V24.99ZM136.39 24.99V25.6317H137.357L136.981 24.7405L136.39 24.99ZM132.072 14.756L132.663 14.5065L132.498 14.1143H132.072V14.756ZM122.246 33.6303C121.614 33.6303 121.284 33.4263 121.09 33.1159L120.002 33.7961C120.488 34.5737 121.292 34.9137 122.246 34.9137V33.6303ZM121.09 33.1159C120.903 32.8157 120.857 32.4028 121.161 31.7572L119.999 31.2108C119.578 32.1065 119.509 33.0083 120.002 33.7961L121.09 33.1159ZM121.165 31.748L130.141 11.858L128.971 11.33L119.995 31.22L121.165 31.748ZM130.142 11.8565C130.409 11.2608 130.695 10.9145 130.966 10.734L130.254 9.66605C129.709 10.0295 129.293 10.6125 128.97 11.3315L130.142 11.8565ZM130.972 10.7296C131.292 10.5112 131.652 10.3997 132.072 10.3997V9.11627C131.405 9.11627 130.79 9.29945 130.248 9.67037L130.972 10.7296ZM132.072 10.3997C132.464 10.3997 132.796 10.5075 133.09 10.7202L133.842 9.67976C133.32 9.30314 132.723 9.11627 132.072 9.11627V10.3997ZM133.123 10.7426C133.412 10.9246 133.705 11.2686 133.968 11.8565L135.14 11.3315C134.814 10.6047 134.382 10.0194 133.809 9.65742L133.123 10.7426ZM133.969 11.8588L142.979 31.7488L144.149 31.2192L135.139 11.3292L133.969 11.8588ZM142.98 31.7508C143.292 32.4334 143.253 32.8668 143.078 33.1666L144.186 33.8134C144.646 33.0252 144.561 32.1213 144.148 31.2172L142.98 31.7508ZM143.084 33.1563C142.914 33.4349 142.614 33.6303 142 33.6303V34.9137C142.927 34.9137 143.715 34.5877 144.18 33.8237L143.084 33.1563ZM142 33.6303C141.46 33.6303 141.122 33.5052 140.909 33.3319L140.099 34.3281C140.611 34.7442 141.271 34.9137 142 34.9137V33.6303ZM140.942 33.3609C140.691 33.1264 140.428 32.7382 140.176 32.1492L138.996 32.6548C139.288 33.3352 139.637 33.8989 140.066 34.2991L140.942 33.3609ZM140.175 32.148L138.475 28.204L137.297 28.712L138.997 32.656L140.175 32.148ZM137.886 27.8163H126.19V29.0997H137.886V27.8163ZM125.599 28.2083L123.933 32.1523L125.115 32.6517L126.781 28.7077L125.599 28.2083ZM123.938 32.1395C123.659 32.7636 123.395 33.1499 123.169 33.3597L124.043 34.3003C124.451 33.9207 124.8 33.3551 125.11 32.6645L123.938 32.1395ZM123.169 33.3597C123.008 33.5096 122.733 33.6303 122.246 33.6303V34.9137C122.938 34.9137 123.569 34.7398 124.043 34.3003L123.169 33.3597ZM131.413 14.5065L127.095 24.7405L128.277 25.2395L132.595 15.0055L131.413 14.5065ZM127.686 25.6317H136.39V24.3483H127.686V25.6317ZM136.981 24.7405L132.663 14.5065L131.481 15.0055L135.799 25.2395L136.981 24.7405ZM132.072 14.1143H132.004V15.3977H132.072V14.1143ZM164.869 32.572L164.464 33.0694L164.472 33.0761L164.869 32.572ZM163.951 23.868L164.462 24.2563L164.466 24.2514L163.951 23.868ZM167.521 20.774L167.234 20.2L167.213 20.2107L167.192 20.223L167.521 20.774ZM167.725 20.672L168.012 21.246L168.788 20.8581L168.19 20.2297L167.725 20.672ZM165.821 18.02L165.235 18.2821L165.238 18.2879L165.821 18.02ZM167.045 11.288L167.466 11.7726L167.467 11.7721L167.045 11.288ZM176.293 11.118L175.871 11.601L175.876 11.606L176.293 11.118ZM176.871 18.326L176.339 17.9674L176.337 17.97L176.871 18.326ZM173.437 21.284L173.111 20.7317L172.422 21.1391L172.969 21.7229L173.437 21.284ZM178.027 26.18L177.559 26.6189L178.198 27.3004L178.605 26.4595L178.027 26.18ZM179.455 21.046L178.822 20.9446L178.82 20.9524L178.819 20.9603L179.455 21.046ZM182.957 21.25L183.595 21.3198L183.595 21.3184L182.957 21.25ZM182.073 25.296L181.467 25.0864L181.463 25.0964L182.073 25.296ZM180.543 28.662L179.996 28.3264L179.733 28.7551L180.087 29.113L180.543 28.662ZM183.331 31.484L182.875 31.935L182.878 31.9378L183.331 31.484ZM183.467 33.864L183.885 34.3512L183.888 34.3489L183.467 33.864ZM180.917 34L180.57 34.5398L180.584 34.5489L180.599 34.5572L180.917 34ZM179.863 33.116L179.4 33.5605L179.41 33.5698L179.863 33.116ZM178.231 31.416L178.694 30.9716L178.257 30.5159L177.794 30.9461L178.231 31.416ZM174.899 33.558L175.147 34.15L175.147 34.15L174.899 33.558ZM169.901 13.43L170.333 13.9048L170.339 13.8996L170.344 13.8942L169.901 13.43ZM169.561 16.966L168.992 17.2628L169 17.2779L169.009 17.2925L169.561 16.966ZM171.091 18.938L170.612 19.3643L170.961 19.7576L171.415 19.4919L171.091 18.938ZM173.607 17.034L173.126 16.6101L173.121 16.6156L173.116 16.6212L173.607 17.034ZM173.675 13.328L173.246 13.805L173.246 13.805L173.675 13.328ZM175.851 29.07L176.305 29.5238L176.751 29.0778L176.313 28.6242L175.851 29.07ZM170.071 23.086L170.533 22.6402L170.187 22.282L169.754 22.5281L170.071 23.086ZM167.589 25.092L167.072 24.7124L167.064 24.724L167.589 25.092ZM167.963 30.056L167.549 30.5465L167.557 30.5527L167.963 30.056ZM170.955 33.6983C168.489 33.6983 166.616 33.131 165.266 32.0679L164.472 33.0761C166.115 34.3703 168.299 34.9817 170.955 34.9817V33.6983ZM165.275 32.0746C163.953 30.9971 163.301 29.6168 163.301 27.88H162.018C162.018 29.9965 162.839 31.7443 164.464 33.0694L165.275 32.0746ZM163.301 27.88C163.301 26.4666 163.693 25.2685 164.462 24.2563L163.44 23.4797C162.487 24.7341 162.018 26.2107 162.018 27.88H163.301ZM164.466 24.2514C165.267 23.1764 166.388 22.198 167.85 21.325L167.192 20.223C165.617 21.1633 164.358 22.2476 163.437 23.4846L164.466 24.2514ZM167.808 21.348L168.012 21.246L167.438 20.098L167.234 20.2L167.808 21.348ZM168.19 20.2297C167.337 19.3332 166.751 18.5069 166.404 17.7521L165.238 18.2879C165.662 19.2105 166.345 20.1522 167.26 21.1143L168.19 20.2297ZM166.407 17.7579C166.056 16.9734 165.885 16.1897 165.885 15.402H164.602C164.602 16.3823 164.816 17.3439 165.235 18.2821L166.407 17.7579ZM165.885 15.402C165.885 13.8735 166.416 12.6842 167.466 11.7726L166.625 10.8034C165.272 11.9771 164.602 13.5305 164.602 15.402H165.885ZM167.467 11.7721C168.549 10.8303 169.997 10.3317 171.873 10.3317V9.04827C169.761 9.04827 167.99 9.61505 166.624 10.8039L167.467 11.7721ZM171.873 10.3317C173.622 10.3317 174.93 10.7778 175.871 11.601L176.716 10.635C175.481 9.55422 173.842 9.04827 171.873 9.04827V10.3317ZM175.876 11.606C176.803 12.3973 177.284 13.4782 177.284 14.926H178.567C178.567 13.1552 177.96 11.6974 176.71 10.63L175.876 11.606ZM177.284 14.926C177.284 16.0186 176.972 17.0276 176.339 17.9674L177.403 18.6846C178.175 17.5391 178.567 16.2814 178.567 14.926H177.284ZM176.337 17.97C175.731 18.8788 174.676 19.8054 173.111 20.7317L173.764 21.8363C175.417 20.8586 176.651 19.8132 177.405 18.682L176.337 17.97ZM172.969 21.7229L177.559 26.6189L178.495 25.7411L173.905 20.8451L172.969 21.7229ZM178.605 26.4595C179.322 24.9777 179.813 23.1971 180.091 21.1317L178.819 20.9603C178.554 22.9296 178.093 24.5716 177.45 25.9005L178.605 26.4595ZM180.089 21.1474C180.165 20.6699 180.319 20.3967 180.486 20.2419C180.646 20.094 180.889 19.9877 181.291 19.9877V18.7043C180.65 18.7043 180.067 18.8813 179.614 19.3001C179.17 19.712 178.927 20.2888 178.822 20.9446L180.089 21.1474ZM181.291 19.9877C181.819 19.9877 182.053 20.1223 182.16 20.2446C182.27 20.3708 182.378 20.6338 182.319 21.1816L183.595 21.3184C183.673 20.5968 183.571 19.9079 183.126 19.3994C182.677 18.8871 182.01 18.7043 181.291 18.7043V19.9877ZM182.319 21.1802C182.165 22.5883 181.88 23.8896 181.467 25.0865L182.68 25.5055C183.128 24.2091 183.432 22.8131 183.595 21.3198L182.319 21.1802ZM181.463 25.0964C181.069 26.3011 180.579 27.3765 179.996 28.3264L181.09 28.9976C181.731 27.9528 182.261 26.7843 182.683 25.4956L181.463 25.0964ZM180.087 29.113L182.875 31.935L183.788 31.033L181 28.211L180.087 29.113ZM182.878 31.9378C183.238 32.2985 183.336 32.5756 183.336 32.776H184.619C184.619 32.1151 184.286 31.5308 183.785 31.0302L182.878 31.9378ZM183.336 32.776C183.336 33.0113 183.254 33.2001 183.047 33.3791L183.888 34.3489C184.361 33.9386 184.619 33.4021 184.619 32.776H183.336ZM183.05 33.3768C182.884 33.5184 182.609 33.6303 182.141 33.6303V34.9137C182.806 34.9137 183.416 34.7536 183.885 34.3512L183.05 33.3768ZM182.141 33.6303C181.715 33.6303 181.427 33.5522 181.236 33.4428L180.599 34.5572C181.042 34.8105 181.57 34.9137 182.141 34.9137V33.6303ZM181.264 33.4602C180.998 33.2892 180.683 33.0281 180.317 32.6622L179.41 33.5698C179.814 33.9745 180.202 34.3028 180.57 34.5398L181.264 33.4602ZM180.326 32.6716L178.694 30.9716L177.768 31.8604L179.4 33.5604L180.326 32.6716ZM177.794 30.9461C176.876 31.8004 175.83 32.4734 174.652 32.966L175.147 34.15C176.462 33.5999 177.637 32.8449 178.668 31.8859L177.794 30.9461ZM174.652 32.966C173.485 33.4537 172.255 33.6983 170.955 33.6983V34.9817C172.421 34.9817 173.82 34.7049 175.147 34.15L174.652 32.966ZM171.873 12.0743C170.925 12.0743 170.098 12.3553 169.458 12.9658L170.344 13.8942C170.702 13.5527 171.19 13.3577 171.873 13.3577V12.0743ZM169.47 12.9552C168.813 13.5518 168.512 14.3609 168.512 15.3H169.795C169.795 14.6524 169.992 14.2148 170.333 13.9048L169.47 12.9552ZM168.512 15.3C168.512 15.9925 168.672 16.6497 168.992 17.2628L170.13 16.6692C169.906 16.2397 169.795 15.7862 169.795 15.3H168.512ZM169.009 17.2925C169.335 17.8453 169.878 18.5395 170.612 19.3643L171.571 18.5117C170.853 17.7045 170.376 17.084 170.114 16.6395L169.009 17.2925ZM171.415 19.4919C172.634 18.7789 173.55 18.0995 174.099 17.4468L173.116 16.6212C172.712 17.1018 171.951 17.6918 170.767 18.3841L171.415 19.4919ZM174.089 17.4579C174.686 16.7793 174.997 15.9842 174.997 15.096H173.714C173.714 15.6585 173.526 16.1553 173.126 16.6101L174.089 17.4579ZM174.997 15.096C174.997 14.1947 174.727 13.4113 174.105 12.851L173.246 13.805C173.53 14.0607 173.714 14.4559 173.714 15.096H174.997ZM174.105 12.851C173.508 12.3143 172.742 12.0743 171.873 12.0743V13.3577C172.5 13.3577 172.936 13.5257 173.246 13.805L174.105 12.851ZM171.193 31.6157C173.195 31.6157 174.912 30.9165 176.305 29.5238L175.398 28.6162C174.252 29.7622 172.863 30.3323 171.193 30.3323V31.6157ZM176.313 28.6242L170.533 22.6402L169.61 23.5318L175.39 29.5158L176.313 28.6242ZM169.754 22.5281C168.56 23.2072 167.646 23.9297 167.072 24.7125L168.107 25.4715C168.53 24.8943 169.271 24.2795 170.388 23.6439L169.754 22.5281ZM167.064 24.724C166.501 25.5272 166.234 26.4763 166.234 27.54H167.517C167.517 26.6997 167.725 26.0168 168.115 25.46L167.064 24.724ZM166.234 27.54C166.234 28.7684 166.661 29.7967 167.549 30.5465L168.377 29.5655C167.815 29.0913 167.517 28.4423 167.517 27.54H166.234ZM167.557 30.5527C168.462 31.2929 169.705 31.6157 171.193 31.6157V30.3323C169.871 30.3323 168.961 30.0431 168.37 29.5593L167.557 30.5527ZM208.698 32.81L208.371 33.3622L208.374 33.3641L208.698 32.81ZM204.686 28.526L204.115 28.8186L204.116 28.8214L204.686 28.526ZM204.686 15.47L205.255 15.7654L205.255 15.7654L204.686 15.47ZM208.698 11.22L209.019 11.7754L209.025 11.7722L208.698 11.22ZM220.87 11.22L220.543 11.7722L220.548 11.7754L220.87 11.22ZM224.882 15.47L225.451 15.1746L225.451 15.1746L224.882 15.47ZM224.882 28.526L225.451 28.8214L225.453 28.8185L224.882 28.526ZM220.87 32.81L221.197 33.3622L221.197 33.3622L220.87 32.81ZM219.918 28.322L219.418 27.9193L219.418 27.9193L219.918 28.322ZM219.918 15.674L219.417 16.0758L219.421 16.0804L219.918 15.674ZM209.65 15.674L209.153 15.2676L209.153 15.2676L209.65 15.674ZM209.65 28.322L210.149 27.9193L210.149 27.9193L209.65 28.322ZM214.784 33.6983C212.569 33.6983 210.655 33.2107 209.021 32.2559L208.374 33.3641C210.231 34.4493 212.375 34.9817 214.784 34.9817V33.6983ZM209.025 32.2578C207.409 31.3011 206.154 29.9637 205.255 28.2306L204.116 28.8214C205.121 30.7603 206.541 32.2789 208.371 33.3622L209.025 32.2578ZM205.257 28.2334C204.359 26.4813 203.899 24.4092 203.899 21.998H202.616C202.616 24.5735 203.108 26.8534 204.115 28.8185L205.257 28.2334ZM203.899 21.998C203.899 19.5628 204.36 17.4924 205.255 15.7654L204.116 15.1746C203.107 17.1196 202.616 19.4012 202.616 21.998H203.899ZM205.255 15.7654C206.153 14.0335 207.407 12.709 209.019 11.7754L208.376 10.6646C206.543 11.7257 205.122 13.2345 204.116 15.1746L205.255 15.7654ZM209.025 11.7722C210.633 10.8199 212.545 10.3317 214.784 10.3317V9.04827C212.353 9.04827 210.208 9.58006 208.371 10.6678L209.025 11.7722ZM214.784 10.3317C217.023 10.3317 218.934 10.8199 220.543 11.7722L221.197 10.6678C219.36 9.58006 217.214 9.04827 214.784 9.04827V10.3317ZM220.548 11.7754C222.161 12.709 223.414 14.0335 224.312 15.7654L225.451 15.1746C224.445 13.2345 223.024 11.7257 221.191 10.6646L220.548 11.7754ZM224.312 15.7654C225.208 17.4932 225.668 19.5525 225.668 21.964H226.951C226.951 19.3888 226.459 17.1188 225.451 15.1746L224.312 15.7654ZM225.668 21.964C225.668 24.3989 225.208 26.4821 224.311 28.2334L225.453 28.8185C226.46 26.8526 226.951 24.5611 226.951 21.964H225.668ZM224.312 28.2306C223.413 29.9637 222.158 31.3011 220.543 32.2578L221.197 33.3622C223.026 32.2789 224.446 30.7603 225.451 28.8214L224.312 28.2306ZM220.543 32.2578C218.934 33.2101 217.023 33.6983 214.784 33.6983V34.9817C217.214 34.9817 219.36 34.4499 221.197 33.3622L220.543 32.2578ZM214.784 31.2417C217.149 31.2417 219.055 30.415 220.417 28.7247L219.418 27.9193C218.332 29.2663 216.816 29.9583 214.784 29.9583V31.2417ZM220.417 28.7247C221.763 27.0552 222.395 24.7864 222.395 21.998H221.112C221.112 24.6043 220.52 26.5515 219.418 27.9193L220.417 28.7247ZM222.395 21.998C222.395 19.1892 221.764 16.9171 220.414 15.2676L219.421 16.0804C220.519 17.4229 221.112 19.3668 221.112 21.998H222.395ZM220.418 15.2722C219.075 13.5995 217.165 12.7883 214.784 12.7883V14.0717C216.845 14.0717 218.358 14.7565 219.417 16.0758L220.418 15.2722ZM214.784 12.7883C212.422 12.7883 210.517 13.6011 209.153 15.2676L210.146 16.0804C211.231 14.7549 212.748 14.0717 214.784 14.0717V12.7883ZM209.153 15.2676C207.803 16.9171 207.172 19.1892 207.172 21.998H208.455C208.455 19.3668 209.048 17.4229 210.146 16.0804L209.153 15.2676ZM207.172 21.998C207.172 24.7864 207.804 27.0552 209.15 28.7247L210.149 27.9193C209.047 26.5515 208.455 24.6043 208.455 21.998H207.172ZM209.15 28.7247C210.512 30.415 212.419 31.2417 214.784 31.2417V29.9583C212.751 29.9583 211.235 29.2663 210.149 27.9193L209.15 28.7247ZM236.549 31.79L236.095 32.2438L236.101 32.2497L236.549 31.79ZM239.779 29.002L239.301 29.4303L239.311 29.4406L239.779 29.002ZM251.611 31.79L252.065 32.2438L252.068 32.2408L251.611 31.79ZM244.097 33.6983C240.918 33.6983 238.585 32.8776 236.997 31.3303L236.101 32.2497C238.003 34.1024 240.703 34.9817 244.097 34.9817V33.6983ZM237.003 31.3362C235.44 29.7734 234.607 27.424 234.607 24.174H233.323C233.323 27.6333 234.213 30.3612 236.095 32.2438L237.003 31.3362ZM234.607 24.174V11.968H233.323V24.174H234.607ZM234.607 11.968C234.607 11.3278 234.764 10.966 234.966 10.7607C235.167 10.5574 235.517 10.3997 236.141 10.3997V9.11627C235.314 9.11627 234.577 9.32697 234.052 9.86026C233.528 10.3917 233.323 11.1349 233.323 11.968H234.607ZM236.141 10.3997C236.765 10.3997 237.115 10.5574 237.316 10.7607C237.518 10.966 237.675 11.3278 237.675 11.968H238.959C238.959 11.1349 238.754 10.3917 238.23 9.86026C237.705 9.32697 236.968 9.11627 236.141 9.11627V10.3997ZM237.675 11.968V24.14H238.959V11.968H237.675ZM237.675 24.14C237.675 26.378 238.181 28.1794 239.301 29.4302L240.257 28.5738C239.428 27.6486 238.959 26.2087 238.959 24.14H237.675ZM239.311 29.4406C240.462 30.6704 242.092 31.2417 244.097 31.2417V29.9583C242.339 29.9583 241.091 29.4643 240.247 28.5634L239.311 29.4406ZM244.097 31.2417C246.132 31.2417 247.77 30.6663 248.886 29.4115C249.989 28.171 250.485 26.3749 250.485 24.14H249.201C249.201 26.2117 248.739 27.6457 247.927 28.5585C247.128 29.457 245.893 29.9583 244.097 29.9583V31.2417ZM250.485 24.14V11.968H249.201V24.14H250.485ZM250.485 11.968C250.485 11.3278 250.642 10.966 250.844 10.7607C251.045 10.5574 251.395 10.3997 252.019 10.3997V9.11627C251.192 9.11627 250.455 9.32697 249.93 9.86026C249.406 10.3917 249.201 11.1349 249.201 11.968H250.485ZM252.019 10.3997C252.629 10.3997 252.97 10.5559 253.165 10.7571C253.363 10.9621 253.519 11.3253 253.519 11.968H254.803C254.803 11.1374 254.602 10.3956 254.086 9.86387C253.567 9.32843 252.837 9.11627 252.019 9.11627V10.3997ZM253.519 11.968V24.174H254.803V11.968H253.519ZM253.519 24.174C253.519 27.4262 252.696 29.7768 251.154 31.3392L252.068 32.2408C253.926 30.3579 254.803 27.6312 254.803 24.174H253.519ZM251.157 31.3362C249.617 32.8764 247.302 33.6983 244.097 33.6983V34.9817C247.511 34.9817 250.205 34.1036 252.065 32.2438L251.157 31.3362ZM268.417 13.668H269.058V13.0263H268.417V13.668ZM272.769 13.668V13.0263H272.127V13.668H272.769ZM270.593 33.6303C269.971 33.6303 269.622 33.4712 269.421 33.2643C269.217 33.0536 269.058 32.6819 269.058 32.028H267.775C267.775 32.8701 267.979 33.6204 268.5 34.1577C269.025 34.6988 269.763 34.9137 270.593 34.9137V33.6303ZM269.058 32.028V13.668H267.775V32.028H269.058ZM268.417 13.0263H261.787V14.3097H268.417V13.0263ZM261.787 13.0263C261.259 13.0263 260.982 12.8969 260.834 12.7511C260.687 12.6074 260.558 12.3421 260.558 11.832H259.275C259.275 12.5459 259.457 13.1986 259.934 13.6669C260.409 14.1331 261.067 14.3097 261.787 14.3097V13.0263ZM260.558 11.832C260.558 11.3364 260.686 11.0811 260.829 10.9426C260.978 10.7998 261.256 10.6717 261.787 10.6717V9.38827C261.07 9.38827 260.414 9.56055 259.939 10.0184C259.459 10.4805 259.275 11.1262 259.275 11.832H260.558ZM261.787 10.6717H279.399V9.38827H261.787V10.6717ZM279.399 10.6717C279.929 10.6717 280.208 10.7998 280.356 10.9426C280.5 11.0811 280.627 11.3364 280.627 11.832H281.91C281.91 11.1262 281.726 10.4805 281.246 10.0184C280.771 9.56055 280.115 9.38827 279.399 9.38827V10.6717ZM280.627 11.832C280.627 12.3421 280.498 12.6074 280.351 12.7511C280.203 12.8969 279.926 13.0263 279.399 13.0263V14.3097C280.118 14.3097 280.776 14.1331 281.251 13.6669C281.728 13.1986 281.91 12.5459 281.91 11.832H280.627ZM279.399 13.0263H272.769V14.3097H279.399V13.0263ZM272.127 13.668V32.028H273.41V13.668H272.127ZM272.127 32.028C272.127 32.6819 271.968 33.0536 271.764 33.2643C271.563 33.4712 271.214 33.6303 270.593 33.6303V34.9137C271.422 34.9137 272.161 34.6988 272.685 34.1577C273.206 33.6204 273.41 32.8701 273.41 32.028H272.127ZM303.644 11.934L303.217 12.4137L303.222 12.4174L303.644 11.934ZM304.392 21.658L304.892 22.0601L304.896 22.0553L304.392 21.658ZM300.38 24.004L300.234 23.3791L297.948 23.9135L300.188 24.6163L300.38 24.004ZM303.236 26.622L303.801 26.3173L303.8 26.3167L303.236 26.622ZM305.786 31.348L306.352 31.0469L306.351 31.0433L305.786 31.348ZM305.99 33.354L305.395 33.1119L305.392 33.1214L305.388 33.1311L305.99 33.354ZM302.76 33.898L302.39 34.4223L302.4 34.4297L302.411 34.4368L302.76 33.898ZM301.74 32.674L302.304 32.3684L302.304 32.3678L301.74 32.674ZM298.306 26.35L297.739 26.6503L297.742 26.6562L298.306 26.35ZM296.844 24.82L296.557 25.394L296.571 25.401L296.585 25.4074L296.844 24.82ZM291.506 24.412V23.7703H290.864V24.412H291.506ZM291.506 21.182H290.864V21.8237H291.506V21.182ZM291.506 13.464V12.8223H290.864V13.464H291.506ZM289.33 33.6303C288.708 33.6303 288.359 33.4712 288.158 33.2643C287.954 33.0536 287.795 32.6819 287.795 32.028H286.512C286.512 32.8701 286.716 33.6204 287.237 34.1577C287.762 34.6988 288.5 34.9137 289.33 34.9137V33.6303ZM287.795 32.028V12.24H286.512V32.028H287.795ZM287.795 12.24C287.795 11.6023 287.954 11.2418 288.16 11.0363C288.366 10.8307 288.726 10.6717 289.364 10.6717V9.38827C288.528 9.38827 287.784 9.5976 287.252 10.1287C286.721 10.6599 286.512 11.4044 286.512 12.24H287.795ZM289.364 10.6717H297.558V9.38827H289.364V10.6717ZM297.558 10.6717C300.089 10.6717 301.945 11.2824 303.217 12.4136L304.07 11.4544C302.487 10.047 300.285 9.38827 297.558 9.38827V10.6717ZM303.222 12.4174C304.483 13.5183 305.144 15.0829 305.144 17.204H306.427C306.427 14.7918 305.661 12.843 304.066 11.4506L303.222 12.4174ZM305.144 17.204C305.144 18.8793 304.712 20.216 303.888 21.2607L304.896 22.0553C305.931 20.7427 306.427 19.11 306.427 17.204H305.144ZM303.892 21.2559C303.07 22.2783 301.869 22.9967 300.234 23.3791L300.526 24.6289C302.381 24.1953 303.855 23.3497 304.892 22.0601L303.892 21.2559ZM300.188 24.6163C301.141 24.9154 301.978 25.6462 302.671 26.9273L303.8 26.3167C302.997 24.8325 301.93 23.8179 300.572 23.3917L300.188 24.6163ZM302.671 26.9267L305.221 31.6527L306.351 31.0433L303.801 26.3173L302.671 26.9267ZM305.219 31.6491C305.539 32.2509 305.556 32.7179 305.395 33.1119L306.584 33.5961C306.922 32.7661 306.803 31.8958 306.352 31.0469L305.219 31.6491ZM305.388 33.1311C305.33 33.2889 305.236 33.396 305.086 33.4753C304.92 33.5631 304.657 33.6303 304.256 33.6303V34.9137C304.784 34.9137 305.274 34.8279 305.686 34.6097C306.115 34.383 306.423 34.0311 306.592 33.5769L305.388 33.1311ZM304.256 33.6303C303.727 33.6303 303.361 33.5224 303.108 33.3592L302.411 34.4368C302.93 34.7723 303.56 34.9137 304.256 34.9137V33.6303ZM303.13 33.3737C302.846 33.1736 302.566 32.8515 302.304 32.3684L301.175 32.9796C301.503 33.5845 301.903 34.0784 302.39 34.4223L303.13 33.3737ZM302.304 32.3678L298.87 26.0438L297.742 26.6562L301.176 32.9802L302.304 32.3678ZM298.873 26.0497C298.424 25.2025 297.846 24.5598 297.102 24.2326L296.585 25.4074C296.975 25.5788 297.371 25.9562 297.739 26.6503L298.873 26.0497ZM297.131 24.246C296.468 23.9149 295.658 23.7703 294.736 23.7703V25.0537C295.536 25.0537 296.131 25.1811 296.557 25.394L297.131 24.246ZM294.736 23.7703H291.506V25.0537H294.736V23.7703ZM290.864 24.412V32.028H292.147V24.412H290.864ZM290.864 32.028C290.864 32.6819 290.705 33.0536 290.501 33.2643C290.3 33.4712 289.951 33.6303 289.33 33.6303V34.9137C290.159 34.9137 290.898 34.6988 291.422 34.1577C291.944 33.6204 292.147 32.8701 292.147 32.028H290.864ZM291.506 21.8237H296.81V20.5403H291.506V21.8237ZM296.81 21.8237C298.467 21.8237 299.829 21.489 300.785 20.7106C301.766 19.9117 302.211 18.7357 302.211 17.306H300.928C300.928 18.4603 300.58 19.2223 299.975 19.7154C299.344 20.229 298.326 20.5403 296.81 20.5403V21.8237ZM302.211 17.306C302.211 15.8857 301.765 14.7177 300.783 13.9251C299.827 13.1537 298.466 12.8223 296.81 12.8223V14.1057C298.327 14.1057 299.346 14.4146 299.977 14.9239C300.581 15.4119 300.928 16.165 300.928 17.306H302.211ZM296.81 12.8223H291.506V14.1057H296.81V12.8223ZM290.864 13.464V21.182H292.147V13.464H290.864ZM318.044 13.498V12.8563H317.403V13.498H318.044ZM318.044 20.094H317.403V20.7357H318.044V20.094ZM318.044 23.562V22.9203H317.403V23.562H318.044ZM318.044 30.532H317.403V31.1737H318.044V30.532ZM316.174 33.3583C315.503 33.3583 315.117 33.1908 314.894 32.9682C314.672 32.7457 314.504 32.3597 314.504 31.688H313.221C313.221 32.5576 313.438 33.3276 313.987 33.8758C314.535 34.4239 315.305 34.6417 316.174 34.6417V33.3583ZM314.504 31.688V12.342H313.221V31.688H314.504ZM314.504 12.342C314.504 11.6703 314.672 11.2843 314.894 11.0618C315.117 10.8392 315.503 10.6717 316.174 10.6717V9.38827C315.305 9.38827 314.535 9.6061 313.987 10.1542C313.438 10.7024 313.221 11.4724 313.221 12.342H314.504ZM316.174 10.6717H328.312V9.38827H316.174V10.6717ZM328.312 10.6717C328.809 10.6717 329.062 10.7915 329.194 10.9176C329.32 11.0392 329.439 11.2688 329.439 11.73H330.722C330.722 11.0579 330.546 10.4375 330.083 9.99242C329.625 9.55188 328.994 9.38827 328.312 9.38827V10.6717ZM329.439 11.73C329.439 12.2204 329.316 12.4704 329.185 12.6022C329.053 12.7341 328.803 12.8563 328.312 12.8563V14.1397C329.001 14.1397 329.635 13.9672 330.092 13.5098C330.55 13.0523 330.722 12.4183 330.722 11.73H329.439ZM328.312 12.8563H318.044V14.1397H328.312V12.8563ZM317.403 13.498V20.094H318.686V13.498H317.403ZM318.044 20.7357H327.564V19.4523H318.044V20.7357ZM327.564 20.7357C328.058 20.7357 328.309 20.8567 328.441 20.9857C328.57 21.1123 328.691 21.3521 328.691 21.828H329.974C329.974 21.1479 329.8 20.5207 329.34 20.0693C328.882 19.6203 328.249 19.4523 327.564 19.4523V20.7357ZM328.691 21.828C328.691 22.3039 328.57 22.5437 328.441 22.6703C328.309 22.7993 328.058 22.9203 327.564 22.9203V24.2037C328.249 24.2037 328.882 24.0357 329.34 23.5867C329.8 23.1353 329.974 22.5081 329.974 21.828H328.691ZM327.564 22.9203H318.044V24.2037H327.564V22.9203ZM317.403 23.562V30.532H318.686V23.562H317.403ZM318.044 31.1737H328.312V29.8903H318.044V31.1737ZM328.312 31.1737C328.806 31.1737 329.057 31.2947 329.189 31.4237C329.318 31.5503 329.439 31.7901 329.439 32.266H330.722C330.722 31.5859 330.548 30.9587 330.088 30.5073C329.63 30.0583 328.997 29.8903 328.312 29.8903V31.1737ZM329.439 32.266C329.439 32.7419 329.318 32.9817 329.189 33.1083C329.057 33.2373 328.806 33.3583 328.312 33.3583V34.6417C328.997 34.6417 329.63 34.4737 330.088 34.0247C330.548 33.5733 330.722 32.9461 330.722 32.266H329.439ZM328.312 33.3583H316.174V34.6417H328.312V33.3583ZM335.656 33.456L335.112 33.7961L335.656 33.456ZM335.69 31.484L336.271 31.7573L336.275 31.748L335.69 31.484ZM344.666 11.594L345.251 11.858L345.251 11.8565L344.666 11.594ZM345.72 10.2L346.076 10.734L346.082 10.7296L345.72 10.2ZM348.576 10.2L348.2 10.7202L348.216 10.7319L348.233 10.7426L348.576 10.2ZM349.664 11.594L349.078 11.8565L349.079 11.8588L349.664 11.594ZM358.674 31.484L358.089 31.7488L358.09 31.7508L358.674 31.484ZM358.742 33.49L359.29 33.8237L359.296 33.8134L358.742 33.49ZM355.614 33.83L355.176 34.2991L355.192 34.3142L355.209 34.3281L355.614 33.83ZM354.696 32.402L355.286 32.1492L355.285 32.148L354.696 32.402ZM352.996 28.458L353.585 28.204L353.418 27.8163H352.996V28.458ZM341.3 28.458V27.8163H340.874L340.709 28.2083L341.3 28.458ZM339.634 32.402L340.22 32.6646L340.225 32.6517L339.634 32.402ZM338.716 33.83L338.279 33.3597L338.279 33.3597L338.716 33.83ZM347.114 14.756V14.1143H346.688L346.523 14.5065L347.114 14.756ZM342.796 24.99L342.205 24.7405L341.829 25.6317H342.796V24.99ZM351.5 24.99V25.6317H352.467L352.091 24.7405L351.5 24.99ZM347.182 14.756L347.773 14.5065L347.608 14.1143H347.182V14.756ZM337.356 33.6303C336.723 33.6303 336.394 33.4263 336.2 33.1159L335.112 33.7961C335.598 34.5737 336.402 34.9137 337.356 34.9137V33.6303ZM336.2 33.1159C336.012 32.8157 335.967 32.4028 336.27 31.7572L335.109 31.2108C334.688 32.1065 334.619 33.0083 335.112 33.7961L336.2 33.1159ZM336.275 31.748L345.251 11.858L344.081 11.33L335.105 31.22L336.275 31.748ZM345.251 11.8565C345.518 11.2608 345.805 10.9145 346.076 10.734L345.364 9.66605C344.819 10.0295 344.403 10.6125 344.08 11.3315L345.251 11.8565ZM346.082 10.7296C346.401 10.5112 346.761 10.3997 347.182 10.3997V9.11627C346.514 9.11627 345.9 9.29945 345.357 9.67037L346.082 10.7296ZM347.182 10.3997C347.573 10.3997 347.906 10.5075 348.2 10.7202L348.952 9.67976C348.43 9.30314 347.833 9.11627 347.182 9.11627V10.3997ZM348.233 10.7426C348.521 10.9246 348.815 11.2686 349.078 11.8565L350.249 11.3315C349.924 10.6047 349.492 10.0194 348.918 9.65742L348.233 10.7426ZM349.079 11.8588L358.089 31.7488L359.258 31.2192L350.248 11.3292L349.079 11.8588ZM358.09 31.7508C358.402 32.4334 358.362 32.8668 358.188 33.1666L359.296 33.8134C359.756 33.0252 359.671 32.1213 359.257 31.2172L358.09 31.7508ZM358.194 33.1563C358.024 33.4349 357.724 33.6303 357.11 33.6303V34.9137C358.037 34.9137 358.825 34.5877 359.29 33.8237L358.194 33.1563ZM357.11 33.6303C356.57 33.6303 356.232 33.5052 356.018 33.3319L355.209 34.3281C355.721 34.7442 356.38 34.9137 357.11 34.9137V33.6303ZM356.052 33.3609C355.8 33.1264 355.538 32.7382 355.286 32.1492L354.106 32.6548C354.398 33.3352 354.747 33.8989 355.176 34.2991L356.052 33.3609ZM355.285 32.148L353.585 28.204L352.407 28.712L354.107 32.656L355.285 32.148ZM352.996 27.8163H341.3V29.0997H352.996V27.8163ZM340.709 28.2083L339.043 32.1523L340.225 32.6517L341.891 28.7077L340.709 28.2083ZM339.048 32.1395C338.768 32.7636 338.505 33.1499 338.279 33.3597L339.152 34.3003C339.561 33.9207 339.91 33.3551 340.219 32.6645L339.048 32.1395ZM338.279 33.3597C338.118 33.5096 337.842 33.6303 337.356 33.6303V34.9137C338.048 34.9137 338.679 34.7398 339.152 34.3003L338.279 33.3597ZM346.523 14.5065L342.205 24.7405L343.387 25.2395L347.705 15.0055L346.523 14.5065ZM342.796 25.6317H351.5V24.3483H342.796V25.6317ZM352.091 24.7405L347.773 14.5065L346.591 15.0055L350.909 25.2395L352.091 24.7405ZM347.182 14.1143H347.114V15.3977H347.182V14.1143ZM370.047 32.844L369.726 33.3999L369.734 33.4046L370.047 32.844ZM365.967 28.56L365.395 28.8526L365.397 28.8554L365.967 28.56ZM365.967 15.47L366.536 15.7654L366.536 15.7654L365.967 15.47ZM370.047 11.22L370.362 11.7789L370.364 11.7776L370.047 11.22ZM380.145 10.166L379.981 10.7864L379.981 10.7864L380.145 10.166ZM383.307 11.526L383.658 10.9889L383.656 10.9879L383.307 11.526ZM384.361 12.92L383.732 13.0509L383.733 13.0563L384.361 12.92ZM384.157 14.382L384.712 14.7036L384.719 14.6913L384.157 14.382ZM383.035 15.266L383.203 15.8851L383.216 15.8816L383.229 15.8775L383.035 15.266ZM381.369 14.858L381.725 14.324L381.716 14.3188L381.369 14.858ZM379.091 13.872L379.246 13.2494L379.246 13.2494L379.091 13.872ZM371.067 15.776L371.55 16.1986L371.553 16.1949L371.067 15.776ZM371.067 28.254L370.58 28.6729L371.067 28.254ZM379.159 30.158L379.31 30.7815L379.318 30.7796L379.326 30.7775L379.159 30.158ZM381.539 29.138L381.871 29.6869L381.88 29.6811L381.539 29.138ZM383.171 28.764L383.347 28.147L383.347 28.147L383.171 28.764ZM384.225 29.614L383.657 29.9129L383.666 29.9311L383.677 29.9486L384.225 29.614ZM384.463 30.974L385.094 31.0888L385.094 31.0888L384.463 30.974ZM383.545 32.3L383.921 32.8196L383.926 32.8161L383.545 32.3ZM380.281 33.83L380.449 34.4492L380.457 34.447L380.281 33.83ZM376.473 33.6983C374.065 33.6983 372.035 33.2171 370.359 32.2834L369.734 33.4046C371.639 34.4655 373.893 34.9817 376.473 34.9817V33.6983ZM370.367 32.2881C368.707 31.3303 367.433 29.9933 366.536 28.2646L365.397 28.8554C366.404 30.7987 367.85 32.3177 369.726 33.3999L370.367 32.2881ZM366.538 28.2674C365.641 26.5161 365.18 24.4329 365.18 21.998H363.897C363.897 24.5951 364.388 26.8866 365.395 28.8525L366.538 28.2674ZM365.18 21.998C365.18 19.5628 365.641 17.4924 366.536 15.7654L365.397 15.1746C364.388 17.1196 363.897 19.4012 363.897 21.998H365.18ZM366.536 15.7654C367.432 14.0379 368.705 12.7138 370.362 11.7789L369.731 10.6611C367.852 11.7209 366.405 13.2301 365.397 15.1746L366.536 15.7654ZM370.364 11.7776C372.04 10.8232 374.067 10.3317 376.473 10.3317V9.04827C373.891 9.04827 371.635 9.57676 369.729 10.6624L370.364 11.7776ZM376.473 10.3317C377.664 10.3317 378.833 10.4833 379.981 10.7864L380.308 9.54555C379.053 9.21404 377.774 9.04827 376.473 9.04827V10.3317ZM379.981 10.7864C381.126 11.0889 382.115 11.517 382.957 12.0641L383.656 10.9879C382.685 10.3564 381.566 9.87775 380.308 9.54555L379.981 10.7864ZM382.955 12.0631C383.442 12.3814 383.662 12.7154 383.732 13.0509L384.989 12.7891C384.832 12.0366 384.35 11.4413 383.658 10.9889L382.955 12.0631ZM383.733 13.0563C383.815 13.4314 383.766 13.7598 383.594 14.0727L384.719 14.6913C385.045 14.0975 385.133 13.4513 384.988 12.7837L383.733 13.0563ZM383.601 14.0605C383.436 14.3453 383.195 14.5415 382.84 14.6545L383.229 15.8775C383.871 15.6732 384.378 15.28 384.712 14.7035L383.601 14.0605ZM382.866 14.6469C382.612 14.7162 382.249 14.674 381.725 14.324L381.013 15.392C381.712 15.858 382.46 16.0878 383.203 15.8851L382.866 14.6469ZM381.716 14.3188C380.954 13.8271 380.13 13.4704 379.246 13.2494L378.935 14.4946C379.683 14.6816 380.377 14.9823 381.021 15.3972L381.716 14.3188ZM379.246 13.2494C378.379 13.0327 377.5 12.9243 376.609 12.9243V14.2077C377.395 14.2077 378.17 14.3033 378.935 14.4946L379.246 13.2494ZM376.609 12.9243C374.046 12.9243 372.001 13.7084 370.58 15.3571L371.553 16.1949C372.671 14.897 374.32 14.2077 376.609 14.2077V12.9243ZM370.584 15.3534C369.177 16.9604 368.521 19.207 368.521 21.998H369.804C369.804 19.3943 370.417 17.4929 371.549 16.1986L370.584 15.3534ZM368.521 21.998C368.521 24.7898 369.178 27.0449 370.58 28.6729L371.553 27.8351C370.417 26.5165 369.804 24.6009 369.804 21.998H368.521ZM370.58 28.6729C372.001 30.3216 374.046 31.1057 376.609 31.1057V29.8223C374.32 29.8223 372.671 29.133 371.553 27.8351L370.58 28.6729ZM376.609 31.1057C377.521 31.1057 378.422 30.9976 379.31 30.7815L379.007 29.5344C378.218 29.7264 377.419 29.8223 376.609 29.8223V31.1057ZM379.326 30.7775C380.223 30.535 381.072 30.1711 381.871 29.6868L381.206 28.5892C380.509 29.0115 379.771 29.3276 378.991 29.5385L379.326 30.7775ZM381.88 29.6811C382.41 29.3474 382.762 29.3146 382.994 29.381L383.347 28.147C382.627 27.9414 381.891 28.1579 381.197 28.5949L381.88 29.6811ZM382.994 29.381C383.305 29.4698 383.513 29.6403 383.657 29.9129L384.792 29.3151C384.483 28.7264 383.988 28.3302 383.347 28.147L382.994 29.381ZM383.677 29.9486C383.839 30.2136 383.895 30.5054 383.831 30.8592L385.094 31.0888C385.211 30.4453 385.109 29.8304 384.772 29.2794L383.677 29.9486ZM383.831 30.8592C383.777 31.156 383.591 31.4675 383.163 31.7839L383.926 32.8161C384.541 32.3618 384.967 31.7893 385.094 31.0888L383.831 30.8592ZM383.168 31.7804C382.332 32.3868 381.314 32.8673 380.104 33.213L380.457 34.447C381.786 34.0674 382.944 33.5279 383.921 32.8196L383.168 31.7804ZM380.112 33.2109C378.92 33.5359 377.707 33.6983 376.473 33.6983V34.9817C377.822 34.9817 379.148 34.8041 380.449 34.4491L380.112 33.2109ZM396.182 20.026H395.54V20.6677H396.182V20.026ZM408.524 20.026V20.6677H409.166V20.026H408.524ZM408.524 23.664H409.166V23.0223H408.524V23.664ZM396.182 23.664V23.0223H395.54V23.664H396.182ZM394.006 33.6303C393.385 33.6303 393.035 33.4712 392.835 33.2643C392.63 33.0536 392.472 32.6819 392.472 32.028H391.188C391.188 32.8701 391.392 33.6204 391.913 34.1577C392.438 34.6988 393.177 34.9137 394.006 34.9137V33.6303ZM392.472 32.028V12.002H391.188V32.028H392.472ZM392.472 12.002C392.472 11.3481 392.63 10.9764 392.835 10.7657C393.035 10.5588 393.385 10.3997 394.006 10.3997V9.11627C393.177 9.11627 392.438 9.33121 391.913 9.87226C391.392 10.4096 391.188 11.1599 391.188 12.002H392.472ZM394.006 10.3997C394.627 10.3997 394.977 10.5588 395.177 10.7657C395.381 10.9764 395.54 11.3481 395.54 12.002H396.824C396.824 11.1599 396.62 10.4096 396.099 9.87226C395.574 9.33121 394.835 9.11627 394.006 9.11627V10.3997ZM395.54 12.002V20.026H396.824V12.002H395.54ZM396.182 20.6677H408.524V19.3843H396.182V20.6677ZM409.166 20.026V12.002H407.882V20.026H409.166ZM409.166 12.002C409.166 11.3481 409.324 10.9764 409.529 10.7657C409.729 10.5588 410.079 10.3997 410.7 10.3997V9.11627C409.871 9.11627 409.132 9.33121 408.607 9.87226C408.086 10.4096 407.882 11.1599 407.882 12.002H409.166ZM410.7 10.3997C411.321 10.3997 411.671 10.5588 411.871 10.7657C412.075 10.9764 412.234 11.3481 412.234 12.002H413.518C413.518 11.1599 413.314 10.4096 412.793 9.87226C412.268 9.33121 411.529 9.11627 410.7 9.11627V10.3997ZM412.234 12.002V32.028H413.518V12.002H412.234ZM412.234 32.028C412.234 32.6819 412.075 33.0536 411.871 33.2643C411.671 33.4712 411.321 33.6303 410.7 33.6303V34.9137C411.529 34.9137 412.268 34.6988 412.793 34.1577C413.314 33.6204 413.518 32.8701 413.518 32.028H412.234ZM410.7 33.6303C410.079 33.6303 409.729 33.4712 409.529 33.2643C409.324 33.0536 409.166 32.6819 409.166 32.028H407.882C407.882 32.8701 408.086 33.6204 408.607 34.1577C409.132 34.6988 409.871 34.9137 410.7 34.9137V33.6303ZM409.166 32.028V23.664H407.882V32.028H409.166ZM408.524 23.0223H396.182V24.3057H408.524V23.0223ZM395.54 23.664V32.028H396.824V23.664H395.54ZM395.54 32.028C395.54 32.6819 395.381 33.0536 395.177 33.2643C394.977 33.4712 394.627 33.6303 394.006 33.6303V34.9137C394.835 34.9137 395.574 34.6988 396.099 34.1577C396.62 33.6204 396.824 32.8701 396.824 32.028H395.54Z" fill="#248A82"/>
<path d="M27.1492 33.8229C25.8345 33.8229 25.1772 33.1429 25.1772 31.7829V11.3489C25.1772 9.9889 25.8572 9.3089 27.2172 9.3089C27.7839 9.3089 28.2259 9.42224 28.5432 9.6489C28.8832 9.8529 29.1892 10.2156 29.4612 10.7369L37.3152 25.2549L45.1692 10.7369C45.4412 10.2156 45.7359 9.8529 46.0532 9.6489C46.3705 9.42224 46.8125 9.3089 47.3792 9.3089C48.6939 9.3089 49.3512 9.9889 49.3512 11.3489V31.7829C49.3512 33.1429 48.6939 33.8229 47.3792 33.8229C46.0645 33.8229 45.4072 33.1429 45.4072 31.7829V17.4009L39.0152 29.0629C38.7885 29.4482 38.5505 29.7316 38.3012 29.9129C38.0519 30.0942 37.7119 30.1849 37.2812 30.1849C36.8505 30.1849 36.4992 30.0942 36.2272 29.9129C35.9552 29.7089 35.7172 29.4256 35.5132 29.0629L29.1212 17.4689V31.7829C29.1212 33.1429 28.4639 33.8229 27.1492 33.8229ZM60.3388 33.5509C58.7975 33.5509 58.0268 32.7802 58.0268 31.2389V11.8929C58.0268 10.3516 58.7975 9.5809 60.3388 9.5809H72.4768C73.6555 9.5809 74.2448 10.1476 74.2448 11.2809C74.2448 12.4596 73.6555 13.0489 72.4768 13.0489H62.2088V19.6449H71.7288C72.9075 19.6449 73.4968 20.2229 73.4968 21.3789C73.4968 22.5349 72.9075 23.1129 71.7288 23.1129H62.2088V30.0829H72.4768C73.6555 30.0829 74.2448 30.6609 74.2448 31.8169C74.2448 32.9729 73.6555 33.5509 72.4768 33.5509H60.3388ZM84.0259 33.5509C82.4846 33.5509 81.7139 32.7802 81.7139 31.2389V11.8929C81.7139 10.3516 82.4846 9.5809 84.0259 9.5809H90.6219C94.6339 9.5809 97.7279 10.6122 99.9039 12.6749C102.103 14.7376 103.202 17.6956 103.202 21.5489C103.202 25.3796 102.103 28.3376 99.9039 30.4229C97.7279 32.5082 94.6339 33.5509 90.6219 33.5509H84.0259ZM86.0659 29.9469H90.3499C95.8806 29.9469 98.6459 27.1476 98.6459 21.5489C98.6459 15.9729 95.8806 13.1849 90.3499 13.1849H86.0659V29.9469ZM113.188 33.8229C111.738 33.8229 111.012 33.0749 111.012 31.5789V11.5529C111.012 10.0569 111.738 9.3089 113.188 9.3089C114.639 9.3089 115.364 10.0569 115.364 11.5529V31.5789C115.364 33.0749 114.639 33.8229 113.188 33.8229ZM124.246 33.8229C123.453 33.8229 122.886 33.5509 122.546 33.0069C122.206 32.4629 122.217 31.8056 122.58 31.0349L131.556 11.1449C131.851 10.4876 132.202 10.0229 132.61 9.7509C133.041 9.45623 133.528 9.3089 134.072 9.3089C134.593 9.3089 135.058 9.45623 135.466 9.7509C135.897 10.0229 136.259 10.4876 136.554 11.1449L145.564 31.0349C145.927 31.8282 145.949 32.4969 145.632 33.0409C145.315 33.5622 144.771 33.8229 144 33.8229C143.365 33.8229 142.867 33.6756 142.504 33.3809C142.164 33.0636 141.858 32.5876 141.586 31.9529L139.886 28.0089H128.19L126.524 31.9529C126.229 32.6102 125.923 33.0862 125.606 33.3809C125.289 33.6756 124.835 33.8229 124.246 33.8229ZM134.004 14.3069L129.686 24.5409H138.39L134.072 14.3069H134.004ZM172.955 33.8909C170.394 33.8909 168.365 33.3016 166.869 32.1229C165.396 30.9216 164.659 29.3576 164.659 27.4309C164.659 25.8896 165.09 24.5522 165.951 23.4189C166.813 22.2629 168.003 21.2316 169.521 20.3249L169.725 20.2229C168.841 19.2936 168.207 18.4096 167.821 17.5709C167.436 16.7096 167.243 15.8369 167.243 14.9529C167.243 13.2529 167.844 11.8816 169.045 10.8389C170.269 9.77357 171.879 9.2409 173.873 9.2409C175.732 9.2409 177.205 9.7169 178.293 10.6689C179.381 11.5982 179.925 12.8676 179.925 14.4769C179.925 15.7009 179.574 16.8342 178.871 17.8769C178.191 18.8969 177.047 19.8829 175.437 20.8349L180.027 25.7309C180.707 24.3256 181.183 22.6142 181.455 20.5969C181.637 19.4636 182.249 18.8969 183.291 18.8969C184.538 18.8969 185.093 19.5316 184.957 20.8009C184.799 22.2516 184.504 23.6002 184.073 24.8469C183.665 26.0936 183.155 27.2156 182.543 28.2129L185.331 31.0349C185.762 31.4656 185.977 31.8962 185.977 32.3269C185.977 32.7576 185.807 33.1202 185.467 33.4149C185.15 33.6869 184.708 33.8229 184.141 33.8229C183.643 33.8229 183.235 33.7322 182.917 33.5509C182.6 33.3469 182.249 33.0522 181.863 32.6669L180.231 30.9669C179.257 31.8736 178.146 32.5876 176.899 33.1089C175.653 33.6302 174.338 33.8909 172.955 33.8909ZM173.873 12.2669C173.057 12.2669 172.4 12.5049 171.901 12.9809C171.403 13.4342 171.153 14.0576 171.153 14.8509C171.153 15.4402 171.289 15.9956 171.561 16.5169C171.856 17.0156 172.366 17.6729 173.091 18.4889C174.293 17.7862 175.131 17.1516 175.607 16.5849C176.106 16.0182 176.355 15.3722 176.355 14.6469C176.355 13.8762 176.129 13.2869 175.675 12.8789C175.222 12.4709 174.621 12.2669 173.873 12.2669ZM173.193 30.5249C175.029 30.5249 176.582 29.8902 177.851 28.6209L172.071 22.6369C170.915 23.2942 170.088 23.9629 169.589 24.6429C169.113 25.3229 168.875 26.1389 168.875 27.0909C168.875 28.1562 169.238 28.9949 169.963 29.6069C170.711 30.2189 171.788 30.5249 173.193 30.5249ZM216.784 33.8909C214.472 33.8909 212.443 33.3809 210.698 32.3609C208.975 31.3409 207.638 29.9129 206.686 28.0769C205.734 26.2182 205.258 24.0422 205.258 21.5489C205.258 19.0329 205.734 16.8569 206.686 15.0209C207.638 13.1849 208.975 11.7682 210.698 10.7709C212.42 9.7509 214.449 9.2409 216.784 9.2409C219.118 9.2409 221.147 9.7509 222.87 10.7709C224.592 11.7682 225.93 13.1849 226.882 15.0209C227.834 16.8569 228.31 19.0216 228.31 21.5149C228.31 24.0309 227.834 26.2182 226.882 28.0769C225.93 29.9129 224.592 31.3409 222.87 32.3609C221.147 33.3809 219.118 33.8909 216.784 33.8909ZM216.784 30.1509C218.982 30.1509 220.694 29.3916 221.918 27.8729C223.142 26.3542 223.754 24.2462 223.754 21.5489C223.754 18.8289 223.142 16.7209 221.918 15.2249C220.716 13.7289 219.005 12.9809 216.784 12.9809C214.585 12.9809 212.874 13.7289 211.65 15.2249C210.426 16.7209 209.814 18.8289 209.814 21.5489C209.814 24.2462 210.426 26.3542 211.65 27.8729C212.874 29.3916 214.585 30.1509 216.784 30.1509ZM246.097 33.8909C242.81 33.8909 240.294 33.0409 238.549 31.3409C236.826 29.6182 235.965 27.0796 235.965 23.7249V11.5189C235.965 10.0456 236.69 9.3089 238.141 9.3089C239.592 9.3089 240.317 10.0456 240.317 11.5189V23.6909C240.317 25.8442 240.804 27.4649 241.779 28.5529C242.776 29.6182 244.216 30.1509 246.097 30.1509C249.928 30.1509 251.843 27.9976 251.843 23.6909V11.5189C251.843 10.0456 252.568 9.3089 254.019 9.3089C255.447 9.3089 256.161 10.0456 256.161 11.5189V23.7249C256.161 27.0796 255.311 29.6182 253.611 31.3409C251.911 33.0409 249.406 33.8909 246.097 33.8909ZM272.593 33.8229C271.142 33.8229 270.417 33.0749 270.417 31.5789V13.2189H263.787C262.54 13.2189 261.917 12.6069 261.917 11.3829C261.917 10.1816 262.54 9.5809 263.787 9.5809H281.399C282.645 9.5809 283.269 10.1816 283.269 11.3829C283.269 12.6069 282.645 13.2189 281.399 13.2189H274.769V31.5789C274.769 33.0749 274.043 33.8229 272.593 33.8229ZM291.33 33.8229C289.879 33.8229 289.154 33.0749 289.154 31.5789V11.7909C289.154 10.3176 289.89 9.5809 291.364 9.5809H299.558C302.187 9.5809 304.216 10.2156 305.644 11.4849C307.072 12.7316 307.786 14.4882 307.786 16.7549C307.786 18.5456 307.321 20.0302 306.392 21.2089C305.462 22.3649 304.125 23.1469 302.38 23.5549C303.536 23.9176 304.488 24.7902 305.236 26.1729L307.786 30.8989C308.171 31.6242 308.239 32.2929 307.99 32.9049C307.763 33.5169 307.185 33.8229 306.256 33.8229C305.644 33.8229 305.145 33.6982 304.76 33.4489C304.374 33.1769 304.034 32.7689 303.74 32.2249L300.306 25.9009C299.898 25.1302 299.41 24.6202 298.844 24.3709C298.3 24.0989 297.597 23.9629 296.736 23.9629H293.506V31.5789C293.506 33.0749 292.78 33.8229 291.33 33.8229ZM293.506 20.7329H298.81C301.983 20.7329 303.57 19.4409 303.57 16.8569C303.57 14.2956 301.983 13.0149 298.81 13.0149H293.506V20.7329ZM318.174 33.5509C316.633 33.5509 315.862 32.7802 315.862 31.2389V11.8929C315.862 10.3516 316.633 9.5809 318.174 9.5809H330.312C331.491 9.5809 332.08 10.1476 332.08 11.2809C332.08 12.4596 331.491 13.0489 330.312 13.0489H320.044V19.6449H329.564C330.743 19.6449 331.332 20.2229 331.332 21.3789C331.332 22.5349 330.743 23.1129 329.564 23.1129H320.044V30.0829H330.312C331.491 30.0829 332.08 30.6609 332.08 31.8169C332.08 32.9729 331.491 33.5509 330.312 33.5509H318.174ZM339.356 33.8229C338.562 33.8229 337.996 33.5509 337.656 33.0069C337.316 32.4629 337.327 31.8056 337.69 31.0349L346.666 11.1449C346.96 10.4876 347.312 10.0229 347.72 9.7509C348.15 9.45623 348.638 9.3089 349.182 9.3089C349.703 9.3089 350.168 9.45623 350.576 9.7509C351.006 10.0229 351.369 10.4876 351.664 11.1449L360.674 31.0349C361.036 31.8282 361.059 32.4969 360.742 33.0409C360.424 33.5622 359.88 33.8229 359.11 33.8229C358.475 33.8229 357.976 33.6756 357.614 33.3809C357.274 33.0636 356.968 32.5876 356.696 31.9529L354.996 28.0089H343.3L341.634 31.9529C341.339 32.6102 341.033 33.0862 340.716 33.3809C340.398 33.6756 339.945 33.8229 339.356 33.8229ZM349.114 14.3069L344.796 24.5409H353.5L349.182 14.3069H349.114ZM378.473 33.8909C375.979 33.8909 373.837 33.3922 372.047 32.3949C370.279 31.3749 368.919 29.9469 367.967 28.1109C367.015 26.2522 366.539 24.0649 366.539 21.5489C366.539 19.0329 367.015 16.8569 367.967 15.0209C368.919 13.1849 370.279 11.7682 372.047 10.7709C373.837 9.7509 375.979 9.2409 378.473 9.2409C379.719 9.2409 380.943 9.39957 382.145 9.7169C383.346 10.0342 384.4 10.4876 385.307 11.0769C385.896 11.4622 386.247 11.9269 386.361 12.4709C386.474 12.9922 386.406 13.4796 386.157 13.9329C385.907 14.3636 385.533 14.6582 385.035 14.8169C384.536 14.9529 383.981 14.8169 383.369 14.4089C382.666 13.9556 381.907 13.6269 381.091 13.4229C380.275 13.2189 379.447 13.1169 378.609 13.1169C376.183 13.1169 374.336 13.8536 373.067 15.3269C371.797 16.7776 371.163 18.8516 371.163 21.5489C371.163 24.2462 371.797 26.3316 373.067 27.8049C374.336 29.2782 376.183 30.0149 378.609 30.0149C379.47 30.0149 380.32 29.9129 381.159 29.7089C381.997 29.4822 382.791 29.1422 383.539 28.6889C384.151 28.3036 384.695 28.1789 385.171 28.3149C385.647 28.4509 385.998 28.7342 386.225 29.1649C386.474 29.5729 386.553 30.0262 386.463 30.5249C386.372 31.0236 386.066 31.4656 385.545 31.8509C384.638 32.5082 383.55 33.0182 382.281 33.3809C381.034 33.7209 379.765 33.8909 378.473 33.8909ZM396.006 33.8229C394.555 33.8229 393.83 33.0749 393.83 31.5789V11.5529C393.83 10.0569 394.555 9.3089 396.006 9.3089C397.457 9.3089 398.182 10.0569 398.182 11.5529V19.5769H410.524V11.5529C410.524 10.0569 411.249 9.3089 412.7 9.3089C414.151 9.3089 414.876 10.0569 414.876 11.5529V31.5789C414.876 33.0749 414.151 33.8229 412.7 33.8229C411.249 33.8229 410.524 33.0749 410.524 31.5789V23.2149H398.182V31.5789C398.182 33.0749 397.457 33.8229 396.006 33.8229Z" fill="#0EB29F"/>
<path d="M28.5432 9.6489L28.2945 9.99703L28.3084 10.007L28.3231 10.0158L28.5432 9.6489ZM29.4612 10.7369L29.0819 10.9348L29.0849 10.9405L29.4612 10.7369ZM37.3152 25.2549L36.9389 25.4585L37.3152 26.154L37.6915 25.4585L37.3152 25.2549ZM45.1692 10.7369L45.5455 10.9405L45.5485 10.9348L45.1692 10.7369ZM46.0532 9.6489L46.2846 10.0088L46.2934 10.0031L46.3019 9.99703L46.0532 9.6489ZM45.4072 17.4009H45.835L45.032 17.1953L45.4072 17.4009ZM39.0152 29.0629L39.3841 29.2799L39.3904 29.2685L39.0152 29.0629ZM38.3012 29.9129L38.5528 30.2589L38.5528 30.2589L38.3012 29.9129ZM36.2272 29.9129L35.9705 30.2552L35.98 30.2623L35.9899 30.2689L36.2272 29.9129ZM35.5132 29.0629L35.1385 29.2695L35.1403 29.2726L35.5132 29.0629ZM29.1212 17.4689L29.4959 17.2623L28.6934 17.4689H29.1212ZM27.1492 33.3951C26.5616 33.3951 26.1986 33.2439 25.9778 33.0156C25.7545 32.7845 25.605 32.4005 25.605 31.7829H24.7494C24.7494 32.5253 24.9286 33.1613 25.3626 33.6102C25.7992 34.0619 26.4222 34.2507 27.1492 34.2507V33.3951ZM25.605 31.7829V11.3489H24.7494V31.7829H25.605ZM25.605 11.3489C25.605 10.7348 25.7583 10.3529 25.9897 10.1214C26.2212 9.88995 26.6032 9.73672 27.2172 9.73672V8.88108C26.4713 8.88108 25.8332 9.06786 25.3847 9.51639C24.9362 9.96492 24.7494 10.603 24.7494 11.3489H25.605ZM27.2172 9.73672C27.7334 9.73672 28.0759 9.84087 28.2945 9.99703L28.7919 9.30077C28.3758 9.0036 27.8344 8.88108 27.2172 8.88108V9.73672ZM28.3231 10.0158C28.5704 10.1641 28.8299 10.4518 29.0819 10.9348L29.8405 10.539C29.5485 9.97932 29.1961 9.54169 28.7633 9.28205L28.3231 10.0158ZM29.0849 10.9405L36.9389 25.4585L37.6915 25.0513L29.8375 10.5333L29.0849 10.9405ZM37.6915 25.4585L45.5455 10.9405L44.7929 10.5333L36.9389 25.0513L37.6915 25.4585ZM45.5485 10.9348C45.8036 10.4458 46.0554 10.1561 46.2846 10.0088L45.8219 9.28903C45.4164 9.54969 45.0788 9.9853 44.7899 10.539L45.5485 10.9348ZM46.3019 9.99703C46.5205 9.84087 46.8631 9.73672 47.3792 9.73672V8.88108C46.762 8.88108 46.2206 9.0036 45.8045 9.30077L46.3019 9.99703ZM47.3792 9.73672C47.9668 9.73672 48.3299 9.88789 48.5506 10.1162C48.774 10.3473 48.9234 10.7313 48.9234 11.3489H49.779C49.779 10.6065 49.5998 9.9705 49.1658 9.52156C48.7292 9.06991 48.1062 8.88108 47.3792 8.88108V9.73672ZM48.9234 11.3489V31.7829H49.779V11.3489H48.9234ZM48.9234 31.7829C48.9234 32.4005 48.774 32.7845 48.5506 33.0156C48.3299 33.2439 47.9668 33.3951 47.3792 33.3951V34.2507C48.1062 34.2507 48.7292 34.0619 49.1658 33.6102C49.5998 33.1613 49.779 32.5253 49.779 31.7829H48.9234ZM47.3792 33.3951C46.7916 33.3951 46.4286 33.2439 46.2078 33.0156C45.9845 32.7845 45.835 32.4005 45.835 31.7829H44.9794C44.9794 32.5253 45.1586 33.1613 45.5926 33.6102C46.0292 34.0619 46.6522 34.2507 47.3792 34.2507V33.3951ZM45.835 31.7829V17.4009H44.9794V31.7829H45.835ZM45.032 17.1953L38.64 28.8573L39.3904 29.2685L45.7824 17.6065L45.032 17.1953ZM38.6465 28.846C38.4372 29.2017 38.2351 29.432 38.0496 29.5669L38.5528 30.2589C38.866 30.0311 39.1398 29.6948 39.384 29.2798L38.6465 28.846ZM38.0496 29.5669C37.8973 29.6777 37.6564 29.7571 37.2812 29.7571V30.6127C37.7674 30.6127 38.2065 30.5108 38.5528 30.2589L38.0496 29.5669ZM37.2812 29.7571C36.9086 29.7571 36.6471 29.6787 36.4645 29.5569L35.9899 30.2689C36.3513 30.5098 36.7925 30.6127 37.2812 30.6127V29.7571ZM36.4839 29.5706C36.2688 29.4093 36.0673 29.1754 35.8861 28.8532L35.1403 29.2726C35.3671 29.6758 35.6416 30.0085 35.9705 30.2552L36.4839 29.5706ZM35.8879 28.8563L29.4959 17.2623L28.7466 17.6755L35.1386 29.2695L35.8879 28.8563ZM28.6934 17.4689V31.7829H29.549V17.4689H28.6934ZM28.6934 31.7829C28.6934 32.4005 28.544 32.7845 28.3206 33.0156C28.0999 33.2439 27.7368 33.3951 27.1492 33.3951V34.2507C27.8762 34.2507 28.4992 34.0619 28.9358 33.6102C29.3698 33.1613 29.549 32.5253 29.549 31.7829H28.6934ZM62.2088 13.0489V12.6211H61.781V13.0489H62.2088ZM62.2088 19.6449H61.781V20.0727H62.2088V19.6449ZM62.2088 23.1129V22.6851H61.781V23.1129H62.2088ZM62.2088 30.0829H61.781V30.5107H62.2088V30.0829ZM60.3388 33.1231C59.6341 33.1231 59.1841 32.9472 58.9073 32.6704C58.6305 32.3936 58.4546 31.9436 58.4546 31.2389H57.599C57.599 32.0755 57.8084 32.7816 58.3023 33.2754C58.7961 33.7693 59.5022 33.9787 60.3388 33.9787V33.1231ZM58.4546 31.2389V11.8929H57.599V31.2389H58.4546ZM58.4546 11.8929C58.4546 11.1882 58.6305 10.7382 58.9073 10.4614C59.1841 10.1846 59.6341 10.0087 60.3388 10.0087V9.15308C59.5022 9.15308 58.7961 9.36252 58.3023 9.85639C57.8084 10.3502 57.599 11.0563 57.599 11.8929H58.4546ZM60.3388 10.0087H72.4768V9.15308H60.3388V10.0087ZM72.4768 10.0087C73.0043 10.0087 73.3206 10.1358 73.5063 10.3143C73.6888 10.4898 73.817 10.7845 73.817 11.2809H74.6726C74.6726 10.6439 74.5061 10.0887 74.0993 9.69751C73.6957 9.30938 73.128 9.15308 72.4768 9.15308V10.0087ZM73.817 11.2809C73.817 11.8043 73.6864 12.1182 73.5003 12.3044C73.3141 12.4905 73.0002 12.6211 72.4768 12.6211V13.4767C73.1321 13.4767 73.7021 13.3126 74.1053 12.9094C74.5085 12.5062 74.6726 11.9362 74.6726 11.2809H73.817ZM72.4768 12.6211H62.2088V13.4767H72.4768V12.6211ZM61.781 13.0489V19.6449H62.6366V13.0489H61.781ZM62.2088 20.0727H71.7288V19.2171H62.2088V20.0727ZM71.7288 20.0727C72.2542 20.0727 72.5694 20.2015 72.7552 20.3838C72.9396 20.5646 73.069 20.869 73.069 21.3789H73.9246C73.9246 20.7328 73.7593 20.1702 73.3544 19.773C72.9509 19.3773 72.382 19.2171 71.7288 19.2171V20.0727ZM73.069 21.3789C73.069 21.8888 72.9396 22.1932 72.7552 22.374C72.5694 22.5563 72.2542 22.6851 71.7288 22.6851V23.5407C72.382 23.5407 72.9509 23.3805 73.3544 22.9848C73.7593 22.5876 73.9246 22.025 73.9246 21.3789H73.069ZM71.7288 22.6851H62.2088V23.5407H71.7288V22.6851ZM61.781 23.1129V30.0829H62.6366V23.1129H61.781ZM62.2088 30.5107H72.4768V29.6551H62.2088V30.5107ZM72.4768 30.5107C73.0022 30.5107 73.3174 30.6395 73.5032 30.8218C73.6876 31.0026 73.817 31.307 73.817 31.8169H74.6726C74.6726 31.1708 74.5073 30.6082 74.1024 30.211C73.6989 29.8153 73.13 29.6551 72.4768 29.6551V30.5107ZM73.817 31.8169C73.817 32.3268 73.6876 32.6312 73.5032 32.812C73.3174 32.9943 73.0022 33.1231 72.4768 33.1231V33.9787C73.13 33.9787 73.6989 33.8185 74.1024 33.4228C74.5073 33.0256 74.6726 32.463 74.6726 31.8169H73.817ZM72.4768 33.1231H60.3388V33.9787H72.4768V33.1231ZM99.9039 12.6749L99.6096 12.9854L99.6112 12.9869L99.9039 12.6749ZM99.9039 30.4229L99.6095 30.1125L99.6079 30.114L99.9039 30.4229ZM86.0659 29.9469H85.6381V30.3747H86.0659V29.9469ZM86.0659 13.1849V12.7571H85.6381V13.1849H86.0659ZM84.0259 33.1231C83.3212 33.1231 82.8712 32.9472 82.5944 32.6704C82.3176 32.3936 82.1417 31.9436 82.1417 31.2389H81.2861C81.2861 32.0755 81.4955 32.7816 81.9894 33.2754C82.4832 33.7693 83.1893 33.9787 84.0259 33.9787V33.1231ZM82.1417 31.2389V11.8929H81.2861V31.2389H82.1417ZM82.1417 11.8929C82.1417 11.1882 82.3176 10.7382 82.5944 10.4614C82.8712 10.1846 83.3212 10.0087 84.0259 10.0087V9.15308C83.1893 9.15308 82.4832 9.36252 81.9894 9.85639C81.4955 10.3502 81.2861 11.0563 81.2861 11.8929H82.1417ZM84.0259 10.0087H90.6219V9.15308H84.0259V10.0087ZM90.6219 10.0087C94.5623 10.0087 97.5368 11.0206 99.6096 12.9854L100.198 12.3644C97.9189 10.2038 94.7055 9.15308 90.6219 9.15308V10.0087ZM99.6112 12.9869C101.701 14.9476 102.774 17.779 102.774 21.5489H103.63C103.63 17.6122 102.504 14.5275 100.197 12.3629L99.6112 12.9869ZM102.774 21.5489C102.774 25.2951 101.702 28.1281 99.6095 30.1125L100.198 30.7333C102.503 28.547 103.63 25.4641 103.63 21.5489H102.774ZM99.6079 30.114C97.535 32.1005 94.5611 33.1231 90.6219 33.1231V33.9787C94.7067 33.9787 97.9208 32.916 100.2 30.7318L99.6079 30.114ZM90.6219 33.1231H84.0259V33.9787H90.6219V33.1231ZM86.0659 30.3747H90.3499V29.5191H86.0659V30.3747ZM90.3499 30.3747C93.1825 30.3747 95.3853 29.6574 96.8763 28.1481C98.3663 26.6397 99.0737 24.4129 99.0737 21.5489H98.2181C98.2181 24.2836 97.5428 26.2558 96.2675 27.5467C94.9932 28.8367 93.048 29.5191 90.3499 29.5191V30.3747ZM99.0737 21.5489C99.0737 18.6958 98.3661 16.4773 96.8756 14.9746C95.3846 13.4713 93.1821 12.7571 90.3499 12.7571V13.6127C93.0484 13.6127 94.9939 14.2925 96.2682 15.5772C97.5431 16.8625 98.2181 18.826 98.2181 21.5489H99.0737ZM90.3499 12.7571H86.0659V13.6127H90.3499V12.7571ZM85.6381 13.1849V29.9469H86.4937V13.1849H85.6381ZM113.188 33.3951C112.532 33.3951 112.118 33.2267 111.863 32.9641C111.606 32.699 111.44 32.2642 111.44 31.5789H110.585C110.585 32.3896 110.781 33.0768 111.249 33.5597C111.72 34.0451 112.394 34.2507 113.188 34.2507V33.3951ZM111.44 31.5789V11.5529H110.585V31.5789H111.44ZM111.44 11.5529C111.44 10.8676 111.606 10.4328 111.863 10.1677C112.118 9.90509 112.532 9.73672 113.188 9.73672V8.88108C112.394 8.88108 111.72 9.08671 111.249 9.57208C110.781 10.055 110.585 10.7422 110.585 11.5529H111.44ZM113.188 9.73672C113.844 9.73672 114.259 9.90509 114.513 10.1677C114.77 10.4328 114.937 10.8676 114.937 11.5529H115.792C115.792 10.7422 115.596 10.055 115.127 9.57208C114.657 9.08671 113.983 8.88108 113.188 8.88108V9.73672ZM114.937 11.5529V31.5789H115.792V11.5529H114.937ZM114.937 31.5789C114.937 32.2642 114.77 32.699 114.513 32.9641C114.259 33.2267 113.844 33.3951 113.188 33.3951V34.2507C113.983 34.2507 114.657 34.0451 115.127 33.5597C115.596 33.0768 115.792 32.3896 115.792 31.5789H114.937ZM122.546 33.0069L122.183 33.2336L122.546 33.0069ZM122.58 31.0349L122.967 31.2171L122.97 31.2109L122.58 31.0349ZM131.556 11.1449L131.946 11.3209L131.946 11.3199L131.556 11.1449ZM132.61 9.7509L132.847 10.1069L132.852 10.104L132.61 9.7509ZM135.466 9.7509L135.216 10.0977L135.226 10.1055L135.238 10.1126L135.466 9.7509ZM136.554 11.1449L136.164 11.3199L136.164 11.3214L136.554 11.1449ZM145.564 31.0349L145.174 31.2114L145.175 31.2128L145.564 31.0349ZM145.632 33.0409L145.998 33.2634L146.002 33.2565L145.632 33.0409ZM142.504 33.3809L142.212 33.6937L142.223 33.7037L142.234 33.7129L142.504 33.3809ZM141.586 31.9529L141.979 31.7844L141.979 31.7836L141.586 31.9529ZM139.886 28.0089L140.279 27.8396L140.168 27.5811H139.886V28.0089ZM128.19 28.0089V27.5811H127.906L127.796 27.8424L128.19 28.0089ZM126.524 31.9529L126.915 32.1279L126.918 32.1194L126.524 31.9529ZM125.606 33.3809L125.315 33.0674L125.315 33.0674L125.606 33.3809ZM134.004 14.3069V13.8791H133.72L133.61 14.1406L134.004 14.3069ZM129.686 24.5409L129.292 24.3746L129.041 24.9687H129.686V24.5409ZM138.39 24.5409V24.9687H139.035L138.784 24.3746L138.39 24.5409ZM134.072 14.3069L134.466 14.1406L134.356 13.8791H134.072V14.3069ZM124.246 33.3951C123.56 33.3951 123.151 33.1684 122.909 32.7802L122.183 33.2336C122.621 33.9334 123.345 34.2507 124.246 34.2507V33.3951ZM122.909 32.7802C122.67 32.3987 122.644 31.9043 122.967 31.2171L122.193 30.8527C121.791 31.7068 121.742 32.5271 122.183 33.2336L122.909 32.7802ZM122.97 31.2109L131.946 11.3209L131.166 10.9689L122.19 30.8589L122.97 31.2109ZM131.946 11.3199C132.223 10.7037 132.531 10.3179 132.847 10.1069L132.373 9.39493C131.873 9.72793 131.479 10.2715 131.166 10.9699L131.946 11.3199ZM132.852 10.104C133.208 9.86015 133.61 9.73672 134.072 9.73672V8.88108C133.446 8.88108 132.873 9.05232 132.368 9.39782L132.852 10.104ZM134.072 9.73672C134.507 9.73672 134.883 9.8577 135.216 10.0977L135.717 9.40408C135.233 9.05477 134.68 8.88108 134.072 8.88108V9.73672ZM135.238 10.1126C135.573 10.3246 135.89 10.7089 136.164 11.3199L136.944 10.9699C136.629 10.2663 136.22 9.72117 135.694 9.38918L135.238 10.1126ZM136.164 11.3214L145.174 31.2114L145.954 30.8584L136.944 10.9684L136.164 11.3214ZM145.175 31.2128C145.504 31.9323 145.485 32.4441 145.262 32.8253L146.002 33.2565C146.414 32.5497 146.35 31.7242 145.953 30.857L145.175 31.2128ZM145.267 32.8185C145.048 33.178 144.666 33.3951 144 33.3951V34.2507C144.875 34.2507 145.582 33.9465 145.997 33.2633L145.267 32.8185ZM144 33.3951C143.429 33.3951 143.037 33.2626 142.774 33.0489L142.234 33.7129C142.697 34.0886 143.302 34.2507 144 34.2507V33.3951ZM142.796 33.0681C142.515 32.8061 142.238 32.3886 141.979 31.7844L141.193 32.1214C141.478 32.7866 141.813 33.3211 142.212 33.6937L142.796 33.0681ZM141.979 31.7836L140.279 27.8396L139.493 28.1782L141.193 32.1222L141.979 31.7836ZM139.886 27.5811H128.19V28.4367H139.886V27.5811ZM127.796 27.8424L126.13 31.7864L126.918 32.1194L128.584 28.1754L127.796 27.8424ZM126.134 31.7779C125.849 32.4131 125.571 32.8293 125.315 33.0674L125.897 33.6944C126.275 33.3432 126.61 32.8074 126.914 32.1279L126.134 31.7779ZM125.315 33.0674C125.102 33.2655 124.767 33.3951 124.246 33.3951V34.2507C124.904 34.2507 125.476 34.0856 125.897 33.6944L125.315 33.0674ZM133.61 14.1406L129.292 24.3746L130.08 24.7072L134.398 14.4732L133.61 14.1406ZM129.686 24.9687H138.39V24.1131H129.686V24.9687ZM138.784 24.3746L134.466 14.1406L133.678 14.4732L137.996 24.7072L138.784 24.3746ZM134.072 13.8791H134.004V14.7347H134.072V13.8791ZM166.869 32.1229L166.599 32.4545L166.605 32.459L166.869 32.1229ZM165.951 23.4189L166.292 23.6778L166.294 23.6745L165.951 23.4189ZM169.521 20.3249L169.33 19.9422L169.316 19.9494L169.302 19.9576L169.521 20.3249ZM169.725 20.2229L169.917 20.6056L170.434 20.347L170.035 19.928L169.725 20.2229ZM167.821 17.5709L167.431 17.7456L167.433 17.7495L167.821 17.5709ZM169.045 10.8389L169.326 11.162L169.326 11.1616L169.045 10.8389ZM178.293 10.6689L178.012 10.9909L178.015 10.9942L178.293 10.6689ZM178.871 17.8769L178.517 17.6378L178.515 17.6396L178.871 17.8769ZM175.437 20.8349L175.219 20.4667L174.76 20.7383L175.125 21.1275L175.437 20.8349ZM180.027 25.7309L179.715 26.0235L180.141 26.4779L180.412 25.9172L180.027 25.7309ZM181.455 20.5969L181.033 20.5293L181.031 20.5397L181.455 20.5969ZM184.957 20.8009L185.383 20.8474L185.383 20.8465L184.957 20.8009ZM184.073 24.8469L183.669 24.7072L183.667 24.7138L184.073 24.8469ZM182.543 28.2129L182.179 27.9891L182.003 28.275L182.239 28.5136L182.543 28.2129ZM185.331 31.0349L185.027 31.3356L185.029 31.3374L185.331 31.0349ZM185.467 33.4149L185.746 33.7397L185.747 33.7382L185.467 33.4149ZM182.917 33.5509L182.686 33.9108L182.695 33.9168L182.705 33.9224L182.917 33.5509ZM181.863 32.6669L181.555 32.9632L181.561 32.9694L181.863 32.6669ZM180.231 30.9669L180.54 30.6706L180.248 30.3668L179.94 30.6537L180.231 30.9669ZM176.899 33.1089L177.064 33.5036L176.899 33.1089ZM171.901 12.9809L172.189 13.2976L172.197 13.2904L171.901 12.9809ZM171.561 16.5169L171.182 16.7148L171.187 16.7248L171.193 16.7345L171.561 16.5169ZM173.091 18.4889L172.772 18.7731L173.005 19.0353L173.307 18.8582L173.091 18.4889ZM175.607 16.5849L175.286 16.3022L175.28 16.3097L175.607 16.5849ZM175.675 12.8789L175.389 13.1969L175.389 13.1969L175.675 12.8789ZM177.851 28.6209L178.154 28.9234L178.451 28.6261L178.159 28.3237L177.851 28.6209ZM172.071 22.6369L172.379 22.3397L172.148 22.1009L171.86 22.265L172.071 22.6369ZM169.589 24.6429L169.244 24.3898L169.239 24.3976L169.589 24.6429ZM169.963 29.6069L169.687 29.9339L169.692 29.938L169.963 29.6069ZM172.955 33.4631C170.457 33.4631 168.532 32.8885 167.134 31.7869L166.605 32.459C168.198 33.7147 170.331 34.3187 172.955 34.3187V33.4631ZM167.14 31.7913C165.768 30.6725 165.087 29.231 165.087 27.4309H164.231C164.231 29.4841 165.024 31.1706 166.599 32.4545L167.14 31.7913ZM165.087 27.4309C165.087 25.9749 165.492 24.7304 166.292 23.6778L165.611 23.16C164.688 24.3741 164.231 25.8043 164.231 27.4309H165.087ZM166.294 23.6745C167.115 22.5725 168.259 21.5765 169.741 20.6922L169.302 19.9576C167.746 20.8867 166.51 21.9533 165.608 23.1633L166.294 23.6745ZM169.713 20.7076L169.917 20.6056L169.534 19.8402L169.33 19.9422L169.713 20.7076ZM170.035 19.928C169.172 19.0206 168.57 18.175 168.21 17.3923L167.433 17.7495C167.844 18.6441 168.511 19.5666 169.415 20.5178L170.035 19.928ZM168.212 17.3962C167.849 16.5861 167.671 15.7727 167.671 14.9529H166.815C166.815 15.9011 167.023 16.8331 167.431 17.7456L168.212 17.3962ZM167.671 14.9529C167.671 13.3672 168.225 12.1173 169.326 11.162L168.765 10.5158C167.463 11.6459 166.815 13.1386 166.815 14.9529H167.671ZM169.326 11.1616C170.456 10.1786 171.957 9.66872 173.873 9.66872V8.81308C171.8 8.81308 170.083 9.36849 168.764 10.5162L169.326 11.1616ZM173.873 9.66872C175.659 9.66872 177.022 10.1248 178.012 10.9909L178.575 10.3469C177.389 9.30905 175.805 8.81308 173.873 8.81308V9.66872ZM178.015 10.9942C178.996 11.8315 179.497 12.9752 179.497 14.4769H180.353C180.353 12.7599 179.767 11.3649 178.571 10.3436L178.015 10.9942ZM179.497 14.4769C179.497 15.6133 179.173 16.6637 178.517 17.6378L179.226 18.116C179.975 17.0047 180.353 15.7885 180.353 14.4769H179.497ZM178.515 17.6396C177.885 18.5855 176.8 19.5318 175.219 20.4667L175.655 21.2031C177.293 20.234 178.498 19.2083 179.227 18.1142L178.515 17.6396ZM175.125 21.1275L179.715 26.0235L180.339 25.4383L175.749 20.5423L175.125 21.1275ZM180.412 25.9172C181.117 24.461 181.603 22.7034 181.879 20.6541L181.031 20.5397C180.764 22.5251 180.298 24.1902 179.642 25.5446L180.412 25.9172ZM181.878 20.6645C181.959 20.1573 182.127 19.8335 182.341 19.6358C182.549 19.4428 182.85 19.3247 183.291 19.3247V18.4691C182.69 18.4691 182.163 18.6343 181.76 19.008C181.361 19.377 181.133 19.9032 181.033 20.5293L181.878 20.6645ZM183.291 19.3247C183.851 19.3247 184.157 19.4673 184.321 19.6546C184.487 19.8446 184.594 20.1786 184.532 20.7553L185.383 20.8465C185.457 20.1539 185.354 19.5359 184.965 19.0912C184.573 18.6438 183.978 18.4691 183.291 18.4691V19.3247ZM184.532 20.7544C184.376 22.1766 184.088 23.4937 183.669 24.7072L184.478 24.9866C184.92 23.7067 185.221 22.3265 185.383 20.8474L184.532 20.7544ZM183.667 24.7138C183.268 25.9325 182.771 27.0235 182.179 27.9891L182.908 28.4367C183.539 27.4077 184.063 26.2546 184.48 24.98L183.667 24.7138ZM182.239 28.5136L185.027 31.3356L185.636 30.7342L182.848 27.9122L182.239 28.5136ZM185.029 31.3374C185.413 31.7215 185.549 32.0497 185.549 32.3269H186.405C186.405 31.7428 186.111 31.2097 185.634 30.7324L185.029 31.3374ZM185.549 32.3269C185.549 32.6273 185.438 32.8741 185.187 33.0916L185.747 33.7382C186.176 33.3664 186.405 32.8878 186.405 32.3269H185.549ZM185.189 33.0901C184.973 33.2752 184.642 33.3951 184.141 33.3951V34.2507C184.774 34.2507 185.327 34.0986 185.746 33.7397L185.189 33.0901ZM184.141 33.3951C183.691 33.3951 183.363 33.3128 183.13 33.1795L182.705 33.9224C183.106 34.1517 183.594 34.2507 184.141 34.2507V33.3951ZM183.149 33.191C182.866 33.0091 182.538 32.7368 182.166 32.3644L181.561 32.9694C181.959 33.3677 182.334 33.6847 182.686 33.9108L183.149 33.191ZM182.172 32.3706L180.54 30.6706L179.923 31.2632L181.555 32.9632L182.172 32.3706ZM179.94 30.6537C179.003 31.5254 177.935 32.2121 176.734 32.7142L177.064 33.5036C178.357 32.9631 179.51 32.2217 180.523 31.2801L179.94 30.6537ZM176.734 32.7142C175.541 33.2132 174.283 33.4631 172.955 33.4631V34.3187C174.393 34.3187 175.764 34.0473 177.064 33.5036L176.734 32.7142ZM173.873 11.8391C172.969 11.8391 172.198 12.1058 171.606 12.6714L172.197 13.2904C172.601 12.904 173.146 12.6947 173.873 12.6947V11.8391ZM171.613 12.6643C171.01 13.2132 170.725 13.9604 170.725 14.8509H171.581C171.581 14.1548 171.796 13.6552 172.189 13.2975L171.613 12.6643ZM170.725 14.8509C170.725 15.509 170.878 16.1322 171.182 16.7148L171.941 16.319C171.701 15.8589 171.581 15.3715 171.581 14.8509H170.725ZM171.193 16.7345C171.509 17.2693 172.041 17.9512 172.772 18.7731L173.411 18.2047C172.691 17.3946 172.203 16.7618 171.93 16.2993L171.193 16.7345ZM173.307 18.8582C174.52 18.1486 175.411 17.4841 175.935 16.8601L175.28 16.3097C174.852 16.819 174.065 17.4239 172.875 18.1196L173.307 18.8582ZM175.928 16.8675C176.493 16.2262 176.783 15.4808 176.783 14.6469H175.927C175.927 15.2637 175.719 15.8102 175.286 16.3023L175.928 16.8675ZM176.783 14.6469C176.783 13.7892 176.528 13.0704 175.961 12.5609L175.389 13.1969C175.73 13.5034 175.927 13.9633 175.927 14.6469H176.783ZM175.961 12.5609C175.413 12.0671 174.702 11.8391 173.873 11.8391V12.6947C174.541 12.6947 175.031 12.8747 175.389 13.1969L175.961 12.5609ZM173.193 30.9527C175.14 30.9527 176.802 30.275 178.154 28.9234L177.549 28.3184C176.362 29.5055 174.919 30.0971 173.193 30.0971V30.9527ZM178.159 28.3237L172.379 22.3397L171.764 22.9341L177.544 28.9181L178.159 28.3237ZM171.86 22.265C170.678 22.9368 169.793 23.6413 169.244 24.3899L169.934 24.8959C170.383 24.2845 171.152 23.6517 172.283 23.0088L171.86 22.265ZM169.239 24.3976C168.705 25.1597 168.447 26.0645 168.447 27.0909H169.303C169.303 26.2133 169.521 25.4861 169.94 24.8882L169.239 24.3976ZM168.447 27.0909C168.447 28.2649 168.853 29.23 169.687 29.9339L170.239 29.2799C169.623 28.7598 169.303 28.0475 169.303 27.0909H168.447ZM169.692 29.938C170.545 30.6355 171.733 30.9527 173.193 30.9527V30.0971C171.843 30.0971 170.878 29.8023 170.234 29.2758L169.692 29.938ZM210.698 32.3609L210.48 32.729L210.482 32.7303L210.698 32.3609ZM206.686 28.0769L206.305 28.2719L206.306 28.2738L206.686 28.0769ZM206.686 15.0209L207.065 15.2178L207.065 15.2178L206.686 15.0209ZM210.698 10.7709L210.912 11.1412L210.916 11.139L210.698 10.7709ZM222.87 10.7709L222.652 11.1391L222.655 11.1412L222.87 10.7709ZM226.882 15.0209L227.261 14.824L227.261 14.824L226.882 15.0209ZM226.882 28.0769L227.261 28.2738L227.262 28.2719L226.882 28.0769ZM222.87 32.3609L223.088 32.729L223.088 32.729L222.87 32.3609ZM221.918 27.8729L221.585 27.6044L221.585 27.6044L221.918 27.8729ZM221.918 15.2249L221.584 15.4928L221.587 15.4958L221.918 15.2249ZM211.65 15.2249L211.319 14.954L211.319 14.954L211.65 15.2249ZM211.65 27.8729L211.983 27.6044L211.983 27.6044L211.65 27.8729ZM216.784 33.4631C214.536 33.4631 212.584 32.968 210.914 31.9915L210.482 32.7303C212.302 33.7938 214.407 34.3187 216.784 34.3187V33.4631ZM210.916 31.9928C209.264 31.015 207.982 29.6474 207.065 27.88L206.306 28.2738C207.293 30.1785 208.686 31.6668 210.48 32.729L210.916 31.9928ZM207.066 27.8819C206.151 26.0942 205.685 23.9875 205.685 21.5489H204.83C204.83 24.097 205.317 26.3423 206.305 28.2719L207.066 27.8819ZM205.685 21.5489C205.685 19.0868 206.151 16.9812 207.065 15.2178L206.306 14.824C205.316 16.7326 204.83 18.979 204.83 21.5489H205.685ZM207.065 15.2178C207.982 13.4512 209.263 12.096 210.912 11.1412L210.483 10.4007C208.687 11.4405 207.294 12.9186 206.306 14.824L207.065 15.2178ZM210.916 11.139C212.562 10.1642 214.513 9.66872 216.784 9.66872V8.81308C214.385 8.81308 212.279 9.33761 210.48 10.4028L210.916 11.139ZM216.784 9.66872C219.055 9.66872 221.005 10.1642 222.652 11.139L223.088 10.4028C221.289 9.33761 219.182 8.81308 216.784 8.81308V9.66872ZM222.655 11.1412C224.305 12.096 225.586 13.4512 226.502 15.2178L227.261 14.824C226.274 12.9186 224.88 11.4405 223.084 10.4007L222.655 11.1412ZM226.502 15.2178C227.416 16.9817 227.882 19.0761 227.882 21.5149H228.737C228.737 18.967 228.251 16.7321 227.261 14.824L226.502 15.2178ZM227.882 21.5149C227.882 23.9768 227.416 26.0947 226.501 27.8819L227.262 28.2719C228.251 26.3418 228.737 24.085 228.737 21.5149H227.882ZM226.502 27.88C225.585 29.6474 224.303 31.015 222.652 31.9928L223.088 32.729C224.882 31.6668 226.274 30.1785 227.261 28.2738L226.502 27.88ZM222.652 31.9928C221.005 32.9676 219.055 33.4631 216.784 33.4631V34.3187C219.182 34.3187 221.289 33.7942 223.088 32.729L222.652 31.9928ZM216.784 30.5787C219.093 30.5787 220.935 29.7745 222.251 28.1414L221.585 27.6044C220.453 29.0087 218.872 29.7231 216.784 29.7231V30.5787ZM222.251 28.1414C223.556 26.5221 224.181 24.3069 224.181 21.5489H223.326C223.326 24.1855 222.728 26.1863 221.585 27.6044L222.251 28.1414ZM224.181 21.5489C224.181 18.7697 223.556 16.5523 222.249 14.954L221.587 15.4958C222.727 16.8895 223.326 18.8881 223.326 21.5489H224.181ZM222.251 14.957C220.955 13.3433 219.112 12.5531 216.784 12.5531V13.4087C218.898 13.4087 220.477 14.1145 221.584 15.4928L222.251 14.957ZM216.784 12.5531C214.477 12.5531 212.636 13.3443 211.319 14.954L211.981 15.4958C213.112 14.1135 214.693 13.4087 216.784 13.4087V12.5531ZM211.319 14.954C210.011 16.5523 209.386 18.7697 209.386 21.5489H210.241C210.241 18.8881 210.84 16.8895 211.981 15.4958L211.319 14.954ZM209.386 21.5489C209.386 24.3069 210.012 26.5221 211.317 28.1414L211.983 27.6044C210.84 26.1863 210.241 24.1855 210.241 21.5489H209.386ZM211.317 28.1414C212.633 29.7745 214.474 30.5787 216.784 30.5787V29.7231C214.696 29.7231 213.115 29.0087 211.983 27.6044L211.317 28.1414ZM238.549 31.3409L238.246 31.6434L238.25 31.6474L238.549 31.3409ZM241.779 28.5529L241.46 28.8384L241.467 28.8453L241.779 28.5529ZM253.611 31.3409L253.914 31.6434L253.916 31.6414L253.611 31.3409ZM246.097 33.4631C242.882 33.4631 240.488 32.6326 238.848 31.0344L238.25 31.6474C240.1 33.4492 242.739 34.3187 246.097 34.3187V33.4631ZM238.852 31.0384C237.235 29.4223 236.393 27.0098 236.393 23.7249H235.537C235.537 27.1494 236.417 29.8142 238.246 31.6434L238.852 31.0384ZM236.393 23.7249V11.5189H235.537V23.7249H236.393ZM236.393 11.5189C236.393 10.8465 236.558 10.4212 236.814 10.1616C237.068 9.9032 237.483 9.73672 238.141 9.73672V8.88108C237.348 8.88108 236.675 9.08294 236.204 9.56124C235.734 10.0383 235.537 10.7179 235.537 11.5189H236.393ZM238.141 9.73672C238.799 9.73672 239.214 9.9032 239.468 10.1616C239.724 10.4212 239.889 10.8465 239.889 11.5189H240.745C240.745 10.7179 240.548 10.0383 240.078 9.56124C239.607 9.08294 238.934 8.88108 238.141 8.88108V9.73672ZM239.889 11.5189V23.6909H240.745V11.5189H239.889ZM239.889 23.6909C239.889 25.9007 240.388 27.6418 241.46 28.8384L242.098 28.2674C241.22 27.288 240.745 25.7878 240.745 23.6909H239.889ZM241.467 28.8453C242.567 30.0203 244.133 30.5787 246.097 30.5787V29.7231C244.298 29.7231 242.986 29.2162 242.091 28.2605L241.467 28.8453ZM246.097 30.5787C248.092 30.5787 249.663 30.0157 250.726 28.8202C251.781 27.6344 252.271 25.8986 252.271 23.6909H251.415C251.415 25.7898 250.947 27.2841 250.087 28.2516C249.235 29.2095 247.933 29.7231 246.097 29.7231V30.5787ZM252.271 23.6909V11.5189H251.415V23.6909H252.271ZM252.271 11.5189C252.271 10.8465 252.436 10.4212 252.692 10.1616C252.946 9.9032 253.361 9.73672 254.019 9.73672V8.88108C253.226 8.88108 252.553 9.08294 252.082 9.56124C251.612 10.0383 251.415 10.7179 251.415 11.5189H252.271ZM254.019 9.73672C254.664 9.73672 255.069 9.90223 255.318 10.1592C255.57 10.4186 255.733 10.8449 255.733 11.5189H256.589C256.589 10.7196 256.395 10.0409 255.933 9.56365C255.468 9.08391 254.802 8.88108 254.019 8.88108V9.73672ZM255.733 11.5189V23.7249H256.589V11.5189H255.733ZM255.733 23.7249C255.733 27.0112 254.901 29.4245 253.306 31.0404L253.916 31.6414C255.721 29.812 256.589 27.1479 256.589 23.7249H255.733ZM253.308 31.0384C251.715 32.6318 249.336 33.4631 246.097 33.4631V34.3187C249.476 34.3187 252.107 33.45 253.914 31.6434L253.308 31.0384ZM270.417 13.2189H270.844V12.7911H270.417V13.2189ZM274.769 13.2189V12.7911H274.341V13.2189H274.769ZM272.593 33.3951C271.937 33.3951 271.522 33.2267 271.268 32.9641C271.011 32.699 270.844 32.2642 270.844 31.5789H269.989C269.989 32.3896 270.185 33.0768 270.653 33.5597C271.124 34.0451 271.798 34.2507 272.593 34.2507V33.3951ZM270.844 31.5789V13.2189H269.989V31.5789H270.844ZM270.417 12.7911H263.787V13.6467H270.417V12.7911ZM263.787 12.7911C263.227 12.7911 262.887 12.6538 262.684 12.4546C262.482 12.2568 262.344 11.9269 262.344 11.3829H261.489C261.489 12.0629 261.662 12.651 262.084 13.0652C262.505 13.478 263.099 13.6467 263.787 13.6467V12.7911ZM262.344 11.3829C262.344 10.8523 262.481 10.5319 262.681 10.3395C262.884 10.1441 263.225 10.0087 263.787 10.0087V9.15308C263.101 9.15308 262.508 9.31799 262.087 9.72334C261.664 10.1315 261.489 10.7122 261.489 11.3829H262.344ZM263.787 10.0087H281.399V9.15308H263.787V10.0087ZM281.399 10.0087C281.96 10.0087 282.302 10.1441 282.504 10.3395C282.704 10.5319 282.841 10.8523 282.841 11.3829H283.696C283.696 10.7122 283.522 10.1315 283.098 9.72334C282.677 9.31799 282.084 9.15308 281.399 9.15308V10.0087ZM282.841 11.3829C282.841 11.9269 282.703 12.2568 282.501 12.4546C282.298 12.6538 281.958 12.7911 281.399 12.7911V13.6467C282.086 13.6467 282.68 13.478 283.101 13.0652C283.523 12.651 283.696 12.0629 283.696 11.3829H282.841ZM281.399 12.7911H274.769V13.6467H281.399V12.7911ZM274.341 13.2189V31.5789H275.196V13.2189H274.341ZM274.341 31.5789C274.341 32.2642 274.174 32.699 273.917 32.9641C273.663 33.2267 273.249 33.3951 272.593 33.3951V34.2507C273.387 34.2507 274.061 34.0451 274.532 33.5597C275 33.0768 275.196 32.3896 275.196 31.5789H274.341ZM305.644 11.4849L305.359 11.8047L305.362 11.8072L305.644 11.4849ZM306.392 21.2089L306.725 21.477L306.728 21.4738L306.392 21.2089ZM302.38 23.5549L302.282 23.1383L300.758 23.4946L302.252 23.9631L302.38 23.5549ZM305.236 26.1729L305.612 25.9698L305.612 25.9693L305.236 26.1729ZM307.786 30.8989L308.164 30.6982L308.162 30.6958L307.786 30.8989ZM307.99 32.9049L307.593 32.7434L307.589 32.7563L307.99 32.9049ZM304.76 33.4489L304.513 33.7984L304.52 33.8034L304.527 33.8081L304.76 33.4489ZM303.74 32.2249L304.116 32.0211L304.116 32.0207L303.74 32.2249ZM300.306 25.9009L299.928 26.1011L299.93 26.1051L300.306 25.9009ZM298.844 24.3709L298.652 24.7536L298.662 24.7583L298.671 24.7625L298.844 24.3709ZM293.506 23.9629V23.5351H293.078V23.9629H293.506ZM293.506 20.7329H293.078V21.1607H293.506V20.7329ZM293.506 13.0149V12.5871H293.078V13.0149H293.506ZM291.33 33.3951C290.674 33.3951 290.26 33.2267 290.005 32.9641C289.748 32.699 289.582 32.2642 289.582 31.5789H288.726C288.726 32.3896 288.922 33.0768 289.391 33.5597C289.861 34.0451 290.535 34.2507 291.33 34.2507V33.3951ZM289.582 31.5789V11.7909H288.726V31.5789H289.582ZM289.582 11.7909C289.582 11.1202 289.749 10.6957 290.009 10.4359C290.269 10.1761 290.693 10.0087 291.364 10.0087V9.15308C290.561 9.15308 289.881 9.35402 289.404 9.83089C288.927 10.3077 288.726 10.9883 288.726 11.7909H289.582ZM291.364 10.0087H299.558V9.15308H291.364V10.0087ZM299.558 10.0087C302.122 10.0087 304.035 10.6274 305.36 11.8047L305.928 11.1651C304.396 9.80377 302.252 9.15308 299.558 9.15308V10.0087ZM305.362 11.8072C306.679 12.9567 307.358 14.5853 307.358 16.7549H308.214C308.214 14.3912 307.464 12.5065 305.925 11.1626L305.362 11.8072ZM307.358 16.7549C307.358 18.4687 306.915 19.8546 306.056 20.944L306.728 21.4738C307.727 20.2058 308.214 18.6224 308.214 16.7549H307.358ZM306.058 20.9408C305.201 22.0078 303.955 22.7474 302.282 23.1383L302.477 23.9715C304.296 23.5464 305.724 22.722 306.725 21.477L306.058 20.9408ZM302.252 23.9631C303.273 24.2834 304.148 25.0615 304.859 26.3765L305.612 25.9693C304.827 24.519 303.799 23.5517 302.508 23.1467L302.252 23.9631ZM304.859 26.3761L307.409 31.1021L308.162 30.6958L305.612 25.9698L304.859 26.3761ZM307.408 31.0996C307.75 31.7426 307.784 32.2769 307.594 32.7435L308.386 33.0663C308.695 32.3089 308.593 31.5059 308.164 30.6982L307.408 31.0996ZM307.589 32.7563C307.512 32.9635 307.382 33.1114 307.186 33.2153C306.979 33.3248 306.678 33.3951 306.256 33.3951V34.2507C306.763 34.2507 307.215 34.168 307.586 33.9715C307.968 33.7694 308.241 33.4583 308.391 33.0535L307.589 32.7563ZM306.256 33.3951C305.699 33.3951 305.289 33.2816 304.992 33.0897L304.527 33.8081C305.001 34.1149 305.588 34.2507 306.256 34.2507V33.3951ZM305.006 33.0994C304.689 32.8753 304.389 32.5246 304.116 32.0211L303.364 32.4287C303.68 33.0132 304.06 33.4785 304.513 33.7984L305.006 33.0994ZM304.116 32.0207L300.682 25.6967L299.93 26.1051L303.364 32.4291L304.116 32.0207ZM300.684 25.7007C300.249 24.879 299.701 24.2806 299.016 23.9793L298.671 24.7625C299.12 24.9599 299.547 25.3815 299.928 26.1011L300.684 25.7007ZM299.035 23.9882C298.412 23.6768 297.638 23.5351 296.736 23.5351V24.3907C297.557 24.3907 298.187 24.521 298.652 24.7536L299.035 23.9882ZM296.736 23.5351H293.506V24.3907H296.736V23.5351ZM293.078 23.9629V31.5789H293.934V23.9629H293.078ZM293.078 31.5789C293.078 32.2642 292.912 32.699 292.655 32.9641C292.4 33.2267 291.986 33.3951 291.33 33.3951V34.2507C292.124 34.2507 292.798 34.0451 293.269 33.5597C293.737 33.0768 293.934 32.3896 293.934 31.5789H293.078ZM293.506 21.1607H298.81V20.3051H293.506V21.1607ZM298.81 21.1607C300.443 21.1607 301.748 20.8299 302.65 20.0957C303.568 19.3477 303.998 18.2407 303.998 16.8569H303.142C303.142 18.0571 302.778 18.8881 302.11 19.4322C301.425 19.9899 300.349 20.3051 298.81 20.3051V21.1607ZM303.998 16.8569C303.998 15.4831 303.568 14.3843 302.648 13.6425C301.747 12.9148 300.443 12.5871 298.81 12.5871V13.4427C300.35 13.4427 301.426 13.7554 302.111 14.3083C302.779 14.8471 303.142 15.6693 303.142 16.8569H303.998ZM298.81 12.5871H293.506V13.4427H298.81V12.5871ZM293.078 13.0149V20.7329H293.934V13.0149H293.078ZM320.044 13.0489V12.6211H319.617V13.0489H320.044ZM320.044 19.6449H319.617V20.0727H320.044V19.6449ZM320.044 23.1129V22.6851H319.617V23.1129H320.044ZM320.044 30.0829H319.617V30.5107H320.044V30.0829ZM318.174 33.1231C317.47 33.1231 317.02 32.9472 316.743 32.6704C316.466 32.3936 316.29 31.9436 316.29 31.2389H315.435C315.435 32.0755 315.644 32.7816 316.138 33.2754C316.632 33.7693 317.338 33.9787 318.174 33.9787V33.1231ZM316.29 31.2389V11.8929H315.435V31.2389H316.29ZM316.29 11.8929C316.29 11.1882 316.466 10.7382 316.743 10.4614C317.02 10.1846 317.47 10.0087 318.174 10.0087V9.15308C317.338 9.15308 316.632 9.36252 316.138 9.85639C315.644 10.3502 315.435 11.0563 315.435 11.8929H316.29ZM318.174 10.0087H330.312V9.15308H318.174V10.0087ZM330.312 10.0087C330.84 10.0087 331.156 10.1358 331.342 10.3143C331.524 10.4898 331.653 10.7845 331.653 11.2809H332.508C332.508 10.6439 332.342 10.0887 331.935 9.69751C331.531 9.30938 330.963 9.15308 330.312 9.15308V10.0087ZM331.653 11.2809C331.653 11.8043 331.522 12.1182 331.336 12.3044C331.15 12.4905 330.836 12.6211 330.312 12.6211V13.4767C330.968 13.4767 331.538 13.3126 331.941 12.9094C332.344 12.5062 332.508 11.9362 332.508 11.2809H331.653ZM330.312 12.6211H320.044V13.4767H330.312V12.6211ZM319.617 13.0489V19.6449H320.472V13.0489H319.617ZM320.044 20.0727H329.564V19.2171H320.044V20.0727ZM329.564 20.0727C330.09 20.0727 330.405 20.2015 330.591 20.3838C330.775 20.5646 330.905 20.869 330.905 21.3789H331.76C331.76 20.7328 331.595 20.1702 331.19 19.773C330.786 19.3773 330.218 19.2171 329.564 19.2171V20.0727ZM330.905 21.3789C330.905 21.8888 330.775 22.1932 330.591 22.374C330.405 22.5563 330.09 22.6851 329.564 22.6851V23.5407C330.218 23.5407 330.786 23.3805 331.19 22.9848C331.595 22.5876 331.76 22.025 331.76 21.3789H330.905ZM329.564 22.6851H320.044V23.5407H329.564V22.6851ZM319.617 23.1129V30.0829H320.472V23.1129H319.617ZM320.044 30.5107H330.312V29.6551H320.044V30.5107ZM330.312 30.5107C330.838 30.5107 331.153 30.6395 331.339 30.8218C331.523 31.0026 331.653 31.307 331.653 31.8169H332.508C332.508 31.1708 332.343 30.6082 331.938 30.211C331.534 29.8153 330.966 29.6551 330.312 29.6551V30.5107ZM331.653 31.8169C331.653 32.3268 331.523 32.6312 331.339 32.812C331.153 32.9943 330.838 33.1231 330.312 33.1231V33.9787C330.966 33.9787 331.534 33.8185 331.938 33.4228C332.343 33.0256 332.508 32.463 332.508 31.8169H331.653ZM330.312 33.1231H318.174V33.9787H330.312V33.1231ZM337.656 33.0069L337.293 33.2336L337.656 33.0069ZM337.69 31.0349L338.077 31.2171L338.08 31.2109L337.69 31.0349ZM346.666 11.1449L347.056 11.3209L347.056 11.3199L346.666 11.1449ZM347.72 9.7509L347.957 10.1069L347.961 10.104L347.72 9.7509ZM350.576 9.7509L350.325 10.0977L350.336 10.1055L350.347 10.1126L350.576 9.7509ZM351.664 11.1449L351.273 11.3199L351.274 11.3214L351.664 11.1449ZM360.674 31.0349L360.284 31.2114L360.285 31.2128L360.674 31.0349ZM360.742 33.0409L361.107 33.2634L361.111 33.2565L360.742 33.0409ZM357.614 33.3809L357.322 33.6937L357.333 33.7037L357.344 33.7129L357.614 33.3809ZM356.696 31.9529L357.089 31.7844L357.089 31.7836L356.696 31.9529ZM354.996 28.0089L355.389 27.8396L355.277 27.5811H354.996V28.0089ZM343.3 28.0089V27.5811H343.016L342.906 27.8424L343.3 28.0089ZM341.634 31.9529L342.024 32.1279L342.028 32.1194L341.634 31.9529ZM340.716 33.3809L340.425 33.0674L340.425 33.0674L340.716 33.3809ZM349.114 14.3069V13.8791H348.83L348.72 14.1406L349.114 14.3069ZM344.796 24.5409L344.402 24.3746L344.151 24.9687H344.796V24.5409ZM353.5 24.5409V24.9687H354.145L353.894 24.3746L353.5 24.5409ZM349.182 14.3069L349.576 14.1406L349.466 13.8791H349.182V14.3069ZM339.356 33.3951C338.67 33.3951 338.261 33.1684 338.019 32.7802L337.293 33.2336C337.73 33.9334 338.455 34.2507 339.356 34.2507V33.3951ZM338.019 32.7802C337.78 32.3987 337.754 31.9043 338.077 31.2171L337.303 30.8527C336.901 31.7068 336.851 32.5271 337.293 33.2336L338.019 32.7802ZM338.08 31.2109L347.056 11.3209L346.276 10.9689L337.3 30.8589L338.08 31.2109ZM347.056 11.3199C347.332 10.7037 347.641 10.3179 347.957 10.1069L347.483 9.39493C346.983 9.72793 346.589 10.2715 346.275 10.9699L347.056 11.3199ZM347.961 10.104C348.318 9.86015 348.72 9.73672 349.182 9.73672V8.88108C348.555 8.88108 347.983 9.05232 347.478 9.39782L347.961 10.104ZM349.182 9.73672C349.617 9.73672 349.993 9.8577 350.325 10.0977L350.826 9.40408C350.343 9.05477 349.79 8.88108 349.182 8.88108V9.73672ZM350.347 10.1126C350.683 10.3246 351 10.7089 351.273 11.3199L352.054 10.9699C351.739 10.2663 351.33 9.72117 350.804 9.38918L350.347 10.1126ZM351.274 11.3214L360.284 31.2114L361.064 30.8584L352.054 10.9684L351.274 11.3214ZM360.285 31.2128C360.614 31.9323 360.595 32.4441 360.372 32.8253L361.111 33.2565C361.524 32.5497 361.459 31.7242 361.063 30.857L360.285 31.2128ZM360.376 32.8185C360.158 33.178 359.776 33.3951 359.11 33.3951V34.2507C359.985 34.2507 360.691 33.9465 361.107 33.2633L360.376 32.8185ZM359.11 33.3951C358.538 33.3951 358.147 33.2626 357.884 33.0489L357.344 33.7129C357.806 34.0886 358.412 34.2507 359.11 34.2507V33.3951ZM357.906 33.0681C357.625 32.8061 357.348 32.3886 357.089 31.7844L356.303 32.1214C356.588 32.7866 356.923 33.3211 357.322 33.6937L357.906 33.0681ZM357.089 31.7836L355.389 27.8396L354.603 28.1782L356.303 32.1222L357.089 31.7836ZM354.996 27.5811H343.3V28.4367H354.996V27.5811ZM342.906 27.8424L341.24 31.7864L342.028 32.1194L343.694 28.1754L342.906 27.8424ZM341.243 31.7779C340.959 32.4131 340.681 32.8293 340.425 33.0674L341.007 33.6944C341.385 33.3432 341.72 32.8074 342.024 32.1279L341.243 31.7779ZM340.425 33.0674C340.211 33.2655 339.877 33.3951 339.356 33.3951V34.2507C340.014 34.2507 340.586 34.0856 341.007 33.6944L340.425 33.0674ZM348.72 14.1406L344.402 24.3746L345.19 24.7072L349.508 14.4732L348.72 14.1406ZM344.796 24.9687H353.5V24.1131H344.796V24.9687ZM353.894 24.3746L349.576 14.1406L348.788 14.4732L353.106 24.7072L353.894 24.3746ZM349.182 13.8791H349.114V14.7347H349.182V13.8791ZM372.047 32.3949L371.833 32.7655L371.838 32.7687L372.047 32.3949ZM367.967 28.1109L367.586 28.3059L367.587 28.3078L367.967 28.1109ZM367.967 15.0209L368.346 15.2178L368.346 15.2178L367.967 15.0209ZM372.047 10.7709L372.257 11.1435L372.258 11.1426L372.047 10.7709ZM382.145 9.7169L382.035 10.1305L382.035 10.1305L382.145 9.7169ZM385.307 11.0769L385.541 10.7188L385.54 10.7182L385.307 11.0769ZM386.361 12.4709L385.942 12.5582L385.942 12.5618L386.361 12.4709ZM386.157 13.9329L386.527 14.1473L386.531 14.1391L386.157 13.9329ZM385.035 14.8169L385.147 15.2296L385.156 15.2273L385.164 15.2246L385.035 14.8169ZM383.369 14.4089L383.606 14.0529L383.6 14.0494L383.369 14.4089ZM381.091 13.4229L381.194 13.0079L381.194 13.0079L381.091 13.4229ZM373.067 15.3269L373.389 15.6086L373.391 15.6061L373.067 15.3269ZM373.067 27.8049L372.742 28.0841L373.067 27.8049ZM381.159 29.7089L381.26 30.1247L381.27 30.1219L381.159 29.7089ZM383.539 28.6889L383.76 29.0548L383.766 29.0509L383.539 28.6889ZM385.171 28.3149L385.288 27.9035L385.288 27.9035L385.171 28.3149ZM386.225 29.1649L385.846 29.3642L385.852 29.3763L385.859 29.388L386.225 29.1649ZM386.463 30.5249L386.883 30.6014L386.883 30.6014L386.463 30.5249ZM385.545 31.8509L385.796 32.1973L385.799 32.1949L385.545 31.8509ZM382.281 33.3809L382.393 33.7937L382.398 33.7923L382.281 33.3809ZM378.473 33.4631C376.036 33.4631 373.969 32.9761 372.255 32.0211L371.838 32.7687C373.705 33.8084 375.922 34.3187 378.473 34.3187V33.4631ZM372.26 32.0243C370.564 31.0457 369.261 29.6784 368.346 27.914L367.587 28.3078C368.576 30.2154 369.993 31.7041 371.833 32.7655L372.26 32.0243ZM368.347 27.9159C367.432 26.1287 366.966 24.0108 366.966 21.5489H366.111C366.111 24.119 366.597 26.3758 367.586 28.3059L368.347 27.9159ZM366.966 21.5489C366.966 19.0868 367.432 16.9812 368.346 15.2178L367.587 14.824C366.597 16.7326 366.111 18.979 366.111 21.5489H366.966ZM368.346 15.2178C369.261 13.4542 370.563 12.0992 372.257 11.1435L371.836 10.3983C369.995 11.4373 368.576 12.9156 367.587 14.824L368.346 15.2178ZM372.258 11.1426C373.972 10.1664 376.038 9.66872 378.473 9.66872V8.81308C375.921 8.81308 373.702 9.33541 371.835 10.3992L372.258 11.1426ZM378.473 9.66872C379.682 9.66872 380.87 9.82265 382.035 10.1305L382.254 9.30327C381.017 8.97648 379.756 8.81308 378.473 8.81308V9.66872ZM382.035 10.1305C383.199 10.438 384.21 10.8744 385.073 11.4356L385.54 10.7182C384.59 10.1007 383.493 9.63051 382.254 9.30327L382.035 10.1305ZM385.072 11.435C385.593 11.7756 385.857 12.1531 385.942 12.5582L386.779 12.3836C386.637 11.7007 386.198 11.1489 385.541 10.7188L385.072 11.435ZM385.942 12.5618C386.035 12.9856 385.98 13.367 385.782 13.7267L386.531 14.1391C386.832 13.5921 386.913 12.9989 386.779 12.38L385.942 12.5618ZM385.786 13.7185C385.593 14.052 385.308 14.281 384.905 14.4092L385.164 15.2246C385.759 15.0355 386.221 14.6751 386.527 14.1473L385.786 13.7185ZM384.922 14.4042C384.586 14.4957 384.16 14.4223 383.606 14.0529L383.131 14.7649C383.801 15.2116 384.485 15.4101 385.147 15.2296L384.922 14.4042ZM383.6 14.0494C382.858 13.5705 382.056 13.2232 381.194 13.0079L380.987 13.838C381.758 14.0306 382.474 14.3406 383.137 14.7684L383.6 14.0494ZM381.194 13.0079C380.344 12.7954 379.482 12.6891 378.609 12.6891V13.5447C379.412 13.5447 380.205 13.6424 380.987 13.838L381.194 13.0079ZM378.609 12.6891C376.092 12.6891 374.113 13.4574 372.742 15.0477L373.391 15.6061C374.559 14.2498 376.274 13.5447 378.609 13.5447V12.6891ZM372.745 15.0452C371.384 16.6001 370.735 18.7891 370.735 21.5489H371.59C371.59 18.914 372.21 16.9551 373.389 15.6086L372.745 15.0452ZM370.735 21.5489C370.735 24.3092 371.384 26.5077 372.742 28.0841L373.391 27.5257C372.21 26.1554 371.59 24.1833 371.59 21.5489H370.735ZM372.742 28.0841C374.113 29.6744 376.092 30.4427 378.609 30.4427V29.5871C376.274 29.5871 374.559 28.882 373.391 27.5257L372.742 28.0841ZM378.609 30.4427C379.504 30.4427 380.388 30.3366 381.26 30.1246L381.057 29.2932C380.252 29.4892 379.436 29.5871 378.609 29.5871V30.4427ZM381.27 30.1219C382.148 29.8847 382.978 29.5288 383.76 29.0548L383.317 28.323C382.603 28.7557 381.847 29.0798 381.047 29.2959L381.27 30.1219ZM383.766 29.0509C384.324 28.7001 384.739 28.6366 385.053 28.7263L385.288 27.9035C384.65 27.7212 383.977 27.9071 383.311 28.3269L383.766 29.0509ZM385.053 28.7263C385.419 28.8308 385.675 29.0389 385.846 29.3642L386.603 28.9656C386.321 28.4296 385.874 28.071 385.288 27.9035L385.053 28.7263ZM385.859 29.388C386.051 29.7007 386.115 30.0463 386.042 30.4484L386.883 30.6014C386.992 30.0062 386.897 29.4451 386.59 28.9418L385.859 29.388ZM386.042 30.4484C385.975 30.8125 385.749 31.1675 385.29 31.5069L385.799 32.1949C386.382 31.7636 386.768 31.2347 386.883 30.6014L386.042 30.4484ZM385.293 31.5045C384.434 32.1279 383.393 32.6182 382.163 32.9695L382.398 33.7923C383.707 33.4183 384.842 32.8886 385.796 32.1973L385.293 31.5045ZM382.168 32.9682C380.958 33.2982 379.727 33.4631 378.473 33.4631V34.3187C379.803 34.3187 381.11 34.1437 382.393 33.7936L382.168 32.9682ZM398.182 19.5769H397.754V20.0047H398.182V19.5769ZM410.524 19.5769V20.0047H410.952V19.5769H410.524ZM410.524 23.2149H410.952V22.7871H410.524V23.2149ZM398.182 23.2149V22.7871H397.754V23.2149H398.182ZM396.006 33.3951C395.35 33.3951 394.936 33.2267 394.681 32.9641C394.424 32.699 394.258 32.2642 394.258 31.5789H393.402C393.402 32.3896 393.598 33.0768 394.067 33.5597C394.537 34.0451 395.211 34.2507 396.006 34.2507V33.3951ZM394.258 31.5789V11.5529H393.402V31.5789H394.258ZM394.258 11.5529C394.258 10.8676 394.424 10.4328 394.681 10.1677C394.936 9.90509 395.35 9.73672 396.006 9.73672V8.88108C395.211 8.88108 394.537 9.08671 394.067 9.57208C393.598 10.055 393.402 10.7422 393.402 11.5529H394.258ZM396.006 9.73672C396.662 9.73672 397.076 9.90509 397.331 10.1677C397.588 10.4328 397.754 10.8676 397.754 11.5529H398.61C398.61 10.7422 398.413 10.055 397.945 9.57208C397.474 9.08671 396.801 8.88108 396.006 8.88108V9.73672ZM397.754 11.5529V19.5769H398.61V11.5529H397.754ZM398.182 20.0047H410.524V19.1491H398.182V20.0047ZM410.952 19.5769V11.5529H410.096V19.5769H410.952ZM410.952 11.5529C410.952 10.8676 411.118 10.4328 411.375 10.1677C411.63 9.90509 412.044 9.73672 412.7 9.73672V8.88108C411.905 8.88108 411.231 9.08671 410.761 9.57208C410.292 10.055 410.096 10.7422 410.096 11.5529H410.952ZM412.7 9.73672C413.356 9.73672 413.77 9.90509 414.025 10.1677C414.282 10.4328 414.448 10.8676 414.448 11.5529H415.304C415.304 10.7422 415.107 10.055 414.639 9.57208C414.168 9.08671 413.495 8.88108 412.7 8.88108V9.73672ZM414.448 11.5529V31.5789H415.304V11.5529H414.448ZM414.448 31.5789C414.448 32.2642 414.282 32.699 414.025 32.9641C413.77 33.2267 413.356 33.3951 412.7 33.3951V34.2507C413.495 34.2507 414.168 34.0451 414.639 33.5597C415.107 33.0768 415.304 32.3896 415.304 31.5789H414.448ZM412.7 33.3951C412.044 33.3951 411.63 33.2267 411.375 32.9641C411.118 32.699 410.952 32.2642 410.952 31.5789H410.096C410.096 32.3896 410.292 33.0768 410.761 33.5597C411.231 34.0451 411.905 34.2507 412.7 34.2507V33.3951ZM410.952 31.5789V23.2149H410.096V31.5789H410.952ZM410.524 22.7871H398.182V23.6427H410.524V22.7871ZM397.754 23.2149V31.5789H398.61V23.2149H397.754ZM397.754 31.5789C397.754 32.2642 397.588 32.699 397.331 32.9641C397.076 33.2267 396.662 33.3951 396.006 33.3951V34.2507C396.801 34.2507 397.474 34.0451 397.945 33.5597C398.413 33.0768 398.61 32.3896 398.61 31.5789H397.754Z" fill="#0EB29F"/>
<path d="M183.974 88H256.903" stroke="#248A82" stroke-width="4" stroke-linecap="round"/>
</svg>
