<svg width="382" height="91" viewBox="0 0 382 91" fill="none" xmlns="http://www.w3.org/2000/svg">
<path d="M12.196 64.68L12.0474 65.3043L12.0496 65.3048L12.196 64.68ZM5.15601 61.8L4.80543 62.3375L4.81073 62.3409L5.15601 61.8ZM3.55601 56.808L2.9708 56.5447L2.96759 56.5518L2.96456 56.559L3.55601 56.808ZM5.28401 55.08L5.5166 55.6781L5.52486 55.6749L5.53303 55.6714L5.28401 55.08ZM8.03601 55.528L7.69589 56.0722L7.70266 56.0764L7.70954 56.0805L8.03601 55.528ZM27.94 57.064L28.3158 57.5843L28.325 57.5774L27.94 57.064ZM28.58 49.128L28.179 49.6292L28.1887 49.6367L28.58 49.128ZM23.012 47.016L23.1437 46.3879L23.1433 46.3879L23.012 47.016ZM15.972 45.544L15.8385 46.1717L15.8407 46.1721L15.972 45.544ZM6.18001 25.832L5.65781 25.459L6.18001 25.832ZM12.388 20.968L12.1318 20.3796L12.388 20.968ZM28.836 20.2L29.0078 19.5817L28.836 20.2ZM35.044 23.016L35.4121 22.4902L35.4028 22.484L35.044 23.016ZM36.58 25.256L35.9496 25.3761L35.9507 25.3818L36.58 25.256ZM36.26 27.688L36.8272 27.9883L36.8307 27.9817L36.834 27.975L36.26 27.688ZM34.404 29.224L34.5973 29.8359L34.6067 29.833L34.616 29.8297L34.404 29.224ZM31.524 28.648L31.8447 28.0921L31.8408 28.0899L31.524 28.648ZM26.724 26.728L26.5761 27.3525L26.724 26.728ZM14.564 28.008L14.9469 28.523L14.564 28.008ZM13.604 36.584L13.1704 37.0571L13.1758 37.0621L13.1814 37.067L13.604 36.584ZM18.852 38.696L18.9845 38.0681L18.982 38.0676L18.852 38.696ZM25.828 40.168L25.9612 39.5402L25.9605 39.5401L25.828 40.168ZM35.236 44.392L34.7971 44.8602L34.8019 44.8647L35.236 44.392ZM36.196 59.176L35.6723 58.8051L36.196 59.176ZM29.988 63.976L30.2362 64.5678L30.2408 64.5658L29.988 63.976ZM20.58 64.9983C17.7697 64.9983 15.0242 64.6837 12.3424 64.0552L12.0496 65.3048C14.8292 65.9563 17.673 66.2817 20.58 66.2817V64.9983ZM12.3446 64.0557C9.71535 63.4297 7.43731 62.4948 5.50128 61.2591L4.81073 62.3409C6.88537 63.6652 9.30066 64.6503 12.0474 65.3043L12.3446 64.0557ZM5.50656 61.2625C4.63269 60.6926 4.15847 60.032 3.98978 59.2898L2.73823 59.5742C2.99621 60.7093 3.71666 61.6274 4.80545 62.3375L5.50656 61.2625ZM3.98978 59.2898C3.80322 58.4689 3.8631 57.7323 4.14745 57.057L2.96456 56.559C2.56624 57.505 2.49812 58.5177 2.73823 59.5742L3.98978 59.2898ZM4.14122 57.0713C4.4663 56.3489 4.92717 55.9073 5.5166 55.6781L5.05141 54.4819C4.10484 54.85 3.41371 55.5604 2.9708 56.5447L4.14122 57.0713ZM5.53303 55.6714C6.0848 55.4391 6.77728 55.4981 7.69589 56.0722L8.37612 54.9838C7.24674 54.2779 6.10454 54.0382 5.03498 54.4886L5.53303 55.6714ZM7.70954 56.0805C9.64031 57.2214 11.6828 58.0562 13.8354 58.5833L14.1407 57.3367C12.1119 56.8398 10.1864 56.0533 8.36247 54.9755L7.70954 56.0805ZM13.8354 58.5833C15.9794 59.1084 18.2282 59.3697 20.58 59.3697V58.0863C18.3238 58.0863 16.178 57.8356 14.1407 57.3367L13.8354 58.5833ZM20.58 59.3697C23.993 59.3697 26.6138 58.8134 28.3157 57.5842L27.5643 56.5438C26.1942 57.5332 23.9083 58.0863 20.58 58.0863V59.3697ZM28.325 57.5774C30.0092 56.3143 30.8857 54.6582 30.8857 52.648H29.6023C29.6023 54.2218 28.9428 55.5097 27.555 56.5506L28.325 57.5774ZM30.8857 52.648C30.8857 50.9709 30.2504 49.6033 28.9713 48.6193L28.1887 49.6367C29.1283 50.3594 29.6023 51.3384 29.6023 52.648H30.8857ZM28.9809 48.6269C27.7908 47.6749 25.8092 46.9468 23.1437 46.3879L22.8803 47.6441C25.5055 48.1945 27.2358 48.8745 28.1791 49.6291L28.9809 48.6269ZM23.1433 46.3879L16.1033 44.9159L15.8407 46.1721L22.8807 47.6441L23.1433 46.3879ZM16.1056 44.9163C12.1683 44.0786 9.29419 42.6649 7.40769 40.7282C5.5352 38.8059 4.58174 36.3133 4.58174 33.192H3.29827C3.29827 36.5987 4.35014 39.4287 6.48832 41.6238C8.61249 43.8044 11.7543 45.3027 15.8385 46.1717L16.1056 44.9163ZM4.58174 33.192C4.58174 30.4963 5.29411 28.1763 6.70221 26.205L5.65781 25.459C4.07924 27.669 3.29827 30.2557 3.29827 33.192H4.58174ZM6.70221 26.205C8.11998 24.2201 10.092 22.6678 12.6442 21.5564L12.1318 20.3796C9.39336 21.5722 7.2267 23.2625 5.65781 25.459L6.70221 26.205ZM12.6442 21.5564C15.1944 20.4458 18.1551 19.8817 21.54 19.8817V18.5983C18.013 18.5983 14.8723 19.1862 12.1318 20.3796L12.6442 21.5564ZM21.54 19.8817C24.046 19.8817 26.42 20.1949 28.6643 20.8183L29.0078 19.5817C26.644 18.9251 24.154 18.5983 21.54 18.5983V19.8817ZM28.6643 20.8183C30.907 21.4413 32.9123 22.3523 34.6852 23.548L35.4028 22.484C33.5064 21.205 31.373 20.2387 29.0078 19.5817L28.6643 20.8183ZM34.676 23.5417C35.4134 24.0579 35.8147 24.6679 35.9496 25.3761L37.2104 25.1359C37.004 24.0521 36.3813 23.1687 35.412 22.4903L34.676 23.5417ZM35.9507 25.3818C36.0938 26.0973 36.0053 26.7625 35.686 27.401L36.834 27.975C37.2827 27.0775 37.4075 26.1214 37.2093 25.1301L35.9507 25.3818ZM35.6929 27.3877C35.3925 27.9551 34.9095 28.3672 34.192 28.6183L34.616 29.8297C35.6051 29.4835 36.3595 28.8715 36.8272 27.9883L35.6929 27.3877ZM34.2108 28.6121C33.6427 28.7914 32.8771 28.6878 31.8447 28.0921L31.2033 29.2039C32.3896 29.8882 33.544 30.1686 34.5973 29.8359L34.2108 28.6121ZM31.8408 28.0899C30.2139 27.1666 28.5574 26.5027 26.8719 26.1035L26.5761 27.3525C28.1333 27.7213 29.6767 28.3374 31.2072 29.2061L31.8408 28.0899ZM26.8719 26.1035C25.1964 25.7067 23.397 25.5103 21.476 25.5103V26.7937C23.3097 26.7937 25.0089 26.9813 26.5761 27.3525L26.8719 26.1035ZM21.476 25.5103C18.4502 25.5103 15.9937 26.1452 14.1811 27.493L14.9469 28.523C16.4624 27.3961 18.6138 26.7937 21.476 26.7937V25.5103ZM14.1811 27.493C12.3608 28.8466 11.4263 30.6558 11.4263 32.872H12.7097C12.7097 31.0776 13.4392 29.6441 14.9469 28.523L14.1811 27.493ZM11.4263 32.872C11.4263 34.5667 11.9989 35.9832 13.1704 37.0571L14.0376 36.1109C13.1611 35.3074 12.7097 34.2493 12.7097 32.872H11.4263ZM13.1814 37.067C14.3333 38.0749 16.2173 38.8062 18.722 39.3244L18.982 38.0676C16.5374 37.5618 14.9227 36.8851 14.0266 36.101L13.1814 37.067ZM18.7195 39.3239L25.6955 40.7959L25.9605 39.5401L18.9845 38.0681L18.7195 39.3239ZM25.6948 40.7958C29.861 41.6795 32.8688 43.0523 34.7971 44.8602L35.6749 43.9238C33.5073 41.8917 30.243 40.4485 25.9612 39.5402L25.6948 40.7958ZM34.8019 44.8647C36.7427 46.647 37.7303 49.0264 37.7303 52.072H39.0137C39.0137 48.7176 37.9106 45.977 35.6701 43.9193L34.8019 44.8647ZM37.7303 52.072C37.7303 54.6371 37.0406 56.8734 35.6723 58.8051L36.7197 59.5469C38.2527 57.3826 39.0137 54.8829 39.0137 52.072H37.7303ZM35.6723 58.8051C34.3007 60.7415 32.3327 62.2729 29.7352 63.3862L30.2408 64.5658C33.0193 63.3751 35.19 61.7065 36.7197 59.5469L35.6723 58.8051ZM29.7398 63.3842C27.1909 64.4531 24.1431 64.9983 20.58 64.9983V66.2817C24.2702 66.2817 27.4945 65.7176 30.2362 64.5678L29.7398 63.3842ZM82.843 23.592L82.4084 24.0641L82.843 23.592ZM82.843 44.392L83.2777 44.8641L83.2817 44.8604L82.843 44.392ZM59.995 48.104V47.4623H59.3533V48.104H59.995ZM59.995 41.64H59.3533V42.2817H59.995V41.64ZM59.995 26.344V25.7023H59.3533V26.344H59.995ZM55.899 64.8703C54.6377 64.8703 53.8084 64.5462 53.2877 64.0093C52.7635 63.4686 52.4447 62.6019 52.4447 61.288H51.1613C51.1613 62.7901 51.5252 64.0354 52.3663 64.9027C53.211 65.7738 54.4297 66.1537 55.899 66.1537V64.8703ZM52.4447 61.288V24.04H51.1613V61.288H52.4447ZM52.4447 24.04C52.4447 22.7523 52.7662 21.9043 53.2968 21.3738C53.8273 20.8432 54.6753 20.5217 55.963 20.5217V19.2383C54.4774 19.2383 53.2454 19.6101 52.3892 20.4662C51.5331 21.3224 51.1613 22.5544 51.1613 24.04H52.4447ZM55.963 20.5217H71.387V19.2383H55.963V20.5217ZM71.387 20.5217C76.2332 20.5217 79.8755 21.7323 82.4084 24.0641L83.2777 23.1199C80.4345 20.5024 76.4394 19.2383 71.387 19.2383V20.5217ZM82.4084 24.0641C84.9366 26.3917 86.2333 29.6605 86.2333 33.96H87.5167C87.5167 29.3848 86.1254 25.7416 83.2777 23.1199L82.4084 24.0641ZM86.2333 33.96C86.2333 38.2591 84.9367 41.5521 82.4044 43.9236L83.2817 44.8604C86.1254 42.1973 87.5167 38.5355 87.5167 33.96H86.2333ZM82.4084 43.9199C79.8755 46.2517 76.2332 47.4623 71.387 47.4623V48.7457C76.4394 48.7457 80.4345 47.4816 83.2777 44.8641L82.4084 43.9199ZM71.387 47.4623H59.995V48.7457H71.387V47.4623ZM59.3533 48.104V61.288H60.6367V48.104H59.3533ZM59.3533 61.288C59.3533 62.6019 59.0345 63.4686 58.5103 64.0093C57.9896 64.5462 57.1603 64.8703 55.899 64.8703V66.1537C57.3684 66.1537 58.5871 65.7738 59.4317 64.9027C60.2728 64.0354 60.6367 62.7901 60.6367 61.288H59.3533ZM59.995 42.2817H70.107V40.9983H59.995V42.2817ZM70.107 42.2817C73.1296 42.2817 75.5164 41.6266 77.1521 40.2043C78.8049 38.767 79.5807 36.6441 79.5807 33.96H78.2973C78.2973 36.3959 77.6011 38.113 76.3099 39.2357C75.0016 40.3734 72.9724 40.9983 70.107 40.9983V42.2817ZM79.5807 33.96C79.5807 31.2956 78.8039 29.1881 77.1501 27.762C75.5145 26.3516 73.1286 25.7023 70.107 25.7023V26.9857C72.9735 26.9857 75.0035 27.6057 76.3119 28.734C77.6022 29.8466 78.2973 31.5471 78.2973 33.96H79.5807ZM70.107 25.7023H59.995V26.9857H70.107V25.7023ZM59.3533 26.344V41.64H60.6367V26.344H59.3533ZM107.825 26.408V25.7663H107.183V26.408H107.825ZM107.825 38.824H107.183V39.4657H107.825V38.824ZM107.825 45.352V44.7103H107.183V45.352H107.825ZM107.825 58.472H107.183V59.1137H107.825V58.472ZM104.305 64.3583C102.953 64.3583 102.057 64.0208 101.495 63.4582C100.932 62.8957 100.595 61.9997 100.595 60.648H99.3113C99.3113 62.1976 99.6991 63.4776 100.587 64.3658C101.475 65.2539 102.755 65.6417 104.305 65.6417V64.3583ZM100.595 60.648V24.232H99.3113V60.648H100.595ZM100.595 24.232C100.595 22.8803 100.932 21.9843 101.495 21.4218C102.057 20.8592 102.953 20.5217 104.305 20.5217V19.2383C102.755 19.2383 101.475 19.6261 100.587 20.5142C99.6991 21.4024 99.3113 22.6824 99.3113 24.232H100.595ZM104.305 20.5217H127.153V19.2383H104.305V20.5217ZM127.153 20.5217C128.17 20.5217 128.813 20.7665 129.204 21.1426C129.591 21.5142 129.839 22.1188 129.839 23.08H131.123C131.123 21.9079 130.817 20.9125 130.094 20.2174C129.376 19.5269 128.355 19.2383 127.153 19.2383V20.5217ZM129.839 23.08C129.839 24.0904 129.587 24.7304 129.195 25.1222C128.803 25.5141 128.163 25.7663 127.153 25.7663V27.0497C128.361 27.0497 129.385 26.7472 130.103 26.0298C130.82 25.3123 131.123 24.2882 131.123 23.08H129.839ZM127.153 25.7663H107.825V27.0497H127.153V25.7663ZM107.183 26.408V38.824H108.467V26.408H107.183ZM107.825 39.4657H125.745V38.1823H107.825V39.4657ZM125.745 39.4657C126.759 39.4657 127.4 39.7142 127.792 40.0982C128.181 40.4798 128.431 41.1021 128.431 42.088H129.715C129.715 40.8979 129.411 39.8882 128.69 39.1818C127.973 38.4778 126.95 38.1823 125.745 38.1823V39.4657ZM128.431 42.088C128.431 43.0739 128.181 43.6962 127.792 44.0778C127.4 44.4618 126.759 44.7103 125.745 44.7103V45.9937C126.95 45.9937 127.973 45.6982 128.69 44.9942C129.411 44.2878 129.715 43.2781 129.715 42.088H128.431ZM125.745 44.7103H107.825V45.9937H125.745V44.7103ZM107.183 45.352V58.472H108.467V45.352H107.183ZM107.825 59.1137H127.153V57.8303H107.825V59.1137ZM127.153 59.1137C128.167 59.1137 128.808 59.3622 129.2 59.7462C129.589 60.1278 129.839 60.7501 129.839 61.736H131.123C131.123 60.5459 130.819 59.5362 130.098 58.8298C129.381 58.1258 128.358 57.8303 127.153 57.8303V59.1137ZM129.839 61.736C129.839 62.7219 129.589 63.3442 129.2 63.7258C128.808 64.1098 128.167 64.3583 127.153 64.3583V65.6417C128.358 65.6417 129.381 65.3462 130.098 64.6422C130.819 63.9358 131.123 62.9261 131.123 61.736H129.839ZM127.153 64.3583H104.305V65.6417H127.153V64.3583ZM140.976 63.976L140.432 64.3161L140.976 63.976ZM141.04 60.264L141.621 60.5373L141.625 60.528L141.04 60.264ZM157.936 22.824L158.521 23.088L158.522 23.0865L157.936 22.824ZM159.92 20.2L160.276 20.734L160.282 20.7296L159.92 20.2ZM165.296 20.2L164.92 20.7202L164.936 20.7319L164.953 20.7426L165.296 20.2ZM167.344 22.824L166.758 23.0865L166.759 23.0888L167.344 22.824ZM184.304 60.264L183.719 60.5288L183.72 60.5308L184.304 60.264ZM184.432 64.04L184.98 64.3737L184.986 64.3633L184.432 64.04ZM178.544 64.68L178.106 65.1491L178.122 65.1642L178.139 65.1781L178.544 64.68ZM176.816 61.992L177.406 61.7392L177.405 61.738L176.816 61.992ZM173.616 54.568L174.205 54.314L174.038 53.9263H173.616V54.568ZM151.6 54.568V53.9263H151.174L151.009 54.3183L151.6 54.568ZM148.464 61.992L149.05 62.2546L149.055 62.2417L148.464 61.992ZM146.736 64.68L146.299 64.2097L146.736 64.68ZM162.544 28.776V28.1343H162.118L161.953 28.5265L162.544 28.776ZM154.416 48.04L153.825 47.7905L153.449 48.6817H154.416V48.04ZM170.8 48.04V48.6817H171.767L171.391 47.7905L170.8 48.04ZM162.672 28.776L163.263 28.5265L163.098 28.1343H162.672V28.776ZM144.176 64.8703C142.844 64.8703 142.014 64.4263 141.52 63.6359L140.432 64.3161C141.218 65.5737 142.522 66.1537 144.176 66.1537V64.8703ZM141.52 63.6359C141.033 62.8557 140.997 61.8628 141.621 60.5372L140.459 59.9908C139.718 61.5665 139.639 63.0483 140.432 64.3161L141.52 63.6359ZM141.625 60.528L158.521 23.088L157.351 22.56L140.455 60L141.625 60.528ZM158.522 23.0865C159.049 21.9108 159.645 21.1545 160.276 20.7339L159.564 19.666C158.659 20.2695 157.933 21.2625 157.35 22.5615L158.522 23.0865ZM160.282 20.7296C160.982 20.2512 161.772 20.0097 162.672 20.0097V18.7263C161.525 18.7263 160.48 19.0395 159.558 19.6704L160.282 20.7296ZM162.672 20.0097C163.524 20.0097 164.266 20.2475 164.92 20.7202L165.672 19.6798C164.79 19.0431 163.783 18.7263 162.672 18.7263V20.0097ZM164.953 20.7426C165.622 21.1646 166.235 21.9186 166.758 23.0865L167.93 22.5615C167.344 21.2547 166.592 20.2594 165.639 19.6574L164.953 20.7426ZM166.759 23.0888L183.719 60.5288L184.889 59.9992L167.929 22.5592L166.759 23.0888ZM183.72 60.5308C184.352 61.9134 184.333 62.9368 183.878 63.7166L184.986 64.3633C185.726 63.0952 185.621 61.6013 184.888 59.9972L183.72 60.5308ZM183.884 63.7063C183.434 64.4449 182.654 64.8703 181.36 64.8703V66.1537C182.967 66.1537 184.235 65.5977 184.98 64.3737L183.884 63.7063ZM181.36 64.8703C180.26 64.8703 179.482 64.6152 178.949 64.1819L178.139 65.1781C178.971 65.8542 180.071 66.1537 181.36 66.1537V64.8703ZM178.982 64.2109C178.431 63.6964 177.898 62.8882 177.406 61.7392L176.226 62.2448C176.758 63.4851 177.377 64.4689 178.106 65.1491L178.982 64.2109ZM177.405 61.738L174.205 54.314L173.027 54.822L176.227 62.246L177.405 61.738ZM173.616 53.9263H151.6V55.2097H173.616V53.9263ZM151.009 54.3183L147.873 61.7423L149.055 62.2417L152.191 54.8177L151.009 54.3183ZM147.878 61.7295C147.339 62.9336 146.805 63.7399 146.299 64.2097L147.173 65.1503C147.861 64.5107 148.48 63.5251 149.05 62.2545L147.878 61.7295ZM146.299 64.2097C145.858 64.6196 145.183 64.8703 144.176 64.8703V66.1537C145.388 66.1537 146.419 65.8498 147.173 65.1503L146.299 64.2097ZM161.953 28.5265L153.825 47.7905L155.007 48.2895L163.135 29.0255L161.953 28.5265ZM154.416 48.6817H170.8V47.3983H154.416V48.6817ZM171.391 47.7905L163.263 28.5265L162.081 29.0255L170.209 48.2895L171.391 47.7905ZM162.672 28.1343H162.544V29.4177H162.672V28.1343ZM205.945 39.848H205.303V40.4897H205.945V39.848ZM206.073 39.848V40.4897H206.339L206.528 40.301L206.073 39.848ZM224.441 21.416L223.987 20.9622L223.986 20.963L224.441 21.416ZM226.489 19.88L226.202 19.306L226.489 19.88ZM231.417 20.328L230.916 20.7289L230.924 20.7387L230.932 20.7483L231.417 20.328ZM232.057 22.568L231.422 22.4728L231.42 22.4884L231.418 22.5041L232.057 22.568ZM230.841 24.936L231.292 25.3924L231.295 25.3898L230.841 24.936ZM214.009 41.576L213.558 41.1196L213.102 41.5701L213.552 42.0265L214.009 41.576ZM231.737 59.56L231.28 60.0105L231.287 60.0177L231.294 60.0247L231.737 59.56ZM233.145 62.248L233.786 62.2189L233.145 62.248ZM232.249 64.616L232.703 65.0698L232.249 64.616ZM227.065 64.872L226.692 65.3942L226.7 65.4002L226.709 65.406L227.065 64.872ZM224.953 63.016L225.407 62.5622L224.953 63.016ZM206.073 44.136L206.527 43.6822L206.339 43.4943H206.073V44.136ZM205.945 44.136V43.4943H205.303V44.136H205.945ZM201.849 64.8703C200.588 64.8703 199.758 64.5462 199.238 64.0093C198.713 63.4686 198.395 62.6019 198.395 61.288H197.111C197.111 62.7901 197.475 64.0354 198.316 64.9027C199.161 65.7738 200.38 66.1537 201.849 66.1537V64.8703ZM198.395 61.288V23.528H197.111V61.288H198.395ZM198.395 23.528C198.395 22.2378 198.712 21.3885 199.234 20.8582C199.755 20.3299 200.585 20.0097 201.849 20.0097V18.7263C200.382 18.7263 199.165 19.0995 198.32 19.9578C197.476 20.8142 197.111 22.0449 197.111 23.528H198.395ZM201.849 20.0097C203.113 20.0097 203.943 20.3299 204.464 20.8582C204.986 21.3885 205.303 22.2378 205.303 23.528H206.587C206.587 22.0449 206.222 20.8142 205.378 19.9578C204.533 19.0995 203.316 18.7263 201.849 18.7263V20.0097ZM205.303 23.528V39.848H206.587V23.528H205.303ZM205.945 40.4897H206.073V39.2063H205.945V40.4897ZM206.528 40.301L224.896 21.869L223.986 20.963L205.618 39.395L206.528 40.301ZM224.895 21.8698C225.541 21.2236 226.169 20.7575 226.776 20.454L226.202 19.306C225.444 19.6851 224.706 20.2431 223.987 20.9622L224.895 21.8698ZM226.776 20.454C227.36 20.1622 228.027 20.0097 228.793 20.0097V18.7263C227.852 18.7263 226.984 18.9151 226.202 19.306L226.776 20.454ZM228.793 20.0097C229.937 20.0097 230.577 20.3058 230.916 20.7289L231.918 19.9271C231.233 19.0702 230.124 18.7263 228.793 18.7263V20.0097ZM230.932 20.7483C231.361 21.2435 231.523 21.8009 231.422 22.4728L232.692 22.6632C232.847 21.6284 232.582 20.6925 231.902 19.9077L230.932 20.7483ZM231.418 22.5041C231.351 23.1826 231.029 23.8403 230.387 24.4822L231.295 25.3898C232.103 24.5811 232.593 23.6601 232.696 22.6319L231.418 22.5041ZM230.39 24.4796L213.558 41.1196L214.46 42.0324L231.292 25.3924L230.39 24.4796ZM213.552 42.0265L231.28 60.0105L232.194 59.1095L214.466 41.1255L213.552 42.0265ZM231.294 60.0247C232.11 60.8012 232.471 61.5509 232.504 62.2771L233.786 62.2189C233.734 61.0677 233.156 60.0255 232.18 59.0953L231.294 60.0247ZM232.504 62.2771C232.539 63.0435 232.302 63.6551 231.795 64.1622L232.703 65.0698C233.476 64.2969 233.837 63.3299 233.786 62.2189L232.504 62.2771ZM231.795 64.1622C231.361 64.5968 230.657 64.8703 229.561 64.8703V66.1537C230.855 66.1537 231.943 65.8299 232.703 65.0698L231.795 64.1622ZM229.561 64.8703C228.623 64.8703 227.926 64.6746 227.421 64.338L226.709 65.406C227.484 65.9227 228.451 66.1537 229.561 66.1537V64.8703ZM227.438 64.3498C226.881 63.9517 226.205 63.3601 225.407 62.5622L224.499 63.4698C225.323 64.2932 226.055 64.9389 226.692 65.3942L227.438 64.3498ZM225.407 62.5622L206.527 43.6822L205.619 44.5898L224.499 63.4698L225.407 62.5622ZM206.073 43.4943H205.945V44.7777H206.073V43.4943ZM205.303 44.136V61.288H206.587V44.136H205.303ZM205.303 61.288C205.303 62.6019 204.985 63.4686 204.46 64.0093C203.94 64.5462 203.11 64.8703 201.849 64.8703V66.1537C203.318 66.1537 204.537 65.7738 205.382 64.9027C206.223 64.0354 206.587 62.7901 206.587 61.288H205.303ZM254.588 26.408V25.7663H253.946V26.408H254.588ZM254.588 38.824H253.946V39.4657H254.588V38.824ZM254.588 45.352V44.7103H253.946V45.352H254.588ZM254.588 58.472H253.946V59.1137H254.588V58.472ZM251.068 64.3583C249.716 64.3583 248.82 64.0208 248.257 63.4582C247.695 62.8957 247.357 61.9997 247.357 60.648H246.074C246.074 62.1976 246.462 63.4776 247.35 64.3658C248.238 65.2539 249.518 65.6417 251.068 65.6417V64.3583ZM247.357 60.648V24.232H246.074V60.648H247.357ZM247.357 24.232C247.357 22.8803 247.695 21.9843 248.257 21.4218C248.82 20.8592 249.716 20.5217 251.068 20.5217V19.2383C249.518 19.2383 248.238 19.6261 247.35 20.5142C246.462 21.4024 246.074 22.6824 246.074 24.232H247.357ZM251.068 20.5217H273.915V19.2383H251.068V20.5217ZM273.915 20.5217C274.932 20.5217 275.576 20.7665 275.967 21.1426C276.353 21.5142 276.602 22.1188 276.602 23.08H277.885C277.885 21.9079 277.579 20.9125 276.856 20.2174C276.138 19.5269 275.118 19.2383 273.915 19.2383V20.5217ZM276.602 23.08C276.602 24.0904 276.35 24.7304 275.958 25.1222C275.566 25.5141 274.926 25.7663 273.915 25.7663V27.0497C275.124 27.0497 276.148 26.7472 276.865 26.0298C277.583 25.3123 277.885 24.2882 277.885 23.08H276.602ZM273.915 25.7663H254.588V27.0497H273.915V25.7663ZM253.946 26.408V38.824H255.229V26.408H253.946ZM254.588 39.4657H272.508V38.1823H254.588V39.4657ZM272.508 39.4657C273.521 39.4657 274.163 39.7142 274.554 40.0982C274.943 40.4798 275.194 41.1021 275.194 42.088H276.477C276.477 40.8979 276.173 39.8882 275.453 39.1818C274.735 38.4778 273.713 38.1823 272.508 38.1823V39.4657ZM275.194 42.088C275.194 43.0739 274.943 43.6962 274.554 44.0778C274.163 44.4618 273.521 44.7103 272.508 44.7103V45.9937C273.713 45.9937 274.735 45.6982 275.453 44.9942C276.173 44.2878 276.477 43.2781 276.477 42.088H275.194ZM272.508 44.7103H254.588V45.9937H272.508V44.7103ZM253.946 45.352V58.472H255.229V45.352H253.946ZM254.588 59.1137H273.915V57.8303H254.588V59.1137ZM273.915 59.1137C274.929 59.1137 275.571 59.3622 275.962 59.7462C276.351 60.1278 276.602 60.7501 276.602 61.736H277.885C277.885 60.5459 277.581 59.5362 276.861 58.8298C276.143 58.1258 275.121 57.8303 273.915 57.8303V59.1137ZM276.602 61.736C276.602 62.7219 276.351 63.3442 275.962 63.7258C275.571 64.1098 274.929 64.3583 273.915 64.3583V65.6417C275.121 65.6417 276.143 65.3462 276.861 64.6422C277.581 63.9358 277.885 62.9261 277.885 61.736H276.602ZM273.915 64.3583H251.068V65.6417H273.915V64.3583ZM322.343 23.464L321.917 23.9437L321.921 23.9474L322.343 23.464ZM323.751 41.768L324.251 42.1701L324.255 42.1653L323.751 41.768ZM316.199 46.184L316.053 45.5591L313.767 46.0935L316.007 46.7963L316.199 46.184ZM321.575 51.112L322.14 50.8073L322.139 50.8067L321.575 51.112ZM326.375 60.008L326.942 59.7069L326.94 59.7033L326.375 60.008ZM326.759 63.784L326.165 63.5419L326.161 63.5514L326.157 63.5611L326.759 63.784ZM320.679 64.808L320.309 65.3323L320.32 65.3397L320.33 65.3468L320.679 64.808ZM318.759 62.504L319.323 62.1984L319.323 62.1978L318.759 62.504ZM312.295 50.6L311.728 50.9003L311.731 50.9062L312.295 50.6ZM309.543 47.72L309.256 48.294L309.27 48.301L309.285 48.3074L309.543 47.72ZM299.495 46.952V46.3103H298.853V46.952H299.495ZM299.495 40.872H298.853V41.5137H299.495V40.872ZM299.495 26.344V25.7023H298.853V26.344H299.495ZM295.399 64.8703C294.138 64.8703 293.308 64.5462 292.788 64.0093C292.263 63.4686 291.945 62.6019 291.945 61.288H290.661C290.661 62.7901 291.025 64.0354 291.866 64.9027C292.711 65.7738 293.93 66.1537 295.399 66.1537V64.8703ZM291.945 61.288V24.04H290.661V61.288H291.945ZM291.945 24.04C291.945 22.7523 292.266 21.9043 292.797 21.3738C293.327 20.8432 294.175 20.5217 295.463 20.5217V19.2383C293.977 19.2383 292.745 19.6101 291.889 20.4662C291.033 21.3224 290.661 22.5544 290.661 24.04H291.945ZM295.463 20.5217H310.887V19.2383H295.463V20.5217ZM310.887 20.5217C315.739 20.5217 319.384 21.6924 321.917 23.9436L322.769 22.9844C319.926 20.457 315.934 19.2383 310.887 19.2383V20.5217ZM321.921 23.9474C324.442 26.1483 325.733 29.2629 325.733 33.384H327.017C327.017 28.9718 325.62 25.473 322.765 22.9806L321.921 23.9474ZM325.733 33.384C325.733 36.6393 324.891 39.2859 323.247 41.3707L324.255 42.1653C326.11 39.8127 327.017 36.87 327.017 33.384H325.733ZM323.251 41.3659C321.609 43.4083 319.229 44.8167 316.053 45.5591L316.345 46.8089C319.74 46.0153 322.394 44.4797 324.251 42.1701L323.251 41.3659ZM316.007 46.7963C317.98 47.4154 319.657 48.9162 321.011 51.4173L322.139 50.8067C320.677 48.1025 318.77 46.3179 316.391 45.5717L316.007 46.7963ZM321.01 51.4167L325.81 60.3127L326.94 59.7033L322.14 50.8073L321.01 51.4167ZM325.808 60.3091C326.468 61.5509 326.545 62.6079 326.165 63.5419L327.353 64.0261C327.911 62.6561 327.733 61.1958 326.942 59.7069L325.808 60.3091ZM326.157 63.5611C325.999 63.9889 325.728 64.2985 325.323 64.5128C324.902 64.7356 324.306 64.8703 323.495 64.8703V66.1537C324.433 66.1537 325.256 66.0004 325.923 65.6472C326.606 65.2855 327.093 64.7311 327.361 64.0069L326.157 63.5611ZM323.495 64.8703C322.426 64.8703 321.62 64.6524 321.028 64.2692L320.33 65.3468C321.189 65.9023 322.26 66.1537 323.495 66.1537V64.8703ZM321.049 64.2837C320.426 63.8436 319.845 63.1615 319.323 62.1984L318.195 62.8096C318.782 63.8945 319.482 64.7484 320.309 65.3323L321.049 64.2837ZM319.323 62.1978L312.859 50.2938L311.731 50.9062L318.195 62.8102L319.323 62.1978ZM312.862 50.2997C312.054 48.7725 311.045 47.6798 309.801 47.1326L309.285 48.3074C310.174 48.6988 311 49.5262 311.728 50.9003L312.862 50.2997ZM309.83 47.146C308.688 46.5749 307.257 46.3103 305.575 46.3103V47.5937C307.135 47.5937 308.35 47.8411 309.256 48.294L309.83 47.146ZM305.575 46.3103H299.495V47.5937H305.575V46.3103ZM298.853 46.952V61.288H300.137V46.952H298.853ZM298.853 61.288C298.853 62.6019 298.535 63.4686 298.01 64.0093C297.49 64.5462 296.66 64.8703 295.399 64.8703V66.1537C296.868 66.1537 298.087 65.7738 298.932 64.9027C299.773 64.0354 300.137 62.7901 300.137 61.288H298.853ZM299.495 41.5137H309.479V40.2303H299.495V41.5137ZM309.479 41.5137C312.536 41.5137 314.948 40.894 316.604 39.5456C318.285 38.1767 319.081 36.1457 319.081 33.576H317.797C317.797 35.8703 317.099 37.4873 315.794 38.5504C314.463 39.634 312.395 40.2303 309.479 40.2303V41.5137ZM319.081 33.576C319.081 31.0257 318.284 29.0102 316.602 27.6526C314.946 26.3162 312.535 25.7023 309.479 25.7023V26.9857C312.396 26.9857 314.465 27.5771 315.796 28.6514C317.101 29.7044 317.797 31.305 317.797 33.576H319.081ZM309.479 25.7023H299.495V26.9857H309.479V25.7023ZM298.853 26.344V40.872H300.137V26.344H298.853ZM348.621 64.68L348.472 65.3043L348.475 65.3048L348.621 64.68ZM341.581 61.8L341.23 62.3375L341.236 62.3409L341.581 61.8ZM339.981 56.808L339.396 56.5447L339.393 56.5518L339.39 56.559L339.981 56.808ZM341.709 55.08L341.942 55.6781L341.95 55.6749L341.958 55.6714L341.709 55.08ZM344.461 55.528L344.121 56.0722L344.128 56.0764L344.135 56.0805L344.461 55.528ZM364.365 57.064L364.741 57.5843L364.75 57.5774L364.365 57.064ZM365.005 49.128L364.604 49.6292L364.614 49.6367L365.005 49.128ZM359.437 47.016L359.569 46.3879L359.568 46.3879L359.437 47.016ZM352.397 45.544L352.263 46.1717L352.266 46.1721L352.397 45.544ZM342.605 25.832L342.083 25.459L342.605 25.832ZM348.813 20.968L348.557 20.3796L348.813 20.968ZM365.261 20.2L365.433 19.5817L365.261 20.2ZM371.469 23.016L371.837 22.4902L371.828 22.484L371.469 23.016ZM373.005 25.256L372.375 25.3761L372.376 25.3818L373.005 25.256ZM372.685 27.688L373.252 27.9883L373.256 27.9817L373.259 27.975L372.685 27.688ZM370.829 29.224L371.022 29.8359L371.032 29.833L371.041 29.8297L370.829 29.224ZM367.949 28.648L368.27 28.0921L368.266 28.0899L367.949 28.648ZM363.149 26.728L363.001 27.3525L363.149 26.728ZM350.989 28.008L351.372 28.523L350.989 28.008ZM350.029 36.584L349.595 37.0571L349.601 37.0621L349.606 37.067L350.029 36.584ZM355.277 38.696L355.409 38.0681L355.407 38.0676L355.277 38.696ZM362.253 40.168L362.386 39.5402L362.385 39.5401L362.253 40.168ZM371.661 44.392L371.222 44.8602L371.227 44.8647L371.661 44.392ZM372.621 59.176L372.097 58.8051L372.621 59.176ZM366.413 63.976L366.661 64.5678L366.666 64.5658L366.413 63.976ZM357.005 64.9983C354.195 64.9983 351.449 64.6837 348.767 64.0552L348.475 65.3048C351.254 65.9563 354.098 66.2817 357.005 66.2817V64.9983ZM348.77 64.0557C346.14 63.4297 343.862 62.4948 341.926 61.2591L341.236 62.3409C343.31 63.6652 345.726 64.6503 348.472 65.3043L348.77 64.0557ZM341.932 61.2625C341.058 60.6926 340.583 60.032 340.415 59.2898L339.163 59.5742C339.421 60.7093 340.142 61.6274 341.23 62.3375L341.932 61.2625ZM340.415 59.2898C340.228 58.4689 340.288 57.7323 340.572 57.057L339.39 56.559C338.991 57.505 338.923 58.5177 339.163 59.5742L340.415 59.2898ZM340.566 57.0713C340.891 56.3489 341.352 55.9073 341.942 55.6781L341.476 54.4819C340.53 54.85 339.839 55.5604 339.396 56.5447L340.566 57.0713ZM341.958 55.6714C342.51 55.4391 343.202 55.4981 344.121 56.0722L344.801 54.9838C343.672 54.2779 342.53 54.0382 341.46 54.4886L341.958 55.6714ZM344.135 56.0805C346.065 57.2214 348.108 58.0562 350.26 58.5833L350.566 57.3367C348.537 56.8398 346.611 56.0533 344.787 54.9755L344.135 56.0805ZM350.26 58.5833C352.404 59.1084 354.653 59.3697 357.005 59.3697V58.0863C354.749 58.0863 352.603 57.8356 350.566 57.3367L350.26 58.5833ZM357.005 59.3697C360.418 59.3697 363.039 58.8134 364.741 57.5842L363.989 56.5438C362.619 57.5332 360.333 58.0863 357.005 58.0863V59.3697ZM364.75 57.5774C366.434 56.3143 367.311 54.6582 367.311 52.648H366.027C366.027 54.2218 365.368 55.5097 363.98 56.5506L364.75 57.5774ZM367.311 52.648C367.311 50.9709 366.675 49.6033 365.396 48.6193L364.614 49.6367C365.553 50.3594 366.027 51.3384 366.027 52.648H367.311ZM365.406 48.6269C364.216 47.6749 362.234 46.9468 359.569 46.3879L359.305 47.6441C361.93 48.1945 363.661 48.8745 364.604 49.6291L365.406 48.6269ZM359.568 46.3879L352.528 44.9159L352.266 46.1721L359.306 47.6441L359.568 46.3879ZM352.531 44.9163C348.593 44.0786 345.719 42.6649 343.833 40.7282C341.96 38.8059 341.007 36.3133 341.007 33.192H339.723C339.723 36.5987 340.775 39.4287 342.913 41.6238C345.037 43.8044 348.179 45.3027 352.263 46.1717L352.531 44.9163ZM341.007 33.192C341.007 30.4963 341.719 28.1763 343.127 26.205L342.083 25.459C340.504 27.669 339.723 30.2557 339.723 33.192H341.007ZM343.127 26.205C344.545 24.2201 346.517 22.6678 349.069 21.5564L348.557 20.3796C345.818 21.5722 343.652 23.2625 342.083 25.459L343.127 26.205ZM349.069 21.5564C351.619 20.4458 354.58 19.8817 357.965 19.8817V18.5983C354.438 18.5983 351.297 19.1862 348.557 20.3796L349.069 21.5564ZM357.965 19.8817C360.471 19.8817 362.845 20.1949 365.089 20.8183L365.433 19.5817C363.069 18.9251 360.579 18.5983 357.965 18.5983V19.8817ZM365.089 20.8183C367.332 21.4413 369.337 22.3523 371.11 23.548L371.828 22.484C369.931 21.205 367.798 20.2387 365.433 19.5817L365.089 20.8183ZM371.101 23.5417C371.838 24.0579 372.24 24.6679 372.375 25.3761L373.635 25.1359C373.429 24.0521 372.806 23.1687 371.837 22.4903L371.101 23.5417ZM372.376 25.3818C372.519 26.0973 372.43 26.7625 372.111 27.401L373.259 27.975C373.708 27.0775 373.833 26.1214 373.634 25.1301L372.376 25.3818ZM372.118 27.3877C371.817 27.9551 371.335 28.3672 370.617 28.6183L371.041 29.8297C372.03 29.4835 372.785 28.8715 373.252 27.9883L372.118 27.3877ZM370.636 28.6121C370.068 28.7914 369.302 28.6878 368.27 28.0921L367.628 29.2039C368.815 29.8882 369.969 30.1686 371.022 29.8359L370.636 28.6121ZM368.266 28.0899C366.639 27.1666 364.982 26.5027 363.297 26.1035L363.001 27.3525C364.558 27.7213 366.102 28.3374 367.632 29.2061L368.266 28.0899ZM363.297 26.1035C361.621 25.7067 359.822 25.5103 357.901 25.5103V26.7937C359.735 26.7937 361.434 26.9813 363.001 27.3525L363.297 26.1035ZM357.901 25.5103C354.875 25.5103 352.419 26.1452 350.606 27.493L351.372 28.523C352.887 27.3961 355.039 26.7937 357.901 26.7937V25.5103ZM350.606 27.493C348.786 28.8466 347.851 30.6558 347.851 32.872H349.135C349.135 31.0776 349.864 29.6441 351.372 28.523L350.606 27.493ZM347.851 32.872C347.851 34.5667 348.424 35.9832 349.595 37.0571L350.463 36.1109C349.586 35.3074 349.135 34.2493 349.135 32.872H347.851ZM349.606 37.067C350.758 38.0749 352.642 38.8062 355.147 39.3244L355.407 38.0676C352.962 37.5618 351.348 36.8851 350.452 36.101L349.606 37.067ZM355.145 39.3239L362.121 40.7959L362.385 39.5401L355.409 38.0681L355.145 39.3239ZM362.12 40.7958C366.286 41.6795 369.294 43.0523 371.222 44.8602L372.1 43.9238C369.932 41.8917 366.668 40.4485 362.386 39.5402L362.12 40.7958ZM371.227 44.8647C373.168 46.647 374.155 49.0264 374.155 52.072H375.439C375.439 48.7176 374.336 45.977 372.095 43.9193L371.227 44.8647ZM374.155 52.072C374.155 54.6371 373.466 56.8734 372.097 58.8051L373.145 59.5469C374.678 57.3826 375.439 54.8829 375.439 52.072H374.155ZM372.097 58.8051C370.726 60.7415 368.758 62.2729 366.16 63.3862L366.666 64.5658C369.444 63.3751 371.615 61.7065 373.145 59.5469L372.097 58.8051ZM366.165 63.3842C363.616 64.4531 360.568 64.9983 357.005 64.9983V66.2817C360.695 66.2817 363.919 65.7176 366.661 64.5678L366.165 63.3842Z" fill="#248A82"/>
<path d="M25.58 69.64C22.7213 69.64 19.9267 69.32 17.196 68.68C14.508 68.04 12.1613 67.08 10.156 65.8C9.17467 65.16 8.57734 64.3707 8.36401 63.432C8.15067 62.4933 8.21467 61.6187 8.55601 60.808C8.94001 59.9547 9.51601 59.3787 10.284 59.08C11.0947 58.7387 12.012 58.888 13.036 59.528C14.9133 60.6373 16.8973 61.448 18.988 61.96C21.0787 62.472 23.276 62.728 25.58 62.728C28.9507 62.728 31.404 62.1733 32.94 61.064C34.476 59.912 35.244 58.44 35.244 56.648C35.244 55.1547 34.6893 53.9813 33.58 53.128C32.5133 52.2747 30.6573 51.5707 28.012 51.016L20.972 49.544C12.9507 47.8373 8.94001 43.72 8.94001 37.192C8.94001 34.376 9.68667 31.9227 11.18 29.832C12.6733 27.7413 14.7427 26.12 17.388 24.968C20.0333 23.816 23.084 23.24 26.54 23.24C29.1 23.24 31.532 23.56 33.836 24.2C36.14 24.84 38.2093 25.7787 40.044 27.016C40.8973 27.6133 41.4093 28.36 41.58 29.256C41.7507 30.1093 41.644 30.92 41.26 31.688C40.876 32.4133 40.2573 32.9253 39.404 33.224C38.5933 33.48 37.6333 33.288 36.524 32.648C34.9453 31.752 33.3453 31.112 31.724 30.728C30.1027 30.344 28.3533 30.152 26.476 30.152C23.532 30.152 21.228 30.7707 19.564 32.008C17.9 33.2453 17.068 34.8667 17.068 36.872C17.068 38.408 17.58 39.6453 18.604 40.584C19.628 41.48 21.3773 42.184 23.852 42.696L30.828 44.168C35.052 45.064 38.188 46.472 40.236 48.392C42.3267 50.312 43.372 52.872 43.372 56.072C43.372 58.76 42.6467 61.128 41.196 63.176C39.7453 65.224 37.676 66.824 34.988 67.976C32.3427 69.0853 29.2067 69.64 25.58 69.64ZM60.899 69.512C58.1683 69.512 56.803 68.104 56.803 65.288V28.04C56.803 25.2667 58.1897 23.88 60.963 23.88H76.387C81.3363 23.88 85.155 25.1173 87.843 27.592C90.531 30.0667 91.875 33.5227 91.875 37.96C91.875 42.3973 90.531 45.8747 87.843 48.392C85.155 50.8667 81.3363 52.104 76.387 52.104H64.995V65.288C64.995 68.104 63.6297 69.512 60.899 69.512ZM64.995 45.64H75.107C80.995 45.64 83.939 43.08 83.939 37.96C83.939 32.8827 80.995 30.344 75.107 30.344H64.995V45.64ZM109.305 69C106.404 69 104.953 67.5493 104.953 64.648V28.232C104.953 25.3307 106.404 23.88 109.305 23.88H132.153C134.372 23.88 135.481 24.9467 135.481 27.08C135.481 29.2987 134.372 30.408 132.153 30.408H112.825V42.824H130.745C132.964 42.824 134.073 43.912 134.073 46.088C134.073 48.264 132.964 49.352 130.745 49.352H112.825V62.472H132.153C134.372 62.472 135.481 63.56 135.481 65.736C135.481 67.912 134.372 69 132.153 69H109.305ZM149.176 69.512C147.683 69.512 146.616 69 145.976 67.976C145.336 66.952 145.357 65.7147 146.04 64.264L162.936 26.824C163.491 25.5867 164.152 24.712 164.92 24.2C165.731 23.6453 166.648 23.368 167.672 23.368C168.653 23.368 169.528 23.6453 170.296 24.2C171.107 24.712 171.789 25.5867 172.344 26.824L189.304 64.264C189.987 65.7573 190.029 67.016 189.432 68.04C188.835 69.0213 187.811 69.512 186.36 69.512C185.165 69.512 184.227 69.2347 183.544 68.68C182.904 68.0827 182.328 67.1867 181.816 65.992L178.616 58.568H156.6L153.464 65.992C152.909 67.2293 152.333 68.1253 151.736 68.68C151.139 69.2347 150.285 69.512 149.176 69.512ZM167.544 32.776L159.416 52.04H175.8L167.672 32.776H167.544ZM206.849 69.512C204.118 69.512 202.753 68.104 202.753 65.288V27.528C202.753 24.7547 204.118 23.368 206.849 23.368C209.58 23.368 210.945 24.7547 210.945 27.528V43.848H211.073L229.441 25.416C230.124 24.7333 230.806 24.2213 231.489 23.88C232.172 23.5387 232.94 23.368 233.793 23.368C235.03 23.368 235.905 23.688 236.417 24.328C236.972 24.968 237.185 25.7147 237.057 26.568C236.972 27.4213 236.566 28.2107 235.841 28.936L219.009 45.576L236.737 63.56C237.633 64.4133 238.102 65.3093 238.145 66.248C238.188 67.1867 237.889 67.976 237.249 68.616C236.652 69.2133 235.756 69.512 234.561 69.512C233.537 69.512 232.705 69.2987 232.065 68.872C231.468 68.4453 230.764 67.8267 229.953 67.016L211.073 48.136H210.945V65.288C210.945 68.104 209.58 69.512 206.849 69.512ZM256.068 69C253.166 69 251.716 67.5493 251.716 64.648V28.232C251.716 25.3307 253.166 23.88 256.068 23.88H278.916C281.134 23.88 282.244 24.9467 282.244 27.08C282.244 29.2987 281.134 30.408 278.916 30.408H259.588V42.824H277.508C279.726 42.824 280.836 43.912 280.836 46.088C280.836 48.264 279.726 49.352 277.508 49.352H259.588V62.472H278.916C281.134 62.472 282.244 63.56 282.244 65.736C282.244 67.912 281.134 69 278.916 69H256.068ZM300.399 69.512C297.668 69.512 296.303 68.104 296.303 65.288V28.04C296.303 25.2667 297.69 23.88 300.463 23.88H315.887C320.836 23.88 324.655 25.0747 327.343 27.464C330.031 29.8107 331.375 33.1173 331.375 37.384C331.375 40.7547 330.5 43.5493 328.751 45.768C327.002 47.944 324.484 49.416 321.199 50.184C323.375 50.8667 325.167 52.5093 326.575 55.112L331.375 64.008C332.1 65.3733 332.228 66.632 331.759 67.784C331.332 68.936 330.244 69.512 328.495 69.512C327.343 69.512 326.404 69.2773 325.679 68.808C324.954 68.296 324.314 67.528 323.759 66.504L317.295 54.6C316.527 53.1493 315.61 52.1893 314.543 51.72C313.519 51.208 312.196 50.952 310.575 50.952H304.495V65.288C304.495 68.104 303.13 69.512 300.399 69.512ZM304.495 44.872H314.479C320.452 44.872 323.439 42.44 323.439 37.576C323.439 32.7547 320.452 30.344 314.479 30.344H304.495V44.872ZM362.005 69.64C359.146 69.64 356.352 69.32 353.621 68.68C350.933 68.04 348.586 67.08 346.581 65.8C345.6 65.16 345.002 64.3707 344.789 63.432C344.576 62.4933 344.64 61.6187 344.981 60.808C345.365 59.9547 345.941 59.3787 346.709 59.08C347.52 58.7387 348.437 58.888 349.461 59.528C351.338 60.6373 353.322 61.448 355.413 61.96C357.504 62.472 359.701 62.728 362.005 62.728C365.376 62.728 367.829 62.1733 369.365 61.064C370.901 59.912 371.669 58.44 371.669 56.648C371.669 55.1547 371.114 53.9813 370.005 53.128C368.938 52.2747 367.082 51.5707 364.437 51.016L357.397 49.544C349.376 47.8373 345.365 43.72 345.365 37.192C345.365 34.376 346.112 31.9227 347.605 29.832C349.098 27.7413 351.168 26.12 353.813 24.968C356.458 23.816 359.509 23.24 362.965 23.24C365.525 23.24 367.957 23.56 370.261 24.2C372.565 24.84 374.634 25.7787 376.469 27.016C377.322 27.6133 377.834 28.36 378.005 29.256C378.176 30.1093 378.069 30.92 377.685 31.688C377.301 32.4133 376.682 32.9253 375.829 33.224C375.018 33.48 374.058 33.288 372.949 32.648C371.37 31.752 369.77 31.112 368.149 30.728C366.528 30.344 364.778 30.152 362.901 30.152C359.957 30.152 357.653 30.7707 355.989 32.008C354.325 33.2453 353.493 34.8667 353.493 36.872C353.493 38.408 354.005 39.6453 355.029 40.584C356.053 41.48 357.802 42.184 360.277 42.696L367.253 44.168C371.477 45.064 374.613 46.472 376.661 48.392C378.752 50.312 379.797 52.872 379.797 56.072C379.797 58.76 379.072 61.128 377.621 63.176C376.17 65.224 374.101 66.824 371.413 67.976C368.768 69.0853 365.632 69.64 362.005 69.64Z" fill="#0EB29F"/>
<path d="M17.196 68.68L17.0969 69.0962L17.0984 69.0965L17.196 68.68ZM10.156 65.8L9.92229 66.1584L9.92582 66.1606L10.156 65.8ZM8.55601 60.808L8.16575 60.6324L8.16171 60.642L8.55601 60.808ZM10.284 59.08L10.4391 59.4789L10.45 59.4743L10.284 59.08ZM13.036 59.528L12.8092 59.8909L12.8184 59.8963L13.036 59.528ZM32.94 61.064L33.1905 61.4109L33.1967 61.4063L32.94 61.064ZM33.58 53.128L33.3127 53.4621L33.3192 53.4671L33.58 53.128ZM28.012 51.016L28.0998 50.5973L28.0996 50.5972L28.012 51.016ZM20.972 49.544L20.883 49.9625L20.8844 49.9628L20.972 49.544ZM11.18 29.832L10.8319 29.5833L11.18 29.832ZM17.388 24.968L17.2172 24.5758L17.388 24.968ZM33.836 24.2L33.9505 23.7878L33.836 24.2ZM40.044 27.016L40.2894 26.6655L40.2832 26.6613L40.044 27.016ZM41.58 29.256L41.1597 29.3361L41.1605 29.3399L41.58 29.256ZM41.26 31.688L41.6382 31.8882L41.6427 31.8793L41.26 31.688ZM39.404 33.224L39.5329 33.6322L39.5453 33.6278L39.404 33.224ZM36.524 32.648L36.7378 32.2774L36.7352 32.2759L36.524 32.648ZM31.724 30.728L31.6254 31.1443L31.724 30.728ZM19.564 32.008L19.8193 32.3513V32.3513L19.564 32.008ZM18.604 40.584L18.3148 40.8995L18.3223 40.906L18.604 40.584ZM23.852 42.696L23.9403 42.2774L23.9387 42.2771L23.852 42.696ZM30.828 44.168L30.9168 43.7495L30.9163 43.7494L30.828 44.168ZM40.236 48.392L39.9434 48.7041L39.9466 48.7071L40.236 48.392ZM41.196 63.176L40.8469 62.9287L41.196 63.176ZM34.988 67.976L35.1535 68.3705L35.1565 68.3692L34.988 67.976ZM25.58 69.2122C22.7536 69.2122 19.9917 68.8958 17.2936 68.2635L17.0984 69.0965C19.8617 69.7442 22.6891 70.0678 25.58 70.0678V69.2122ZM17.2951 68.2638C14.6462 67.6331 12.3453 66.6899 10.3862 65.4394L9.92582 66.1606C11.9774 67.4701 14.3698 68.4469 17.0969 69.0962L17.2951 68.2638ZM10.3897 65.4417C9.48001 64.8484 8.96476 64.1449 8.78119 63.3372L7.94682 63.5268C8.18992 64.5964 8.86933 65.4716 9.9223 66.1583L10.3897 65.4417ZM8.78119 63.3372C8.58571 62.4771 8.64696 61.6945 8.9503 60.974L8.16171 60.642C7.78239 61.5429 7.71564 62.5096 7.94682 63.5268L8.78119 63.3372ZM8.94615 60.9836C9.29087 60.2175 9.79012 59.7311 10.4391 59.4787L10.1289 58.6813C9.2419 59.0262 8.58914 59.6918 8.16587 60.6324L8.94615 60.9836ZM10.45 59.4743C11.0881 59.2056 11.8555 59.2947 12.8093 59.8908L13.2628 59.1652C12.1685 58.4813 11.1013 58.2717 10.118 58.6857L10.45 59.4743ZM12.8184 59.8963C14.7313 61.0267 16.7543 61.8534 18.8862 62.3755L19.0898 61.5445C17.0404 61.0426 15.0954 60.248 13.2537 59.1597L12.8184 59.8963ZM18.8862 62.3755C21.0125 62.8962 23.2441 63.1558 25.58 63.1558V62.3002C23.3079 62.3002 21.1449 62.0477 19.0898 61.5445L18.8862 62.3755ZM25.58 63.1558C28.9789 63.1558 31.5438 62.6001 33.1905 61.4108L32.6895 60.7172C31.2642 61.7466 28.9224 62.3002 25.58 62.3002V63.1558ZM33.1967 61.4063C34.8315 60.1802 35.6718 58.5855 35.6718 56.648H34.8162C34.8162 58.2945 34.1205 59.6438 32.6833 60.7217L33.1967 61.4063ZM35.6718 56.648C35.6718 55.0322 35.0634 53.7293 33.8409 52.7889L33.3192 53.4671C34.3153 54.2334 34.8162 55.2772 34.8162 56.648H35.6718ZM33.8473 52.7939C32.6983 51.8748 30.7586 51.1548 28.0998 50.5973L27.9242 51.4347C30.5561 51.9866 32.3283 52.6745 33.3127 53.4621L33.8473 52.7939ZM28.0996 50.5972L21.0596 49.1252L20.8844 49.9628L27.9244 51.4348L28.0996 50.5972ZM21.061 49.1255C17.0993 48.2826 14.1806 46.8548 12.2545 44.8775C10.3377 42.9097 9.36783 40.3609 9.36783 37.192H8.51219C8.51219 40.5511 9.54765 43.3249 11.6415 45.4745C13.7261 47.6145 16.8233 49.0987 20.883 49.9625L21.061 49.1255ZM9.36783 37.192C9.36783 34.4562 10.0916 32.0918 11.5281 30.0807L10.8319 29.5833C9.28172 31.7536 8.51219 34.2958 8.51219 37.192H9.36783ZM11.5281 30.0807C12.9711 28.0605 14.9756 26.4852 17.5588 25.3602L17.2172 24.5758C14.5098 25.7548 12.3756 27.4221 10.8319 29.5833L11.5281 30.0807ZM17.5588 25.3602C20.1407 24.2359 23.1314 23.6678 26.54 23.6678V22.8122C23.0366 22.8122 19.926 23.3961 17.2172 24.5758L17.5588 25.3602ZM26.54 23.6678C29.064 23.6678 31.4573 23.9833 33.7215 24.6122L33.9505 23.7878C31.6067 23.1367 29.136 22.8122 26.54 22.8122V23.6678ZM33.7215 24.6122C35.9847 25.2409 38.0113 26.1611 39.8048 27.3707L40.2832 26.6613C38.4074 25.3962 36.2953 24.4391 33.9505 23.7878L33.7215 24.6122ZM39.7987 27.3665C40.5747 27.9097 41.0129 28.5653 41.1597 29.336L42.0003 29.1759C41.8058 28.1547 41.22 27.3169 40.2893 26.6655L39.7987 27.3665ZM41.1605 29.3399C41.3128 30.1013 41.2182 30.815 40.8773 31.4967L41.6427 31.8793C42.0698 31.025 42.1886 30.1174 41.9995 29.1721L41.1605 29.3399ZM40.8819 31.4878C40.5536 32.1079 40.0255 32.5532 39.2627 32.8202L39.5453 33.6278C40.4892 33.2974 41.1984 32.7188 41.6381 31.8882L40.8819 31.4878ZM39.2752 32.816C38.6262 33.021 37.7959 32.8878 36.7378 32.2774L36.3102 33.0186C37.4708 33.6882 38.5604 33.939 39.5328 33.632L39.2752 32.816ZM36.7352 32.2759C35.1244 31.3617 33.4867 30.7058 31.8226 30.3117L31.6254 31.1443C33.204 31.5182 34.7663 32.1423 36.3128 33.0201L36.7352 32.2759ZM31.8226 30.3117C30.1652 29.9191 28.3824 29.7242 26.476 29.7242V30.5798C28.3243 30.5798 30.0402 30.7688 31.6254 31.1443L31.8226 30.3117ZM26.476 29.7242C23.4775 29.7242 21.0718 30.3537 19.3087 31.6647L19.8193 32.3513C21.3842 31.1876 23.5865 30.5798 26.476 30.5798V29.7242ZM19.3087 31.6647C17.5405 32.9795 16.6402 34.7261 16.6402 36.872H17.4958C17.4958 35.0073 18.2595 33.5112 19.8193 32.3513L19.3087 31.6647ZM16.6402 36.872C16.6402 38.5138 17.1926 39.8706 18.3149 40.8994L18.8931 40.2686C17.9674 39.4201 17.4958 38.3022 17.4958 36.872H16.6402ZM18.3223 40.906C19.4316 41.8766 21.2707 42.5988 23.7653 43.1149L23.9387 42.2771C21.484 41.7692 19.8245 41.0834 18.8857 40.262L18.3223 40.906ZM23.7637 43.1146L30.7397 44.5866L30.9163 43.7494L23.9403 42.2774L23.7637 43.1146ZM30.7392 44.5865C34.9247 45.4743 37.9752 46.8589 39.9434 48.7041L40.5286 48.0799C38.4008 46.0851 35.1793 44.6537 30.9168 43.7495L30.7392 44.5865ZM39.9466 48.7071C41.9374 50.5353 42.9442 52.9749 42.9442 56.072H43.7998C43.7998 52.7691 42.716 50.0887 40.5254 48.0769L39.9466 48.7071ZM42.9442 56.072C42.9442 58.6781 42.2426 60.9582 40.8469 62.9287L41.5451 63.4233C43.0507 61.2978 43.7998 58.8419 43.7998 56.072H42.9442ZM40.8469 62.9287C39.4489 64.9023 37.4471 66.4566 34.8195 67.5828L35.1565 68.3692C37.9049 67.1914 40.0418 65.5457 41.5451 63.4233L40.8469 62.9287ZM34.8226 67.5815C32.2415 68.6639 29.1643 69.2122 25.58 69.2122V70.0678C29.249 70.0678 32.4439 69.5068 35.1535 68.3705L34.8226 67.5815ZM87.843 27.592L87.5532 27.9067L87.843 27.592ZM87.843 48.392L88.1328 48.7068L88.1355 48.7043L87.843 48.392ZM64.995 52.104V51.6762H64.5672V52.104H64.995ZM64.995 45.64H64.5672V46.0678H64.995V45.64ZM64.995 30.344V29.9162H64.5672V30.344H64.995ZM60.899 69.0842C59.603 69.0842 58.7088 68.7508 58.1341 68.1582C57.5571 67.5631 57.2308 66.6333 57.2308 65.288H56.3752C56.3752 66.7587 56.7316 67.9409 57.5199 68.7538C58.3105 69.5692 59.4643 69.9398 60.899 69.9398V69.0842ZM57.2308 65.288V28.04H56.3752V65.288H57.2308ZM57.2308 28.04C57.2308 26.7193 57.5607 25.8073 58.1455 25.2225C58.7303 24.6377 59.6423 24.3078 60.963 24.3078V23.4522C59.5104 23.4522 58.3424 23.8156 57.5405 24.6175C56.7386 25.4193 56.3752 26.5874 56.3752 28.04H57.2308ZM60.963 24.3078H76.387V23.4522H60.963V24.3078ZM76.387 24.3078C81.2676 24.3078 84.9687 25.5273 87.5532 27.9067L88.1328 27.2773C85.3414 24.7074 81.4051 23.4522 76.387 23.4522V24.3078ZM87.5532 27.9067C90.1347 30.2834 91.4472 33.6145 91.4472 37.96H92.3028C92.3028 33.4308 90.9273 29.85 88.1328 27.2773L87.5532 27.9067ZM91.4472 37.96C91.4472 42.3052 90.1348 45.6596 87.5506 48.0797L88.1355 48.7043C90.9272 46.0897 92.3028 42.4895 92.3028 37.96H91.4472ZM87.5532 48.0773C84.9687 50.4567 81.2676 51.6762 76.387 51.6762V52.5318C81.4051 52.5318 85.3414 51.2766 88.1328 48.7067L87.5532 48.0773ZM76.387 51.6762H64.995V52.5318H76.387V51.6762ZM64.5672 52.104V65.288H65.4228V52.104H64.5672ZM64.5672 65.288C64.5672 66.6333 64.2409 67.5631 63.6639 68.1582C63.0892 68.7508 62.195 69.0842 60.899 69.0842V69.9398C62.3337 69.9398 63.4875 69.5692 64.2781 68.7538C65.0664 67.9409 65.4228 66.7587 65.4228 65.288H64.5672ZM64.995 46.0678H75.107V45.2122H64.995V46.0678ZM75.107 46.0678C78.1034 46.0678 80.4306 45.4177 82.0117 44.0428C83.6043 42.658 84.3668 40.6027 84.3668 37.96H83.5112C83.5112 40.4373 82.8017 42.222 81.4503 43.3972C80.0874 44.5823 77.9986 45.2122 75.107 45.2122V46.0678ZM84.3668 37.96C84.3668 35.3375 83.6036 33.2978 82.0104 31.924C80.4293 30.5606 78.1027 29.9162 75.107 29.9162V30.7718C77.9993 30.7718 80.0887 31.3967 81.4516 32.572C82.8024 33.7368 83.5112 35.5052 83.5112 37.96H84.3668ZM75.107 29.9162H64.995V30.7718H75.107V29.9162ZM64.5672 30.344V45.64H65.4228V30.344H64.5672ZM112.825 30.408V29.9802H112.397V30.408H112.825ZM112.825 42.824H112.397V43.2518H112.825V42.824ZM112.825 49.352V48.9242H112.397V49.352H112.825ZM112.825 62.472H112.397V62.8998H112.825V62.472ZM109.305 68.5722C107.92 68.5722 106.96 68.2263 106.344 67.6095C105.727 66.9927 105.381 66.0327 105.381 64.648H104.525C104.525 66.1646 104.905 67.3807 105.738 68.2145C106.572 69.0484 107.788 69.4278 109.305 69.4278V68.5722ZM105.381 64.648V28.232H104.525V64.648H105.381ZM105.381 28.232C105.381 26.8473 105.727 25.8873 106.344 25.2705C106.96 24.6537 107.92 24.3078 109.305 24.3078V23.4522C107.788 23.4522 106.572 23.8316 105.738 24.6655C104.905 25.4993 104.525 26.7154 104.525 28.232H105.381ZM109.305 24.3078H132.153V23.4522H109.305V24.3078ZM132.153 24.3078C133.201 24.3078 133.907 24.5599 134.352 24.9884C134.795 25.4139 135.053 26.0836 135.053 27.08H135.909C135.909 25.943 135.612 25.0128 134.946 24.3716C134.282 23.7335 133.324 23.4522 132.153 23.4522V24.3078ZM135.053 27.08C135.053 28.1234 134.793 28.8273 134.346 29.2735C133.9 29.7196 133.196 29.9802 132.153 29.9802V30.8358C133.328 30.8358 134.288 30.5417 134.952 29.8785C135.615 29.2153 135.909 28.2553 135.909 27.08H135.053ZM132.153 29.9802H112.825V30.8358H132.153V29.9802ZM112.397 30.408V42.824H113.253V30.408H112.397ZM112.825 43.2518H130.745V42.3962H112.825V43.2518ZM130.745 43.2518C131.79 43.2518 132.496 43.5081 132.941 43.9454C133.386 44.3812 133.645 45.0681 133.645 46.088H134.501C134.501 44.9319 134.206 43.9868 133.541 43.3346C132.877 42.6839 131.918 42.3962 130.745 42.3962V43.2518ZM133.645 46.088C133.645 47.1079 133.386 47.7948 132.941 48.2306C132.496 48.6679 131.79 48.9242 130.745 48.9242V49.7798C131.918 49.7798 132.877 49.4921 133.541 48.8414C134.206 48.1892 134.501 47.2441 134.501 46.088H133.645ZM130.745 48.9242H112.825V49.7798H130.745V48.9242ZM112.397 49.352V62.472H113.253V49.352H112.397ZM112.825 62.8998H132.153V62.0442H112.825V62.8998ZM132.153 62.8998C133.198 62.8998 133.904 63.1561 134.349 63.5934C134.794 64.0292 135.053 64.7161 135.053 65.736H135.909C135.909 64.5799 135.614 63.6348 134.949 62.9826C134.285 62.3319 133.326 62.0442 132.153 62.0442V62.8998ZM135.053 65.736C135.053 66.7559 134.794 67.4428 134.349 67.8786C133.904 68.3159 133.198 68.5722 132.153 68.5722V69.4278C133.326 69.4278 134.285 69.1401 134.949 68.4894C135.614 67.8372 135.909 66.8921 135.909 65.736H135.053ZM132.153 68.5722H109.305V69.4278H132.153V68.5722ZM145.976 67.976L145.613 68.2027L145.976 67.976ZM146.04 64.264L146.427 64.4462L146.43 64.44L146.04 64.264ZM162.936 26.824L163.326 27L163.326 26.999L162.936 26.824ZM164.92 24.2L165.157 24.556L165.162 24.5531L164.92 24.2ZM170.296 24.2L170.046 24.5468L170.056 24.5546L170.068 24.5617L170.296 24.2ZM172.344 26.824L171.954 26.999L171.954 27.0005L172.344 26.824ZM189.304 64.264L188.914 64.4405L188.915 64.4419L189.304 64.264ZM189.432 68.04L189.798 68.2625L189.802 68.2556L189.432 68.04ZM183.544 68.68L183.252 68.9928L183.263 69.0028L183.274 69.012L183.544 68.68ZM181.816 65.992L182.209 65.8235L182.209 65.8227L181.816 65.992ZM178.616 58.568L179.009 58.3987L178.897 58.1402H178.616V58.568ZM156.6 58.568V58.1402H156.316L156.206 58.4015L156.6 58.568ZM153.464 65.992L153.854 66.167L153.858 66.1585L153.464 65.992ZM151.736 68.68L151.445 68.3665L151.736 68.68ZM167.544 32.776V32.3482H167.26L167.15 32.6097L167.544 32.776ZM159.416 52.04L159.022 51.8737L158.771 52.4678H159.416V52.04ZM175.8 52.04V52.4678H176.445L176.194 51.8737L175.8 52.04ZM167.672 32.776L168.066 32.6097L167.956 32.3482H167.672V32.776ZM149.176 69.0842C147.79 69.0842 146.881 68.6175 146.339 67.7493L145.613 68.2027C146.351 69.3825 147.575 69.9398 149.176 69.9398V69.0842ZM146.339 67.7493C145.8 66.8878 145.784 65.8134 146.427 64.4462L145.653 64.0818C144.931 65.6159 144.872 67.0162 145.613 68.2027L146.339 67.7493ZM146.43 64.44L163.326 27L162.546 26.648L145.65 64.088L146.43 64.44ZM163.326 26.999C163.863 25.8028 164.481 25.007 165.157 24.556L164.683 23.844C163.823 24.417 163.119 25.3706 162.546 26.649L163.326 26.999ZM165.162 24.5531C165.898 24.0492 166.73 23.7958 167.672 23.7958V22.9402C166.566 22.9402 165.563 23.2414 164.678 23.8469L165.162 24.5531ZM167.672 23.7958C168.567 23.7958 169.353 24.0468 170.046 24.5468L170.546 23.8532C169.703 23.2439 168.74 22.9402 167.672 22.9402V23.7958ZM170.068 24.5617C170.783 25.0137 171.42 25.808 171.954 26.999L172.734 26.649C172.159 25.3654 171.43 24.4103 170.524 23.8383L170.068 24.5617ZM171.954 27.0005L188.914 64.4405L189.694 64.0875L172.734 26.6475L171.954 27.0005ZM188.915 64.4419C189.564 65.8614 189.565 66.9632 189.062 67.8244L189.802 68.2556C190.494 67.0688 190.41 65.6533 189.693 64.0861L188.915 64.4419ZM189.067 67.8176C188.568 68.6371 187.706 69.0842 186.36 69.0842V69.9398C187.915 69.9398 189.102 69.4056 189.797 68.2624L189.067 67.8176ZM186.36 69.0842C185.229 69.0842 184.397 68.8217 183.814 68.348L183.274 69.012C184.057 69.6477 185.102 69.9398 186.36 69.9398V69.0842ZM183.836 68.3672C183.255 67.8252 182.708 66.9877 182.209 65.8235L181.423 66.1605C181.948 67.3857 182.553 68.3402 183.252 68.9928L183.836 68.3672ZM182.209 65.8227L179.009 58.3987L178.223 58.7373L181.423 66.1613L182.209 65.8227ZM178.616 58.1402H156.6V58.9958H178.616V58.1402ZM156.206 58.4015L153.07 65.8255L153.858 66.1585L156.994 58.7345L156.206 58.4015ZM153.074 65.817C152.529 67.0322 151.981 67.8684 151.445 68.3665L152.027 68.9935C152.685 68.3823 153.29 67.4265 153.854 66.167L153.074 65.817ZM151.445 68.3665C150.952 68.8246 150.217 69.0842 149.176 69.0842V69.9398C150.354 69.9398 151.326 69.6447 152.027 68.9935L151.445 68.3665ZM167.15 32.6097L159.022 51.8737L159.81 52.2063L167.938 32.9423L167.15 32.6097ZM159.416 52.4678H175.8V51.6122H159.416V52.4678ZM176.194 51.8737L168.066 32.6097L167.278 32.9423L175.406 52.2063L176.194 51.8737ZM167.672 32.3482H167.544V33.2038H167.672V32.3482ZM210.945 43.848H210.517V44.2758H210.945V43.848ZM211.073 43.848V44.2758H211.251L211.376 44.15L211.073 43.848ZM229.441 25.416L229.139 25.1135L229.138 25.114L229.441 25.416ZM231.489 23.88L231.298 23.4973L231.489 23.88ZM236.417 24.328L236.083 24.5953L236.088 24.6018L236.094 24.6082L236.417 24.328ZM237.057 26.568L236.634 26.5045L236.632 26.5149L236.631 26.5254L237.057 26.568ZM235.841 28.936L236.142 29.2402L236.144 29.2385L235.841 28.936ZM219.009 45.576L218.708 45.2718L218.404 45.5721L218.704 45.8763L219.009 45.576ZM236.737 63.56L236.432 63.8605L236.442 63.8698L236.737 63.56ZM238.145 66.248L238.572 66.2286L238.145 66.248ZM237.249 68.616L237.552 68.9185L237.249 68.616ZM232.065 68.872L231.816 69.2203L231.828 69.228L232.065 68.872ZM229.953 67.016L230.256 66.7135L229.953 67.016ZM211.073 48.136L211.376 47.8335L211.25 47.7082H211.073V48.136ZM210.945 48.136V47.7082H210.517V48.136H210.945ZM206.849 69.0842C205.553 69.0842 204.659 68.7508 204.084 68.1582C203.507 67.5631 203.181 66.6333 203.181 65.288H202.325C202.325 66.7587 202.682 67.9409 203.47 68.7538C204.261 69.5692 205.414 69.9398 206.849 69.9398V69.0842ZM203.181 65.288V27.528H202.325V65.288H203.181ZM203.181 27.528C203.181 26.2056 203.506 25.2927 204.082 24.7082C204.656 24.1248 205.551 23.7958 206.849 23.7958V22.9402C205.416 22.9402 204.263 23.3045 203.472 24.1078C202.682 24.9099 202.325 26.077 202.325 27.528H203.181ZM206.849 23.7958C208.147 23.7958 209.042 24.1248 209.616 24.7082C210.192 25.2927 210.517 26.2056 210.517 27.528H211.373C211.373 26.077 211.016 24.9099 210.226 24.1078C209.435 23.3045 208.282 22.9402 206.849 22.9402V23.7958ZM210.517 27.528V43.848H211.373V27.528H210.517ZM210.945 44.2758H211.073V43.4202H210.945V44.2758ZM211.376 44.15L229.744 25.718L229.138 25.114L210.77 43.546L211.376 44.15ZM229.744 25.7185C230.402 25.0602 231.048 24.5788 231.68 24.2627L231.298 23.4973C230.565 23.8639 229.845 24.4065 229.139 25.1135L229.744 25.7185ZM231.68 24.2627C232.297 23.9544 232.998 23.7958 233.793 23.7958V22.9402C232.881 22.9402 232.046 23.123 231.298 23.4973L231.68 24.2627ZM233.793 23.7958C234.968 23.7958 235.687 24.0999 236.083 24.5953L236.751 24.0607C236.123 23.2761 235.093 22.9402 233.793 22.9402V23.7958ZM236.094 24.6082C236.565 25.1517 236.744 25.7721 236.634 26.5045L237.48 26.6315C237.626 25.6572 237.379 24.7843 236.74 24.0478L236.094 24.6082ZM236.631 26.5254C236.558 27.2621 236.208 27.9637 235.538 28.6335L236.144 29.2385C236.924 28.4576 237.386 27.5805 237.483 26.6106L236.631 26.5254ZM235.54 28.6318L218.708 45.2718L219.31 45.8802L236.142 29.2402L235.54 28.6318ZM218.704 45.8763L236.432 63.8603L237.042 63.2597L219.314 45.2757L218.704 45.8763ZM236.442 63.8698C237.284 64.6719 237.681 65.4704 237.718 66.2674L238.572 66.2286C238.523 65.1483 237.982 64.1548 237.032 63.2502L236.442 63.8698ZM237.718 66.2674C237.755 67.0912 237.498 67.7621 236.947 68.3135L237.552 68.9185C238.28 68.1899 238.62 67.2821 238.572 66.2286L237.718 66.2674ZM236.947 68.3135C236.458 68.8023 235.69 69.0842 234.561 69.0842V69.9398C235.822 69.9398 236.846 69.6244 237.552 68.9185L236.947 68.3135ZM234.561 69.0842C233.594 69.0842 232.852 68.8826 232.302 68.516L231.828 69.228C232.558 69.7147 233.48 69.9398 234.561 69.9398V69.0842ZM232.314 68.5239C231.743 68.1163 231.058 67.5156 230.256 66.7135L229.65 67.3185C230.47 68.1377 231.192 68.7744 231.816 69.2201L232.314 68.5239ZM230.256 66.7135L211.376 47.8335L210.77 48.4385L229.65 67.3185L230.256 66.7135ZM211.073 47.7082H210.945V48.5638H211.073V47.7082ZM210.517 48.136V65.288H211.373V48.136H210.517ZM210.517 65.288C210.517 66.6333 210.191 67.5631 209.614 68.1582C209.039 68.7508 208.145 69.0842 206.849 69.0842V69.9398C208.284 69.9398 209.437 69.5692 210.228 68.7538C211.016 67.9409 211.373 66.7587 211.373 65.288H210.517ZM259.588 30.408V29.9802H259.16V30.408H259.588ZM259.588 42.824H259.16V43.2518H259.588V42.824ZM259.588 49.352V48.9242H259.16V49.352H259.588ZM259.588 62.472H259.16V62.8998H259.588V62.472ZM256.068 68.5722C254.683 68.5722 253.723 68.2263 253.106 67.6095C252.489 66.9927 252.143 66.0327 252.143 64.648H251.288C251.288 66.1646 251.667 67.3807 252.501 68.2145C253.335 69.0484 254.551 69.4278 256.068 69.4278V68.5722ZM252.143 64.648V28.232H251.288V64.648H252.143ZM252.143 28.232C252.143 26.8473 252.489 25.8873 253.106 25.2705C253.723 24.6537 254.683 24.3078 256.068 24.3078V23.4522C254.551 23.4522 253.335 23.8316 252.501 24.6655C251.667 25.4993 251.288 26.7154 251.288 28.232H252.143ZM256.068 24.3078H278.915V23.4522H256.068V24.3078ZM278.915 24.3078C279.963 24.3078 280.669 24.5599 281.115 24.9884C281.558 25.4139 281.816 26.0836 281.816 27.08H282.671C282.671 25.943 282.375 25.0128 281.708 24.3716C281.044 23.7335 280.087 23.4522 278.915 23.4522V24.3078ZM281.816 27.08C281.816 28.1234 281.555 28.8273 281.109 29.2735C280.663 29.7196 279.959 29.9802 278.915 29.9802V30.8358C280.091 30.8358 281.051 30.5417 281.714 29.8785C282.377 29.2153 282.671 28.2553 282.671 27.08H281.816ZM278.915 29.9802H259.588V30.8358H278.915V29.9802ZM259.16 30.408V42.824H260.015V30.408H259.16ZM259.588 43.2518H277.508V42.3962H259.588V43.2518ZM277.508 43.2518C278.553 43.2518 279.258 43.5081 279.704 43.9454C280.148 44.3812 280.408 45.0681 280.408 46.088H281.263C281.263 44.9319 280.968 43.9868 280.303 43.3346C279.64 42.6839 278.681 42.3962 277.508 42.3962V43.2518ZM280.408 46.088C280.408 47.1079 280.148 47.7948 279.704 48.2306C279.258 48.6679 278.553 48.9242 277.508 48.9242V49.7798C278.681 49.7798 279.64 49.4921 280.303 48.8414C280.968 48.1892 281.263 47.2441 281.263 46.088H280.408ZM277.508 48.9242H259.588V49.7798H277.508V48.9242ZM259.16 49.352V62.472H260.015V49.352H259.16ZM259.588 62.8998H278.915V62.0442H259.588V62.8998ZM278.915 62.8998C279.961 62.8998 280.666 63.1561 281.112 63.5934C281.556 64.0292 281.816 64.7161 281.816 65.736H282.671C282.671 64.5799 282.376 63.6348 281.711 62.9826C281.048 62.3319 280.089 62.0442 278.915 62.0442V62.8998ZM281.816 65.736C281.816 66.7559 281.556 67.4428 281.112 67.8786C280.666 68.3159 279.961 68.5722 278.915 68.5722V69.4278C280.089 69.4278 281.048 69.1401 281.711 68.4894C282.376 67.8372 282.671 66.8921 282.671 65.736H281.816ZM278.915 68.5722H256.068V69.4278H278.915V68.5722ZM327.343 27.464L327.059 27.7838L327.062 27.7863L327.343 27.464ZM328.751 45.768L329.084 46.0361L329.087 46.0329L328.751 45.768ZM321.199 50.184L321.102 49.7674L319.578 50.1237L321.071 50.5922L321.199 50.184ZM326.575 55.112L326.952 54.9088L326.951 54.9084L326.575 55.112ZM331.375 64.008L331.753 63.8073L331.751 63.8048L331.375 64.008ZM331.759 67.784L331.363 67.6225L331.358 67.6354L331.759 67.784ZM325.679 68.808L325.432 69.1575L325.439 69.1625L325.447 69.1672L325.679 68.808ZM323.759 66.504L324.135 66.3002L324.135 66.2998L323.759 66.504ZM317.295 54.6L316.917 54.8002L316.919 54.8042L317.295 54.6ZM314.543 51.72L314.352 52.1027L314.361 52.1074L314.371 52.1116L314.543 51.72ZM304.495 50.952V50.5242H304.067V50.952H304.495ZM304.495 44.872H304.067V45.2998H304.495V44.872ZM304.495 30.344V29.9162H304.067V30.344H304.495ZM300.399 69.0842C299.103 69.0842 298.209 68.7508 297.634 68.1582C297.057 67.5631 296.731 66.6333 296.731 65.288H295.875C295.875 66.7587 296.232 67.9409 297.02 68.7538C297.811 69.5692 298.964 69.9398 300.399 69.9398V69.0842ZM296.731 65.288V28.04H295.875V65.288H296.731ZM296.731 28.04C296.731 26.7193 297.061 25.8073 297.646 25.2225C298.23 24.6377 299.142 24.3078 300.463 24.3078V23.4522C299.01 23.4522 297.842 23.8156 297.04 24.6175C296.239 25.4193 295.875 26.5874 295.875 28.04H296.731ZM300.463 24.3078H315.887V23.4522H300.463V24.3078ZM315.887 24.3078C320.771 24.3078 324.474 25.4865 327.059 27.7838L327.627 27.1442C324.836 24.6629 320.902 23.4522 315.887 23.4522V24.3078ZM327.062 27.7863C329.638 30.0358 330.947 33.2144 330.947 37.384H331.803C331.803 33.0203 330.424 29.5856 327.624 27.1417L327.062 27.7863ZM330.947 37.384C330.947 40.6778 330.094 43.3737 328.415 45.5031L329.087 46.0329C330.907 43.7249 331.803 40.8315 331.803 37.384H330.947ZM328.418 45.4999C326.74 47.5869 324.314 49.0165 321.102 49.7674L321.296 50.6006C324.655 49.8155 327.264 48.3011 329.084 46.0361L328.418 45.4999ZM321.071 50.5922C323.112 51.2325 324.827 52.7806 326.199 55.3156L326.951 54.9084C325.507 52.2381 323.638 50.5008 321.327 49.7758L321.071 50.5922ZM326.198 55.3152L330.999 64.2112L331.751 63.8048L326.952 54.9088L326.198 55.3152ZM330.997 64.2087C331.679 65.4917 331.773 66.616 331.363 67.6226L332.155 67.9454C332.684 66.648 332.522 65.255 331.753 63.8073L330.997 64.2087ZM331.358 67.6354C331.181 68.1126 330.874 68.463 330.423 68.7019C329.961 68.9464 329.327 69.0842 328.495 69.0842V69.9398C329.412 69.9398 330.197 69.7896 330.823 69.4581C331.46 69.121 331.91 68.6074 332.16 67.9326L331.358 67.6354ZM328.495 69.0842C327.399 69.0842 326.548 68.8607 325.911 68.4488L325.447 69.1672C326.261 69.694 327.287 69.9398 328.495 69.9398V69.0842ZM325.926 68.4585C325.268 67.9944 324.668 67.2837 324.135 66.3002L323.383 66.7078C323.959 67.7723 324.639 68.5976 325.432 69.1575L325.926 68.4585ZM324.135 66.2998L317.671 54.3958L316.919 54.8042L323.383 66.7082L324.135 66.2998ZM317.673 54.3998C316.878 52.8981 315.9 51.8497 314.715 51.3284L314.371 52.1116C315.319 52.529 316.176 53.4006 316.917 54.8002L317.673 54.3998ZM314.734 51.3373C313.631 50.7859 312.237 50.5242 310.575 50.5242V51.3798C312.156 51.3798 313.407 51.6301 314.352 52.1027L314.734 51.3373ZM310.575 50.5242H304.495V51.3798H310.575V50.5242ZM304.067 50.952V65.288H304.923V50.952H304.067ZM304.067 65.288C304.067 66.6333 303.741 67.5631 303.164 68.1582C302.589 68.7508 301.695 69.0842 300.399 69.0842V69.9398C301.834 69.9398 302.987 69.5692 303.778 68.7538C304.566 67.9409 304.923 66.7587 304.923 65.288H304.067ZM304.495 45.2998H314.479V44.4442H304.495V45.2998ZM314.479 45.2998C317.513 45.2998 319.867 44.684 321.469 43.3797C323.088 42.0618 323.867 40.0998 323.867 37.576H323.011C323.011 39.9162 322.297 41.6022 320.929 42.7163C319.544 43.844 317.419 44.4442 314.479 44.4442V45.2998ZM323.867 37.576C323.867 35.0722 323.087 33.1259 321.468 31.8191C319.866 30.5264 317.512 29.9162 314.479 29.9162V30.7718C317.419 30.7718 319.545 31.3669 320.93 32.4849C322.298 33.5887 323.011 35.2584 323.011 37.576H323.867ZM314.479 29.9162H304.495V30.7718H314.479V29.9162ZM304.067 30.344V44.872H304.923V30.344H304.067ZM353.621 68.68L353.522 69.0962L353.523 69.0965L353.621 68.68ZM346.581 65.8L346.347 66.1584L346.351 66.1606L346.581 65.8ZM344.981 60.808L344.591 60.6324L344.587 60.642L344.981 60.808ZM346.709 59.08L346.864 59.4789L346.875 59.4743L346.709 59.08ZM349.461 59.528L349.234 59.8909L349.243 59.8963L349.461 59.528ZM369.365 61.064L369.616 61.4109L369.622 61.4063L369.365 61.064ZM370.005 53.128L369.738 53.4621L369.744 53.4671L370.005 53.128ZM364.437 51.016L364.525 50.5973L364.525 50.5972L364.437 51.016ZM357.397 49.544L357.308 49.9625L357.309 49.9628L357.397 49.544ZM347.605 29.832L347.257 29.5833L347.605 29.832ZM353.813 24.968L353.642 24.5758L353.813 24.968ZM370.261 24.2L370.375 23.7878L370.261 24.2ZM376.469 27.016L376.714 26.6655L376.708 26.6613L376.469 27.016ZM378.005 29.256L377.585 29.3361L377.585 29.3399L378.005 29.256ZM377.685 31.688L378.063 31.8882L378.068 31.8793L377.685 31.688ZM375.829 33.224L375.958 33.6322L375.97 33.6278L375.829 33.224ZM372.949 32.648L373.163 32.2774L373.16 32.2759L372.949 32.648ZM368.149 30.728L368.05 31.1443L368.149 30.728ZM355.989 32.008L356.244 32.3513V32.3513L355.989 32.008ZM355.029 40.584L354.74 40.8995L354.747 40.906L355.029 40.584ZM360.277 42.696L360.365 42.2774L360.364 42.2771L360.277 42.696ZM367.253 44.168L367.342 43.7495L367.341 43.7494L367.253 44.168ZM376.661 48.392L376.368 48.7041L376.372 48.7071L376.661 48.392ZM377.621 63.176L377.272 62.9287L377.621 63.176ZM371.413 67.976L371.578 68.3705L371.582 68.3692L371.413 67.976ZM362.005 69.2122C359.179 69.2122 356.417 68.8958 353.719 68.2635L353.523 69.0965C356.287 69.7442 359.114 70.0678 362.005 70.0678V69.2122ZM353.72 68.2638C351.071 67.6331 348.77 66.6899 346.811 65.4394L346.351 66.1606C348.402 67.4701 350.795 68.4469 353.522 69.0962L353.72 68.2638ZM346.815 65.4417C345.905 64.8484 345.39 64.1449 345.206 63.3372L344.372 63.5268C344.615 64.5964 345.294 65.4716 346.347 66.1583L346.815 65.4417ZM345.206 63.3372C345.011 62.4771 345.072 61.6945 345.375 60.974L344.587 60.642C344.207 61.5429 344.141 62.5096 344.372 63.5268L345.206 63.3372ZM345.371 60.9836C345.716 60.2175 346.215 59.7311 346.864 59.4787L346.554 58.6813C345.667 59.0262 345.014 59.6918 344.591 60.6324L345.371 60.9836ZM346.875 59.4743C347.513 59.2056 348.281 59.2947 349.234 59.8908L349.688 59.1652C348.593 58.4813 347.526 58.2717 346.543 58.6857L346.875 59.4743ZM349.243 59.8963C351.156 61.0267 353.179 61.8534 355.311 62.3755L355.515 61.5445C353.465 61.0426 351.52 60.248 349.679 59.1597L349.243 59.8963ZM355.311 62.3755C357.437 62.8962 359.669 63.1558 362.005 63.1558V62.3002C359.733 62.3002 357.57 62.0477 355.515 61.5445L355.311 62.3755ZM362.005 63.1558C365.404 63.1558 367.969 62.6001 369.615 61.4108L369.115 60.7172C367.689 61.7466 365.347 62.3002 362.005 62.3002V63.1558ZM369.622 61.4063C371.256 60.1802 372.097 58.5855 372.097 56.648H371.241C371.241 58.2945 370.546 59.6438 369.108 60.7217L369.622 61.4063ZM372.097 56.648C372.097 55.0322 371.488 53.7293 370.266 52.7889L369.744 53.4671C370.74 54.2334 371.241 55.2772 371.241 56.648H372.097ZM370.272 52.7939C369.123 51.8748 367.184 51.1548 364.525 50.5973L364.349 51.4347C366.981 51.9866 368.753 52.6745 369.738 53.4621L370.272 52.7939ZM364.525 50.5972L357.485 49.1252L357.309 49.9628L364.349 51.4348L364.525 50.5972ZM357.486 49.1255C353.524 48.2826 350.606 46.8548 348.679 44.8775C346.763 42.9097 345.793 40.3609 345.793 37.192H344.937C344.937 40.5511 345.973 43.3249 348.067 45.4745C350.151 47.6145 353.248 49.0987 357.308 49.9625L357.486 49.1255ZM345.793 37.192C345.793 34.4562 346.517 32.0918 347.953 30.0807L347.257 29.5833C345.707 31.7536 344.937 34.2958 344.937 37.192H345.793ZM347.953 30.0807C349.396 28.0605 351.401 26.4852 353.984 25.3602L353.642 24.5758C350.935 25.7548 348.801 27.4221 347.257 29.5833L347.953 30.0807ZM353.984 25.3602C356.566 24.2359 359.556 23.6678 362.965 23.6678V22.8122C359.462 22.8122 356.351 23.3961 353.642 24.5758L353.984 25.3602ZM362.965 23.6678C365.489 23.6678 367.882 23.9833 370.146 24.6122L370.375 23.7878C368.032 23.1367 365.561 22.8122 362.965 22.8122V23.6678ZM370.146 24.6122C372.41 25.2409 374.436 26.1611 376.23 27.3707L376.708 26.6613C374.832 25.3962 372.72 24.4391 370.375 23.7878L370.146 24.6122ZM376.224 27.3665C377 27.9097 377.438 28.5653 377.585 29.336L378.425 29.1759C378.231 28.1547 377.645 27.3169 376.714 26.6655L376.224 27.3665ZM377.585 29.3399C377.738 30.1013 377.643 30.815 377.302 31.4967L378.068 31.8793C378.495 31.025 378.614 30.1174 378.424 29.1721L377.585 29.3399ZM377.307 31.4878C376.979 32.1079 376.45 32.5532 375.688 32.8202L375.97 33.6278C376.914 33.2974 377.623 32.7188 378.063 31.8882L377.307 31.4878ZM375.7 32.816C375.051 33.021 374.221 32.8878 373.163 32.2774L372.735 33.0186C373.896 33.6882 374.985 33.939 375.958 33.632L375.7 32.816ZM373.16 32.2759C371.549 31.3617 369.912 30.7058 368.248 30.3117L368.05 31.1443C369.629 31.5182 371.191 32.1423 372.738 33.0201L373.16 32.2759ZM368.248 30.3117C366.59 29.9191 364.807 29.7242 362.901 29.7242V30.5798C364.749 30.5798 366.465 30.7688 368.05 31.1443L368.248 30.3117ZM362.901 29.7242C359.902 29.7242 357.497 30.3537 355.734 31.6647L356.244 32.3513C357.809 31.1876 360.012 30.5798 362.901 30.5798V29.7242ZM355.734 31.6647C353.966 32.9795 353.065 34.7261 353.065 36.872H353.921C353.921 35.0073 354.684 33.5112 356.244 32.3513L355.734 31.6647ZM353.065 36.872C353.065 38.5138 353.618 39.8706 354.74 40.8994L355.318 40.2686C354.392 39.4201 353.921 38.3022 353.921 36.872H353.065ZM354.747 40.906C355.857 41.8766 357.696 42.5988 360.19 43.1149L360.364 42.2771C357.909 41.7692 356.249 41.0834 355.311 40.262L354.747 40.906ZM360.189 43.1146L367.165 44.5866L367.341 43.7494L360.365 42.2774L360.189 43.1146ZM367.164 44.5865C371.35 45.4743 374.4 46.8589 376.368 48.7041L376.954 48.0799C374.826 46.0851 371.604 44.6537 367.342 43.7495L367.164 44.5865ZM376.372 48.7071C378.362 50.5353 379.369 52.9749 379.369 56.072H380.225C380.225 52.7691 379.141 50.0887 376.95 48.0769L376.372 48.7071ZM379.369 56.072C379.369 58.6781 378.668 60.9582 377.272 62.9287L377.97 63.4233C379.476 61.2978 380.225 58.8419 380.225 56.072H379.369ZM377.272 62.9287C375.874 64.9023 373.872 66.4566 371.244 67.5828L371.582 68.3692C374.33 67.1914 376.467 65.5457 377.97 63.4233L377.272 62.9287ZM371.248 67.5815C368.666 68.6639 365.589 69.2122 362.005 69.2122V70.0678C365.674 70.0678 368.869 69.5068 371.578 68.3705L371.248 67.5815Z" fill="#0EB29F"/>
<path d="M159 88H222.03" stroke="#248A82" stroke-width="4" stroke-linecap="round"/>
</svg>
