<svg width="383" height="91" viewBox="0 0 383 91" fill="none" xmlns="http://www.w3.org/2000/svg">
<path d="M10.7648 62.76L10.4378 63.3122L10.441 63.3141L10.7648 62.76ZM3.21276 54.696L2.64158 54.9886L2.64306 54.9914L3.21276 54.696ZM3.21276 30.12L3.78246 30.4154L3.21276 30.12ZM10.7648 22.12L11.0863 22.6754L11.0917 22.6722L10.7648 22.12ZM33.6768 22.12L33.3498 22.6722L33.3552 22.6754L33.6768 22.12ZM41.2288 30.12L41.7985 29.8246L41.2288 30.12ZM41.2288 54.696L41.7985 54.9914L41.7999 54.9885L41.2288 54.696ZM33.6768 62.76L34.0037 63.3122L33.6768 62.76ZM31.8848 54.312L31.3851 53.9093L31.8848 54.312ZM31.8848 30.504L31.3844 30.9058L31.3881 30.9104L31.8848 30.504ZM12.5568 30.504L12.0601 30.0976L12.5568 30.504ZM12.5568 54.312L13.0564 53.9093H13.0564L12.5568 54.312ZM22.2208 64.9983C17.9659 64.9983 14.2622 64.0607 11.0886 62.2059L10.441 63.3141C13.838 65.2993 17.7716 66.2817 22.2208 66.2817V64.9983ZM11.0917 62.2078C7.95593 60.3511 5.52109 57.7537 3.78246 54.4006L2.64306 54.9914C4.48842 58.5503 7.08825 61.3289 10.4378 63.3122L11.0917 62.2078ZM3.78393 54.4035C2.04648 51.0113 1.16649 47.0192 1.16649 42.408H-0.116976C-0.116976 47.1835 0.795034 51.3834 2.64159 54.9885L3.78393 54.4035ZM1.16649 42.408C1.16649 37.7528 2.04697 33.7624 3.78246 30.4154L2.64306 29.8246C0.794544 33.3896 -0.116976 37.5912 -0.116976 42.408H1.16649ZM3.78246 30.4154C5.52049 27.0635 7.95368 24.489 11.0863 22.6754L10.4432 21.5646C7.0905 23.5057 4.48902 26.2645 2.64306 29.8246L3.78246 30.4154ZM11.0917 22.6722C14.22 20.8199 17.9218 19.8817 22.2208 19.8817V18.5983C17.7304 18.5983 13.7949 19.5801 10.4378 21.5678L11.0917 22.6722ZM22.2208 19.8817C26.5197 19.8817 30.2215 20.8199 33.3498 22.6722L34.0037 21.5678C30.6466 19.5801 26.7111 18.5983 22.2208 18.5983V19.8817ZM33.3552 22.6754C36.4878 24.489 38.921 27.0635 40.6591 30.4154L41.7985 29.8246C39.9525 26.2645 37.351 23.5057 33.9983 21.5646L33.3552 22.6754ZM40.6591 30.4154C42.3949 33.7632 43.275 37.7325 43.275 42.344H44.5585C44.5585 37.5688 43.6466 33.3888 41.7985 29.8246L40.6591 30.4154ZM43.275 42.344C43.275 46.9989 42.3946 51.0121 40.6576 54.4035L41.7999 54.9885C43.6469 51.3826 44.5585 47.1611 44.5585 42.344H43.275ZM40.6591 54.4006C38.9204 57.7537 36.4856 60.3511 33.3498 62.2078L34.0037 63.3122C37.3533 61.3289 39.9531 58.5503 41.7985 54.9914L40.6591 54.4006ZM33.3498 62.2078C30.2215 64.0601 26.5197 64.9983 22.2208 64.9983V66.2817C26.7111 66.2817 30.6466 65.2999 34.0037 63.3122L33.3498 62.2078ZM22.2208 59.2417C26.5256 59.2417 29.9421 57.745 32.3844 54.7147L31.3851 53.9093C29.2194 56.5963 26.1932 57.9583 22.2208 57.9583V59.2417ZM32.3844 54.7147C34.81 51.7052 35.9825 47.5764 35.9825 42.408H34.699C34.699 47.3943 33.5675 51.2015 31.3851 53.9093L32.3844 54.7147ZM35.9825 42.408C35.9825 37.1992 34.811 33.0671 32.3814 30.0976L31.3881 30.9104C33.5665 33.5729 34.699 37.3768 34.699 42.408H35.9825ZM32.3851 30.1022C29.9819 27.1095 26.5622 25.6383 22.2208 25.6383V26.9217C26.242 26.9217 29.2649 28.2665 31.3844 30.9058L32.3851 30.1022ZM22.2208 25.6383C17.9194 25.6383 14.5036 27.1111 12.0601 30.0976L13.0534 30.9104C15.2179 28.2649 18.2448 26.9217 22.2208 26.9217V25.6383ZM12.0601 30.0976C9.63053 33.0671 8.45902 37.1992 8.45902 42.408H9.74249C9.74249 37.3768 10.875 33.5729 13.0534 30.9104L12.0601 30.0976ZM8.45902 42.408C8.45902 47.5764 9.63152 51.7052 12.0571 54.7147L13.0564 53.9093C10.874 51.2015 9.74249 47.3943 9.74249 42.408H8.45902ZM12.0571 54.7147C14.4994 57.745 17.9159 59.2417 22.2208 59.2417V57.9583C18.2483 57.9583 15.2221 56.5963 13.0564 53.9093L12.0571 54.7147ZM63.1908 60.84L62.7369 61.2938L62.743 61.2997L63.1908 60.84ZM69.2708 55.592L68.7927 56.0203L68.8023 56.0306L69.2708 55.592ZM91.5428 60.84L91.9965 61.2938L91.9995 61.2908L91.5428 60.84ZM77.3988 64.9983C71.3195 64.9983 66.7671 63.4276 63.6385 60.3803L62.743 61.2997C66.1851 64.6524 71.1046 66.2817 77.3988 66.2817V64.9983ZM63.6445 60.3862C60.5617 57.3034 58.9685 52.714 58.9685 46.504H57.685C57.685 52.9233 59.3344 57.8912 62.737 61.2938L63.6445 60.3862ZM58.9685 46.504V23.528H57.685V46.504H58.9685ZM58.9685 23.528C58.9685 22.2378 59.286 21.3885 59.808 20.8582C60.3283 20.3299 61.1589 20.0097 62.4228 20.0097V18.7263C60.956 18.7263 59.7386 19.0995 58.8935 19.9578C58.0502 20.8142 57.685 22.0449 57.685 23.528H58.9685ZM62.4228 20.0097C63.6866 20.0097 64.5172 20.3299 65.0375 20.8582C65.5595 21.3885 65.877 22.2378 65.877 23.528H67.1605C67.1605 22.0449 66.7953 20.8142 65.952 19.9578C65.107 19.0995 63.8895 18.7263 62.4228 18.7263V20.0097ZM65.877 23.528V46.44H67.1605V23.528H65.877ZM65.877 46.44C65.877 50.578 66.8123 53.8094 68.7928 56.0202L69.7487 55.1638C68.0599 53.2786 67.1605 50.4087 67.1605 46.44H65.877ZM68.8023 56.0306C70.8336 58.2004 73.7341 59.2417 77.3988 59.2417V57.9583C73.9807 57.9583 71.4626 56.9943 69.7392 55.1534L68.8023 56.0306ZM77.3988 59.2417C81.1237 59.2417 84.0291 58.1913 85.9903 55.9865C87.9386 53.796 88.8565 50.5749 88.8565 46.44H87.573C87.573 50.4117 86.6882 53.2707 85.0313 55.1335C83.3871 56.982 80.8844 57.9583 77.3988 57.9583V59.2417ZM88.8565 46.44V23.528H87.573V46.44H88.8565ZM88.8565 23.528C88.8565 22.2378 89.174 21.3885 89.696 20.8582C90.2163 20.3299 91.0469 20.0097 92.3108 20.0097V18.7263C90.844 18.7263 89.6266 19.0995 88.7815 19.9578C87.9382 20.8142 87.573 22.0449 87.573 23.528H88.8565ZM92.3108 20.0097C93.5507 20.0097 94.3639 20.3284 94.874 20.8546C95.3876 21.3846 95.701 22.2353 95.701 23.528H96.9845C96.9845 22.0474 96.6259 20.8181 95.7956 19.9614C94.9616 19.1009 93.7589 18.7263 92.3108 18.7263V20.0097ZM95.701 23.528V46.504H96.9845V23.528H95.701ZM95.701 46.504C95.701 52.7162 94.1279 57.3068 91.086 60.3892L91.9995 61.2908C95.3576 57.8879 96.9845 52.9212 96.9845 46.504H95.701ZM91.089 60.3862C88.0488 63.4264 83.5233 64.9983 77.3988 64.9983V66.2817C83.7328 66.2817 88.6367 64.6536 91.9965 61.2938L91.089 60.3862ZM143.337 23.464L142.91 23.9437L142.915 23.9474L143.337 23.464ZM144.745 41.768L145.245 42.1701L145.249 42.1653L144.745 41.768ZM137.193 46.184L137.047 45.5591L134.761 46.0935L137.001 46.7963L137.193 46.184ZM142.569 51.112L143.134 50.8073L143.133 50.8067L142.569 51.112ZM147.369 60.008L147.936 59.7069L147.934 59.7033L147.369 60.008ZM147.753 63.784L147.158 63.5419L147.155 63.5514L147.151 63.5611L147.753 63.784ZM141.673 64.808L141.303 65.3323L141.313 65.3397L141.324 65.3468L141.673 64.808ZM139.753 62.504L140.317 62.1984L140.317 62.1978L139.753 62.504ZM133.289 50.6L132.722 50.9003L132.725 50.9062L133.289 50.6ZM130.537 47.72L130.25 48.294L130.264 48.301L130.278 48.3074L130.537 47.72ZM120.489 46.952V46.3103H119.847V46.952H120.489ZM120.489 40.872H119.847V41.5137H120.489V40.872ZM120.489 26.344V25.7023H119.847V26.344H120.489ZM116.393 64.8703C115.131 64.8703 114.302 64.5462 113.781 64.0093C113.257 63.4686 112.938 62.6019 112.938 61.288H111.655C111.655 62.7901 112.019 64.0354 112.86 64.9027C113.705 65.7738 114.923 66.1537 116.393 66.1537V64.8703ZM112.938 61.288V24.04H111.655V61.288H112.938ZM112.938 24.04C112.938 22.7523 113.26 21.9043 113.791 21.3738C114.321 20.8432 115.169 20.5217 116.457 20.5217V19.2383C114.971 19.2383 113.739 19.6101 112.883 20.4662C112.027 21.3224 111.655 22.5544 111.655 24.04H112.938ZM116.457 20.5217H131.881V19.2383H116.457V20.5217ZM131.881 20.5217C136.732 20.5217 140.378 21.6924 142.91 23.9436L143.763 22.9844C140.92 20.457 136.928 19.2383 131.881 19.2383V20.5217ZM142.915 23.9474C145.436 26.1483 146.727 29.2629 146.727 33.384H148.01C148.01 28.9718 146.614 25.473 143.759 22.9806L142.915 23.9474ZM146.727 33.384C146.727 36.6393 145.885 39.2859 144.241 41.3707L145.249 42.1653C147.104 39.8127 148.01 36.87 148.01 33.384H146.727ZM144.245 41.3659C142.603 43.4083 140.222 44.8167 137.047 45.5591L137.339 46.8089C140.734 46.0153 143.388 44.4797 145.245 42.1701L144.245 41.3659ZM137.001 46.7963C138.974 47.4154 140.651 48.9162 142.004 51.4173L143.133 50.8067C141.67 48.1025 139.763 46.3179 137.385 45.5717L137.001 46.7963ZM142.004 51.4167L146.804 60.3127L147.934 59.7033L143.134 50.8073L142.004 51.4167ZM146.802 60.3091C147.462 61.5509 147.539 62.6079 147.158 63.5419L148.347 64.0261C148.905 62.6561 148.726 61.1958 147.935 59.7069L146.802 60.3091ZM147.151 63.5611C146.993 63.9889 146.721 64.2985 146.316 64.5128C145.896 64.7356 145.3 64.8703 144.489 64.8703V66.1537C145.427 66.1537 146.25 66.0004 146.917 65.6472C147.6 65.2855 148.086 64.7311 148.355 64.0069L147.151 63.5611ZM144.489 64.8703C143.42 64.8703 142.614 64.6524 142.021 64.2692L141.324 65.3468C142.183 65.9023 143.253 66.1537 144.489 66.1537V64.8703ZM142.043 64.2837C141.419 63.8436 140.839 63.1615 140.317 62.1984L139.188 62.8096C139.776 63.8945 140.476 64.7484 141.303 65.3323L142.043 64.2837ZM140.317 62.1978L133.853 50.2938L132.725 50.9062L139.189 62.8102L140.317 62.1978ZM133.856 50.2997C133.047 48.7725 132.039 47.6798 130.795 47.1326L130.278 48.3074C131.168 48.6988 131.994 49.5262 132.722 50.9003L133.856 50.2997ZM130.824 47.146C129.681 46.5749 128.251 46.3103 126.569 46.3103V47.5937C128.129 47.5937 129.344 47.8411 130.25 48.294L130.824 47.146ZM126.569 46.3103H120.489V47.5937H126.569V46.3103ZM119.847 46.952V61.288H121.13V46.952H119.847ZM119.847 61.288C119.847 62.6019 119.528 63.4686 119.004 64.0093C118.483 64.5462 117.654 64.8703 116.393 64.8703V66.1537C117.862 66.1537 119.081 65.7738 119.925 64.9027C120.767 64.0354 121.13 62.7901 121.13 61.288H119.847ZM120.489 41.5137H130.473V40.2303H120.489V41.5137ZM130.473 41.5137C133.53 41.5137 135.942 40.894 137.598 39.5456C139.279 38.1767 140.074 36.1457 140.074 33.576H138.791C138.791 35.8703 138.093 37.4873 136.788 38.5504C135.457 39.634 133.389 40.2303 130.473 40.2303V41.5137ZM140.074 33.576C140.074 31.0257 139.278 29.0102 137.596 27.6526C135.94 26.3162 133.529 25.7023 130.473 25.7023V26.9857C133.39 26.9857 135.459 27.5771 136.79 28.6514C138.094 29.7044 138.791 31.305 138.791 33.576H140.074ZM130.473 25.7023H120.489V26.9857H130.473V25.7023ZM119.847 26.344V40.872H121.13V26.344H119.847ZM197.227 26.728H197.868V26.0863H197.227V26.728ZM205.419 26.728V26.0863H204.777V26.728H205.419ZM201.323 64.8703C200.061 64.8703 199.232 64.5462 198.711 64.0093C198.187 63.4686 197.868 62.6019 197.868 61.288H196.585C196.585 62.7901 196.949 64.0354 197.79 64.9027C198.635 65.7738 199.853 66.1537 201.323 66.1537V64.8703ZM197.868 61.288V26.728H196.585V61.288H197.868ZM197.227 26.0863H184.747V27.3697H197.227V26.0863ZM184.747 26.0863C183.669 26.0863 182.98 25.8219 182.556 25.4061C182.135 24.9924 181.868 24.3221 181.868 23.272H180.585C180.585 24.5259 180.905 25.5836 181.657 26.3219C182.407 27.0581 183.477 27.3697 184.747 27.3697V26.0863ZM181.868 23.272C181.868 22.2464 182.133 21.5936 182.552 21.1901C182.975 20.7823 183.667 20.5217 184.747 20.5217V19.2383C183.48 19.2383 182.412 19.543 181.661 20.2659C180.907 20.993 180.585 22.0362 180.585 23.272H181.868ZM184.747 20.5217H217.899V19.2383H184.747V20.5217ZM217.899 20.5217C218.979 20.5217 219.67 20.7823 220.093 21.1901C220.512 21.5936 220.777 22.2464 220.777 23.272H222.061C222.061 22.0362 221.739 20.993 220.984 20.2659C220.234 19.543 219.165 19.2383 217.899 19.2383V20.5217ZM220.777 23.272C220.777 24.3221 220.51 24.9924 220.089 25.4061C219.666 25.8219 218.976 26.0863 217.899 26.0863V27.3697C219.168 27.3697 220.239 27.0581 220.988 26.3219C221.74 25.5836 222.061 24.5259 222.061 23.272H220.777ZM217.899 26.0863H205.419V27.3697H217.899V26.0863ZM204.777 26.728V61.288H206.061V26.728H204.777ZM204.777 61.288C204.777 62.6019 204.458 63.4686 203.934 64.0093C203.413 64.5462 202.584 64.8703 201.323 64.8703V66.1537C202.792 66.1537 204.011 65.7738 204.855 64.9027C205.697 64.0354 206.061 62.7901 206.061 61.288H204.777ZM240.369 26.408V25.7663H239.727V26.408H240.369ZM240.369 38.824H239.727V39.4657H240.369V38.824ZM240.369 45.352V44.7103H239.727V45.352H240.369ZM240.369 58.472H239.727V59.1137H240.369V58.472ZM236.849 64.3583C235.497 64.3583 234.601 64.0208 234.039 63.4582C233.476 62.8957 233.138 61.9997 233.138 60.648H231.855C231.855 62.1976 232.243 63.4776 233.131 64.3658C234.019 65.2539 235.299 65.6417 236.849 65.6417V64.3583ZM233.138 60.648V24.232H231.855V60.648H233.138ZM233.138 24.232C233.138 22.8803 233.476 21.9843 234.039 21.4218C234.601 20.8592 235.497 20.5217 236.849 20.5217V19.2383C235.299 19.2383 234.019 19.6261 233.131 20.5142C232.243 21.4024 231.855 22.6824 231.855 24.232H233.138ZM236.849 20.5217H259.697V19.2383H236.849V20.5217ZM259.697 20.5217C260.713 20.5217 261.357 20.7665 261.748 21.1426C262.134 21.5142 262.383 22.1188 262.383 23.08H263.667C263.667 21.9079 263.36 20.9125 262.638 20.2174C261.919 19.5269 260.899 19.2383 259.697 19.2383V20.5217ZM262.383 23.08C262.383 24.0904 262.131 24.7304 261.739 25.1222C261.347 25.5141 260.707 25.7663 259.697 25.7663V27.0497C260.905 27.0497 261.929 26.7472 262.647 26.0298C263.364 25.3123 263.667 24.2882 263.667 23.08H262.383ZM259.697 25.7663H240.369V27.0497H259.697V25.7663ZM239.727 26.408V38.824H241.01V26.408H239.727ZM240.369 39.4657H258.289V38.1823H240.369V39.4657ZM258.289 39.4657C259.302 39.4657 259.944 39.7142 260.335 40.0982C260.725 40.4798 260.975 41.1021 260.975 42.088H262.258C262.258 40.8979 261.954 39.8882 261.234 39.1818C260.516 38.4778 259.494 38.1823 258.289 38.1823V39.4657ZM260.975 42.088C260.975 43.0739 260.725 43.6962 260.335 44.0778C259.944 44.4618 259.302 44.7103 258.289 44.7103V45.9937C259.494 45.9937 260.516 45.6982 261.234 44.9942C261.954 44.2878 262.258 43.2781 262.258 42.088H260.975ZM258.289 44.7103H240.369V45.9937H258.289V44.7103ZM239.727 45.352V58.472H241.01V45.352H239.727ZM240.369 59.1137H259.697V57.8303H240.369V59.1137ZM259.697 59.1137C260.71 59.1137 261.352 59.3622 261.743 59.7462C262.133 60.1278 262.383 60.7501 262.383 61.736H263.667C263.667 60.5459 263.362 59.5362 262.642 58.8298C261.924 58.1258 260.902 57.8303 259.697 57.8303V59.1137ZM262.383 61.736C262.383 62.7219 262.133 63.3442 261.743 63.7258C261.352 64.1098 260.71 64.3583 259.697 64.3583V65.6417C260.902 65.6417 261.924 65.3462 262.642 64.6422C263.362 63.9358 263.667 62.9261 263.667 61.736H262.383ZM259.697 64.3583H236.849V65.6417H259.697V64.3583ZM273.52 63.976L272.976 64.3161L273.52 63.976ZM273.584 60.264L274.164 60.5373L274.169 60.528L273.584 60.264ZM290.48 22.824L291.065 23.088L291.065 23.0865L290.48 22.824ZM292.464 20.2L292.82 20.734L292.826 20.7296L292.464 20.2ZM297.84 20.2L297.464 20.7202L297.48 20.7319L297.497 20.7426L297.84 20.2ZM299.888 22.824L299.302 23.0865L299.303 23.0888L299.888 22.824ZM316.848 60.264L316.263 60.5288L316.264 60.5308L316.848 60.264ZM316.976 64.04L317.524 64.3737L317.53 64.3633L316.976 64.04ZM311.088 64.68L310.65 65.1491L310.666 65.1642L310.683 65.1781L311.088 64.68ZM309.36 61.992L309.95 61.7392L309.949 61.738L309.36 61.992ZM306.16 54.568L306.749 54.314L306.582 53.9263H306.16V54.568ZM284.144 54.568V53.9263H283.718L283.553 54.3183L284.144 54.568ZM281.008 61.992L281.593 62.2546L281.599 62.2417L281.008 61.992ZM279.28 64.68L278.843 64.2097L279.28 64.68ZM295.088 28.776V28.1343H294.662L294.496 28.5265L295.088 28.776ZM286.96 48.04L286.368 47.7905L285.992 48.6817H286.96V48.04ZM303.344 48.04V48.6817H304.311L303.935 47.7905L303.344 48.04ZM295.216 28.776L295.807 28.5265L295.642 28.1343H295.216V28.776ZM276.72 64.8703C275.387 64.8703 274.558 64.4263 274.064 63.6359L272.976 64.3161C273.762 65.5737 275.065 66.1537 276.72 66.1537V64.8703ZM274.064 63.6359C273.576 62.8557 273.541 61.8628 274.164 60.5372L273.003 59.9908C272.262 61.5665 272.183 63.0483 272.976 64.3161L274.064 63.6359ZM274.169 60.528L291.065 23.088L289.895 22.56L272.999 60L274.169 60.528ZM291.065 23.0865C291.592 21.9108 292.189 21.1545 292.82 20.7339L292.108 19.666C291.203 20.2695 290.476 21.2625 289.894 22.5615L291.065 23.0865ZM292.826 20.7296C293.525 20.2512 294.315 20.0097 295.216 20.0097V18.7263C294.068 18.7263 293.023 19.0395 292.101 19.6704L292.826 20.7296ZM295.216 20.0097C296.067 20.0097 296.81 20.2475 297.464 20.7202L298.215 19.6798C297.334 19.0431 296.327 18.7263 295.216 18.7263V20.0097ZM297.497 20.7426C298.165 21.1646 298.779 21.9186 299.302 23.0865L300.473 22.5615C299.888 21.2547 299.136 20.2594 298.182 19.6574L297.497 20.7426ZM299.303 23.0888L316.263 60.5288L317.432 59.9992L300.472 22.5592L299.303 23.0888ZM316.264 60.5308C316.896 61.9134 316.876 62.9368 316.421 63.7166L317.53 64.3633C318.27 63.0952 318.165 61.6013 317.431 59.9972L316.264 60.5308ZM316.428 63.7063C315.978 64.4449 315.198 64.8703 313.904 64.8703V66.1537C315.511 66.1537 316.779 65.5977 317.524 64.3737L316.428 63.7063ZM313.904 64.8703C312.804 64.8703 312.026 64.6152 311.492 64.1819L310.683 65.1781C311.515 65.8542 312.614 66.1537 313.904 66.1537V64.8703ZM311.526 64.2109C310.974 63.6964 310.442 62.8882 309.95 61.7392L308.77 62.2448C309.301 63.4851 309.921 64.4689 310.65 65.1491L311.526 64.2109ZM309.949 61.738L306.749 54.314L305.57 54.822L308.77 62.246L309.949 61.738ZM306.16 53.9263H284.144V55.2097H306.16V53.9263ZM283.553 54.3183L280.417 61.7423L281.599 62.2417L284.735 54.8177L283.553 54.3183ZM280.422 61.7295C279.882 62.9336 279.349 63.7399 278.843 64.2097L279.716 65.1503C280.405 64.5107 281.024 63.5251 281.593 62.2545L280.422 61.7295ZM278.843 64.2097C278.402 64.6196 277.726 64.8703 276.72 64.8703V66.1537C277.932 66.1537 278.963 65.8498 279.716 65.1503L278.843 64.2097ZM294.496 28.5265L286.368 47.7905L287.551 48.2895L295.679 29.0255L294.496 28.5265ZM286.96 48.6817H303.344V47.3983H286.96V48.6817ZM303.935 47.7905L295.807 28.5265L294.624 29.0255L302.753 48.2895L303.935 47.7905ZM295.216 28.1343H295.088V29.4177H295.216V28.1343ZM336.761 20.008L336.388 20.5302L336.409 20.5451L336.431 20.5583L336.761 20.008ZM338.489 22.056L337.92 22.3529L337.924 22.3613L338.489 22.056ZM353.273 49.384L352.708 49.6893L353.273 50.7327L353.837 49.6893L353.273 49.384ZM368.057 22.056L368.621 22.3614L368.626 22.3528L368.057 22.056ZM369.721 20.008L370.068 20.5478L370.081 20.5393L370.094 20.5302L369.721 20.008ZM368.505 34.6H369.146L367.942 34.2916L368.505 34.6ZM356.473 56.552L357.026 56.8774L357.031 56.869L357.035 56.8604L356.473 56.552ZM355.129 58.152L355.506 58.671L355.129 58.152ZM351.225 58.152L350.84 58.6654L350.854 58.6761L350.869 58.686L351.225 58.152ZM349.881 56.552L349.319 56.8618L349.321 56.8666L349.881 56.552ZM337.849 34.728L338.411 34.4182L337.207 34.728H337.849ZM334.137 64.8703C333.004 64.8703 332.271 64.5785 331.814 64.106C331.353 63.6294 331.066 62.8584 331.066 61.672H329.783C329.783 63.0456 330.115 64.1946 330.891 64.998C331.672 65.8055 332.795 66.1537 334.137 66.1537V64.8703ZM331.066 61.672V23.208H329.783V61.672H331.066ZM331.066 23.208C331.066 22.0269 331.361 21.259 331.839 20.7818C332.316 20.3046 333.084 20.0097 334.265 20.0097V18.7263C332.886 18.7263 331.734 19.0714 330.931 19.8742C330.128 20.677 329.783 21.8291 329.783 23.208H331.066ZM334.265 20.0097C335.256 20.0097 335.938 20.2093 336.388 20.5302L337.134 19.4858C336.388 18.9534 335.407 18.7263 334.265 18.7263V20.0097ZM336.431 20.5583C336.931 20.8588 337.438 21.429 337.92 22.3528L339.058 21.7592C338.516 20.7203 337.87 19.9252 337.091 19.4577L336.431 20.5583ZM337.924 22.3613L352.708 49.6893L353.837 49.0787L339.053 21.7507L337.924 22.3613ZM353.837 49.6893L368.621 22.3613L367.492 21.7507L352.708 49.0787L353.837 49.6893ZM368.626 22.3528C369.112 21.4201 369.603 20.8468 370.068 20.5478L369.374 19.4682C368.644 19.9372 368.025 20.7293 367.488 21.7592L368.626 22.3528ZM370.094 20.5302C370.543 20.2093 371.226 20.0097 372.217 20.0097V18.7263C371.074 18.7263 370.093 18.9534 369.348 19.4858L370.094 20.5302ZM372.217 20.0097C373.35 20.0097 374.083 20.3015 374.539 20.774C375 21.2506 375.287 22.0216 375.287 23.208H376.57C376.57 21.8344 376.239 20.6854 375.462 19.882C374.682 19.0745 373.559 18.7263 372.217 18.7263V20.0097ZM375.287 23.208V61.672H376.57V23.208H375.287ZM375.287 61.672C375.287 62.8584 375 63.6294 374.539 64.106C374.083 64.5785 373.35 64.8703 372.217 64.8703V66.1537C373.559 66.1537 374.682 65.8055 375.462 64.998C376.239 64.1946 376.57 63.0456 376.57 61.672H375.287ZM372.217 64.8703C371.084 64.8703 370.351 64.5785 369.894 64.106C369.433 63.6294 369.146 62.8584 369.146 61.672H367.863C367.863 63.0456 368.195 64.1946 368.971 64.998C369.752 65.8055 370.875 66.1537 372.217 66.1537V64.8703ZM369.146 61.672V34.6H367.863V61.672H369.146ZM367.942 34.2916L355.91 56.2436L357.035 56.8604L369.068 34.9084L367.942 34.2916ZM355.92 56.2266C355.519 56.9075 355.125 57.3613 354.751 57.633L355.506 58.671C356.071 58.26 356.573 57.6472 357.026 56.8774L355.92 56.2266ZM354.751 57.633C354.428 57.8685 353.936 58.0223 353.209 58.0223V59.3057C354.103 59.3057 354.891 59.1182 355.506 58.671L354.751 57.633ZM353.209 58.0223C352.485 58.0223 351.959 57.87 351.581 57.618L350.869 58.686C351.515 59.1167 352.311 59.3057 353.209 59.3057V58.0223ZM351.61 57.6386C351.183 57.3186 350.79 56.8594 350.44 56.2374L349.321 56.8666C349.74 57.61 350.242 58.2174 350.84 58.6654L351.61 57.6386ZM350.443 56.2422L338.411 34.4182L337.287 35.0378L349.319 56.8618L350.443 56.2422ZM337.207 34.728V61.672H338.49V34.728H337.207ZM337.207 61.672C337.207 62.8584 336.92 63.6294 336.459 64.106C336.003 64.5785 335.27 64.8703 334.137 64.8703V66.1537C335.479 66.1537 336.602 65.8055 337.382 64.998C338.159 64.1946 338.49 63.0456 338.49 61.672H337.207Z" fill="#248A82"/>
<path d="M27.2208 69.64C22.8688 69.64 19.0501 68.68 15.7648 66.76C12.5221 64.84 10.0048 62.152 8.21276 58.696C6.42076 55.1973 5.52476 51.1013 5.52476 46.408C5.52476 41.672 6.42076 37.576 8.21276 34.12C10.0048 30.664 12.5221 27.9973 15.7648 26.12C19.0074 24.2 22.8261 23.24 27.2208 23.24C31.6154 23.24 35.4341 24.2 38.6768 26.12C41.9194 27.9973 44.4368 30.664 46.2288 34.12C48.0208 37.576 48.9168 41.6507 48.9168 46.344C48.9168 51.08 48.0208 55.1973 46.2288 58.696C44.4368 62.152 41.9194 64.84 38.6768 66.76C35.4341 68.68 31.6154 69.64 27.2208 69.64ZM27.2208 62.6C31.3594 62.6 34.5808 61.1707 36.8848 58.312C39.1888 55.4533 40.3408 51.4853 40.3408 46.408C40.3408 41.288 39.1888 37.32 36.8848 34.504C34.6234 31.688 31.4021 30.28 27.2208 30.28C23.0821 30.28 19.8608 31.688 17.5568 34.504C15.2528 37.32 14.1008 41.288 14.1008 46.408C14.1008 51.4853 15.2528 55.4533 17.5568 58.312C19.8608 61.1707 23.0821 62.6 27.2208 62.6ZM82.3988 69.64C76.2121 69.64 71.4761 68.04 68.1908 64.84C64.9481 61.5973 63.3268 56.8187 63.3268 50.504V27.528C63.3268 24.7547 64.6921 23.368 67.4228 23.368C70.1534 23.368 71.5188 24.7547 71.5188 27.528V50.44C71.5188 54.4933 72.4361 57.544 74.2708 59.592C76.1481 61.5973 78.8574 62.6 82.3988 62.6C89.6094 62.6 93.2148 58.5467 93.2148 50.44V27.528C93.2148 24.7547 94.5801 23.368 97.3108 23.368C99.9988 23.368 101.343 24.7547 101.343 27.528V50.504C101.343 56.8187 99.7428 61.5973 96.5428 64.84C93.3428 68.04 88.6281 69.64 82.3988 69.64ZM121.393 69.512C118.662 69.512 117.297 68.104 117.297 65.288V28.04C117.297 25.2667 118.683 23.88 121.457 23.88H136.881C141.83 23.88 145.649 25.0747 148.337 27.464C151.025 29.8107 152.369 33.1173 152.369 37.384C152.369 40.7547 151.494 43.5493 149.745 45.768C147.995 47.944 145.478 49.416 142.193 50.184C144.369 50.8667 146.161 52.5093 147.569 55.112L152.369 64.008C153.094 65.3733 153.222 66.632 152.753 67.784C152.326 68.936 151.238 69.512 149.489 69.512C148.337 69.512 147.398 69.2773 146.673 68.808C145.947 68.296 145.307 67.528 144.753 66.504L138.289 54.6C137.521 53.1493 136.603 52.1893 135.537 51.72C134.513 51.208 133.19 50.952 131.569 50.952H125.489V65.288C125.489 68.104 124.123 69.512 121.393 69.512ZM125.489 44.872H135.473C141.446 44.872 144.433 42.44 144.433 37.576C144.433 32.7547 141.446 30.344 135.473 30.344H125.489V44.872ZM206.323 69.512C203.592 69.512 202.227 68.104 202.227 65.288V30.728H189.747C187.4 30.728 186.227 29.576 186.227 27.272C186.227 25.0107 187.4 23.88 189.747 23.88H222.899C225.245 23.88 226.419 25.0107 226.419 27.272C226.419 29.576 225.245 30.728 222.899 30.728H210.419V65.288C210.419 68.104 209.053 69.512 206.323 69.512ZM241.849 69C238.947 69 237.497 67.5493 237.497 64.648V28.232C237.497 25.3307 238.947 23.88 241.849 23.88H264.697C266.915 23.88 268.025 24.9467 268.025 27.08C268.025 29.2987 266.915 30.408 264.697 30.408H245.369V42.824H263.289C265.507 42.824 266.617 43.912 266.617 46.088C266.617 48.264 265.507 49.352 263.289 49.352H245.369V62.472H264.697C266.915 62.472 268.025 63.56 268.025 65.736C268.025 67.912 266.915 69 264.697 69H241.849ZM281.72 69.512C280.226 69.512 279.16 69 278.52 67.976C277.88 66.952 277.901 65.7147 278.584 64.264L295.48 26.824C296.034 25.5867 296.696 24.712 297.464 24.2C298.274 23.6453 299.192 23.368 300.216 23.368C301.197 23.368 302.072 23.6453 302.84 24.2C303.65 24.712 304.333 25.5867 304.888 26.824L321.848 64.264C322.53 65.7573 322.573 67.016 321.976 68.04C321.378 69.0213 320.354 69.512 318.904 69.512C317.709 69.512 316.77 69.2347 316.088 68.68C315.448 68.0827 314.872 67.1867 314.36 65.992L311.16 58.568H289.144L286.008 65.992C285.453 67.2293 284.877 68.1253 284.28 68.68C283.682 69.2347 282.829 69.512 281.72 69.512ZM300.088 32.776L291.96 52.04H308.344L300.216 32.776H300.088ZM339.137 69.512C336.662 69.512 335.425 68.232 335.425 65.672V27.208C335.425 24.648 336.705 23.368 339.265 23.368C340.331 23.368 341.163 23.5813 341.761 24.008C342.401 24.392 342.977 25.0747 343.489 26.056L358.273 53.384L373.057 26.056C373.569 25.0747 374.123 24.392 374.721 24.008C375.318 23.5813 376.15 23.368 377.217 23.368C379.691 23.368 380.929 24.648 380.929 27.208V65.672C380.929 68.232 379.691 69.512 377.217 69.512C374.742 69.512 373.505 68.232 373.505 65.672V38.6L361.473 60.552C361.046 61.2773 360.598 61.8107 360.129 62.152C359.659 62.4933 359.019 62.664 358.209 62.664C357.398 62.664 356.737 62.4933 356.225 62.152C355.713 61.768 355.265 61.2347 354.881 60.552L342.849 38.728V65.672C342.849 68.232 341.611 69.512 339.137 69.512Z" fill="#0EB29F"/>
<path d="M15.7648 66.76L15.5468 67.1281L15.5489 67.1294L15.7648 66.76ZM8.21276 58.696L7.83197 58.891L7.83296 58.8929L8.21276 58.696ZM8.21276 34.12L8.59256 34.3169L8.21276 34.12ZM15.7648 26.12L15.9791 26.4903L15.9827 26.4881L15.7648 26.12ZM38.6768 26.12L38.4588 26.4881L38.4624 26.4902L38.6768 26.12ZM46.2288 34.12L46.6086 33.9231L46.2288 34.12ZM46.2288 58.696L46.6086 58.8929L46.6095 58.891L46.2288 58.696ZM38.6768 66.76L38.8947 67.1281L38.6768 66.76ZM36.8848 58.312L36.5517 58.0435L36.8848 58.312ZM36.8848 34.504L36.5512 34.7719L36.5536 34.7749L36.8848 34.504ZM17.5568 34.504L17.2256 34.2331L17.5568 34.504ZM17.5568 58.312L17.8899 58.0435L17.5568 58.312ZM27.2208 69.2122C22.9335 69.2122 19.1915 68.2671 15.9806 66.3906L15.5489 67.1294C18.9087 69.0929 22.804 70.0678 27.2208 70.0678V69.2122ZM15.9827 66.3919C12.8113 64.5141 10.349 61.8865 8.59256 58.4991L7.83296 58.8929C9.66053 62.4175 12.2329 65.1659 15.5468 67.1281L15.9827 66.3919ZM8.59354 58.501C6.8379 55.0733 5.95258 51.0466 5.95258 46.408H5.09694C5.09694 51.1561 6.00361 55.3214 7.83198 58.891L8.59354 58.501ZM5.95258 46.408C5.95258 41.7259 6.83823 37.7003 8.59256 34.3169L7.83296 33.9231C6.00328 37.4517 5.09694 41.6181 5.09694 46.408H5.95258ZM8.59256 34.3169C10.3486 30.9303 12.8098 28.3251 15.9791 26.4902L15.5504 25.7498C12.2344 27.6696 9.66093 30.3977 7.83296 33.9231L8.59256 34.3169ZM15.9827 26.4881C19.1491 24.6133 22.8899 23.6678 27.2208 23.6678V22.8122C22.7623 22.8122 18.8657 23.7867 15.5468 25.7519L15.9827 26.4881ZM27.2208 23.6678C31.5516 23.6678 35.2924 24.6133 38.4588 26.4881L38.8947 25.7519C35.5758 23.7867 31.6792 22.8122 27.2208 22.8122V23.6678ZM38.4624 26.4902C41.6317 28.3251 44.0929 30.9303 45.849 34.3169L46.6086 33.9231C44.7806 30.3977 42.2071 27.6696 38.8911 25.7498L38.4624 26.4902ZM45.849 34.3169C47.6036 37.7008 48.4889 41.7052 48.4889 46.344H49.3446C49.3446 41.5961 48.438 37.4512 46.6086 33.9231L45.849 34.3169ZM48.4889 46.344C48.4889 51.0259 47.6033 55.0738 45.848 58.501L46.6095 58.891C48.4382 55.3208 49.3446 51.1341 49.3446 46.344H48.4889ZM45.849 58.4991C44.0925 61.8865 41.6302 64.5141 38.4588 66.3919L38.8947 67.1281C42.2087 65.1659 44.781 62.4175 46.6086 58.8929L45.849 58.4991ZM38.4588 66.3919C35.2924 68.2667 31.5516 69.2122 27.2208 69.2122V70.0678C31.6792 70.0678 35.5758 69.0933 38.8947 67.1281L38.4588 66.3919ZM27.2208 63.0278C31.4702 63.0278 34.8216 61.5536 37.2179 58.5805L36.5517 58.0435C34.3399 60.7878 31.2486 62.1722 27.2208 62.1722V63.0278ZM37.2179 58.5805C39.6029 55.6212 40.7686 51.546 40.7686 46.408H39.9129C39.9129 51.4246 38.7746 55.2854 36.5517 58.0435L37.2179 58.5805ZM40.7686 46.408C40.7686 41.2288 39.6036 37.1514 37.2159 34.2331L36.5536 34.7749C38.7739 37.4886 39.9129 41.3472 39.9129 46.408H40.7686ZM37.2183 34.2361C34.8624 31.3024 31.5088 29.8522 27.2208 29.8522V30.7078C31.2954 30.7078 34.3844 32.0736 36.5512 34.7719L37.2183 34.2361ZM27.2208 29.8522C22.9736 29.8522 19.6227 31.3034 17.2256 34.2331L17.8879 34.7749C20.0988 32.0726 23.1906 30.7078 27.2208 30.7078V29.8522ZM17.2256 34.2331C14.8379 37.1514 13.6729 41.2288 13.6729 46.408H14.5286C14.5286 41.3472 15.6676 37.4886 17.8879 34.7749L17.2256 34.2331ZM13.6729 46.408C13.6729 51.546 14.8386 55.6212 17.2237 58.5805L17.8899 58.0435C15.6669 55.2854 14.5286 51.4246 14.5286 46.408H13.6729ZM17.2237 58.5805C19.6199 61.5536 22.9713 63.0278 27.2208 63.0278V62.1722C23.1929 62.1722 20.1016 60.7878 17.8899 58.0435L17.2237 58.5805ZM68.1908 64.84L67.8882 65.1425L67.8923 65.1465L68.1908 64.84ZM74.2708 59.592L73.952 59.8775L73.9584 59.8844L74.2708 59.592ZM96.5428 64.84L96.8453 65.1425L96.8473 65.1405L96.5428 64.84ZM82.3988 69.2122C76.2837 69.2122 71.6701 67.6317 68.4893 64.5335L67.8923 65.1465C71.2821 68.4483 76.1404 70.0678 82.3988 70.0678V69.2122ZM68.4933 64.5375C65.3572 61.4014 63.7546 56.7489 63.7546 50.504H62.8989C62.8989 56.8885 64.539 61.7933 67.8882 65.1425L68.4933 64.5375ZM63.7546 50.504V27.528H62.8989V50.504H63.7546ZM63.7546 27.528C63.7546 26.2056 64.08 25.2927 64.6556 24.7082C65.23 24.1248 66.1251 23.7958 67.4228 23.7958V22.9402C65.9898 22.9402 64.8368 23.3045 64.0459 24.1078C63.2562 24.9099 62.8989 26.077 62.8989 27.528H63.7546ZM67.4228 23.7958C68.7205 23.7958 69.6155 24.1248 70.1899 24.7082C70.7655 25.2927 71.0909 26.2056 71.0909 27.528H71.9466C71.9466 26.077 71.5893 24.9099 70.7996 24.1078C70.0087 23.3045 68.8557 22.9402 67.4228 22.9402V23.7958ZM71.0909 27.528V50.44H71.9466V27.528H71.0909ZM71.0909 50.44C71.0909 54.5498 72.0202 57.7209 73.9521 59.8775L74.5894 59.3065C72.852 57.3671 71.9466 54.4369 71.9466 50.44H71.0909ZM73.9584 59.8844C75.9384 61.9994 78.7752 63.0278 82.3988 63.0278V62.1722C78.9396 62.1722 76.3577 61.1953 74.5831 59.2996L73.9584 59.8844ZM82.3988 63.0278C86.0839 63.0278 88.9221 61.9898 90.8304 59.8443C92.7302 57.7085 93.6426 54.5477 93.6426 50.44H92.7869C92.7869 54.4389 91.8966 57.3582 90.1911 59.2757C88.4941 61.1836 85.9243 62.1722 82.3988 62.1722V63.0278ZM93.6426 50.44V27.528H92.7869V50.44H93.6426ZM93.6426 27.528C93.6426 26.2056 93.968 25.2927 94.5436 24.7082C95.118 24.1248 96.0131 23.7958 97.3108 23.7958V22.9402C95.8778 22.9402 94.7249 23.3045 93.9339 24.1078C93.1442 24.9099 92.7869 26.077 92.7869 27.528H93.6426ZM97.3108 23.7958C98.5854 23.7958 99.4635 24.1238 100.028 24.7057C100.594 25.2902 100.915 26.204 100.915 27.528H101.771C101.771 26.0787 101.42 24.9125 100.642 24.1102C99.862 23.3055 98.7242 22.9402 97.3108 22.9402V23.7958ZM100.915 27.528V50.504H101.771V27.528H100.915ZM100.915 50.504C100.915 56.7503 99.3329 61.4036 96.2382 64.5395L96.8473 65.1405C100.153 61.791 101.771 56.887 101.771 50.504H100.915ZM96.2402 64.5375C93.1468 67.6309 88.5583 69.2122 82.3988 69.2122V70.0678C88.6979 70.0678 93.5387 68.4491 96.8453 65.1425L96.2402 64.5375ZM148.337 27.464L148.053 27.7838L148.055 27.7863L148.337 27.464ZM149.745 45.768L150.078 46.0361L150.081 46.0329L149.745 45.768ZM142.193 50.184L142.095 49.7674L140.571 50.1237L142.065 50.5922L142.193 50.184ZM147.569 55.112L147.945 54.9088L147.945 54.9084L147.569 55.112ZM152.369 64.008L152.747 63.8073L152.745 63.8048L152.369 64.008ZM152.753 67.784L152.356 67.6225L152.352 67.6354L152.753 67.784ZM146.673 68.808L146.426 69.1575L146.433 69.1625L146.44 69.1672L146.673 68.808ZM144.753 66.504L145.129 66.3002L145.129 66.2998L144.753 66.504ZM138.289 54.6L137.911 54.8002L137.913 54.8042L138.289 54.6ZM135.537 51.72L135.345 52.1027L135.355 52.1074L135.364 52.1116L135.537 51.72ZM125.489 50.952V50.5242H125.061V50.952H125.489ZM125.489 44.872H125.061V45.2998H125.489V44.872ZM125.489 30.344V29.9162H125.061V30.344H125.489ZM121.393 69.0842C120.097 69.0842 119.203 68.7508 118.628 68.1582C118.051 67.5631 117.725 66.6333 117.725 65.288H116.869C116.869 66.7587 117.225 67.9409 118.014 68.7538C118.804 69.5692 119.958 69.9398 121.393 69.9398V69.0842ZM117.725 65.288V28.04H116.869V65.288H117.725ZM117.725 28.04C117.725 26.7193 118.054 25.8073 118.639 25.2225C119.224 24.6377 120.136 24.3078 121.457 24.3078V23.4522C120.004 23.4522 118.836 23.8156 118.034 24.6175C117.232 25.4193 116.869 26.5874 116.869 28.04H117.725ZM121.457 24.3078H136.881V23.4522H121.457V24.3078ZM136.881 24.3078C141.765 24.3078 145.468 25.4865 148.053 27.7838L148.621 27.1442C145.829 24.6629 141.895 23.4522 136.881 23.4522V24.3078ZM148.055 27.7863C150.632 30.0358 151.941 33.2144 151.941 37.384H152.797C152.797 33.0203 151.417 29.5856 148.618 27.1417L148.055 27.7863ZM151.941 37.384C151.941 40.6778 151.088 43.3737 149.409 45.5031L150.081 46.0329C151.9 43.7249 152.797 40.8315 152.797 37.384H151.941ZM149.411 45.4999C147.734 47.5869 145.308 49.0165 142.095 49.7674L142.29 50.6006C145.649 49.8155 148.257 48.3011 150.078 46.0361L149.411 45.4999ZM142.065 50.5922C144.106 51.2325 145.821 52.7806 147.192 55.3156L147.945 54.9084C146.5 52.2381 144.632 50.5008 142.321 49.7758L142.065 50.5922ZM147.192 55.3152L151.992 64.2112L152.745 63.8048L147.945 54.9088L147.192 55.3152ZM151.991 64.2087C152.673 65.4917 152.767 66.616 152.357 67.6226L153.149 67.9454C153.678 66.648 153.516 65.255 152.747 63.8073L151.991 64.2087ZM152.352 67.6354C152.175 68.1126 151.868 68.463 151.417 68.7019C150.955 68.9464 150.321 69.0842 149.489 69.0842V69.9398C150.406 69.9398 151.191 69.7896 151.817 69.4581C152.454 69.121 152.904 68.6074 153.154 67.9326L152.352 67.6354ZM149.489 69.0842C148.392 69.0842 147.542 68.8607 146.905 68.4488L146.44 69.1672C147.254 69.694 148.281 69.9398 149.489 69.9398V69.0842ZM146.919 68.4585C146.262 67.9944 145.662 67.2837 145.129 66.3002L144.377 66.7078C144.953 67.7723 145.633 68.5976 146.426 69.1575L146.919 68.4585ZM145.129 66.2998L138.665 54.3958L137.913 54.8042L144.377 66.7082L145.129 66.2998ZM138.667 54.3998C137.872 52.8981 136.894 51.8497 135.709 51.3284L135.364 52.1116C136.313 52.529 137.17 53.4006 137.911 54.8002L138.667 54.3998ZM135.728 51.3373C134.625 50.7859 133.231 50.5242 131.569 50.5242V51.3798C133.15 51.3798 134.4 51.6301 135.345 52.1027L135.728 51.3373ZM131.569 50.5242H125.489V51.3798H131.569V50.5242ZM125.061 50.952V65.288H125.917V50.952H125.061ZM125.061 65.288C125.061 66.6333 124.735 67.5631 124.158 68.1582C123.583 68.7508 122.689 69.0842 121.393 69.0842V69.9398C122.827 69.9398 123.981 69.5692 124.772 68.7538C125.56 67.9409 125.917 66.7587 125.917 65.288H125.061ZM125.489 45.2998H135.473V44.4442H125.489V45.2998ZM135.473 45.2998C138.506 45.2998 140.861 44.684 142.463 43.3797C144.081 42.0618 144.861 40.0998 144.861 37.576H144.005C144.005 39.9162 143.291 41.6022 141.923 42.7163C140.538 43.844 138.412 44.4442 135.473 44.4442V45.2998ZM144.861 37.576C144.861 35.0722 144.081 33.1259 142.461 31.8191C140.86 30.5264 138.506 29.9162 135.473 29.9162V30.7718C138.413 30.7718 140.539 31.3669 141.924 32.4849C143.292 33.5887 144.005 35.2584 144.005 37.576H144.861ZM135.473 29.9162H125.489V30.7718H135.473V29.9162ZM125.061 30.344V44.872H125.917V30.344H125.061ZM202.227 30.728H202.655V30.3002H202.227V30.728ZM210.419 30.728V30.3002H209.991V30.728H210.419ZM206.323 69.0842C205.027 69.0842 204.133 68.7508 203.558 68.1582C202.981 67.5631 202.655 66.6333 202.655 65.288H201.799C201.799 66.7587 202.155 67.9409 202.944 68.7538C203.734 69.5692 204.888 69.9398 206.323 69.9398V69.0842ZM202.655 65.288V30.728H201.799V65.288H202.655ZM202.227 30.3002H189.747V31.1558H202.227V30.3002ZM189.747 30.3002C188.637 30.3002 187.884 30.0279 187.406 29.5587C186.93 29.0909 186.655 28.356 186.655 27.272H185.799C185.799 28.492 186.11 29.4851 186.807 30.1693C187.502 30.8521 188.509 31.1558 189.747 31.1558V30.3002ZM186.655 27.272C186.655 26.2114 186.929 25.4935 187.404 25.0361C187.881 24.5757 188.635 24.3078 189.747 24.3078V23.4522C188.511 23.4522 187.506 23.7496 186.81 24.4199C186.111 25.0931 185.799 26.0713 185.799 27.272H186.655ZM189.747 24.3078H222.899V23.4522H189.747V24.3078ZM222.899 24.3078C224.01 24.3078 224.764 24.5757 225.242 25.0361C225.717 25.4935 225.991 26.2114 225.991 27.272H226.847C226.847 26.0713 226.534 25.0931 225.836 24.4199C225.14 23.7496 224.134 23.4522 222.899 23.4522V24.3078ZM225.991 27.272C225.991 28.356 225.715 29.0909 225.239 29.5587C224.761 30.0279 224.008 30.3002 222.899 30.3002V31.1558C224.136 31.1558 225.143 30.8521 225.838 30.1693C226.535 29.4851 226.847 28.492 226.847 27.272H225.991ZM222.899 30.3002H210.419V31.1558H222.899V30.3002ZM209.991 30.728V65.288H210.847V30.728H209.991ZM209.991 65.288C209.991 66.6333 209.665 67.5631 209.088 68.1582C208.513 68.7508 207.619 69.0842 206.323 69.0842V69.9398C207.757 69.9398 208.911 69.5692 209.702 68.7538C210.49 67.9409 210.847 66.7587 210.847 65.288H209.991ZM245.369 30.408V29.9802H244.941V30.408H245.369ZM245.369 42.824H244.941V43.2518H245.369V42.824ZM245.369 49.352V48.9242H244.941V49.352H245.369ZM245.369 62.472H244.941V62.8998H245.369V62.472ZM241.849 68.5722C240.464 68.5722 239.504 68.2263 238.887 67.6095C238.27 66.9927 237.925 66.0327 237.925 64.648H237.069C237.069 66.1646 237.448 67.3807 238.282 68.2145C239.116 69.0484 240.332 69.4278 241.849 69.4278V68.5722ZM237.925 64.648V28.232H237.069V64.648H237.925ZM237.925 28.232C237.925 26.8473 238.27 25.8873 238.887 25.2705C239.504 24.6537 240.464 24.3078 241.849 24.3078V23.4522C240.332 23.4522 239.116 23.8316 238.282 24.6655C237.448 25.4993 237.069 26.7154 237.069 28.232H237.925ZM241.849 24.3078H264.697V23.4522H241.849V24.3078ZM264.697 24.3078C265.744 24.3078 266.451 24.5599 266.896 24.9884C267.339 25.4139 267.597 26.0836 267.597 27.08H268.453C268.453 25.943 268.156 25.0128 267.489 24.3716C266.826 23.7335 265.868 23.4522 264.697 23.4522V24.3078ZM267.597 27.08C267.597 28.1234 267.336 28.8273 266.89 29.2735C266.444 29.7196 265.74 29.9802 264.697 29.9802V30.8358C265.872 30.8358 266.832 30.5417 267.495 29.8785C268.158 29.2153 268.453 28.2553 268.453 27.08H267.597ZM264.697 29.9802H245.369V30.8358H264.697V29.9802ZM244.941 30.408V42.824H245.797V30.408H244.941ZM245.369 43.2518H263.289V42.3962H245.369V43.2518ZM263.289 43.2518C264.334 43.2518 265.039 43.5081 265.485 43.9454C265.93 44.3812 266.189 45.0681 266.189 46.088H267.045C267.045 44.9319 266.749 43.9868 266.084 43.3346C265.421 42.6839 264.462 42.3962 263.289 42.3962V43.2518ZM266.189 46.088C266.189 47.1079 265.93 47.7948 265.485 48.2306C265.039 48.6679 264.334 48.9242 263.289 48.9242V49.7798C264.462 49.7798 265.421 49.4921 266.084 48.8414C266.749 48.1892 267.045 47.2441 267.045 46.088H266.189ZM263.289 48.9242H245.369V49.7798H263.289V48.9242ZM244.941 49.352V62.472H245.797V49.352H244.941ZM245.369 62.8998H264.697V62.0442H245.369V62.8998ZM264.697 62.8998C265.742 62.8998 266.447 63.1561 266.893 63.5934C267.338 64.0292 267.597 64.7161 267.597 65.736H268.453C268.453 64.5799 268.157 63.6348 267.492 62.9826C266.829 62.3319 265.87 62.0442 264.697 62.0442V62.8998ZM267.597 65.736C267.597 66.7559 267.338 67.4428 266.893 67.8786C266.447 68.3159 265.742 68.5722 264.697 68.5722V69.4278C265.87 69.4278 266.829 69.1401 267.492 68.4894C268.157 67.8372 268.453 66.8921 268.453 65.736H267.597ZM264.697 68.5722H241.849V69.4278H264.697V68.5722ZM278.52 67.976L278.157 68.2027L278.52 67.976ZM278.584 64.264L278.971 64.4462L278.974 64.44L278.584 64.264ZM295.48 26.824L295.87 27L295.87 26.999L295.48 26.824ZM297.464 24.2L297.701 24.556L297.705 24.5531L297.464 24.2ZM302.84 24.2L302.589 24.5468L302.6 24.5546L302.611 24.5617L302.84 24.2ZM304.888 26.824L304.497 26.999L304.498 27.0005L304.888 26.824ZM321.848 64.264L321.458 64.4405L321.459 64.4419L321.848 64.264ZM321.976 68.04L322.341 68.2625L322.345 68.2556L321.976 68.04ZM316.088 68.68L315.796 68.9928L315.807 69.0028L315.818 69.012L316.088 68.68ZM314.36 65.992L314.753 65.8235L314.753 65.8227L314.36 65.992ZM311.16 58.568L311.553 58.3987L311.441 58.1402H311.16V58.568ZM289.144 58.568V58.1402H288.86L288.75 58.4015L289.144 58.568ZM286.008 65.992L286.398 66.167L286.402 66.1585L286.008 65.992ZM284.28 68.68L283.989 68.3665L284.28 68.68ZM300.088 32.776V32.3482H299.804L299.694 32.6097L300.088 32.776ZM291.96 52.04L291.566 51.8737L291.315 52.4678H291.96V52.04ZM308.344 52.04V52.4678H308.989L308.738 51.8737L308.344 52.04ZM300.216 32.776L300.61 32.6097L300.5 32.3482H300.216V32.776ZM281.72 69.0842C280.334 69.0842 279.425 68.6175 278.883 67.7493L278.157 68.2027C278.894 69.3825 280.119 69.9398 281.72 69.9398V69.0842ZM278.883 67.7493C278.344 66.8878 278.327 65.8134 278.971 64.4462L278.197 64.0818C277.475 65.6159 277.415 67.0162 278.157 68.2027L278.883 67.7493ZM278.974 64.44L295.87 27L295.09 26.648L278.194 64.088L278.974 64.44ZM295.87 26.999C296.406 25.8028 297.025 25.007 297.701 24.556L297.226 23.844C296.367 24.417 295.662 25.3706 295.089 26.649L295.87 26.999ZM297.705 24.5531C298.442 24.0492 299.274 23.7958 300.216 23.7958V22.9402C299.109 22.9402 298.107 23.2414 297.222 23.8469L297.705 24.5531ZM300.216 23.7958C301.111 23.7958 301.897 24.0468 302.589 24.5468L303.09 23.8532C302.247 23.2439 301.284 22.9402 300.216 22.9402V23.7958ZM302.611 24.5617C303.327 25.0137 303.963 25.808 304.497 26.999L305.278 26.649C304.703 25.3654 303.974 24.4103 303.068 23.8383L302.611 24.5617ZM304.498 27.0005L321.458 64.4405L322.237 64.0875L305.277 26.6475L304.498 27.0005ZM321.459 64.4419C322.108 65.8614 322.109 66.9632 321.606 67.8244L322.345 68.2556C323.038 67.0688 322.953 65.6533 322.237 64.0861L321.459 64.4419ZM321.61 67.8176C321.111 68.6371 320.25 69.0842 318.904 69.0842V69.9398C320.459 69.9398 321.645 69.4056 322.341 68.2624L321.61 67.8176ZM318.904 69.0842C317.772 69.0842 316.941 68.8217 316.358 68.348L315.818 69.012C316.6 69.6477 317.646 69.9398 318.904 69.9398V69.0842ZM316.38 68.3672C315.799 67.8252 315.252 66.9877 314.753 65.8235L313.967 66.1605C314.492 67.3857 315.097 68.3402 315.796 68.9928L316.38 68.3672ZM314.753 65.8227L311.553 58.3987L310.767 58.7373L313.967 66.1613L314.753 65.8227ZM311.16 58.1402H289.144V58.9958H311.16V58.1402ZM288.75 58.4015L285.614 65.8255L286.402 66.1585L289.538 58.7345L288.75 58.4015ZM285.617 65.817C285.073 67.0322 284.525 67.8684 283.989 68.3665L284.571 68.9935C285.229 68.3823 285.834 67.4265 286.398 66.167L285.617 65.817ZM283.989 68.3665C283.495 68.8246 282.761 69.0842 281.72 69.0842V69.9398C282.898 69.9398 283.87 69.6447 284.571 68.9935L283.989 68.3665ZM299.694 32.6097L291.566 51.8737L292.354 52.2063L300.482 32.9423L299.694 32.6097ZM291.96 52.4678H308.344V51.6122H291.96V52.4678ZM308.738 51.8737L300.61 32.6097L299.822 32.9423L307.95 52.2063L308.738 51.8737ZM300.216 32.3482H300.088V33.2038H300.216V32.3482ZM341.761 24.008L341.512 24.3561L341.526 24.3661L341.541 24.3749L341.761 24.008ZM343.489 26.056L343.109 26.2539L343.112 26.2596L343.489 26.056ZM358.273 53.384L357.896 53.5876L358.273 54.2831L358.649 53.5876L358.273 53.384ZM373.057 26.056L373.433 26.2596L373.436 26.2539L373.057 26.056ZM374.721 24.008L374.952 24.3679L374.961 24.3622L374.969 24.3561L374.721 24.008ZM373.505 38.6H373.933L373.13 38.3944L373.505 38.6ZM361.473 60.552L361.842 60.769L361.848 60.7576L361.473 60.552ZM360.129 62.152L360.38 62.498L360.129 62.152ZM356.225 62.152L355.968 62.4943L355.978 62.5014L355.987 62.508L356.225 62.152ZM354.881 60.552L354.506 60.7586L354.508 60.7617L354.881 60.552ZM342.849 38.728L343.223 38.5214L342.421 38.728H342.849ZM339.137 69.0842C337.969 69.0842 337.171 68.783 336.66 68.2547C336.147 67.7236 335.853 66.8896 335.853 65.672H334.997C334.997 67.0144 335.321 68.1004 336.045 68.8493C336.772 69.601 337.83 69.9398 339.137 69.9398V69.0842ZM335.853 65.672V27.208H334.997V65.672H335.853ZM335.853 27.208C335.853 25.9939 336.156 25.162 336.687 24.6305C337.219 24.099 338.051 23.7958 339.265 23.7958V22.9402C337.919 22.9402 336.831 23.277 336.082 24.0255C335.334 24.774 334.997 25.862 334.997 27.208H335.853ZM339.265 23.7958C340.281 23.7958 341.013 24 341.512 24.3561L342.009 23.6599C341.313 23.1627 340.382 22.9402 339.265 22.9402V23.7958ZM341.541 24.3749C342.088 24.7032 342.617 25.3109 343.109 26.2539L343.868 25.8581C343.336 24.8384 342.714 24.0808 341.981 23.6411L341.541 24.3749ZM343.112 26.2596L357.896 53.5876L358.649 53.1804L343.865 25.8524L343.112 26.2596ZM358.649 53.5876L373.433 26.2596L372.68 25.8524L357.896 53.1804L358.649 53.5876ZM373.436 26.2539C373.931 25.3049 374.443 24.6952 374.952 24.3679L374.489 23.6481C373.804 24.0888 373.206 24.8444 372.677 25.8581L373.436 26.2539ZM374.969 24.3561C375.468 24 376.201 23.7958 377.217 23.7958V22.9402C376.1 22.9402 375.168 23.1627 374.472 23.6599L374.969 24.3561ZM377.217 23.7958C378.384 23.7958 379.182 24.097 379.693 24.6253C380.206 25.1564 380.501 25.9904 380.501 27.208H381.357C381.357 25.8656 381.032 24.7796 380.308 24.0307C379.582 23.279 378.524 22.9402 377.217 22.9402V23.7958ZM380.501 27.208V65.672H381.357V27.208H380.501ZM380.501 65.672C380.501 66.8896 380.206 67.7236 379.693 68.2547C379.182 68.783 378.384 69.0842 377.217 69.0842V69.9398C378.524 69.9398 379.582 69.601 380.308 68.8493C381.032 68.1004 381.357 67.0144 381.357 65.672H380.501ZM377.217 69.0842C376.049 69.0842 375.251 68.783 374.74 68.2547C374.227 67.7236 373.933 66.8896 373.933 65.672H373.077C373.077 67.0144 373.401 68.1004 374.125 68.8493C374.852 69.601 375.91 69.9398 377.217 69.9398V69.0842ZM373.933 65.672V38.6H373.077V65.672H373.933ZM373.13 38.3944L361.098 60.3464L361.848 60.7576L373.88 38.8056L373.13 38.3944ZM361.104 60.3351C360.695 61.0308 360.283 61.5111 359.877 61.806L360.38 62.498C360.914 62.1102 361.397 61.5239 361.841 60.7689L361.104 60.3351ZM359.877 61.806C359.505 62.0768 358.964 62.2362 358.209 62.2362V63.0918C359.075 63.0918 359.814 62.9099 360.38 62.498L359.877 61.806ZM358.209 62.2362C357.456 62.2362 356.885 62.0778 356.462 61.796L355.987 62.508C356.589 62.9089 357.34 63.0918 358.209 63.0918V62.2362ZM356.481 61.8097C356.026 61.4684 355.615 60.9845 355.254 60.3423L354.508 60.7617C354.915 61.4849 355.399 62.0676 355.968 62.4943L356.481 61.8097ZM355.255 60.3454L343.223 38.5214L342.474 38.9346L354.506 60.7586L355.255 60.3454ZM342.421 38.728V65.672H343.277V38.728H342.421ZM342.421 65.672C342.421 66.8896 342.126 67.7236 341.613 68.2547C341.102 68.783 340.304 69.0842 339.137 69.0842V69.9398C340.444 69.9398 341.502 69.601 342.228 68.8493C342.952 68.1004 343.277 67.0144 343.277 65.672H342.421Z" fill="#0EB29F"/>
<path d="M160 88H223.03" stroke="#248A82" stroke-width="4" stroke-linecap="round"/>
</svg>
