<svg width="382" height="91" viewBox="0 0 382 91" fill="none" xmlns="http://www.w3.org/2000/svg">
<path d="M61.0893 26.728H61.731V26.0863H61.0893V26.728ZM69.2813 26.728V26.0863H68.6395V26.728H69.2813ZM65.1853 64.8703C63.9239 64.8703 63.0946 64.5462 62.5739 64.0093C62.0497 63.4686 61.731 62.6019 61.731 61.288H60.4475C60.4475 62.7901 60.8115 64.0354 61.6526 64.9027C62.4972 65.7738 63.7159 66.1537 65.1853 66.1537V64.8703ZM61.731 61.288V26.728H60.4475V61.288H61.731ZM61.0893 26.0863H48.6093V27.3697H61.0893V26.0863ZM48.6093 26.0863C47.5319 26.0863 46.8423 25.8219 46.4188 25.4061C45.9975 24.9924 45.731 24.3221 45.731 23.272H44.4475C44.4475 24.5259 44.7676 25.5836 45.5197 26.3219C46.2695 27.0581 47.3399 27.3697 48.6093 27.3697V26.0863ZM45.731 23.272C45.731 22.2464 45.9958 21.5936 46.4145 21.1901C46.8377 20.7823 47.529 20.5217 48.6093 20.5217V19.2383C47.3428 19.2383 46.2741 19.543 45.524 20.2659C44.7694 20.993 44.4475 22.0362 44.4475 23.272H45.731ZM48.6093 20.5217H81.7613V19.2383H48.6093V20.5217ZM81.7613 20.5217C82.8415 20.5217 83.5328 20.7823 83.956 21.1901C84.3747 21.5936 84.6395 22.2464 84.6395 23.272H85.923C85.923 22.0362 85.6011 20.993 84.8465 20.2659C84.0964 19.543 83.0277 19.2383 81.7613 19.2383V20.5217ZM84.6395 23.272C84.6395 24.3221 84.373 24.9924 83.9517 25.4061C83.5282 25.8219 82.8386 26.0863 81.7613 26.0863V27.3697C83.0306 27.3697 84.101 27.0581 84.8508 26.3219C85.6029 25.5836 85.923 24.5259 85.923 23.272H84.6395ZM81.7613 26.0863H69.2813V27.3697H81.7613V26.0863ZM68.6395 26.728V61.288H69.923V26.728H68.6395ZM68.6395 61.288C68.6395 62.6019 68.3208 63.4686 67.7966 64.0093C67.2759 64.5462 66.4466 64.8703 65.1853 64.8703V66.1537C66.6546 66.1537 67.8733 65.7738 68.718 64.9027C69.559 64.0354 69.923 62.7901 69.923 61.288H68.6395ZM127.399 23.464L126.973 23.9437L126.977 23.9474L127.399 23.464ZM128.807 41.768L129.307 42.1701L129.311 42.1653L128.807 41.768ZM121.255 46.184L121.109 45.5591L118.823 46.0935L121.063 46.7963L121.255 46.184ZM126.631 51.112L127.196 50.8073L127.196 50.8067L126.631 51.112ZM131.431 60.008L131.998 59.7069L131.996 59.7033L131.431 60.008ZM131.815 63.784L131.221 63.5419L131.217 63.5514L131.213 63.5611L131.815 63.784ZM125.735 64.808L125.365 65.3323L125.376 65.3397L125.387 65.3468L125.735 64.808ZM123.815 62.504L124.38 62.1984L124.379 62.1978L123.815 62.504ZM117.351 50.6L116.784 50.9003L116.787 50.9062L117.351 50.6ZM114.599 47.72L114.312 48.294L114.326 48.301L114.341 48.3074L114.599 47.72ZM104.551 46.952V46.3103H103.91V46.952H104.551ZM104.551 40.872H103.91V41.5137H104.551V40.872ZM104.551 26.344V25.7023H103.91V26.344H104.551ZM100.455 64.8703C99.1939 64.8703 98.3646 64.5462 97.844 64.0093C97.3197 63.4686 97.001 62.6019 97.001 61.288H95.7175C95.7175 62.7901 96.0815 64.0354 96.9226 64.9027C97.7672 65.7738 98.9859 66.1537 100.455 66.1537V64.8703ZM97.001 61.288V24.04H95.7175V61.288H97.001ZM97.001 24.04C97.001 22.7523 97.3225 21.9043 97.853 21.3738C98.3836 20.8432 99.2315 20.5217 100.519 20.5217V19.2383C99.0337 19.2383 97.8016 19.6101 96.9455 20.4662C96.0894 21.3224 95.7175 22.5544 95.7175 24.04H97.001ZM100.519 20.5217H115.943V19.2383H100.519V20.5217ZM115.943 20.5217C120.795 20.5217 124.44 21.6924 126.973 23.9436L127.826 22.9844C124.982 20.457 120.99 19.2383 115.943 19.2383V20.5217ZM126.977 23.9474C129.498 26.1483 130.79 29.2629 130.79 33.384H132.073C132.073 28.9718 130.676 25.473 127.821 22.9806L126.977 23.9474ZM130.79 33.384C130.79 36.6393 129.947 39.2859 128.303 41.3707L129.311 42.1653C131.166 39.8127 132.073 36.87 132.073 33.384H130.79ZM128.307 41.3659C126.665 43.4083 124.285 44.8167 121.109 45.5591L121.401 46.8089C124.796 46.0153 127.451 44.4797 129.307 42.1701L128.307 41.3659ZM121.063 46.7963C123.037 47.4154 124.714 48.9162 126.067 51.4173L127.196 50.8067C125.733 48.1025 123.826 46.3179 121.447 45.5717L121.063 46.7963ZM126.066 51.4167L130.866 60.3127L131.996 59.7033L127.196 50.8073L126.066 51.4167ZM130.865 60.3091C131.524 61.5509 131.601 62.6079 131.221 63.5419L132.41 64.0261C132.968 62.6561 132.789 61.1958 131.998 59.7069L130.865 60.3091ZM131.213 63.5611C131.055 63.9889 130.784 64.2985 130.379 64.5128C129.958 64.7356 129.363 64.8703 128.551 64.8703V66.1537C129.489 66.1537 130.312 66.0004 130.98 65.6472C131.663 65.2855 132.149 64.7311 132.417 64.0069L131.213 63.5611ZM128.551 64.8703C127.483 64.8703 126.676 64.6524 126.084 64.2692L125.387 65.3468C126.245 65.9023 127.316 66.1537 128.551 66.1537V64.8703ZM126.105 64.2837C125.482 63.8436 124.901 63.1615 124.38 62.1984L123.251 62.8096C123.839 63.8945 124.538 64.7484 125.365 65.3323L126.105 64.2837ZM124.379 62.1978L117.915 50.2938L116.787 50.9062L123.251 62.8102L124.379 62.1978ZM117.918 50.2997C117.11 48.7725 116.101 47.6798 114.858 47.1326L114.341 48.3074C115.23 48.6988 116.057 49.5262 116.784 50.9003L117.918 50.2997ZM114.886 47.146C113.744 46.5749 112.313 46.3103 110.631 46.3103V47.5937C112.192 47.5937 113.407 47.8411 114.312 48.294L114.886 47.146ZM110.631 46.3103H104.551V47.5937H110.631V46.3103ZM103.91 46.952V61.288H105.193V46.952H103.91ZM103.91 61.288C103.91 62.6019 103.591 63.4686 103.067 64.0093C102.546 64.5462 101.717 64.8703 100.455 64.8703V66.1537C101.925 66.1537 103.143 65.7738 103.988 64.9027C104.829 64.0354 105.193 62.7901 105.193 61.288H103.91ZM104.551 41.5137H114.535V40.2303H104.551V41.5137ZM114.535 41.5137C117.593 41.5137 120.005 40.894 121.66 39.5456C123.342 38.1767 124.137 36.1457 124.137 33.576H122.854C122.854 35.8703 122.156 37.4873 120.85 38.5504C119.519 39.634 117.451 40.2303 114.535 40.2303V41.5137ZM124.137 33.576C124.137 31.0257 123.34 29.0102 121.658 27.6526C120.003 26.3162 117.591 25.7023 114.535 25.7023V26.9857C117.452 26.9857 119.521 27.5771 120.852 28.6514C122.157 29.7044 122.854 31.305 122.854 33.576H124.137ZM114.535 25.7023H104.551V26.9857H114.535V25.7023ZM103.91 26.344V40.872H105.193V26.344H103.91ZM143.07 63.976L142.526 64.3161L143.07 63.976ZM143.134 60.264L143.714 60.5373L143.719 60.528L143.134 60.264ZM160.03 22.824L160.615 23.088L160.615 23.0865L160.03 22.824ZM162.014 20.2L162.37 20.734L162.376 20.7296L162.014 20.2ZM167.39 20.2L167.014 20.7202L167.03 20.7319L167.047 20.7426L167.39 20.2ZM169.438 22.824L168.852 23.0865L168.853 23.0888L169.438 22.824ZM186.398 60.264L185.813 60.5288L185.814 60.5308L186.398 60.264ZM186.526 64.04L187.074 64.3737L187.08 64.3633L186.526 64.04ZM180.638 64.68L180.2 65.1491L180.216 65.1642L180.233 65.1781L180.638 64.68ZM178.91 61.992L179.5 61.7392L179.499 61.738L178.91 61.992ZM175.71 54.568L176.299 54.314L176.132 53.9263H175.71V54.568ZM153.694 54.568V53.9263H153.268L153.103 54.3183L153.694 54.568ZM150.558 61.992L151.143 62.2546L151.149 62.2417L150.558 61.992ZM148.83 64.68L148.393 64.2097L148.83 64.68ZM164.638 28.776V28.1343H164.212L164.046 28.5265L164.638 28.776ZM156.51 48.04L155.918 47.7905L155.542 48.6817H156.51V48.04ZM172.894 48.04V48.6817H173.861L173.485 47.7905L172.894 48.04ZM164.766 28.776L165.357 28.5265L165.192 28.1343H164.766V28.776ZM146.27 64.8703C144.937 64.8703 144.108 64.4263 143.614 63.6359L142.526 64.3161C143.312 65.5737 144.615 66.1537 146.27 66.1537V64.8703ZM143.614 63.6359C143.126 62.8557 143.091 61.8628 143.714 60.5372L142.553 59.9908C141.812 61.5665 141.733 63.0483 142.526 64.3161L143.614 63.6359ZM143.719 60.528L160.615 23.088L159.445 22.56L142.549 60L143.719 60.528ZM160.615 23.0865C161.142 21.9108 161.739 21.1545 162.37 20.7339L161.658 19.666C160.753 20.2695 160.026 21.2625 159.444 22.5615L160.615 23.0865ZM162.376 20.7296C163.075 20.2512 163.865 20.0097 164.766 20.0097V18.7263C163.618 18.7263 162.573 19.0395 161.651 19.6704L162.376 20.7296ZM164.766 20.0097C165.617 20.0097 166.36 20.2475 167.014 20.7202L167.765 19.6798C166.884 19.0431 165.877 18.7263 164.766 18.7263V20.0097ZM167.047 20.7426C167.715 21.1646 168.329 21.9186 168.852 23.0865L170.023 22.5615C169.438 21.2547 168.686 20.2594 167.732 19.6574L167.047 20.7426ZM168.853 23.0888L185.813 60.5288L186.982 59.9992L170.022 22.5592L168.853 23.0888ZM185.814 60.5308C186.446 61.9134 186.426 62.9368 185.971 63.7166L187.08 64.3633C187.82 63.0952 187.715 61.6013 186.981 59.9972L185.814 60.5308ZM185.978 63.7063C185.528 64.4449 184.748 64.8703 183.454 64.8703V66.1537C185.061 66.1537 186.329 65.5977 187.074 64.3737L185.978 63.7063ZM183.454 64.8703C182.354 64.8703 181.576 64.6152 181.042 64.1819L180.233 65.1781C181.065 65.8542 182.164 66.1537 183.454 66.1537V64.8703ZM181.076 64.2109C180.524 63.6964 179.992 62.8882 179.5 61.7392L178.32 62.2448C178.851 63.4851 179.471 64.4689 180.2 65.1491L181.076 64.2109ZM179.499 61.738L176.299 54.314L175.12 54.822L178.32 62.246L179.499 61.738ZM175.71 53.9263H153.694V55.2097H175.71V53.9263ZM153.103 54.3183L149.967 61.7423L151.149 62.2417L154.285 54.8177L153.103 54.3183ZM149.972 61.7295C149.432 62.9336 148.899 63.7399 148.393 64.2097L149.266 65.1503C149.955 64.5107 150.574 63.5251 151.143 62.2545L149.972 61.7295ZM148.393 64.2097C147.952 64.6196 147.276 64.8703 146.27 64.8703V66.1537C147.482 66.1537 148.513 65.8498 149.266 65.1503L148.393 64.2097ZM164.046 28.5265L155.918 47.7905L157.101 48.2895L165.229 29.0255L164.046 28.5265ZM156.51 48.6817H172.894V47.3983H156.51V48.6817ZM173.485 47.7905L165.357 28.5265L164.174 29.0255L172.302 48.2895L173.485 47.7905ZM164.766 28.1343H164.638V29.4177H164.766V28.1343ZM207.805 62.824L207.485 63.3799L207.493 63.3846L207.805 62.824ZM200.125 54.76L199.554 55.0526L199.556 55.0554L200.125 54.76ZM200.125 30.12L200.695 30.4154L200.125 30.12ZM207.805 22.12L208.121 22.6789L208.123 22.6776L207.805 22.12ZM226.813 20.136L226.649 20.7564L226.813 20.136ZM232.765 22.696L233.116 22.1589L233.115 22.1579L232.765 22.696ZM234.749 25.32L234.121 25.4509L234.122 25.4563L234.749 25.32ZM234.365 28.072L234.921 28.3936L234.928 28.3813L234.365 28.072ZM232.253 29.736L232.422 30.3551L232.435 30.3516L232.448 30.3475L232.253 29.736ZM229.117 28.968L229.473 28.434L229.465 28.4288L229.117 28.968ZM224.829 27.112L224.985 26.4894L224.829 27.112ZM209.725 30.696L210.208 31.1186L210.211 31.1149L209.725 30.696ZM209.725 54.184L209.239 54.6029L209.725 54.184ZM224.957 57.768L225.109 58.3915L225.117 58.3896L225.125 58.3875L224.957 57.768ZM229.437 55.848L229.77 56.3969L229.779 56.3911L229.437 55.848ZM232.509 55.144L232.686 54.527L232.509 55.144ZM234.493 56.744L233.925 57.0429L233.935 57.0611L233.946 57.0786L234.493 56.744ZM234.941 59.304L235.573 59.4188L234.941 59.304ZM233.213 61.8L233.59 62.3196L233.595 62.3161L233.213 61.8ZM227.069 64.68L227.238 65.2992L227.246 65.297L227.069 64.68ZM219.901 64.9983C215.294 64.9983 211.374 64.0771 208.118 62.2634L207.493 63.3846C210.978 65.3255 215.122 66.2817 219.901 66.2817V64.9983ZM208.126 62.2681C204.906 60.4103 202.431 57.8133 200.695 54.4646L199.556 55.0554C201.403 58.6187 204.049 61.3978 207.485 63.3799L208.126 62.2681ZM200.696 54.4674C198.959 51.0761 198.079 47.0629 198.079 42.408H196.796C196.796 47.2251 197.707 51.4466 199.554 55.0525L200.696 54.4674ZM198.079 42.408C198.079 37.7528 198.959 33.7624 200.695 30.4154L199.556 29.8246C197.707 33.3896 196.796 37.5912 196.796 42.408H198.079ZM200.695 30.4154C202.431 27.0679 204.903 24.4938 208.121 22.6789L207.49 21.5611C204.051 23.5009 201.404 26.2601 199.556 29.8246L200.695 30.4154ZM208.123 22.6776C211.378 20.8232 215.296 19.8817 219.901 19.8817V18.5983C215.12 18.5983 210.973 19.5768 207.488 21.5624L208.123 22.6776ZM219.901 19.8817C222.193 19.8817 224.442 20.1733 226.649 20.7564L226.977 19.5155C224.662 18.904 222.303 18.5983 219.901 18.5983V19.8817ZM226.649 20.7564C228.854 21.3389 230.774 22.167 232.416 23.2341L233.115 22.1579C231.343 21.0064 229.295 20.1277 226.977 19.5155L226.649 20.7564ZM232.414 23.2331C233.421 23.8914 233.951 24.6354 234.121 25.4509L235.377 25.1891C235.121 23.9566 234.328 22.9513 233.116 22.1589L232.414 23.2331ZM234.122 25.4563C234.304 26.2914 234.195 27.0498 233.803 27.7627L234.928 28.3813C235.474 27.3875 235.621 26.3113 235.376 25.1837L234.122 25.4563ZM233.81 27.7505C233.425 28.4153 232.854 28.8715 232.059 29.1245L232.448 30.3475C233.53 30.0032 234.367 29.35 234.921 28.3935L233.81 27.7505ZM232.084 29.1169C231.39 29.3062 230.538 29.144 229.473 28.434L228.761 29.502C230 30.328 231.239 30.6778 232.422 30.3551L232.084 29.1169ZM229.465 28.4288C228.083 27.5371 226.589 26.8904 224.985 26.4894L224.674 27.7346C226.142 28.1016 227.506 28.6923 228.769 29.5072L229.465 28.4288ZM224.985 26.4894C223.398 26.0927 221.789 25.8943 220.157 25.8943V27.1777C221.683 27.1777 223.188 27.3633 224.674 27.7346L224.985 26.4894ZM220.157 25.8943C215.455 25.8943 211.78 27.3284 209.239 30.2771L210.211 31.1149C212.45 28.517 215.729 27.1777 220.157 27.1777V25.8943ZM209.242 30.2734C206.716 33.1604 205.5 37.237 205.5 42.408H206.783C206.783 37.4243 207.956 33.6929 210.208 31.1186L209.242 30.2734ZM205.5 42.408C205.5 47.5798 206.716 51.6749 209.239 54.6029L210.211 53.7651C207.955 51.1465 206.783 47.3909 206.783 42.408H205.5ZM209.239 54.6029C211.78 57.5516 215.455 58.9857 220.157 58.9857V57.7023C215.729 57.7023 212.45 56.363 210.211 53.7651L209.239 54.6029ZM220.157 58.9857C221.83 58.9857 223.481 58.7876 225.109 58.3915L224.806 57.1445C223.276 57.5164 221.727 57.7023 220.157 57.7023V58.9857ZM225.125 58.3875C226.762 57.945 228.311 57.2811 229.77 56.3968L229.105 55.2992C227.748 56.1215 226.31 56.7376 224.79 57.1485L225.125 58.3875ZM229.779 56.3911C230.849 55.7174 231.68 55.5746 232.333 55.761L232.686 54.527C231.546 54.2014 230.329 54.5279 229.095 55.3049L229.779 56.3911ZM232.333 55.761C233.064 55.9698 233.582 56.3903 233.925 57.0429L235.061 56.4451C234.551 55.4764 233.747 54.8302 232.686 54.527L232.333 55.761ZM233.946 57.0786C234.328 57.7036 234.454 58.3954 234.31 59.1892L235.573 59.4188C235.77 58.3353 235.598 57.3204 235.041 56.4094L233.946 57.0786ZM234.31 59.1892C234.176 59.926 233.72 60.6275 232.832 61.2839L233.595 62.3161C234.669 61.5218 235.365 60.5593 235.573 59.4188L234.31 59.1892ZM232.837 61.2804C231.2 62.4668 229.223 63.3973 226.893 64.063L227.246 65.297C229.694 64.5974 231.813 63.6079 233.59 62.3196L232.837 61.2804ZM226.9 64.0609C224.609 64.6859 222.276 64.9983 219.901 64.9983V66.2817C222.39 66.2817 224.836 65.9541 227.238 65.2991L226.9 64.0609ZM257.001 39.848H256.36V40.4897H257.001V39.848ZM257.129 39.848V40.4897H257.396L257.584 40.301L257.129 39.848ZM275.497 21.416L275.043 20.9622L275.043 20.963L275.497 21.416ZM277.545 19.88L277.258 19.306L277.545 19.88ZM282.473 20.328L281.972 20.7289L281.98 20.7387L281.988 20.7483L282.473 20.328ZM283.113 22.568L282.479 22.4728L282.476 22.4884L282.475 22.5041L283.113 22.568ZM281.897 24.936L282.348 25.3924L282.351 25.3898L281.897 24.936ZM265.065 41.576L264.614 41.1196L264.158 41.5701L264.608 42.0265L265.065 41.576ZM282.793 59.56L282.336 60.0105L282.343 60.0177L282.351 60.0247L282.793 59.56ZM284.201 62.248L284.842 62.2189L284.201 62.248ZM283.305 64.616L283.759 65.0698L283.305 64.616ZM278.121 64.872L277.748 65.3942L277.757 65.4002L277.765 65.406L278.121 64.872ZM276.009 63.016L276.463 62.5622L276.009 63.016ZM257.129 44.136L257.583 43.6822L257.395 43.4943H257.129V44.136ZM257.001 44.136V43.4943H256.36V44.136H257.001ZM252.905 64.8703C251.644 64.8703 250.815 64.5462 250.294 64.0093C249.77 63.4686 249.451 62.6019 249.451 61.288H248.168C248.168 62.7901 248.531 64.0354 249.373 64.9027C250.217 65.7738 251.436 66.1537 252.905 66.1537V64.8703ZM249.451 61.288V23.528H248.168V61.288H249.451ZM249.451 23.528C249.451 22.2378 249.768 21.3885 250.291 20.8582C250.811 20.3299 251.641 20.0097 252.905 20.0097V18.7263C251.438 18.7263 250.221 19.0995 249.376 19.9578C248.533 20.8142 248.168 22.0449 248.168 23.528H249.451ZM252.905 20.0097C254.169 20.0097 255 20.3299 255.52 20.8582C256.042 21.3885 256.36 22.2378 256.36 23.528H257.643C257.643 22.0449 257.278 20.8142 256.435 19.9578C255.589 19.0995 254.372 18.7263 252.905 18.7263V20.0097ZM256.36 23.528V39.848H257.643V23.528H256.36ZM257.001 40.4897H257.129V39.2063H257.001V40.4897ZM257.584 40.301L275.952 21.869L275.043 20.963L256.675 39.395L257.584 40.301ZM275.951 21.8698C276.597 21.2236 277.225 20.7575 277.832 20.454L277.258 19.306C276.5 19.6851 275.763 20.2431 275.043 20.9622L275.951 21.8698ZM277.832 20.454C278.416 20.1622 279.084 20.0097 279.849 20.0097V18.7263C278.908 18.7263 278.04 18.9151 277.258 19.306L277.832 20.454ZM279.849 20.0097C280.993 20.0097 281.634 20.3058 281.972 20.7289L282.974 19.9271C282.289 19.0702 281.18 18.7263 279.849 18.7263V20.0097ZM281.988 20.7483C282.418 21.2435 282.579 21.8009 282.479 22.4728L283.748 22.6632C283.903 21.6284 283.638 20.6925 282.958 19.9077L281.988 20.7483ZM282.475 22.5041C282.407 23.1826 282.085 23.8403 281.443 24.4822L282.351 25.3898C283.16 24.5811 283.649 23.6601 283.752 22.6319L282.475 22.5041ZM281.446 24.4796L264.614 41.1196L265.516 42.0324L282.348 25.3924L281.446 24.4796ZM264.608 42.0265L282.336 60.0105L283.25 59.1095L265.522 41.1255L264.608 42.0265ZM282.351 60.0247C283.166 60.8012 283.527 61.5509 283.56 62.2771L284.842 62.2189C284.79 61.0677 284.213 60.0255 283.236 59.0953L282.351 60.0247ZM283.56 62.2771C283.595 63.0435 283.359 63.6551 282.851 64.1622L283.759 65.0698C284.532 64.2969 284.893 63.3299 284.842 62.2189L283.56 62.2771ZM282.851 64.1622C282.417 64.5968 281.713 64.8703 280.617 64.8703V66.1537C281.911 66.1537 282.999 65.8299 283.759 65.0698L282.851 64.1622ZM280.617 64.8703C279.679 64.8703 278.982 64.6746 278.477 64.338L277.765 65.406C278.54 65.9227 279.508 66.1537 280.617 66.1537V64.8703ZM278.494 64.3498C277.937 63.9517 277.261 63.3601 276.463 62.5622L275.555 63.4698C276.379 64.2932 277.111 64.9389 277.748 65.3942L278.494 64.3498ZM276.463 62.5622L257.583 43.6822L256.675 44.5898L275.555 63.4698L276.463 62.5622ZM257.129 43.4943H257.001V44.7777H257.129V43.4943ZM256.36 44.136V61.288H257.643V44.136H256.36ZM256.36 61.288C256.36 62.6019 256.041 63.4686 255.517 64.0093C254.996 64.5462 254.167 64.8703 252.905 64.8703V66.1537C254.375 66.1537 255.593 65.7738 256.438 64.9027C257.279 64.0354 257.643 62.7901 257.643 61.288H256.36ZM303.44 64.68L303.291 65.3043L303.293 65.3048L303.44 64.68ZM296.4 61.8L296.049 62.3375L296.054 62.3409L296.4 61.8ZM294.8 56.808L294.215 56.5447L294.211 56.5518L294.208 56.559L294.8 56.808ZM296.528 55.08L296.76 55.6781L296.769 55.6749L296.777 55.6714L296.528 55.08ZM299.28 55.528L298.94 56.0722L298.946 56.0764L298.953 56.0805L299.28 55.528ZM319.184 57.064L319.56 57.5843L319.569 57.5774L319.184 57.064ZM319.824 49.128L319.423 49.6292L319.432 49.6367L319.824 49.128ZM314.256 47.016L314.387 46.3879L314.387 46.3879L314.256 47.016ZM307.216 45.544L307.082 46.1717L307.084 46.1721L307.216 45.544ZM297.424 25.832L296.902 25.459L297.424 25.832ZM303.632 20.968L303.376 20.3796L303.632 20.968ZM320.08 20.2L320.251 19.5817L320.08 20.2ZM326.288 23.016L326.656 22.4902L326.647 22.484L326.288 23.016ZM327.824 25.256L327.193 25.3761L327.194 25.3818L327.824 25.256ZM327.504 27.688L328.071 27.9883L328.074 27.9817L328.078 27.975L327.504 27.688ZM325.648 29.224L325.841 29.8359L325.85 29.833L325.86 29.8297L325.648 29.224ZM322.768 28.648L323.088 28.0921L323.085 28.0899L322.768 28.648ZM317.968 26.728L317.82 27.3525L317.968 26.728ZM305.808 28.008L306.191 28.523L305.808 28.008ZM304.848 36.584L304.414 37.0571L304.42 37.0621L304.425 37.067L304.848 36.584ZM310.096 38.696L310.228 38.0681L310.226 38.0676L310.096 38.696ZM317.072 40.168L317.205 39.5402L317.204 39.5401L317.072 40.168ZM326.48 44.392L326.041 44.8602L326.046 44.8647L326.48 44.392ZM327.44 59.176L326.916 58.8051L327.44 59.176ZM321.232 63.976L321.48 64.5678L321.485 64.5658L321.232 63.976ZM311.824 64.9983C309.013 64.9983 306.268 64.6837 303.586 64.0552L303.293 65.3048C306.073 65.9563 308.917 66.2817 311.824 66.2817V64.9983ZM303.588 64.0557C300.959 63.4297 298.681 62.4948 296.745 61.2591L296.054 62.3409C298.129 63.6652 300.544 64.6503 303.291 65.3043L303.588 64.0557ZM296.75 61.2625C295.876 60.6926 295.402 60.032 295.234 59.2898L293.982 59.5742C294.24 60.7093 294.96 61.6274 296.049 62.3375L296.75 61.2625ZM295.234 59.2898C295.047 58.4689 295.107 57.7323 295.391 57.057L294.208 56.559C293.81 57.505 293.742 58.5177 293.982 59.5742L295.234 59.2898ZM295.385 57.0713C295.71 56.3489 296.171 55.9073 296.76 55.6781L296.295 54.4819C295.349 54.85 294.657 55.5604 294.215 56.5447L295.385 57.0713ZM296.777 55.6714C297.329 55.4391 298.021 55.4981 298.94 56.0722L299.62 54.9838C298.49 54.2779 297.348 54.0382 296.279 54.4886L296.777 55.6714ZM298.953 56.0805C300.884 57.2214 302.927 58.0562 305.079 58.5833L305.384 57.3367C303.356 56.8398 301.43 56.0533 299.606 54.9755L298.953 56.0805ZM305.079 58.5833C307.223 59.1084 309.472 59.3697 311.824 59.3697V58.0863C309.568 58.0863 307.422 57.8356 305.384 57.3367L305.079 58.5833ZM311.824 59.3697C315.237 59.3697 317.858 58.8134 319.559 57.5842L318.808 56.5438C317.438 57.5332 315.152 58.0863 311.824 58.0863V59.3697ZM319.569 57.5774C321.253 56.3143 322.129 54.6582 322.129 52.648H320.846C320.846 54.2218 320.187 55.5097 318.799 56.5506L319.569 57.5774ZM322.129 52.648C322.129 50.9709 321.494 49.6033 320.215 48.6193L319.432 49.6367C320.372 50.3594 320.846 51.3384 320.846 52.648H322.129ZM320.225 48.6269C319.035 47.6749 317.053 46.9468 314.387 46.3879L314.124 47.6441C316.749 48.1945 318.48 48.8745 319.423 49.6291L320.225 48.6269ZM314.387 46.3879L307.347 44.9159L307.084 46.1721L314.124 47.6441L314.387 46.3879ZM307.349 44.9163C303.412 44.0786 300.538 42.6649 298.651 40.7282C296.779 38.8059 295.825 36.3133 295.825 33.192H294.542C294.542 36.5987 295.594 39.4287 297.732 41.6238C299.856 43.8044 302.998 45.3027 307.082 46.1717L307.349 44.9163ZM295.825 33.192C295.825 30.4963 296.538 28.1763 297.946 26.205L296.902 25.459C295.323 27.669 294.542 30.2557 294.542 33.192H295.825ZM297.946 26.205C299.364 24.2201 301.336 22.6678 303.888 21.5564L303.376 20.3796C300.637 21.5722 298.47 23.2625 296.902 25.459L297.946 26.205ZM303.888 21.5564C306.438 20.4458 309.399 19.8817 312.784 19.8817V18.5983C309.257 18.5983 306.116 19.1862 303.376 20.3796L303.888 21.5564ZM312.784 19.8817C315.29 19.8817 317.664 20.1949 319.908 20.8183L320.251 19.5817C317.888 18.9251 315.398 18.5983 312.784 18.5983V19.8817ZM319.908 20.8183C322.151 21.4413 324.156 22.3523 325.929 23.548L326.647 22.484C324.75 21.205 322.617 20.2387 320.251 19.5817L319.908 20.8183ZM325.92 23.5417C326.657 24.0579 327.058 24.6679 327.193 25.3761L328.454 25.1359C328.248 24.0521 327.625 23.1687 326.656 22.4903L325.92 23.5417ZM327.194 25.3818C327.338 26.0973 327.249 26.7625 326.93 27.401L328.078 27.975C328.526 27.0775 328.651 26.1214 328.453 25.1301L327.194 25.3818ZM326.937 27.3877C326.636 27.9551 326.153 28.3672 325.436 28.6183L325.86 29.8297C326.849 29.4835 327.603 28.8715 328.071 27.9883L326.937 27.3877ZM325.454 28.6121C324.886 28.7914 324.121 28.6878 323.088 28.0921L322.447 29.2039C323.633 29.8882 324.788 30.1686 325.841 29.8359L325.454 28.6121ZM323.085 28.0899C321.458 27.1666 319.801 26.5027 318.116 26.1035L317.82 27.3525C319.377 27.7213 320.921 28.3374 322.451 29.2061L323.085 28.0899ZM318.116 26.1035C316.44 25.7067 314.641 25.5103 312.72 25.5103V26.7937C314.553 26.7937 316.253 26.9813 317.82 27.3525L318.116 26.1035ZM312.72 25.5103C309.694 25.5103 307.237 26.1452 305.425 27.493L306.191 28.523C307.706 27.3961 309.858 26.7937 312.72 26.7937V25.5103ZM305.425 27.493C303.605 28.8466 302.67 30.6558 302.67 32.872H303.953C303.953 31.0776 304.683 29.6441 306.191 28.523L305.425 27.493ZM302.67 32.872C302.67 34.5667 303.243 35.9832 304.414 37.0571L305.281 36.1109C304.405 35.3074 303.953 34.2493 303.953 32.872H302.67ZM304.425 37.067C305.577 38.0749 307.461 38.8062 309.966 39.3244L310.226 38.0676C307.781 37.5618 306.166 36.8851 305.27 36.101L304.425 37.067ZM309.963 39.3239L316.939 40.7959L317.204 39.5401L310.228 38.0681L309.963 39.3239ZM316.939 40.7958C321.105 41.6795 324.112 43.0523 326.041 44.8602L326.919 43.9238C324.751 41.8917 321.487 40.4485 317.205 39.5402L316.939 40.7958ZM326.046 44.8647C327.986 46.647 328.974 49.0264 328.974 52.072H330.257C330.257 48.7176 329.154 45.977 326.914 43.9193L326.046 44.8647ZM328.974 52.072C328.974 54.6371 328.284 56.8734 326.916 58.8051L327.963 59.5469C329.496 57.3826 330.257 54.8829 330.257 52.072H328.974ZM326.916 58.8051C325.544 60.7415 323.576 62.2729 320.979 63.3862L321.485 64.5658C324.263 63.3751 326.434 61.7065 327.963 59.5469L326.916 58.8051ZM320.984 63.3842C318.435 64.4531 315.387 64.9983 311.824 64.9983V66.2817C315.514 66.2817 318.738 65.7176 321.48 64.5678L320.984 63.3842Z" fill="#248A82"/>
<path d="M70.1853 69.512C67.4546 69.512 66.0893 68.104 66.0893 65.288V30.728H53.6093C51.2626 30.728 50.0892 29.576 50.0892 27.272C50.0892 25.0107 51.2626 23.88 53.6093 23.88H86.7613C89.1079 23.88 90.2812 25.0107 90.2812 27.272C90.2812 29.576 89.1079 30.728 86.7613 30.728H74.2813V65.288C74.2813 68.104 72.9159 69.512 70.1853 69.512ZM105.455 69.512C102.725 69.512 101.359 68.104 101.359 65.288V28.04C101.359 25.2667 102.746 23.88 105.519 23.88H120.943C125.893 23.88 129.711 25.0747 132.399 27.464C135.087 29.8107 136.431 33.1173 136.431 37.384C136.431 40.7547 135.557 43.5493 133.807 45.768C132.058 47.944 129.541 49.416 126.255 50.184C128.431 50.8667 130.223 52.5093 131.631 55.112L136.431 64.008C137.157 65.3733 137.285 66.632 136.815 67.784C136.389 68.936 135.301 69.512 133.551 69.512C132.399 69.512 131.461 69.2773 130.735 68.808C130.01 68.296 129.37 67.528 128.815 66.504L122.351 54.6C121.583 53.1493 120.666 52.1893 119.599 51.72C118.575 51.208 117.253 50.952 115.631 50.952H109.551V65.288C109.551 68.104 108.186 69.512 105.455 69.512ZM109.551 44.872H119.535C125.509 44.872 128.495 42.44 128.495 37.576C128.495 32.7547 125.509 30.344 119.535 30.344H109.551V44.872ZM151.27 69.512C149.776 69.512 148.71 69 148.07 67.976C147.43 66.952 147.451 65.7147 148.134 64.264L165.03 26.824C165.584 25.5867 166.246 24.712 167.014 24.2C167.824 23.6453 168.742 23.368 169.766 23.368C170.747 23.368 171.622 23.6453 172.39 24.2C173.2 24.712 173.883 25.5867 174.438 26.824L191.398 64.264C192.08 65.7573 192.123 67.016 191.526 68.04C190.928 69.0213 189.904 69.512 188.454 69.512C187.259 69.512 186.32 69.2347 185.638 68.68C184.998 68.0827 184.422 67.1867 183.91 65.992L180.71 58.568H158.694L155.558 65.992C155.003 67.2293 154.427 68.1253 153.83 68.68C153.232 69.2347 152.379 69.512 151.27 69.512ZM169.638 32.776L161.51 52.04H177.894L169.766 32.776H169.638ZM224.901 69.64C220.208 69.64 216.176 68.7013 212.805 66.824C209.477 64.904 206.917 62.216 205.125 58.76C203.333 55.2613 202.437 51.144 202.437 46.408C202.437 41.672 203.333 37.576 205.125 34.12C206.917 30.664 209.477 27.9973 212.805 26.12C216.176 24.2 220.208 23.24 224.901 23.24C227.248 23.24 229.552 23.5387 231.813 24.136C234.075 24.7333 236.059 25.5867 237.765 26.696C238.875 27.4213 239.536 28.296 239.749 29.32C239.963 30.3013 239.835 31.2187 239.365 32.072C238.896 32.8827 238.192 33.4373 237.253 33.736C236.315 33.992 235.269 33.736 234.117 32.968C232.795 32.1147 231.365 31.496 229.829 31.112C228.293 30.728 226.736 30.536 225.157 30.536C220.592 30.536 217.115 31.9227 214.725 34.696C212.336 37.4267 211.141 41.3307 211.141 46.408C211.141 51.4853 212.336 55.4107 214.725 58.184C217.115 60.9573 220.592 62.344 225.157 62.344C226.779 62.344 228.379 62.152 229.957 61.768C231.536 61.3413 233.029 60.7013 234.437 59.848C235.589 59.1227 236.613 58.888 237.509 59.144C238.405 59.4 239.067 59.9333 239.493 60.744C239.963 61.512 240.112 62.3653 239.941 63.304C239.771 64.2427 239.195 65.0747 238.213 65.8C236.507 67.0373 234.459 67.9973 232.069 68.68C229.723 69.32 227.333 69.64 224.901 69.64ZM257.905 69.512C255.175 69.512 253.809 68.104 253.809 65.288V27.528C253.809 24.7547 255.175 23.368 257.905 23.368C260.636 23.368 262.001 24.7547 262.001 27.528V43.848H262.129L280.497 25.416C281.18 24.7333 281.863 24.2213 282.545 23.88C283.228 23.5387 283.996 23.368 284.849 23.368C286.087 23.368 286.961 23.688 287.473 24.328C288.028 24.968 288.241 25.7147 288.113 26.568C288.028 27.4213 287.623 28.2107 286.897 28.936L270.065 45.576L287.793 63.56C288.689 64.4133 289.159 65.3093 289.201 66.248C289.244 67.1867 288.945 67.976 288.305 68.616C287.708 69.2133 286.812 69.512 285.617 69.512C284.593 69.512 283.761 69.2987 283.121 68.872C282.524 68.4453 281.82 67.8267 281.009 67.016L262.129 48.136H262.001V65.288C262.001 68.104 260.636 69.512 257.905 69.512ZM316.824 69.64C313.965 69.64 311.17 69.32 308.44 68.68C305.752 68.04 303.405 67.08 301.4 65.8C300.418 65.16 299.821 64.3707 299.608 63.432C299.394 62.4933 299.458 61.6187 299.8 60.808C300.184 59.9547 300.76 59.3787 301.528 59.08C302.338 58.7387 303.256 58.888 304.28 59.528C306.157 60.6373 308.141 61.448 310.232 61.96C312.322 62.472 314.52 62.728 316.824 62.728C320.194 62.728 322.648 62.1733 324.184 61.064C325.72 59.912 326.488 58.44 326.488 56.648C326.488 55.1547 325.933 53.9813 324.824 53.128C323.757 52.2747 321.901 51.5707 319.256 51.016L312.216 49.544C304.194 47.8373 300.184 43.72 300.184 37.192C300.184 34.376 300.93 31.9227 302.424 29.832C303.917 27.7413 305.986 26.12 308.632 24.968C311.277 23.816 314.328 23.24 317.784 23.24C320.344 23.24 322.776 23.56 325.08 24.2C327.384 24.84 329.453 25.7787 331.288 27.016C332.141 27.6133 332.653 28.36 332.824 29.256C332.994 30.1093 332.888 30.92 332.504 31.688C332.12 32.4133 331.501 32.9253 330.648 33.224C329.837 33.48 328.877 33.288 327.768 32.648C326.189 31.752 324.589 31.112 322.968 30.728C321.346 30.344 319.597 30.152 317.72 30.152C314.776 30.152 312.472 30.7707 310.808 32.008C309.144 33.2453 308.312 34.8667 308.312 36.872C308.312 38.408 308.824 39.6453 309.848 40.584C310.872 41.48 312.621 42.184 315.096 42.696L322.072 44.168C326.296 45.064 329.432 46.472 331.48 48.392C333.57 50.312 334.616 52.872 334.616 56.072C334.616 58.76 333.89 61.128 332.44 63.176C330.989 65.224 328.92 66.824 326.232 67.976C323.586 69.0853 320.45 69.64 316.824 69.64Z" fill="#0EB29F"/>
<path d="M66.0893 30.728H66.5171V30.3002H66.0893V30.728ZM74.2813 30.728V30.3002H73.8534V30.728H74.2813ZM70.1853 69.0842C68.8893 69.0842 67.9951 68.7508 67.4204 68.1582C66.8433 67.5631 66.5171 66.6333 66.5171 65.288H65.6614C65.6614 66.7587 66.0178 67.9409 66.8061 68.7538C67.5968 69.5692 68.7506 69.9398 70.1853 69.9398V69.0842ZM66.5171 65.288V30.728H65.6614V65.288H66.5171ZM66.0893 30.3002H53.6093V31.1558H66.0893V30.3002ZM53.6093 30.3002C52.4999 30.3002 51.7469 30.0279 51.269 29.5587C50.7925 29.0909 50.5171 28.356 50.5171 27.272H49.6614C49.6614 28.492 49.9726 29.4851 50.6695 30.1693C51.365 30.8521 52.3719 31.1558 53.6093 31.1558V30.3002ZM50.5171 27.272C50.5171 26.2114 50.7914 25.4935 51.2661 25.0361C51.7438 24.5757 52.498 24.3078 53.6093 24.3078V23.4522C52.3739 23.4522 51.368 23.7496 50.6724 24.4199C49.9738 25.0931 49.6614 26.0713 49.6614 27.272H50.5171ZM53.6093 24.3078H86.7613V23.4522H53.6093V24.3078ZM86.7613 24.3078C87.8725 24.3078 88.6267 24.5757 89.1044 25.0361C89.5791 25.4935 89.8534 26.2114 89.8534 27.272H90.7091C90.7091 26.0713 90.3967 25.0931 89.6981 24.4199C89.0025 23.7496 87.9966 23.4522 86.7613 23.4522V24.3078ZM89.8534 27.272C89.8534 28.356 89.578 29.0909 89.1015 29.5587C88.6236 30.0279 87.8706 30.3002 86.7613 30.3002V31.1558C87.9986 31.1558 89.0055 30.8521 89.701 30.1693C90.3979 29.4851 90.7091 28.492 90.7091 27.272H89.8534ZM86.7613 30.3002H74.2813V31.1558H86.7613V30.3002ZM73.8534 30.728V65.288H74.7091V30.728H73.8534ZM73.8534 65.288C73.8534 66.6333 73.5272 67.5631 72.9501 68.1582C72.3754 68.7508 71.4812 69.0842 70.1853 69.0842V69.9398C71.6199 69.9398 72.7737 69.5692 73.5644 68.7538C74.3527 67.9409 74.7091 66.7587 74.7091 65.288H73.8534ZM132.399 27.464L132.115 27.7838L132.118 27.7863L132.399 27.464ZM133.807 45.768L134.141 46.0361L134.143 46.0329L133.807 45.768ZM126.255 50.184L126.158 49.7674L124.634 50.1237L126.127 50.5922L126.255 50.184ZM131.631 55.112L132.008 54.9088L132.008 54.9084L131.631 55.112ZM136.431 64.008L136.809 63.8073L136.808 63.8048L136.431 64.008ZM136.815 67.784L136.419 67.6225L136.414 67.6354L136.815 67.784ZM130.735 68.808L130.489 69.1575L130.496 69.1625L130.503 69.1672L130.735 68.808ZM128.815 66.504L129.191 66.3002L129.191 66.2998L128.815 66.504ZM122.351 54.6L121.973 54.8002L121.975 54.8042L122.351 54.6ZM119.599 51.72L119.408 52.1027L119.417 52.1074L119.427 52.1116L119.599 51.72ZM109.551 50.952V50.5242H109.123V50.952H109.551ZM109.551 44.872H109.123V45.2998H109.551V44.872ZM109.551 30.344V29.9162H109.123V30.344H109.551ZM105.455 69.0842C104.159 69.0842 103.265 68.7508 102.69 68.1582C102.113 67.5631 101.787 66.6333 101.787 65.288H100.931C100.931 66.7587 101.288 67.9409 102.076 68.7538C102.867 69.5692 104.021 69.9398 105.455 69.9398V69.0842ZM101.787 65.288V28.04H100.931V65.288H101.787ZM101.787 28.04C101.787 26.7193 102.117 25.8073 102.702 25.2225C103.287 24.6377 104.199 24.3078 105.519 24.3078V23.4522C104.067 23.4522 102.899 23.8156 102.097 24.6175C101.295 25.4193 100.931 26.5874 100.931 28.04H101.787ZM105.519 24.3078H120.943V23.4522H105.519V24.3078ZM120.943 24.3078C125.827 24.3078 129.531 25.4865 132.115 27.7838L132.683 27.1442C129.892 24.6629 125.958 23.4522 120.943 23.4522V24.3078ZM132.118 27.7863C134.695 30.0358 136.003 33.2144 136.003 37.384H136.859C136.859 33.0203 135.48 29.5856 132.681 27.1417L132.118 27.7863ZM136.003 37.384C136.003 40.6778 135.15 43.3737 133.471 45.5031L134.143 46.0329C135.963 43.7249 136.859 40.8315 136.859 37.384H136.003ZM133.474 45.4999C131.796 47.5869 129.37 49.0165 126.158 49.7674L126.353 50.6006C129.711 49.8155 132.32 48.3011 134.141 46.0361L133.474 45.4999ZM126.127 50.5922C128.168 51.2325 129.884 52.7806 131.255 55.3156L132.008 54.9084C130.563 52.2381 128.694 50.5008 126.383 49.7758L126.127 50.5922ZM131.255 55.3152L136.055 64.2112L136.808 63.8048L132.008 54.9088L131.255 55.3152ZM136.053 64.2087C136.735 65.4917 136.829 66.616 136.419 67.6226L137.211 67.9454C137.74 66.648 137.578 65.255 136.809 63.8073L136.053 64.2087ZM136.414 67.6354C136.237 68.1126 135.93 68.463 135.479 68.7019C135.017 68.9464 134.384 69.0842 133.551 69.0842V69.9398C134.468 69.9398 135.253 69.7896 135.879 69.4581C136.516 69.121 136.966 68.6074 137.216 67.9326L136.414 67.6354ZM133.551 69.0842C132.455 69.0842 131.604 68.8607 130.968 68.4488L130.503 69.1672C131.317 69.694 132.344 69.9398 133.551 69.9398V69.0842ZM130.982 68.4585C130.325 67.9944 129.724 67.2837 129.191 66.3002L128.439 66.7078C129.016 67.7723 129.695 68.5976 130.489 69.1575L130.982 68.4585ZM129.191 66.2998L122.727 54.3958L121.975 54.8042L128.439 66.7082L129.191 66.2998ZM122.729 54.3998C121.934 52.8981 120.956 51.8497 119.772 51.3284L119.427 52.1116C120.376 52.529 121.232 53.4006 121.973 54.8002L122.729 54.3998ZM119.791 51.3373C118.688 50.7859 117.293 50.5242 115.631 50.5242V51.3798C117.212 51.3798 118.463 51.6301 119.408 52.1027L119.791 51.3373ZM115.631 50.5242H109.551V51.3798H115.631V50.5242ZM109.123 50.952V65.288H109.979V50.952H109.123ZM109.123 65.288C109.123 66.6333 108.797 67.5631 108.22 68.1582C107.645 68.7508 106.751 69.0842 105.455 69.0842V69.9398C106.89 69.9398 108.044 69.5692 108.834 68.7538C109.623 67.9409 109.979 66.7587 109.979 65.288H109.123ZM109.551 45.2998H119.535V44.4442H109.551V45.2998ZM119.535 45.2998C122.569 45.2998 124.924 44.684 126.525 43.3797C128.144 42.0618 128.923 40.0998 128.923 37.576H128.067C128.067 39.9162 127.353 41.6022 125.985 42.7163C124.6 43.844 122.475 44.4442 119.535 44.4442V45.2998ZM128.923 37.576C128.923 35.0722 128.143 33.1259 126.524 31.8191C124.922 30.5264 122.568 29.9162 119.535 29.9162V30.7718C122.476 30.7718 124.601 31.3669 125.987 32.4849C127.354 33.5887 128.067 35.2584 128.067 37.576H128.923ZM119.535 29.9162H109.551V30.7718H119.535V29.9162ZM109.123 30.344V44.872H109.979V30.344H109.123ZM148.07 67.976L147.707 68.2027L148.07 67.976ZM148.134 64.264L148.521 64.4462L148.524 64.44L148.134 64.264ZM165.03 26.824L165.42 27L165.42 26.999L165.03 26.824ZM167.014 24.2L167.251 24.556L167.255 24.5531L167.014 24.2ZM172.39 24.2L172.139 24.5468L172.15 24.5546L172.161 24.5617L172.39 24.2ZM174.438 26.824L174.047 26.999L174.048 27.0005L174.438 26.824ZM191.398 64.264L191.008 64.4405L191.009 64.4419L191.398 64.264ZM191.526 68.04L191.891 68.2625L191.895 68.2556L191.526 68.04ZM185.638 68.68L185.346 68.9928L185.357 69.0028L185.368 69.012L185.638 68.68ZM183.91 65.992L184.303 65.8235L184.303 65.8227L183.91 65.992ZM180.71 58.568L181.103 58.3987L180.991 58.1402H180.71V58.568ZM158.694 58.568V58.1402H158.41L158.3 58.4015L158.694 58.568ZM155.558 65.992L155.948 66.167L155.952 66.1585L155.558 65.992ZM153.83 68.68L153.539 68.3665L153.83 68.68ZM169.638 32.776V32.3482H169.354L169.244 32.6097L169.638 32.776ZM161.51 52.04L161.116 51.8737L160.865 52.4678H161.51V52.04ZM177.894 52.04V52.4678H178.539L178.288 51.8737L177.894 52.04ZM169.766 32.776L170.16 32.6097L170.05 32.3482H169.766V32.776ZM151.27 69.0842C149.884 69.0842 148.975 68.6175 148.433 67.7493L147.707 68.2027C148.444 69.3825 149.669 69.9398 151.27 69.9398V69.0842ZM148.433 67.7493C147.894 66.8878 147.877 65.8134 148.521 64.4462L147.747 64.0818C147.025 65.6159 146.965 67.0162 147.707 68.2027L148.433 67.7493ZM148.524 64.44L165.42 27L164.64 26.648L147.744 64.088L148.524 64.44ZM165.42 26.999C165.956 25.8028 166.575 25.007 167.251 24.556L166.776 23.844C165.917 24.417 165.212 25.3706 164.639 26.649L165.42 26.999ZM167.255 24.5531C167.992 24.0492 168.824 23.7958 169.766 23.7958V22.9402C168.659 22.9402 167.657 23.2414 166.772 23.8469L167.255 24.5531ZM169.766 23.7958C170.661 23.7958 171.447 24.0468 172.139 24.5468L172.64 23.8532C171.797 23.2439 170.834 22.9402 169.766 22.9402V23.7958ZM172.161 24.5617C172.877 25.0137 173.513 25.808 174.047 26.999L174.828 26.649C174.253 25.3654 173.524 24.4103 172.618 23.8383L172.161 24.5617ZM174.048 27.0005L191.008 64.4405L191.787 64.0875L174.827 26.6475L174.048 27.0005ZM191.009 64.4419C191.658 65.8614 191.659 66.9632 191.156 67.8244L191.895 68.2556C192.588 67.0688 192.503 65.6533 191.787 64.0861L191.009 64.4419ZM191.16 67.8176C190.661 68.6371 189.8 69.0842 188.454 69.0842V69.9398C190.009 69.9398 191.195 69.4056 191.891 68.2624L191.16 67.8176ZM188.454 69.0842C187.322 69.0842 186.491 68.8217 185.908 68.348L185.368 69.012C186.15 69.6477 187.196 69.9398 188.454 69.9398V69.0842ZM185.93 68.3672C185.349 67.8252 184.802 66.9877 184.303 65.8235L183.517 66.1605C184.042 67.3857 184.647 68.3402 185.346 68.9928L185.93 68.3672ZM184.303 65.8227L181.103 58.3987L180.317 58.7373L183.517 66.1613L184.303 65.8227ZM180.71 58.1402H158.694V58.9958H180.71V58.1402ZM158.3 58.4015L155.164 65.8255L155.952 66.1585L159.088 58.7345L158.3 58.4015ZM155.167 65.817C154.623 67.0322 154.075 67.8684 153.539 68.3665L154.121 68.9935C154.779 68.3823 155.384 67.4265 155.948 66.167L155.167 65.817ZM153.539 68.3665C153.045 68.8246 152.311 69.0842 151.27 69.0842V69.9398C152.448 69.9398 153.42 69.6447 154.121 68.9935L153.539 68.3665ZM169.244 32.6097L161.116 51.8737L161.904 52.2063L170.032 32.9423L169.244 32.6097ZM161.51 52.4678H177.894V51.6122H161.51V52.4678ZM178.288 51.8737L170.16 32.6097L169.372 32.9423L177.5 52.2063L178.288 51.8737ZM169.766 32.3482H169.638V33.2038H169.766V32.3482ZM212.805 66.824L212.591 67.1946L212.597 67.1978L212.805 66.824ZM205.125 58.76L204.744 58.955L204.745 58.9569L205.125 58.76ZM205.125 34.12L205.505 34.3169L205.125 34.12ZM212.805 26.12L213.015 26.4926L213.017 26.4917L212.805 26.12ZM231.813 24.136L231.704 24.5496L231.813 24.136ZM237.765 26.696L237.999 26.3379L237.998 26.3373L237.765 26.696ZM239.749 29.32L239.33 29.4073L239.331 29.4109L239.749 29.32ZM239.365 32.072L239.736 32.2864L239.74 32.2782L239.365 32.072ZM237.253 33.736L237.366 34.1487L237.374 34.1464L237.383 34.1437L237.253 33.736ZM234.117 32.968L234.355 32.612L234.349 32.6085L234.117 32.968ZM229.829 31.112L229.933 30.697L229.829 31.112ZM214.725 34.696L215.047 34.9777L215.049 34.9752L214.725 34.696ZM214.725 58.184L214.401 58.4632L214.725 58.184ZM229.957 61.768L230.058 62.1838L230.069 62.181L229.957 61.768ZM234.437 59.848L234.659 60.2139L234.665 60.21L234.437 59.848ZM237.509 59.144L237.627 58.7326L237.509 59.144ZM239.493 60.744L239.115 60.9433L239.121 60.9554L239.128 60.9671L239.493 60.744ZM239.941 63.304L240.362 63.3805L239.941 63.304ZM238.213 65.8L238.464 66.1464L238.468 66.144L238.213 65.8ZM232.069 68.68L232.182 69.0928L232.187 69.0914L232.069 68.68ZM224.901 69.2122C220.265 69.2122 216.308 68.2852 213.013 66.4502L212.597 67.1978C216.044 69.1175 220.151 70.0678 224.901 70.0678V69.2122ZM213.019 66.4534C209.763 64.5748 207.26 61.9475 205.505 58.5631L204.745 58.9569C206.575 62.4845 209.192 65.2332 212.591 67.1946L213.019 66.4534ZM205.506 58.565C203.751 55.1378 202.865 51.0899 202.865 46.408H202.009C202.009 51.1981 202.916 55.3848 204.744 58.955L205.506 58.565ZM202.865 46.408C202.865 41.7259 203.751 37.7003 205.505 34.3169L204.745 33.9231C202.916 37.4517 202.009 41.6181 202.009 46.408H202.865ZM205.505 34.3169C207.26 30.9333 209.761 28.3283 213.015 26.4926L212.595 25.7474C209.193 27.6664 206.575 30.3947 204.745 33.9231L205.505 34.3169ZM213.017 26.4917C216.311 24.6155 220.267 23.6678 224.901 23.6678V22.8122C220.149 22.8122 216.041 23.7845 212.593 25.7483L213.017 26.4917ZM224.901 23.6678C227.211 23.6678 229.478 23.9617 231.704 24.5496L231.923 23.7224C229.625 23.1156 227.285 22.8122 224.901 22.8122V23.6678ZM231.704 24.5496C233.928 25.1371 235.869 25.9735 237.532 27.0547L237.998 26.3373C236.248 25.1998 234.221 24.3296 231.923 23.7224L231.704 24.5496ZM237.531 27.0541C238.572 27.7347 239.146 28.5222 239.33 29.4073L240.168 29.2327C239.926 28.0698 239.177 27.108 237.999 26.3379L237.531 27.0541ZM239.331 29.4109C239.523 30.2947 239.408 31.1061 238.99 31.8658L239.74 32.2782C240.261 31.3312 240.402 30.308 240.167 29.2291L239.331 29.4109ZM238.995 31.8576C238.582 32.5711 237.966 33.0601 237.124 33.3283L237.383 34.1437C238.417 33.8146 239.21 33.1942 239.736 32.2864L238.995 31.8576ZM237.141 33.3233C236.365 33.5348 235.449 33.3413 234.355 32.612L233.88 33.324C235.09 34.1307 236.264 34.4492 237.366 34.1487L237.141 33.3233ZM234.349 32.6085C232.987 31.7296 231.514 31.0923 229.933 30.697L229.725 31.527C231.216 31.8997 232.602 32.4997 233.885 33.3275L234.349 32.6085ZM229.933 30.697C228.363 30.3045 226.771 30.1082 225.157 30.1082V30.9638C226.701 30.9638 228.223 31.1515 229.725 31.527L229.933 30.697ZM225.157 30.1082C220.501 30.1082 216.891 31.5265 214.401 34.4168L215.049 34.9752C217.338 32.3189 220.683 30.9638 225.157 30.9638V30.1082ZM214.403 34.4143C211.923 37.2492 210.713 41.2682 210.713 46.408H211.569C211.569 41.3931 212.749 37.6042 215.047 34.9777L214.403 34.4143ZM210.713 46.408C210.713 51.5483 211.923 55.5868 214.401 58.4632L215.049 57.9048C212.749 55.2345 211.569 51.4224 211.569 46.408H210.713ZM214.401 58.4632C216.891 61.3535 220.501 62.7718 225.157 62.7718V61.9162C220.683 61.9162 217.338 60.5611 215.049 57.9048L214.401 58.4632ZM225.157 62.7718C226.813 62.7718 228.447 62.5757 230.058 62.1837L229.856 61.3523C228.311 61.7283 226.744 61.9162 225.157 61.9162V62.7718ZM230.069 62.181C231.687 61.7438 233.217 61.0879 234.659 60.2139L234.216 59.4821C232.842 60.3148 231.385 60.9389 229.846 61.355L230.069 62.181ZM234.665 60.21C235.762 59.5192 236.658 59.3457 237.392 59.5554L237.627 58.7326C236.568 58.4303 235.416 58.7262 234.209 59.486L234.665 60.21ZM237.392 59.5554C238.178 59.7799 238.743 60.238 239.115 60.9433L239.872 60.5447C239.39 59.6287 238.633 59.0201 237.627 58.7326L237.392 59.5554ZM239.128 60.9671C239.539 61.6398 239.673 62.3854 239.52 63.2275L240.362 63.3805C240.55 62.3453 240.386 61.3842 239.858 60.5209L239.128 60.9671ZM239.52 63.2275C239.374 64.0315 238.878 64.7766 237.959 65.456L238.468 66.144C239.511 65.3727 240.167 64.4538 240.362 63.3805L239.52 63.2275ZM237.962 65.4536C236.302 66.657 234.301 67.5973 231.952 68.2686L232.187 69.0914C234.616 68.3974 236.711 67.4177 238.464 66.1464L237.962 65.4536ZM231.957 68.2673C229.647 68.8972 227.295 69.2122 224.901 69.2122V70.0678C227.371 70.0678 229.798 69.7428 232.182 69.0927L231.957 68.2673ZM262.001 43.848H261.573V44.2758H262.001V43.848ZM262.129 43.848V44.2758H262.307L262.432 44.15L262.129 43.848ZM280.497 25.416L280.195 25.1135L280.194 25.114L280.497 25.416ZM282.545 23.88L282.354 23.4973L282.545 23.88ZM287.473 24.328L287.139 24.5953L287.144 24.6018L287.15 24.6082L287.473 24.328ZM288.113 26.568L287.69 26.5045L287.689 26.5149L287.688 26.5254L288.113 26.568ZM286.897 28.936L287.198 29.2402L287.2 29.2385L286.897 28.936ZM270.065 45.576L269.764 45.2718L269.461 45.5721L269.761 45.8763L270.065 45.576ZM287.793 63.56L287.488 63.8605L287.498 63.8698L287.793 63.56ZM289.201 66.248L289.629 66.2286L289.201 66.248ZM288.305 68.616L288.608 68.9185L288.305 68.616ZM283.121 68.872L282.872 69.2203L282.884 69.228L283.121 68.872ZM281.009 67.016L281.312 66.7135L281.009 67.016ZM262.129 48.136L262.432 47.8335L262.306 47.7082H262.129V48.136ZM262.001 48.136V47.7082H261.573V48.136H262.001ZM257.905 69.0842C256.609 69.0842 255.715 68.7508 255.14 68.1582C254.563 67.5631 254.237 66.6333 254.237 65.288H253.381C253.381 66.7587 253.738 67.9409 254.526 68.7538C255.317 69.5692 256.471 69.9398 257.905 69.9398V69.0842ZM254.237 65.288V27.528H253.381V65.288H254.237ZM254.237 27.528C254.237 26.2056 254.563 25.2927 255.138 24.7082C255.712 24.1248 256.608 23.7958 257.905 23.7958V22.9402C256.472 22.9402 255.319 23.3045 254.528 24.1078C253.739 24.9099 253.381 26.077 253.381 27.528H254.237ZM257.905 23.7958C259.203 23.7958 260.098 24.1248 260.672 24.7082C261.248 25.2927 261.573 26.2056 261.573 27.528H262.429C262.429 26.077 262.072 24.9099 261.282 24.1078C260.491 23.3045 259.338 22.9402 257.905 22.9402V23.7958ZM261.573 27.528V43.848H262.429V27.528H261.573ZM262.001 44.2758H262.129V43.4202H262.001V44.2758ZM262.432 44.15L280.8 25.718L280.194 25.114L261.826 43.546L262.432 44.15ZM280.8 25.7185C281.458 25.0602 282.104 24.5788 282.737 24.2627L282.354 23.4973C281.621 23.8639 280.902 24.4065 280.195 25.1135L280.8 25.7185ZM282.737 24.2627C283.353 23.9544 284.054 23.7958 284.849 23.7958V22.9402C283.937 22.9402 283.103 23.123 282.354 23.4973L282.737 24.2627ZM284.849 23.7958C286.024 23.7958 286.743 24.0999 287.139 24.5953L287.807 24.0607C287.18 23.2761 286.149 22.9402 284.849 22.9402V23.7958ZM287.15 24.6082C287.621 25.1517 287.8 25.7721 287.69 26.5045L288.536 26.6315C288.682 25.6572 288.435 24.7843 287.797 24.0478L287.15 24.6082ZM287.688 26.5254C287.614 27.2621 287.264 27.9637 286.595 28.6335L287.2 29.2385C287.981 28.4576 288.442 27.5805 288.539 26.6106L287.688 26.5254ZM286.596 28.6318L269.764 45.2718L270.366 45.8802L287.198 29.2402L286.596 28.6318ZM269.761 45.8763L287.489 63.8603L288.098 63.2597L270.37 45.2757L269.761 45.8763ZM287.498 63.8698C288.34 64.6719 288.738 65.4704 288.774 66.2674L289.629 66.2286C289.58 65.1483 289.038 64.1548 288.088 63.2502L287.498 63.8698ZM288.774 66.2674C288.811 67.0912 288.554 67.7621 288.003 68.3135L288.608 68.9185C289.336 68.1899 289.677 67.2821 289.629 66.2286L288.774 66.2674ZM288.003 68.3135C287.514 68.8023 286.746 69.0842 285.617 69.0842V69.9398C286.878 69.9398 287.902 69.6244 288.608 68.9185L288.003 68.3135ZM285.617 69.0842C284.65 69.0842 283.908 68.8826 283.359 68.516L282.884 69.228C283.614 69.7147 284.536 69.9398 285.617 69.9398V69.0842ZM283.37 68.5239C282.799 68.1163 282.114 67.5156 281.312 66.7135L280.707 67.3185C281.526 68.1377 282.249 68.7744 282.873 69.2201L283.37 68.5239ZM281.312 66.7135L262.432 47.8335L261.827 48.4385L280.707 67.3185L281.312 66.7135ZM262.129 47.7082H262.001V48.5638H262.129V47.7082ZM261.573 48.136V65.288H262.429V48.136H261.573ZM261.573 65.288C261.573 66.6333 261.247 67.5631 260.67 68.1582C260.095 68.7508 259.201 69.0842 257.905 69.0842V69.9398C259.34 69.9398 260.494 69.5692 261.284 68.7538C262.073 67.9409 262.429 66.7587 262.429 65.288H261.573ZM308.44 68.68L308.341 69.0962L308.342 69.0965L308.44 68.68ZM301.4 65.8L301.166 66.1584L301.17 66.1606L301.4 65.8ZM299.8 60.808L299.41 60.6324L299.405 60.642L299.8 60.808ZM301.528 59.08L301.683 59.4789L301.694 59.4743L301.528 59.08ZM304.28 59.528L304.053 59.8909L304.062 59.8963L304.28 59.528ZM324.184 61.064L324.434 61.4109L324.44 61.4063L324.184 61.064ZM324.824 53.128L324.556 53.4621L324.563 53.4671L324.824 53.128ZM319.256 51.016L319.344 50.5973L319.343 50.5972L319.256 51.016ZM312.216 49.544L312.127 49.9625L312.128 49.9628L312.216 49.544ZM302.424 29.832L302.076 29.5833L302.424 29.832ZM308.632 24.968L308.461 24.5758L308.632 24.968ZM325.08 24.2L325.194 23.7878L325.08 24.2ZM331.288 27.016L331.533 26.6655L331.527 26.6613L331.288 27.016ZM332.824 29.256L332.403 29.3361L332.404 29.3399L332.824 29.256ZM332.504 31.688L332.882 31.8882L332.886 31.8793L332.504 31.688ZM330.648 33.224L330.777 33.6322L330.789 33.6278L330.648 33.224ZM327.768 32.648L327.982 32.2774L327.979 32.2759L327.768 32.648ZM322.968 30.728L322.869 31.1443L322.968 30.728ZM310.808 32.008L311.063 32.3513V32.3513L310.808 32.008ZM309.848 40.584L309.559 40.8995L309.566 40.906L309.848 40.584ZM315.096 42.696L315.184 42.2774L315.182 42.2771L315.096 42.696ZM322.072 44.168L322.161 43.7495L322.16 43.7494L322.072 44.168ZM331.48 48.392L331.187 48.7041L331.19 48.7071L331.48 48.392ZM332.44 63.176L332.091 62.9287L332.44 63.176ZM326.232 67.976L326.397 68.3705L326.4 68.3692L326.232 67.976ZM316.824 69.2122C313.997 69.2122 311.235 68.8958 308.537 68.2635L308.342 69.0965C311.105 69.7442 313.933 70.0678 316.824 70.0678V69.2122ZM308.539 68.2638C305.89 67.6331 303.589 66.6899 301.63 65.4394L301.17 66.1606C303.221 67.4701 305.614 68.4469 308.341 69.0962L308.539 68.2638ZM301.633 65.4417C300.724 64.8484 300.209 64.1449 300.025 63.3372L299.191 63.5268C299.434 64.5964 300.113 65.4716 301.166 66.1583L301.633 65.4417ZM300.025 63.3372C299.829 62.4771 299.891 61.6945 300.194 60.974L299.405 60.642C299.026 61.5429 298.959 62.5096 299.191 63.5268L300.025 63.3372ZM300.19 60.9836C300.535 60.2175 301.034 59.7311 301.683 59.4787L301.373 58.6813C300.486 59.0262 299.833 59.6918 299.41 60.6324L300.19 60.9836ZM301.694 59.4743C302.332 59.2056 303.099 59.2947 304.053 59.8908L304.507 59.1652C303.412 58.4813 302.345 58.2717 301.362 58.6857L301.694 59.4743ZM304.062 59.8963C305.975 61.0267 307.998 61.8534 310.13 62.3755L310.334 61.5445C308.284 61.0426 306.339 60.248 304.497 59.1597L304.062 59.8963ZM310.13 62.3755C312.256 62.8962 314.488 63.1558 316.824 63.1558V62.3002C314.552 62.3002 312.389 62.0477 310.334 61.5445L310.13 62.3755ZM316.824 63.1558C320.223 63.1558 322.788 62.6001 324.434 61.4108L323.933 60.7172C322.508 61.7466 320.166 62.3002 316.824 62.3002V63.1558ZM324.44 61.4063C326.075 60.1802 326.916 58.5855 326.916 56.648H326.06C326.06 58.2945 325.364 59.6438 323.927 60.7217L324.44 61.4063ZM326.916 56.648C326.916 55.0322 326.307 53.7293 325.085 52.7889L324.563 53.4671C325.559 54.2334 326.06 55.2772 326.06 56.648H326.916ZM325.091 52.7939C323.942 51.8748 322.002 51.1548 319.344 50.5973L319.168 51.4347C321.8 51.9866 323.572 52.6745 324.556 53.4621L325.091 52.7939ZM319.343 50.5972L312.303 49.1252L312.128 49.9628L319.168 51.4348L319.343 50.5972ZM312.305 49.1255C308.343 48.2826 305.424 46.8548 303.498 44.8775C301.581 42.9097 300.612 40.3609 300.612 37.192H299.756C299.756 40.5511 300.791 43.3249 302.885 45.4745C304.97 47.6145 308.067 49.0987 312.127 49.9625L312.305 49.1255ZM300.612 37.192C300.612 34.4562 301.335 32.0918 302.772 30.0807L302.076 29.5833C300.525 31.7536 299.756 34.2958 299.756 37.192H300.612ZM302.772 30.0807C304.215 28.0605 306.219 26.4852 308.803 25.3602L308.461 24.5758C305.754 25.7548 303.619 27.4221 302.076 29.5833L302.772 30.0807ZM308.803 25.3602C311.384 24.2359 314.375 23.6678 317.784 23.6678V22.8122C314.28 22.8122 311.17 23.3961 308.461 24.5758L308.803 25.3602ZM317.784 23.6678C320.308 23.6678 322.701 23.9833 324.965 24.6122L325.194 23.7878C322.85 23.1367 320.38 22.8122 317.784 22.8122V23.6678ZM324.965 24.6122C327.228 25.2409 329.255 26.1611 331.049 27.3707L331.527 26.6613C329.651 25.3962 327.539 24.4391 325.194 23.7878L324.965 24.6122ZM331.042 27.3665C331.818 27.9097 332.257 28.5653 332.403 29.336L333.244 29.1759C333.049 28.1547 332.464 27.3169 331.533 26.6655L331.042 27.3665ZM332.404 29.3399C332.557 30.1013 332.462 30.815 332.121 31.4967L332.886 31.8793C333.314 31.025 333.432 30.1174 333.243 29.1721L332.404 29.3399ZM332.126 31.4878C331.797 32.1079 331.269 32.5532 330.506 32.8202L330.789 33.6278C331.733 33.2974 332.442 32.7188 332.882 31.8882L332.126 31.4878ZM330.519 32.816C329.87 33.021 329.04 32.8878 327.982 32.2774L327.554 33.0186C328.715 33.6882 329.804 33.939 330.777 33.632L330.519 32.816ZM327.979 32.2759C326.368 31.3617 324.73 30.7058 323.066 30.3117L322.869 31.1443C324.448 31.5182 326.01 32.1423 327.557 33.0201L327.979 32.2759ZM323.066 30.3117C321.409 29.9191 319.626 29.7242 317.72 29.7242V30.5798C319.568 30.5798 321.284 30.7688 322.869 31.1443L323.066 30.3117ZM317.72 29.7242C314.721 29.7242 312.316 30.3537 310.552 31.6647L311.063 32.3513C312.628 31.1876 314.83 30.5798 317.72 30.5798V29.7242ZM310.552 31.6647C308.784 32.9795 307.884 34.7261 307.884 36.872H308.74C308.74 35.0073 309.503 33.5112 311.063 32.3513L310.552 31.6647ZM307.884 36.872C307.884 38.5138 308.436 39.8706 309.559 40.8994L310.137 40.2686C309.211 39.4201 308.74 38.3022 308.74 36.872H307.884ZM309.566 40.906C310.675 41.8766 312.514 42.5988 315.009 43.1149L315.182 42.2771C312.728 41.7692 311.068 41.0834 310.129 40.262L309.566 40.906ZM315.007 43.1146L321.983 44.5866L322.16 43.7494L315.184 42.2774L315.007 43.1146ZM321.983 44.5865C326.168 45.4743 329.219 46.8589 331.187 48.7041L331.772 48.0799C329.645 46.0851 326.423 44.6537 322.161 43.7495L321.983 44.5865ZM331.19 48.7071C333.181 50.5353 334.188 52.9749 334.188 56.072H335.044C335.044 52.7691 333.96 50.0887 331.769 48.0769L331.19 48.7071ZM334.188 56.072C334.188 58.6781 333.486 60.9582 332.091 62.9287L332.789 63.4233C334.294 61.2978 335.044 58.8419 335.044 56.072H334.188ZM332.091 62.9287C330.693 64.9023 328.691 66.4566 326.063 67.5828L326.4 68.3692C329.149 67.1914 331.286 65.5457 332.789 63.4233L332.091 62.9287ZM326.066 67.5815C323.485 68.6639 320.408 69.2122 316.824 69.2122V70.0678C320.493 70.0678 323.688 69.5068 326.397 68.3705L326.066 67.5815Z" fill="#0EB29F"/>
<path d="M159 88H222.03" stroke="#248A82" stroke-width="4" stroke-linecap="round"/>
</svg>
