<svg width="344" height="91" viewBox="0 0 344 91" fill="none" xmlns="http://www.w3.org/2000/svg">
<path d="M40.5156 31.79L40.0618 32.2438L40.0678 32.2497L40.5156 31.79ZM43.7456 29.002L43.2675 29.4303L43.2771 29.4406L43.7456 29.002ZM55.5776 31.79L56.0314 32.2438L56.0344 32.2408L55.5776 31.79ZM48.0636 33.6983C44.8844 33.6983 42.5519 32.8776 40.9634 31.3303L40.0678 32.2497C41.9699 34.1024 44.6695 34.9817 48.0636 34.9817V33.6983ZM40.9694 31.3362C39.4066 29.7734 38.5733 27.424 38.5733 24.174H37.2899C37.2899 27.6333 38.1793 30.3612 40.0618 32.2438L40.9694 31.3362ZM38.5733 24.174V11.968H37.2899V24.174H38.5733ZM38.5733 11.968C38.5733 11.3278 38.7308 10.966 38.9329 10.7607C39.1331 10.5574 39.4837 10.3997 40.1076 10.3997V9.11627C39.2808 9.11627 38.5434 9.32697 38.0183 9.86026C37.495 10.3917 37.2899 11.1349 37.2899 11.968H38.5733ZM40.1076 10.3997C40.7315 10.3997 41.0821 10.5574 41.2823 10.7607C41.4844 10.966 41.6419 11.3278 41.6419 11.968H42.9253C42.9253 11.1349 42.7201 10.3917 42.1969 9.86026C41.6718 9.32697 40.9344 9.11627 40.1076 9.11627V10.3997ZM41.6419 11.968V24.14H42.9253V11.968H41.6419ZM41.6419 24.14C41.6419 26.378 42.1471 28.1794 43.2676 29.4302L44.2236 28.5738C43.3948 27.6486 42.9253 26.2087 42.9253 24.14H41.6419ZM43.2771 29.4406C44.4285 30.6704 46.059 31.2417 48.0636 31.2417V29.9583C46.3056 29.9583 45.0574 29.4643 44.2141 28.5634L43.2771 29.4406ZM48.0636 31.2417C50.0986 31.2417 51.7365 30.6663 52.8526 29.4115C53.956 28.171 54.4513 26.3749 54.4513 24.14H53.1679C53.1679 26.2117 52.7055 27.6457 51.8936 28.5585C51.0944 29.457 49.8593 29.9583 48.0636 29.9583V31.2417ZM54.4513 24.14V11.968H53.1679V24.14H54.4513ZM54.4513 11.968C54.4513 11.3278 54.6088 10.966 54.8109 10.7607C55.0111 10.5574 55.3617 10.3997 55.9856 10.3997V9.11627C55.1588 9.11627 54.4214 9.32697 53.8963 9.86026C53.373 10.3917 53.1679 11.1349 53.1679 11.968H54.4513ZM55.9856 10.3997C56.5955 10.3997 56.9363 10.5559 57.1313 10.7571C57.3299 10.9621 57.4859 11.3253 57.4859 11.968H58.7693C58.7693 11.1374 58.5683 10.3956 58.0529 9.86387C57.5339 9.32843 56.8037 9.11627 55.9856 9.11627V10.3997ZM57.4859 11.968V24.174H58.7693V11.968H57.4859ZM57.4859 24.174C57.4859 27.4262 56.6628 29.7768 55.1208 31.3392L56.0344 32.2408C57.8924 30.3579 58.7693 27.6312 58.7693 24.174H57.4859ZM55.1238 31.3362C53.5837 32.8764 51.2682 33.6983 48.0636 33.6983V34.9817C51.4777 34.9817 54.1715 34.1036 56.0314 32.2438L55.1238 31.3362ZM68.7792 33.6303C68.1578 33.6303 67.8085 33.4712 67.6079 33.2643C67.4036 33.0536 67.2449 32.6819 67.2449 32.028H65.9614C65.9614 32.8701 66.1654 33.6204 66.6865 34.1577C67.2111 34.6988 67.9498 34.9137 68.7792 34.9137V33.6303ZM67.2449 32.028V12.002H65.9614V32.028H67.2449ZM67.2449 12.002C67.2449 11.3481 67.4036 10.9764 67.6079 10.7657C67.8085 10.5588 68.1578 10.3997 68.7792 10.3997V9.11627C67.9498 9.11627 67.2111 9.33121 66.6865 9.87226C66.1654 10.4096 65.9614 11.1599 65.9614 12.002H67.2449ZM68.7792 10.3997C69.4005 10.3997 69.7498 10.5588 69.9505 10.7657C70.1547 10.9764 70.3134 11.3481 70.3134 12.002H71.5969C71.5969 11.1599 71.393 10.4096 70.8719 9.87226C70.3472 9.33121 69.6085 9.11627 68.7792 9.11627V10.3997ZM70.3134 12.002V32.028H71.5969V12.002H70.3134ZM70.3134 32.028C70.3134 32.6819 70.1547 33.0536 69.9505 33.2643C69.7498 33.4712 69.4005 33.6303 68.7792 33.6303V34.9137C69.6085 34.9137 70.3472 34.6988 70.8719 34.1577C71.393 33.6204 71.5969 32.8701 71.5969 32.028H70.3134ZM79.9729 34.986L79.362 34.7895L79.3593 34.7979L79.3568 34.8063L79.9729 34.986ZM79.0889 36.04L78.867 35.4378L78.8474 35.4451L78.8282 35.4536L79.0889 36.04ZM77.8309 36.108L78.0241 35.4961L78.0134 35.4927L78.0026 35.4897L77.8309 36.108ZM76.8789 35.394L77.423 35.0539L77.4156 35.042L77.4077 35.0304L76.8789 35.394ZM76.7769 34L76.166 33.8032L76.1657 33.8044L76.7769 34ZM84.6309 9.622L84.022 9.41906L84.02 9.42521L84.6309 9.622ZM85.5149 8.534L85.7755 9.12042L85.7755 9.12042L85.5149 8.534ZM86.7389 8.466L86.5359 9.0748L86.5555 9.08134L86.5755 9.0866L86.7389 8.466ZM87.7249 9.214L87.1717 9.53937L87.1832 9.55889L87.196 9.57756L87.7249 9.214ZM87.8269 10.574L87.218 10.3711L87.216 10.3775L87.8269 10.574ZM79.3568 34.8063C79.2402 35.2061 79.0617 35.3661 78.867 35.4378L79.3107 36.6422C79.9774 36.3965 80.3882 35.8539 80.5889 35.1657L79.3568 34.8063ZM78.8282 35.4536C78.5651 35.5705 78.3073 35.5855 78.0241 35.4961L77.6376 36.7199C78.2157 36.9025 78.7966 36.8722 79.3495 36.6264L78.8282 35.4536ZM78.0026 35.4897C77.7509 35.4197 77.5656 35.282 77.423 35.0539L76.3347 35.7341C76.6454 36.2313 77.0949 36.5696 77.6591 36.7263L78.0026 35.4897ZM77.4077 35.0304C77.3074 34.8846 77.2444 34.6446 77.3881 34.1956L76.1657 33.8044C75.9467 34.4888 75.9517 35.1781 76.35 35.7576L77.4077 35.0304ZM77.3877 34.1968L85.2417 9.81879L84.02 9.42521L76.166 33.8032L77.3877 34.1968ZM85.2397 9.82493C85.3812 9.40034 85.5762 9.20899 85.7755 9.12042L85.2542 7.94758C84.6375 8.22167 84.2432 8.75565 84.0221 9.41907L85.2397 9.82493ZM85.7755 9.12042C86.0433 9.00139 86.2861 8.99152 86.5359 9.0748L86.9418 7.8572C86.3756 7.66848 85.8024 7.70395 85.2542 7.94758L85.7755 9.12042ZM86.5755 9.0866C86.8417 9.15664 87.0306 9.2994 87.1717 9.53937L88.278 8.88863C87.9658 8.35793 87.4974 8.00202 86.9022 7.8454L86.5755 9.0866ZM87.196 9.57756C87.2983 9.72628 87.3568 9.95483 87.2181 10.3711L88.4357 10.7769C88.6596 10.1052 88.6501 9.42705 88.2537 8.85044L87.196 9.57756ZM87.216 10.3775L79.362 34.7895L80.5838 35.1825L88.4378 10.7705L87.216 10.3775ZM96.0711 31.79L95.6173 32.2438L95.6233 32.2497L96.0711 31.79ZM99.3011 29.002L98.823 29.4303L98.8326 29.4406L99.3011 29.002ZM111.133 31.79L111.587 32.2438L111.59 32.2408L111.133 31.79ZM103.619 33.6983C100.44 33.6983 98.1074 32.8776 96.5188 31.3303L95.6233 32.2497C97.5254 34.1024 100.225 34.9817 103.619 34.9817V33.6983ZM96.5248 31.3362C94.9621 29.7734 94.1288 27.424 94.1288 24.174H92.8453C92.8453 27.6333 93.7347 30.3612 95.6173 32.2438L96.5248 31.3362ZM94.1288 24.174V11.968H92.8453V24.174H94.1288ZM94.1288 11.968C94.1288 11.3278 94.2863 10.966 94.4883 10.7607C94.6886 10.5574 95.0392 10.3997 95.6631 10.3997V9.11627C94.8363 9.11627 94.0989 9.32697 93.5738 9.86026C93.0505 10.3917 92.8453 11.1349 92.8453 11.968H94.1288ZM95.6631 10.3997C96.2869 10.3997 96.6375 10.5574 96.8378 10.7607C97.0398 10.966 97.1973 11.3278 97.1973 11.968H98.4808C98.4808 11.1349 98.2756 10.3917 97.7523 9.86026C97.2273 9.32697 96.4899 9.11627 95.6631 9.11627V10.3997ZM97.1973 11.968V24.14H98.4808V11.968H97.1973ZM97.1973 24.14C97.1973 26.378 97.7026 28.1794 98.8231 29.4302L99.7791 28.5738C98.9502 27.6486 98.4808 26.2087 98.4808 24.14H97.1973ZM98.8326 29.4406C99.9839 30.6704 101.614 31.2417 103.619 31.2417V29.9583C101.861 29.9583 100.613 29.4643 99.7695 28.5634L98.8326 29.4406ZM103.619 31.2417C105.654 31.2417 107.292 30.6663 108.408 29.4115C109.511 28.171 110.007 26.3749 110.007 24.14H108.723C108.723 26.2117 108.261 27.6457 107.449 28.5585C106.65 29.457 105.415 29.9583 103.619 29.9583V31.2417ZM110.007 24.14V11.968H108.723V24.14H110.007ZM110.007 11.968C110.007 11.3278 110.164 10.966 110.366 10.7607C110.567 10.5574 110.917 10.3997 111.541 10.3997V9.11627C110.714 9.11627 109.977 9.32697 109.452 9.86026C108.929 10.3917 108.723 11.1349 108.723 11.968H110.007ZM111.541 10.3997C112.151 10.3997 112.492 10.5559 112.687 10.7571C112.885 10.9621 113.041 11.3253 113.041 11.968H114.325C114.325 11.1374 114.124 10.3956 113.608 9.86387C113.089 9.32843 112.359 9.11627 111.541 9.11627V10.3997ZM113.041 11.968V24.174H114.325V11.968H113.041ZM113.041 24.174C113.041 27.4262 112.218 29.7768 110.676 31.3392L111.59 32.2408C113.448 30.3579 114.325 27.6312 114.325 24.174H113.041ZM110.679 31.3362C109.139 32.8764 106.824 33.6983 103.619 33.6983V34.9817C107.033 34.9817 109.727 34.1036 111.587 32.2438L110.679 31.3362ZM121.315 33.83L120.892 34.313L120.901 34.3207L120.91 34.3281L121.315 33.83ZM120.669 32.674L120.03 32.7348L120.032 32.7521L120.034 32.7692L120.669 32.674ZM121.145 31.246L121.655 31.6349L121.659 31.6304L121.145 31.246ZM128.217 21.794L128.731 22.1784L129.018 21.7945L128.731 21.4102L128.217 21.794ZM121.519 12.818L121 13.1955L121.005 13.2018L121.519 12.818ZM121.043 11.39L121.682 11.4539L121.682 11.4508L121.043 11.39ZM121.655 10.234L122.06 10.7321L122.069 10.7247L122.078 10.717L121.655 10.234ZM125.293 11.152L125.813 10.7761L125.811 10.773L125.293 11.152ZM130.699 18.632L130.179 19.0079L130.699 19.7276L131.219 19.0079L130.699 18.632ZM136.105 11.152L135.587 10.773L135.585 10.7761L136.105 11.152ZM139.811 10.2L140.216 9.70194L140.216 9.70194L139.811 10.2ZM140.423 11.356L139.784 11.4168L139.784 11.4199L140.423 11.356ZM139.913 12.818L140.427 13.2018L140.429 13.1994L139.913 12.818ZM133.215 21.794L132.701 21.4102L132.415 21.7936L132.7 22.1773L133.215 21.794ZM140.253 31.246L139.738 31.6293L139.743 31.6349L140.253 31.246ZM140.729 32.674L141.368 32.7379L141.368 32.7348L140.729 32.674ZM140.117 33.83L140.522 34.3281L140.531 34.3207L140.54 34.313L140.117 33.83ZM136.411 32.844L135.893 33.2225L135.895 33.2251L136.411 32.844ZM130.699 25.024L131.217 24.6455L130.697 23.9339L130.18 24.647L130.699 25.024ZM125.021 32.844L125.537 33.2251L125.54 33.221L125.021 32.844ZM122.709 33.6303C122.257 33.6303 121.945 33.5151 121.72 33.3319L120.91 34.3281C121.41 34.7343 122.027 34.9137 122.709 34.9137V33.6303ZM121.738 33.347C121.483 33.1242 121.348 32.8737 121.304 32.5788L120.034 32.7692C120.126 33.381 120.422 33.9011 120.892 34.313L121.738 33.347ZM121.308 32.6132C121.281 32.3356 121.365 32.0162 121.655 31.6349L120.635 30.8571C120.2 31.4278 119.966 32.0604 120.03 32.7348L121.308 32.6132ZM121.659 31.6304L128.731 22.1784L127.703 21.4096L120.631 30.8616L121.659 31.6304ZM128.731 21.4102L122.033 12.4342L121.005 13.2018L127.703 22.1778L128.731 21.4102ZM122.038 12.4406C121.735 12.0238 121.657 11.7022 121.682 11.4539L120.404 11.3261C120.339 11.9844 120.578 12.6148 121 13.1954L122.038 12.4406ZM121.682 11.4508C121.711 11.1416 121.834 10.9155 122.06 10.7321L121.25 9.73594C120.751 10.1419 120.465 10.6864 120.404 11.3292L121.682 11.4508ZM122.078 10.717C122.308 10.5152 122.605 10.3997 123.015 10.3997V9.11627C122.337 9.11627 121.727 9.31808 121.232 9.75105L122.078 10.717ZM123.015 10.3997C123.579 10.3997 124.167 10.7004 124.775 11.5309L125.811 10.773C125.059 9.74495 124.129 9.11627 123.015 9.11627V10.3997ZM124.773 11.5279L130.179 19.0079L131.219 18.2561L125.813 10.7761L124.773 11.5279ZM131.219 19.0079L136.625 11.5279L135.585 10.7761L130.179 18.2561L131.219 19.0079ZM136.623 11.5309C137.226 10.7062 137.825 10.3997 138.417 10.3997V9.11627C137.286 9.11627 136.344 9.73911 135.587 10.773L136.623 11.5309ZM138.417 10.3997C138.869 10.3997 139.181 10.5149 139.406 10.6981L140.216 9.70194C139.716 9.29574 139.099 9.11627 138.417 9.11627V10.3997ZM139.406 10.6981C139.632 10.8815 139.755 11.1076 139.784 11.4168L141.062 11.2952C141.001 10.6524 140.715 10.1079 140.216 9.70194L139.406 10.6981ZM139.784 11.4199C139.808 11.6588 139.727 11.9895 139.397 12.4366L140.429 13.1994C140.869 12.6039 141.128 11.9599 141.062 11.2921L139.784 11.4199ZM139.399 12.4342L132.701 21.4102L133.729 22.1778L140.427 13.2018L139.399 12.4342ZM132.7 22.1773L139.738 31.6293L140.768 30.8627L133.73 21.4107L132.7 22.1773ZM139.743 31.6349C140.033 32.0162 140.117 32.3356 140.09 32.6132L141.368 32.7348C141.432 32.0604 141.198 31.4278 140.763 30.8571L139.743 31.6349ZM140.09 32.6101C140.062 32.8914 139.942 33.1301 139.694 33.347L140.54 34.313C141.017 33.8952 141.305 33.3632 141.368 32.7379L140.09 32.6101ZM139.712 33.3319C139.491 33.5116 139.17 33.6303 138.689 33.6303V34.9137C139.386 34.9137 140.017 34.7378 140.522 34.3281L139.712 33.3319ZM138.689 33.6303C138.157 33.6303 137.566 33.3287 136.927 32.4629L135.895 33.2251C136.661 34.2633 137.589 34.9137 138.689 34.9137V33.6303ZM136.929 32.4655L131.217 24.6455L130.181 25.4025L135.893 33.2225L136.929 32.4655ZM130.18 24.647L124.502 32.467L125.54 33.221L131.218 25.401L130.18 24.647ZM124.505 32.4629C123.87 33.3227 123.269 33.6303 122.709 33.6303V34.9137C123.827 34.9137 124.767 34.2693 125.537 33.2251L124.505 32.4629ZM178.957 13.124L178.516 13.5897L178.518 13.592L178.957 13.124ZM178.957 30.872L178.516 30.4064L178.513 30.4087L178.957 30.872ZM165.119 30.396H164.477V31.0377H165.119V30.396ZM165.119 13.634V12.9923H164.477V13.634H165.119ZM163.079 33.3583C162.407 33.3583 162.022 33.1908 161.799 32.9682C161.576 32.7457 161.409 32.3597 161.409 31.688H160.125C160.125 32.5576 160.343 33.3276 160.891 33.8758C161.44 34.4239 162.21 34.6417 163.079 34.6417V33.3583ZM161.409 31.688V12.342H160.125V31.688H161.409ZM161.409 12.342C161.409 11.6703 161.576 11.2843 161.799 11.0618C162.022 10.8392 162.407 10.6717 163.079 10.6717V9.38827C162.21 9.38827 161.44 9.6061 160.891 10.1542C160.343 10.7024 160.125 11.4724 160.125 12.342H161.409ZM163.079 10.6717H169.675V9.38827H163.079V10.6717ZM169.675 10.6717C173.58 10.6717 176.495 11.6739 178.516 13.5897L179.399 12.6583C177.068 10.4488 173.795 9.38827 169.675 9.38827V10.6717ZM178.518 13.592C180.554 15.5017 181.613 18.2697 181.613 21.998H182.897C182.897 18.0196 181.758 14.8716 179.396 12.656L178.518 13.592ZM181.613 21.998C181.613 25.7019 180.555 28.4724 178.516 30.4064L179.399 31.3376C181.757 29.1009 182.897 25.9554 182.897 21.998H181.613ZM178.513 30.4087C176.492 32.3457 173.578 33.3583 169.675 33.3583V34.6417C173.796 34.6417 177.071 33.5689 179.401 31.3353L178.513 30.4087ZM169.675 33.3583H163.079V34.6417H169.675V33.3583ZM165.119 31.0377H169.403V29.7543H165.119V31.0377ZM169.403 31.0377C172.269 31.0377 174.537 30.3117 176.082 28.7475C177.626 27.1848 178.341 24.8943 178.341 21.998H177.057C177.057 24.7004 176.39 26.6089 175.169 27.8455C173.949 29.0807 172.068 29.7543 169.403 29.7543V31.0377ZM178.341 21.998C178.341 19.1124 177.625 16.8301 176.081 15.2731C174.536 13.7151 172.269 12.9923 169.403 12.9923V14.2757C172.068 14.2757 173.95 14.9469 175.17 16.1769C176.391 17.4079 177.057 19.3076 177.057 21.998H178.341ZM169.403 12.9923H165.119V14.2757H169.403V12.9923ZM164.477 13.634V30.396H165.761V13.634H164.477ZM194.248 13.498V12.8563H193.606V13.498H194.248ZM194.248 20.094H193.606V20.7357H194.248V20.094ZM194.248 23.562V22.9203H193.606V23.562H194.248ZM194.248 30.532H193.606V31.1737H194.248V30.532ZM192.378 33.3583C191.706 33.3583 191.32 33.1908 191.097 32.9682C190.875 32.7457 190.707 32.3597 190.707 31.688H189.424C189.424 32.5576 189.642 33.3276 190.19 33.8758C190.738 34.4239 191.508 34.6417 192.378 34.6417V33.3583ZM190.707 31.688V12.342H189.424V31.688H190.707ZM190.707 12.342C190.707 11.6703 190.875 11.2843 191.097 11.0618C191.32 10.8392 191.706 10.6717 192.378 10.6717V9.38827C191.508 9.38827 190.738 9.6061 190.19 10.1542C189.642 10.7024 189.424 11.4724 189.424 12.342H190.707ZM192.378 10.6717H204.516V9.38827H192.378V10.6717ZM204.516 10.6717C205.012 10.6717 205.266 10.7915 205.397 10.9176C205.523 11.0392 205.642 11.2688 205.642 11.73H206.925C206.925 11.0579 206.749 10.4375 206.286 9.99242C205.828 9.55188 205.198 9.38827 204.516 9.38827V10.6717ZM205.642 11.73C205.642 12.2204 205.52 12.4704 205.388 12.6022C205.256 12.7341 205.006 12.8563 204.516 12.8563V14.1397C205.204 14.1397 205.838 13.9672 206.295 13.5098C206.753 13.0523 206.925 12.4183 206.925 11.73H205.642ZM204.516 12.8563H194.248V14.1397H204.516V12.8563ZM193.606 13.498V20.094H194.889V13.498H193.606ZM194.248 20.7357H203.768V19.4523H194.248V20.7357ZM203.768 20.7357C204.261 20.7357 204.513 20.8567 204.644 20.9857C204.773 21.1123 204.894 21.3521 204.894 21.828H206.177C206.177 21.1479 206.003 20.5207 205.543 20.0693C205.085 19.6203 204.453 19.4523 203.768 19.4523V20.7357ZM204.894 21.828C204.894 22.3039 204.773 22.5437 204.644 22.6703C204.513 22.7993 204.261 22.9203 203.768 22.9203V24.2037C204.453 24.2037 205.085 24.0357 205.543 23.5867C206.003 23.1353 206.177 22.5081 206.177 21.828H204.894ZM203.768 22.9203H194.248V24.2037H203.768V22.9203ZM193.606 23.562V30.532H194.889V23.562H193.606ZM194.248 31.1737H204.516V29.8903H194.248V31.1737ZM204.516 31.1737C205.009 31.1737 205.261 31.2947 205.392 31.4237C205.521 31.5503 205.642 31.7901 205.642 32.266H206.925C206.925 31.5859 206.751 30.9587 206.291 30.5073C205.833 30.0583 205.201 29.8903 204.516 29.8903V31.1737ZM205.642 32.266C205.642 32.7419 205.521 32.9817 205.392 33.1083C205.261 33.2373 205.009 33.3583 204.516 33.3583V34.6417C205.201 34.6417 205.833 34.4737 206.291 34.0247C206.751 33.5733 206.925 32.9461 206.925 32.266H205.642ZM204.516 33.3583H192.378V34.6417H204.516V33.3583ZM217.229 33.83L217.08 34.4543L217.082 34.4548L217.229 33.83ZM213.489 32.3L213.138 32.8375L213.143 32.8409L213.489 32.3ZM212.639 29.648L212.054 29.3847L212.05 29.3918L212.047 29.399L212.639 29.648ZM213.557 28.73L213.789 29.3281L213.798 29.3249L213.806 29.3214L213.557 28.73ZM215.019 28.968L214.679 29.5122L214.685 29.5164L214.692 29.5205L215.019 28.968ZM225.593 29.784L225.969 30.3043L225.978 30.2974L225.593 29.784ZM225.933 25.568L225.532 26.0692L225.541 26.0767L225.933 25.568ZM222.975 24.446L223.106 23.8179L223.106 23.8179L222.975 24.446ZM219.235 23.664L219.101 24.2917L219.103 24.2921L219.235 23.664ZM214.033 13.192L213.511 12.819L213.511 12.819L214.033 13.192ZM217.331 10.608L217.075 10.0196L217.075 10.0196L217.331 10.608ZM226.069 10.2L226.24 9.58168L226.24 9.58168L226.069 10.2ZM229.367 11.696L229.735 11.1702L229.726 11.164L229.367 11.696ZM230.183 12.886L229.552 13.0061L229.553 13.0119L230.183 12.886ZM230.013 14.178L230.58 14.4783L230.583 14.4717L230.587 14.465L230.013 14.178ZM229.027 14.994L229.22 15.6059L229.229 15.603L229.239 15.5997L229.027 14.994ZM227.497 14.688L227.817 14.1321L227.813 14.1299L227.497 14.688ZM224.947 13.668L224.799 14.2925L224.799 14.2925L224.947 13.668ZM218.487 14.348L218.87 14.863L218.87 14.863L218.487 14.348ZM217.977 18.904L217.543 19.3771L217.549 19.3821L217.554 19.387L217.977 18.904ZM220.765 20.026L220.897 19.3981L220.895 19.3976L220.765 20.026ZM224.471 20.808L224.604 20.1802L224.603 20.1801L224.471 20.808ZM229.469 23.052L229.03 23.5202L229.035 23.5247L229.469 23.052ZM229.979 30.906L229.455 30.5351L229.455 30.5351L229.979 30.906ZM226.681 33.456L226.929 34.0478L226.934 34.0458L226.681 33.456ZM221.683 33.6983C220.212 33.6983 218.777 33.5337 217.375 33.2052L217.082 34.4548C218.582 34.8063 220.116 34.9817 221.683 34.9817V33.6983ZM217.377 33.2057C216.008 32.8797 214.83 32.3948 213.834 31.7591L213.143 32.8409C214.278 33.5652 215.593 34.1003 217.08 34.4543L217.377 33.2057ZM213.839 31.7625C213.425 31.4926 213.231 31.202 213.163 30.8998L211.911 31.1842C212.069 31.8793 212.509 32.4274 213.138 32.8375L213.839 31.7625ZM213.163 30.8998C213.076 30.5189 213.106 30.1923 213.23 29.897L212.047 29.399C211.809 29.965 211.771 30.5677 211.911 31.1842L213.163 30.8998ZM213.224 29.9113C213.369 29.5889 213.56 29.4173 213.789 29.3281L213.324 28.1319C212.738 28.36 212.316 28.8004 212.054 29.3847L213.224 29.9113ZM213.806 29.3214C213.978 29.2491 214.24 29.2381 214.679 29.5122L215.359 28.4238C214.709 28.0179 213.997 27.8482 213.308 28.1386L213.806 29.3214ZM214.692 29.5205C215.743 30.1414 216.856 30.5962 218.028 30.8833L218.333 29.6367C217.285 29.3798 216.289 28.9733 215.345 28.4155L214.692 29.5205ZM218.028 30.8833C219.192 31.1684 220.411 31.3097 221.683 31.3097V30.0263C220.507 30.0263 219.391 29.8956 218.333 29.6367L218.028 30.8833ZM221.683 31.3097C223.516 31.3097 224.986 31.0134 225.968 30.3042L225.217 29.2638C224.567 29.7332 223.431 30.0263 221.683 30.0263V31.3097ZM225.978 30.2974C226.942 29.5743 227.458 28.6082 227.458 27.438H226.175C226.175 28.1718 225.876 28.7697 225.208 29.2706L225.978 30.2974ZM227.458 27.438C227.458 26.4609 227.083 25.6433 226.324 25.0593L225.541 26.0767C225.961 26.3994 226.175 26.8284 226.175 27.438H227.458ZM226.334 25.0669C225.644 24.5149 224.532 24.1168 223.106 23.8179L222.843 25.0741C224.228 25.3645 225.089 25.7145 225.532 26.0691L226.334 25.0669ZM223.106 23.8179L219.366 23.0359L219.103 24.2921L222.843 25.0741L223.106 23.8179ZM219.368 23.0363C217.311 22.5986 215.847 21.8674 214.9 20.8957C213.968 19.9384 213.484 18.6933 213.484 17.102H212.201C212.201 18.9787 212.783 20.5612 213.981 21.7913C215.165 23.0069 216.897 23.8227 219.101 24.2917L219.368 23.0363ZM213.484 17.102C213.484 15.7263 213.847 14.5563 214.555 13.565L213.511 12.819C212.632 14.049 212.201 15.4857 212.201 17.102H213.484ZM214.555 13.565C215.273 12.5601 216.275 11.7678 217.587 11.1964L217.075 10.0196C215.576 10.6722 214.379 11.6025 213.511 12.819L214.555 13.565ZM217.587 11.1964C218.897 10.6258 220.428 10.3317 222.193 10.3317V9.04827C220.286 9.04827 218.575 9.36619 217.075 10.0196L217.587 11.1964ZM222.193 10.3317C223.499 10.3317 224.733 10.4949 225.897 10.8183L226.24 9.58168C224.957 9.22509 223.607 9.04827 222.193 9.04827V10.3317ZM225.897 10.8183C227.06 11.1413 228.095 11.6123 229.008 12.228L229.726 11.164C228.689 10.465 227.526 9.93869 226.24 9.58168L225.897 10.8183ZM228.999 12.2217C229.336 12.4579 229.497 12.7179 229.552 13.0061L230.813 12.7659C230.687 12.1021 230.304 11.5687 229.735 11.1703L228.999 12.2217ZM229.553 13.0119C229.617 13.3273 229.578 13.6125 229.439 13.891L230.587 14.465C230.855 13.9275 230.93 13.3514 230.812 12.7601L229.553 13.0119ZM229.446 13.8777C229.325 14.1051 229.132 14.2772 228.815 14.3883L229.239 15.5997C229.828 15.3935 230.292 15.0215 230.58 14.4783L229.446 13.8777ZM228.833 14.3821C228.645 14.4414 228.33 14.4278 227.817 14.1321L227.176 15.2439C227.842 15.6282 228.547 15.8186 229.22 15.6059L228.833 14.3821ZM227.813 14.1299C226.927 13.6266 226.02 13.2627 225.095 13.0435L224.799 14.2925C225.596 14.4813 226.389 14.7974 227.18 15.2461L227.813 14.1299ZM225.095 13.0435C224.179 12.8267 223.2 12.7203 222.159 12.7203V14.0037C223.112 14.0037 223.992 14.1013 224.799 14.2925L225.095 13.0435ZM222.159 12.7203C220.513 12.7203 219.136 13.0652 218.104 13.833L218.87 14.863C219.605 14.3161 220.677 14.0037 222.159 14.0037V12.7203ZM218.104 13.833C217.063 14.6066 216.519 15.6558 216.519 16.932H217.802C217.802 16.0776 218.142 15.4041 218.87 14.863L218.104 13.833ZM216.519 16.932C216.519 17.9067 216.852 18.7432 217.543 19.3771L218.41 18.4309C218.014 18.0674 217.802 17.5893 217.802 16.932H216.519ZM217.554 19.387C218.226 19.9749 219.29 20.3762 220.635 20.6544L220.895 19.3976C219.61 19.1318 218.815 18.7851 218.399 18.421L217.554 19.387ZM220.632 20.6539L224.338 21.4359L224.603 20.1801L220.897 19.3981L220.632 20.6539ZM224.338 21.4358C226.524 21.8995 228.061 22.6123 229.03 23.5202L229.908 22.5838C228.7 21.4517 226.906 20.6685 224.604 20.1802L224.338 21.4358ZM229.035 23.5247C229.995 24.407 230.493 25.5864 230.493 27.132H231.776C231.776 25.2776 231.163 23.737 229.903 22.5793L229.035 23.5247ZM230.493 27.132C230.493 28.4371 230.143 29.5634 229.455 30.5351L230.502 31.2769C231.355 30.0726 231.776 28.6829 231.776 27.132H230.493ZM229.455 30.5351C228.763 31.5115 227.765 32.2929 226.428 32.8662L226.934 34.0458C228.452 33.3951 229.653 32.4765 230.502 31.2769L229.455 30.5351ZM226.433 32.8642C225.124 33.4131 223.546 33.6983 221.683 33.6983V34.9817C223.673 34.9817 225.427 34.6776 226.929 34.0478L226.433 32.8642ZM240.446 33.6303C239.825 33.6303 239.475 33.4712 239.275 33.2643C239.07 33.0536 238.912 32.6819 238.912 32.028H237.628C237.628 32.8701 237.832 33.6204 238.353 34.1577C238.878 34.6988 239.617 34.9137 240.446 34.9137V33.6303ZM238.912 32.028V12.002H237.628V32.028H238.912ZM238.912 12.002C238.912 11.3481 239.07 10.9764 239.275 10.7657C239.475 10.5588 239.825 10.3997 240.446 10.3997V9.11627C239.617 9.11627 238.878 9.33121 238.353 9.87226C237.832 10.4096 237.628 11.1599 237.628 12.002H238.912ZM240.446 10.3997C241.067 10.3997 241.417 10.5588 241.617 10.7657C241.822 10.9764 241.98 11.3481 241.98 12.002H243.264C243.264 11.1599 243.06 10.4096 242.539 9.87226C242.014 9.33121 241.275 9.11627 240.446 9.11627V10.3997ZM241.98 12.002V32.028H243.264V12.002H241.98ZM241.98 32.028C241.98 32.6819 241.822 33.0536 241.617 33.2643C241.417 33.4712 241.067 33.6303 240.446 33.6303V34.9137C241.275 34.9137 242.014 34.6988 242.539 34.1577C243.06 33.6204 243.264 32.8701 243.264 32.028H241.98ZM256.06 32.844L255.75 33.4063L255.753 33.4079L256.06 32.844ZM251.912 28.594L251.342 28.8894L251.342 28.8894L251.912 28.594ZM251.946 15.504L252.512 15.8049L252.514 15.802L251.946 15.504ZM256.162 11.22L256.468 11.7839L256.473 11.781L256.162 11.22ZM266.566 10.166L266.41 10.7887L266.423 10.7917L266.566 10.166ZM270.204 11.696L269.858 12.2365L269.867 12.2427L269.877 12.2485L270.204 11.696ZM271.054 12.886L270.418 12.9727L270.42 12.9895L270.423 13.0061L271.054 12.886ZM270.85 14.246L271.418 14.5449L271.418 14.5449L270.85 14.246ZM269.83 15.164L270.042 15.7697L270.055 15.7651L270.068 15.7598L269.83 15.164ZM268.334 14.926L268.657 14.3717L268.655 14.3706L268.334 14.926ZM265.716 13.838L265.875 13.2164L265.875 13.2164L265.716 13.838ZM256.978 15.708L256.499 15.2807L256.495 15.2849L256.978 15.708ZM257.046 28.424L256.574 28.859L256.574 28.859L257.046 28.424ZM265.274 30.43L265.367 31.0649L265.375 31.0638L265.382 31.0625L265.274 30.43ZM267.62 29.852L267.817 30.4626L268.261 30.3189V29.852H267.62ZM267.62 24.276H268.261V23.6343H267.62V24.276ZM270.034 33.082L269.816 32.4784L269.814 32.4789L270.034 33.082ZM266.6 34L266.711 34.6322L266.721 34.6301L266.6 34ZM262.792 33.6983C260.218 33.6983 258.086 33.2144 256.366 32.2801L255.753 33.4079C257.705 34.4683 260.061 34.9817 262.792 34.9817V33.6983ZM256.369 32.2817C254.667 31.3456 253.375 30.0217 252.481 28.2986L251.342 28.8894C252.352 30.8383 253.826 32.3478 255.75 33.4063L256.369 32.2817ZM252.481 28.2986C251.586 26.5716 251.125 24.5012 251.125 22.066H249.842C249.842 24.6628 250.333 26.9444 251.342 28.8894L252.481 28.2986ZM251.125 22.066C251.125 19.6093 251.597 17.5299 252.512 15.8049L251.379 15.2031C250.345 17.1501 249.842 19.4454 249.842 22.066H251.125ZM252.514 15.802C253.43 14.0555 254.744 12.7202 256.468 11.7839L255.855 10.6561C253.907 11.7144 252.411 13.2352 251.377 15.206L252.514 15.802ZM256.473 11.781C258.195 10.8244 260.282 10.3317 262.758 10.3317V9.04827C260.111 9.04827 257.8 9.57561 255.85 10.659L256.473 11.781ZM262.758 10.3317C263.973 10.3317 265.19 10.4836 266.41 10.7886L266.721 9.54343C265.403 9.21376 264.081 9.04827 262.758 9.04827V10.3317ZM266.423 10.7917C267.642 11.0696 268.786 11.5504 269.858 12.2365L270.55 11.1555C269.355 10.3909 268.074 9.85171 266.708 9.54033L266.423 10.7917ZM269.877 12.2485C270.236 12.4603 270.381 12.6993 270.418 12.9727L271.69 12.7993C271.591 12.0754 271.169 11.521 270.53 11.1435L269.877 12.2485ZM270.423 13.0061C270.487 13.3387 270.441 13.6444 270.282 13.9471L271.418 14.5449C271.712 13.9863 271.802 13.3853 271.684 12.7659L270.423 13.0061ZM270.282 13.9471C270.126 14.2423 269.904 14.4433 269.591 14.5682L270.068 15.7598C270.662 15.522 271.12 15.111 271.418 14.5449L270.282 13.9471ZM269.618 14.5583C269.393 14.6369 269.093 14.6258 268.657 14.3717L268.01 15.4803C268.663 15.8609 269.359 16.0085 270.042 15.7697L269.618 14.5583ZM268.655 14.3706C267.748 13.8452 266.821 13.4589 265.875 13.2164L265.556 14.4596C266.379 14.6705 267.197 15.0095 268.012 15.4814L268.655 14.3706ZM265.875 13.2164C264.93 12.9741 263.889 12.8563 262.758 12.8563V14.1397C263.802 14.1397 264.733 14.2486 265.556 14.4596L265.875 13.2164ZM262.758 12.8563C260.092 12.8563 257.968 13.6343 256.499 15.2807L257.456 16.1353C258.617 14.835 260.346 14.1397 262.758 14.1397V12.8563ZM256.495 15.2849C255.065 16.9156 254.398 19.2085 254.398 22.066H255.681C255.681 19.3928 256.306 17.4471 257.46 16.1311L256.495 15.2849ZM254.398 22.066C254.398 24.9487 255.089 27.2486 256.574 28.859L257.517 27.989C256.327 26.6981 255.681 24.7593 255.681 22.066H254.398ZM256.574 28.859C258.069 30.4812 260.249 31.2417 262.996 31.2417V29.9583C260.483 29.9583 258.697 29.2681 257.517 27.989L256.574 28.859ZM262.996 31.2417C263.776 31.2417 264.567 31.1826 265.367 31.0649L265.18 29.7951C264.439 29.9041 263.711 29.9583 262.996 29.9583V31.2417ZM265.382 31.0625C266.206 30.9213 267.018 30.7213 267.817 30.4626L267.422 29.2414C266.68 29.4814 265.928 29.6667 265.165 29.7975L265.382 31.0625ZM268.261 29.852V24.276H266.978V29.852H268.261ZM267.62 23.6343H263.88V24.9177H267.62V23.6343ZM263.88 23.6343C263.377 23.6343 263.12 23.5172 262.989 23.3965C262.868 23.2847 262.753 23.0753 262.753 22.644H261.47C261.47 23.3007 261.65 23.9073 262.118 24.3395C262.577 24.7628 263.204 24.9177 263.88 24.9177V23.6343ZM262.753 22.644C262.753 22.2279 262.865 22.0287 262.984 21.9216C263.115 21.8034 263.374 21.6877 263.88 21.6877V20.4043C263.207 20.4043 262.582 20.555 262.123 20.9694C261.652 21.395 261.47 21.9947 261.47 22.644H262.753ZM263.88 21.6877H269.49V20.4043H263.88V21.6877ZM269.49 21.6877C269.98 21.6877 270.23 21.8099 270.362 21.9418C270.494 22.0736 270.616 22.3236 270.616 22.814H271.899C271.899 22.1257 271.727 21.4917 271.269 21.0342C270.812 20.5768 270.178 20.4043 269.49 20.4043V21.6877ZM270.616 22.814V31.076H271.899V22.814H270.616ZM270.616 31.076C270.616 31.5174 270.529 31.8197 270.404 32.0252C270.284 32.2213 270.102 32.375 269.816 32.4784L270.252 33.6856C270.781 33.4943 271.211 33.1663 271.499 32.6938C271.782 32.2306 271.899 31.6773 271.899 31.076H270.616ZM269.814 32.4789C268.855 32.8276 267.744 33.1255 266.478 33.3699L266.721 34.6301C268.039 34.3758 269.217 34.0617 270.253 33.6851L269.814 32.4789ZM266.489 33.3679C265.231 33.5885 263.999 33.6983 262.792 33.6983V34.9817C264.077 34.9817 265.384 34.8648 266.711 34.6321L266.489 33.3679ZM280.211 10.336L279.743 9.89618L279.743 9.89709L280.211 10.336ZM282.761 10.064L282.354 10.5607L282.379 10.5805L282.405 10.598L282.761 10.064ZM283.713 11.016L284.221 10.6241L284.214 10.6151L283.713 11.016ZM295.851 26.758L295.343 27.1499L296.493 28.6412V26.758H295.851ZM299.421 33.728L298.938 33.3054L298.938 33.3054L299.421 33.728ZM296.871 33.966L296.506 34.4936L296.515 34.4999L296.524 34.5058L296.871 33.966ZM295.885 32.98L295.376 33.3714L295.384 33.3809L295.885 32.98ZM283.747 17.204L284.255 16.8127L283.105 15.3176V17.204H283.747ZM281.741 33.6303C281.165 33.6303 280.85 33.4827 280.672 33.2987C280.49 33.1108 280.343 32.7729 280.343 32.164H279.059C279.059 32.9604 279.252 33.6765 279.75 34.1913C280.252 34.7099 280.956 34.9137 281.741 34.9137V33.6303ZM280.343 32.164V11.934H279.059V32.164H280.343ZM280.343 11.934C280.343 11.3269 280.489 10.9771 280.679 10.7749L279.743 9.89709C279.252 10.4202 279.059 11.1358 279.059 11.934H280.343ZM280.678 10.7758C280.91 10.5292 281.201 10.3997 281.605 10.3997V9.11627C280.875 9.11627 280.237 9.37213 279.744 9.89618L280.678 10.7758ZM281.605 10.3997C282.063 10.3997 282.272 10.4931 282.354 10.5607L283.167 9.56732C282.751 9.22689 282.189 9.11627 281.605 9.11627V10.3997ZM282.405 10.598C282.595 10.7247 282.864 10.9817 283.212 11.4169L284.214 10.6151C283.837 10.1436 283.471 9.76592 283.117 9.53005L282.405 10.598ZM283.205 11.4079L295.343 27.1499L296.359 26.3661L284.221 10.6241L283.205 11.4079ZM296.493 26.758V11.832H295.209V26.758H296.493ZM296.493 11.832C296.493 11.2369 296.639 10.909 296.818 10.7265C296.996 10.5459 297.312 10.3997 297.891 10.3997V9.11627C297.109 9.11627 296.406 9.31573 295.903 9.82649C295.403 10.3353 295.209 11.0444 295.209 11.832H296.493ZM297.891 10.3997C298.455 10.3997 298.762 10.5444 298.934 10.7226C299.11 10.9049 299.255 11.2343 299.255 11.832H300.539C300.539 11.047 300.349 10.3394 299.857 9.83035C299.36 9.31729 298.664 9.11627 297.891 9.11627V10.3997ZM299.255 11.832V32.232H300.539V11.832H299.255ZM299.255 32.232C299.255 32.7614 299.124 33.0926 298.938 33.3054L299.904 34.1506C300.352 33.638 300.539 32.972 300.539 32.232H299.255ZM298.938 33.3054C298.759 33.51 298.514 33.6303 298.129 33.6303V34.9137C298.831 34.9137 299.448 34.6713 299.904 34.1506L298.938 33.3054ZM298.129 33.6303C297.685 33.6303 297.399 33.5428 297.218 33.4262L296.524 34.5058C296.977 34.7972 297.53 34.9137 298.129 34.9137V33.6303ZM297.236 33.4384C297.014 33.2848 296.731 33.01 296.386 32.5791L295.384 33.3809C295.764 33.8567 296.138 34.2392 296.506 34.4936L297.236 33.4384ZM296.393 32.5887L284.255 16.8127L283.238 17.5953L295.376 33.3713L296.393 32.5887ZM283.105 17.204V32.164H284.389V17.204H283.105ZM283.105 32.164C283.105 32.7755 282.959 33.1149 282.78 33.3026C282.607 33.4844 282.302 33.6303 281.741 33.6303V34.9137C282.517 34.9137 283.214 34.7083 283.71 34.1874C284.2 33.6724 284.389 32.9579 284.389 32.164H283.105Z" fill="#248A82"/>
<path d="M50.0636 33.8909C46.7769 33.8909 44.2609 33.0409 42.5156 31.3409C40.7929 29.6182 39.9316 27.0796 39.9316 23.7249V11.5189C39.9316 10.0456 40.6569 9.3089 42.1076 9.3089C43.5583 9.3089 44.2836 10.0456 44.2836 11.5189V23.6909C44.2836 25.8442 44.7709 27.4649 45.7456 28.5529C46.7429 29.6182 48.1823 30.1509 50.0636 30.1509C53.8943 30.1509 55.8096 27.9976 55.8096 23.6909V11.5189C55.8096 10.0456 56.5349 9.3089 57.9856 9.3089C59.4136 9.3089 60.1276 10.0456 60.1276 11.5189V23.7249C60.1276 27.0796 59.2776 29.6182 57.5776 31.3409C55.8776 33.0409 53.3729 33.8909 50.0636 33.8909ZM70.7792 33.8229C69.3285 33.8229 68.6032 33.0749 68.6032 31.5789V11.5529C68.6032 10.0569 69.3285 9.3089 70.7792 9.3089C72.2298 9.3089 72.9552 10.0569 72.9552 11.5529V31.5789C72.9552 33.0749 72.2298 33.8229 70.7792 33.8229ZM81.9729 34.5369C81.8142 35.0809 81.5195 35.4322 81.0889 35.5909C80.6809 35.7722 80.2615 35.7949 79.8309 35.6589C79.4229 35.5456 79.1055 35.3076 78.8789 34.9449C78.6295 34.5822 78.5955 34.1176 78.7769 33.5509L86.6309 9.1729C86.8122 8.6289 87.1069 8.26624 87.5149 8.0849C87.9229 7.90357 88.3309 7.8809 88.7389 8.0169C89.1695 8.13023 89.4982 8.37957 89.7249 8.7649C89.9742 9.12757 90.0082 9.5809 89.8269 10.1249L81.9729 34.5369ZM105.619 33.8909C102.332 33.8909 99.8164 33.0409 98.0711 31.3409C96.3484 29.6182 95.4871 27.0796 95.4871 23.7249V11.5189C95.4871 10.0456 96.2124 9.3089 97.6631 9.3089C99.1137 9.3089 99.8391 10.0456 99.8391 11.5189V23.6909C99.8391 25.8442 100.326 27.4649 101.301 28.5529C102.298 29.6182 103.738 30.1509 105.619 30.1509C109.45 30.1509 111.365 27.9976 111.365 23.6909V11.5189C111.365 10.0456 112.09 9.3089 113.541 9.3089C114.969 9.3089 115.683 10.0456 115.683 11.5189V23.7249C115.683 27.0796 114.833 29.6182 113.133 31.3409C111.433 33.0409 108.928 33.8909 105.619 33.8909ZM124.709 33.8229C124.142 33.8229 123.678 33.6756 123.315 33.3809C122.952 33.0636 122.737 32.6782 122.669 32.2249C122.624 31.7489 122.782 31.2729 123.145 30.7969L130.217 21.3449L123.519 12.3689C123.156 11.8702 122.998 11.3942 123.043 10.9409C123.088 10.4649 123.292 10.0796 123.655 9.7849C124.018 9.46757 124.471 9.3089 125.015 9.3089C125.854 9.3089 126.613 9.77357 127.293 10.7029L132.699 18.1829L138.105 10.7029C138.785 9.77357 139.556 9.3089 140.417 9.3089C140.984 9.3089 141.448 9.45623 141.811 9.7509C142.174 10.0456 142.378 10.4309 142.423 10.9069C142.468 11.3602 142.298 11.8476 141.913 12.3689L135.215 21.3449L142.253 30.7969C142.616 31.2729 142.774 31.7489 142.729 32.2249C142.684 32.6782 142.48 33.0636 142.117 33.3809C141.754 33.6756 141.278 33.8229 140.689 33.8229C139.873 33.8229 139.114 33.3469 138.411 32.3949L132.699 24.5749L127.021 32.3949C126.318 33.3469 125.548 33.8229 124.709 33.8229ZM165.079 33.5509C163.538 33.5509 162.767 32.7802 162.767 31.2389V11.8929C162.767 10.3516 163.538 9.5809 165.079 9.5809H171.675C175.687 9.5809 178.781 10.6122 180.957 12.6749C183.156 14.7376 184.255 17.6956 184.255 21.5489C184.255 25.3796 183.156 28.3376 180.957 30.4229C178.781 32.5082 175.687 33.5509 171.675 33.5509H165.079ZM167.119 29.9469H171.403C176.934 29.9469 179.699 27.1476 179.699 21.5489C179.699 15.9729 176.934 13.1849 171.403 13.1849H167.119V29.9469ZM194.378 33.5509C192.836 33.5509 192.066 32.7802 192.066 31.2389V11.8929C192.066 10.3516 192.836 9.5809 194.378 9.5809H206.516C207.694 9.5809 208.284 10.1476 208.284 11.2809C208.284 12.4596 207.694 13.0489 206.516 13.0489H196.248V19.6449H205.768C206.946 19.6449 207.536 20.2229 207.536 21.3789C207.536 22.5349 206.946 23.1129 205.768 23.1129H196.248V30.0829H206.516C207.694 30.0829 208.284 30.6609 208.284 31.8169C208.284 32.9729 207.694 33.5509 206.516 33.5509H194.378ZM223.683 33.8909C222.164 33.8909 220.679 33.7209 219.229 33.3809C217.801 33.0409 216.554 32.5309 215.489 31.8509C214.967 31.5109 214.65 31.0916 214.537 30.5929C214.423 30.0942 214.457 29.6296 214.639 29.1989C214.843 28.7456 215.149 28.4396 215.557 28.2809C215.987 28.0996 216.475 28.1789 217.019 28.5189C218.016 29.1082 219.07 29.5389 220.181 29.8109C221.291 30.0829 222.459 30.2189 223.683 30.2189C225.473 30.2189 226.777 29.9242 227.593 29.3349C228.409 28.7229 228.817 27.9409 228.817 26.9889C228.817 26.1956 228.522 25.5722 227.933 25.1189C227.366 24.6656 226.38 24.2916 224.975 23.9969L221.235 23.2149C216.973 22.3082 214.843 20.1209 214.843 16.6529C214.843 15.1569 215.239 13.8536 216.033 12.7429C216.826 11.6322 217.925 10.7709 219.331 10.1589C220.736 9.5469 222.357 9.2409 224.193 9.2409C225.553 9.2409 226.845 9.4109 228.069 9.7509C229.293 10.0909 230.392 10.5896 231.367 11.2469C231.82 11.5642 232.092 11.9609 232.183 12.4369C232.273 12.8902 232.217 13.3209 232.013 13.7289C231.809 14.1142 231.48 14.3862 231.027 14.5449C230.596 14.6809 230.086 14.5789 229.497 14.2389C228.658 13.7629 227.808 13.4229 226.947 13.2189C226.085 13.0149 225.156 12.9129 224.159 12.9129C222.595 12.9129 221.371 13.2416 220.487 13.8989C219.603 14.5562 219.161 15.4176 219.161 16.4829C219.161 17.2989 219.433 17.9562 219.977 18.4549C220.521 18.9309 221.45 19.3049 222.765 19.5769L226.471 20.3589C228.715 20.8349 230.381 21.5829 231.469 22.6029C232.579 23.6229 233.135 24.9829 233.135 26.6829C233.135 28.1109 232.749 29.3689 231.979 30.4569C231.208 31.5449 230.109 32.3949 228.681 33.0069C227.275 33.5962 225.609 33.8909 223.683 33.8909ZM242.446 33.8229C240.995 33.8229 240.27 33.0749 240.27 31.5789V11.5529C240.27 10.0569 240.995 9.3089 242.446 9.3089C243.897 9.3089 244.622 10.0569 244.622 11.5529V31.5789C244.622 33.0749 243.897 33.8229 242.446 33.8229ZM264.792 33.8909C262.14 33.8909 259.896 33.3922 258.06 32.3949C256.246 31.3976 254.864 29.9809 253.912 28.1449C252.96 26.3089 252.484 24.1329 252.484 21.6169C252.484 19.0782 252.971 16.8909 253.946 15.0549C254.92 13.1962 256.326 11.7682 258.162 10.7709C259.998 9.7509 262.196 9.2409 264.758 9.2409C266.027 9.2409 267.296 9.39957 268.566 9.7169C269.858 10.0116 271.07 10.5216 272.204 11.2469C272.702 11.5416 272.986 11.9382 273.054 12.4369C273.144 12.9129 273.076 13.3662 272.85 13.7969C272.623 14.2276 272.283 14.5336 271.83 14.7149C271.376 14.8736 270.878 14.7942 270.334 14.4769C269.472 13.9782 268.6 13.6156 267.716 13.3889C266.832 13.1622 265.846 13.0489 264.758 13.0489C262.219 13.0489 260.292 13.7856 258.978 15.2589C257.686 16.7322 257.04 18.8516 257.04 21.6169C257.04 24.4049 257.708 26.5242 259.046 27.9749C260.383 29.4256 262.366 30.1509 264.996 30.1509C265.744 30.1509 266.503 30.0942 267.274 29.9809C268.067 29.8449 268.849 29.6522 269.62 29.4029V23.8269H265.88C264.701 23.8269 264.112 23.2829 264.112 22.1949C264.112 21.1296 264.701 20.5969 265.88 20.5969H271.49C272.668 20.5969 273.258 21.1862 273.258 22.3649V30.6269C273.258 31.6696 272.85 32.3382 272.034 32.6329C271.036 32.9956 269.892 33.3016 268.6 33.5509C267.308 33.7776 266.038 33.8909 264.792 33.8909ZM283.741 33.8229C282.381 33.8229 281.701 33.1202 281.701 31.7149V11.4849C281.701 10.7822 281.871 10.2496 282.211 9.8869C282.573 9.50157 283.038 9.3089 283.605 9.3089C284.126 9.3089 284.511 9.4109 284.761 9.6149C285.033 9.79624 285.35 10.1136 285.713 10.5669L297.851 26.3089V11.3829C297.851 10.0002 298.531 9.3089 299.891 9.3089C301.228 9.3089 301.897 10.0002 301.897 11.3829V31.7829C301.897 32.4176 301.738 32.9162 301.421 33.2789C301.103 33.6416 300.673 33.8229 300.129 33.8229C299.607 33.8229 299.188 33.7209 298.871 33.5169C298.576 33.3129 298.247 32.9842 297.885 32.5309L285.747 16.7549V31.7149C285.747 33.1202 285.078 33.8229 283.741 33.8229Z" fill="#0EB29F"/>
<path d="M42.5156 31.3409L42.2131 31.6434L42.2171 31.6474L42.5156 31.3409ZM45.7456 28.5529L45.4269 28.8384L45.4333 28.8453L45.7456 28.5529ZM57.5776 31.3409L57.8801 31.6434L57.8821 31.6414L57.5776 31.3409ZM50.0636 33.4631C46.8486 33.4631 44.4549 32.6326 42.8141 31.0344L42.2171 31.6474C44.0669 33.4492 46.7053 34.3187 50.0636 34.3187V33.4631ZM42.8181 31.0384C41.202 29.4223 40.3594 27.0098 40.3594 23.7249H39.5038C39.5038 27.1494 40.3838 29.8142 42.2131 31.6434L42.8181 31.0384ZM40.3594 23.7249V11.5189H39.5038V23.7249H40.3594ZM40.3594 11.5189C40.3594 10.8465 40.5249 10.4212 40.7804 10.1616C41.0348 9.9032 41.4499 9.73672 42.1076 9.73672V8.88108C41.3146 8.88108 40.6417 9.08294 40.1707 9.56124C39.701 10.0383 39.5038 10.7179 39.5038 11.5189H40.3594ZM42.1076 9.73672C42.7653 9.73672 43.1804 9.9032 43.4347 10.1616C43.6903 10.4212 43.8558 10.8465 43.8558 11.5189H44.7114C44.7114 10.7179 44.5142 10.0383 44.0444 9.56124C43.5735 9.08294 42.9006 8.88108 42.1076 8.88108V9.73672ZM43.8558 11.5189V23.6909H44.7114V11.5189H43.8558ZM43.8558 23.6909C43.8558 25.9007 44.355 27.6418 45.4269 28.8384L46.0643 28.2674C45.1868 27.288 44.7114 25.7878 44.7114 23.6909H43.8558ZM45.4333 28.8453C46.5333 30.0203 48.1001 30.5787 50.0636 30.5787V29.7231C48.2645 29.7231 46.9526 29.2162 46.0579 28.2605L45.4333 28.8453ZM50.0636 30.5787C52.0587 30.5787 53.6295 30.0157 54.6928 28.8202C55.7476 27.6344 56.2374 25.8986 56.2374 23.6909H55.3818C55.3818 25.7898 54.914 27.2841 54.0534 28.2516C53.2014 29.2095 51.8992 29.7231 50.0636 29.7231V30.5787ZM56.2374 23.6909V11.5189H55.3818V23.6909H56.2374ZM56.2374 11.5189C56.2374 10.8465 56.4029 10.4212 56.6584 10.1616C56.9128 9.9032 57.3279 9.73672 57.9856 9.73672V8.88108C57.1926 8.88108 56.5197 9.08294 56.0487 9.56124C55.579 10.0383 55.3818 10.7179 55.3818 11.5189H56.2374ZM57.9856 9.73672C58.6302 9.73672 59.0359 9.90223 59.2849 10.1592C59.5363 10.4186 59.6998 10.8449 59.6998 11.5189H60.5554C60.5554 10.7196 60.3619 10.0409 59.8993 9.56365C59.4343 9.08391 58.769 8.88108 57.9856 8.88108V9.73672ZM59.6998 11.5189V23.7249H60.5554V11.5189H59.6998ZM59.6998 23.7249C59.6998 27.0112 58.8677 29.4245 57.2731 31.0404L57.8821 31.6414C59.6875 29.812 60.5554 27.1479 60.5554 23.7249H59.6998ZM57.2751 31.0384C55.6816 32.6318 53.3031 33.4631 50.0636 33.4631V34.3187C53.4428 34.3187 56.0736 33.45 57.8801 31.6434L57.2751 31.0384ZM70.7792 33.3951C70.1232 33.3951 69.709 33.2267 69.4543 32.9641C69.1972 32.699 69.031 32.2642 69.031 31.5789H68.1753C68.1753 32.3896 68.3717 33.0768 68.84 33.5597C69.3107 34.0451 69.9845 34.2507 70.7792 34.2507V33.3951ZM69.031 31.5789V11.5529H68.1753V31.5789H69.031ZM69.031 11.5529C69.031 10.8676 69.1972 10.4328 69.4543 10.1677C69.709 9.90509 70.1232 9.73672 70.7792 9.73672V8.88108C69.9845 8.88108 69.3107 9.08671 68.84 9.57208C68.3717 10.055 68.1753 10.7422 68.1753 11.5529H69.031ZM70.7792 9.73672C71.4351 9.73672 71.8493 9.90509 72.104 10.1677C72.3611 10.4328 72.5273 10.8676 72.5273 11.5529H73.383C73.383 10.7422 73.1866 10.055 72.7183 9.57208C72.2476 9.08671 71.5738 8.88108 70.7792 8.88108V9.73672ZM72.5273 11.5529V31.5789H73.383V11.5529H72.5273ZM72.5273 31.5789C72.5273 32.2642 72.3611 32.699 72.104 32.9641C71.8493 33.2267 71.4351 33.3951 70.7792 33.3951V34.2507C71.5738 34.2507 72.2476 34.0451 72.7183 33.5597C73.1866 33.0768 73.383 32.3896 73.383 31.5789H72.5273ZM81.9729 34.5369L81.5654 34.4058L81.5622 34.4171L81.9729 34.5369ZM81.0889 35.5909L80.941 35.1895L80.9279 35.1943L80.9151 35.2L81.0889 35.5909ZM79.8309 35.6589L79.9597 35.2509L79.9526 35.2487L79.9454 35.2467L79.8309 35.6589ZM78.8789 34.9449L79.2417 34.7182L79.2367 34.7102L79.2314 34.7025L78.8789 34.9449ZM78.7769 33.5509L78.3697 33.4197L78.3694 33.4205L78.7769 33.5509ZM86.6309 9.1729L86.225 9.03761L86.2237 9.04171L86.6309 9.1729ZM87.5149 8.0849L87.6886 8.47585L87.6886 8.47585L87.5149 8.0849ZM88.7389 8.0169L88.6036 8.42277L88.6167 8.42713L88.63 8.43064L88.7389 8.0169ZM89.7249 8.7649L89.3561 8.98182L89.3638 8.99483L89.3723 9.00728L89.7249 8.7649ZM89.8269 10.1249L89.421 9.98961L89.4196 9.99388L89.8269 10.1249ZM81.5622 34.4171C81.4315 34.865 81.2143 35.0888 80.941 35.1895L81.2368 35.9923C81.8248 35.7757 82.1969 35.2968 82.3836 34.6567L81.5622 34.4171ZM80.9151 35.2C80.6037 35.3383 80.2921 35.3559 79.9597 35.2509L79.702 36.0669C80.231 36.2339 80.758 36.2061 81.2626 35.9819L80.9151 35.2ZM79.9454 35.2467C79.6415 35.1623 79.4123 34.9911 79.2417 34.7182L78.5161 35.1716C78.7988 35.624 79.2042 35.9288 79.7164 36.0711L79.9454 35.2467ZM79.2314 34.7025C79.0814 34.4844 79.0281 34.1695 79.1843 33.6813L78.3694 33.4205C78.163 34.0656 78.1776 34.6801 78.5263 35.1873L79.2314 34.7025ZM79.1841 33.6821L87.0381 9.3041L86.2237 9.04171L78.3697 33.4197L79.1841 33.6821ZM87.0367 9.30819C87.1915 8.8438 87.4198 8.59534 87.6886 8.47585L87.3411 7.69395C86.794 7.93713 86.4329 8.41401 86.225 9.03761L87.0367 9.30819ZM87.6886 8.47585C88.0032 8.33605 88.301 8.32192 88.6036 8.42277L88.8742 7.61103C88.3607 7.43989 87.8426 7.47109 87.3411 7.69395L87.6886 8.47585ZM88.63 8.43064C88.951 8.51511 89.1864 8.69339 89.3561 8.98182L90.0936 8.54799C89.8099 8.06575 89.3881 7.74536 88.8477 7.60317L88.63 8.43064ZM89.3723 9.00728C89.5236 9.22731 89.5739 9.53079 89.421 9.98961L90.2327 10.2602C90.4425 9.63102 90.4248 9.02782 90.0774 8.52253L89.3723 9.00728ZM89.4196 9.99388L81.5656 34.4059L82.3801 34.6679L90.2341 10.2559L89.4196 9.99388ZM98.0711 31.3409L97.7685 31.6434L97.7726 31.6474L98.0711 31.3409ZM101.301 28.5529L100.982 28.8384L100.989 28.8453L101.301 28.5529ZM113.133 31.3409L113.436 31.6434L113.438 31.6414L113.133 31.3409ZM105.619 33.4631C102.404 33.4631 100.01 32.6326 98.3696 31.0344L97.7726 31.6474C99.6224 33.4492 102.261 34.3187 105.619 34.3187V33.4631ZM98.3736 31.0384C96.7575 29.4223 95.9149 27.0098 95.9149 23.7249H95.0592C95.0592 27.1494 95.9393 29.8142 97.7686 31.6434L98.3736 31.0384ZM95.9149 23.7249V11.5189H95.0592V23.7249H95.9149ZM95.9149 11.5189C95.9149 10.8465 96.0803 10.4212 96.3359 10.1616C96.5903 9.9032 97.0054 9.73672 97.6631 9.73672V8.88108C96.8701 8.88108 96.1972 9.08294 95.7262 9.56124C95.2565 10.0383 95.0592 10.7179 95.0592 11.5189H95.9149ZM97.6631 9.73672C98.3208 9.73672 98.7358 9.9032 98.9902 10.1616C99.2458 10.4212 99.4112 10.8465 99.4112 11.5189H100.267C100.267 10.7179 100.07 10.0383 99.5999 9.56124C99.129 9.08294 98.456 8.88108 97.6631 8.88108V9.73672ZM99.4112 11.5189V23.6909H100.267V11.5189H99.4112ZM99.4112 23.6909C99.4112 25.9007 99.9105 27.6418 100.982 28.8384L101.62 28.2674C100.742 27.288 100.267 25.7878 100.267 23.6909H99.4112ZM100.989 28.8453C102.089 30.0203 103.656 30.5787 105.619 30.5787V29.7231C103.82 29.7231 102.508 29.2162 101.613 28.2605L100.989 28.8453ZM105.619 30.5787C107.614 30.5787 109.185 30.0157 110.248 28.8202C111.303 27.6344 111.793 25.8986 111.793 23.6909H110.937C110.937 25.7898 110.469 27.2841 109.609 28.2516C108.757 29.2095 107.455 29.7231 105.619 29.7231V30.5787ZM111.793 23.6909V11.5189H110.937V23.6909H111.793ZM111.793 11.5189C111.793 10.8465 111.958 10.4212 112.214 10.1616C112.468 9.9032 112.883 9.73672 113.541 9.73672V8.88108C112.748 8.88108 112.075 9.08294 111.604 9.56124C111.134 10.0383 110.937 10.7179 110.937 11.5189H111.793ZM113.541 9.73672C114.186 9.73672 114.591 9.90223 114.84 10.1592C115.092 10.4186 115.255 10.8449 115.255 11.5189H116.111C116.111 10.7196 115.917 10.0409 115.455 9.56365C114.99 9.08391 114.324 8.88108 113.541 8.88108V9.73672ZM115.255 11.5189V23.7249H116.111V11.5189H115.255ZM115.255 23.7249C115.255 27.0112 114.423 29.4245 112.829 31.0404L113.438 31.6414C115.243 29.812 116.111 27.1479 116.111 23.7249H115.255ZM112.831 31.0384C111.237 32.6318 108.859 33.4631 105.619 33.4631V34.3187C108.998 34.3187 111.629 33.45 113.436 31.6434L112.831 31.0384ZM123.315 33.3809L123.033 33.7029L123.039 33.708L123.045 33.7129L123.315 33.3809ZM122.669 32.2249L122.243 32.2655L122.244 32.277L122.246 32.2884L122.669 32.2249ZM123.145 30.7969L123.485 31.0562L123.488 31.0532L123.145 30.7969ZM130.217 21.3449L130.56 21.6012L130.751 21.3452L130.56 21.089L130.217 21.3449ZM123.519 12.3689L123.173 12.6206L123.176 12.6248L123.519 12.3689ZM123.043 10.9409L123.469 10.9835L123.469 10.9815L123.043 10.9409ZM123.655 9.7849L123.925 10.1169L123.931 10.112L123.937 10.1069L123.655 9.7849ZM127.293 10.7029L127.64 10.4523L127.638 10.4503L127.293 10.7029ZM132.699 18.1829L132.352 18.4335L132.699 18.9133L133.046 18.4335L132.699 18.1829ZM138.105 10.7029L137.76 10.4503L137.758 10.4523L138.105 10.7029ZM141.811 9.7509L142.081 9.41886L142.081 9.41886L141.811 9.7509ZM142.423 10.9069L141.997 10.9475L141.997 10.9495L142.423 10.9069ZM141.913 12.3689L142.256 12.6248L142.257 12.6232L141.913 12.3689ZM135.215 21.3449L134.872 21.089L134.681 21.3446L134.872 21.6004L135.215 21.3449ZM142.253 30.7969L141.91 31.0524L141.913 31.0562L142.253 30.7969ZM142.729 32.2249L143.155 32.2675L143.155 32.2655L142.729 32.2249ZM142.117 33.3809L142.387 33.7129L142.393 33.708L142.399 33.7029L142.117 33.3809ZM138.411 32.3949L138.066 32.6473L138.067 32.649L138.411 32.3949ZM132.699 24.5749L133.044 24.3226L132.698 23.8482L132.353 24.3235L132.699 24.5749ZM127.021 32.3949L127.365 32.649L127.367 32.6463L127.021 32.3949ZM124.709 33.3951C124.219 33.3951 123.856 33.2692 123.585 33.0489L123.045 33.7129C123.499 34.082 124.066 34.2507 124.709 34.2507V33.3951ZM123.597 33.0589C123.306 32.8046 123.144 32.5091 123.092 32.1614L122.246 32.2884C122.33 32.8473 122.599 33.3225 123.033 33.7029L123.597 33.0589ZM123.095 32.1843C123.062 31.8406 123.171 31.469 123.485 31.0562L122.805 30.5376C122.394 31.0768 122.185 31.6572 122.243 32.2655L123.095 32.1843ZM123.488 31.0532L130.56 21.6012L129.874 21.0886L122.802 30.5406L123.488 31.0532ZM130.56 21.089L123.862 12.113L123.176 12.6248L129.874 21.6008L130.56 21.089ZM123.865 12.1173C123.542 11.6732 123.437 11.3002 123.469 10.9835L122.617 10.8983C122.558 11.4883 122.771 12.0672 123.173 12.6205L123.865 12.1173ZM123.469 10.9815C123.504 10.6166 123.653 10.3374 123.925 10.1169L123.385 9.45286C122.931 9.82171 122.673 10.3132 122.617 10.9003L123.469 10.9815ZM123.937 10.1069C124.211 9.86662 124.56 9.73672 125.015 9.73672V8.88108C124.382 8.88108 123.824 9.06851 123.373 9.46293L123.937 10.1069ZM125.015 9.73672C125.67 9.73672 126.316 10.092 126.948 10.9555L127.638 10.4503C126.91 9.45509 126.037 8.88108 125.015 8.88108V9.73672ZM126.946 10.9535L132.352 18.4335L133.046 17.9323L127.64 10.4523L126.946 10.9535ZM133.046 18.4335L138.452 10.9535L137.758 10.4523L132.352 17.9323L133.046 18.4335ZM138.45 10.9555C139.079 10.0959 139.735 9.73672 140.417 9.73672V8.88108C139.376 8.88108 138.491 9.4512 137.76 10.4503L138.45 10.9555ZM140.417 9.73672C140.907 9.73672 141.27 9.86263 141.541 10.0829L142.081 9.41886C141.627 9.04984 141.06 8.88108 140.417 8.88108V9.73672ZM141.541 10.0829C141.813 10.3034 141.962 10.5826 141.997 10.9475L142.849 10.8663C142.793 10.2792 142.535 9.78771 142.081 9.41886L141.541 10.0829ZM141.997 10.9495C142.028 11.2598 141.918 11.6428 141.569 12.1146L142.257 12.6232C142.679 12.0524 142.908 11.4606 142.849 10.8643L141.997 10.9495ZM141.57 12.113L134.872 21.089L135.558 21.6008L142.256 12.6248L141.57 12.113ZM134.872 21.6004L141.91 31.0524L142.596 30.5414L135.558 21.0894L134.872 21.6004ZM141.913 31.0562C142.227 31.469 142.336 31.8406 142.303 32.1843L143.155 32.2655C143.213 31.6572 143.004 31.0768 142.593 30.5376L141.913 31.0562ZM142.303 32.1823C142.269 32.521 142.121 32.8086 141.835 33.0589L142.399 33.7029C142.838 33.3186 143.098 32.8355 143.155 32.2675L142.303 32.1823ZM141.847 33.0489C141.579 33.2668 141.206 33.3951 140.689 33.3951V34.2507C141.35 34.2507 141.93 34.0843 142.387 33.7129L141.847 33.0489ZM140.689 33.3951C140.062 33.3951 139.415 33.0354 138.755 32.1408L138.067 32.649C138.812 33.6584 139.684 34.2507 140.689 34.2507V33.3951ZM138.756 32.1426L133.044 24.3226L132.354 24.8272L138.066 32.6472L138.756 32.1426ZM132.353 24.3235L126.675 32.1435L127.367 32.6463L133.045 24.8263L132.353 24.3235ZM126.677 32.1408C126.019 33.0314 125.362 33.3951 124.709 33.3951V34.2507C125.734 34.2507 126.617 33.6624 127.365 32.649L126.677 32.1408ZM180.957 12.6749L180.663 12.9854L180.665 12.9869L180.957 12.6749ZM180.957 30.4229L180.663 30.1125L180.661 30.114L180.957 30.4229ZM167.119 29.9469H166.691V30.3747H167.119V29.9469ZM167.119 13.1849V12.7571H166.691V13.1849H167.119ZM165.079 33.1231C164.375 33.1231 163.925 32.9472 163.648 32.6704C163.371 32.3936 163.195 31.9436 163.195 31.2389H162.339C162.339 32.0755 162.549 32.7816 163.043 33.2754C163.537 33.7693 164.243 33.9787 165.079 33.9787V33.1231ZM163.195 31.2389V11.8929H162.339V31.2389H163.195ZM163.195 11.8929C163.195 11.1882 163.371 10.7382 163.648 10.4614C163.925 10.1846 164.375 10.0087 165.079 10.0087V9.15308C164.243 9.15308 163.537 9.36252 163.043 9.85639C162.549 10.3502 162.339 11.0563 162.339 11.8929H163.195ZM165.079 10.0087H171.675V9.15308H165.079V10.0087ZM171.675 10.0087C175.616 10.0087 178.59 11.0206 180.663 12.9854L181.252 12.3644C178.972 10.2038 175.759 9.15308 171.675 9.15308V10.0087ZM180.665 12.9869C182.754 14.9476 183.827 17.779 183.827 21.5489H184.683C184.683 17.6122 183.557 14.5275 181.25 12.3629L180.665 12.9869ZM183.827 21.5489C183.827 25.2951 182.755 28.1281 180.663 30.1125L181.252 30.7333C183.557 28.547 184.683 25.4641 184.683 21.5489H183.827ZM180.661 30.114C178.588 32.1005 175.614 33.1231 171.675 33.1231V33.9787C175.76 33.9787 178.974 32.916 181.253 30.7318L180.661 30.114ZM171.675 33.1231H165.079V33.9787H171.675V33.1231ZM167.119 30.3747H171.403V29.5191H167.119V30.3747ZM171.403 30.3747C174.236 30.3747 176.439 29.6574 177.93 28.1481C179.42 26.6397 180.127 24.4129 180.127 21.5489H179.271C179.271 24.2836 178.596 26.2558 177.321 27.5467C176.047 28.8367 174.101 29.5191 171.403 29.5191V30.3747ZM180.127 21.5489C180.127 18.6958 179.419 16.4773 177.929 14.9746C176.438 13.4713 174.235 12.7571 171.403 12.7571V13.6127C174.102 13.6127 176.047 14.2925 177.321 15.5772C178.596 16.8625 179.271 18.826 179.271 21.5489H180.127ZM171.403 12.7571H167.119V13.6127H171.403V12.7571ZM166.691 13.1849V29.9469H167.547V13.1849H166.691ZM196.248 13.0489V12.6211H195.82V13.0489H196.248ZM196.248 19.6449H195.82V20.0727H196.248V19.6449ZM196.248 23.1129V22.6851H195.82V23.1129H196.248ZM196.248 30.0829H195.82V30.5107H196.248V30.0829ZM194.378 33.1231C193.673 33.1231 193.223 32.9472 192.946 32.6704C192.669 32.3936 192.493 31.9436 192.493 31.2389H191.638C191.638 32.0755 191.847 32.7816 192.341 33.2754C192.835 33.7693 193.541 33.9787 194.378 33.9787V33.1231ZM192.493 31.2389V11.8929H191.638V31.2389H192.493ZM192.493 11.8929C192.493 11.1882 192.669 10.7382 192.946 10.4614C193.223 10.1846 193.673 10.0087 194.378 10.0087V9.15308C193.541 9.15308 192.835 9.36252 192.341 9.85639C191.847 10.3502 191.638 11.0563 191.638 11.8929H192.493ZM194.378 10.0087H206.516V9.15308H194.378V10.0087ZM206.516 10.0087C207.043 10.0087 207.359 10.1358 207.545 10.3143C207.728 10.4898 207.856 10.7845 207.856 11.2809H208.711C208.711 10.6439 208.545 10.0887 208.138 9.69751C207.735 9.30938 207.167 9.15308 206.516 9.15308V10.0087ZM207.856 11.2809C207.856 11.8043 207.725 12.1182 207.539 12.3044C207.353 12.4905 207.039 12.6211 206.516 12.6211V13.4767C207.171 13.4767 207.741 13.3126 208.144 12.9094C208.547 12.5062 208.711 11.9362 208.711 11.2809H207.856ZM206.516 12.6211H196.248V13.4767H206.516V12.6211ZM195.82 13.0489V19.6449H196.675V13.0489H195.82ZM196.248 20.0727H205.768V19.2171H196.248V20.0727ZM205.768 20.0727C206.293 20.0727 206.608 20.2015 206.794 20.3838C206.978 20.5646 207.108 20.869 207.108 21.3789H207.963C207.963 20.7328 207.798 20.1702 207.393 19.773C206.99 19.3773 206.421 19.2171 205.768 19.2171V20.0727ZM207.108 21.3789C207.108 21.8888 206.978 22.1932 206.794 22.374C206.608 22.5563 206.293 22.6851 205.768 22.6851V23.5407C206.421 23.5407 206.99 23.3805 207.393 22.9848C207.798 22.5876 207.963 22.025 207.963 21.3789H207.108ZM205.768 22.6851H196.248V23.5407H205.768V22.6851ZM195.82 23.1129V30.0829H196.675V23.1129H195.82ZM196.248 30.5107H206.516V29.6551H196.248V30.5107ZM206.516 30.5107C207.041 30.5107 207.356 30.6395 207.542 30.8218C207.726 31.0026 207.856 31.307 207.856 31.8169H208.711C208.711 31.1708 208.546 30.6082 208.141 30.211C207.738 29.8153 207.169 29.6551 206.516 29.6551V30.5107ZM207.856 31.8169C207.856 32.3268 207.726 32.6312 207.542 32.812C207.356 32.9943 207.041 33.1231 206.516 33.1231V33.9787C207.169 33.9787 207.738 33.8185 208.141 33.4228C208.546 33.0256 208.711 32.463 208.711 31.8169H207.856ZM206.516 33.1231H194.378V33.9787H206.516V33.1231ZM219.229 33.3809L219.13 33.7971L219.131 33.7974L219.229 33.3809ZM215.489 31.8509L215.255 32.2093L215.259 32.2115L215.489 31.8509ZM214.639 29.1989L214.248 29.0233L214.244 29.0329L214.639 29.1989ZM215.557 28.2809L215.712 28.6798L215.723 28.6752L215.557 28.2809ZM217.019 28.5189L216.792 28.8818L216.801 28.8872L217.019 28.5189ZM227.593 29.3349L227.843 29.6818L227.849 29.6772L227.593 29.3349ZM227.933 25.1189L227.665 25.453L227.672 25.458L227.933 25.1189ZM224.975 23.9969L225.063 23.5782L225.062 23.5781L224.975 23.9969ZM221.235 23.2149L221.146 23.6334L221.147 23.6337L221.235 23.2149ZM216.033 12.7429L215.685 12.4942L215.685 12.4942L216.033 12.7429ZM219.331 10.1589L219.16 9.76666L219.16 9.76666L219.331 10.1589ZM228.069 9.7509L228.183 9.33869L228.183 9.33869L228.069 9.7509ZM231.367 11.2469L231.612 10.8964L231.606 10.8922L231.367 11.2469ZM232.183 12.4369L231.762 12.517L231.763 12.5208L232.183 12.4369ZM232.013 13.7289L232.391 13.9291L232.395 13.9202L232.013 13.7289ZM231.027 14.5449L231.156 14.9531L231.168 14.9487L231.027 14.5449ZM229.497 14.2389L229.711 13.8683L229.708 13.8668L229.497 14.2389ZM226.947 13.2189L226.848 13.6352L226.848 13.6352L226.947 13.2189ZM220.487 13.8989L220.742 14.2422L220.742 14.2422L220.487 13.8989ZM219.977 18.4549L219.688 18.7704L219.695 18.7769L219.977 18.4549ZM222.765 19.5769L222.853 19.1583L222.851 19.158L222.765 19.5769ZM226.471 20.3589L226.56 19.9404L226.559 19.9403L226.471 20.3589ZM231.469 22.6029L231.176 22.915L231.179 22.918L231.469 22.6029ZM231.979 30.4569L231.63 30.2096L231.63 30.2096L231.979 30.4569ZM228.681 33.0069L228.846 33.4014L228.849 33.4001L228.681 33.0069ZM223.683 33.4631C222.196 33.4631 220.744 33.2967 219.326 32.9644L219.131 33.7974C220.614 34.1451 222.132 34.3187 223.683 34.3187V33.4631ZM219.328 32.9647C217.939 32.634 216.738 32.1408 215.719 31.4903L215.259 32.2115C216.37 32.921 217.663 33.4478 219.13 33.7971L219.328 32.9647ZM215.722 31.4926C215.273 31.1993 215.037 30.8658 214.954 30.4981L214.12 30.6877C214.263 31.3173 214.662 31.8225 215.255 32.2093L215.722 31.4926ZM214.954 30.4981C214.858 30.078 214.89 29.7054 215.033 29.3649L214.244 29.0329C214.025 29.5538 213.988 30.1105 214.12 30.6877L214.954 30.4981ZM215.029 29.3745C215.194 29.0084 215.423 28.792 215.712 28.6796L215.402 27.8822C214.875 28.0871 214.492 28.4827 214.249 29.0233L215.029 29.3745ZM215.723 28.6752C215.981 28.5665 216.318 28.5856 216.792 28.8817L217.245 28.1561C216.631 27.7722 215.994 27.6326 215.391 27.8866L215.723 28.6752ZM216.801 28.8872C217.834 29.4976 218.927 29.9443 220.079 30.2264L220.282 29.3954C219.213 29.1335 218.198 28.7189 217.236 28.1506L216.801 28.8872ZM220.079 30.2264C221.225 30.5072 222.427 30.6467 223.683 30.6467V29.7911C222.491 29.7911 221.358 29.6587 220.282 29.3954L220.079 30.2264ZM223.683 30.6467C225.502 30.6467 226.917 30.351 227.843 29.6817L227.342 28.9881C226.637 29.4975 225.445 29.7911 223.683 29.7911V30.6467ZM227.849 29.6772C228.764 28.9911 229.245 28.0864 229.245 26.9889H228.389C228.389 27.7954 228.053 28.4547 227.336 28.9926L227.849 29.6772ZM229.245 26.9889C229.245 26.0731 228.896 25.3202 228.194 24.7798L227.672 25.458C228.148 25.8243 228.389 26.3181 228.389 26.9889H229.245ZM228.2 24.7848C227.551 24.2657 226.481 23.8757 225.063 23.5782L224.887 24.4156C226.279 24.7075 227.181 25.0654 227.665 25.453L228.2 24.7848ZM225.062 23.5781L221.322 22.7961L221.147 23.6337L224.887 24.4157L225.062 23.5781ZM221.324 22.7964C219.242 22.3535 217.733 21.6082 216.747 20.5959C215.77 19.5931 215.271 18.2918 215.271 16.6529H214.415C214.415 18.482 214.98 20.0083 216.134 21.1929C217.279 22.3679 218.966 23.1696 221.146 23.6334L221.324 22.7964ZM215.271 16.6529C215.271 15.2371 215.644 14.0227 216.381 12.9916L215.685 12.4942C214.834 13.6845 214.415 15.0767 214.415 16.6529H215.271ZM216.381 12.9916C217.124 11.9514 218.158 11.1361 219.502 10.5511L219.16 9.76666C217.693 10.4057 216.528 11.313 215.685 12.4942L216.381 12.9916ZM219.502 10.5511C220.843 9.96678 222.404 9.66872 224.193 9.66872V8.81308C222.309 8.81308 220.629 9.12703 219.16 9.76666L219.502 10.5511ZM224.193 9.66872C225.517 9.66872 226.77 9.83418 227.954 10.1631L228.183 9.33869C226.919 8.98763 225.589 8.81308 224.193 8.81308V9.66872ZM227.954 10.1631C229.137 10.4918 230.194 10.972 231.128 11.6016L231.606 10.8922C230.59 10.2071 229.448 9.69003 228.183 9.33869L227.954 10.1631ZM231.121 11.5974C231.497 11.8606 231.696 12.1662 231.762 12.517L232.603 12.3569C232.488 11.7556 232.143 11.2678 231.612 10.8964L231.121 11.5974ZM231.763 12.5208C231.836 12.8822 231.791 13.2159 231.63 13.5376L232.395 13.9202C232.643 13.4259 232.711 12.8983 232.602 12.353L231.763 12.5208ZM231.635 13.5287C231.486 13.8088 231.248 14.0141 230.885 14.1411L231.168 14.9487C231.712 14.7583 232.131 14.4197 232.391 13.9291L231.635 13.5287ZM230.898 14.1369C230.629 14.2219 230.249 14.1787 229.711 13.8683L229.283 14.6095C229.924 14.9791 230.563 15.1399 231.156 14.9529L230.898 14.1369ZM229.708 13.8668C228.837 13.3726 227.949 13.0167 227.045 12.8026L226.848 13.6352C227.667 13.8291 228.479 14.1532 229.286 14.611L229.708 13.8668ZM227.045 12.8026C226.148 12.5901 225.185 12.4851 224.159 12.4851V13.3407C225.127 13.3407 226.023 13.4398 226.848 13.6352L227.045 12.8026ZM224.159 12.4851C222.54 12.4851 221.214 12.8246 220.231 13.5556L220.742 14.2422C221.527 13.6585 222.649 13.3407 224.159 13.3407V12.4851ZM220.231 13.5556C219.243 14.2904 218.733 15.277 218.733 16.4829H219.589C219.589 15.5582 219.962 14.8221 220.742 14.2422L220.231 13.5556ZM218.733 16.4829C218.733 17.4047 219.045 18.1815 219.688 18.7703L220.266 18.1395C219.82 17.731 219.589 17.1931 219.589 16.4829H218.733ZM219.695 18.7769C220.324 19.3275 221.343 19.7197 222.678 19.9959L222.851 19.158C221.557 18.8901 220.717 18.5343 220.258 18.1329L219.695 18.7769ZM222.676 19.9955L226.382 20.7775L226.559 19.9403L222.853 19.1583L222.676 19.9955ZM226.382 20.7774C228.587 21.2452 230.168 21.9698 231.176 22.915L231.761 22.2908C230.594 21.196 228.842 20.4246 226.56 19.9404L226.382 20.7774ZM231.179 22.918C232.19 23.8462 232.707 25.0858 232.707 26.6829H233.563C233.563 24.88 232.969 23.3996 231.758 22.2878L231.179 22.918ZM232.707 26.6829C232.707 28.029 232.345 29.1991 231.63 30.2096L232.328 30.7042C233.153 29.5387 233.563 28.1928 233.563 26.6829H232.707ZM231.63 30.2096C230.912 31.2232 229.88 32.0275 228.512 32.6137L228.849 33.4001C230.338 32.7623 231.505 31.8666 232.328 30.7042L231.63 30.2096ZM228.515 32.6124C227.174 33.1748 225.567 33.4631 223.683 33.4631V34.3187C225.652 34.3187 227.377 34.0177 228.846 33.4014L228.515 32.6124ZM242.446 33.3951C241.79 33.3951 241.376 33.2267 241.121 32.9641C240.864 32.699 240.698 32.2642 240.698 31.5789H239.842C239.842 32.3896 240.039 33.0768 240.507 33.5597C240.977 34.0451 241.651 34.2507 242.446 34.2507V33.3951ZM240.698 31.5789V11.5529H239.842V31.5789H240.698ZM240.698 11.5529C240.698 10.8676 240.864 10.4328 241.121 10.1677C241.376 9.90509 241.79 9.73672 242.446 9.73672V8.88108C241.651 8.88108 240.977 9.08671 240.507 9.57208C240.039 10.055 239.842 10.7422 239.842 11.5529H240.698ZM242.446 9.73672C243.102 9.73672 243.516 9.90509 243.771 10.1677C244.028 10.4328 244.194 10.8676 244.194 11.5529H245.05C245.05 10.7422 244.853 10.055 244.385 9.57208C243.914 9.08671 243.241 8.88108 242.446 8.88108V9.73672ZM244.194 11.5529V31.5789H245.05V11.5529H244.194ZM244.194 31.5789C244.194 32.2642 244.028 32.699 243.771 32.9641C243.516 33.2267 243.102 33.3951 242.446 33.3951V34.2507C243.241 34.2507 243.914 34.0451 244.385 33.5597C244.853 33.0768 245.05 32.3896 245.05 31.5789H244.194ZM258.06 32.3949L257.853 32.7698L257.855 32.7708L258.06 32.3949ZM253.912 28.1449L253.532 28.3418L253.532 28.3418L253.912 28.1449ZM253.946 15.0549L254.324 15.2555L254.325 15.2536L253.946 15.0549ZM258.162 10.7709L258.366 11.1469L258.369 11.1449L258.162 10.7709ZM268.566 9.7169L268.462 10.132L268.471 10.134L268.566 9.7169ZM272.204 11.2469L271.973 11.6072L271.979 11.6114L271.986 11.6152L272.204 11.2469ZM273.054 12.4369L272.63 12.4947L272.631 12.5059L272.633 12.517L273.054 12.4369ZM272.85 13.7969L273.228 13.9962L273.228 13.9962L272.85 13.7969ZM271.83 14.7149L271.971 15.1187L271.98 15.1156L271.989 15.1121L271.83 14.7149ZM270.334 14.4769L270.549 14.1074L270.548 14.1067L270.334 14.4769ZM267.716 13.3889L267.822 12.9745L267.822 12.9745L267.716 13.3889ZM258.978 15.2589L258.658 14.9741L258.656 14.9768L258.978 15.2589ZM259.046 27.9749L258.731 28.2649L258.731 28.2649L259.046 27.9749ZM267.274 29.9809L267.336 30.4043L267.346 30.4026L267.274 29.9809ZM269.62 29.4029L269.751 29.81L270.047 29.7141V29.4029H269.62ZM269.62 23.8269H270.047V23.3991H269.62V23.8269ZM272.034 32.6329L271.888 32.2305L271.887 32.2308L272.034 32.6329ZM268.6 33.5509L268.674 33.9723L268.681 33.971L268.6 33.5509ZM264.792 33.4631C262.192 33.4631 260.023 32.9743 258.264 32.019L257.855 32.7708C259.769 33.8102 262.087 34.3187 264.792 34.3187V33.4631ZM258.266 32.02C256.527 31.0635 255.204 29.7087 254.291 27.948L253.532 28.3418C254.523 30.2531 255.966 31.7316 257.853 32.7698L258.266 32.02ZM254.291 27.948C253.377 26.1846 252.911 24.079 252.911 21.6169H252.056C252.056 24.1868 252.542 26.4332 253.532 28.3418L254.291 27.948ZM252.911 21.6169C252.911 19.1329 253.388 17.0175 254.324 15.2555L253.568 14.8543C252.554 16.7643 252.056 19.0236 252.056 21.6169H252.911ZM254.325 15.2536C255.26 13.4696 256.605 12.1035 258.366 11.1468L257.957 10.395C256.047 11.433 254.581 12.9228 253.567 14.8562L254.325 15.2536ZM258.369 11.1449C260.129 10.1672 262.253 9.66872 264.758 9.66872V8.81308C262.139 8.81308 259.866 9.33464 257.954 10.3969L258.369 11.1449ZM264.758 9.66872C265.991 9.66872 267.225 9.82284 268.462 10.1319L268.669 9.30185C267.367 8.9763 266.063 8.81308 264.758 8.81308V9.66872ZM268.471 10.134C269.714 10.4175 270.881 10.9081 271.973 11.6072L272.434 10.8866C271.26 10.1351 270.002 9.6056 268.661 9.29979L268.471 10.134ZM271.986 11.6152C272.391 11.8547 272.582 12.1462 272.63 12.4947L273.478 12.3791C273.389 11.7303 273.013 11.2285 272.421 10.8786L271.986 11.6152ZM272.633 12.517C272.706 12.8974 272.653 13.2523 272.471 13.5976L273.228 13.9962C273.5 13.4802 273.583 12.9284 273.474 12.3569L272.633 12.517ZM272.471 13.5976C272.292 13.938 272.03 14.174 271.671 14.3177L271.989 15.1121C272.536 14.8932 272.954 14.5172 273.228 13.9962L272.471 13.5976ZM271.688 14.3111C271.388 14.4164 271.021 14.3825 270.549 14.1074L270.118 14.8464C270.734 15.2059 271.365 15.3308 271.971 15.1187L271.688 14.3111ZM270.548 14.1067C269.656 13.5902 268.747 13.2117 267.822 12.9745L267.609 13.8033C268.452 14.0194 269.289 14.3663 270.119 14.8471L270.548 14.1067ZM267.822 12.9745C266.897 12.7374 265.875 12.6211 264.758 12.6211V13.4767C265.816 13.4767 266.766 13.5871 267.609 13.8033L267.822 12.9745ZM264.758 12.6211C262.134 12.6211 260.076 13.3853 258.658 14.9741L259.297 15.5437C260.509 14.1858 262.304 13.4767 264.758 13.4767V12.6211ZM258.656 14.9768C257.272 16.555 256.612 18.7901 256.612 21.6169H257.467C257.467 18.913 258.099 16.9094 259.299 15.541L258.656 14.9768ZM256.612 21.6169C256.612 24.468 257.296 26.7077 258.731 28.2649L259.36 27.6849C258.121 26.3407 257.467 24.3418 257.467 21.6169H256.612ZM258.731 28.2649C260.174 29.8299 262.288 30.5787 264.996 30.5787V29.7231C262.444 29.7231 260.592 29.0212 259.36 27.6849L258.731 28.2649ZM264.996 30.5787C265.765 30.5787 266.545 30.5204 267.336 30.4042L267.211 29.5576C266.461 29.6681 265.722 29.7231 264.996 29.7231V30.5787ZM267.346 30.4026C268.16 30.2631 268.961 30.0655 269.751 29.81L269.488 28.9959C268.737 29.2389 267.974 29.4267 267.201 29.5592L267.346 30.4026ZM270.047 29.4029V23.8269H269.192V29.4029H270.047ZM269.62 23.3991H265.88V24.2547H269.62V23.3991ZM265.88 23.3991C265.348 23.3991 265.029 23.2757 264.844 23.1045C264.665 22.9393 264.539 22.6638 264.539 22.1949H263.684C263.684 22.814 263.853 23.3545 264.263 23.7333C264.667 24.1061 265.232 24.2547 265.88 24.2547V23.3991ZM264.539 22.1949C264.539 21.74 264.663 21.474 264.841 21.3138C265.026 21.1462 265.346 21.0247 265.88 21.0247V20.1691C265.234 20.1691 264.671 20.3139 264.267 20.679C263.855 21.0515 263.684 21.5845 263.684 22.1949H264.539ZM265.88 21.0247H271.49V20.1691H265.88V21.0247ZM271.49 21.0247C272.013 21.0247 272.327 21.1553 272.513 21.3414C272.699 21.5276 272.83 21.8415 272.83 22.3649H273.685C273.685 21.7096 273.521 21.1396 273.118 20.7364C272.715 20.3332 272.145 20.1691 271.49 20.1691V21.0247ZM272.83 22.3649V30.6269H273.685V22.3649H272.83ZM272.83 30.6269C272.83 31.0949 272.738 31.4391 272.586 31.6876C272.439 31.9297 272.215 32.1125 271.888 32.2305L272.179 33.0353C272.668 32.8587 273.057 32.5597 273.317 32.1332C273.573 31.7131 273.685 31.2016 273.685 30.6269H272.83ZM271.887 32.2308C270.916 32.5842 269.793 32.8848 268.519 33.1308L268.681 33.971C269.99 33.7183 271.157 33.4069 272.18 33.035L271.887 32.2308ZM268.526 33.1295C267.257 33.3521 266.012 33.4631 264.792 33.4631V34.3187C266.064 34.3187 267.358 34.203 268.674 33.9723L268.526 33.1295ZM282.211 9.8869L281.899 9.59369L281.899 9.5943L282.211 9.8869ZM284.761 9.6149L284.49 9.94602L284.506 9.95926L284.523 9.97087L284.761 9.6149ZM285.713 10.5669L286.052 10.3056L286.047 10.2996L285.713 10.5669ZM297.851 26.3089L297.512 26.5701L298.279 27.5644V26.3089H297.851ZM301.421 33.2789L301.099 32.9972L301.099 32.9972L301.421 33.2789ZM298.871 33.5169L298.627 33.8687L298.633 33.8728L298.639 33.8768L298.871 33.5169ZM297.885 32.5309L297.546 32.7918L297.551 32.7982L297.885 32.5309ZM285.747 16.7549L286.086 16.494L285.319 15.4973V16.7549H285.747ZM283.741 33.3951C283.13 33.3951 282.75 33.2382 282.518 32.9984C282.284 32.756 282.129 32.3551 282.129 31.7149H281.273C281.273 32.4801 281.458 33.1331 281.903 33.5934C282.351 34.0563 282.991 34.2507 283.741 34.2507V33.3951ZM282.129 31.7149V11.4849H281.273V31.7149H282.129ZM282.129 11.4849C282.129 10.8459 282.283 10.4352 282.523 10.1795L281.899 9.5943C281.458 10.0639 281.273 10.7186 281.273 11.4849H282.129ZM282.522 10.1801C282.798 9.88726 283.147 9.73672 283.605 9.73672V8.88108C282.93 8.88108 282.349 9.11588 281.899 9.59369L282.522 10.1801ZM283.605 9.73672C284.084 9.73672 284.352 9.83297 284.49 9.94602L285.032 9.28379C284.671 8.98883 284.168 8.88108 283.605 8.88108V9.73672ZM284.523 9.97087C284.741 10.1158 285.026 10.3929 285.379 10.8342L286.047 10.2996C285.675 9.83421 285.325 9.47663 284.998 9.25893L284.523 9.97087ZM285.374 10.8281L297.512 26.5701L298.19 26.0477L286.052 10.3057L285.374 10.8281ZM298.279 26.3089V11.3829H297.423V26.3089H298.279ZM298.279 11.3829C298.279 10.7558 298.433 10.3643 298.666 10.1274C298.898 9.8918 299.279 9.73672 299.891 9.73672V8.88108C299.143 8.88108 298.504 9.07167 298.056 9.5274C297.609 9.98182 297.423 10.6274 297.423 11.3829H298.279ZM299.891 9.73672C300.49 9.73672 300.861 9.89076 301.088 10.1248C301.317 10.3616 301.469 10.754 301.469 11.3829H302.325C302.325 10.6291 302.143 9.98458 301.703 9.52997C301.261 9.07271 300.629 8.88108 299.891 8.88108V9.73672ZM301.469 11.3829V31.7829H302.325V11.3829H301.469ZM301.469 31.7829C301.469 32.3474 301.329 32.7344 301.099 32.9972L301.743 33.5606C302.148 33.098 302.325 32.4878 302.325 31.7829H301.469ZM301.099 32.9972C300.874 33.2545 300.567 33.3951 300.129 33.3951V34.2507C300.778 34.2507 301.333 34.0287 301.743 33.5606L301.099 32.9972ZM300.129 33.3951C299.659 33.3951 299.329 33.3028 299.102 33.157L298.639 33.8768C299.047 34.1391 299.556 34.2507 300.129 34.2507V33.3951ZM299.114 33.1652C298.868 32.9948 298.57 32.702 298.219 32.2636L297.551 32.7982C297.925 33.2665 298.284 33.631 298.627 33.8687L299.114 33.1652ZM298.224 32.27L286.086 16.494L285.408 17.0158L297.546 32.7918L298.224 32.27ZM285.319 16.7549V31.7149H286.175V16.7549H285.319ZM285.319 31.7149C285.319 32.3568 285.166 32.7587 284.935 33.001C284.709 33.2393 284.338 33.3951 283.741 33.3951V34.2507C284.481 34.2507 285.113 34.0552 285.555 33.5908C285.993 33.1304 286.175 32.4784 286.175 31.7149H285.319Z" fill="#0EB29F"/>
<path d="M143.183 88H199.943" stroke="#248A82" stroke-width="4" stroke-linecap="round"/>
</svg>
