<svg width="383" height="91" viewBox="0 0 383 91" fill="none" xmlns="http://www.w3.org/2000/svg">
<path d="M2.176 63.976L1.63181 64.3161L2.176 63.976ZM2.24 60.264L2.82072 60.5373L2.82493 60.528L2.24 60.264ZM19.136 22.824L19.7209 23.088L19.7216 23.0865L19.136 22.824ZM21.12 20.2L21.476 20.734L21.4824 20.7296L21.12 20.2ZM26.496 20.2L26.1203 20.7202L26.1364 20.7319L26.1533 20.7426L26.496 20.2ZM28.544 22.824L27.9584 23.0865L27.9594 23.0888L28.544 22.824ZM45.504 60.264L44.9194 60.5288L44.9204 60.5308L45.504 60.264ZM45.632 64.04L46.1803 64.3737L46.1863 64.3633L45.632 64.04ZM39.744 64.68L39.3061 65.1491L39.3222 65.1642L39.3393 65.1781L39.744 64.68ZM38.016 61.992L38.6059 61.7392L38.6053 61.738L38.016 61.992ZM34.816 54.568L35.4053 54.314L35.2382 53.9263H34.816V54.568ZM12.8 54.568V53.9263H12.3744L12.2088 54.3183L12.8 54.568ZM9.664 61.992L10.2497 62.2546L10.2552 62.2417L9.664 61.992ZM7.936 64.68L7.49933 64.2097L7.936 64.68ZM23.744 28.776V28.1343H23.3183L23.1527 28.5265L23.744 28.776ZM15.616 48.04L15.0247 47.7905L14.6487 48.6817H15.616V48.04ZM32 48.04V48.6817H32.9673L32.5913 47.7905L32 48.04ZM23.872 28.776L24.4633 28.5265L24.2978 28.1343H23.872V28.776ZM5.376 64.8703C4.04363 64.8703 3.21417 64.4263 2.72019 63.6359L1.63181 64.3161C2.41783 65.5737 3.7217 66.1537 5.376 66.1537V64.8703ZM2.72019 63.6359C2.23255 62.8557 2.19687 61.8628 2.82065 60.5372L1.65935 59.9908C0.917801 61.5665 0.839448 63.0483 1.63181 64.3161L2.72019 63.6359ZM2.82493 60.528L19.7209 23.088L18.5511 22.56L1.65507 60L2.82493 60.528ZM19.7216 23.0865C20.2486 21.9108 20.8452 21.1545 21.476 20.7339L20.764 19.666C19.8588 20.2695 19.1327 21.2625 18.5504 22.5615L19.7216 23.0865ZM21.4824 20.7296C22.1816 20.2512 22.9715 20.0097 23.872 20.0097V18.7263C22.7245 18.7263 21.6797 19.0395 20.7576 19.6704L21.4824 20.7296ZM23.872 20.0097C24.7236 20.0097 25.4657 20.2475 26.1203 20.7202L26.8717 19.6798C25.9903 19.0431 24.9831 18.7263 23.872 18.7263V20.0097ZM26.1533 20.7426C26.8215 21.1646 27.4349 21.9186 27.9584 23.0865L29.1296 22.5615C28.5438 21.2547 27.7918 20.2594 26.8387 19.6574L26.1533 20.7426ZM27.9594 23.0888L44.9194 60.5288L46.0886 59.9992L29.1286 22.5592L27.9594 23.0888ZM44.9204 60.5308C45.5524 61.9134 45.5326 62.9368 45.0777 63.7166L46.1863 64.3633C46.9261 63.0952 46.8209 61.6013 46.0876 59.9972L44.9204 60.5308ZM45.0838 63.7063C44.6343 64.4449 43.8543 64.8703 42.56 64.8703V66.1537C44.167 66.1537 45.4351 65.5977 46.1802 64.3737L45.0838 63.7063ZM42.56 64.8703C41.4601 64.8703 40.6819 64.6152 40.1487 64.1819L39.3393 65.1781C40.1715 65.8542 41.2706 66.1537 42.56 66.1537V64.8703ZM40.1819 64.2109C39.6307 63.6964 39.0983 62.8882 38.6058 61.7392L37.4262 62.2448C37.9577 63.4851 38.5773 64.4689 39.3061 65.1491L40.1819 64.2109ZM38.6053 61.738L35.4053 54.314L34.2267 54.822L37.4267 62.246L38.6053 61.738ZM34.816 53.9263H12.8V55.2097H34.816V53.9263ZM12.2088 54.3183L9.07285 61.7423L10.2552 62.2417L13.3912 54.8177L12.2088 54.3183ZM9.07841 61.7295C8.53865 62.9336 8.00527 63.7399 7.49933 64.2097L8.37267 65.1503C9.06139 64.5107 9.68002 63.5251 10.2496 62.2545L9.07841 61.7295ZM7.49933 64.2097C7.05798 64.6196 6.38264 64.8703 5.376 64.8703V66.1537C6.58803 66.1537 7.61935 65.8498 8.37267 65.1503L7.49933 64.2097ZM23.1527 28.5265L15.0247 47.7905L16.2073 48.2895L24.3353 29.0255L23.1527 28.5265ZM15.616 48.6817H32V47.3983H15.616V48.6817ZM32.5913 47.7905L24.4633 28.5265L23.2807 29.0255L31.4087 48.2895L32.5913 47.7905ZM23.872 28.1343H23.744V29.4177H23.872V28.1343ZM89.673 23.016L89.2711 23.5163L89.2762 23.5203L89.673 23.016ZM91.721 37.864L92.2449 38.2346L91.721 37.864ZM86.601 41.704L86.377 41.1026L84.5399 41.787L86.4261 42.3214L86.601 41.704ZM92.553 45.544L92.0439 45.9347L92.049 45.9413L92.0542 45.9478L92.553 45.544ZM90.633 61.736L91.0368 62.2348L91.0377 62.2341L90.633 61.736ZM66.825 39.016H66.1833V39.6577H66.825V39.016ZM66.825 26.088V25.4463H66.1833V26.088H66.825ZM66.825 58.792H66.1833V59.4337H66.825V58.792ZM66.825 45.224V44.5823H66.1833V45.224H66.825ZM63.305 64.3583C61.9533 64.3583 61.0573 64.0208 60.4948 63.4582C59.9322 62.8957 59.5947 61.9997 59.5947 60.648H58.3113C58.3113 62.1976 58.6991 63.4776 59.5872 64.3658C60.4754 65.2539 61.7554 65.6417 63.305 65.6417V64.3583ZM59.5947 60.648V24.232H58.3113V60.648H59.5947ZM59.5947 24.232C59.5947 22.8803 59.9322 21.9843 60.4948 21.4218C61.0573 20.8592 61.9533 20.5217 63.305 20.5217V19.2383C61.7554 19.2383 60.4754 19.6261 59.5872 20.5142C58.6991 21.4024 58.3113 22.6824 58.3113 24.232H59.5947ZM63.305 20.5217H78.665V19.2383H63.305V20.5217ZM78.665 20.5217C83.3148 20.5217 86.8217 21.5487 89.2711 23.5163L90.0749 22.5157C87.319 20.3019 83.4872 19.2383 78.665 19.2383V20.5217ZM89.2762 23.5203C91.7061 25.4324 92.9353 28.0952 92.9353 31.592H94.2187C94.2187 27.7502 92.8452 24.6956 90.0698 22.5117L89.2762 23.5203ZM92.9353 31.592C92.9353 33.9099 92.3477 35.8667 91.1971 37.4934L92.2449 38.2346C93.569 36.3626 94.2187 34.1381 94.2187 31.592H92.9353ZM91.1971 37.4934C90.0405 39.1286 88.4427 40.3331 86.377 41.1026L86.825 42.3054C89.1113 41.4536 90.9268 40.0981 92.2449 38.2346L91.1971 37.4934ZM86.4261 42.3214C88.874 43.015 90.7323 44.2256 92.0439 45.9347L93.0621 45.1533C91.5577 43.1931 89.448 41.8437 86.7759 41.0866L86.4261 42.3214ZM92.0542 45.9478C93.3946 47.6036 94.0873 49.7347 94.0873 52.392H95.3707C95.3707 49.5026 94.6127 47.0684 93.0518 45.1402L92.0542 45.9478ZM94.0873 52.392C94.0873 56.2399 92.7869 59.1591 90.2283 61.2379L91.0377 62.2341C93.9405 59.8756 95.3707 56.5655 95.3707 52.392H94.0873ZM90.2292 61.2372C87.6931 63.2902 84.1005 64.3583 79.369 64.3583V65.6417C84.2802 65.6417 88.1969 64.5338 91.0368 62.2348L90.2292 61.2372ZM79.369 64.3583H63.305V65.6417H79.369V64.3583ZM66.825 39.6577H77.257V38.3743H66.825V39.6577ZM77.257 39.6577C80.1162 39.6577 82.3785 39.1097 83.9368 37.9082C85.5268 36.6823 86.2827 34.8567 86.2827 32.552H84.9993C84.9993 34.5566 84.3578 35.963 83.1532 36.8918C81.9169 37.845 79.9871 38.3743 77.257 38.3743V39.6577ZM86.2827 32.552C86.2827 30.2473 85.5268 28.4217 83.9368 27.1958C82.3785 25.9943 80.1162 25.4463 77.257 25.4463V26.7297C79.9871 26.7297 81.9169 27.259 83.1532 28.2122C84.3578 29.141 84.9993 30.5474 84.9993 32.552H86.2827ZM77.257 25.4463H66.825V26.7297H77.257V25.4463ZM66.1833 26.088V39.016H67.4667V26.088H66.1833ZM66.825 59.4337H78.345V58.1503H66.825V59.4337ZM78.345 59.4337C81.23 59.4337 83.5126 58.8573 85.0828 57.5964C86.68 56.3138 87.4347 54.4101 87.4347 52.008H86.1513C86.1513 54.1285 85.4981 55.6168 84.2792 56.5956C83.0334 57.596 81.092 58.1503 78.345 58.1503V59.4337ZM87.4347 52.008C87.4347 49.6059 86.68 47.7022 85.0828 46.4196C83.5126 45.1587 81.23 44.5823 78.345 44.5823V45.8657C81.092 45.8657 83.0334 46.42 84.2792 47.4204C85.4981 48.3992 86.1513 49.8875 86.1513 52.008H87.4347ZM78.345 44.5823H66.825V45.8657H78.345V44.5823ZM66.1833 45.224V58.792H67.4667V45.224H66.1833ZM118.184 62.76L117.857 63.3122L117.86 63.3141L118.184 62.76ZM110.632 54.696L110.06 54.9886L110.062 54.9914L110.632 54.696ZM110.632 30.12L111.201 30.4154L110.632 30.12ZM118.184 22.12L118.505 22.6754L118.51 22.6722L118.184 22.12ZM141.096 22.12L140.769 22.6722L140.774 22.6754L141.096 22.12ZM148.648 30.12L149.217 29.8246L148.648 30.12ZM148.648 54.696L149.217 54.9914L149.219 54.9885L148.648 54.696ZM141.096 62.76L141.422 63.3122L141.096 62.76ZM139.303 54.312L138.804 53.9093L139.303 54.312ZM139.303 30.504L138.803 30.9058L138.807 30.9104L139.303 30.504ZM119.976 30.504L119.479 30.0976L119.976 30.504ZM119.976 54.312L120.475 53.9093L119.976 54.312ZM129.639 64.9983C125.385 64.9983 121.681 64.0607 118.507 62.2059L117.86 63.3141C121.257 65.2993 125.19 66.2817 129.639 66.2817V64.9983ZM118.51 62.2078C115.375 60.3511 112.94 57.7537 111.201 54.4006L110.062 54.9914C111.907 58.5503 114.507 61.3289 117.857 63.3122L118.51 62.2078ZM111.203 54.4035C109.465 51.0113 108.585 47.0192 108.585 42.408H107.302C107.302 47.1835 108.214 51.3834 110.06 54.9885L111.203 54.4035ZM108.585 42.408C108.585 37.7528 109.466 33.7624 111.201 30.4154L110.062 29.8246C108.213 33.3896 107.302 37.5912 107.302 42.408H108.585ZM111.201 30.4154C112.939 27.0635 115.372 24.489 118.505 22.6754L117.862 21.5646C114.509 23.5057 111.908 26.2645 110.062 29.8246L111.201 30.4154ZM118.51 22.6722C121.639 20.8199 125.341 19.8817 129.639 19.8817V18.5983C125.149 18.5983 121.214 19.5801 117.857 21.5678L118.51 22.6722ZM129.639 19.8817C133.938 19.8817 137.64 20.8199 140.769 22.6722L141.422 21.5678C138.065 19.5801 134.13 18.5983 129.639 18.5983V19.8817ZM140.774 22.6754C143.907 24.489 146.34 27.0635 148.078 30.4154L149.217 29.8246C147.371 26.2645 144.77 23.5057 141.417 21.5646L140.774 22.6754ZM148.078 30.4154C149.814 33.7632 150.694 37.7325 150.694 42.344H151.977C151.977 37.5688 151.065 33.3888 149.217 29.8246L148.078 30.4154ZM150.694 42.344C150.694 46.9989 149.813 51.0121 148.076 54.4035L149.219 54.9885C151.066 51.3826 151.977 47.1611 151.977 42.344H150.694ZM148.078 54.4006C146.339 57.7537 143.904 60.3511 140.769 62.2078L141.422 63.3122C144.772 61.3289 147.372 58.5503 149.217 54.9914L148.078 54.4006ZM140.769 62.2078C137.64 64.0601 133.938 64.9983 129.639 64.9983V66.2817C134.13 66.2817 138.065 65.2999 141.422 63.3122L140.769 62.2078ZM129.639 59.2417C133.944 59.2417 137.361 57.745 139.803 54.7147L138.804 53.9093C136.638 56.5963 133.612 57.9583 129.639 57.9583V59.2417ZM139.803 54.7147C142.229 51.7052 143.401 47.5764 143.401 42.408H142.118C142.118 47.3943 140.986 51.2015 138.804 53.9093L139.803 54.7147ZM143.401 42.408C143.401 37.1992 142.23 33.0671 139.8 30.0976L138.807 30.9104C140.985 33.5729 142.118 37.3768 142.118 42.408H143.401ZM139.804 30.1022C137.401 27.1095 133.981 25.6383 129.639 25.6383V26.9217C133.661 26.9217 136.684 28.2665 138.803 30.9058L139.804 30.1022ZM129.639 25.6383C125.338 25.6383 121.922 27.1111 119.479 30.0976L120.472 30.9104C122.637 28.2649 125.664 26.9217 129.639 26.9217V25.6383ZM119.479 30.0976C117.049 33.0671 115.878 37.1992 115.878 42.408H117.161C117.161 37.3768 118.294 33.5729 120.472 30.9104L119.479 30.0976ZM115.878 42.408C115.878 47.5764 117.05 51.7052 119.476 54.7147L120.475 53.9093C118.293 51.2015 117.161 47.3943 117.161 42.408H115.878ZM119.476 54.7147C121.918 57.745 125.335 59.2417 129.639 59.2417V57.9583C125.667 57.9583 122.641 56.5963 120.475 53.9093L119.476 54.7147ZM170.609 60.84L170.156 61.2938L170.162 61.2997L170.609 60.84ZM176.689 55.592L176.211 56.0203L176.221 56.0306L176.689 55.592ZM198.962 60.84L199.415 61.2938L199.418 61.2908L198.962 60.84ZM184.818 64.9983C178.738 64.9983 174.186 63.4276 171.057 60.3803L170.162 61.2997C173.604 64.6524 178.523 66.2817 184.818 66.2817V64.9983ZM171.063 60.3862C167.98 57.3034 166.387 52.714 166.387 46.504H165.104C165.104 52.9233 166.753 57.8912 170.156 61.2938L171.063 60.3862ZM166.387 46.504V23.528H165.104V46.504H166.387ZM166.387 23.528C166.387 22.2378 166.705 21.3885 167.227 20.8582C167.747 20.3299 168.578 20.0097 169.841 20.0097V18.7263C168.375 18.7263 167.157 19.0995 166.312 19.9578C165.469 20.8142 165.104 22.0449 165.104 23.528H166.387ZM169.841 20.0097C171.105 20.0097 171.936 20.3299 172.456 20.8582C172.978 21.3885 173.296 22.2378 173.296 23.528H174.579C174.579 22.0449 174.214 20.8142 173.371 19.9578C172.526 19.0995 171.308 18.7263 169.841 18.7263V20.0097ZM173.296 23.528V46.44H174.579V23.528H173.296ZM173.296 46.44C173.296 50.578 174.231 53.8094 176.212 56.0202L177.167 55.1638C175.479 53.2786 174.579 50.4087 174.579 46.44H173.296ZM176.221 56.0306C178.252 58.2004 181.153 59.2417 184.818 59.2417V57.9583C181.399 57.9583 178.881 56.9943 177.158 55.1534L176.221 56.0306ZM184.818 59.2417C188.542 59.2417 191.448 58.1913 193.409 55.9865C195.357 53.796 196.275 50.5749 196.275 46.44H194.992C194.992 50.4117 194.107 53.2707 192.45 55.1335C190.806 56.982 188.303 57.9583 184.818 57.9583V59.2417ZM196.275 46.44V23.528H194.992V46.44H196.275ZM196.275 23.528C196.275 22.2378 196.593 21.3885 197.115 20.8582C197.635 20.3299 198.466 20.0097 199.729 20.0097V18.7263C198.263 18.7263 197.045 19.0995 196.2 19.9578C195.357 20.8142 194.992 22.0449 194.992 23.528H196.275ZM199.729 20.0097C200.969 20.0097 201.783 20.3284 202.293 20.8546C202.806 21.3846 203.12 22.2353 203.12 23.528H204.403C204.403 22.0474 204.045 20.8181 203.214 19.9614C202.38 19.1009 201.178 18.7263 199.729 18.7263V20.0097ZM203.12 23.528V46.504H204.403V23.528H203.12ZM203.12 46.504C203.12 52.7162 201.547 57.3068 198.505 60.3892L199.418 61.2908C202.776 57.8879 204.403 52.9212 204.403 46.504H203.12ZM198.508 60.3862C195.468 63.4264 190.942 64.9983 184.818 64.9983V66.2817C191.152 66.2817 196.055 64.6536 199.415 61.2938L198.508 60.3862ZM230.596 26.728H231.237V26.0863H230.596V26.728ZM238.788 26.728V26.0863H238.146V26.728H238.788ZM234.692 64.8703C233.43 64.8703 232.601 64.5462 232.08 64.0093C231.556 63.4686 231.237 62.6019 231.237 61.288H229.954C229.954 62.7901 230.318 64.0354 231.159 64.9027C232.003 65.7738 233.222 66.1537 234.692 66.1537V64.8703ZM231.237 61.288V26.728H229.954V61.288H231.237ZM230.596 26.0863H218.116V27.3697H230.596V26.0863ZM218.116 26.0863C217.038 26.0863 216.349 25.8219 215.925 25.4061C215.504 24.9924 215.237 24.3221 215.237 23.272H213.954C213.954 24.5259 214.274 25.5836 215.026 26.3219C215.776 27.0581 216.846 27.3697 218.116 27.3697V26.0863ZM215.237 23.272C215.237 22.2464 215.502 21.5936 215.921 21.1901C216.344 20.7823 217.035 20.5217 218.116 20.5217V19.2383C216.849 19.2383 215.78 19.543 215.03 20.2659C214.276 20.993 213.954 22.0362 213.954 23.272H215.237ZM218.116 20.5217H251.268V19.2383H218.116V20.5217ZM251.268 20.5217C252.348 20.5217 253.039 20.7823 253.462 21.1901C253.881 21.5936 254.146 22.2464 254.146 23.272H255.429C255.429 22.0362 255.107 20.993 254.353 20.2659C253.603 19.543 252.534 19.2383 251.268 19.2383V20.5217ZM254.146 23.272C254.146 24.3221 253.879 24.9924 253.458 25.4061C253.034 25.8219 252.345 26.0863 251.268 26.0863V27.3697C252.537 27.3697 253.607 27.0581 254.357 26.3219C255.109 25.5836 255.429 24.5259 255.429 23.272H254.146ZM251.268 26.0863H238.788V27.3697H251.268V26.0863ZM238.146 26.728V61.288H239.429V26.728H238.146ZM238.146 61.288C238.146 62.6019 237.827 63.4686 237.303 64.0093C236.782 64.5462 235.953 64.8703 234.692 64.8703V66.1537C236.161 66.1537 237.38 65.7738 238.224 64.9027C239.065 64.0354 239.429 62.7901 239.429 61.288H238.146ZM294.185 60.84L293.731 61.2938L293.737 61.2997L294.185 60.84ZM300.264 55.592L299.786 56.0203L299.796 56.0306L300.264 55.592ZM322.536 60.84L322.99 61.2938L322.993 61.2908L322.536 60.84ZM308.392 64.9983C302.313 64.9983 297.761 63.4276 294.632 60.3803L293.737 61.2997C297.179 64.6524 302.098 66.2817 308.392 66.2817V64.9983ZM294.638 60.3862C291.555 57.3034 289.962 52.714 289.962 46.504H288.679C288.679 52.9233 290.328 57.8912 293.731 61.2938L294.638 60.3862ZM289.962 46.504V23.528H288.679V46.504H289.962ZM289.962 23.528C289.962 22.2378 290.28 21.3885 290.802 20.8582C291.322 20.3299 292.153 20.0097 293.417 20.0097V18.7263C291.95 18.7263 290.732 19.0995 289.887 19.9578C289.044 20.8142 288.679 22.0449 288.679 23.528H289.962ZM293.417 20.0097C294.68 20.0097 295.511 20.3299 296.031 20.8582C296.553 21.3885 296.871 22.2378 296.871 23.528H298.154C298.154 22.0449 297.789 20.8142 296.946 19.9578C296.101 19.0995 294.883 18.7263 293.417 18.7263V20.0097ZM296.871 23.528V46.44H298.154V23.528H296.871ZM296.871 46.44C296.871 50.578 297.806 53.8094 299.786 56.0202L300.742 55.1638C299.054 53.2786 298.154 50.4087 298.154 46.44H296.871ZM299.796 56.0306C301.827 58.2004 304.728 59.2417 308.392 59.2417V57.9583C304.974 57.9583 302.456 56.9943 300.733 55.1534L299.796 56.0306ZM308.392 59.2417C312.117 59.2417 315.023 58.1913 316.984 55.9865C318.932 53.796 319.85 50.5749 319.85 46.44H318.567C318.567 50.4117 317.682 53.2707 316.025 55.1335C314.381 56.982 311.878 57.9583 308.392 57.9583V59.2417ZM319.85 46.44V23.528H318.567V46.44H319.85ZM319.85 23.528C319.85 22.2378 320.168 21.3885 320.69 20.8582C321.21 20.3299 322.041 20.0097 323.305 20.0097V18.7263C321.838 18.7263 320.62 19.0995 319.775 19.9578C318.932 20.8142 318.567 22.0449 318.567 23.528H319.85ZM323.305 20.0097C324.544 20.0097 325.358 20.3284 325.868 20.8546C326.381 21.3846 326.695 22.2353 326.695 23.528H327.978C327.978 22.0474 327.62 20.8181 326.789 19.9614C325.955 19.1009 324.753 18.7263 323.305 18.7263V20.0097ZM326.695 23.528V46.504H327.978V23.528H326.695ZM326.695 46.504C326.695 52.7162 325.122 57.3068 322.08 60.3892L322.993 61.2908C326.351 57.8879 327.978 52.9212 327.978 46.504H326.695ZM322.083 60.3862C319.043 63.4264 314.517 64.9983 308.392 64.9983V66.2817C314.727 66.2817 319.63 64.6536 322.99 61.2938L322.083 60.3862ZM350.458 64.68L350.31 65.3043L350.312 65.3048L350.458 64.68ZM343.418 61.8L343.068 62.3375L343.073 62.3409L343.418 61.8ZM341.818 56.808L341.233 56.5447L341.23 56.5518L341.227 56.559L341.818 56.808ZM343.546 55.08L343.779 55.6781L343.787 55.6749L343.796 55.6714L343.546 55.08ZM346.298 55.528L345.958 56.0722L345.965 56.0764L345.972 56.0805L346.298 55.528ZM366.202 57.064L366.578 57.5843L366.588 57.5774L366.202 57.064ZM366.842 49.128L366.442 49.6292L366.451 49.6367L366.842 49.128ZM361.274 47.016L361.406 46.3879L361.406 46.3879L361.274 47.016ZM354.234 45.544L354.101 46.1717L354.103 46.1721L354.234 45.544ZM344.442 25.832L343.92 25.459L344.442 25.832ZM350.65 20.968L350.394 20.3796L350.65 20.968ZM367.098 20.2L367.27 19.5817L367.098 20.2ZM373.306 23.016L373.675 22.4902L373.665 22.484L373.306 23.016ZM374.842 25.256L374.212 25.3761L374.213 25.3818L374.842 25.256ZM374.522 27.688L375.09 27.9883L375.093 27.9817L375.096 27.975L374.522 27.688ZM372.667 29.224L372.86 29.8359L372.869 29.833L372.878 29.8297L372.667 29.224ZM369.786 28.648L370.107 28.0921L370.103 28.0899L369.786 28.648ZM364.986 26.728L364.839 27.3525L364.986 26.728ZM352.826 28.008L353.209 28.523L352.826 28.008ZM351.866 36.584L351.433 37.0571L351.438 37.0621L351.444 37.067L351.866 36.584ZM357.115 38.696L357.247 38.0681L357.245 38.0676L357.115 38.696ZM364.09 40.168L364.224 39.5402L364.223 39.5401L364.09 40.168ZM373.498 44.392L373.06 44.8602L373.064 44.8647L373.498 44.392ZM374.458 59.176L373.935 58.8051L374.458 59.176ZM368.25 63.976L368.499 64.5678L368.503 64.5658L368.25 63.976ZM358.842 64.9983C356.032 64.9983 353.287 64.6837 350.605 64.0552L350.312 65.3048C353.092 65.9563 355.935 66.2817 358.842 66.2817V64.9983ZM350.607 64.0557C347.978 63.4297 345.7 62.4948 343.764 61.2591L343.073 62.3409C345.148 63.6652 347.563 64.6503 350.31 65.3043L350.607 64.0557ZM343.769 61.2625C342.895 60.6926 342.421 60.032 342.252 59.2898L341.001 59.5742C341.259 60.7093 341.979 61.6274 343.068 62.3375L343.769 61.2625ZM342.252 59.2898C342.066 58.4689 342.126 57.7323 342.41 57.057L341.227 56.559C340.829 57.505 340.761 58.5177 341.001 59.5742L342.252 59.2898ZM342.404 57.0713C342.729 56.3489 343.19 55.9073 343.779 55.6781L343.314 54.4819C342.367 54.85 341.676 55.5604 341.233 56.5447L342.404 57.0713ZM343.796 55.6714C344.347 55.4391 345.04 55.4981 345.958 56.0722L346.639 54.9838C345.509 54.2779 344.367 54.0382 343.297 54.4886L343.796 55.6714ZM345.972 56.0805C347.903 57.2214 349.945 58.0562 352.098 58.5833L352.403 57.3367C350.374 56.8398 348.449 56.0533 346.625 54.9755L345.972 56.0805ZM352.098 58.5833C354.242 59.1084 356.491 59.3697 358.842 59.3697V58.0863C356.586 58.0863 354.44 57.8356 352.403 57.3367L352.098 58.5833ZM358.842 59.3697C362.256 59.3697 364.876 58.8134 366.578 57.5842L365.827 56.5438C364.457 57.5332 362.171 58.0863 358.842 58.0863V59.3697ZM366.588 57.5774C368.272 56.3143 369.148 54.6582 369.148 52.648H367.865C367.865 54.2218 367.205 55.5097 365.817 56.5506L366.588 57.5774ZM369.148 52.648C369.148 50.9709 368.513 49.6033 367.234 48.6193L366.451 49.6367C367.391 50.3594 367.865 51.3384 367.865 52.648H369.148ZM367.243 48.6269C366.053 47.6749 364.072 46.9468 361.406 46.3879L361.143 47.6441C363.768 48.1945 365.498 48.8745 366.442 49.6291L367.243 48.6269ZM361.406 46.3879L354.366 44.9159L354.103 46.1721L361.143 47.6441L361.406 46.3879ZM354.368 44.9163C350.431 44.0786 347.557 42.6649 345.67 40.7282C343.798 38.8059 342.844 36.3133 342.844 33.192H341.561C341.561 36.5987 342.613 39.4287 344.751 41.6238C346.875 43.8044 350.017 45.3027 354.101 46.1717L354.368 44.9163ZM342.844 33.192C342.844 30.4963 343.557 28.1763 344.965 26.205L343.92 25.459C342.342 27.669 341.561 30.2557 341.561 33.192H342.844ZM344.965 26.205C346.382 24.2201 348.354 22.6678 350.907 21.5564L350.394 20.3796C347.656 21.5722 345.489 23.2625 343.92 25.459L344.965 26.205ZM350.907 21.5564C353.457 20.4458 356.418 19.8817 359.802 19.8817V18.5983C356.275 18.5983 353.135 19.1862 350.394 20.3796L350.907 21.5564ZM359.802 19.8817C362.309 19.8817 364.682 20.1949 366.927 20.8183L367.27 19.5817C364.907 18.9251 362.416 18.5983 359.802 18.5983V19.8817ZM366.927 20.8183C369.169 21.4413 371.175 22.3523 372.948 23.548L373.665 22.484C371.769 21.205 369.635 20.2387 367.27 19.5817L366.927 20.8183ZM372.938 23.5417C373.676 24.0579 374.077 24.6679 374.212 25.3761L375.473 25.1359C375.266 24.0521 374.644 23.1687 373.674 22.4903L372.938 23.5417ZM374.213 25.3818C374.356 26.0973 374.268 26.7625 373.949 27.401L375.096 27.975C375.545 27.0775 375.67 26.1214 375.472 25.1301L374.213 25.3818ZM373.955 27.3877C373.655 27.9551 373.172 28.3672 372.454 28.6183L372.878 29.8297C373.868 29.4835 374.622 28.8715 375.09 27.9883L373.955 27.3877ZM372.473 28.6121C371.905 28.7914 371.14 28.6878 370.107 28.0921L369.466 29.2039C370.652 29.8882 371.806 30.1686 372.86 29.8359L372.473 28.6121ZM370.103 28.0899C368.476 27.1666 366.82 26.5027 365.134 26.1035L364.839 27.3525C366.396 27.7213 367.939 28.3374 369.47 29.2061L370.103 28.0899ZM365.134 26.1035C363.459 25.7067 361.659 25.5103 359.738 25.5103V26.7937C361.572 26.7937 363.271 26.9813 364.839 27.3525L365.134 26.1035ZM359.738 25.5103C356.713 25.5103 354.256 26.1452 352.444 27.493L353.209 28.523C354.725 27.3961 356.876 26.7937 359.738 26.7937V25.5103ZM352.444 27.493C350.623 28.8466 349.689 30.6558 349.689 32.872H350.972C350.972 31.0776 351.702 29.6441 353.209 28.523L352.444 27.493ZM349.689 32.872C349.689 34.5667 350.261 35.9832 351.433 37.0571L352.3 36.1109C351.424 35.3074 350.972 34.2493 350.972 32.872H349.689ZM351.444 37.067C352.596 38.0749 354.48 38.8062 356.984 39.3244L357.245 38.0676C354.8 37.5618 353.185 36.8851 352.289 36.101L351.444 37.067ZM356.982 39.3239L363.958 40.7959L364.223 39.5401L357.247 38.0681L356.982 39.3239ZM363.957 40.7958C368.124 41.6795 371.131 43.0523 373.06 44.8602L373.937 43.9238C371.77 41.8917 368.505 40.4485 364.224 39.5402L363.957 40.7958ZM373.064 44.8647C375.005 46.647 375.993 49.0264 375.993 52.072H377.276C377.276 48.7176 376.173 45.977 373.933 43.9193L373.064 44.8647ZM375.993 52.072C375.993 54.6371 375.303 56.8734 373.935 58.8051L374.982 59.5469C376.515 57.3826 377.276 54.8829 377.276 52.072H375.993ZM373.935 58.8051C372.563 60.7415 370.595 62.2729 367.998 63.3862L368.503 64.5658C371.282 63.3751 373.452 61.7065 374.982 59.5469L373.935 58.8051ZM368.002 63.3842C365.453 64.4531 362.406 64.9983 358.842 64.9983V66.2817C362.533 66.2817 365.757 65.7176 368.499 64.5678L368.002 63.3842Z" fill="#248A82"/>
<path d="M9.376 69.512C7.88267 69.512 6.816 69 6.176 67.976C5.536 66.952 5.55733 65.7147 6.24 64.264L23.136 26.824C23.6907 25.5867 24.352 24.712 25.12 24.2C25.9307 23.6453 26.848 23.368 27.872 23.368C28.8533 23.368 29.728 23.6453 30.496 24.2C31.3067 24.712 31.9893 25.5867 32.544 26.824L49.504 64.264C50.1867 65.7573 50.2293 67.016 49.632 68.04C49.0347 69.0213 48.0107 69.512 46.56 69.512C45.3653 69.512 44.4267 69.2347 43.744 68.68C43.104 68.0827 42.528 67.1867 42.016 65.992L38.816 58.568H16.8L13.664 65.992C13.1093 67.2293 12.5333 68.1253 11.936 68.68C11.3387 69.2347 10.4853 69.512 9.376 69.512ZM27.744 32.776L19.616 52.04H36L27.872 32.776H27.744ZM67.305 69C64.4037 69 62.953 67.5493 62.953 64.648V28.232C62.953 25.3307 64.4037 23.88 67.305 23.88H82.665C87.401 23.88 91.0703 24.9253 93.673 27.016C96.2757 29.064 97.577 31.9227 97.577 35.592C97.577 38.024 96.9583 40.1147 95.721 41.864C94.4837 43.6133 92.777 44.8933 90.601 45.704C93.161 46.4293 95.145 47.7093 96.553 49.544C98.0037 51.336 98.729 53.6187 98.729 56.392C98.729 60.4027 97.3637 63.5173 94.633 65.736C91.945 67.912 88.1903 69 83.369 69H67.305ZM70.825 43.016H81.257C86.8463 43.016 89.641 40.8613 89.641 36.552C89.641 32.2427 86.8463 30.088 81.257 30.088H70.825V43.016ZM70.825 62.792H82.345C87.977 62.792 90.793 60.5307 90.793 56.008C90.793 51.4853 87.977 49.224 82.345 49.224H70.825V62.792ZM133.64 69.64C129.288 69.64 125.469 68.68 122.184 66.76C118.941 64.84 116.424 62.152 114.632 58.696C112.84 55.1973 111.944 51.1013 111.944 46.408C111.944 41.672 112.84 37.576 114.632 34.12C116.424 30.664 118.941 27.9973 122.184 26.12C125.426 24.2 129.245 23.24 133.64 23.24C138.034 23.24 141.853 24.2 145.096 26.12C148.338 27.9973 150.856 30.664 152.648 34.12C154.44 37.576 155.336 41.6507 155.336 46.344C155.336 51.08 154.44 55.1973 152.648 58.696C150.856 62.152 148.338 64.84 145.096 66.76C141.853 68.68 138.034 69.64 133.64 69.64ZM133.64 62.6C137.778 62.6 141 61.1707 143.304 58.312C145.608 55.4533 146.76 51.4853 146.76 46.408C146.76 41.288 145.608 37.32 143.304 34.504C141.042 31.688 137.821 30.28 133.64 30.28C129.501 30.28 126.28 31.688 123.976 34.504C121.672 37.32 120.52 41.288 120.52 46.408C120.52 51.4853 121.672 55.4533 123.976 58.312C126.28 61.1707 129.501 62.6 133.64 62.6ZM188.817 69.64C182.631 69.64 177.895 68.04 174.609 64.84C171.367 61.5973 169.745 56.8187 169.745 50.504V27.528C169.745 24.7547 171.111 23.368 173.841 23.368C176.572 23.368 177.937 24.7547 177.937 27.528V50.44C177.937 54.4933 178.855 57.544 180.689 59.592C182.567 61.5973 185.276 62.6 188.817 62.6C196.028 62.6 199.633 58.5467 199.633 50.44V27.528C199.633 24.7547 200.999 23.368 203.729 23.368C206.417 23.368 207.761 24.7547 207.761 27.528V50.504C207.761 56.8187 206.161 61.5973 202.961 64.84C199.761 68.04 195.047 69.64 188.817 69.64ZM238.692 69.512C235.961 69.512 234.596 68.104 234.596 65.288V30.728H222.116C219.769 30.728 218.596 29.576 218.596 27.272C218.596 25.0107 219.769 23.88 222.116 23.88H255.268C257.614 23.88 258.788 25.0107 258.788 27.272C258.788 29.576 257.614 30.728 255.268 30.728H242.788V65.288C242.788 68.104 241.422 69.512 238.692 69.512ZM312.392 69.64C306.206 69.64 301.47 68.04 298.184 64.84C294.942 61.5973 293.32 56.8187 293.32 50.504V27.528C293.32 24.7547 294.686 23.368 297.416 23.368C300.147 23.368 301.512 24.7547 301.512 27.528V50.44C301.512 54.4933 302.43 57.544 304.264 59.592C306.142 61.5973 308.851 62.6 312.392 62.6C319.603 62.6 323.208 58.5467 323.208 50.44V27.528C323.208 24.7547 324.574 23.368 327.304 23.368C329.992 23.368 331.336 24.7547 331.336 27.528V50.504C331.336 56.8187 329.736 61.5973 326.536 64.84C323.336 68.04 318.622 69.64 312.392 69.64ZM362.842 69.64C359.984 69.64 357.189 69.32 354.458 68.68C351.77 68.04 349.424 67.08 347.418 65.8C346.437 65.16 345.84 64.3707 345.626 63.432C345.413 62.4933 345.477 61.6187 345.818 60.808C346.202 59.9547 346.778 59.3787 347.546 59.08C348.357 58.7387 349.274 58.888 350.298 59.528C352.176 60.6373 354.16 61.448 356.25 61.96C358.341 62.472 360.538 62.728 362.842 62.728C366.213 62.728 368.666 62.1733 370.202 61.064C371.738 59.912 372.506 58.44 372.506 56.648C372.506 55.1547 371.952 53.9813 370.842 53.128C369.776 52.2747 367.92 51.5707 365.274 51.016L358.234 49.544C350.213 47.8373 346.202 43.72 346.202 37.192C346.202 34.376 346.949 31.9227 348.442 29.832C349.936 27.7413 352.005 26.12 354.65 24.968C357.296 23.816 360.346 23.24 363.802 23.24C366.362 23.24 368.794 23.56 371.098 24.2C373.402 24.84 375.472 25.7787 377.306 27.016C378.16 27.6133 378.672 28.36 378.842 29.256C379.013 30.1093 378.906 30.92 378.522 31.688C378.138 32.4133 377.52 32.9253 376.666 33.224C375.856 33.48 374.896 33.288 373.786 32.648C372.208 31.752 370.608 31.112 368.986 30.728C367.365 30.344 365.616 30.152 363.738 30.152C360.794 30.152 358.49 30.7707 356.826 32.008C355.162 33.2453 354.33 34.8667 354.33 36.872C354.33 38.408 354.842 39.6453 355.866 40.584C356.89 41.48 358.64 42.184 361.114 42.696L368.09 44.168C372.314 45.064 375.45 46.472 377.498 48.392C379.589 50.312 380.634 52.872 380.634 56.072C380.634 58.76 379.909 61.128 378.458 63.176C377.008 65.224 374.938 66.824 372.25 67.976C369.605 69.0853 366.469 69.64 362.842 69.64Z" fill="#0EB29F"/>
<path d="M6.176 67.976L5.81321 68.2027L6.176 67.976ZM6.24 64.264L6.62715 64.4462L6.62995 64.44L6.24 64.264ZM23.136 26.824L23.526 27L23.5264 26.999L23.136 26.824ZM25.12 24.2L25.3573 24.556L25.3616 24.5531L25.12 24.2ZM30.496 24.2L30.2455 24.5468L30.2563 24.5546L30.2675 24.5617L30.496 24.2ZM32.544 26.824L32.1536 26.999L32.1543 27.0005L32.544 26.824ZM49.504 64.264L49.1143 64.4405L49.1149 64.4419L49.504 64.264ZM49.632 68.04L49.9975 68.2625L50.0015 68.2556L49.632 68.04ZM43.744 68.68L43.4521 68.9928L43.4628 69.0028L43.4742 69.012L43.744 68.68ZM42.016 65.992L42.4092 65.8235L42.4089 65.8227L42.016 65.992ZM38.816 58.568L39.2089 58.3987L39.0975 58.1402H38.816V58.568ZM16.8 58.568V58.1402H16.5163L16.4059 58.4015L16.8 58.568ZM13.664 65.992L14.0545 66.167L14.0581 66.1585L13.664 65.992ZM11.936 68.68L11.6449 68.3665L11.936 68.68ZM27.744 32.776V32.3482H27.4602L27.3498 32.6097L27.744 32.776ZM19.616 52.04L19.2218 51.8737L18.9711 52.4678H19.616V52.04ZM36 52.04V52.4678H36.6449L36.3942 51.8737L36 52.04ZM27.872 32.776L28.2662 32.6097L28.1558 32.3482H27.872V32.776ZM9.376 69.0842C7.98997 69.0842 7.08145 68.6175 6.53879 67.7493L5.81321 68.2027C6.55055 69.3825 7.77536 69.9398 9.376 69.9398V69.0842ZM6.53879 67.7493C6.00037 66.8878 5.98369 65.8134 6.6271 64.4462L5.8529 64.0818C5.13098 65.6159 5.07163 67.0162 5.81321 68.2027L6.53879 67.7493ZM6.62995 64.44L23.526 27L22.746 26.648L5.85005 64.088L6.62995 64.44ZM23.5264 26.999C24.0626 25.8028 24.6808 25.007 25.3573 24.556L24.8827 23.844C24.0232 24.417 23.3187 25.3706 22.7456 26.649L23.5264 26.999ZM25.3616 24.5531C26.098 24.0492 26.9303 23.7958 27.872 23.7958V22.9402C26.7657 22.9402 25.7634 23.2414 24.8784 23.8469L25.3616 24.5531ZM27.872 23.7958C28.7668 23.7958 29.5532 24.0468 30.2455 24.5468L30.7465 23.8532C29.9028 23.2439 28.9398 22.9402 27.872 22.9402V23.7958ZM30.2675 24.5617C30.9832 25.0137 31.6197 25.808 32.1536 26.999L32.9344 26.649C32.359 25.3654 31.6301 24.4103 30.7245 23.8383L30.2675 24.5617ZM32.1543 27.0005L49.1143 64.4405L49.8937 64.0875L32.9337 26.6475L32.1543 27.0005ZM49.1149 64.4419C49.7638 65.8614 49.7649 66.9632 49.2625 67.8244L50.0015 68.2556C50.6938 67.0688 50.6095 65.6533 49.8931 64.0861L49.1149 64.4419ZM49.2666 67.8176C48.7677 68.6371 47.9064 69.0842 46.56 69.0842V69.9398C48.1149 69.9398 49.3016 69.4056 49.9974 68.2624L49.2666 67.8176ZM46.56 69.0842C45.4285 69.0842 44.5968 68.8217 44.0138 68.348L43.4742 69.012C44.2565 69.6477 45.3021 69.9398 46.56 69.9398V69.0842ZM44.0359 68.3672C43.4551 67.8252 42.9082 66.9877 42.4092 65.8235L41.6228 66.1605C42.1478 67.3857 42.7529 68.3402 43.4521 68.9928L44.0359 68.3672ZM42.4089 65.8227L39.2089 58.3987L38.4231 58.7373L41.6231 66.1613L42.4089 65.8227ZM38.816 58.1402H16.8V58.9958H38.816V58.1402ZM16.4059 58.4015L13.2699 65.8255L14.0581 66.1585L17.1941 58.7345L16.4059 58.4015ZM13.2736 65.817C12.7289 67.0322 12.1813 67.8684 11.6449 68.3665L12.2271 68.9935C12.8854 68.3823 13.4898 67.4265 14.0544 66.167L13.2736 65.817ZM11.6449 68.3665C11.1515 68.8246 10.4169 69.0842 9.376 69.0842V69.9398C10.5538 69.9398 11.5258 69.6447 12.2271 68.9935L11.6449 68.3665ZM27.3498 32.6097L19.2218 51.8737L20.0102 52.2063L28.1382 32.9423L27.3498 32.6097ZM19.616 52.4678H36V51.6122H19.616V52.4678ZM36.3942 51.8737L28.2662 32.6097L27.4778 32.9423L35.6058 52.2063L36.3942 51.8737ZM27.872 32.3482H27.744V33.2038H27.872V32.3482ZM93.673 27.016L93.4051 27.3496L93.4084 27.3522L93.673 27.016ZM95.721 41.864L96.0703 42.111L95.721 41.864ZM90.601 45.704L90.4516 45.3031L89.227 45.7593L90.4844 46.1156L90.601 45.704ZM96.553 49.544L96.2135 49.8046L96.2205 49.8132L96.553 49.544ZM94.633 65.736L94.9022 66.0685L94.9028 66.068L94.633 65.736ZM70.825 43.016H70.3972V43.4438H70.825V43.016ZM70.825 30.088V29.6602H70.3972V30.088H70.825ZM70.825 62.792H70.3972V63.2198H70.825V62.792ZM70.825 49.224V48.7962H70.3972V49.224H70.825ZM67.305 68.5722C65.9203 68.5722 64.9603 68.2263 64.3435 67.6095C63.7267 66.9927 63.3808 66.0327 63.3808 64.648H62.5252C62.5252 66.1646 62.9046 67.3807 63.7385 68.2145C64.5723 69.0484 65.7884 69.4278 67.305 69.4278V68.5722ZM63.3808 64.648V28.232H62.5252V64.648H63.3808ZM63.3808 28.232C63.3808 26.8473 63.7267 25.8873 64.3435 25.2705C64.9603 24.6537 65.9203 24.3078 67.305 24.3078V23.4522C65.7884 23.4522 64.5723 23.8316 63.7385 24.6655C62.9046 25.4993 62.5252 26.7154 62.5252 28.232H63.3808ZM67.305 24.3078H82.665V23.4522H67.305V24.3078ZM82.665 24.3078C87.3435 24.3078 90.9046 25.3409 93.4051 27.3495L93.9409 26.6825C91.2361 24.5097 87.4585 23.4522 82.665 23.4522V24.3078ZM93.4084 27.3522C95.896 29.3096 97.1492 32.0377 97.1492 35.592H98.0048C98.0048 31.8077 96.6554 28.8184 93.9376 26.6798L93.4084 27.3522ZM97.1492 35.592C97.1492 37.9479 96.5512 39.9494 95.3717 41.6169L96.0703 42.111C97.3654 40.28 98.0048 38.1001 98.0048 35.592H97.1492ZM95.3717 41.6169C94.1882 43.2901 92.5541 44.5198 90.4516 45.3031L90.7504 46.1049C92.9999 45.2668 94.7791 43.9365 96.0703 42.111L95.3717 41.6169ZM90.4844 46.1156C92.9697 46.8198 94.8699 48.0535 96.2136 49.8045L96.8924 49.2835C95.4202 47.3652 93.3523 46.0389 90.7176 45.2924L90.4844 46.1156ZM96.2205 49.8132C97.5977 51.5144 98.3012 53.696 98.3012 56.392H99.1568C99.1568 53.5413 98.4097 51.1576 96.8855 49.2748L96.2205 49.8132ZM98.3012 56.392C98.3012 60.2941 96.9791 63.2785 94.3632 65.404L94.9028 66.068C97.7482 63.7561 99.1568 60.5112 99.1568 56.392H98.3012ZM94.3638 65.4035C91.7771 67.4975 88.1304 68.5722 83.369 68.5722V69.4278C88.2502 69.4278 92.1129 68.3265 94.9022 66.0685L94.3638 65.4035ZM83.369 68.5722H67.305V69.4278H83.369V68.5722ZM70.825 43.4438H81.257V42.5882H70.825V43.4438ZM81.257 43.4438C84.0947 43.4438 86.3015 42.8989 87.8062 41.7388C89.332 40.5624 90.0688 38.8067 90.0688 36.552H89.2132C89.2132 38.6066 88.5527 40.0829 87.2838 41.0612C85.9938 42.0557 84.0086 42.5882 81.257 42.5882V43.4438ZM90.0688 36.552C90.0688 34.2973 89.332 32.5416 87.8062 31.3652C86.3015 30.2051 84.0947 29.6602 81.257 29.6602V30.5158C84.0086 30.5158 85.9938 31.0482 87.2838 32.0428C88.5527 33.0211 89.2132 34.4974 89.2132 36.552H90.0688ZM81.257 29.6602H70.825V30.5158H81.257V29.6602ZM70.3972 30.088V43.016H71.2528V30.088H70.3972ZM70.825 63.2198H82.345V62.3642H70.825V63.2198ZM82.345 63.2198C85.207 63.2198 87.4327 62.6471 88.9489 61.4296C90.483 60.1977 91.2208 58.3632 91.2208 56.008H90.3652C90.3652 58.1755 89.695 59.733 88.4131 60.7624C87.1133 61.8062 85.115 62.3642 82.345 62.3642V63.2198ZM91.2208 56.008C91.2208 53.6528 90.483 51.8183 88.9489 50.5864C87.4327 49.3689 85.207 48.7962 82.345 48.7962V49.6518C85.115 49.6518 87.1133 50.2098 88.4131 51.2536C89.695 52.283 90.3652 53.8405 90.3652 56.008H91.2208ZM82.345 48.7962H70.825V49.6518H82.345V48.7962ZM70.3972 49.224V62.792H71.2528V49.224H70.3972ZM122.184 66.76L121.966 67.1281L121.968 67.1294L122.184 66.76ZM114.632 58.696L114.251 58.891L114.252 58.8929L114.632 58.696ZM114.632 34.12L115.011 34.3169L114.632 34.12ZM122.184 26.12L122.398 26.4903L122.401 26.4881L122.184 26.12ZM145.096 26.12L144.878 26.4881L144.881 26.4902L145.096 26.12ZM152.648 34.12L153.027 33.9231L152.648 34.12ZM152.648 58.696L153.027 58.8929L153.028 58.891L152.648 58.696ZM145.096 66.76L145.313 67.1281L145.096 66.76ZM143.303 58.312L142.97 58.0435L143.303 58.312ZM143.303 34.504L142.97 34.7719L142.972 34.7749L143.303 34.504ZM123.976 34.504L123.644 34.2331L123.976 34.504ZM123.976 58.312L124.309 58.0435L123.976 58.312ZM133.639 69.2122C129.352 69.2122 125.61 68.2671 122.399 66.3906L121.968 67.1294C125.327 69.0929 129.223 70.0678 133.639 70.0678V69.2122ZM122.401 66.3919C119.23 64.5141 116.768 61.8865 115.011 58.4991L114.252 58.8929C116.079 62.4175 118.652 65.1659 121.966 67.1281L122.401 66.3919ZM115.012 58.501C113.257 55.0733 112.371 51.0466 112.371 46.408H111.516C111.516 51.1561 112.422 55.3214 114.251 58.891L115.012 58.501ZM112.371 46.408C112.371 41.7259 113.257 37.7003 115.011 34.3169L114.252 33.9231C112.422 37.4517 111.516 41.6181 111.516 46.408H112.371ZM115.011 34.3169C116.767 30.9303 119.229 28.3251 122.398 26.4902L121.969 25.7498C118.653 27.6696 116.08 30.3977 114.252 33.9231L115.011 34.3169ZM122.401 26.4881C125.568 24.6133 129.309 23.6678 133.639 23.6678V22.8122C129.181 22.8122 125.284 23.7867 121.966 25.7519L122.401 26.4881ZM133.639 23.6678C137.97 23.6678 141.711 24.6133 144.878 26.4881L145.313 25.7519C141.995 23.7867 138.098 22.8122 133.639 22.8122V23.6678ZM144.881 26.4902C148.05 28.3251 150.512 30.9303 152.268 34.3169L153.027 33.9231C151.199 30.3977 148.626 27.6696 145.31 25.7498L144.881 26.4902ZM152.268 34.3169C154.022 37.7008 154.908 41.7052 154.908 46.344H155.763C155.763 41.5961 154.857 37.4512 153.027 33.9231L152.268 34.3169ZM154.908 46.344C154.908 51.0259 154.022 55.0738 152.267 58.501L153.028 58.891C154.857 55.3208 155.763 51.1341 155.763 46.344H154.908ZM152.268 58.4991C150.511 61.8865 148.049 64.5141 144.878 66.3919L145.313 67.1281C148.627 65.1659 151.2 62.4175 153.027 58.8929L152.268 58.4991ZM144.878 66.3919C141.711 68.2667 137.97 69.2122 133.639 69.2122V70.0678C138.098 70.0678 141.995 69.0933 145.313 67.1281L144.878 66.3919ZM133.639 63.0278C137.889 63.0278 141.24 61.5536 143.637 58.5805L142.97 58.0435C140.759 60.7878 137.667 62.1722 133.639 62.1722V63.0278ZM143.637 58.5805C146.022 55.6212 147.187 51.546 147.187 46.408H146.332C146.332 51.4246 145.193 55.2854 142.97 58.0435L143.637 58.5805ZM147.187 46.408C147.187 41.2288 146.022 37.1514 143.635 34.2331L142.972 34.7749C145.193 37.4886 146.332 41.3472 146.332 46.408H147.187ZM143.637 34.2361C141.281 31.3024 137.928 29.8522 133.639 29.8522V30.7078C137.714 30.7078 140.803 32.0736 142.97 34.7719L143.637 34.2361ZM133.639 29.8522C129.392 29.8522 126.041 31.3034 123.644 34.2331L124.307 34.7749C126.518 32.0726 129.609 30.7078 133.639 30.7078V29.8522ZM123.644 34.2331C121.257 37.1514 120.092 41.2288 120.092 46.408H120.947C120.947 41.3472 122.086 37.4886 124.307 34.7749L123.644 34.2331ZM120.092 46.408C120.092 51.546 121.257 55.6212 123.642 58.5805L124.309 58.0435C122.086 55.2854 120.947 51.4246 120.947 46.408H120.092ZM123.642 58.5805C126.039 61.5536 129.39 63.0278 133.639 63.0278V62.1722C129.612 62.1722 126.52 60.7878 124.309 58.0435L123.642 58.5805ZM174.609 64.84L174.307 65.1425L174.311 65.1465L174.609 64.84ZM180.689 59.592L180.371 59.8775L180.377 59.8844L180.689 59.592ZM202.962 64.84L203.264 65.1425L203.266 65.1405L202.962 64.84ZM188.818 69.2122C182.702 69.2122 178.089 67.6317 174.908 64.5335L174.311 65.1465C177.701 68.4483 182.559 70.0678 188.818 70.0678V69.2122ZM174.912 64.5375C171.776 61.4014 170.173 56.7489 170.173 50.504H169.318C169.318 56.8885 170.958 61.7933 174.307 65.1425L174.912 64.5375ZM170.173 50.504V27.528H169.318V50.504H170.173ZM170.173 27.528C170.173 26.2056 170.499 25.2927 171.074 24.7082C171.649 24.1248 172.544 23.7958 173.841 23.7958V22.9402C172.409 22.9402 171.256 23.3045 170.465 24.1078C169.675 24.9099 169.318 26.077 169.318 27.528H170.173ZM173.841 23.7958C175.139 23.7958 176.034 24.1248 176.609 24.7082C177.184 25.2927 177.51 26.2056 177.51 27.528H178.365C178.365 26.077 178.008 24.9099 177.218 24.1078C176.427 23.3045 175.274 22.9402 173.841 22.9402V23.7958ZM177.51 27.528V50.44H178.365V27.528H177.51ZM177.51 50.44C177.51 54.5498 178.439 57.7209 180.371 59.8775L181.008 59.3065C179.271 57.3671 178.365 54.4369 178.365 50.44H177.51ZM180.377 59.8844C182.357 61.9994 185.194 63.0278 188.818 63.0278V62.1722C185.358 62.1722 182.776 61.1953 181.002 59.2996L180.377 59.8844ZM188.818 63.0278C192.503 63.0278 195.341 61.9898 197.249 59.8443C199.149 57.7085 200.061 54.5477 200.061 50.44H199.206C199.206 54.4389 198.315 57.3582 196.61 59.2757C194.913 61.1836 192.343 62.1722 188.818 62.1722V63.0278ZM200.061 50.44V27.528H199.206V50.44H200.061ZM200.061 27.528C200.061 26.2056 200.387 25.2927 200.962 24.7082C201.537 24.1248 202.432 23.7958 203.729 23.7958V22.9402C202.297 22.9402 201.144 23.3045 200.353 24.1078C199.563 24.9099 199.206 26.077 199.206 27.528H200.061ZM203.729 23.7958C205.004 23.7958 205.882 24.1238 206.446 24.7057C207.013 25.2902 207.334 26.204 207.334 27.528H208.189C208.189 26.0787 207.838 24.9125 207.061 24.1102C206.281 23.3055 205.143 22.9402 203.729 22.9402V23.7958ZM207.334 27.528V50.504H208.189V27.528H207.334ZM207.334 50.504C207.334 56.7503 205.752 61.4036 202.657 64.5395L203.266 65.1405C206.571 61.791 208.189 56.887 208.189 50.504H207.334ZM202.659 64.5375C199.566 67.6309 194.977 69.2122 188.818 69.2122V70.0678C195.117 70.0678 199.957 68.4491 203.264 65.1425L202.659 64.5375ZM234.596 30.728H235.023V30.3002H234.596V30.728ZM242.788 30.728V30.3002H242.36V30.728H242.788ZM238.692 69.0842C237.396 69.0842 236.501 68.7508 235.927 68.1582C235.35 67.5631 235.023 66.6333 235.023 65.288H234.168C234.168 66.7587 234.524 67.9409 235.312 68.7538C236.103 69.5692 237.257 69.9398 238.692 69.9398V69.0842ZM235.023 65.288V30.728H234.168V65.288H235.023ZM234.596 30.3002H222.116V31.1558H234.596V30.3002ZM222.116 30.3002C221.006 30.3002 220.253 30.0279 219.775 29.5587C219.299 29.0909 219.023 28.356 219.023 27.272H218.168C218.168 28.492 218.479 29.4851 219.176 30.1693C219.871 30.8521 220.878 31.1558 222.116 31.1558V30.3002ZM219.023 27.272C219.023 26.2114 219.298 25.4935 219.772 25.0361C220.25 24.5757 221.004 24.3078 222.116 24.3078V23.4522C220.88 23.4522 219.874 23.7496 219.179 24.4199C218.48 25.0931 218.168 26.0713 218.168 27.272H219.023ZM222.116 24.3078H255.268V23.4522H222.116V24.3078ZM255.268 24.3078C256.379 24.3078 257.133 24.5757 257.611 25.0361C258.085 25.4935 258.36 26.2114 258.36 27.272H259.215C259.215 26.0713 258.903 25.0931 258.204 24.4199C257.509 23.7496 256.503 23.4522 255.268 23.4522V24.3078ZM258.36 27.272C258.36 28.356 258.084 29.0909 257.608 29.5587C257.13 30.0279 256.377 30.3002 255.268 30.3002V31.1558C256.505 31.1558 257.512 30.8521 258.207 30.1693C258.904 29.4851 259.215 28.492 259.215 27.272H258.36ZM255.268 30.3002H242.788V31.1558H255.268V30.3002ZM242.36 30.728V65.288H243.215V30.728H242.36ZM242.36 65.288C242.36 66.6333 242.033 67.5631 241.456 68.1582C240.882 68.7508 239.987 69.0842 238.692 69.0842V69.9398C240.126 69.9398 241.28 69.5692 242.071 68.7538C242.859 67.9409 243.215 66.7587 243.215 65.288H242.36ZM298.185 64.84L297.882 65.1425L297.886 65.1465L298.185 64.84ZM304.264 59.592L303.946 59.8775L303.952 59.8844L304.264 59.592ZM326.536 64.84L326.839 65.1425L326.841 65.1405L326.536 64.84ZM312.392 69.2122C306.277 69.2122 301.664 67.6317 298.483 64.5335L297.886 65.1465C301.276 68.4483 306.134 70.0678 312.392 70.0678V69.2122ZM298.487 64.5375C295.351 61.4014 293.748 56.7489 293.748 50.504H292.893C292.893 56.8885 294.533 61.7933 297.882 65.1425L298.487 64.5375ZM293.748 50.504V27.528H292.893V50.504H293.748ZM293.748 27.528C293.748 26.2056 294.074 25.2927 294.649 24.7082C295.224 24.1248 296.119 23.7958 297.417 23.7958V22.9402C295.984 22.9402 294.831 23.3045 294.04 24.1078C293.25 24.9099 292.893 26.077 292.893 27.528H293.748ZM297.417 23.7958C298.714 23.7958 299.609 24.1248 300.184 24.7082C300.759 25.2927 301.085 26.2056 301.085 27.528H301.94C301.94 26.077 301.583 24.9099 300.793 24.1078C300.002 23.3045 298.849 22.9402 297.417 22.9402V23.7958ZM301.085 27.528V50.44H301.94V27.528H301.085ZM301.085 50.44C301.085 54.5498 302.014 57.7209 303.946 59.8775L304.583 59.3065C302.846 57.3671 301.94 54.4369 301.94 50.44H301.085ZM303.952 59.8844C305.932 61.9994 308.769 63.0278 312.392 63.0278V62.1722C308.933 62.1722 306.351 61.1953 304.577 59.2996L303.952 59.8844ZM312.392 63.0278C316.078 63.0278 318.916 61.9898 320.824 59.8443C322.724 57.7085 323.636 54.5477 323.636 50.44H322.781C322.781 54.4389 321.89 57.3582 320.185 59.2757C318.488 61.1836 315.918 62.1722 312.392 62.1722V63.0278ZM323.636 50.44V27.528H322.781V50.44H323.636ZM323.636 27.528C323.636 26.2056 323.962 25.2927 324.537 24.7082C325.112 24.1248 326.007 23.7958 327.305 23.7958V22.9402C325.872 22.9402 324.719 23.3045 323.928 24.1078C323.138 24.9099 322.781 26.077 322.781 27.528H323.636ZM327.305 23.7958C328.579 23.7958 329.457 24.1238 330.021 24.7057C330.588 25.2902 330.909 26.204 330.909 27.528H331.764C331.764 26.0787 331.413 24.9125 330.636 24.1102C329.856 23.3055 328.718 22.9402 327.305 22.9402V23.7958ZM330.909 27.528V50.504H331.764V27.528H330.909ZM330.909 50.504C330.909 56.7503 329.327 61.4036 326.232 64.5395L326.841 65.1405C330.146 61.791 331.764 56.887 331.764 50.504H330.909ZM326.234 64.5375C323.141 67.6309 318.552 69.2122 312.392 69.2122V70.0678C318.692 70.0678 323.532 68.4491 326.839 65.1425L326.234 64.5375ZM354.458 68.68L354.359 69.0962L354.361 69.0965L354.458 68.68ZM347.418 65.8L347.185 66.1584L347.188 66.1606L347.418 65.8ZM345.818 60.808L345.428 60.6324L345.424 60.642L345.818 60.808ZM347.546 59.08L347.702 59.4789L347.712 59.4743L347.546 59.08ZM350.298 59.528L350.072 59.8909L350.081 59.8963L350.298 59.528ZM370.202 61.064L370.453 61.4109L370.459 61.4063L370.202 61.064ZM370.842 53.128L370.575 53.4621L370.582 53.4671L370.842 53.128ZM365.274 51.016L365.362 50.5973L365.362 50.5972L365.274 51.016ZM358.234 49.544L358.145 49.9625L358.147 49.9628L358.234 49.544ZM348.442 29.832L348.094 29.5833L348.442 29.832ZM354.65 24.968L354.48 24.5758L354.65 24.968ZM371.098 24.2L371.213 23.7878L371.098 24.2ZM377.306 27.016L377.552 26.6655L377.546 26.6613L377.306 27.016ZM378.842 29.256L378.422 29.3361L378.423 29.3399L378.842 29.256ZM378.522 31.688L378.901 31.8882L378.905 31.8793L378.522 31.688ZM376.667 33.224L376.795 33.6322L376.808 33.6278L376.667 33.224ZM373.786 32.648L374 32.2774L373.998 32.2759L373.786 32.648ZM368.986 30.728L368.888 31.1443L368.986 30.728ZM356.826 32.008L357.082 32.3513V32.3513L356.826 32.008ZM355.866 40.584L355.577 40.8995L355.585 40.906L355.866 40.584ZM361.115 42.696L361.203 42.2774L361.201 42.2771L361.115 42.696ZM368.09 44.168L368.179 43.7495L368.179 43.7494L368.09 44.168ZM377.498 48.392L377.206 48.7041L377.209 48.7071L377.498 48.392ZM378.458 63.176L378.109 62.9287L378.458 63.176ZM372.25 67.976L372.416 68.3705L372.419 68.3692L372.25 67.976ZM362.842 69.2122C360.016 69.2122 357.254 68.8958 354.556 68.2635L354.361 69.0965C357.124 69.7442 359.952 70.0678 362.842 70.0678V69.2122ZM354.558 68.2638C351.909 67.6331 349.608 66.6899 347.649 65.4394L347.188 66.1606C349.24 67.4701 351.632 68.4469 354.359 69.0962L354.558 68.2638ZM347.652 65.4417C346.742 64.8484 346.227 64.1449 346.044 63.3372L345.209 63.5268C345.452 64.5964 346.132 65.4716 347.185 66.1583L347.652 65.4417ZM346.044 63.3372C345.848 62.4771 345.909 61.6945 346.213 60.974L345.424 60.642C345.045 61.5429 344.978 62.5096 345.209 63.5268L346.044 63.3372ZM346.209 60.9836C346.553 60.2175 347.053 59.7311 347.702 59.4787L347.391 58.6813C346.504 59.0262 345.852 59.6918 345.428 60.6324L346.209 60.9836ZM347.712 59.4743C348.351 59.2056 349.118 59.2947 350.072 59.8908L350.525 59.1652C349.431 58.4813 348.364 58.2717 347.38 58.6857L347.712 59.4743ZM350.081 59.8963C351.994 61.0267 354.017 61.8534 356.149 62.3755L356.352 61.5445C354.303 61.0426 352.358 60.248 350.516 59.1597L350.081 59.8963ZM356.149 62.3755C358.275 62.8962 360.507 63.1558 362.842 63.1558V62.3002C360.57 62.3002 358.407 62.0477 356.352 61.5445L356.149 62.3755ZM362.842 63.1558C366.241 63.1558 368.806 62.6001 370.453 61.4108L369.952 60.7172C368.527 61.7466 366.185 62.3002 362.842 62.3002V63.1558ZM370.459 61.4063C372.094 60.1802 372.934 58.5855 372.934 56.648H372.079C372.079 58.2945 371.383 59.6438 369.946 60.7217L370.459 61.4063ZM372.934 56.648C372.934 55.0322 372.326 53.7293 371.103 52.7889L370.582 53.4671C371.578 54.2334 372.079 55.2772 372.079 56.648H372.934ZM371.11 52.7939C369.961 51.8748 368.021 51.1548 365.362 50.5973L365.187 51.4347C367.819 51.9866 369.591 52.6745 370.575 53.4621L371.11 52.7939ZM365.362 50.5972L358.322 49.1252L358.147 49.9628L365.187 51.4348L365.362 50.5972ZM358.324 49.1255C354.362 48.2826 351.443 46.8548 349.517 44.8775C347.6 42.9097 346.63 40.3609 346.63 37.192H345.775C345.775 40.5511 346.81 43.3249 348.904 45.4745C350.989 47.6145 354.086 49.0987 358.145 49.9625L358.324 49.1255ZM346.63 37.192C346.63 34.4562 347.354 32.0918 348.791 30.0807L348.094 29.5833C346.544 31.7536 345.775 34.2958 345.775 37.192H346.63ZM348.791 30.0807C350.234 28.0605 352.238 26.4852 354.821 25.3602L354.48 24.5758C351.772 25.7548 349.638 27.4221 348.094 29.5833L348.791 30.0807ZM354.821 25.3602C357.403 24.2359 360.394 23.6678 363.802 23.6678V22.8122C360.299 22.8122 357.188 23.3961 354.48 24.5758L354.821 25.3602ZM363.802 23.6678C366.327 23.6678 368.72 23.9833 370.984 24.6122L371.213 23.7878C368.869 23.1367 366.398 22.8122 363.802 22.8122V23.6678ZM370.984 24.6122C373.247 25.2409 375.274 26.1611 377.067 27.3707L377.546 26.6613C375.67 25.3962 373.558 24.4391 371.213 23.7878L370.984 24.6122ZM377.061 27.3665C377.837 27.9097 378.275 28.5653 378.422 29.336L379.263 29.1759C379.068 28.1547 378.482 27.3169 377.552 26.6655L377.061 27.3665ZM378.423 29.3399C378.575 30.1013 378.481 30.815 378.14 31.4967L378.905 31.8793C379.332 31.025 379.451 30.1174 379.262 29.1721L378.423 29.3399ZM378.144 31.4878C377.816 32.1079 377.288 32.5532 376.525 32.8202L376.808 33.6278C377.752 33.2974 378.461 32.7188 378.901 31.8882L378.144 31.4878ZM376.538 32.816C375.889 33.021 375.058 32.8878 374 32.2774L373.573 33.0186C374.733 33.6882 375.823 33.939 376.795 33.632L376.538 32.816ZM373.998 32.2759C372.387 31.3617 370.749 30.7058 369.085 30.3117L368.888 31.1443C370.466 31.5182 372.029 32.1423 373.575 33.0201L373.998 32.2759ZM369.085 30.3117C367.428 29.9191 365.645 29.7242 363.738 29.7242V30.5798C365.587 30.5798 367.303 30.7688 368.888 31.1443L369.085 30.3117ZM363.738 29.7242C360.74 29.7242 358.334 30.3537 356.571 31.6647L357.082 32.3513C358.647 31.1876 360.849 30.5798 363.738 30.5798V29.7242ZM356.571 31.6647C354.803 32.9795 353.903 34.7261 353.903 36.872H354.758C354.758 35.0073 355.522 33.5112 357.082 32.3513L356.571 31.6647ZM353.903 36.872C353.903 38.5138 354.455 39.8706 355.577 40.8994L356.156 40.2686C355.23 39.4201 354.758 38.3022 354.758 36.872H353.903ZM355.585 40.906C356.694 41.8766 358.533 42.5988 361.028 43.1149L361.201 42.2771C358.746 41.7692 357.087 41.0834 356.148 40.262L355.585 40.906ZM361.026 43.1146L368.002 44.5866L368.179 43.7494L361.203 42.2774L361.026 43.1146ZM368.002 44.5865C372.187 45.4743 375.238 46.8589 377.206 48.7041L377.791 48.0799C375.663 46.0851 372.442 44.6537 368.179 43.7495L368.002 44.5865ZM377.209 48.7071C379.2 50.5353 380.207 52.9749 380.207 56.072H381.062C381.062 52.7691 379.978 50.0887 377.788 48.0769L377.209 48.7071ZM380.207 56.072C380.207 58.6781 379.505 60.9582 378.109 62.9287L378.808 63.4233C380.313 61.2978 381.062 58.8419 381.062 56.072H380.207ZM378.109 62.9287C376.711 64.9023 374.71 66.4566 372.082 67.5828L372.419 68.3692C375.167 67.1914 377.304 65.5457 378.808 63.4233L378.109 62.9287ZM372.085 67.5815C369.504 68.6639 366.427 69.2122 362.842 69.2122V70.0678C366.512 70.0678 369.706 69.5068 372.416 68.3705L372.085 67.5815Z" fill="#0EB29F"/>
</svg>
