<svg width="1281" height="1139" viewBox="0 0 1281 1139" fill="none" xmlns="http://www.w3.org/2000/svg">
<g opacity="0.5">
<circle opacity="0.08" cx="156.5" cy="531.5" r="141.5" stroke="#0E9384" stroke-width="30"/>
<path opacity="0.08" d="M145.793 1035.6C147.02 1035.91 148.301 1036 149.575 1035.86C151.083 1035.7 152.538 1035.21 153.84 1034.44C153.841 1034.44 153.843 1034.44 153.844 1034.44L278.955 959.875L353.763 1084.84L353.766 1084.84C354.546 1086.14 355.597 1087.26 356.847 1088.12C357.902 1088.84 359.074 1089.37 360.301 1089.68C362.932 1090.34 365.813 1090.01 368.325 1088.51L427.426 1053.29C431.11 1051.09 432.967 1047.02 432.521 1043.02C432.357 1041.51 431.869 1040.06 431.092 1038.76L431.092 1038.76C431.091 1038.76 431.09 1038.76 431.089 1038.75L356.282 913.792L481.392 839.232L481.397 839.23C482.698 838.453 483.816 837.405 484.674 836.157C486.961 832.848 487.259 828.379 485.056 824.699L449.717 765.668C448.215 763.159 445.837 761.498 443.207 760.835C441.98 760.525 440.699 760.433 439.425 760.573C437.917 760.736 436.462 761.22 435.159 761.994C435.159 761.996 435.157 761.996 435.155 761.997L310.045 836.558L235.237 711.595L235.234 711.591C234.455 710.292 233.404 709.175 232.153 708.318C231.098 707.59 229.925 707.064 228.699 706.754C226.068 706.091 223.187 706.427 220.675 707.924L161.573 743.145C157.889 745.341 156.033 749.417 156.479 753.415C156.643 754.92 157.13 756.373 157.907 757.674C157.908 757.675 157.909 757.676 157.909 757.678L232.718 882.64L107.607 957.2L107.604 957.203C106.303 957.98 105.185 959.028 104.326 960.275C102.038 963.584 101.74 968.053 103.943 971.733L139.282 1030.76C140.785 1033.27 143.163 1034.93 145.793 1035.6ZM138.898 1062.95C128.832 1060.41 120.355 1054.11 115.029 1045.22L79.6889 986.188C71.8992 973.175 72.4393 956.708 81.0647 944.234C84.2112 939.665 88.2622 935.868 93.0744 932.993L193.962 872.869L133.655 772.132C130.761 767.286 128.993 762.016 128.385 756.442C126.714 741.436 134.046 726.682 147.071 718.92L206.172 683.699C215.081 678.391 225.529 676.866 235.594 679.404C240.119 680.544 244.359 682.465 248.197 685.11C252.773 688.248 256.587 692.3 259.475 697.114L319.796 797.878L420.653 737.772C425.504 734.887 430.783 733.127 436.369 732.526C440.937 732.024 445.579 732.344 450.102 733.484C460.168 736.022 468.644 742.317 473.97 751.211L509.31 810.244C517.099 823.254 516.56 839.721 507.937 852.194C504.799 856.76 500.74 860.565 495.916 863.445L395.039 923.563L455.343 1024.3C458.234 1029.13 460.005 1034.41 460.614 1039.99C462.286 1055 454.954 1069.75 441.927 1077.51L382.828 1112.73C373.926 1118.04 363.475 1119.57 353.406 1117.03C348.882 1115.89 344.642 1113.97 340.805 1111.32C336.222 1108.18 332.411 1104.13 329.525 1099.32L269.204 998.555L168.347 1058.66C163.494 1061.54 158.218 1063.3 152.637 1063.91C148.064 1064.41 143.421 1064.09 138.898 1062.95Z" fill="#0E9384"/>
<path opacity="0.08" d="M912.345 1116.47C913.194 1116.45 914.039 1116.28 914.839 1115.97C915.785 1115.61 916.641 1115.04 917.346 1114.32C917.346 1114.32 917.347 1114.32 917.348 1114.32L985.042 1045.12L1055.69 1111.3L1055.69 1111.3C1056.43 1111.99 1057.31 1112.52 1058.27 1112.84C1059.08 1113.12 1059.93 1113.25 1060.78 1113.23C1062.6 1113.19 1064.41 1112.47 1065.77 1111.08L1097.75 1078.39C1099.74 1076.35 1100.22 1073.44 1099.22 1070.98C1098.84 1070.06 1098.27 1069.22 1097.53 1068.53L1097.53 1068.53C1097.53 1068.53 1097.53 1068.53 1097.53 1068.53L1026.88 1002.35L1094.58 933.144L1094.58 933.141C1095.28 932.421 1095.82 931.56 1096.15 930.618C1097.04 928.119 1096.44 925.231 1094.36 923.282L1060.99 892.018C1059.57 890.689 1057.73 890.051 1055.91 890.091C1055.06 890.11 1054.22 890.275 1053.42 890.587C1052.47 890.954 1051.62 891.516 1050.91 892.236C1050.91 892.236 1050.91 892.237 1050.91 892.238L983.215 961.441L912.566 895.258L912.564 895.256C911.828 894.568 910.95 894.043 909.988 893.718C909.175 893.441 908.323 893.313 907.474 893.331C905.654 893.371 903.849 894.088 902.49 895.478L870.511 928.169C868.518 930.206 868.042 933.117 869.042 935.576C869.416 936.502 869.99 937.338 870.724 938.028C870.725 938.028 870.726 938.029 870.726 938.03L941.376 1004.21L873.681 1073.42L873.68 1073.42C872.976 1074.14 872.439 1075 872.105 1075.94C871.214 1078.44 871.816 1081.33 873.897 1083.28L907.271 1114.54C908.69 1115.87 910.524 1116.51 912.345 1116.47ZM912.75 1135.03C905.784 1135.18 899.178 1132.67 894.149 1127.96L860.773 1096.69C853.417 1089.8 850.836 1079.26 854.198 1069.84C855.421 1066.39 857.367 1063.27 859.969 1060.6L914.557 1004.8L857.603 951.446C854.868 948.878 852.786 945.844 851.401 942.414C847.648 933.186 849.767 922.543 856.815 915.338L888.793 882.647C893.614 877.72 900.104 874.924 907.069 874.772C910.2 874.704 913.286 875.18 916.24 876.187C919.76 877.376 922.949 879.279 925.675 881.828L982.643 935.195L1037.21 879.408C1039.84 876.728 1042.94 874.688 1046.45 873.328C1049.32 872.21 1052.38 871.6 1055.51 871.532C1062.47 871.38 1069.08 873.89 1074.11 878.601L1107.48 909.866C1114.84 916.757 1117.42 927.298 1114.06 936.72C1112.84 940.166 1110.89 943.291 1108.28 945.962L1053.7 1001.76L1110.65 1055.11C1113.38 1057.67 1115.47 1060.71 1116.86 1064.14C1120.61 1073.37 1118.49 1084.02 1111.44 1091.22L1079.46 1123.91C1074.65 1128.84 1068.16 1131.64 1061.19 1131.79C1058.06 1131.86 1054.97 1131.38 1052.02 1130.37C1048.49 1129.18 1045.31 1127.28 1042.58 1124.73L985.615 1071.36L931.044 1127.15C928.417 1129.83 925.316 1131.87 921.812 1133.23C918.941 1134.35 915.88 1134.96 912.75 1135.03Z" fill="#0E9384"/>
<path opacity="0.08" d="M839.706 830.762C839.887 830.391 839.999 829.986 840.033 829.567C840.074 829.07 840.004 828.567 839.828 828.091C839.828 828.091 839.828 828.09 839.827 828.09L822.865 782.391L869.305 767.578L869.306 767.577C869.789 767.422 870.229 767.167 870.594 766.829C870.904 766.544 871.154 766.206 871.334 765.834C871.722 765.038 871.793 764.088 871.452 763.17L863.439 741.583C862.94 740.237 861.697 739.339 860.334 739.187C859.822 739.129 859.306 739.179 858.823 739.332L858.823 739.332C858.822 739.333 858.821 739.333 858.821 739.333L812.381 754.146L795.419 708.448L795.418 708.446C795.241 707.971 794.962 707.534 794.6 707.166C793.641 706.187 792.168 705.762 790.8 706.198L768.863 713.196C767.93 713.493 767.225 714.135 766.838 714.931C766.657 715.302 766.545 715.707 766.511 716.127C766.47 716.623 766.539 717.126 766.715 717.602C766.716 717.602 766.716 717.603 766.716 717.603L783.678 763.302L737.239 778.115L737.237 778.116C736.754 778.27 736.315 778.526 735.95 778.864C735.64 779.15 735.39 779.487 735.209 779.859C734.821 780.655 734.751 781.605 735.091 782.523L743.104 804.111C743.604 805.456 744.847 806.354 746.209 806.505C746.722 806.564 747.237 806.514 747.721 806.361C747.721 806.361 747.722 806.361 747.722 806.36L794.162 791.547L811.125 837.246L811.125 837.247C811.302 837.722 811.581 838.159 811.943 838.527C812.902 839.506 814.375 839.932 815.743 839.495L837.68 832.497C838.613 832.2 839.318 831.559 839.706 830.762ZM848.397 834.996C846.913 838.043 844.275 840.302 840.97 841.356L819.031 848.355C814.195 849.897 808.734 848.508 805.117 844.817C803.792 843.468 802.781 841.887 802.126 840.129L788.448 803.278L751.011 815.22C749.21 815.792 747.34 815.971 745.441 815.755C740.327 815.185 735.867 811.74 734.101 806.982L726.089 785.395C724.881 782.141 725.034 778.671 726.518 775.625C727.185 774.255 728.094 773.035 729.22 771.997C730.557 770.758 732.151 769.832 733.94 769.259L771.387 757.315L757.713 720.475C757.057 718.704 756.804 716.878 756.957 715.039C757.079 713.534 757.479 712.066 758.146 710.697C759.631 707.65 762.268 705.392 765.574 704.337L787.512 697.339C792.347 695.796 797.808 697.185 801.425 700.875C802.75 702.221 803.763 703.805 804.419 705.568L818.096 742.415L855.533 730.474C857.329 729.902 859.201 729.722 861.102 729.938C866.217 730.508 870.676 733.953 872.442 738.711L880.455 760.298C881.663 763.55 881.51 767.02 880.026 770.068C879.359 771.437 878.45 772.658 877.324 773.696C875.984 774.936 874.391 775.861 872.602 776.434L835.156 788.378L848.83 825.218C849.486 826.99 849.739 828.815 849.586 830.652C849.465 832.159 849.064 833.627 848.397 834.996Z" fill="#0E9384"/>
<path opacity="0.08" d="M1267.94 1076.1C1267.86 1075.76 1267.73 1075.43 1267.53 1075.14C1267.3 1074.78 1267 1074.49 1266.65 1074.26C1266.65 1074.26 1266.65 1074.26 1266.65 1074.26L1232.6 1052.71L1254.03 1018.59L1254.03 1018.58C1254.26 1018.23 1254.4 1017.83 1254.45 1017.41C1254.5 1017.06 1254.49 1016.71 1254.41 1016.37C1254.24 1015.63 1253.8 1014.96 1253.11 1014.53L1237.03 1004.35C1236.03 1003.71 1234.79 1003.77 1233.86 1004.38C1233.51 1004.61 1233.21 1004.91 1232.99 1005.26L1232.99 1005.26C1232.99 1005.26 1232.99 1005.26 1232.99 1005.27L1211.55 1039.39L1177.51 1017.83L1177.5 1017.83C1177.15 1017.61 1176.75 1017.47 1176.34 1017.41C1175.23 1017.26 1174.1 1017.75 1173.46 1018.75L1163.34 1034.87C1162.91 1035.55 1162.8 1036.35 1162.96 1037.08C1163.04 1037.42 1163.18 1037.75 1163.37 1038.05C1163.6 1038.4 1163.9 1038.7 1164.26 1038.92C1164.26 1038.92 1164.26 1038.92 1164.26 1038.92L1198.31 1060.48L1176.87 1094.6L1176.87 1094.6C1176.65 1094.96 1176.5 1095.35 1176.45 1095.77C1176.4 1096.12 1176.42 1096.48 1176.5 1096.82C1176.66 1097.55 1177.11 1098.22 1177.79 1098.65L1193.87 1108.84C1194.88 1109.47 1196.11 1109.42 1197.04 1108.81C1197.39 1108.58 1197.69 1108.28 1197.91 1107.92C1197.91 1107.92 1197.91 1107.92 1197.91 1107.92L1219.35 1073.8L1253.4 1095.35L1253.4 1095.35C1253.75 1095.57 1254.15 1095.72 1254.57 1095.78C1255.67 1095.93 1256.81 1095.44 1257.44 1094.43L1267.56 1078.32C1268 1077.63 1268.11 1076.83 1267.94 1076.1ZM1275.55 1074.38C1276.18 1077.18 1275.69 1080.06 1274.17 1082.49L1264.04 1098.61C1261.81 1102.17 1257.68 1104.09 1253.53 1103.53C1252.01 1103.32 1250.56 1102.8 1249.25 1101.97L1221.79 1084.59L1204.51 1112.1C1203.68 1113.42 1202.61 1114.52 1201.31 1115.36C1197.82 1117.66 1193.26 1117.69 1189.72 1115.45L1173.63 1105.27C1171.21 1103.73 1169.53 1101.35 1168.89 1098.54C1168.6 1097.28 1168.55 1095.99 1168.72 1094.72C1168.92 1093.19 1169.44 1091.74 1170.27 1090.43L1187.55 1062.91L1160.1 1045.54C1158.78 1044.7 1157.69 1043.62 1156.84 1042.32C1156.14 1041.25 1155.64 1040.06 1155.36 1038.81C1154.72 1036 1155.21 1033.12 1156.74 1030.69L1166.86 1014.57C1169.1 1011.02 1173.22 1009.09 1177.38 1009.66C1178.89 1009.86 1180.34 1010.39 1181.66 1011.22L1209.11 1028.59L1226.39 1001.09C1227.22 999.768 1228.3 998.67 1229.6 997.821C1233.09 995.528 1237.64 995.49 1241.19 997.735L1257.27 1007.92C1259.69 1009.45 1261.38 1011.84 1262.01 1014.64C1262.3 1015.9 1262.36 1017.19 1262.19 1018.47C1261.98 1019.99 1261.46 1021.44 1260.64 1022.76L1243.35 1050.27L1270.8 1067.65C1272.12 1068.48 1273.21 1069.56 1274.06 1070.87C1274.76 1071.93 1275.26 1073.12 1275.55 1074.38Z" fill="#0E9384"/>
<path opacity="0.08" d="M370.757 713.507C371.463 713.501 372.167 713.371 372.834 713.12C373.624 712.825 374.34 712.366 374.934 711.776C374.934 711.775 374.935 711.775 374.935 711.774L431.874 654.967L489.897 710.665L489.899 710.667C490.503 711.246 491.228 711.69 492.024 711.971C492.696 712.209 493.403 712.324 494.108 712.318C495.621 712.303 497.128 711.725 498.271 710.584L525.167 683.749C526.844 682.077 527.269 679.663 526.464 677.611C526.162 676.837 525.694 676.137 525.09 675.557L525.09 675.557C525.089 675.556 525.089 675.555 525.088 675.555L467.065 619.857L524.003 563.05L524.005 563.049C524.597 562.457 525.052 561.748 525.338 560.968C526.104 558.901 525.633 556.496 523.924 554.856L496.514 528.545C495.349 527.427 493.832 526.878 492.319 526.893C491.614 526.899 490.909 527.029 490.242 527.28C489.452 527.575 488.735 528.033 488.142 528.624C488.142 528.624 488.141 528.625 488.141 528.626L431.202 585.433L373.179 529.735L373.177 529.733C372.573 529.154 371.848 528.71 371.052 528.43C370.38 528.192 369.673 528.076 368.968 528.083C367.455 528.097 365.949 528.675 364.805 529.816L337.908 556.651C336.232 558.323 335.807 560.737 336.613 562.789C336.914 563.563 337.382 564.263 337.985 564.843C337.986 564.844 337.987 564.844 337.987 564.845L396.011 620.543L339.073 677.35L339.071 677.352C338.479 677.943 338.025 678.653 337.738 679.431C336.972 681.499 337.443 683.904 339.152 685.544L366.561 711.855C367.727 712.973 369.245 713.522 370.757 713.507ZM370.906 728.93C365.118 728.985 359.655 726.833 355.525 722.869L328.114 696.557C322.072 690.757 320.034 681.973 322.922 674.179C323.973 671.325 325.621 668.755 327.81 666.566L373.725 620.758L326.949 575.858C324.703 573.697 323.004 571.155 321.888 568.292C318.864 560.588 320.732 551.767 326.66 545.853L353.557 519.018C357.612 514.974 363.031 512.716 368.819 512.661C371.421 512.636 373.98 513.062 376.424 513.928C379.336 514.952 381.966 516.566 384.205 518.71L430.992 563.622L476.892 517.828C479.101 515.629 481.699 513.965 484.627 512.871C487.02 511.971 489.569 511.496 492.17 511.471C497.958 511.415 503.42 513.567 507.551 517.531L534.962 543.843C541.003 549.642 543.041 558.425 540.154 566.219C539.107 569.069 537.456 571.646 535.261 573.839L489.352 619.642L536.126 664.543C538.369 666.697 540.07 669.241 541.188 672.107C544.212 679.812 542.344 688.633 536.415 694.547L509.519 721.382C505.468 725.425 500.047 727.684 494.257 727.74C491.655 727.765 489.097 727.338 486.653 726.473C483.736 725.446 481.108 723.832 478.871 721.689L432.084 676.778L386.184 722.572C383.974 724.771 381.378 726.434 378.452 727.528C376.056 728.429 373.507 728.905 370.906 728.93Z" fill="#0E9384"/>
<path opacity="0.08" d="M164.757 335.065C165.353 335.269 165.987 335.363 166.628 335.337C167.386 335.308 168.133 335.112 168.818 334.761C168.819 334.76 168.819 334.76 168.82 334.76L234.626 300.963L265.952 367.981L265.953 367.982C266.28 368.679 266.75 369.292 267.331 369.78C267.822 370.192 268.381 370.506 268.977 370.71C270.255 371.147 271.705 371.079 273.026 370.4L304.112 354.435C306.05 353.44 307.167 351.41 307.135 349.337C307.124 348.557 306.95 347.791 306.625 347.094L306.625 347.094C306.624 347.093 306.624 347.092 306.623 347.092L275.299 280.074L341.104 246.277L341.107 246.276C341.791 245.924 342.397 245.425 342.883 244.814C344.178 243.196 344.538 240.907 343.616 238.933L328.818 207.275C328.189 205.93 327.084 204.988 325.806 204.551C325.21 204.347 324.576 204.253 323.935 204.279C323.177 204.307 322.43 204.504 321.745 204.854C321.745 204.855 321.744 204.855 321.743 204.856L255.937 238.653L224.612 171.635L224.611 171.633C224.284 170.936 223.814 170.323 223.232 169.837C222.741 169.424 222.182 169.11 221.586 168.906C220.308 168.469 218.858 168.537 217.537 169.215L186.451 185.181C184.513 186.176 183.396 188.205 183.429 190.278C183.439 191.059 183.613 191.824 183.938 192.522C183.939 192.522 183.939 192.523 183.939 192.524L215.265 259.541L149.459 293.339L149.457 293.34C148.772 293.692 148.166 294.191 147.68 294.801C146.384 296.42 146.025 298.708 146.947 300.682L161.745 332.34C162.374 333.686 163.479 334.628 164.757 335.065ZM160.031 348.884C155.14 347.212 151.219 343.664 148.989 338.893L134.19 307.234C130.928 300.255 131.976 291.803 136.86 285.7C138.642 283.464 140.838 281.659 143.37 280.355L196.435 253.101L171.182 199.076C169.971 196.477 169.34 193.701 169.301 190.812C169.179 183.03 173.527 175.707 180.378 172.189L211.464 156.223C216.15 153.817 221.423 153.414 226.313 155.087C228.511 155.838 230.531 156.981 232.316 158.482C234.446 160.263 236.152 162.487 237.362 165.069L262.621 219.109L315.67 191.863C318.221 190.556 320.933 189.843 323.741 189.738C326.039 189.646 328.335 189.98 330.532 190.731C335.423 192.404 339.344 195.952 341.574 200.722L356.373 232.381C359.634 239.359 358.587 247.811 353.705 253.913C351.926 256.148 349.726 257.958 347.188 259.263L294.129 286.514L319.381 340.54C320.591 343.132 321.223 345.91 321.262 348.803C321.384 356.586 317.036 363.909 310.185 367.427L279.099 383.392C274.417 385.798 269.143 386.203 264.25 384.529C262.052 383.778 260.033 382.636 258.248 381.135C256.115 379.349 254.41 377.126 253.201 374.546L227.942 320.507L174.893 347.752C172.341 349.059 169.632 349.772 166.825 349.878C164.524 349.97 162.229 349.636 160.031 348.884Z" fill="#0E9384"/>
<path opacity="0.08" d="M152.307 136.836C152.754 136.811 153.196 136.706 153.611 136.523C154.103 136.307 154.543 135.988 154.901 135.586C154.901 135.585 154.902 135.585 154.902 135.585L189.252 96.9289L227.735 131.473L227.737 131.474C228.137 131.833 228.61 132.101 229.123 132.26C229.557 132.395 230.008 132.449 230.455 132.424C231.414 132.37 232.351 131.95 233.04 131.173L249.267 112.913C250.279 111.775 250.474 110.191 249.901 108.879C249.686 108.384 249.367 107.942 248.967 107.582L248.967 107.582C248.967 107.582 248.966 107.581 248.966 107.581L210.484 73.0373L244.834 34.3818L244.835 34.3805C245.192 33.978 245.459 33.5028 245.616 32.9872C246.038 31.6188 245.666 30.0671 244.533 29.0499L226.354 12.7319C225.581 12.0384 224.602 11.7261 223.644 11.7802C223.197 11.8055 222.755 11.9103 222.339 12.0934C221.847 12.3089 221.407 12.6284 221.05 13.0302C221.05 13.0307 221.049 13.0309 221.049 13.0314L186.698 51.6872L148.215 17.1433L148.214 17.1422C147.813 16.7832 147.34 16.5152 146.827 16.3565C146.394 16.2213 145.943 16.1668 145.496 16.1921C144.537 16.2462 143.6 16.6666 142.91 17.4428L126.683 35.7033C125.672 36.8416 125.477 38.4251 126.05 39.7373C126.265 40.2318 126.583 40.674 126.983 41.0339C126.984 41.0341 126.984 41.0345 126.984 41.035L165.467 75.5786L131.117 114.234L131.116 114.236C130.759 114.638 130.492 115.113 130.334 115.629C129.912 116.997 130.284 118.549 131.418 119.566L149.597 135.884C150.37 136.578 151.348 136.89 152.307 136.836ZM152.873 146.87C149.206 147.077 145.678 145.837 142.938 143.378L124.759 127.06C120.751 123.463 119.191 117.805 120.783 112.647C121.362 110.758 122.328 109.036 123.648 107.547L151.348 76.3757L120.325 48.5288C118.835 47.1885 117.681 45.5842 116.885 43.7533C114.733 38.8277 115.647 33.0311 119.223 29.0066L135.45 10.7461C137.896 7.99403 141.262 6.36489 144.929 6.15788C146.578 6.06482 148.213 6.26701 149.788 6.75884C151.665 7.33953 153.382 8.31212 154.866 9.6422L185.897 37.4967L213.588 6.33479C214.921 4.83817 216.517 3.67838 218.339 2.88018C219.828 2.22377 221.43 1.83907 223.078 1.74603C226.744 1.53902 230.273 2.77893 233.012 5.23734L251.192 21.556C255.198 25.1525 256.759 30.8095 255.168 35.9679C254.592 37.8541 253.624 39.5798 252.3 41.072L224.603 72.2402L255.625 100.088C257.113 101.424 258.269 103.029 259.065 104.862C261.218 109.788 260.304 115.585 256.727 119.61L240.501 137.87C238.057 140.621 234.69 142.251 231.022 142.458C229.373 142.551 227.739 142.349 226.163 141.858C224.283 141.275 222.568 140.303 221.084 138.973L190.054 111.119L162.362 142.281C161.029 143.778 159.434 144.937 157.613 145.735C156.122 146.392 154.521 146.777 152.873 146.87Z" fill="#0E9384"/>
<path opacity="0.08" d="M475.616 346.573C475.75 347 475.959 347.403 476.238 347.761C476.567 348.186 476.985 348.534 477.462 348.783C477.462 348.784 477.462 348.784 477.463 348.784L523.331 372.665L499.221 418.413L499.22 418.415C498.97 418.891 498.825 419.415 498.796 419.951C498.771 420.404 498.828 420.856 498.962 421.283C499.248 422.199 499.884 423.006 500.805 423.485L522.473 434.766C523.824 435.469 525.407 435.272 526.54 434.396C526.967 434.067 527.318 433.651 527.569 433.175L527.569 433.175C527.57 433.174 527.57 433.174 527.57 433.173L551.681 387.426L597.549 411.306L597.551 411.307C598.028 411.555 598.554 411.698 599.093 411.725C600.523 411.8 601.936 411.061 602.646 409.713L614.036 388.103C614.52 387.184 614.584 386.159 614.298 385.243C614.164 384.815 613.955 384.412 613.676 384.054C613.347 383.629 612.93 383.281 612.453 383.031C612.452 383.032 612.452 383.031 612.451 383.031L566.583 359.15L590.693 313.402L590.694 313.4C590.945 312.924 591.089 312.4 591.118 311.864C591.143 311.411 591.086 310.96 590.952 310.532C590.666 309.616 590.03 308.81 589.109 308.33L567.441 297.049C566.09 296.346 564.507 296.543 563.374 297.419C562.947 297.748 562.596 298.165 562.344 298.64C562.344 298.641 562.344 298.641 562.344 298.642L538.233 344.39L492.365 320.509L492.363 320.508C491.886 320.26 491.36 320.118 490.822 320.09C489.391 320.014 487.978 320.754 487.268 322.101L475.878 343.712C475.394 344.631 475.33 345.657 475.616 346.573ZM466.023 349.57C464.928 346.064 465.27 342.34 466.986 339.084L478.375 317.472C480.886 312.708 485.992 309.814 491.383 310.1C493.356 310.2 495.261 310.717 497.028 311.634L534.015 330.892L553.452 294.012C554.388 292.24 555.662 290.729 557.244 289.511C561.495 286.222 567.34 285.694 572.115 288.18L593.783 299.462C597.048 301.162 599.45 304.029 600.545 307.535C601.038 309.111 601.24 310.746 601.148 312.394C601.043 314.356 600.518 316.258 599.591 318.022L580.149 354.911L617.125 374.162C618.902 375.089 620.416 376.354 621.635 377.927C622.634 379.211 623.398 380.67 623.89 382.245C624.986 385.751 624.644 389.475 622.929 392.731L611.539 414.343C609.028 419.106 603.923 422 598.532 421.715C596.563 421.617 594.653 421.099 592.883 420.179L555.899 400.924L536.462 437.803C535.529 439.571 534.254 441.084 532.671 442.304C528.419 445.593 522.574 446.121 517.799 443.635L496.131 432.354C492.867 430.655 490.465 427.788 489.369 424.28C488.876 422.705 488.674 421.07 488.766 419.423C488.872 417.457 489.397 415.556 490.324 413.793L509.765 376.904L472.789 357.653C471.012 356.725 469.499 355.461 468.281 353.89C467.28 352.605 466.516 351.146 466.023 349.57Z" fill="#0E9384"/>
<path opacity="0.08" d="M799.5 982C799.5 1057.08 735.24 1119.5 654 1119.5C572.76 1119.5 508.5 1057.08 508.5 982C508.5 906.921 572.76 844.5 654 844.5C735.24 844.5 799.5 906.921 799.5 982Z" stroke="#0E9384" stroke-width="37"/>
<circle opacity="0.08" cx="644.5" cy="546.5" r="77.5" stroke="#0E9384" stroke-width="24"/>
<path opacity="0.08" d="M672 744C672 779.44 643.701 808 609 808C574.299 808 546 779.44 546 744C546 708.559 574.299 680 609 680C643.701 680 672 708.559 672 744Z" stroke="#0E9384" stroke-width="14"/>
<path opacity="0.08" d="M1045.5 798C1045.5 830.545 1018.06 857.5 983.5 857.5C948.937 857.5 921.5 830.545 921.5 798C921.5 765.454 948.937 738.5 983.5 738.5C1018.06 738.5 1045.5 765.454 1045.5 798Z" stroke="#0E9384" stroke-width="19"/>
<path opacity="0.08" d="M1238 934C1238 958.789 1217.69 979 1192.5 979C1167.31 979 1147 958.789 1147 934C1147 909.21 1167.31 889 1192.5 889C1217.69 889 1238 909.21 1238 934Z" stroke="#0E9384" stroke-width="14"/>
<path opacity="0.08" d="M456.5 413.978C456.5 445.235 431.363 470.456 400.5 470.456C369.637 470.456 344.5 445.235 344.5 413.978C344.5 382.72 369.637 357.5 400.5 357.5C431.363 357.5 456.5 382.72 456.5 413.978Z" stroke="#0E9384" stroke-width="19"/>
<circle opacity="0.08" cx="334.5" cy="114.5" r="41.5" stroke="#0E9384" stroke-width="16"/>
</g>
</svg>
