<svg width="31" height="31" viewBox="0 0 31 31" fill="none" xmlns="http://www.w3.org/2000/svg">
<path d="M29.0023 13.261H27.5556V25.8332H3.44449V6.88873H6.02782V5.1665H3.22921C3.02792 5.16987 2.82925 5.21285 2.64457 5.29301C2.45989 5.37316 2.29281 5.48891 2.15288 5.63365C2.01294 5.77838 1.90288 5.94927 1.829 6.13655C1.75511 6.32382 1.71885 6.52382 1.72227 6.72512V25.9968C1.71885 26.1981 1.75511 26.3981 1.829 26.5854C1.90288 26.7726 2.01294 26.9435 2.15288 27.0883C2.29281 27.233 2.45989 27.3487 2.64457 27.4289C2.82925 27.509 3.02792 27.552 3.22921 27.5554H27.7709C27.9722 27.552 28.1708 27.509 28.3555 27.4289C28.5402 27.3487 28.7073 27.233 28.8472 27.0883C28.9872 26.9435 29.0972 26.7726 29.1711 26.5854C29.245 26.3981 29.2812 26.1981 29.2778 25.9968V13.2437L29.0023 13.261Z" fill="#0E9384"/>
<path d="M6.88898 12.0557H8.6112V13.7779H6.88898V12.0557Z" fill="#0E9384"/>
<path d="M12.0555 12.0557H13.7777V13.7779H12.0555V12.0557Z" fill="#0E9384"/>
<path d="M6.88898 16.3613H8.6112V18.0835H6.88898V16.3613Z" fill="#0E9384"/>
<path d="M12.0555 16.3613H13.7777V18.0835H12.0555V16.3613Z" fill="#0E9384"/>
<path d="M17.2223 16.3613H18.9445V18.0835H17.2223V16.3613Z" fill="#0E9384"/>
<path d="M22.3888 16.3613H24.111V18.0835H22.3888V16.3613Z" fill="#0E9384"/>
<path d="M6.88898 20.666H8.6112V22.3882H6.88898V20.666Z" fill="#0E9384"/>
<path d="M12.0555 20.666H13.7777V22.3882H12.0555V20.666Z" fill="#0E9384"/>
<path d="M17.2223 20.666H18.9445V22.3882H17.2223V20.666Z" fill="#0E9384"/>
<path d="M22.3888 20.666H24.111V22.3882H22.3888V20.666Z" fill="#0E9384"/>
<path d="M8.61105 8.61106C8.83943 8.61106 9.05846 8.52033 9.21995 8.35884C9.38144 8.19735 9.47216 7.97833 9.47216 7.74995V2.58328C9.47216 2.3549 9.38144 2.13587 9.21995 1.97438C9.05846 1.81289 8.83943 1.72217 8.61105 1.72217C8.38267 1.72217 8.16364 1.81289 8.00215 1.97438C7.84066 2.13587 7.74994 2.3549 7.74994 2.58328V7.74995C7.74994 7.97833 7.84066 8.19735 8.00215 8.35884C8.16364 8.52033 8.38267 8.61106 8.61105 8.61106Z" fill="#0E9384"/>
<path d="M23.1208 0.981452L18.1952 9.47201C18.0806 9.64021 18.0148 9.83685 18.0052 10.0401C17.9955 10.2434 18.0423 10.4455 18.1403 10.6238C18.2384 10.8021 18.384 10.9498 18.5609 11.0505C18.7377 11.1512 18.939 11.2009 19.1424 11.1942H29.0022C29.2056 11.2009 29.4069 11.1512 29.5838 11.0505C29.7606 10.9498 29.9062 10.8021 30.0043 10.6238C30.1023 10.4455 30.1491 10.2434 30.1395 10.0401C30.1298 9.83685 30.064 9.64021 29.9494 9.47201L25.0238 0.981452C24.9267 0.815305 24.7877 0.677489 24.6208 0.581715C24.4539 0.485941 24.2648 0.435547 24.0723 0.435547C23.8798 0.435547 23.6907 0.485941 23.5238 0.581715C23.3569 0.677489 23.2179 0.815305 23.1208 0.981452V0.981452Z" fill="#0E9384"/>
</svg>
