<svg width="33" height="33" viewBox="0 0 33 33" fill="none" xmlns="http://www.w3.org/2000/svg">
<path d="M15.9943 2.66797C8.63082 2.66797 2.66797 8.64416 2.66797 16.0077C2.66797 23.3712 8.63082 29.3474 15.9943 29.3474C23.3712 29.3474 29.3474 23.3712 29.3474 16.0077C29.3474 8.64416 23.3712 2.66797 15.9943 2.66797ZM16.0077 26.6795C10.1115 26.6795 5.33591 21.9038 5.33591 16.0077C5.33591 10.1115 10.1115 5.33591 16.0077 5.33591C21.9038 5.33591 26.6795 10.1115 26.6795 16.0077C26.6795 21.9038 21.9038 26.6795 16.0077 26.6795ZM15.7142 9.33782H15.6342C15.1006 9.33782 14.6737 9.7647 14.6737 10.2983V16.5946C14.6737 17.0615 14.9138 17.5017 15.3274 17.7418L20.8633 21.0634C21.3169 21.3302 21.9038 21.1968 22.1706 20.7433C22.2376 20.6353 22.2822 20.5149 22.3017 20.3893C22.3211 20.2637 22.3151 20.1355 22.284 20.0122C22.2529 19.889 22.1973 19.7733 22.1205 19.672C22.0437 19.5707 21.9474 19.4859 21.8371 19.4226L16.6747 16.3545V10.2983C16.6747 9.7647 16.2478 9.33782 15.7142 9.33782Z" fill="#0E9384"/>
</svg>
