<svg width="257" height="91" viewBox="0 0 257 91" fill="none" xmlns="http://www.w3.org/2000/svg">
<path d="M35.968 23.592L35.5334 24.0641L35.968 23.592ZM35.968 44.392L36.4027 44.8641L36.4067 44.8604L35.968 44.392ZM13.12 48.104V47.4623H12.4783V48.104H13.12ZM13.12 41.64H12.4783V42.2817H13.12V41.64ZM13.12 26.344V25.7023H12.4783V26.344H13.12ZM9.024 64.8703C7.76269 64.8703 6.93338 64.5462 6.4127 64.0093C5.88846 63.4686 5.56973 62.6019 5.56973 61.288H4.28627C4.28627 62.7901 4.65021 64.0354 5.4913 64.9027C6.33595 65.7738 7.55465 66.1537 9.024 66.1537V64.8703ZM5.56973 61.288V24.04H4.28627V61.288H5.56973ZM5.56973 24.04C5.56973 22.7523 5.89123 21.9043 6.42177 21.3738C6.95231 20.8432 7.80025 20.5217 9.088 20.5217V19.2383C7.60241 19.2383 6.37036 19.6101 5.51423 20.4662C4.6581 21.3224 4.28627 22.5544 4.28627 24.04H5.56973ZM9.088 20.5217H24.512V19.2383H9.088V20.5217ZM24.512 20.5217C29.3582 20.5217 33.0005 21.7323 35.5334 24.0641L36.4027 23.1199C33.5595 20.5024 29.5644 19.2383 24.512 19.2383V20.5217ZM35.5334 24.0641C38.0616 26.3917 39.3583 29.6605 39.3583 33.96H40.6417C40.6417 29.3848 39.2504 25.7416 36.4027 23.1199L35.5334 24.0641ZM39.3583 33.96C39.3583 38.2591 38.0617 41.5521 35.5293 43.9236L36.4067 44.8604C39.2503 42.1973 40.6417 38.5355 40.6417 33.96H39.3583ZM35.5334 43.9199C33.0005 46.2517 29.3582 47.4623 24.512 47.4623V48.7457C29.5644 48.7457 33.5595 47.4816 36.4027 44.8641L35.5334 43.9199ZM24.512 47.4623H13.12V48.7457H24.512V47.4623ZM12.4783 48.104V61.288H13.7617V48.104H12.4783ZM12.4783 61.288C12.4783 62.6019 12.1595 63.4686 11.6353 64.0093C11.1146 64.5462 10.2853 64.8703 9.024 64.8703V66.1537C10.4934 66.1537 11.7121 65.7738 12.5567 64.9027C13.3978 64.0354 13.7617 62.7901 13.7617 61.288H12.4783ZM13.12 42.2817H23.232V40.9983H13.12V42.2817ZM23.232 42.2817C26.2546 42.2817 28.6414 41.6266 30.2771 40.2043C31.9299 38.767 32.7057 36.6441 32.7057 33.96H31.4223C31.4223 36.3959 30.7261 38.113 29.4349 39.2357C28.1266 40.3734 26.0974 40.9983 23.232 40.9983V42.2817ZM32.7057 33.96C32.7057 31.2956 31.9288 29.1881 30.2751 27.762C28.6395 26.3516 26.2536 25.7023 23.232 25.7023V26.9857C26.0985 26.9857 28.1285 27.6057 29.4369 28.734C30.7272 29.8466 31.4223 31.5471 31.4223 33.96H32.7057ZM23.232 25.7023H13.12V26.9857H23.232V25.7023ZM12.4783 26.344V41.64H13.7617V26.344H12.4783ZM84.118 23.464L83.6916 23.9437L83.696 23.9474L84.118 23.464ZM85.526 41.768L86.0262 42.1701L86.0299 42.1653L85.526 41.768ZM77.974 46.184L77.8279 45.5591L75.5418 46.0935L77.7819 46.7963L77.974 46.184ZM83.35 51.112L83.9148 50.8073L83.9144 50.8067L83.35 51.112ZM88.15 60.008L88.7167 59.7069L88.7148 59.7033L88.15 60.008ZM88.534 63.784L87.9397 63.5419L87.9358 63.5514L87.9322 63.5611L88.534 63.784ZM82.454 64.808L82.0839 65.3323L82.0945 65.3397L82.1054 65.3468L82.454 64.808ZM80.534 62.504L81.0983 62.1984L81.098 62.1978L80.534 62.504ZM74.07 50.6L73.5028 50.9003L73.5061 50.9062L74.07 50.6ZM71.318 47.72L71.031 48.294L71.0451 48.301L71.0596 48.3074L71.318 47.72ZM61.27 46.952V46.3103H60.6283V46.952H61.27ZM61.27 40.872H60.6283V41.5137H61.27V40.872ZM61.27 26.344V25.7023H60.6283V26.344H61.27ZM57.174 64.8703C55.9127 64.8703 55.0834 64.5462 54.5627 64.0093C54.0385 63.4686 53.7197 62.6019 53.7197 61.288H52.4363C52.4363 62.7901 52.8002 64.0354 53.6413 64.9027C54.486 65.7738 55.7046 66.1537 57.174 66.1537V64.8703ZM53.7197 61.288V24.04H52.4363V61.288H53.7197ZM53.7197 24.04C53.7197 22.7523 54.0412 21.9043 54.5718 21.3738C55.1023 20.8432 55.9503 20.5217 57.238 20.5217V19.2383C55.7524 19.2383 54.5204 19.6101 53.6642 20.4662C52.8081 21.3224 52.4363 22.5544 52.4363 24.04H53.7197ZM57.238 20.5217H72.662V19.2383H57.238V20.5217ZM72.662 20.5217C77.5135 20.5217 81.159 21.6924 83.6917 23.9436L84.5443 22.9844C81.701 20.457 77.7092 19.2383 72.662 19.2383V20.5217ZM83.696 23.9474C86.217 26.1483 87.5083 29.2629 87.5083 33.384H88.7917C88.7917 28.9718 87.395 25.473 84.54 22.9806L83.696 23.9474ZM87.5083 33.384C87.5083 36.6393 86.6658 39.2859 85.0221 41.3707L86.0299 42.1653C87.8849 39.8127 88.7917 36.87 88.7917 33.384H87.5083ZM85.0259 41.3659C83.3839 43.4083 81.0037 44.8167 77.8279 45.5591L78.1201 46.8089C81.515 46.0153 84.1694 44.4797 86.0262 42.1701L85.0259 41.3659ZM77.7819 46.7963C79.7553 47.4154 81.4325 48.9162 82.7856 51.4173L83.9144 50.8067C82.4515 48.1025 80.5447 46.3179 78.1661 45.5717L77.7819 46.7963ZM82.7852 51.4167L87.5852 60.3127L88.7148 59.7033L83.9148 50.8073L82.7852 51.4167ZM87.5833 60.3091C88.243 61.5509 88.3202 62.6079 87.9397 63.5419L89.1283 64.0261C89.6865 62.6561 89.5077 61.1958 88.7167 59.7069L87.5833 60.3091ZM87.9322 63.5611C87.7738 63.9889 87.5027 64.2985 87.0977 64.5128C86.677 64.7356 86.0814 64.8703 85.27 64.8703V66.1537C86.208 66.1537 87.0311 66.0004 87.6983 65.6472C88.3813 65.2855 88.8675 64.7311 89.1358 64.0069L87.9322 63.5611ZM85.27 64.8703C84.2014 64.8703 83.3948 64.6524 82.8026 64.2692L82.1054 65.3468C82.9639 65.9023 84.0346 66.1537 85.27 66.1537V64.8703ZM82.8241 64.2837C82.2006 63.8436 81.62 63.1615 81.0983 62.1984L79.9697 62.8096C80.5574 63.8945 81.2568 64.7484 82.0839 65.3323L82.8241 64.2837ZM81.098 62.1978L74.634 50.2938L73.5061 50.9062L79.9701 62.8102L81.098 62.1978ZM74.6372 50.2997C73.8286 48.7725 72.8201 47.6798 71.5765 47.1326L71.0596 48.3074C71.9492 48.6988 72.7754 49.5262 73.5028 50.9003L74.6372 50.2997ZM71.605 47.146C70.4627 46.5749 69.0322 46.3103 67.35 46.3103V47.5937C68.9105 47.5937 70.1253 47.8411 71.031 48.294L71.605 47.146ZM67.35 46.3103H61.27V47.5937H67.35V46.3103ZM60.6283 46.952V61.288H61.9117V46.952H60.6283ZM60.6283 61.288C60.6283 62.6019 60.3095 63.4686 59.7853 64.0093C59.2646 64.5462 58.4353 64.8703 57.174 64.8703V66.1537C58.6434 66.1537 59.8621 65.7738 60.7067 64.9027C61.5478 64.0354 61.9117 62.7901 61.9117 61.288H60.6283ZM61.27 41.5137H71.254V40.2303H61.27V41.5137ZM71.254 41.5137C74.3113 41.5137 76.7233 40.894 78.3792 39.5456C80.0604 38.1767 80.8557 36.1457 80.8557 33.576H79.5723C79.5723 35.8703 78.8743 37.4873 77.5688 38.5504C76.2381 39.634 74.1701 40.2303 71.254 40.2303V41.5137ZM80.8557 33.576C80.8557 31.0257 80.0591 29.0102 78.3771 27.6526C76.7214 26.3162 74.3102 25.7023 71.254 25.7023V26.9857C74.1711 26.9857 76.24 27.5771 77.5709 28.6514C78.8756 29.7044 79.5723 31.305 79.5723 33.576H80.8557ZM71.254 25.7023H61.27V26.9857H71.254V25.7023ZM60.6283 26.344V40.872H61.9117V26.344H60.6283ZM107.449 64.8703C106.188 64.8703 105.358 64.5462 104.838 64.0093C104.313 63.4686 103.995 62.6019 103.995 61.288H102.711C102.711 62.7901 103.075 64.0354 103.916 64.9027C104.761 65.7738 105.98 66.1537 107.449 66.1537V64.8703ZM103.995 61.288V23.592H102.711V61.288H103.995ZM103.995 23.592C103.995 22.2781 104.313 21.4114 104.838 20.8707C105.358 20.3338 106.188 20.0097 107.449 20.0097V18.7263C105.98 18.7263 104.761 19.1062 103.916 19.9773C103.075 20.8446 102.711 22.0899 102.711 23.592H103.995ZM107.449 20.0097C108.71 20.0097 109.54 20.3338 110.06 20.8707C110.585 21.4114 110.903 22.2781 110.903 23.592H112.187C112.187 22.0899 111.823 20.8446 110.982 19.9773C110.137 19.1062 108.918 18.7263 107.449 18.7263V20.0097ZM110.903 23.592V61.288H112.187V23.592H110.903ZM110.903 61.288C110.903 62.6019 110.585 63.4686 110.06 64.0093C109.54 64.5462 108.71 64.8703 107.449 64.8703V66.1537C108.918 66.1537 110.137 65.7738 110.982 64.9027C111.823 64.0354 112.187 62.7901 112.187 61.288H110.903ZM126.471 63.912L125.992 64.3383L126.004 64.3524L126.018 64.3658L126.471 63.912ZM125.576 60.968L124.937 60.8996L124.936 60.9109L124.935 60.9223L125.576 60.968ZM127.175 57.256L126.659 56.875L126.658 56.8765L127.175 57.256ZM149.703 26.728L150.22 27.109L150.975 26.0863H149.703V26.728ZM158.663 21.032L158.184 21.4583L158.196 21.4724L158.21 21.4858L158.663 21.032ZM159.624 23.912L160.263 23.9594L160.264 23.9577L159.624 23.912ZM158.023 27.624L157.508 27.2416L157.507 27.243L158.023 27.624ZM135.495 58.152L134.979 57.771L134.224 58.7937H135.495V58.152ZM129.671 64.3583C128.369 64.3583 127.491 64.024 126.925 63.4582L126.018 64.3658C126.903 65.2506 128.158 65.6417 129.671 65.6417V64.3583ZM126.951 63.4857C126.403 62.8685 126.14 62.0668 126.216 61.0137L124.935 60.9223C124.84 62.2585 125.175 63.4195 125.992 64.3383L126.951 63.4857ZM126.214 61.0364C126.326 59.9848 126.8 58.8527 127.693 57.6355L126.658 56.8765C125.673 58.2193 125.081 59.5619 124.937 60.8996L126.214 61.0364ZM127.692 57.637L150.22 27.109L149.187 26.347L126.659 56.875L127.692 57.637ZM149.703 26.0863H129.031V27.3697H149.703V26.0863ZM129.031 26.0863C127.906 26.0863 127.181 25.8191 126.737 25.3981C126.299 24.9833 126.025 24.316 126.025 23.272H124.742C124.742 24.532 125.076 25.5927 125.854 26.3299C126.626 27.0609 127.725 27.3697 129.031 27.3697V26.0863ZM126.025 23.272C126.025 22.2527 126.297 21.6028 126.732 21.198C127.177 20.7849 127.903 20.5217 129.031 20.5217V19.2383C127.728 19.2383 126.63 19.5404 125.859 20.258C125.078 20.9839 124.742 22.03 124.742 23.272H126.025ZM129.031 20.5217H155.527V19.2383H129.031V20.5217ZM155.527 20.5217C156.823 20.5217 157.663 20.8726 158.184 21.4583L159.143 20.6057C158.298 19.6554 157.048 19.2383 155.527 19.2383V20.5217ZM158.21 21.4858C158.781 22.0569 159.058 22.8229 158.983 23.8663L160.264 23.9577C160.36 22.6118 159.997 21.4577 159.117 20.5782L158.21 21.4858ZM158.984 23.8646C158.91 24.8542 158.446 25.977 157.508 27.2416L158.539 28.0064C159.563 26.6257 160.166 25.2738 160.263 23.9594L158.984 23.8646ZM157.507 27.243L134.979 57.771L136.012 58.533L158.54 28.005L157.507 27.243ZM135.495 58.7937H157.128V57.5103H135.495V58.7937ZM157.128 58.7937C158.256 58.7937 158.982 59.0569 159.427 59.47C159.862 59.8748 160.134 60.5247 160.134 61.544H161.417C161.417 60.302 161.081 59.2559 160.3 58.53C159.529 57.8124 158.431 57.5103 157.128 57.5103V58.7937ZM160.134 61.544C160.134 62.588 159.86 63.2553 159.422 63.6701C158.978 64.0911 158.253 64.3583 157.128 64.3583V65.6417C158.434 65.6417 159.533 65.3329 160.305 64.6019C161.083 63.8647 161.417 62.804 161.417 61.544H160.134ZM157.128 64.3583H129.671V65.6417H157.128V64.3583ZM180.838 26.408V25.7663H180.196V26.408H180.838ZM180.838 38.824H180.196V39.4657H180.838V38.824ZM180.838 45.352V44.7103H180.196V45.352H180.838ZM180.838 58.472H180.196V59.1137H180.838V58.472ZM177.318 64.3583C175.966 64.3583 175.07 64.0208 174.507 63.4582C173.945 62.8957 173.607 61.9997 173.607 60.648H172.324C172.324 62.1976 172.712 63.4776 173.6 64.3658C174.488 65.2539 175.768 65.6417 177.318 65.6417V64.3583ZM173.607 60.648V24.232H172.324V60.648H173.607ZM173.607 24.232C173.607 22.8803 173.945 21.9843 174.507 21.4218C175.07 20.8592 175.966 20.5217 177.318 20.5217V19.2383C175.768 19.2383 174.488 19.6261 173.6 20.5142C172.712 21.4024 172.324 22.6824 172.324 24.232H173.607ZM177.318 20.5217H200.166V19.2383H177.318V20.5217ZM200.166 20.5217C201.182 20.5217 201.826 20.7665 202.217 21.1426C202.603 21.5142 202.852 22.1188 202.852 23.08H204.135C204.135 21.9079 203.829 20.9125 203.106 20.2174C202.388 19.5269 201.368 19.2383 200.166 19.2383V20.5217ZM202.852 23.08C202.852 24.0904 202.6 24.7304 202.208 25.1222C201.816 25.5141 201.176 25.7663 200.166 25.7663V27.0497C201.374 27.0497 202.398 26.7472 203.115 26.0298C203.833 25.3123 204.135 24.2882 204.135 23.08H202.852ZM200.166 25.7663H180.838V27.0497H200.166V25.7663ZM180.196 26.408V38.824H181.479V26.408H180.196ZM180.838 39.4657H198.758V38.1823H180.838V39.4657ZM198.758 39.4657C199.771 39.4657 200.413 39.7142 200.804 40.0982C201.193 40.4798 201.444 41.1021 201.444 42.088H202.727C202.727 40.8979 202.423 39.8882 201.703 39.1818C200.985 38.4778 199.963 38.1823 198.758 38.1823V39.4657ZM201.444 42.088C201.444 43.0739 201.193 43.6962 200.804 44.0778C200.413 44.4618 199.771 44.7103 198.758 44.7103V45.9937C199.963 45.9937 200.985 45.6982 201.703 44.9942C202.423 44.2878 202.727 43.2781 202.727 42.088H201.444ZM198.758 44.7103H180.838V45.9937H198.758V44.7103ZM180.196 45.352V58.472H181.479V45.352H180.196ZM180.838 59.1137H200.166V57.8303H180.838V59.1137ZM200.166 59.1137C201.179 59.1137 201.821 59.3622 202.212 59.7462C202.601 60.1278 202.852 60.7501 202.852 61.736H204.135C204.135 60.5459 203.831 59.5362 203.111 58.8298C202.393 58.1258 201.371 57.8303 200.166 57.8303V59.1137ZM202.852 61.736C202.852 62.7219 202.601 63.3442 202.212 63.7258C201.821 64.1098 201.179 64.3583 200.166 64.3583V65.6417C201.371 65.6417 202.393 65.3462 203.111 64.6422C203.831 63.9358 204.135 62.9261 204.135 61.736H202.852ZM200.166 64.3583H177.318V65.6417H200.166V64.3583ZM224.096 64.68L223.947 65.3043L223.95 65.3048L224.096 64.68ZM217.056 61.8L216.705 62.3375L216.711 62.3409L217.056 61.8ZM215.456 56.808L214.871 56.5447L214.868 56.5518L214.865 56.559L215.456 56.808ZM217.184 55.08L217.417 55.6781L217.425 55.6749L217.433 55.6714L217.184 55.08ZM219.936 55.528L219.596 56.0722L219.603 56.0764L219.61 56.0805L219.936 55.528ZM239.84 57.064L240.216 57.5843L240.225 57.5774L239.84 57.064ZM240.48 49.128L240.079 49.6292L240.089 49.6367L240.48 49.128ZM234.912 47.016L235.044 46.3879L235.043 46.3879L234.912 47.016ZM227.872 45.544L227.738 46.1717L227.741 46.1721L227.872 45.544ZM218.08 25.832L217.558 25.459L218.08 25.832ZM224.288 20.968L224.032 20.3796L224.288 20.968ZM240.736 20.2L240.908 19.5817L240.736 20.2ZM246.944 23.016L247.312 22.4902L247.303 22.484L246.944 23.016ZM248.48 25.256L247.85 25.3761L247.851 25.3818L248.48 25.256ZM248.16 27.688L248.727 27.9883L248.731 27.9817L248.734 27.975L248.16 27.688ZM246.304 29.224L246.497 29.8359L246.507 29.833L246.516 29.8297L246.304 29.224ZM243.424 28.648L243.745 28.0921L243.741 28.0899L243.424 28.648ZM238.624 26.728L238.476 27.3525L238.624 26.728ZM226.464 28.008L226.847 28.523L226.464 28.008ZM225.504 36.584L225.07 37.0571L225.076 37.0621L225.081 37.067L225.504 36.584ZM230.752 38.696L230.884 38.0681L230.882 38.0676L230.752 38.696ZM237.728 40.168L237.861 39.5402L237.86 39.5401L237.728 40.168ZM247.136 44.392L246.697 44.8602L246.702 44.8647L247.136 44.392ZM248.096 59.176L247.572 58.8051L248.096 59.176ZM241.888 63.976L242.136 64.5678L242.141 64.5658L241.888 63.976ZM232.48 64.9983C229.67 64.9983 226.924 64.6837 224.242 64.0552L223.95 65.3048C226.729 65.9563 229.573 66.2817 232.48 66.2817V64.9983ZM224.245 64.0557C221.615 63.4297 219.337 62.4948 217.401 61.2591L216.711 62.3409C218.785 63.6652 221.201 64.6503 223.947 65.3043L224.245 64.0557ZM217.407 61.2625C216.533 60.6926 216.058 60.032 215.89 59.2898L214.638 59.5742C214.896 60.7093 215.617 61.6274 216.705 62.3375L217.407 61.2625ZM215.89 59.2898C215.703 58.4689 215.763 57.7323 216.047 57.057L214.865 56.559C214.466 57.505 214.398 58.5177 214.638 59.5742L215.89 59.2898ZM216.041 57.0713C216.366 56.3489 216.827 55.9073 217.417 55.6781L216.951 54.4819C216.005 54.85 215.314 55.5604 214.871 56.5447L216.041 57.0713ZM217.433 55.6714C217.985 55.4391 218.677 55.4981 219.596 56.0722L220.276 54.9838C219.147 54.2779 218.005 54.0382 216.935 54.4886L217.433 55.6714ZM219.61 56.0805C221.54 57.2214 223.583 58.0562 225.735 58.5833L226.041 57.3367C224.012 56.8398 222.086 56.0533 220.262 54.9755L219.61 56.0805ZM225.735 58.5833C227.879 59.1084 230.128 59.3697 232.48 59.3697V58.0863C230.224 58.0863 228.078 57.8356 226.041 57.3367L225.735 58.5833ZM232.48 59.3697C235.893 59.3697 238.514 58.8134 240.216 57.5842L239.464 56.5438C238.094 57.5332 235.808 58.0863 232.48 58.0863V59.3697ZM240.225 57.5774C241.909 56.3143 242.786 54.6582 242.786 52.648H241.502C241.502 54.2218 240.843 55.5097 239.455 56.5506L240.225 57.5774ZM242.786 52.648C242.786 50.9709 242.15 49.6033 240.871 48.6193L240.089 49.6367C241.028 50.3594 241.502 51.3384 241.502 52.648H242.786ZM240.881 48.6269C239.691 47.6749 237.709 46.9468 235.044 46.3879L234.78 47.6441C237.405 48.1945 239.136 48.8745 240.079 49.6291L240.881 48.6269ZM235.043 46.3879L228.003 44.9159L227.741 46.1721L234.781 47.6441L235.043 46.3879ZM228.006 44.9163C224.068 44.0786 221.194 42.6649 219.308 40.7282C217.435 38.8059 216.482 36.3133 216.482 33.192H215.198C215.198 36.5987 216.25 39.4287 218.388 41.6238C220.512 43.8044 223.654 45.3027 227.738 46.1717L228.006 44.9163ZM216.482 33.192C216.482 30.4963 217.194 28.1763 218.602 26.205L217.558 25.459C215.979 27.669 215.198 30.2557 215.198 33.192H216.482ZM218.602 26.205C220.02 24.2201 221.992 22.6678 224.544 21.5564L224.032 20.3796C221.293 21.5722 219.127 23.2625 217.558 25.459L218.602 26.205ZM224.544 21.5564C227.094 20.4458 230.055 19.8817 233.44 19.8817V18.5983C229.913 18.5983 226.772 19.1862 224.032 20.3796L224.544 21.5564ZM233.44 19.8817C235.946 19.8817 238.32 20.1949 240.564 20.8183L240.908 19.5817C238.544 18.9251 236.054 18.5983 233.44 18.5983V19.8817ZM240.564 20.8183C242.807 21.4413 244.812 22.3523 246.585 23.548L247.303 22.484C245.406 21.205 243.273 20.2387 240.908 19.5817L240.564 20.8183ZM246.576 23.5417C247.313 24.0579 247.715 24.6679 247.85 25.3761L249.11 25.1359C248.904 24.0521 248.281 23.1687 247.312 22.4903L246.576 23.5417ZM247.851 25.3818C247.994 26.0973 247.905 26.7625 247.586 27.401L248.734 27.975C249.183 27.0775 249.308 26.1214 249.109 25.1301L247.851 25.3818ZM247.593 27.3877C247.292 27.9551 246.81 28.3672 246.092 28.6183L246.516 29.8297C247.505 29.4835 248.26 28.8715 248.727 27.9883L247.593 27.3877ZM246.111 28.6121C245.543 28.7914 244.777 28.6878 243.745 28.0921L243.103 29.2039C244.29 29.8882 245.444 30.1686 246.497 29.8359L246.111 28.6121ZM243.741 28.0899C242.114 27.1666 240.457 26.5027 238.772 26.1035L238.476 27.3525C240.033 27.7213 241.577 28.3374 243.107 29.2061L243.741 28.0899ZM238.772 26.1035C237.096 25.7067 235.297 25.5103 233.376 25.5103V26.7937C235.21 26.7937 236.909 26.9813 238.476 27.3525L238.772 26.1035ZM233.376 25.5103C230.35 25.5103 227.894 26.1452 226.081 27.493L226.847 28.523C228.362 27.3961 230.514 26.7937 233.376 26.7937V25.5103ZM226.081 27.493C224.261 28.8466 223.326 30.6558 223.326 32.872H224.61C224.61 31.0776 225.339 29.6441 226.847 28.523L226.081 27.493ZM223.326 32.872C223.326 34.5667 223.899 35.9832 225.07 37.0571L225.938 36.1109C225.061 35.3074 224.61 34.2493 224.61 32.872H223.326ZM225.081 37.067C226.233 38.0749 228.117 38.8062 230.622 39.3244L230.882 38.0676C228.437 37.5618 226.823 36.8851 225.927 36.101L225.081 37.067ZM230.62 39.3239L237.596 40.7959L237.86 39.5401L230.884 38.0681L230.62 39.3239ZM237.595 40.7958C241.761 41.6795 244.769 43.0523 246.697 44.8602L247.575 43.9238C245.407 41.8917 242.143 40.4485 237.861 39.5402L237.595 40.7958ZM246.702 44.8647C248.643 46.647 249.63 49.0264 249.63 52.072H250.914C250.914 48.7176 249.811 45.977 247.57 43.9193L246.702 44.8647ZM249.63 52.072C249.63 54.6371 248.941 56.8734 247.572 58.8051L248.62 59.5469C250.153 57.3826 250.914 54.8829 250.914 52.072H249.63ZM247.572 58.8051C246.201 60.7415 244.233 62.2729 241.635 63.3862L242.141 64.5658C244.919 63.3751 247.09 61.7065 248.62 59.5469L247.572 58.8051ZM241.64 63.3842C239.091 64.4531 236.043 64.9983 232.48 64.9983V66.2817C236.17 66.2817 239.394 65.7176 242.136 64.5678L241.64 63.3842Z" fill="#248A82"/>
<path d="M13.024 69.512C10.2933 69.512 8.928 68.104 8.928 65.288V28.04C8.928 25.2667 10.3147 23.88 13.088 23.88H28.512C33.4613 23.88 37.28 25.1173 39.968 27.592C42.656 30.0667 44 33.5227 44 37.96C44 42.3973 42.656 45.8747 39.968 48.392C37.28 50.8667 33.4613 52.104 28.512 52.104H17.12V65.288C17.12 68.104 15.7547 69.512 13.024 69.512ZM17.12 45.64H27.232C33.12 45.64 36.064 43.08 36.064 37.96C36.064 32.8827 33.12 30.344 27.232 30.344H17.12V45.64ZM61.174 69.512C58.4433 69.512 57.078 68.104 57.078 65.288V28.04C57.078 25.2667 58.4647 23.88 61.238 23.88H76.662C81.6113 23.88 85.43 25.0747 88.118 27.464C90.806 29.8107 92.15 33.1173 92.15 37.384C92.15 40.7547 91.2753 43.5493 89.526 45.768C87.7767 47.944 85.2593 49.416 81.974 50.184C84.15 50.8667 85.942 52.5093 87.35 55.112L92.15 64.008C92.8753 65.3733 93.0033 66.632 92.534 67.784C92.1073 68.936 91.0193 69.512 89.27 69.512C88.118 69.512 87.1793 69.2773 86.454 68.808C85.7287 68.296 85.0887 67.528 84.534 66.504L78.07 54.6C77.302 53.1493 76.3847 52.1893 75.318 51.72C74.294 51.208 72.9713 50.952 71.35 50.952H65.27V65.288C65.27 68.104 63.9047 69.512 61.174 69.512ZM65.27 44.872H75.254C81.2273 44.872 84.214 42.44 84.214 37.576C84.214 32.7547 81.2273 30.344 75.254 30.344H65.27V44.872ZM111.449 69.512C108.718 69.512 107.353 68.104 107.353 65.288V27.592C107.353 24.776 108.718 23.368 111.449 23.368C114.18 23.368 115.545 24.776 115.545 27.592V65.288C115.545 68.104 114.18 69.512 111.449 69.512ZM133.671 69C132.263 69 131.197 68.6373 130.471 67.912C129.789 67.144 129.49 66.1627 129.575 64.968C129.703 63.7733 130.237 62.536 131.175 61.256L153.703 30.728H133.031C130.599 30.728 129.383 29.576 129.383 27.272C129.383 25.0107 130.599 23.88 133.031 23.88H159.528C160.935 23.88 161.981 24.264 162.663 25.032C163.389 25.7573 163.709 26.7173 163.623 27.912C163.538 29.064 163.005 30.3013 162.023 31.624L139.495 62.152H161.127C163.559 62.152 164.775 63.2827 164.775 65.544C164.775 67.848 163.559 69 161.127 69H133.671ZM181.318 69C178.416 69 176.966 67.5493 176.966 64.648V28.232C176.966 25.3307 178.416 23.88 181.318 23.88H204.166C206.384 23.88 207.494 24.9467 207.494 27.08C207.494 29.2987 206.384 30.408 204.166 30.408H184.838V42.824H202.758C204.976 42.824 206.086 43.912 206.086 46.088C206.086 48.264 204.976 49.352 202.758 49.352H184.838V62.472H204.166C206.384 62.472 207.494 63.56 207.494 65.736C207.494 67.912 206.384 69 204.166 69H181.318ZM236.48 69.64C233.621 69.64 230.827 69.32 228.096 68.68C225.408 68.04 223.061 67.08 221.056 65.8C220.075 65.16 219.477 64.3707 219.264 63.432C219.051 62.4933 219.115 61.6187 219.456 60.808C219.84 59.9547 220.416 59.3787 221.184 59.08C221.995 58.7387 222.912 58.888 223.936 59.528C225.813 60.6373 227.797 61.448 229.888 61.96C231.979 62.472 234.176 62.728 236.48 62.728C239.851 62.728 242.304 62.1733 243.84 61.064C245.376 59.912 246.144 58.44 246.144 56.648C246.144 55.1547 245.589 53.9813 244.48 53.128C243.413 52.2747 241.557 51.5707 238.912 51.016L231.872 49.544C223.851 47.8373 219.84 43.72 219.84 37.192C219.84 34.376 220.587 31.9227 222.08 29.832C223.573 27.7413 225.643 26.12 228.288 24.968C230.933 23.816 233.984 23.24 237.44 23.24C240 23.24 242.432 23.56 244.736 24.2C247.04 24.84 249.109 25.7787 250.944 27.016C251.797 27.6133 252.309 28.36 252.48 29.256C252.651 30.1093 252.544 30.92 252.16 31.688C251.776 32.4133 251.157 32.9253 250.304 33.224C249.493 33.48 248.533 33.288 247.424 32.648C245.845 31.752 244.245 31.112 242.624 30.728C241.003 30.344 239.253 30.152 237.376 30.152C234.432 30.152 232.128 30.7707 230.464 32.008C228.8 33.2453 227.968 34.8667 227.968 36.872C227.968 38.408 228.48 39.6453 229.504 40.584C230.528 41.48 232.277 42.184 234.752 42.696L241.728 44.168C245.952 45.064 249.088 46.472 251.136 48.392C253.227 50.312 254.272 52.872 254.272 56.072C254.272 58.76 253.547 61.128 252.096 63.176C250.645 65.224 248.576 66.824 245.888 67.976C243.243 69.0853 240.107 69.64 236.48 69.64Z" fill="#0EB29F"/>
<path d="M39.968 27.592L39.6782 27.9067L39.968 27.592ZM39.968 48.392L40.2578 48.7068L40.2604 48.7043L39.968 48.392ZM17.12 52.104V51.6762H16.6922V52.104H17.12ZM17.12 45.64H16.6922V46.0678H17.12V45.64ZM17.12 30.344V29.9162H16.6922V30.344H17.12ZM13.024 69.0842C11.728 69.0842 10.8338 68.7508 10.2591 68.1582C9.68208 67.5631 9.35582 66.6333 9.35582 65.288H8.50018C8.50018 66.7587 8.85658 67.9409 9.64487 68.7538C10.4355 69.5692 11.5893 69.9398 13.024 69.9398V69.0842ZM9.35582 65.288V28.04H8.50018V65.288H9.35582ZM9.35582 28.04C9.35582 26.7193 9.68571 25.8073 10.2705 25.2225C10.8553 24.6377 11.7673 24.3078 13.088 24.3078V23.4522C11.6354 23.4522 10.4673 23.8156 9.66548 24.6175C8.86362 25.4193 8.50018 26.5874 8.50018 28.04H9.35582ZM13.088 24.3078H28.512V23.4522H13.088V24.3078ZM28.512 24.3078C33.3926 24.3078 37.0937 25.5273 39.6782 27.9067L40.2578 27.2773C37.4663 24.7074 33.5301 23.4522 28.512 23.4522V24.3078ZM39.6782 27.9067C42.2597 30.2834 43.5722 33.6145 43.5722 37.96H44.4278C44.4278 33.4308 43.0523 29.85 40.2578 27.2773L39.6782 27.9067ZM43.5722 37.96C43.5722 42.3052 42.2598 45.6596 39.6756 48.0797L40.2604 48.7043C43.0522 46.0897 44.4278 42.4895 44.4278 37.96H43.5722ZM39.6782 48.0773C37.0937 50.4567 33.3926 51.6762 28.512 51.6762V52.5318C33.5301 52.5318 37.4663 51.2766 40.2578 48.7067L39.6782 48.0773ZM28.512 51.6762H17.12V52.5318H28.512V51.6762ZM16.6922 52.104V65.288H17.5478V52.104H16.6922ZM16.6922 65.288C16.6922 66.6333 16.3659 67.5631 15.7889 68.1582C15.2142 68.7508 14.32 69.0842 13.024 69.0842V69.9398C14.4587 69.9398 15.6125 69.5692 16.4031 68.7538C17.1914 67.9409 17.5478 66.7587 17.5478 65.288H16.6922ZM17.12 46.0678H27.232V45.2122H17.12V46.0678ZM27.232 46.0678C30.2284 46.0678 32.5556 45.4177 34.1367 44.0428C35.7293 42.658 36.4918 40.6027 36.4918 37.96H35.6362C35.6362 40.4373 34.9267 42.222 33.5753 43.3972C32.2124 44.5823 30.1236 45.2122 27.232 45.2122V46.0678ZM36.4918 37.96C36.4918 35.3375 35.7286 33.2978 34.1354 31.924C32.5543 30.5606 30.2277 29.9162 27.232 29.9162V30.7718C30.1243 30.7718 32.2137 31.3967 33.5766 32.572C34.9274 33.7368 35.6362 35.5052 35.6362 37.96H36.4918ZM27.232 29.9162H17.12V30.7718H27.232V29.9162ZM16.6922 30.344V45.64H17.5478V30.344H16.6922ZM88.118 27.464L87.8338 27.7838L87.8366 27.7863L88.118 27.464ZM89.526 45.768L89.8595 46.0361L89.862 46.0329L89.526 45.768ZM81.974 50.184L81.8766 49.7674L80.3525 50.1237L81.8459 50.5922L81.974 50.184ZM87.35 55.112L87.7265 54.9088L87.7263 54.9084L87.35 55.112ZM92.15 64.008L92.5278 63.8073L92.5265 63.8048L92.15 64.008ZM92.534 67.784L92.1376 67.6225L92.1328 67.6354L92.534 67.784ZM86.454 68.808L86.2073 69.1575L86.2143 69.1625L86.2216 69.1672L86.454 68.808ZM84.534 66.504L84.9102 66.3002L84.91 66.2998L84.534 66.504ZM78.07 54.6L77.6919 54.8002L77.694 54.8042L78.07 54.6ZM75.318 51.72L75.1267 52.1027L75.1361 52.1074L75.1457 52.1116L75.318 51.72ZM65.27 50.952V50.5242H64.8422V50.952H65.27ZM65.27 44.872H64.8422V45.2998H65.27V44.872ZM65.27 30.344V29.9162H64.8422V30.344H65.27ZM61.174 69.0842C59.878 69.0842 58.9838 68.7508 58.4091 68.1582C57.8321 67.5631 57.5058 66.6333 57.5058 65.288H56.6502C56.6502 66.7587 57.0066 67.9409 57.7949 68.7538C58.5855 69.5692 59.7393 69.9398 61.174 69.9398V69.0842ZM57.5058 65.288V28.04H56.6502V65.288H57.5058ZM57.5058 28.04C57.5058 26.7193 57.8357 25.8073 58.4205 25.2225C59.0053 24.6377 59.9173 24.3078 61.238 24.3078V23.4522C59.7854 23.4522 58.6173 23.8156 57.8155 24.6175C57.0136 25.4193 56.6502 26.5874 56.6502 28.04H57.5058ZM61.238 24.3078H76.662V23.4522H61.238V24.3078ZM76.662 24.3078C81.5461 24.3078 85.2493 25.4865 87.8338 27.7838L88.4022 27.1442C85.6107 24.6629 81.6766 23.4522 76.662 23.4522V24.3078ZM87.8366 27.7863C90.4133 30.0358 91.7222 33.2144 91.7222 37.384H92.5778C92.5778 33.0203 91.1987 29.5856 88.3994 27.1417L87.8366 27.7863ZM91.7222 37.384C91.7222 40.6778 90.869 43.3737 89.19 45.5031L89.862 46.0329C91.6817 43.7249 92.5778 40.8315 92.5778 37.384H91.7222ZM89.1926 45.4999C87.5148 47.5869 85.0889 49.0165 81.8766 49.7674L82.0714 50.6006C85.4298 49.8155 88.0385 48.3011 89.8594 46.0361L89.1926 45.4999ZM81.8459 50.5922C83.8869 51.2325 85.6023 52.7806 86.9737 55.3156L87.7263 54.9084C86.2817 52.2381 84.4131 50.5008 82.1021 49.7758L81.8459 50.5922ZM86.9735 55.3152L91.7735 64.2112L92.5265 63.8048L87.7265 54.9088L86.9735 55.3152ZM91.7722 64.2087C92.4538 65.4917 92.5479 66.616 92.1378 67.6226L92.9302 67.9454C93.4588 66.648 93.2969 65.255 92.5278 63.8073L91.7722 64.2087ZM92.1328 67.6354C91.9561 68.1126 91.6491 68.463 91.1978 68.7019C90.736 68.9464 90.1025 69.0842 89.27 69.0842V69.9398C90.1869 69.9398 90.972 69.7896 91.5982 69.4581C92.2349 69.121 92.6852 68.6074 92.9352 67.9326L92.1328 67.6354ZM89.27 69.0842C88.1736 69.0842 87.323 68.8607 86.6864 68.4488L86.2216 69.1672C87.0357 69.694 88.0624 69.9398 89.27 69.9398V69.0842ZM86.7007 68.4585C86.0433 67.9944 85.4429 67.2837 84.9102 66.3002L84.1578 66.7078C84.7345 67.7723 85.4141 68.5976 86.2073 69.1575L86.7007 68.4585ZM84.91 66.2998L78.446 54.3958L77.694 54.8042L84.158 66.7082L84.91 66.2998ZM78.4481 54.3998C77.6531 52.8981 76.675 51.8497 75.4903 51.3284L75.1457 52.1116C76.0944 52.529 76.9509 53.4006 77.6919 54.8002L78.4481 54.3998ZM75.5093 51.3373C74.4065 50.7859 73.0119 50.5242 71.35 50.5242V51.3798C72.9308 51.3798 74.1815 51.6301 75.1267 52.1027L75.5093 51.3373ZM71.35 50.5242H65.27V51.3798H71.35V50.5242ZM64.8422 50.952V65.288H65.6978V50.952H64.8422ZM64.8422 65.288C64.8422 66.6333 64.5159 67.5631 63.9389 68.1582C63.3642 68.7508 62.47 69.0842 61.174 69.0842V69.9398C62.6087 69.9398 63.7625 69.5692 64.5531 68.7538C65.3414 67.9409 65.6978 66.7587 65.6978 65.288H64.8422ZM65.27 45.2998H75.254V44.4442H65.27V45.2998ZM75.254 45.2998C78.2877 45.2998 80.6424 44.684 82.2441 43.3797C83.8627 42.0618 84.6418 40.0998 84.6418 37.576H83.7862C83.7862 39.9162 83.072 41.6022 81.7039 42.7163C80.3189 43.844 78.1936 44.4442 75.254 44.4442V45.2998ZM84.6418 37.576C84.6418 35.0722 83.8618 33.1259 82.2427 31.8191C80.6411 30.5264 78.287 29.9162 75.254 29.9162V30.7718C78.1943 30.7718 80.3202 31.3669 81.7053 32.4849C83.0729 33.5887 83.7862 35.2584 83.7862 37.576H84.6418ZM75.254 29.9162H65.27V30.7718H75.254V29.9162ZM64.8422 30.344V44.872H65.6978V30.344H64.8422ZM111.449 69.0842C110.153 69.0842 109.259 68.7508 108.684 68.1582C108.107 67.5631 107.781 66.6333 107.781 65.288H106.925C106.925 66.7587 107.282 67.9409 108.07 68.7538C108.861 69.5692 110.014 69.9398 111.449 69.9398V69.0842ZM107.781 65.288V27.592H106.925V65.288H107.781ZM107.781 27.592C107.781 26.2467 108.107 25.3169 108.684 24.7218C109.259 24.1292 110.153 23.7958 111.449 23.7958V22.9402C110.014 22.9402 108.861 23.3108 108.07 24.1262C107.282 24.9391 106.925 26.1213 106.925 27.592H107.781ZM111.449 23.7958C112.745 23.7958 113.639 24.1292 114.214 24.7218C114.791 25.3169 115.117 26.2467 115.117 27.592H115.973C115.973 26.1213 115.616 24.9391 114.828 24.1262C114.037 23.3108 112.884 22.9402 111.449 22.9402V23.7958ZM115.117 27.592V65.288H115.973V27.592H115.117ZM115.117 65.288C115.117 66.6333 114.791 67.5631 114.214 68.1582C113.639 68.7508 112.745 69.0842 111.449 69.0842V69.9398C112.884 69.9398 114.037 69.5692 114.828 68.7538C115.616 67.9409 115.973 66.7587 115.973 65.288H115.117ZM130.471 67.912L130.152 68.1962L130.16 68.2056L130.169 68.2145L130.471 67.912ZM129.576 64.968L129.15 64.9224L129.149 64.93L129.149 64.9375L129.576 64.968ZM131.175 61.256L130.831 61.002L130.83 61.003L131.175 61.256ZM153.703 30.728L154.048 30.982L154.551 30.3002H153.703V30.728ZM162.663 25.032L162.344 25.3162L162.352 25.3256L162.361 25.3345L162.663 25.032ZM163.624 27.912L164.05 27.9436L164.05 27.9425L163.624 27.912ZM162.023 31.624L161.68 31.3691L161.679 31.37L162.023 31.624ZM139.495 62.152L139.151 61.898L138.648 62.5798H139.495V62.152ZM133.671 68.5722C132.334 68.5722 131.393 68.2285 130.774 67.6095L130.169 68.2145C131.001 69.0462 132.193 69.4278 133.671 69.4278V68.5722ZM130.791 67.6278C130.198 66.9603 129.924 66.0988 130.002 64.9985L129.149 64.9375C129.057 66.2266 129.38 67.3277 130.152 68.1962L130.791 67.6278ZM130.001 65.0136C130.119 63.9143 130.613 62.7471 131.52 61.509L130.83 61.003C129.861 62.3249 129.288 63.6324 129.15 64.9224L130.001 65.0136ZM131.52 61.51L154.048 30.982L153.359 30.474L130.831 61.002L131.52 61.51ZM153.703 30.3002H133.031V31.1558H153.703V30.3002ZM133.031 30.3002C131.876 30.3002 131.089 30.0261 130.59 29.5534C130.095 29.0849 129.811 28.352 129.811 27.272H128.956C128.956 28.496 129.28 29.4911 130.001 30.1746C130.718 30.8539 131.755 31.1558 133.031 31.1558V30.3002ZM129.811 27.272C129.811 26.2156 130.094 25.4996 130.587 25.0413C131.086 24.5775 131.874 24.3078 133.031 24.3078V23.4522C131.757 23.4522 130.721 23.7478 130.004 24.4147C129.281 25.087 128.956 26.0671 128.956 27.272H129.811ZM133.031 24.3078H159.527V23.4522H133.031V24.3078ZM159.527 24.3078C160.86 24.3078 161.769 24.6697 162.344 25.3162L162.983 24.7478C162.193 23.8583 161.011 23.4522 159.527 23.4522V24.3078ZM162.361 25.3345C162.984 25.9571 163.275 26.7877 163.197 27.8815L164.05 27.9425C164.143 26.647 163.794 25.5576 162.966 24.7295L162.361 25.3345ZM163.197 27.8804C163.12 28.9241 162.633 30.0851 161.68 31.3691L162.367 31.8789C163.377 30.5175 163.957 29.2039 164.05 27.9436L163.197 27.8804ZM161.679 31.37L139.151 61.898L139.84 62.406L162.368 31.878L161.679 31.37ZM139.495 62.5798H161.128V61.7242H139.495V62.5798ZM161.128 62.5798C162.285 62.5798 163.073 62.8495 163.572 63.3133C164.065 63.7716 164.348 64.4876 164.348 65.544H165.203C165.203 64.3391 164.878 63.359 164.155 62.6867C163.438 62.0198 162.402 61.7242 161.128 61.7242V62.5798ZM164.348 65.544C164.348 66.624 164.064 67.3569 163.569 67.8254C163.07 68.298 162.283 68.5722 161.128 68.5722V69.4278C162.404 69.4278 163.441 69.1259 164.158 68.4466C164.879 67.7631 165.203 66.768 165.203 65.544H164.348ZM161.128 68.5722H133.671V69.4278H161.128V68.5722ZM184.838 30.408V29.9802H184.41V30.408H184.838ZM184.838 42.824H184.41V43.2518H184.838V42.824ZM184.838 49.352V48.9242H184.41V49.352H184.838ZM184.838 62.472H184.41V62.8998H184.838V62.472ZM181.318 68.5722C179.933 68.5722 178.973 68.2263 178.356 67.6095C177.739 66.9927 177.393 66.0327 177.393 64.648H176.538C176.538 66.1646 176.917 67.3807 177.751 68.2145C178.585 69.0484 179.801 69.4278 181.318 69.4278V68.5722ZM177.393 64.648V28.232H176.538V64.648H177.393ZM177.393 28.232C177.393 26.8473 177.739 25.8873 178.356 25.2705C178.973 24.6537 179.933 24.3078 181.318 24.3078V23.4522C179.801 23.4522 178.585 23.8316 177.751 24.6655C176.917 25.4993 176.538 26.7154 176.538 28.232H177.393ZM181.318 24.3078H204.166V23.4522H181.318V24.3078ZM204.166 24.3078C205.213 24.3078 205.919 24.5599 206.365 24.9884C206.808 25.4139 207.066 26.0836 207.066 27.08H207.921C207.921 25.943 207.625 25.0128 206.958 24.3716C206.294 23.7335 205.337 23.4522 204.166 23.4522V24.3078ZM207.066 27.08C207.066 28.1234 206.805 28.8273 206.359 29.2735C205.913 29.7196 205.209 29.9802 204.166 29.9802V30.8358C205.341 30.8358 206.301 30.5417 206.964 29.8785C207.627 29.2153 207.921 28.2553 207.921 27.08H207.066ZM204.166 29.9802H184.838V30.8358H204.166V29.9802ZM184.41 30.408V42.824H185.265V30.408H184.41ZM184.838 43.2518H202.758V42.3962H184.838V43.2518ZM202.758 43.2518C203.803 43.2518 204.508 43.5081 204.954 43.9454C205.398 44.3812 205.658 45.0681 205.658 46.088H206.513C206.513 44.9319 206.218 43.9868 205.553 43.3346C204.89 42.6839 203.931 42.3962 202.758 42.3962V43.2518ZM205.658 46.088C205.658 47.1079 205.398 47.7948 204.954 48.2306C204.508 48.6679 203.803 48.9242 202.758 48.9242V49.7798C203.931 49.7798 204.89 49.4921 205.553 48.8414C206.218 48.1892 206.513 47.2441 206.513 46.088H205.658ZM202.758 48.9242H184.838V49.7798H202.758V48.9242ZM184.41 49.352V62.472H185.265V49.352H184.41ZM184.838 62.8998H204.166V62.0442H184.838V62.8998ZM204.166 62.8998C205.211 62.8998 205.916 63.1561 206.362 63.5934C206.806 64.0292 207.066 64.7161 207.066 65.736H207.921C207.921 64.5799 207.626 63.6348 206.961 62.9826C206.298 62.3319 205.339 62.0442 204.166 62.0442V62.8998ZM207.066 65.736C207.066 66.7559 206.806 67.4428 206.362 67.8786C205.916 68.3159 205.211 68.5722 204.166 68.5722V69.4278C205.339 69.4278 206.298 69.1401 206.961 68.4894C207.626 67.8372 207.921 66.8921 207.921 65.736H207.066ZM204.166 68.5722H181.318V69.4278H204.166V68.5722ZM228.096 68.68L227.997 69.0962L227.998 69.0965L228.096 68.68ZM221.056 65.8L220.822 66.1584L220.826 66.1606L221.056 65.8ZM219.456 60.808L219.066 60.6324L219.062 60.642L219.456 60.808ZM221.184 59.08L221.339 59.4789L221.35 59.4743L221.184 59.08ZM223.936 59.528L223.709 59.8909L223.718 59.8963L223.936 59.528ZM243.84 61.064L244.091 61.4109L244.097 61.4063L243.84 61.064ZM244.48 53.128L244.213 53.4621L244.219 53.4671L244.48 53.128ZM238.912 51.016L239 50.5973L239 50.5972L238.912 51.016ZM231.872 49.544L231.783 49.9625L231.784 49.9628L231.872 49.544ZM222.08 29.832L221.732 29.5833L222.08 29.832ZM228.288 24.968L228.117 24.5758L228.288 24.968ZM244.736 24.2L244.851 23.7878L244.736 24.2ZM250.944 27.016L251.189 26.6655L251.183 26.6613L250.944 27.016ZM252.48 29.256L252.06 29.3361L252.06 29.3399L252.48 29.256ZM252.16 31.688L252.538 31.8882L252.543 31.8793L252.16 31.688ZM250.304 33.224L250.433 33.6322L250.445 33.6278L250.304 33.224ZM247.424 32.648L247.638 32.2774L247.635 32.2759L247.424 32.648ZM242.624 30.728L242.525 31.1443L242.624 30.728ZM230.464 32.008L230.719 32.3513V32.3513L230.464 32.008ZM229.504 40.584L229.215 40.8995L229.222 40.906L229.504 40.584ZM234.752 42.696L234.84 42.2774L234.839 42.2771L234.752 42.696ZM241.728 44.168L241.817 43.7495L241.816 43.7494L241.728 44.168ZM251.136 48.392L250.843 48.7041L250.847 48.7071L251.136 48.392ZM252.096 63.176L251.747 62.9287L252.096 63.176ZM245.888 67.976L246.053 68.3705L246.057 68.3692L245.888 67.976ZM236.48 69.2122C233.654 69.2122 230.892 68.8958 228.194 68.2635L227.998 69.0965C230.762 69.7442 233.589 70.0678 236.48 70.0678V69.2122ZM228.195 68.2638C225.546 67.6331 223.245 66.6899 221.286 65.4394L220.826 66.1606C222.877 67.4701 225.27 68.4469 227.997 69.0962L228.195 68.2638ZM221.29 65.4417C220.38 64.8484 219.865 64.1449 219.681 63.3372L218.847 63.5268C219.09 64.5964 219.769 65.4716 220.822 66.1583L221.29 65.4417ZM219.681 63.3372C219.486 62.4771 219.547 61.6945 219.85 60.974L219.062 60.642C218.682 61.5429 218.616 62.5096 218.847 63.5268L219.681 63.3372ZM219.846 60.9836C220.191 60.2175 220.69 59.7311 221.339 59.4787L221.029 58.6813C220.142 59.0262 219.489 59.6918 219.066 60.6324L219.846 60.9836ZM221.35 59.4743C221.988 59.2056 222.756 59.2947 223.709 59.8908L224.163 59.1652C223.068 58.4813 222.001 58.2717 221.018 58.6857L221.35 59.4743ZM223.718 59.8963C225.631 61.0267 227.654 61.8534 229.786 62.3755L229.99 61.5445C227.94 61.0426 225.995 60.248 224.154 59.1597L223.718 59.8963ZM229.786 62.3755C231.912 62.8962 234.144 63.1558 236.48 63.1558V62.3002C234.208 62.3002 232.045 62.0477 229.99 61.5445L229.786 62.3755ZM236.48 63.1558C239.879 63.1558 242.444 62.6001 244.09 61.4108L243.59 60.7172C242.164 61.7466 239.822 62.3002 236.48 62.3002V63.1558ZM244.097 61.4063C245.731 60.1802 246.572 58.5855 246.572 56.648H245.716C245.716 58.2945 245.021 59.6438 243.583 60.7217L244.097 61.4063ZM246.572 56.648C246.572 55.0322 245.963 53.7293 244.741 52.7889L244.219 53.4671C245.215 54.2334 245.716 55.2772 245.716 56.648H246.572ZM244.747 52.7939C243.598 51.8748 241.659 51.1548 239 50.5973L238.824 51.4347C241.456 51.9866 243.228 52.6745 244.213 53.4621L244.747 52.7939ZM239 50.5972L231.96 49.1252L231.784 49.9628L238.824 51.4348L239 50.5972ZM231.961 49.1255C227.999 48.2826 225.081 46.8548 223.154 44.8775C221.238 42.9097 220.268 40.3609 220.268 37.192H219.412C219.412 40.5511 220.448 43.3249 222.542 45.4745C224.626 47.6145 227.723 49.0987 231.783 49.9625L231.961 49.1255ZM220.268 37.192C220.268 34.4562 220.992 32.0918 222.428 30.0807L221.732 29.5833C220.182 31.7536 219.412 34.2958 219.412 37.192H220.268ZM222.428 30.0807C223.871 28.0605 225.876 26.4852 228.459 25.3602L228.117 24.5758C225.41 25.7548 223.276 27.4221 221.732 29.5833L222.428 30.0807ZM228.459 25.3602C231.041 24.2359 234.031 23.6678 237.44 23.6678V22.8122C233.937 22.8122 230.826 23.3961 228.117 24.5758L228.459 25.3602ZM237.44 23.6678C239.964 23.6678 242.357 23.9833 244.622 24.6122L244.851 23.7878C242.507 23.1367 240.036 22.8122 237.44 22.8122V23.6678ZM244.622 24.6122C246.885 25.2409 248.911 26.1611 250.705 27.3707L251.183 26.6613C249.307 25.3962 247.195 24.4391 244.851 23.7878L244.622 24.6122ZM250.699 27.3665C251.475 27.9097 251.913 28.5653 252.06 29.336L252.9 29.1759C252.706 28.1547 252.12 27.3169 251.189 26.6655L250.699 27.3665ZM252.06 29.3399C252.213 30.1013 252.118 30.815 251.777 31.4967L252.543 31.8793C252.97 31.025 253.089 30.1174 252.9 29.1721L252.06 29.3399ZM251.782 31.4878C251.454 32.1079 250.925 32.5532 250.163 32.8202L250.445 33.6278C251.389 33.2974 252.098 32.7188 252.538 31.8882L251.782 31.4878ZM250.175 32.816C249.526 33.021 248.696 32.8878 247.638 32.2774L247.21 33.0186C248.371 33.6882 249.46 33.939 250.433 33.632L250.175 32.816ZM247.635 32.2759C246.024 31.3617 244.387 30.7058 242.723 30.3117L242.525 31.1443C244.104 31.5182 245.666 32.1423 247.213 33.0201L247.635 32.2759ZM242.723 30.3117C241.065 29.9191 239.282 29.7242 237.376 29.7242V30.5798C239.224 30.5798 240.94 30.7688 242.525 31.1443L242.723 30.3117ZM237.376 29.7242C234.377 29.7242 231.972 30.3537 230.209 31.6647L230.719 32.3513C232.284 31.1876 234.487 30.5798 237.376 30.5798V29.7242ZM230.209 31.6647C228.441 32.9795 227.54 34.7261 227.54 36.872H228.396C228.396 35.0073 229.16 33.5112 230.719 32.3513L230.209 31.6647ZM227.54 36.872C227.54 38.5138 228.093 39.8706 229.215 40.8994L229.793 40.2686C228.867 39.4201 228.396 38.3022 228.396 36.872H227.54ZM229.222 40.906C230.332 41.8766 232.171 42.5988 234.665 43.1149L234.839 42.2771C232.384 41.7692 230.724 41.0834 229.786 40.262L229.222 40.906ZM234.664 43.1146L241.64 44.5866L241.816 43.7494L234.84 42.2774L234.664 43.1146ZM241.639 44.5865C245.825 45.4743 248.875 46.8589 250.843 48.7041L251.429 48.0799C249.301 46.0851 246.079 44.6537 241.817 43.7495L241.639 44.5865ZM250.847 48.7071C252.837 50.5353 253.844 52.9749 253.844 56.072H254.7C254.7 52.7691 253.616 50.0887 251.425 48.0769L250.847 48.7071ZM253.844 56.072C253.844 58.6781 253.143 60.9582 251.747 62.9287L252.445 63.4233C253.951 61.2978 254.7 58.8419 254.7 56.072H253.844ZM251.747 62.9287C250.349 64.9023 248.347 66.4566 245.719 67.5828L246.057 68.3692C248.805 67.1914 250.942 65.5457 252.445 63.4233L251.747 62.9287ZM245.723 67.5815C243.141 68.6639 240.064 69.2122 236.48 69.2122V70.0678C240.149 70.0678 243.344 69.5068 246.053 68.3705L245.723 67.5815Z" fill="#0EB29F"/>
</svg>
