<svg width="271" height="244" viewBox="0 0 271 244" fill="none" xmlns="http://www.w3.org/2000/svg">
<g clip-path="url(#clip0_110_107)">
<path d="M2.18903e-07 241.482V204.72C0.000483499 204.507 0.0474435 204.296 0.137622 204.102C0.2278 203.909 0.359036 203.737 0.522224 203.599C0.893604 203.283 1.37033 203.118 1.85775 203.137H12.2252C15.2915 202.986 18.3012 204.001 20.6493 205.979C22.7553 207.874 23.8083 210.862 23.8083 214.942V215.439C23.8083 219.525 22.7353 222.525 20.5893 224.437C18.1955 226.431 15.1404 227.454 12.0283 227.305H4.65721V241.482C4.664 241.725 4.60369 241.966 4.48289 242.177C4.36209 242.388 4.18546 242.562 3.97233 242.68C3.48404 242.97 2.92656 243.123 2.35857 243.123C1.79058 243.123 1.2331 242.97 0.744811 242.68C0.521138 242.57 0.33282 242.399 0.201185 242.187C0.0695499 241.976 -0.000142547 241.731 2.18903e-07 241.482ZM4.58872 223.503H12.0112C12.988 223.563 13.9666 223.42 14.8857 223.085C15.8049 222.749 16.6449 222.227 17.3532 221.552C18.0372 220.755 18.5571 219.832 18.8833 218.835C19.2094 217.837 19.3353 216.785 19.2538 215.739V215.071C19.424 212.959 18.7498 210.865 17.3789 209.249C16.6698 208.576 15.8292 208.057 14.9099 207.724C13.9907 207.391 13.0125 207.252 12.0368 207.314H4.65721L4.58872 223.503Z" fill="#FF6C37"/>
<path d="M39.8604 231.525V215.054C39.8604 210.944 40.9305 207.928 43.0707 206.005C45.5407 204.153 48.5446 203.152 51.6318 203.152C54.7189 203.152 57.7228 204.153 60.1928 206.005C62.3559 207.928 63.4403 210.944 63.446 215.054V231.525C63.446 235.64 62.3702 238.656 60.2185 240.574C57.7466 242.448 54.7296 243.463 51.6275 243.463C48.5254 243.463 45.5084 242.448 43.0365 240.574C40.9219 238.648 39.8604 235.66 39.8604 231.525ZM44.4662 231.525C44.4662 236.696 46.8519 239.284 51.6232 239.29C52.5976 239.353 53.5746 239.214 54.4925 238.881C55.4105 238.548 56.2495 238.028 56.9568 237.355C58.3254 235.734 59.0019 233.64 58.8402 231.525V215.054C58.9252 214.007 58.8026 212.954 58.4793 211.955C58.1561 210.956 57.6387 210.031 56.9568 209.232C56.2495 208.559 55.4105 208.039 54.4925 207.706C53.5746 207.373 52.5976 207.234 51.6232 207.297C46.8462 207.297 44.4662 209.866 44.4662 215.054V231.525Z" fill="#FF6C37"/>
<path d="M79.6865 237.484C79.7017 236.858 79.9246 236.256 80.32 235.771C80.4595 235.535 80.652 235.335 80.8823 235.187C81.1127 235.038 81.3745 234.945 81.647 234.915C82.1323 234.999 82.5754 235.243 82.9055 235.609C83.4106 236.063 83.9499 236.568 84.4978 237.133C85.2372 237.818 86.1122 238.34 87.0661 238.665C88.3458 239.146 89.7061 239.375 91.0727 239.341C93.0765 239.465 95.0569 238.856 96.646 237.629C97.3464 236.995 97.8932 236.21 98.2447 235.334C98.5963 234.457 98.7434 233.512 98.6749 232.57C98.7134 231.671 98.5694 230.774 98.2515 229.932C97.9337 229.09 97.4487 228.322 96.8257 227.673C95.5553 226.404 94.0248 225.425 92.3398 224.805C90.5762 224.154 88.8297 223.469 86.9977 222.699C85.2308 221.953 83.6795 220.775 82.486 219.274C81.203 217.547 80.5504 215.432 80.6368 213.282C80.5953 211.549 80.9681 209.832 81.7241 208.273C82.3732 206.948 83.3894 205.836 84.6519 205.072C85.8377 204.368 87.1176 203.838 88.453 203.496C89.828 203.156 91.2401 202.99 92.6565 203C94.8569 202.99 97.0457 203.319 99.1458 203.976C101.2 204.643 102.245 205.551 102.245 206.647C102.215 207.234 102.025 207.802 101.697 208.29C101.558 208.549 101.352 208.765 101.1 208.916C100.848 209.066 100.561 209.146 100.267 209.147C99.4242 208.889 98.6027 208.565 97.8103 208.179C96.2106 207.468 94.4756 207.111 92.725 207.135C90.8521 207.049 88.9949 207.513 87.3829 208.47C86.6935 208.95 86.1413 209.601 85.781 210.359C85.4206 211.117 85.2645 211.956 85.3283 212.794C85.2902 213.572 85.4336 214.348 85.7471 215.061C86.0606 215.774 86.5356 216.405 87.1346 216.903C88.4744 217.999 90.0035 218.84 91.6463 219.386C93.4184 220.011 95.182 220.721 96.9798 221.526C98.7814 222.393 100.321 223.722 101.44 225.378C102.742 227.384 103.391 229.744 103.298 232.133C103.298 235.9 102.202 238.725 100.01 240.651C97.5703 242.653 94.473 243.675 91.321 243.519C88.4448 243.612 85.5994 242.903 83.1024 241.473C80.808 240.155 79.6865 238.853 79.6865 237.484Z" fill="#FF6C37"/>
<path d="M116.995 205.166C116.978 204.656 117.132 204.156 117.432 203.745C117.559 203.545 117.737 203.383 117.948 203.276C118.159 203.17 118.395 203.121 118.631 203.137H140.889C141.125 203.121 141.361 203.17 141.572 203.276C141.783 203.383 141.961 203.545 142.088 203.745C142.379 204.161 142.532 204.658 142.525 205.166C142.541 205.696 142.388 206.218 142.088 206.655C141.965 206.86 141.788 207.029 141.577 207.142C141.366 207.255 141.129 207.308 140.889 207.297H132.157V241.482C132.162 241.725 132.101 241.965 131.98 242.176C131.86 242.387 131.684 242.561 131.472 242.68C130.984 242.97 130.426 243.123 129.858 243.123C129.29 243.123 128.733 242.97 128.245 242.68C128.033 242.561 127.857 242.387 127.737 242.176C127.616 241.965 127.555 241.725 127.56 241.482V207.297H118.699C118.463 207.311 118.227 207.261 118.016 207.153C117.805 207.044 117.627 206.881 117.501 206.681C117.17 206.245 116.992 205.713 116.995 205.166Z" fill="#FF6C37"/>
<path d="M158.122 241.482V205.465C158.038 204.943 158.164 204.409 158.471 203.979C158.779 203.55 159.245 203.259 159.766 203.171C160.005 203.137 160.247 203.137 160.485 203.171C161.941 203.171 163.156 204.13 164.158 206.073L172.719 222.536L181.374 206.073C182.427 204.13 183.643 203.171 185.03 203.171C185.551 203.089 186.082 203.217 186.509 203.527C186.936 203.837 187.223 204.303 187.307 204.823C187.341 205.013 187.341 205.207 187.307 205.397V241.422C187.314 241.665 187.255 241.906 187.136 242.119C187.017 242.331 186.842 242.508 186.631 242.629C186.139 242.914 185.581 243.065 185.013 243.065C184.444 243.065 183.886 242.914 183.395 242.629C183.183 242.508 183.008 242.331 182.889 242.119C182.77 241.906 182.711 241.665 182.718 241.422V212.759L174.457 228.289C174.328 228.668 174.087 228.999 173.766 229.237C173.445 229.476 173.059 229.611 172.659 229.624C172.271 229.603 171.899 229.464 171.593 229.225C171.287 228.987 171.062 228.66 170.947 228.289L162.685 212.494V241.482C162.69 241.725 162.629 241.964 162.508 242.175C162.388 242.387 162.212 242.561 162 242.68C161.546 242.999 161.006 243.175 160.451 243.185C159.883 243.201 159.323 243.049 158.841 242.749C158.612 242.63 158.422 242.447 158.294 242.222C158.166 241.997 158.107 241.74 158.122 241.482Z" fill="#FF6C37"/>
<path d="M203.034 241.225C203.045 241.071 203.083 240.921 203.145 240.78L214.343 204.746C214.66 203.693 215.584 203.162 217.125 203.162C218.666 203.162 219.599 203.693 219.916 204.746L231.148 240.959C231.14 241.025 231.14 241.091 231.148 241.156C231.165 241.209 231.165 241.266 231.148 241.319C231.138 241.598 231.053 241.869 230.903 242.104C230.752 242.339 230.541 242.529 230.292 242.654C229.691 243.024 228.994 243.209 228.289 243.185C227.938 243.231 227.582 243.154 227.282 242.967C226.983 242.779 226.757 242.493 226.645 242.158L224.248 234.153H209.865L207.468 242.158C207.359 242.511 207.125 242.813 206.81 243.007C206.495 243.2 206.121 243.273 205.756 243.211C205.097 243.211 204.452 243.021 203.898 242.663C203.633 242.53 203.41 242.324 203.257 242.069C203.104 241.815 203.027 241.522 203.034 241.225ZM210.978 230.267H223.212L217.091 209.823L210.978 230.267Z" fill="#FF6C37"/>
<path d="M247.012 241.482V204.721C247.012 203.668 247.774 203.137 249.307 203.137C250.017 203.119 250.711 203.359 251.258 203.813C251.906 204.449 252.429 205.202 252.799 206.03L266.429 232.724V204.695C266.427 204.456 266.49 204.221 266.611 204.015C266.731 203.809 266.905 203.638 267.114 203.522C267.609 203.252 268.163 203.111 268.727 203.111C269.291 203.111 269.846 203.252 270.341 203.522C270.549 203.639 270.721 203.809 270.84 204.016C270.959 204.222 271.02 204.457 271.017 204.695V241.507C271.024 241.75 270.965 241.989 270.845 242.2C270.726 242.411 270.552 242.586 270.341 242.706C269.857 243.008 269.294 243.16 268.723 243.142C268.092 243.111 267.483 242.897 266.97 242.528C266.457 242.159 266.061 241.65 265.829 241.062L251.601 213.556V241.507C251.608 241.75 251.548 241.989 251.429 242.2C251.31 242.411 251.135 242.586 250.925 242.706C250.435 242.996 249.876 243.149 249.307 243.149C248.737 243.149 248.178 242.996 247.689 242.706C247.474 242.584 247.297 242.405 247.177 242.189C247.058 241.973 247.001 241.728 247.012 241.482Z" fill="#FF6C37"/>
<path d="M220.43 96.5173C222.587 79.7226 219.715 62.6655 212.177 47.5031C204.639 32.3407 192.775 19.7541 178.083 11.3349C163.392 2.91578 146.534 -0.957724 129.642 0.204279C112.749 1.36628 96.5803 7.5116 83.1802 17.8631C69.7802 28.2145 59.7508 42.3072 54.3603 58.3589C48.9698 74.4106 48.4604 91.7003 52.8964 108.041C57.3325 124.383 66.5148 139.041 79.2821 150.164C92.0494 161.286 107.828 168.373 124.623 170.528C147.142 173.416 169.886 167.242 187.853 153.363C205.82 139.484 217.538 119.036 220.43 96.5173Z" fill="#FF6C37"/>
<path d="M166.392 55.0219L130.299 91.1153L120.068 80.8934C155.605 45.3736 159.132 48.4983 166.392 55.0219Z" fill="white"/>
<path d="M130.299 91.9799C130.186 91.9795 130.074 91.9565 129.969 91.9124C129.865 91.8683 129.77 91.804 129.691 91.7231L119.418 81.4498C119.258 81.2894 119.169 81.0724 119.169 80.8463C119.169 80.6201 119.258 80.4031 119.418 80.2427C155.546 44.1151 159.347 47.5309 166.923 54.337C167.01 54.4151 167.079 54.51 167.128 54.616C167.177 54.722 167.203 54.8368 167.206 54.9534C167.21 55.0703 167.19 55.1869 167.147 55.2959C167.104 55.4048 167.04 55.5039 166.957 55.5869L130.898 91.7231C130.74 91.8844 130.525 91.9767 130.299 91.9799ZM121.284 80.8506L130.299 89.891L165.151 55.039C158.824 49.4486 154.527 47.7107 121.284 80.8934V80.8506Z" fill="#FF6C37"/>
<path d="M140.641 101.466L130.778 91.6032L166.88 55.5013C176.597 65.2266 162.189 81.0817 140.641 101.466Z" fill="white"/>
<path d="M140.641 102.322H140.598C140.382 102.304 140.179 102.21 140.025 102.056L130.171 92.2111C130.015 92.047 129.926 91.8299 129.923 91.6033C129.922 91.4906 129.944 91.3789 129.986 91.2746C130.029 91.1703 130.092 91.0754 130.171 90.9954L166.273 54.902C166.433 54.7426 166.65 54.6531 166.877 54.6531C167.103 54.6531 167.32 54.7426 167.48 54.902C168.561 55.9289 169.417 57.1692 169.993 58.5442C170.569 59.9191 170.853 61.3989 170.828 62.8895C170.691 72.3837 159.878 84.4462 141.232 102.082C141.073 102.235 140.862 102.321 140.641 102.322ZM131.995 91.6033C137.517 97.1337 139.751 99.3596 140.658 100.267C155.075 86.5694 168.978 72.5378 169.115 62.8724C169.173 60.6128 168.365 58.4166 166.855 56.7341L131.995 91.6033Z" fill="#FF6C37"/>
<path d="M120.317 81.1417L127.603 88.4185C127.647 88.4635 127.679 88.5197 127.694 88.5811C127.709 88.6426 127.707 88.7069 127.689 88.7675C127.671 88.828 127.636 88.8824 127.589 88.925C127.542 88.9675 127.485 88.9967 127.423 89.0093L112.398 92.2453C112.1 92.3111 111.788 92.2783 111.51 92.1518C111.231 92.0252 111.001 91.8118 110.855 91.5435C110.708 91.2753 110.652 90.9667 110.696 90.6641C110.74 90.3615 110.881 90.0812 111.097 89.8654L119.855 81.1417C119.919 81.0857 120.001 81.0548 120.086 81.0548C120.171 81.0548 120.253 81.0857 120.317 81.1417Z" fill="white"/>
<path d="M112.09 93.1357C111.641 93.1344 111.203 93 110.831 92.7496C110.458 92.4991 110.169 92.1439 109.998 91.7287C109.828 91.3136 109.784 90.8572 109.873 90.4173C109.962 89.9774 110.18 89.5738 110.498 89.2575L119.213 80.5338C119.441 80.308 119.748 80.1812 120.069 80.1812C120.39 80.1812 120.698 80.308 120.925 80.5338L128.202 87.8193C128.357 87.9716 128.468 88.1632 128.522 88.3736C128.577 88.584 128.573 88.8052 128.512 89.0136C128.45 89.2221 128.333 89.4098 128.173 89.5568C128.013 89.7038 127.816 89.8046 127.603 89.8482L112.578 93.0843C112.418 93.1183 112.254 93.1355 112.09 93.1357ZM120.069 82.1005L111.705 90.4646C111.616 90.5487 111.558 90.6606 111.541 90.782C111.524 90.9034 111.548 91.0269 111.611 91.1324C111.664 91.2417 111.754 91.329 111.865 91.379C111.976 91.429 112.101 91.4387 112.219 91.4063L126.336 88.3672L120.069 82.1005Z" fill="#FF6C37"/>
<path d="M185.535 34.9805C183.671 33.1894 181.343 31.9557 178.814 31.419C176.285 30.8822 173.657 31.0637 171.226 31.943C168.795 32.8223 166.659 34.3643 165.059 36.3946C163.459 38.4248 162.458 40.8624 162.172 43.4314C161.885 46.0005 162.322 48.5986 163.435 50.9318C164.548 53.2651 166.292 55.2404 168.469 56.6343C170.646 58.0282 173.169 58.7851 175.754 58.8194C178.339 58.8536 180.882 58.1639 183.095 56.8282L173.387 47.1286L185.535 34.9805Z" fill="white"/>
<path d="M175.929 59.6877C173.521 59.6885 171.15 59.0983 169.023 57.9689C166.896 56.8394 165.078 55.2053 163.73 53.2099C162.382 51.2144 161.544 48.9186 161.29 46.5238C161.036 44.1291 161.374 41.7086 162.273 39.4746C163.172 37.2407 164.606 35.2617 166.449 33.7111C168.292 32.1606 170.487 31.0859 172.841 30.5813C175.196 30.0768 177.639 30.1579 179.955 30.8174C182.271 31.4769 184.39 32.6948 186.126 34.3641C186.208 34.4426 186.274 34.5369 186.32 34.6412C186.365 34.7456 186.389 34.858 186.391 34.9719C186.393 35.086 186.372 35.1993 186.329 35.3052C186.286 35.411 186.223 35.5073 186.143 35.5883L174.645 47.1286L183.746 56.2204C183.837 56.3129 183.906 56.425 183.947 56.5481C183.989 56.6712 184.002 56.8021 183.985 56.931C183.97 57.061 183.925 57.1857 183.853 57.2955C183.782 57.4054 183.687 57.4974 183.574 57.5645C181.268 58.958 178.624 59.6924 175.929 59.6877ZM175.929 32.0012C173.975 32.0027 172.047 32.4455 170.287 33.2966C168.528 34.1476 166.984 35.3849 165.77 36.9162C164.556 38.4474 163.703 40.2331 163.275 42.1399C162.848 44.0467 162.856 46.0255 163.3 47.9286C163.744 49.8317 164.612 51.6099 165.84 53.1307C167.067 54.6514 168.622 55.8754 170.388 56.7112C172.155 57.5471 174.087 57.9732 176.041 57.9579C177.995 57.9426 179.921 57.4862 181.674 56.6228L172.787 47.7279C172.626 47.5698 172.534 47.3544 172.531 47.1286C172.531 47.0153 172.554 46.9033 172.598 46.7989C172.642 46.6946 172.707 46.6001 172.787 46.5208L184.293 35.0147C181.948 33.0607 178.99 31.9939 175.938 32.0012H175.929Z" fill="#FF6C37"/>
<path d="M185.775 35.1688L185.561 34.9805L173.387 47.1286L183.095 56.8283C184.069 56.2618 184.969 55.5775 185.775 54.7907C187.064 53.5027 188.086 51.9733 188.784 50.2899C189.482 48.6065 189.841 46.8021 189.841 44.9798C189.841 43.1575 189.482 41.3531 188.784 39.6697C188.086 37.9862 187.064 36.4568 185.775 35.1688Z" fill="white"/>
<path d="M183.096 57.6844C182.983 57.685 182.871 57.6634 182.767 57.6208C182.663 57.5782 182.568 57.5154 182.488 57.4361L172.788 47.7279C172.627 47.5698 172.534 47.3544 172.531 47.1286C172.532 47.0153 172.555 46.9033 172.599 46.7989C172.643 46.6946 172.707 46.6 172.788 46.5208L184.919 34.3726C185.079 34.2158 185.294 34.1279 185.518 34.1279C185.742 34.1279 185.958 34.2158 186.118 34.3726L186.34 34.5695C187.925 36.1465 189.128 38.0644 189.858 40.177C190.589 42.2896 190.828 44.5411 190.556 46.7599C190.284 48.9787 189.509 51.1062 188.291 52.9801C187.072 54.854 185.442 56.4249 183.524 57.5731C183.393 57.647 183.246 57.6854 183.096 57.6844ZM174.646 47.1286L183.207 55.741C183.896 55.2763 184.541 54.749 185.133 54.1658C187.502 51.7968 188.865 48.605 188.938 45.2557C189.012 41.9064 187.79 38.658 185.527 36.1876L174.646 47.1286Z" fill="#FF6C37"/>
<path d="M167.882 56.5029C166.892 55.5164 165.551 54.9625 164.154 54.9625C162.756 54.9625 161.415 55.5164 160.425 56.5029L128.142 88.7952L133.552 94.1716L167.677 64.2079C168.218 63.7288 168.655 63.1435 168.96 62.4884C169.266 61.8334 169.433 61.1225 169.452 60.4C169.472 59.6775 169.342 58.9587 169.072 58.2883C168.802 57.6179 168.397 57.0102 167.882 56.5029Z" fill="white"/>
<path d="M133.553 95.0277C133.44 95.0283 133.328 95.0067 133.224 94.9641C133.12 94.9215 133.025 94.8588 132.945 94.7794L127.56 89.4031C127.48 89.3235 127.416 89.2288 127.372 89.1245C127.329 89.0202 127.307 88.9083 127.307 88.7952C127.307 88.6822 127.329 88.5703 127.372 88.466C127.416 88.3617 127.48 88.267 127.56 88.1874L159.818 55.9037C160.97 54.7572 162.529 54.1136 164.154 54.1136C165.779 54.1136 167.338 54.7572 168.49 55.9037C169.082 56.4958 169.547 57.2032 169.854 57.9819C170.162 58.7607 170.307 59.5944 170.28 60.4313C170.252 61.2683 170.054 62.0908 169.696 62.8479C169.338 63.6049 168.829 64.2805 168.199 64.8329L134.075 94.7965C133.932 94.9311 133.748 95.0127 133.553 95.0277ZM129.392 88.8038L133.587 92.9987L167.112 63.5573C167.568 63.1698 167.94 62.6938 168.206 62.1582C168.472 61.6226 168.627 61.0385 168.661 60.4413C168.694 59.8442 168.606 59.2464 168.402 58.6842C168.198 58.122 167.882 57.6071 167.473 57.1708C167.064 56.7344 166.57 56.3857 166.022 56.1457C165.475 55.9057 164.884 55.7795 164.286 55.7747C163.688 55.7699 163.095 55.8866 162.543 56.1177C161.991 56.3489 161.492 56.6896 161.076 57.1194L129.392 88.8038Z" fill="#FF6C37"/>
<path d="M103.383 125.488C103.231 125.567 103.109 125.693 103.037 125.848C102.964 126.003 102.944 126.177 102.98 126.344L104.427 132.525C104.555 132.905 104.547 133.317 104.402 133.691C104.258 134.065 103.987 134.376 103.636 134.57C103.286 134.765 102.879 134.83 102.485 134.755C102.091 134.68 101.737 134.47 101.482 134.16L92.125 124.803L122.851 94.086L133.423 94.2486L140.64 101.457C138.851 102.955 128.501 112.895 103.383 125.488Z" fill="white"/>
<path d="M102.733 135.547C102.392 135.547 102.054 135.479 101.739 135.346C101.425 135.214 101.14 135.02 100.901 134.777L91.5178 125.411C91.3597 125.251 91.2705 125.036 91.2695 124.812C91.2689 124.699 91.2905 124.587 91.3331 124.483C91.3757 124.379 91.4385 124.284 91.5178 124.204L122.243 93.4781C122.324 93.3977 122.421 93.3344 122.527 93.2917C122.632 93.2491 122.746 93.2281 122.86 93.2298L133.441 93.3925C133.663 93.3957 133.875 93.4847 134.032 93.6408L141.24 100.858C141.326 100.941 141.392 101.041 141.437 101.152C141.481 101.262 141.501 101.381 141.497 101.5C141.491 101.618 141.461 101.734 141.408 101.84C141.355 101.947 141.28 102.04 141.189 102.116L140.581 102.647C131.524 110.6 119.179 118.528 103.829 126.216L105.267 132.337C105.403 132.89 105.352 133.472 105.121 133.993C104.89 134.514 104.493 134.943 103.991 135.213C103.606 135.428 103.174 135.543 102.733 135.547ZM93.3156 124.812L102.091 133.552C102.204 133.752 102.392 133.899 102.614 133.96C102.836 134.021 103.072 133.991 103.272 133.878C103.472 133.764 103.618 133.576 103.679 133.354C103.74 133.133 103.711 132.896 103.597 132.696L102.151 126.515C102.068 126.159 102.107 125.786 102.262 125.455C102.418 125.124 102.68 124.855 103.007 124.692C118.194 117.072 130.402 109.23 139.391 101.38L133.073 95.0619L123.202 94.9078L93.3156 124.812Z" fill="#FF6C37"/>
<path d="M84.7544 132.166L92.1083 124.812L103.041 135.744L85.5763 134.546C85.3146 134.516 85.0668 134.412 84.8613 134.248C84.6559 134.083 84.5013 133.863 84.4153 133.615C84.3293 133.366 84.3156 133.097 84.3756 132.841C84.4356 132.585 84.5669 132.35 84.7544 132.166Z" fill="white"/>
<path d="M103.058 136.6H103.006L85.5331 135.402C85.1083 135.358 84.7046 135.195 84.3687 134.931C84.0327 134.668 83.7784 134.314 83.635 133.912C83.4917 133.51 83.4652 133.075 83.5588 132.658C83.6523 132.242 83.8619 131.86 84.1634 131.558L91.5173 124.204C91.5969 124.124 91.6916 124.06 91.7959 124.016C91.9002 123.973 92.0121 123.951 92.1251 123.951C92.2382 123.951 92.35 123.973 92.4544 124.016C92.5587 124.06 92.6534 124.124 92.733 124.204L103.665 135.136C103.791 135.259 103.876 135.418 103.908 135.591C103.94 135.765 103.918 135.943 103.845 136.104C103.776 136.254 103.665 136.38 103.525 136.468C103.385 136.556 103.223 136.602 103.058 136.6ZM92.1251 126.019L85.379 132.765C85.3037 132.835 85.2506 132.926 85.2263 133.027C85.202 133.127 85.2074 133.233 85.2421 133.33C85.2743 133.428 85.3343 133.515 85.4148 133.581C85.4952 133.646 85.5928 133.687 85.6958 133.698L100.84 134.734L92.1251 126.019Z" fill="#FF6C37"/>
<path d="M119.734 98.0497C119.566 98.0491 119.402 97.9988 119.262 97.9052C119.122 97.8116 119.013 97.6789 118.948 97.5236C118.883 97.3683 118.865 97.1973 118.897 97.0321C118.929 96.8668 119.009 96.7146 119.127 96.5944L127.448 88.273C127.527 88.1928 127.622 88.1291 127.726 88.0856C127.831 88.0422 127.943 88.0198 128.056 88.0198C128.169 88.0198 128.281 88.0422 128.385 88.0856C128.489 88.1291 128.584 88.1928 128.664 88.273L134.023 93.6408C134.134 93.7497 134.214 93.887 134.253 94.0379C134.292 94.1887 134.29 94.3475 134.245 94.4969C134.201 94.6439 134.118 94.7763 134.005 94.8802C133.892 94.9841 133.753 95.0558 133.603 95.0876L119.906 98.0412C119.849 98.0517 119.792 98.0546 119.734 98.0497ZM128.056 90.088L122.423 95.7468L131.728 93.735L128.056 90.088Z" fill="#FF6C37"/>
<path d="M133.424 94.2486L124.007 96.269C123.733 96.3307 123.446 96.3014 123.19 96.1854C122.934 96.0695 122.723 95.8733 122.588 95.6266C122.454 95.3798 122.403 95.0959 122.445 94.8179C122.486 94.5399 122.617 94.283 122.817 94.086L128.022 88.8809L133.424 94.2486Z" fill="white"/>
<path d="M123.758 97.1508C123.333 97.1509 122.917 97.0246 122.563 96.7879C122.21 96.5513 121.934 96.215 121.772 95.8216C121.609 95.4282 121.568 94.9955 121.652 94.5783C121.735 94.1611 121.941 93.7782 122.243 93.4782L127.448 88.273C127.528 88.1928 127.623 88.1291 127.727 88.0856C127.831 88.0422 127.943 88.0198 128.056 88.0198C128.169 88.0198 128.281 88.0422 128.385 88.0856C128.49 88.1291 128.584 88.1928 128.664 88.273L134.023 93.6408C134.135 93.7497 134.214 93.887 134.254 94.0379C134.293 94.1888 134.29 94.3475 134.246 94.4969C134.201 94.6439 134.119 94.7763 134.006 94.8802C133.893 94.9841 133.754 95.0558 133.604 95.0876L124.187 97.1166C124.045 97.1425 123.902 97.154 123.758 97.1508ZM128.039 90.088L123.433 94.6853C123.364 94.7514 123.319 94.8393 123.307 94.9343C123.294 95.0293 123.315 95.1257 123.365 95.2075C123.403 95.2974 123.473 95.37 123.561 95.4112C123.65 95.4523 123.751 95.459 123.844 95.4301L131.686 93.7179L128.039 90.088Z" fill="#FF6C37"/>
<path d="M185.834 43.396C185.79 43.2612 185.718 43.1375 185.622 43.033C185.527 42.9285 185.41 42.8457 185.279 42.7901C185.149 42.7345 185.008 42.7075 184.867 42.7109C184.725 42.7142 184.586 42.7478 184.458 42.8095C184.33 42.8711 184.217 42.9594 184.127 43.0682C184.036 43.1771 183.97 43.3042 183.932 43.4408C183.895 43.5775 183.887 43.7206 183.909 43.8605C183.932 44.0004 183.984 44.1339 184.062 44.2521C184.317 44.7672 184.417 45.3449 184.352 45.9158C184.287 46.4867 184.058 47.0267 183.694 47.471C183.526 47.6733 183.446 47.9337 183.47 48.1953C183.494 48.4568 183.621 48.6981 183.822 48.8665C184.027 49.0308 184.287 49.1085 184.548 49.0829C184.809 49.0573 185.049 48.9304 185.218 48.7295C185.822 47.9936 186.201 47.0993 186.311 46.1534C186.42 45.2076 186.255 44.2503 185.834 43.396Z" fill="#FF6C37"/>
</g>
<defs>
<clipPath id="clip0_110_107">
<rect width="271" height="243.579" fill="white"/>
</clipPath>
</defs>
</svg>
