<svg width="31" height="34" viewBox="0 0 31 34" fill="none" xmlns="http://www.w3.org/2000/svg">
<path d="M4.76599 5H25.766C26.5616 5 27.3247 5.31607 27.8873 5.87868C28.4499 6.44129 28.766 7.20435 28.766 8V29C28.766 29.7956 28.4499 30.5587 27.8873 31.1213C27.3247 31.6839 26.5616 32 25.766 32H4.76599C3.97034 32 3.20728 31.6839 2.64467 31.1213C2.08206 30.5587 1.76599 29.7956 1.76599 29V8C1.76599 7.20435 2.08206 6.44129 2.64467 5.87868C3.20728 5.31607 3.97034 5 4.76599 5V5Z" stroke="#0EB29F" stroke-width="3" stroke-linecap="round" stroke-linejoin="round"/>
<path d="M21.266 2V8" stroke="#0EB29F" stroke-width="3" stroke-linecap="round" stroke-linejoin="round"/>
<path d="M9.26599 2V8" stroke="#0EB29F" stroke-width="3" stroke-linecap="round" stroke-linejoin="round"/>
<path d="M1.76599 14H28.766" stroke="#0EB29F" stroke-width="3" stroke-linecap="round" stroke-linejoin="round"/>
</svg>
