<svg width="24" height="25" viewBox="0 0 24 25" fill="none" xmlns="http://www.w3.org/2000/svg">
<g clip-path="url(#clip0_155_1377)">
<path d="M20.317 4.992C18.787 4.302 17.147 3.792 15.432 3.502C15.4167 3.49906 15.4009 3.50095 15.3868 3.5074C15.3726 3.51385 15.3608 3.52454 15.353 3.538C15.143 3.907 14.909 4.388 14.745 4.768C12.9261 4.49623 11.0769 4.49623 9.25799 4.768C9.07533 4.34686 8.86934 3.93622 8.64099 3.538C8.63325 3.52438 8.62154 3.51345 8.60743 3.50666C8.59331 3.49987 8.57746 3.49754 8.56199 3.5C6.84799 3.79 5.20799 4.3 3.67699 4.991C3.66382 4.99652 3.65265 5.00594 3.64499 5.018C0.532992 9.593 -0.320008 14.055 0.0989923 18.461C0.100158 18.4718 0.103508 18.4822 0.108837 18.4917C0.114167 18.5011 0.121364 18.5094 0.129992 18.516C1.94638 19.8384 3.97233 20.8458 6.12299 21.496C6.13798 21.5006 6.15402 21.5006 6.16901 21.496C6.18399 21.4913 6.19723 21.4823 6.20699 21.47C6.66979 20.8511 7.07989 20.1944 7.43299 19.507C7.43789 19.4976 7.44072 19.4873 7.44127 19.4767C7.44183 19.4661 7.44011 19.4555 7.43622 19.4456C7.43233 19.4358 7.42637 19.4269 7.41874 19.4195C7.41111 19.4122 7.40199 19.4065 7.39199 19.403C6.746 19.1597 6.12008 18.8662 5.51999 18.525C5.50921 18.5188 5.50012 18.5101 5.49355 18.4996C5.48698 18.489 5.48312 18.477 5.48233 18.4647C5.48153 18.4523 5.48383 18.4399 5.48901 18.4286C5.49418 18.4173 5.50208 18.4075 5.51199 18.4C5.63799 18.307 5.76399 18.21 5.88399 18.113C5.89479 18.1043 5.9078 18.0987 5.92158 18.097C5.93535 18.0952 5.94934 18.0973 5.96199 18.103C9.88899 19.867 14.142 19.867 18.023 18.103C18.0357 18.0969 18.0498 18.0946 18.0638 18.0962C18.0778 18.0978 18.091 18.1032 18.102 18.112C18.222 18.21 18.347 18.307 18.474 18.4C18.484 18.4073 18.492 18.417 18.4974 18.4282C18.5027 18.4394 18.5052 18.4517 18.5046 18.4641C18.504 18.4765 18.5004 18.4885 18.494 18.4992C18.4876 18.5098 18.4787 18.5187 18.468 18.525C17.87 18.869 17.248 19.16 16.595 19.402C16.585 19.4056 16.5758 19.4114 16.5682 19.4188C16.5606 19.4263 16.5546 19.4353 16.5507 19.4452C16.5468 19.4552 16.5451 19.4658 16.5457 19.4765C16.5463 19.4871 16.5491 19.4975 16.554 19.507C16.914 20.194 17.326 20.848 17.779 21.469C17.7884 21.4817 17.8015 21.4913 17.8166 21.4963C17.8316 21.5013 17.8478 21.5015 17.863 21.497C20.0173 20.8486 22.0466 19.8408 23.865 18.516C23.8739 18.5098 23.8813 18.5018 23.8868 18.4925C23.8923 18.4831 23.8958 18.4728 23.897 18.462C24.397 13.368 23.059 8.942 20.348 5.02C20.3413 5.00725 20.3303 4.99732 20.317 4.992ZM8.01999 15.778C6.83799 15.778 5.86299 14.709 5.86299 13.398C5.86299 12.086 6.81899 11.018 8.01999 11.018C9.22999 11.018 10.196 12.095 10.177 13.398C10.177 14.71 9.22099 15.778 8.01999 15.778ZM15.995 15.778C14.812 15.778 13.838 14.709 13.838 13.398C13.838 12.086 14.793 11.018 15.995 11.018C17.205 11.018 18.171 12.095 18.152 13.398C18.152 14.71 17.206 15.778 15.995 15.778Z" fill="#0EB29F"/>
</g>
<defs>
<clipPath id="clip0_155_1377">
<rect width="24" height="24" fill="white" transform="translate(0 0.5)"/>
</clipPath>
</defs>
</svg>
