<svg width="25" height="34" viewBox="0 0 25 34" fill="none" xmlns="http://www.w3.org/2000/svg">
<path d="M12.066 1.5C10.6868 1.49895 9.32095 1.76982 8.04656 2.29713C6.77217 2.82443 5.61424 3.59781 4.63901 4.57304C3.66379 5.54826 2.89041 6.70619 2.3631 7.98058C1.8358 9.25498 1.56493 10.6208 1.56598 12C1.56598 19.875 12.066 31.5 12.066 31.5C12.066 31.5 22.566 19.875 22.566 12C22.567 10.6208 22.2962 9.25498 21.7689 7.98058C21.2416 6.70619 20.4682 5.54826 19.493 4.57304C18.5177 3.59781 17.3598 2.82443 16.0854 2.29713C14.811 1.76982 13.4452 1.49895 12.066 1.5V1.5ZM12.066 15.75C11.3243 15.75 10.5993 15.5301 9.98259 15.118C9.36591 14.706 8.88526 14.1203 8.60143 13.4351C8.31761 12.7498 8.24334 11.9958 8.38804 11.2684C8.53273 10.541 8.88988 9.8728 9.41433 9.34835C9.93878 8.82391 10.607 8.46675 11.3344 8.32206C12.0618 8.17736 12.8158 8.25163 13.501 8.53545C14.1863 8.81928 14.7719 9.29993 15.184 9.91661C15.596 10.5333 15.816 11.2583 15.816 12C15.8157 12.9945 15.4205 13.9482 14.7173 14.6514C14.0141 15.3546 13.0605 15.7497 12.066 15.75V15.75Z" stroke="#0EB29F" stroke-width="3"/>
</svg>
