<svg width="46" height="46" viewBox="0 0 46 46" fill="none" xmlns="http://www.w3.org/2000/svg">
<path d="M23 46C35.7025 46 46 35.7025 46 23C46 10.2975 35.7025 0 23 0C10.2975 0 0 10.2975 0 23C0 35.7025 10.2975 46 23 46Z" fill="#0EB29F"/>
<path d="M30.4705 15.4591C29.0045 14.7837 27.4325 14.2862 25.7889 14.0012C25.759 13.9957 25.7291 14.0094 25.7137 14.0369C25.5115 14.398 25.2875 14.869 25.1307 15.2392C23.3629 14.9734 21.6041 14.9734 19.8726 15.2392C19.7157 14.8607 19.4836 14.398 19.2806 14.0369C19.2651 14.0104 19.2352 13.9966 19.2053 14.0012C17.5626 14.2853 15.9906 14.7828 14.5237 15.4591C14.511 15.4646 14.5001 15.4738 14.4929 15.4857C11.5112 19.9584 10.6943 24.3211 11.095 28.6297C11.0969 28.6508 11.1086 28.671 11.125 28.6838C13.0922 30.1344 14.9979 31.015 16.8681 31.5987C16.8981 31.6079 16.9298 31.5969 16.9488 31.5721C17.3912 30.9655 17.7856 30.3259 18.1237 29.6533C18.1437 29.6139 18.1247 29.5672 18.0839 29.5516C17.4583 29.3133 16.8627 29.0228 16.2897 28.693C16.2444 28.6664 16.2408 28.6013 16.2825 28.5702C16.4031 28.4794 16.5237 28.3851 16.6388 28.2898C16.6596 28.2724 16.6886 28.2687 16.7131 28.2797C20.4772 30.0052 24.5523 30.0052 28.272 28.2797C28.2965 28.2678 28.3255 28.2714 28.3472 28.2888C28.4624 28.3841 28.583 28.4794 28.7045 28.5702C28.7462 28.6013 28.7434 28.6664 28.6981 28.693C28.1252 29.0293 27.5295 29.3133 26.9031 29.5507C26.8623 29.5662 26.8442 29.6139 26.8641 29.6533C27.2095 30.325 27.6039 30.9646 28.0381 31.5712C28.0563 31.5969 28.0889 31.6079 28.1188 31.5987C29.9981 31.015 31.9038 30.1344 33.871 28.6838C33.8883 28.671 33.8992 28.6517 33.901 28.6307C34.3805 23.6494 33.0977 19.3224 30.5004 15.4866C30.494 15.4738 30.4832 15.4646 30.4705 15.4591ZM18.6859 26.0062C17.5526 26.0062 16.6188 24.9616 16.6188 23.6787C16.6188 22.3958 17.5345 21.3512 18.6859 21.3512C19.8463 21.3512 20.771 22.405 20.7528 23.6787C20.7528 24.9616 19.8372 26.0062 18.6859 26.0062ZM26.3283 26.0062C25.1951 26.0062 24.2613 24.9616 24.2613 23.6787C24.2613 22.3958 25.1769 21.3512 26.3283 21.3512C27.4887 21.3512 28.4134 22.405 28.3953 23.6787C28.3953 24.9616 27.4887 26.0062 26.3283 26.0062Z" fill="white"/>
</svg>
