<svg width="46" height="46" viewBox="0 0 46 46" fill="none" xmlns="http://www.w3.org/2000/svg">
<circle cx="23" cy="23" r="23" fill="#0EB29F"/>
<path fill-rule="evenodd" clip-rule="evenodd" d="M22.7647 10C15.7143 10 10 15.7374 10 22.8164C10 28.478 13.6564 33.2826 18.7295 34.9788C19.3681 35.0944 19.5985 34.6999 19.5985 34.3607C19.5985 34.0561 19.5882 33.2492 19.5844 32.1814C16.033 32.9549 15.283 30.4621 15.283 30.4621C14.7045 28.9818 13.8663 28.5873 13.8663 28.5873C12.7081 27.7919 13.9546 27.8098 13.9546 27.8098C15.2369 27.8998 15.9088 29.1308 15.9088 29.1308C17.0479 31.0891 18.8984 30.5237 19.6228 30.1961C19.7393 29.3672 20.072 28.8019 20.4355 28.4819C17.602 28.1594 14.6226 27.0594 14.6226 22.1469C14.6226 20.7502 15.1205 19.604 15.9331 18.7096C15.8039 18.3845 15.3624 17.0802 16.0598 15.3173C16.0598 15.3173 17.131 14.9716 19.569 16.6292C20.6103 16.3448 21.6844 16.1997 22.7634 16.1975C23.8425 16.1992 24.9167 16.3444 25.9578 16.6292C28.3971 14.9703 29.467 15.3173 29.467 15.3173C30.1645 17.0802 29.7268 18.3845 29.5937 18.7096C30.4128 19.604 30.9042 20.7489 30.9042 22.1469C30.9042 27.0723 27.9223 28.1542 25.0786 28.4716C25.5329 28.8674 25.9424 29.6487 25.9424 30.8437C25.9424 32.5579 25.9271 33.9405 25.9271 34.3607C25.9271 34.7038 26.1549 35.1021 26.8063 34.9762C31.8769 33.2774 35.5294 28.4768 35.5294 22.8164C35.5294 15.7374 29.8151 10 22.7647 10Z" fill="white"/>
</svg>
