<svg width="46" height="46" viewBox="0 0 46 46" fill="none" xmlns="http://www.w3.org/2000/svg">
<circle cx="23" cy="23" r="23" fill="#3F51B5"/>
<g clip-path="url(#clip0_267_913)">
<path d="M23.503 16.6034C22.3369 16.6034 21.197 16.9492 20.2275 17.5972C19.2579 18.2452 18.5022 19.1662 18.056 20.2437C17.6098 21.3213 17.4931 22.507 17.7206 23.6509C17.9481 24.7948 18.5096 25.8456 19.3342 26.6702C20.1587 27.4949 21.2093 28.0566 22.353 28.2841C23.4966 28.5116 24.6821 28.3947 25.7594 27.9484C26.8367 27.502 27.7574 26.7461 28.4052 25.7763C29.053 24.8065 29.3988 23.6664 29.3987 22.5001C29.3999 21.7253 29.2483 20.958 28.9524 20.242C28.6565 19.526 28.2223 18.8754 27.6746 18.3276C27.1269 17.7798 26.4765 17.3455 25.7606 17.0497C25.0447 16.7538 24.2775 16.6021 23.503 16.6034ZM23.503 26.3341C22.7449 26.3341 22.0039 26.1092 21.3736 25.688C20.7433 25.2668 20.252 24.668 19.9619 23.9675C19.6718 23.267 19.5958 22.4962 19.7437 21.7525C19.8916 21.0089 20.2566 20.3258 20.7926 19.7896C21.3286 19.2534 22.0116 18.8883 22.755 18.7403C23.4985 18.5924 24.2692 18.6683 24.9696 18.9584C25.6699 19.2485 26.2686 19.7398 26.6898 20.3702C27.111 21.0007 27.3358 21.7418 27.3359 22.5001C27.334 23.5163 26.9296 24.4903 26.2112 25.2089C25.4928 25.9274 24.519 26.3319 23.503 26.3338V26.3341ZM31.0147 16.3609C31.0147 16.6329 30.9341 16.8988 30.783 17.125C30.6319 17.3511 30.4171 17.5274 30.1659 17.6315C29.9146 17.7356 29.6382 17.7628 29.3714 17.7098C29.1047 17.6567 28.8597 17.5257 28.6674 17.3334C28.4751 17.141 28.3441 16.896 28.2911 16.6292C28.238 16.3624 28.2653 16.0859 28.3693 15.8346C28.4734 15.5833 28.6497 15.3685 28.8758 15.2173C29.1019 15.0662 29.3677 14.9856 29.6397 14.9856C29.8204 14.9853 29.9994 15.0207 30.1664 15.0898C30.3334 15.1588 30.4851 15.2603 30.6128 15.3882C30.7405 15.5161 30.8416 15.6679 30.9104 15.8351C30.9793 16.0022 31.0144 16.1813 31.0138 16.362L31.0147 16.3609ZM34.9194 17.7565C34.8322 15.914 34.4116 14.2822 33.0618 12.9374C31.7176 11.5929 30.0859 11.1719 28.2437 11.0794C26.3452 10.9716 20.655 10.9716 18.7564 11.0794C16.9195 11.1667 15.2878 11.5874 13.9383 12.9322C12.5889 14.277 12.1735 15.9105 12.0813 17.7528C11.9729 19.6517 11.9729 25.3434 12.0813 27.243C12.1685 29.0856 12.5892 30.7173 13.9389 32.0621C15.2886 33.4069 16.9148 33.8276 18.757 33.9201C20.6556 34.028 26.3458 34.028 28.2443 33.9201C30.0865 33.8329 31.7179 33.4121 33.0624 32.0621C34.4066 30.7176 34.8275 29.0856 34.92 27.243C35.0278 25.344 35.0278 19.6576 34.92 17.7589L34.9194 17.7565ZM32.4673 29.2783C32.2722 29.7731 31.9775 30.2225 31.6015 30.5986C31.2255 30.9746 30.7762 31.2694 30.2816 31.4646C28.7679 32.065 25.1763 31.9266 23.5036 31.9266C21.8309 31.9266 18.234 32.0601 16.7256 31.4646C16.2308 31.2695 15.7813 30.9748 15.4052 30.5987C15.029 30.2226 14.7341 29.7732 14.5389 29.2783C13.9386 27.7664 14.0773 24.1731 14.0773 22.5001C14.0773 20.827 13.9438 17.2294 14.5389 15.7206C14.7341 15.2259 15.0288 14.7765 15.4048 14.4004C15.7808 14.0243 16.23 13.7295 16.7247 13.5344C18.2384 12.9339 21.83 13.0723 23.5027 13.0723C25.1754 13.0723 28.7722 12.9389 30.2807 13.5344C30.7755 13.7294 31.2249 14.0242 31.6011 14.4003C31.9773 14.7764 32.2721 15.2258 32.4673 15.7206C33.0676 17.2346 32.9293 20.827 32.9293 22.5001C32.9293 24.1731 33.0674 27.7707 32.4673 29.2783Z" fill="white"/>
</g>
<defs>
<clipPath id="clip0_267_913">
<rect width="23" height="23" fill="white" transform="translate(12 11)"/>
</clipPath>
</defs>
</svg>
