<svg width="46" height="46" viewBox="0 0 46 46" fill="none" xmlns="http://www.w3.org/2000/svg">
<circle cx="23" cy="23" r="23" fill="#0EB29F"/>
<g clip-path="url(#clip0_267_909)">
<path d="M17.4779 33H13.3315V18.9794H17.4779V33ZM15.4026 17.0668C14.9254 17.0692 14.4583 16.9229 14.0603 16.6465C13.6622 16.3701 13.3512 15.976 13.1665 15.514C12.9819 15.0519 12.9318 14.5428 13.0227 14.0509C13.1136 13.559 13.3413 13.1065 13.6772 12.7505C14.013 12.3945 14.4418 12.1511 14.9094 12.051C15.377 11.951 15.8623 11.9987 16.304 12.1883C16.7457 12.3779 17.124 12.7007 17.391 13.116C17.658 13.5313 17.8017 14.0204 17.8039 14.5215C17.8046 15.1926 17.5526 15.8369 17.1027 16.3137C16.6529 16.7905 16.0418 17.0613 15.4026 17.0668ZM32.9967 33H28.8591V26.1731C28.8591 24.5467 28.8266 22.4604 26.7032 22.4604C24.5473 22.4604 24.217 24.2275 24.217 26.0557V33H20.0752V18.9794H24.0522V20.8909H24.1104C24.663 19.7894 26.0163 18.6268 28.0338 18.6268C32.2302 18.6268 33.0016 21.5282 33.0016 25.2973V33H32.9967Z" fill="white"/>
</g>
<defs>
<clipPath id="clip0_267_909">
<rect width="20" height="21" fill="white" transform="translate(13 12)"/>
</clipPath>
</defs>
</svg>
