<svg width="46" height="46" viewBox="0 0 46 46" fill="none" xmlns="http://www.w3.org/2000/svg">
<circle cx="23" cy="23" r="23" fill="#0EB29F"/>
<g clip-path="url(#clip0_267_905)">
<path d="M34.3273 17.483C34.3439 17.7237 34.3439 17.9644 34.3439 18.2048C34.3439 25.544 28.9821 34.0004 19.1825 34.0004C16.2815 34.0081 13.4401 33.1426 11 31.5081C11.4273 31.5571 11.8569 31.5801 12.2867 31.5769C14.6851 31.5832 17.0156 30.7477 18.9024 29.205C17.7904 29.1839 16.7125 28.8016 15.8193 28.1113C14.926 27.421 14.2621 26.4573 13.9201 25.3548C14.2529 25.4096 14.5893 25.4383 14.9263 25.4406C15.3994 25.4395 15.8705 25.3763 16.3285 25.2525C15.1218 24.9982 14.0367 24.3165 13.2578 23.3231C12.4789 22.3298 12.0541 21.0861 12.0557 19.8034V19.7345C12.7945 20.1642 13.6204 20.4057 14.4659 20.4394C13.3346 19.6538 12.5338 18.448 12.2269 17.0681C11.92 15.6882 12.1302 14.2383 12.8146 13.0144C14.153 14.7308 15.8228 16.1349 17.7156 17.1358C19.6085 18.1366 21.6821 18.7117 23.802 18.8239C23.7164 18.4058 23.6721 17.9797 23.6698 17.5522C23.6709 16.4387 23.9929 15.3513 24.5943 14.4308C25.1957 13.5103 26.0486 12.7992 27.0424 12.3898C28.0363 11.9804 29.1253 11.8915 30.1683 12.1345C31.2113 12.3776 32.1601 12.9416 32.8918 13.7532C34.0847 13.5136 35.2286 13.06 36.2725 12.4126C35.8751 13.6956 35.0421 14.7834 33.9298 15.4721C34.9881 15.3466 36.0225 15.0569 36.9986 14.6127C36.2693 15.7192 35.366 16.6895 34.3269 17.483H34.3273Z" fill="white"/>
</g>
<defs>
<clipPath id="clip0_267_905">
<rect width="26" height="22" fill="white" transform="translate(11 12)"/>
</clipPath>
</defs>
</svg>
